<?xml version="1.0" standalone="no"?>
<!DOCTYPE svg PUBLIC "-//W3C//DTD SVG 1.1//EN" "http://www.w3.org/Graphics/SVG/1.1/DTD/svg11.dtd" >
<svg>
<metadata>
Created by FontForge 20090914 at Fri Nov 13 02:01:34 2020
 By www-data
Copyright 2020 The Kanit Project Authors (https://github.com/cadsondemak/kanit)
</metadata>
<defs>
<font id="Kanit-SemiBold" horiz-adv-x="0" >
  <font-face 
    font-family="Kanit SemiBold"
    font-weight="600"
    font-stretch="normal"
    units-per-em="1000"
    panose-1="0 0 0 0 0 0 0 0 0 0"
    ascent="800"
    descent="-200"
    x-height="473.999"
    cap-height="644"
    bbox="-635.002 -370 1270 1100"
    underline-thickness="50"
    underline-position="-75"
    unicode-range="U+000D-U+FB02"
  />
<missing-glyph horiz-adv-x="474" 
d="M31 0v714h411v-714h-411zM82 51h309v612h-309v-612z" />
    <glyph glyph-name="fi" unicode="fi" horiz-adv-x="564" 
d="M74 0l0.00195312 352.001h-63v122h63v37c0 34 8.16699 64.667 24.5 92s40.166 49.166 71.499 65.499s69.333 24.5 114 24.5c54.667 0 99 -6.66699 133 -20v-114c-8 4 -19.833 7.16699 -35.5 9.5s-29.834 3.5 -42.501 3.5c-38.667 0 -65.667 -5.33301 -81 -16
s-23 -27 -23 -49v-33h278v-474h-161v352h-117v-352h-161z" />
    <glyph glyph-name="fl" unicode="fl" horiz-adv-x="564" 
d="M74 0l-0.000976562 352h-63v122h63v37c0 49.333 15.667 90.833 47 124.5s76 51.834 134 54.501c21.333 0.666992 42.833 -0.333008 64.5 -3s42.834 -7.33398 63.501 -14.001h130v-673h-161v352h-117v-352h-161zM234.999 474l117.001 0.00195312v92
c-6.66699 1.33301 -15.334 2.66602 -26.001 3.99902s-19.667 1.66602 -27 0.999023c-42.667 -0.666992 -64 -22 -64 -64v-33z" />
    <glyph glyph-name="uni0E240E45" unicode="&#xe24;&#xe45;" horiz-adv-x="917" 
d="M412 -160l-0.00488281 483.997c0 38 -9.16699 65 -27.5 81s-48.166 24 -89.499 24c-26 0 -50.167 -3.66699 -72.5 -11s-40.166 -16.666 -53.499 -27.999v-11l108 -31v-85c-24 -6.66699 -40.667 -16.5 -50 -29.5s-14 -32.5 -14 -58.5v-28c0 -22.667 11.333 -34 34 -34h47
v-113h-138c-31.333 0 -56.5 9.83301 -75.5 29.5s-28.5 44.834 -28.5 75.501v66c0 28 5.33301 53.5 16 76.5s30.334 39.167 59.001 48.5l-96 27v136c28.667 22.667 66.334 43.5 113.001 62.5s100 28.5 160 28.5c71.333 0 128 -11.333 170 -34c20 9.33301 45 17.333 75 24
s60.333 10 91 10c78.667 0 135.5 -17.167 170.5 -51.5s52.5 -86.166 52.5 -155.499v-503h-161v486c0 34.667 -6.66699 60.5 -20 77.5s-38.666 25.5 -75.999 25.5c-15.333 0 -32 -1.33301 -50 -4c11.333 -28.667 17 -62 17 -100v-485h-161z" />
    <glyph glyph-name="uni0E260E45" unicode="&#xe26;&#xe45;" horiz-adv-x="950" 
d="M444 -160l-0.00292969 483.997c0 38 -8.66699 65 -26 81s-45.666 24 -84.999 24c-26 0 -50 -3.66699 -72 -11s-40 -16.666 -54 -27.999v-11l108 -31v-85c-22.667 -7.33301 -37.167 -17.5 -43.5 -30.5s-9.5 -33.167 -9.5 -60.5v-46c0 -43.333 -11 -75.166 -33 -95.499
s-53 -30.5 -93 -30.5h-100v113h29c12 0 20.333 2.66699 25 8s7 14 7 26v28c0 28 4.33301 52.5 13 73.5s27.334 36.833 56.001 47.5l-97 27v136c29.333 22.667 67.166 43.5 113.499 62.5s99.5 28.5 159.5 28.5c68.667 0 124 -11.333 166 -34
c20 9.33301 44.833 17.333 74.5 24s59.834 10 90.501 10c78.667 0 135.5 -17.167 170.5 -51.5s52.5 -86.166 52.5 -155.499v-503h-161v486c0 34.667 -6.66699 60.5 -20 77.5s-38.666 25.5 -75.999 25.5c-16 0 -32.667 -1.33301 -50 -4c11.333 -28.667 17 -62 17 -100v-485
h-162z" />
    <glyph glyph-name=".notdef" horiz-adv-x="474" 
d="M31 0v714h411v-714h-411zM82 51h309v612h-309v-612z" />
    <glyph glyph-name=".null" horiz-adv-x="500" 
 />
    <glyph glyph-name=".null" horiz-adv-x="500" 
 />
    <glyph glyph-name="CR" unicode="&#xd;" horiz-adv-x="215" 
 />
    <glyph glyph-name="space" unicode=" " horiz-adv-x="215" 
 />
    <glyph glyph-name="exclam" unicode="!" horiz-adv-x="231" 
d="M41 176l-6 299v169h161v-169l-6 -299h-149zM31 0v116h169v-116h-169z" />
    <glyph glyph-name="quotedbl" unicode="&#x22;" horiz-adv-x="382" 
d="M217 431v213h134l-15 -213h-119zM31 431v213h134l-15 -213h-119z" />
    <glyph glyph-name="numbersign" unicode="#" horiz-adv-x="708" 
d="M51 0l49 157h-69v105h102l37 119h-97v106h131l49 157h139l-50 -157h131l49 157h139l-50 -157h66v-106h-99l-38 -119h95v-105h-128l-49 -157h-138l49 157h-131l-49 -157h-138zM271 262h131l37 119h-130z" />
    <glyph glyph-name="dollar" unicode="$" horiz-adv-x="555" 
d="M232 -86l-0.00292969 77.0029c-36.667 1.33301 -70.5 4.66602 -101.5 9.99902s-58.167 13.333 -81.5 24v119c27.333 -11.333 57 -20.5 89 -27.5s63.333 -11.167 94 -12.5v175l-12 4c-67.333 18.667 -114.666 42 -141.999 70s-41 66.667 -41 116
c0 51.333 16.5 92.666 49.5 123.999s81.5 50.666 145.5 57.999v79h99v-77c30.667 -2 59 -5.33301 85 -10s47.333 -10 64 -16v-119c-23.333 8.66699 -47.666 15.667 -72.999 21s-50.666 8.33301 -75.999 9v-166c49.333 -14 87.5 -30.5 114.5 -49.5s45.833 -40.667 56.5 -65
s16 -51.5 16 -81.5c0 -47.333 -15.333 -87 -46 -119s-77.667 -52.667 -141 -62v-81h-99zM231.997 401.003v131c-18.667 -4 -33 -11 -43 -21s-15 -24 -15 -42c0 -16.667 4.16699 -30 12.5 -40s23.5 -19.333 45.5 -28zM330.997 111.003c16.667 4.66699 29 11.999 37 21.999
s12 24.333 12 43c0 17.333 -3.66699 31.333 -11 42s-20 20.334 -38 29.001v-136z" />
    <glyph glyph-name="percent" unicode="%" horiz-adv-x="757" 
d="M179 349c-48.667 0 -85.5 13.667 -110.5 41s-37.5 62.333 -37.5 105c0 49.333 12.5 88.166 37.5 116.499s61.833 42.5 110.5 42.5c49.333 0 86.5 -14.167 111.5 -42.5s37.5 -67.166 37.5 -116.499c0 -42.667 -12.5 -77.667 -37.5 -105s-62.167 -41 -111.5 -41zM133 0
l337 644h153l-338 -644h-152zM179 437c21.333 0 36.5 5.5 45.5 16.5s13.5 25.833 13.5 44.5c0 45.333 -19.667 68 -59 68c-38.667 0 -58 -22.667 -58 -68c0 -18.667 4.5 -33.5 13.5 -44.5s23.833 -16.5 44.5 -16.5zM577 -10c-48.667 0 -85.5 13.5 -110.5 40.5
s-37.5 61.833 -37.5 104.5c0 49.333 12.5 88.166 37.5 116.499s61.833 42.5 110.5 42.5c49.333 0 86.5 -14.167 111.5 -42.5s37.5 -67.166 37.5 -116.499c0 -42.667 -12.5 -77.5 -37.5 -104.5s-62.167 -40.5 -111.5 -40.5zM577 77c21.333 0 36.5 5.5 45.5 16.5
s13.5 25.833 13.5 44.5c0 45.333 -19.667 68 -59 68c-38.667 0 -58 -22.667 -58 -68c0 -18.667 4.5 -33.5 13.5 -44.5s23.833 -16.5 44.5 -16.5z" />
    <glyph glyph-name="ampersand" unicode="&#x26;" horiz-adv-x="677" 
d="M552 -15l-65.999 66.999c-50.667 -41.333 -119.667 -62 -207 -62c-75.333 0 -135.5 16 -180.5 48s-67.5 74.667 -67.5 128c0 44 11.667 81.167 35 111.5s56.666 57.5 99.999 81.5c-21.333 21.333 -38.333 42.333 -51 63s-19 45.334 -19 74.001c0 46.667 17 84.667 51 114
s80 44 138 44s104.167 -14.333 138.5 -43s51.5 -67 51.5 -115c0 -32.667 -7.33301 -61.167 -22 -85.5s-36.667 -47.833 -66 -70.5l106 -109c8 15.333 12 34.333 12 57v18h121v-23c0 -26 -4 -51.333 -12 -76s-18.333 -45.667 -31 -63l69 -69zM283.001 404.999
c20.667 12.667 36.332 24.833 46.999 36.5s16 27.167 16 46.5c0 17.333 -4.83301 31.5 -14.5 42.5s-24.5 16.5 -44.5 16.5c-21.333 0 -36.833 -5.83301 -46.5 -17.5s-14.5 -25.5 -14.5 -41.5c0 -14.667 4.83301 -28.667 14.5 -42s23.834 -27 42.501 -41zM278.999 99.998
c46 0 82.334 12.666 109.001 37.999l-123 126c-26 -11.333 -45.667 -24.166 -59 -38.499s-20 -32.833 -20 -55.5s8.66699 -40 26 -52s39.666 -18 66.999 -18z" />
    <glyph glyph-name="quotesingle" unicode="'" horiz-adv-x="196" 
d="M31 431v213h134l-15 -213h-119z" />
    <glyph glyph-name="parenleft" unicode="(" horiz-adv-x="355" 
d="M160 -72c-44.667 43.333 -77.334 98.1689 -98.001 164.502s-31 136.5 -31 210.5c0 73.333 10.333 143.333 31 210s53.334 121.667 98.001 165h183c-52.667 -48 -90.5 -103.833 -113.5 -167.5s-34.5 -132.834 -34.5 -207.501s11.5 -143.834 34.5 -207.501
s60.833 -119.5 113.5 -167.5h-183z" />
    <glyph glyph-name="parenright" unicode=")" horiz-adv-x="355" 
d="M11 -72c53.333 48 91.333 103.83 114 167.497s34 132.834 34 207.501s-11.333 143.834 -34 207.501s-60.667 119.5 -114 167.5h184c44 -43.333 76.333 -98.333 97 -165s31 -136.667 31 -210c0 -74 -10.333 -144.167 -31 -210.5s-53 -121.166 -97 -164.499h-184z" />
    <glyph glyph-name="asterisk" unicode="*" horiz-adv-x="440" 
d="M148 300l-92 67l81 85l-106 44l48 98l86 -46l-5 96h120l-5 -96l86 46l47 -98l-106 -44l81 -85l-92 -67l-71 97z" />
    <glyph glyph-name="plus" unicode="+" horiz-adv-x="457" 
d="M166 88v127h-135v125h135v129h126v-129h134v-125h-134v-127h-126z" />
    <glyph glyph-name="comma" unicode="," horiz-adv-x="231" 
d="M31 -120l32 213h137l-54 -213h-115z" />
    <glyph glyph-name="hyphen" unicode="-" horiz-adv-x="457" 
d="M31 215v125h395v-125h-395z" />
    <glyph glyph-name="period" unicode="." horiz-adv-x="191" 
d="M31 0v118h129v-118h-129z" />
    <glyph glyph-name="slash" unicode="/" horiz-adv-x="461" 
d="M31 0l234 662h165l-234 -662h-165z" />
    <glyph glyph-name="zero" unicode="0" horiz-adv-x="661" 
d="M330 -18c-72 0 -130 13 -174 39s-75.833 64.167 -95.5 114.5s-29.5 111.166 -29.5 182.499s9.83301 132 29.5 182s51.5 88.167 95.5 114.5s102 39.5 174 39.5c72.667 0 130.834 -13.167 174.501 -39.5s75.5 -64.5 95.5 -114.5s30 -110.667 30 -182
s-10 -132.166 -30 -182.499s-51.833 -88.5 -95.5 -114.5s-101.834 -39 -174.501 -39zM330 120c50.667 0 85.834 16.833 105.501 50.5s29.5 82.834 29.5 147.501s-9.83301 113.834 -29.5 147.501s-54.834 50.5 -105.501 50.5s-85.834 -16.833 -105.501 -50.5
s-29.5 -82.834 -29.5 -147.501s9.83301 -113.834 29.5 -147.501s54.834 -50.5 105.501 -50.5z" />
    <glyph glyph-name="one" unicode="1" horiz-adv-x="349" 
d="M137 0v496l-106 -17v135l267 40v-654h-161z" />
    <glyph glyph-name="two" unicode="2" horiz-adv-x="517" 
d="M31 0l0.00195312 75c18 37.333 41.167 70.666 69.5 99.999s59.166 59 92.499 89l73 67c18 16.667 30.833 32.667 38.5 48s11.5 33.666 11.5 54.999c0 54.667 -35.333 82 -106 82c-27.333 0 -54.333 -3.16699 -81 -9.5s-52 -14.166 -76 -23.499v139
c26 9.33301 56.5 17 91.5 23s69.833 9 104.5 9c75.333 0 132.666 -19 171.999 -57s59 -91.333 59 -160c0 -38.667 -9 -72.167 -27 -100.5s-45 -58.166 -81 -89.499l-71.5 -62.5c-21 -19 -38.833 -39.167 -53.5 -60.5h239v-124h-455z" />
    <glyph glyph-name="three" unicode="3" horiz-adv-x="529" 
d="M232 -10c-18.667 0 -40.666 1.33301 -65.999 4s-50.166 6.5 -74.499 11.5s-44.5 10.833 -60.5 17.5v134c27.333 -12.667 56.666 -21.667 87.999 -27s60.666 -8 87.999 -8c42 0 73.5 5.66699 94.5 17s31.5 32 31.5 62c0 23.333 -8.83301 40.333 -26.5 51
s-43.167 16 -76.5 16h-105l11 113h87c34 0 58.667 5.5 74 16.5s23 28.833 23 53.5c0 23.333 -9.16699 41 -27.5 53s-47.833 18 -88.5 18c-28.667 0 -57.667 -3.16699 -87 -9.5s-54.666 -14.5 -75.999 -24.5v132c23.333 9.33301 52.5 17.333 87.5 24s70.167 10 105.5 10
c81.333 0 143.5 -17.167 186.5 -51.5s64.5 -78.166 64.5 -131.499c0 -30.667 -6.5 -59.334 -19.5 -86.001s-32.833 -46.667 -59.5 -60c30.667 -10.667 53.5 -28 68.5 -52s22.5 -53 22.5 -87c0 -44.667 -11.333 -81.5 -34 -110.5s-53.834 -50.5 -93.501 -64.5
s-85.5 -21 -137.5 -21z" />
    <glyph glyph-name="four" unicode="4" horiz-adv-x="547" 
d="M314 0v128h-303v107l323 409h141v-386h60v-130h-60v-128h-161zM166 252h175v215z" />
    <glyph glyph-name="five" unicode="5" horiz-adv-x="521" 
d="M229 -10c-19.333 0 -40.8311 1.16699 -64.498 3.5s-47 5.83301 -70 10.5s-43.167 10.667 -60.5 18v134c16 -6.66699 34.167 -12.5 54.5 -17.5s40.666 -8.83301 60.999 -11.5s38.5 -4 54.5 -4c41.333 0 71.833 6.33301 91.5 19s29.5 34.334 29.5 65.001
c0 27.333 -6.83301 47.166 -20.5 59.499s-39.834 18.5 -78.501 18.5h-195v81l17 278h400l-12 -124h-250l-7 -117h84c78 0 135.167 -17.167 171.5 -51.5s54.5 -84.5 54.5 -150.5c0 -64 -21.5 -115.167 -64.5 -153.5s-108.167 -57.5 -195.5 -57.5z" />
    <glyph glyph-name="six" unicode="6" horiz-adv-x="583" 
d="M293 -10c-174.667 0 -262 85.666 -262 256.999v131c0 53.333 11.833 100.833 35.5 142.5s57.5 74.334 101.5 98.001s96.333 35.5 157 35.5c34.667 0 64.834 -2 90.501 -6s50.167 -10.667 73.5 -20v-131c-22 9.33301 -45.333 16.166 -70 20.499s-51.667 6.5 -81 6.5
c-51.333 0 -90.166 -10.5 -116.499 -31.5s-39.5 -48.167 -39.5 -81.5v-25c19.333 13.333 42.666 23.5 69.999 30.5s52.333 10.5 75 10.5c77.333 0 134.166 -18.5 170.499 -55.5s54.5 -90.167 54.5 -159.5c0 -43.333 -8.83301 -81.666 -26.5 -114.999
s-45.5 -59.5 -83.5 -78.5s-87.667 -28.5 -149 -28.5zM294 105.999c38 0 66.5 9.00195 85.5 27.002s28.5 42.333 28.5 73c0 33.333 -8.33301 58.666 -25 75.999s-45.667 26 -87 26c-19.333 0 -38.833 -3.33301 -58.5 -10s-38.167 -15.334 -55.5 -26.001v-54
c0 -74.667 37.333 -112 112 -112z" />
    <glyph glyph-name="seven" unicode="7" horiz-adv-x="498" 
d="M76 0l221 520h-276v124h455v-96l-232 -548h-168z" />
    <glyph glyph-name="eight" unicode="8" horiz-adv-x="603" 
d="M301 -10c-92 0 -159.999 16.167 -203.999 48.5s-66 80.5 -66 144.5c0 32.667 8.33301 62.667 25 90s39.667 47.333 69 60c-26.667 13.333 -46.334 31.5 -59.001 54.5s-19 47.5 -19 73.5c0 58.667 20.167 105.5 60.5 140.5s104.833 52.5 193.5 52.5
c90.667 0 155.667 -17.5 195 -52.5s59 -81.833 59 -140.5c0 -26.667 -6.16699 -52.167 -18.5 -76.5s-32.833 -43.5 -61.5 -57.5c64.667 -26.667 97 -74.667 97 -144c0 -64 -22.167 -112.167 -66.5 -144.5s-112.5 -48.5 -204.5 -48.5zM326.001 373
c26.667 8 46 18.168 58 30.501s18 30.5 18 54.5c0 50 -33.667 75 -101 75c-33.333 0 -58.5 -5.83301 -75.5 -17.5s-25.5 -30.834 -25.5 -57.501c0 -40 21.667 -64.333 65 -73zM301.001 110.001c40 0 69.502 6.00098 88.502 18.001s28.5 31.333 28.5 58
c0 23.333 -6.33301 40.5 -19 51.5s-33.334 19.5 -62.001 25.5l-73 15c-24.667 -5.33301 -44.167 -14.333 -58.5 -27s-21.5 -32.667 -21.5 -60c0 -28.667 9.66699 -49.334 29 -62.001s48.666 -19 87.999 -19z" />
    <glyph glyph-name="nine" unicode="9" horiz-adv-x="583" 
d="M258 -10c-34.667 0 -64.8311 1.83301 -90.498 5.5s-50.167 9.83398 -73.5 18.501v131c43.333 -17.333 93.666 -26 150.999 -26c52 0 91 10.667 117 32s39 48.333 39 81v25c-19.333 -12.667 -42.5 -22.667 -69.5 -30s-52.167 -11 -75.5 -11c-78 0 -135 18.667 -171 56
s-54 90.333 -54 159c0 43.333 8.83301 81.833 26.5 115.5s45.667 60 84 79s87.833 28.5 148.5 28.5c89.333 0 155.333 -21.333 198 -64s64 -107 64 -193v-131c0 -53.333 -11.833 -100.833 -35.5 -142.5s-57.334 -74.334 -101.001 -98.001s-96.167 -35.5 -157.5 -35.5z
M287.003 335c19.333 0 39 3.50098 59 10.501s38.333 15.833 55 26.5v53c0 74.667 -37.333 112 -112 112c-38 0 -66.5 -8.83301 -85.5 -26.5s-28.5 -42.167 -28.5 -73.5c0 -32.667 8.16699 -57.834 24.5 -75.501s45.5 -26.5 87.5 -26.5z" />
    <glyph glyph-name="colon" unicode=":" horiz-adv-x="191" 
d="M31 320v120h128v-120h-128zM31 20v120h128v-120h-128z" />
    <glyph glyph-name="semicolon" unicode=";" horiz-adv-x="231" 
d="M68 320v120h129v-120h-129zM31 -120l32 213h137l-54 -213h-115z" />
    <glyph glyph-name="less" unicode="&#x3c;" horiz-adv-x="540" 
d="M509 27l-478 214v133l478 213v-150l-307 -129l307 -130v-151z" />
    <glyph glyph-name="equal" unicode="=" horiz-adv-x="455" 
d="M31 308v112h392v-112h-392zM31 132v113h392v-113h-392z" />
    <glyph glyph-name="greater" unicode="&#x3e;" horiz-adv-x="540" 
d="M31 27v151l306 130l-306 129v150l478 -213v-133z" />
    <glyph glyph-name="question" unicode="?" horiz-adv-x="498" 
d="M134 177l-0.00390625 19.001c0 26.667 5.5 49 16.5 67s25.833 35.667 44.5 53c17.333 16.667 34.333 31 51 43s30.334 24.667 41.001 38s16 29 16 47c0 26 -9.16699 44.5 -27.5 55.5s-48.833 16.5 -91.5 16.5c-28 0 -55.667 -3.5 -83 -10.5
s-50.666 -15.833 -69.999 -26.5v135c24.667 12 53.834 21.667 87.501 29s70.5 11 110.5 11c77.333 0 136.333 -16.833 177 -50.5s61 -79.834 61 -138.501c0 -37.333 -7.66699 -67.5 -23 -90.5s-37.666 -46.5 -66.999 -70.5l-62 -53.5c-16.667 -15 -25 -35.167 -25 -60.5v-13
h-156zM126.996 0.000976562v116h169v-116h-169z" />
    <glyph glyph-name="at" unicode="@" horiz-adv-x="758" 
d="M388 -132c-70 0 -131.833 11.501 -185.5 34.501s-95.667 58.167 -126 105.5s-45.5 107.333 -45.5 180s15.167 134 45.5 184s73 88 128 114s119.5 39 193.5 39c104 0 184.667 -24.833 242 -74.5s86 -117.167 86 -202.5c0 -64 -16.667 -113 -50 -147
s-83.666 -51 -150.999 -51h-36c-16.667 -13.333 -36.5 -23.833 -59.5 -31.5s-51.167 -11.5 -84.5 -11.5c-36.667 0 -67.167 9.66699 -91.5 29s-36.5 47.333 -36.5 84c0 36 11.833 64.167 35.5 84.5s60.167 30.5 109.5 30.5h96v19c0 20 -5.83301 34.667 -17.5 44
s-34.5 14 -68.5 14c-38.667 0 -77.667 -6.33301 -117 -19v65c17.333 7.33301 38.666 13 63.999 17s51 6 77 6c54 0 93.333 -11 118 -33s37 -57.333 37 -106v-111c21.333 0 37.5 9 48.5 27s16.5 48 16.5 90c0 124 -72.667 186 -218 186c-83.333 0 -147 -19.833 -191 -59.5
s-66 -102.5 -66 -188.5c0 -54.667 10 -98.667 30 -132s48.333 -57.5 85 -72.5s80 -22.5 130 -22.5c73.333 0 131 6.33301 173 19v-92c-20.667 -4.66699 -45.667 -8.83398 -75 -12.501s-61.333 -5.5 -96 -5.5zM372 76.001c36.667 0 65.333 12.332 86 36.999v59h-78
c-25.333 0 -43 -4.16699 -53 -12.5s-15 -21.166 -15 -38.499c0 -30 20 -45 60 -45z" />
    <glyph glyph-name="A" unicode="A" horiz-adv-x="728" 
d="M31 0l246 644h174l246 -644h-168l-58 146h-215l-57 -146h-168zM278 265h171l-86 224z" />
    <glyph glyph-name="B" unicode="B" horiz-adv-x="641" 
d="M51 0v644h340c64.667 0 113.5 -15.333 146.5 -46s49.5 -74 49.5 -130c0 -34 -6.5 -62.5 -19.5 -85.5s-30.167 -40.833 -51.5 -53.5c29.333 -10.667 52.333 -26.334 69 -47.001s25 -51.667 25 -93c0 -61.333 -18 -108.166 -54 -140.499s-87.667 -48.5 -155 -48.5h-350z
M212 382l131 -0.000976562c28 0 48.333 6.33301 61 19s19 30.334 19 53.001c0 24.667 -6.33301 43.167 -19 55.5s-35.667 18.5 -69 18.5h-123v-146zM212 114.999h147.001c29.333 0 51.166 6 65.499 18s21.5 33.333 21.5 64c0 24.667 -7 43.167 -21 55.5s-38 18.5 -72 18.5
h-141v-156z" />
    <glyph glyph-name="C" unicode="C" horiz-adv-x="603" 
d="M377 -10c-112.667 0 -198.504 28.8311 -257.504 86.498s-88.5 137.834 -88.5 240.501c0 107.333 28.833 190.333 86.5 249s143.834 88 258.501 88c39.333 0 74.5 -3 105.5 -9s60.833 -14 89.5 -24v-141c-58 24 -119 36 -183 36c-66.667 0 -115.5 -16 -146.5 -48
s-46.5 -82.333 -46.5 -151c0 -65.333 16.333 -113.333 49 -144s81.334 -46 146.001 -46c31.333 0 62.333 2.83301 93 8.5s60.334 14.5 89.001 26.5v-142c-28 -9.33301 -57.667 -16.666 -89 -21.999s-66.666 -8 -105.999 -8z" />
    <glyph glyph-name="D" unicode="D" horiz-adv-x="663" 
d="M51 0v644.003h279c65.333 0 120.333 -10.833 165 -32.5s78.667 -56.334 102 -104.001s35 -110.834 35 -189.501c0 -110.667 -25.5 -191.334 -76.5 -242.001s-126.167 -76 -225.5 -76h-279zM212 124.003h95.999c34.667 0 63.834 5.16699 87.501 15.5s41.667 29.5 54 57.5
s18.5 68.333 18.5 121c0 53.333 -5.5 94.5 -16.5 123.5s-28.333 49.333 -52 61s-54.167 17.5 -91.5 17.5h-96v-396z" />
    <glyph glyph-name="E" unicode="E" horiz-adv-x="552" 
d="M51 0v644h475v-124h-314v-135h277v-126h-277v-135h314v-124h-475z" />
    <glyph glyph-name="F" unicode="F" horiz-adv-x="530" 
d="M51 0v644h468v-124h-307v-135h270v-126h-270v-259h-161z" />
    <glyph glyph-name="G" unicode="G" horiz-adv-x="647" 
d="M372 -10c-111.333 0 -196.001 28.167 -254.001 84.5s-87 135.833 -87 238.5c0 107.333 29.667 191 89 251s146.666 90 261.999 90c39.333 0 74.833 -2.33301 106.5 -7s61.834 -11.667 90.501 -21v-138c-28.667 10.667 -58.5 18 -89.5 22s-62.833 6 -95.5 6
c-69.333 0 -119.833 -16.5 -151.5 -49.5s-47.5 -84.167 -47.5 -153.5c0 -63.333 15 -110.166 45 -140.499s74.333 -45.5 133 -45.5c38.667 0 74.667 5.33301 108 16v122h-139v101h274v-319c-22.667 -14.667 -54.167 -27.834 -94.5 -39.501s-90.166 -17.5 -149.499 -17.5z
" />
    <glyph glyph-name="H" unicode="H" horiz-adv-x="676" 
d="M51 0v644h161v-255h252v255h161v-644h-161v255h-252v-255h-161z" />
    <glyph glyph-name="I" unicode="I" horiz-adv-x="263" 
d="M51 0v644h161v-644h-161z" />
    <glyph glyph-name="J" unicode="J" horiz-adv-x="441" 
d="M159 -10c-27.333 0 -53.499 1.83301 -78.499 5.5s-48.167 9.5 -69.5 17.5v135c16 -6.66699 34 -11.834 54 -15.501s40.333 -5.5 61 -5.5c39.333 0 67.166 7.83301 83.499 23.5s24.5 41.834 24.5 78.501v415h161v-445c0 -67.333 -20 -119 -60 -155s-98.667 -54 -176 -54z
" />
    <glyph glyph-name="K" unicode="K" horiz-adv-x="663" 
d="M51 0v644h161v-250l222 250h184l-230 -263l244 -381h-172l-172 278l-76 -83v-195h-161z" />
    <glyph glyph-name="L" unicode="L" horiz-adv-x="527" 
d="M51 0v644h161v-520h304v-124h-465z" />
    <glyph glyph-name="M" unicode="M" horiz-adv-x="768" 
d="M51 0v644h159l175 -357l174 357h158v-644h-161v370l-127 -260h-89l-128 260v-370h-161z" />
    <glyph glyph-name="N" unicode="N" horiz-adv-x="676" 
d="M51 0v644h138l274 -385v385h162v-644h-139l-274 384v-384h-161z" />
    <glyph glyph-name="O" unicode="O" horiz-adv-x="704" 
d="M352 -10c-104.667 0 -184.334 26.667 -239.001 80s-82 136.333 -82 249c0 119.333 27.333 205 82 257s134.334 78 239.001 78s184.334 -26 239.001 -78s82 -137.667 82 -257c0 -112.667 -27.333 -195.667 -82 -249s-134.334 -80 -239.001 -80zM352 127
c54 0 93.5 15.5 118.5 46.5s37.5 79.5 37.5 145.5c0 72 -12.5 122.833 -37.5 152.5s-64.5 44.5 -118.5 44.5c-54.667 0 -94.5 -14.833 -119.5 -44.5s-37.5 -80.5 -37.5 -152.5c0 -66 12.5 -114.5 37.5 -145.5s64.833 -46.5 119.5 -46.5z" />
    <glyph glyph-name="P" unicode="P" horiz-adv-x="606" 
d="M51 0l0.000976562 644h317c51.333 0 93.666 -10.167 126.999 -30.5s58.166 -47.833 74.499 -82.5s24.5 -73.667 24.5 -117c0 -44 -9.33301 -83 -28 -117s-45.167 -60.5 -79.5 -79.5s-75.166 -28.5 -122.499 -28.5h-152v-189h-161zM212.001 313h116
c34 0 59.5 9.33301 76.5 28s25.5 43.334 25.5 74.001c0 33.333 -7.83301 59.166 -23.5 77.499s-40.167 27.5 -73.5 27.5h-121v-207z" />
    <glyph glyph-name="Q" unicode="Q" horiz-adv-x="704" 
d="M462 -172c-45.333 0 -80.8379 6.16602 -106.505 18.499s-43.5 30.833 -53.5 55.5s-15.333 55.334 -16 92.001c-83.333 10 -146.666 41.5 -189.999 94.5s-65 129.833 -65 230.5c0 119.333 27.333 205 82 257s134.334 78 239.001 78s184.334 -26 239.001 -78
s82 -137.667 82 -257c0 -98.667 -20.833 -174.334 -62.5 -227.001s-102.167 -84.667 -181.5 -96c0 -21.333 3.83301 -36.166 11.5 -44.499s20.834 -12.5 39.501 -12.5c20.667 0 41.667 2.66699 63 8v-109c-10 -2.66699 -23.167 -5 -39.5 -7s-30.166 -3 -41.499 -3z
M351.995 126.999c54 0 93.5 15.5 118.5 46.5s37.5 79.5 37.5 145.5c0 72 -12.5 122.833 -37.5 152.5s-64.5 44.5 -118.5 44.5c-54.667 0 -94.5 -14.833 -119.5 -44.5s-37.5 -80.5 -37.5 -152.5c0 -66 12.5 -114.5 37.5 -145.5s64.833 -46.5 119.5 -46.5z" />
    <glyph glyph-name="R" unicode="R" horiz-adv-x="626" 
d="M51 0l-0.00195312 644h322c76 0 132 -20 168 -60s54 -93.667 54 -161c0 -43.333 -11 -81.333 -33 -114s-52 -57 -90 -73c9.33301 -7.33301 16.833 -15.5 22.5 -24.5s11.834 -21.5 18.501 -37.5l76 -174h-168l-72 164c-6 14 -13.667 24.167 -23 30.5
s-22.666 9.5 -39.999 9.5h-74v-204h-161zM211.998 328h119c31.333 0 55.833 7.83301 73.5 23.5s26.5 39.5 26.5 71.5c0 64.667 -31 97 -93 97h-126v-192z" />
    <glyph glyph-name="S" unicode="S" horiz-adv-x="555" 
d="M256 -10c-42.667 0 -82.498 3.16992 -119.498 9.50293s-68.833 15.5 -95.5 27.5v137c29.333 -12.667 61.833 -23 97.5 -31s69.5 -12 101.5 -12c40 0 69.833 3.66699 89.5 11s29.5 23.333 29.5 48c0 16.667 -4.83301 30 -14.5 40s-25.334 18.833 -47.001 26.5
s-51.167 16.834 -88.5 27.501c-44 13.333 -79 28.166 -105 44.499s-44.667 36.166 -56 59.499s-17 52 -17 86c0 61.333 22 108.333 66 141s109 49 195 49c37.333 0 73.666 -2.83301 108.999 -8.5s64 -12.167 86 -19.5v-138c-28.667 11.333 -57.5 19.666 -86.5 24.999
s-57.167 8 -84.5 8c-36 0 -65.167 -3.33301 -87.5 -10s-33.5 -22 -33.5 -46c0 -14 4 -25.167 12 -33.5s21.833 -15.833 41.5 -22.5s46.5 -14.667 80.5 -24c52.667 -14 93 -30.833 121 -50.5s47.333 -42.334 58 -68.001s16 -54.5 16 -86.5c0 -56.667 -22 -102.5 -66 -137.5
s-111.333 -52.5 -202 -52.5z" />
    <glyph glyph-name="T" unicode="T" horiz-adv-x="571" 
d="M200 0v520h-189v124h539v-124h-189v-520h-161z" />
    <glyph glyph-name="U" unicode="U" horiz-adv-x="684" 
d="M342 -10c-60 0 -112.167 9.66699 -156.5 29s-78.666 48 -102.999 86s-36.5 84.667 -36.5 140v399h161v-384c0 -44.667 11.667 -78 35 -100s56.666 -33 99.999 -33s76.666 11 99.999 33s35 55.333 35 100v384h161v-399c0 -55.333 -12.167 -102 -36.5 -140
s-58.666 -66.667 -102.999 -86s-96.5 -29 -156.5 -29z" />
    <glyph glyph-name="V" unicode="V" horiz-adv-x="728" 
d="M277 0l-246 644h168l164 -460l165 460h169l-246 -644h-174z" />
    <glyph glyph-name="W" unicode="W" horiz-adv-x="883" 
d="M181 0l-150 644h158l85 -388l88 297v91h132l111 -389l89 389h158l-149 -644h-149l-108 372l-116 -372h-149z" />
    <glyph glyph-name="X" unicode="X" horiz-adv-x="727" 
d="M31 0l235 324l-228 320h192l133 -192l134 192h192l-228 -320l235 -324h-194l-139 195l-138 -195h-194z" />
    <glyph glyph-name="Y" unicode="Y" horiz-adv-x="644" 
d="M241 0v237l-231 407h168l144 -267l144 267h168l-231 -407v-237h-162z" />
    <glyph glyph-name="Z" unicode="Z" horiz-adv-x="578" 
d="M31 0v82l302 434h-287v128h498v-90l-299 -430h305v-124h-519z" />
    <glyph glyph-name="bracketleft" unicode="[" horiz-adv-x="367" 
d="M31 -99v805h309l5 -124h-153v-557h154l-5 -124h-310z" />
    <glyph glyph-name="backslash" unicode="\" horiz-adv-x="482" 
d="M284 -54l-253 716h168l252 -716h-167z" />
    <glyph glyph-name="bracketright" unicode="]" horiz-adv-x="367" 
d="M26 -99l-5 124h154v557h-153l5 124h309v-805h-310z" />
    <glyph glyph-name="asciicircum" unicode="^" horiz-adv-x="510" 
d="M31 377l164 247h112l171 -247h-149l-75 130l-73 -130h-150z" />
    <glyph glyph-name="underscore" unicode="_" horiz-adv-x="525" 
d="M31 -125v125h463v-125h-463z" />
    <glyph glyph-name="grave" unicode="`" horiz-adv-x="280" 
d="M124 522l-92 196h131l84 -196h-123z" />
    <glyph glyph-name="a" unicode="a" horiz-adv-x="561" 
d="M199 -10c-30 0 -57.833 5.33301 -83.5 16s-46.167 27.167 -61.5 49.5s-23 50.166 -23 83.499c0 48.667 16.5 86.834 49.5 114.501s82.5 41.5 148.5 41.5h132v11c0 24 -8 41.167 -24 51.5s-46 15.5 -90 15.5c-54 0 -107 -8.33301 -159 -25v104
c23.333 9.33301 51.833 17 85.5 23s69.167 9 106.5 9c73.333 0 130.833 -15 172.5 -45s62.5 -77.667 62.5 -143v-296h-141l-8 40c-17.333 -16 -39.5 -28.333 -66.5 -37s-60.5 -13 -100.5 -13zM250 89c25.333 0 47.333 4.33301 66 13s33.667 19.667 45 33v67h-114
c-47.333 0 -71 -19 -71 -57c0 -17.333 6 -31 18 -41s30.667 -15 56 -15z" />
    <glyph glyph-name="b" unicode="b" horiz-adv-x="598" 
d="M348 -10c-32 0 -60.001 4.16602 -84.001 12.499s-45.667 20.833 -65 37.5l-8 -40h-140v674h161v-222c18 10.667 38.333 18.667 61 24s46 8 70 8c69.333 0 124 -19.167 164 -57.5s60 -100.166 60 -185.499s-19.667 -148.5 -59 -189.5s-92.666 -61.5 -159.999 -61.5z
M301.999 106.999c36 0 61.833 10.832 77.5 32.499s23.5 55.167 23.5 100.5c0 46.667 -8.16699 79.334 -24.5 98.001s-41.833 28 -76.5 28c-38 0 -68 -10 -90 -30v-193c24 -24 54 -36 90 -36z" />
    <glyph glyph-name="c" unicode="c" horiz-adv-x="501" 
d="M301 -10c-84.667 0 -150.835 20.668 -198.502 62.001s-71.5 103 -71.5 185c0 83.333 24.833 145.333 74.5 186s115.834 61 198.501 61c34.667 0 64.834 -2.5 90.501 -7.5s50.5 -13.167 74.5 -24.5v-114c-37.333 18 -81 27 -131 27c-46.667 0 -82.167 -9.33301 -106.5 -28
s-36.5 -52 -36.5 -100c0 -44.667 11.333 -77.167 34 -97.5s58.667 -30.5 108 -30.5c48.667 0 93 10 133 30v-119c-24 -10.667 -49.833 -18.334 -77.5 -23.001s-58.167 -7 -91.5 -7z" />
    <glyph glyph-name="d" unicode="d" horiz-adv-x="598" 
d="M250 -10c-46 0 -85.334 7.33105 -118.001 21.998s-57.667 38.834 -75 72.501s-26 78.834 -26 135.501c0 57.333 10 105.5 30 144.5s47.5 68.667 82.5 89s75.167 30.5 120.5 30.5c24.667 0 46.834 -2.66699 66.501 -8s38.167 -13.333 55.5 -24v222h161v-674h-139l-9 40
c-19.333 -16.667 -41 -29.167 -65 -37.5s-52 -12.5 -84 -12.5zM295.999 106.998c35.333 0 65.333 12.001 90 36.001v192c-22.667 20.667 -51.667 31 -87 31c-34 0 -59.833 -12.833 -77.5 -38.5s-26.5 -61.834 -26.5 -108.501c0 -45.333 8.5 -75.333 25.5 -90
s42.167 -22 75.5 -22z" />
    <glyph glyph-name="e" unicode="e" horiz-adv-x="547" 
d="M305 -10c-82.667 0 -149 20.499 -199 61.499s-75 102.833 -75 185.5c0 75.333 20.667 135.333 62 180s103.333 67 186 67c75.333 0 133.666 -19.333 174.999 -58s62 -90.667 62 -156v-85h-336c7.33301 -31.333 24.5 -53.166 51.5 -65.499s63.833 -18.5 110.5 -18.5
c26 0 52.5 2.33301 79.5 7s49.5 10.667 67.5 18v-105c-22.667 -10.667 -49.667 -18.5 -81 -23.5s-65.666 -7.5 -102.999 -7.5zM180 277.999h196v21c0 23.333 -7 41.833 -21 55.5s-37.667 20.5 -71 20.5c-38.667 0 -65.667 -7.83301 -81 -23.5s-23 -40.167 -23 -73.5z" />
    <glyph glyph-name="f" unicode="f" horiz-adv-x="375" 
d="M73 0l-0.00195312 352.002h-63v122h63v39c0 51.333 14.667 93.666 44 126.999s73 50 131 50c24 0 45.333 -1.83301 64 -5.5s36.334 -8.83398 53.001 -15.501v-108c-10 3.33301 -19.667 6 -29 8s-19.666 3 -30.999 3c-26 0 -44.333 -4.83301 -55 -14.5
s-16 -25.5 -16 -47.5v-36h117l-7 -122h-110v-352h-161z" />
    <glyph glyph-name="g" unicode="g" horiz-adv-x="563" 
d="M255 -176c-23.333 0 -48 1.00488 -74 3.00488s-50.667 5 -74 9s-43.333 8.66699 -60 14v110c26.667 -8.66699 58.667 -15.334 96 -20.001s71.666 -7 102.999 -7c40.667 0 71.167 2.16699 91.5 6.5s30.5 11.833 30.5 22.5c0 9.33301 -4 15.666 -12 18.999s-23.667 5 -47 5
h-131c-42.667 0 -75.834 7.66699 -99.501 23s-35.5 37.666 -35.5 66.999c0 20 6.16699 39 18.5 57s30.5 31.333 54.5 40c-27.333 14 -48 31.667 -62 53s-21 48.333 -21 81c0 61.333 19.833 106.166 59.5 134.499s97.834 42.5 174.501 42.5c16 0 33.833 -1.16699 53.5 -3.5
s34.167 -4.5 43.5 -6.5h182l-4 -100h-69c16.667 -16.667 25 -41.334 25 -74.001c0 -46 -14.833 -83 -44.5 -111s-74.5 -42 -134.5 -42c-10 0 -19.833 0.5 -29.5 1.5s-19.167 1.83301 -28.5 2.5c-17.333 -2 -32.166 -5.66699 -44.499 -11s-18.5 -13 -18.5 -23
c0 -8 3.16699 -13.333 9.5 -16s15.833 -4 28.5 -4h121c48.667 0 86.5 -11.167 113.5 -33.5s40.5 -54.833 40.5 -97.5c0 -94.667 -85.333 -142 -256 -142zM268 236.005c35.333 0 59.668 6.00098 73.001 18.001s20 32 20 60s-6.83301 48.333 -20.5 61s-37.834 19 -72.501 19
c-32.667 0 -56.167 -6.16699 -70.5 -18.5s-21.5 -32.833 -21.5 -61.5c0 -26.667 6.66699 -46.334 20 -59.001s37.333 -19 72 -19z" />
    <glyph glyph-name="h" unicode="h" horiz-adv-x="595" 
d="M51 0l-0.00195312 674.002h161v-235c18 13.333 40.333 24.166 67 32.499s55.334 12.5 86.001 12.5c63.333 0 109.833 -15 139.5 -45s44.5 -76 44.5 -138v-301h-161v290c0 27.333 -5.66699 46.666 -17 57.999s-31.666 17 -60.999 17c-17.333 0 -35 -4 -53 -12
s-33 -18 -45 -30v-323h-161z" />
    <glyph glyph-name="i" unicode="i" horiz-adv-x="309" 
d="M83 549v121h175v-121h-175zM96 0v355h-70l14 119h217v-474h-161z" />
    <glyph glyph-name="j" unicode="j" horiz-adv-x="338" 
d="M112 549v121h175v-121h-175zM114 -234c-47.333 0 -86.667 6.66797 -118 20.001v109c20 -6.66699 40 -10 60 -10c46.667 0 70 20 70 60v410h-70l14 119h217v-543c0 -48.667 -14 -88.334 -42 -119.001s-71.667 -46 -131 -46z" />
    <glyph glyph-name="k" unicode="k" horiz-adv-x="581" 
d="M51 0v674h161v-352l155 152h183l-190 -197l201 -277h-171l-131 192l-47 -46v-146h-161z" />
    <glyph glyph-name="l" unicode="l" horiz-adv-x="308" 
d="M197 -10c-52 0 -89.333 11.333 -112 34s-34 59 -34 109v541h161v-525c0 -15.333 3.16699 -25.833 9.5 -31.5s15.833 -8.5 28.5 -8.5c18 0 34 2.33301 48 7v-109c-15.333 -6 -30.5 -10.333 -45.5 -13s-33.5 -4 -55.5 -4z" />
    <glyph glyph-name="m" unicode="m" horiz-adv-x="859" 
d="M51 0v474h149l5 -42c21.333 15.333 45.333 27.833 72 37.5s55.334 14.5 86.001 14.5c32 0 57 -4.83301 75 -14.5s32 -23.167 42 -40.5c22 16 46.833 29.167 74.5 39.5s60.167 15.5 97.5 15.5c55.333 0 96 -14.333 122 -43s39 -72.334 39 -131.001v-310h-159v291
c0 26 -5.5 44.833 -16.5 56.5s-28.833 17.5 -53.5 17.5c-15.333 0 -30.333 -3.16699 -45 -9.5s-27 -15.166 -37 -26.499c1.33301 -7.33301 2.16602 -14.333 2.49902 -21s0.5 -14.667 0.5 -24v-284h-150v293c0 24 -4.16699 42 -12.5 54s-24.166 18 -47.499 18
c-16.667 0 -32.334 -4.33301 -47.001 -13s-28 -18.667 -40 -30v-322h-157z" />
    <glyph glyph-name="n" unicode="n" horiz-adv-x="595" 
d="M51 0l0.000976562 474h150l5 -41c19.333 13.333 43.666 25.166 72.999 35.499s60.666 15.5 93.999 15.5c61.333 0 106 -14.667 134 -44s42 -74.666 42 -135.999v-304h-161v291c0 26.667 -5.66699 45.667 -17 57s-31.666 17 -60.999 17c-17.333 0 -35 -4 -53 -12
s-33 -18 -45 -30v-323h-161z" />
    <glyph glyph-name="o" unicode="o" horiz-adv-x="597" 
d="M298 -10c-91.333 0 -158.668 21.167 -202.001 63.5s-65 103.5 -65 183.5c0 79.333 21.833 140.333 65.5 183s110.834 64 201.501 64c91.333 0 158.833 -21.333 202.5 -64s65.5 -103.667 65.5 -183c0 -80 -21.667 -141.167 -65 -183.5s-111 -63.5 -203 -63.5zM297.998 116
c37.333 0 64 9.33301 80 28s24 49.667 24 93s-8 74.333 -24 93s-42.667 28 -80 28c-36.667 0 -63 -9.33301 -79 -28s-24 -49.667 -24 -93s8 -74.333 24 -93s42.333 -28 79 -28z" />
    <glyph glyph-name="p" unicode="p" horiz-adv-x="598" 
d="M51 -216l0.000976562 689.999h140l8 -41c19.333 16 41 28.5 65 37.5s52 13.5 84 13.5c67.333 0 120.666 -18.167 159.999 -54.5s59 -97.166 59 -182.499c0 -84.667 -20.167 -148.667 -60.5 -192s-95.833 -65 -166.5 -65c-50 0 -92.667 10.333 -128 31v-237h-161z
M299.001 107.999c69.333 0 104 47.332 104 141.999c0 45.333 -8 76 -24 92s-41.667 24 -77 24c-34 0 -64 -12 -90 -36v-192c12.667 -9.33301 25.5 -16.666 38.5 -21.999s29.167 -8 48.5 -8z" />
    <glyph glyph-name="q" unicode="q" horiz-adv-x="599" 
d="M535 -242c-50.667 0 -88.1689 12.002 -112.502 36.002s-36.5 61.333 -36.5 112v115c-35.333 -20.667 -78 -31 -128 -31c-70 0 -125.333 18 -166 54s-61 96.333 -61 181c0 57.333 10 105.166 30 143.499s46.833 67.166 80.5 86.499s70.5 29 110.5 29
c32 0 59.5 -4.5 82.5 -13.5s44.5 -21.5 64.5 -37.5l9 41h139v-551c0 -17.333 3.33301 -29.5 10 -36.5s18.334 -10.5 35.001 -10.5c14.667 0 29 2.66699 43 8v-109c-14.667 -6 -29.167 -10.333 -43.5 -13s-33.166 -4 -56.499 -4zM297.998 108.002
c19.333 0 35.833 2.66895 49.5 8.00195s26.5 12.666 38.5 21.999v192c-12.667 12 -26 21 -40 27s-30 9 -48 9c-68.667 0 -103 -46 -103 -138c0 -46.667 8.83301 -78.334 26.5 -95.001s43.167 -25 76.5 -25z" />
    <glyph glyph-name="r" unicode="r" horiz-adv-x="388" 
d="M51 0l-0.00195312 474h153l5 -44c20.667 12.667 46.334 24.167 77.001 34.5s61.334 16.833 92.001 19.5v-121c-17.333 -2 -36.5 -5.16699 -57.5 -9.5s-41 -9.5 -60 -15.5s-35.167 -12.333 -48.5 -19v-319h-161z" />
    <glyph glyph-name="s" unicode="s" horiz-adv-x="479" 
d="M227 -10c-38 0 -74.0029 2.66602 -108.003 7.99902s-61 12 -81 20v123c23.333 -10 50.333 -17.667 81 -23s58 -8 82 -8c28.667 0 49.5 1.33301 62.5 4s19.5 10 19.5 22c0 13.333 -10.667 23.333 -32 30s-50.666 16.334 -87.999 29.001
c-43.333 15.333 -76.166 33.166 -98.499 53.499s-33.5 50.5 -33.5 90.5c0 46.667 17.5 82.5 52.5 107.5s90.833 37.5 167.5 37.5c30 0 59.667 -2.33301 89 -7s53.333 -10 72 -16v-121c-18.667 8.66699 -40 15 -64 19s-45.667 6 -65 6c-24.667 0 -45.5 -1.5 -62.5 -4.5
s-25.5 -10.167 -25.5 -21.5c0 -12.667 9.33301 -21.5 28 -26.5s45.667 -13.167 81 -24.5c37.333 -11.333 66.333 -23.5 87 -36.5s35.334 -28.5 44.001 -46.5s13 -40.667 13 -68c0 -47.333 -18.667 -83.666 -56 -108.999s-92.333 -38 -165 -38z" />
    <glyph glyph-name="t" unicode="t" horiz-adv-x="374" 
d="M246 -10c-58.667 0 -101.833 15 -129.5 45s-41.5 71.333 -41.5 124v193h-64v122h64v99l161 43v-142h115l-7 -122h-108v-182c0 -22.667 5.66699 -38.5 17 -47.5s28.333 -13.5 51 -13.5c19.333 0 39 3.33301 59 10v-109c-31.333 -13.333 -70.333 -20 -117 -20z" />
    <glyph glyph-name="u" unicode="u" horiz-adv-x="585" 
d="M214 -10c-56 0 -99.666 15.832 -130.999 47.499s-47 77.834 -47 138.501v298h161v-289c0 -26.667 6.5 -46.167 19.5 -58.5s32.5 -18.5 58.5 -18.5c19.333 0 37.666 4 54.999 12s31.666 18 42.999 30v324h161v-474h-150l-5 40
c-19.333 -14.667 -42.666 -26.667 -69.999 -36s-59 -14 -95 -14z" />
    <glyph glyph-name="v" unicode="v" horiz-adv-x="607" 
d="M218 0l-187 474h168l104 -308l105 308h168l-187 -474h-171z" />
    <glyph glyph-name="w" unicode="w" horiz-adv-x="770" 
d="M156 0l-125 474h158l64 -272l67 207v65h121l78 -272l62 272h158l-125 -474h-146l-81 246l-83 -246h-148z" />
    <glyph glyph-name="x" unicode="x" horiz-adv-x="592" 
d="M26 0l182 241l-175 233h175l88 -119l88 119h175l-175 -233l182 -241h-176l-94 125l-94 -125h-176z" />
    <glyph glyph-name="y" unicode="y" horiz-adv-x="627" 
d="M192 -176c-24 0 -44.501 1.16504 -61.501 3.49805s-33.833 6.83301 -50.5 13.5v112c11.333 -4 21.833 -6.66699 31.5 -8s19.5 -2 29.5 -2c27.333 0 47.833 4.83301 61.5 14.5s27.5 26.834 41.5 51.501l-213 465h169l125 -301l123 301h168l-181 -435
c-18 -43.333 -38 -81.166 -60 -113.499s-47.667 -57.333 -77 -75s-64.666 -26.5 -105.999 -26.5z" />
    <glyph glyph-name="z" unicode="z" horiz-adv-x="492" 
d="M31 0v86l219 260h-211v128h415v-94l-214 -256h221v-124h-430z" />
    <glyph glyph-name="braceleft" unicode="{" horiz-adv-x="320" 
d="M199 -104c-48.667 0 -82.334 10.332 -101.001 30.999s-28 52.667 -28 96v147c0 25.333 -4.33301 44.5 -13 57.5s-24 20.833 -46 23.5v94c24.667 3.33301 40.667 12.5 48 27.5s11 37.5 11 67.5v133c0 43.333 9.33301 75.5 28 96.5s52.334 31.5 101.001 31.5h99v-124h-25
c-16.667 0 -27.834 -3.83301 -33.501 -11.5s-8.5 -20.167 -8.5 -37.5v-136c0 -20.667 -4.16699 -39.167 -12.5 -55.5s-21.166 -29.166 -38.499 -38.499c17.333 -9.33301 30.166 -22.166 38.499 -38.499s12.5 -34.833 12.5 -55.5v-136c0 -16.667 2.83301 -28.834 8.5 -36.501
s16.834 -11.5 33.501 -11.5h25v-124h-99z" />
    <glyph glyph-name="bar" unicode="|" horiz-adv-x="224" 
d="M31 -120v855h161v-855h-161z" />
    <glyph glyph-name="braceright" unicode="}" horiz-adv-x="320" 
d="M21 -104v124.001h25c16.667 0 27.834 3.83301 33.501 11.5s8.5 19.834 8.5 36.501v136c0 20.667 4.33301 39.167 13 55.5s21.334 29.166 38.001 38.499c-16.667 9.33301 -29.334 22.166 -38.001 38.499s-13 34.833 -13 55.5v136c0 17.333 -2.83301 29.833 -8.5 37.5
s-16.834 11.5 -33.501 11.5h-25v124h99c48.667 0 82.334 -10.5 101.001 -31.5s28 -53.167 28 -96.5v-133c0 -30 3.66699 -52.5 11 -67.5s23.333 -24.167 48 -27.5v-94c-22 -2.66699 -37.333 -10.5 -46 -23.5s-13 -32.167 -13 -57.5v-147c0 -43.333 -9.33301 -75.333 -28 -96
s-52.334 -31 -101.001 -31h-99z" />
    <glyph glyph-name="asciitilde" unicode="~" horiz-adv-x="542" 
d="M392 197c-22 0 -42.832 3.33301 -62.499 10s-39.167 14.5 -58.5 23.5s-39 16.833 -59 23.5s-40.667 10 -62 10c-25.333 0 -47.5 -4.5 -66.5 -13.5s-36.5 -23.833 -52.5 -44.5v150c11.333 15.333 27.833 27.666 49.5 36.999s44.834 14 69.501 14
c22.667 0 44.167 -3.33301 64.5 -10s40.166 -14.5 59.499 -23.5s38.666 -16.833 57.999 -23.5s39.333 -10 60 -10c25.333 0 47.333 4.33301 66 13s36 23.334 52 44.001v-150c-11.333 -16 -27.5 -28.333 -48.5 -37s-44.167 -13 -69.5 -13z" />
    <glyph glyph-name="uni00A0" unicode="&#xa0;" horiz-adv-x="215" 
 />
    <glyph glyph-name="exclamdown" unicode="&#xa1;" horiz-adv-x="231" 
d="M31 358v116h169v-116h-169zM35 -170v169l6 299h149l6 -299v-169h-161z" />
    <glyph glyph-name="cent" unicode="&#xa2;" horiz-adv-x="501" 
d="M256 -86l-0.000976562 78c-70.667 6.66699 -124.834 30.667 -162.501 72s-56.5 99 -56.5 173c0 75.333 19.833 133.166 59.5 173.499s92.834 63.833 159.501 70.5v79h99v-78c20 -2 38.167 -5.33301 54.5 -10s32.833 -10.667 49.5 -18v-97
c-14 6.66699 -29.833 12.334 -47.5 17.001s-36.5 7.33398 -56.5 8.00098v-290c18.667 1.33301 36.834 4.16602 54.501 8.49902s34.5 10.5 50.5 18.5v-100c-30 -13.333 -65 -22 -105 -26v-79h-99zM255.999 100v273.998c-26.667 -8.66699 -47 -23.667 -61 -45s-21 -52 -21 -92
c0 -37.333 6.5 -67.166 19.5 -89.499s33.833 -38.166 62.5 -47.499z" />
    <glyph glyph-name="sterling" unicode="&#xa3;" horiz-adv-x="489" 
d="M31 0v120.998h23c16 0 28 4.83301 36 14.5s12 22.167 12 37.5v103h-64v122h64v76c0 54 16.667 97.5 50 130.5s78.333 49.5 135 49.5c27.333 0 51.5 -2.16699 72.5 -6.5s39.833 -10.166 56.5 -17.499v-107c-9.33301 4.66699 -21 8 -35 10s-27.667 3 -41 3
c-51.333 0 -77 -23 -77 -69v-69h151l-7 -122h-144v-94c0 -14.667 -1.5 -26.667 -4.5 -36s-8.83301 -17.666 -17.5 -24.999h217v-121h-427z" />
    <glyph glyph-name="currency" unicode="&#xa4;" horiz-adv-x="570" 
d="M102 41l-71 87l78 57c-14 25.333 -21 53.333 -21 84s7 58 21 82l-77 59l70 86l81 -65c14 9.33301 29.5 16.666 46.5 21.999s35.167 8 54.5 8c39.333 0 73.333 -10.333 102 -31l83 65l70 -85l-79 -59c14.667 -25.333 22 -52.666 22 -81.999c0 -14.667 -2 -29.167 -6 -43.5
s-9.33301 -27.5 -16 -39.5l78 -60l-69 -84l-83 63c-29.333 -20 -63 -30 -101 -30s-71.667 10 -101 30zM284 188c22.667 0 41.834 7.83301 57.501 23.5s23.5 34.834 23.5 57.501s-7.83301 41.834 -23.5 57.501s-34.834 23.5 -57.501 23.5s-41.5 -7.83301 -56.5 -23.5
s-22.5 -34.834 -22.5 -57.501s7.5 -41.834 22.5 -57.501s33.833 -23.5 56.5 -23.5z" />
    <glyph glyph-name="yen" unicode="&#xa5;" horiz-adv-x="686" 
d="M262 0v75h-139v92h139v48h-139v92h99l-191 337h168l144 -267l144 267h168l-192 -337h100v-92h-139v-48h139v-92h-139v-75h-162z" />
    <glyph glyph-name="brokenbar" unicode="&#xa6;" horiz-adv-x="224" 
d="M31 393v342h161v-342h-161zM31 -120v341h161v-341h-161z" />
    <glyph glyph-name="section" unicode="&#xa7;" horiz-adv-x="555" 
d="M256 -10c-42.667 0 -82.501 3.16797 -119.501 9.50098s-68.833 15.5 -95.5 27.5v135c29.333 -12.667 61.833 -23.167 97.5 -31.5s69.5 -12.5 101.5 -12.5c37.333 0 66.333 4 87 12s31 24.667 31 50c0 24.667 -12.667 42.667 -38 54s-62.333 24.333 -111 39
c-66 20.667 -112.167 44 -138.5 70s-39.5 60 -39.5 102c0 14 2 27.167 6 39.5s9 22.833 15 31.5c-6 9.33301 -10.833 20.166 -14.5 32.499s-5.5 25.833 -5.5 40.5c0 56 21.333 99.333 64 130s108 46 196 46c22 0 45.333 -1.5 70 -4.5s48 -6.5 70 -10.5
s40.333 -8.33301 55 -13v-135c-58 22 -116.333 33 -175 33c-14.667 0 -31.167 -1 -49.5 -3s-34.166 -7 -47.499 -15s-20 -21.333 -20 -40c0 -20.667 10 -36.334 30 -47.001s54.667 -22.334 104 -35.001c53.333 -13.333 94 -28 122 -44s47.167 -34.167 57.5 -54.5
s15.5 -44.833 15.5 -73.5c0 -12 -2 -25.667 -6 -41s-9 -27.333 -15 -36c6 -9.33301 11 -20.166 15 -32.499s6 -25.166 6 -38.499c0 -60.667 -22.667 -106.667 -68 -138s-112 -47 -200 -47zM398.999 308.001c2.66699 6 4.00195 12.334 4.00195 19.001
c0 14.667 -10.333 28 -31 40s-52.667 23.667 -96 35c-22.667 6 -44.167 13.167 -64.5 21.5s-34.833 16.833 -43.5 25.5c-2 -4 -3 -10 -3 -18c0 -16 10.5 -29 31.5 -39s50.833 -20.333 89.5 -31c25.333 -6.66699 48.666 -14.834 69.999 -24.501s35.666 -19.167 42.999 -28.5z
" />
    <glyph glyph-name="dieresis" unicode="&#xa8;" horiz-adv-x="391" 
d="M236 552v114h124v-114h-124zM31 552v114h123v-114h-123z" />
    <glyph glyph-name="copyright" unicode="&#xa9;" horiz-adv-x="726" 
d="M363 -10c-46 0 -89 8.66699 -129 26s-75.167 41.166 -105.5 71.499s-54.166 65.5 -71.499 105.5s-26 83 -26 129s8.66699 89 26 129s41.166 75.167 71.499 105.5s65.5 54.166 105.5 71.499s83 26 129 26s89 -8.66699 129 -26s75.167 -41.166 105.5 -71.499
s54.166 -65.5 71.499 -105.5s26 -83 26 -129s-8.66699 -89 -26 -129s-41.166 -75.167 -71.499 -105.5s-65.5 -54.166 -105.5 -71.499s-83 -26 -129 -26zM363 75c46 0 87.167 10.667 123.5 32s65.166 50.5 86.499 87.5s32 79.5 32 127.5s-10.667 90.5 -32 127.5
s-50.166 66 -86.499 87s-77.5 31.5 -123.5 31.5c-45.333 0 -86.333 -10.5 -123 -31.5s-65.667 -50 -87 -87s-32 -79.5 -32 -127.5s10.667 -90.5 32 -127.5s50.333 -66.167 87 -87.5s77.667 -32 123 -32zM364 116c-60.667 0 -109.333 18.333 -146 55s-55 87 -55 151
c0 44.667 9 82.167 27 112.5s42.5 53.5 73.5 69.5s65.5 24 103.5 24c28 0 52 -3.33301 72 -10s38.667 -15.667 56 -27v-76c-31.333 18 -65 27 -101 27c-22 0 -42.5 -3.83301 -61.5 -11.5s-34.333 -20.167 -46 -37.5s-17.5 -41 -17.5 -71c0 -45.333 11.333 -76.833 34 -94.5
s51.667 -26.5 87 -26.5c40 0 75.333 10.333 106 31v-80c-37.333 -24 -81.333 -36 -132 -36z" />
    <glyph glyph-name="ordfeminine" unicode="&#xaa;" horiz-adv-x="336" 
d="M124 380c-25.333 0 -47.168 6.50293 -65.501 19.5029s-27.5 33.833 -27.5 62.5c0 59.333 36.333 89 109 89h73v4c0 12 -4.33301 20.5 -13 25.5s-24.667 7.5 -48 7.5c-29.333 0 -58.666 -4.66699 -87.999 -14v62c13.333 5.33301 29.833 9.66602 49.5 12.999
s39.167 5 58.5 5c40 0 72.167 -8.33301 96.5 -25s36.5 -43.334 36.5 -80.001v-163h-83l-5 21c-11.333 -8.66699 -24.333 -15.334 -39 -20.001s-32.667 -7 -54 -7zM155.998 438.003c11.333 0 22 2.16797 32 6.50098s18.333 11.166 25 20.499v31h-51
c-14.667 0 -25.667 -2 -33 -6s-11 -12 -11 -24c0 -10.667 3.33301 -18 10 -22s16 -6 28 -6z" />
    <glyph glyph-name="guillemotleft" unicode="&#xab;" horiz-adv-x="657" 
d="M564 58l-266 196v61l266 196l62 -90l-185 -137l185 -137zM297 58l-266 196v61l266 196l61 -90l-184 -137l184 -137z" />
    <glyph glyph-name="logicalnot" unicode="&#xac;" horiz-adv-x="510" 
d="M353 127v127h-322v124h447v-251h-125z" />
    <glyph glyph-name="uni00AD" unicode="&#xad;" horiz-adv-x="457" 
d="M31 215v125h395v-125h-395z" />
    <glyph glyph-name="registered" unicode="&#xae;" horiz-adv-x="726" 
d="M363 -10c-46 0 -89 8.66699 -129 26s-75.167 41.166 -105.5 71.499s-54.166 65.5 -71.499 105.5s-26 83 -26 129s8.66699 89 26 129s41.166 75.167 71.499 105.5s65.5 54.166 105.5 71.499s83 26 129 26s89 -8.66699 129 -26s75.167 -41.166 105.5 -71.499
s54.166 -65.5 71.499 -105.5s26 -83 26 -129s-8.66699 -89 -26 -129s-41.166 -75.167 -71.499 -105.5s-65.5 -54.166 -105.5 -71.499s-83 -26 -129 -26zM363 75c46 0 87.167 10.667 123.5 32s65.166 50.5 86.499 87.5s32 79.5 32 127.5s-10.667 90.5 -32 127.5
s-50.166 66 -86.499 87s-77.5 31.5 -123.5 31.5c-45.333 0 -86.333 -10.5 -123 -31.5s-65.667 -50 -87 -87s-32 -79.5 -32 -127.5s10.667 -90.5 32 -127.5s50.333 -66.167 87 -87.5s77.667 -32 123 -32zM220 138l0.000976562 370h187c42.667 0 74.334 -11.333 95.001 -34
s31 -52.334 31 -89.001c0 -57.333 -25.333 -94.333 -76 -111c5.33301 -4.66699 9.66602 -9.66699 12.999 -15s6.66602 -12.333 9.99902 -21l39 -100h-86l-37 102c-2.66699 8.66699 -7 14.334 -13 17.001s-15.667 4 -29 4h-46v-123h-88zM308.001 328l55 0.000976562
c24.667 0 44.5 3.16699 59.5 9.5s22.5 22.166 22.5 47.499c0 21.333 -5.33301 36 -16 44s-26.667 12 -48 12h-73v-113z" />
    <glyph glyph-name="macron" unicode="&#xaf;" horiz-adv-x="360" 
d="M21 559v97h318v-97h-318z" />
    <glyph glyph-name="degree" unicode="&#xb0;" horiz-adv-x="306" 
d="M152 492c-32.667 0 -61.167 10.833 -85.5 32.5s-36.5 50.834 -36.5 87.501c0 37.333 12.167 66.666 36.5 87.999s52.833 32 85.5 32c34 0 63.167 -10.667 87.5 -32s36.5 -50.666 36.5 -87.999c0 -36.667 -12.167 -65.834 -36.5 -87.501s-53.5 -32.5 -87.5 -32.5zM152 570
c12 0 22.167 4 30.5 12s12.5 18 12.5 30c0 11.333 -4.16699 21 -12.5 29s-18.5 12 -30.5 12c-11.333 0 -21.166 -4 -29.499 -12s-12.5 -17.667 -12.5 -29c0 -12 4.16699 -22 12.5 -30s18.166 -12 29.499 -12z" />
    <glyph glyph-name="plusminus" unicode="&#xb1;" horiz-adv-x="462" 
d="M168 164v127h-135v124h135v129h126v-129h135v-124h-135v-127h-126zM33 0v124h396v-124h-396z" />
    <glyph glyph-name="uni00B2" unicode="&#xb2;" horiz-adv-x="304" 
d="M31 370l-0.00195312 48.001c10 14.667 20.333 26.5 31 35.5s23.334 19.167 38.001 30.5c21.333 16.667 35.833 28.5 43.5 35.5s11.5 14.833 11.5 23.5c0 18.667 -15.667 28 -47 28c-10.667 0 -22.334 -1.5 -35.001 -4.5s-24.667 -6.83301 -36 -11.5v80
c11.333 4.66699 27.833 9 49.5 13s42.834 6 63.501 6c39.333 0 69.333 -8.16699 90 -24.5s31 -36.833 31 -61.5c0 -18 -3.5 -32.833 -10.5 -44.5s-18.167 -24.834 -33.5 -39.501c-8.66699 -7.33301 -15.667 -13 -21 -17s-11.666 -9.66699 -18.999 -17h86v-80h-242z" />
    <glyph glyph-name="uni00B3" unicode="&#xb3;" horiz-adv-x="308" 
d="M138 362c-10 0 -22.1689 0.666992 -36.502 2s-27.833 3 -40.5 5s-22.667 4.33301 -30 7v69c12 -5.33301 24.833 -9.16602 38.5 -11.499s26.5 -3.5 38.5 -3.5c19.333 0 33.166 1.83301 41.499 5.5s12.5 9.83398 12.5 18.501c0 16.667 -15.333 25 -46 25h-44l5 59h37
c28 0 42 8.66699 42 26c0 7.33301 -4.33301 12.5 -13 15.5s-20.667 4.5 -36 4.5c-26.667 0 -50.667 -5 -72 -15v70c10.667 3.33301 25.834 6.66602 45.501 9.99902s38.834 5 57.501 5c47.333 0 81.333 -8 102 -24s31 -35.667 31 -59c0 -13.333 -2.66699 -25.5 -8 -36.5
s-13.666 -19.833 -24.999 -26.5c26 -8.66699 39 -28.334 39 -59.001c0 -58 -46.333 -87 -139 -87z" />
    <glyph glyph-name="acute" unicode="&#xb4;" horiz-adv-x="280" 
d="M32 522l84 196h131l-92 -196h-123z" />
    <glyph glyph-name="uni00B5" unicode="&#xb5;" horiz-adv-x="600" 
d="M51 -143l0.000976562 617h161v-289c0 -26.667 6.5 -46.167 19.5 -58.5s32.5 -18.5 58.5 -18.5c19.333 0 37.666 4 54.999 12s31.666 18 42.999 30v324h161v-474h-150l-5 40c-16.667 -14.667 -36.667 -26.667 -60 -36s-50.666 -14 -81.999 -14
c-14.667 0 -28 2.33301 -40 7v-140h-161z" />
    <glyph glyph-name="paragraph" unicode="&#xb6;" horiz-adv-x="652" 
d="M263 -77l-0.000976562 330c-43.333 0 -82.5 7.33301 -117.5 22s-62.833 38.5 -83.5 71.5s-31 76.5 -31 130.5c0 54.667 11.167 99.167 33.5 133.5s52.833 59.5 91.5 75.5s82.334 24 131.001 24h344v-787h-152v663h-65v-663h-151z" />
    <glyph glyph-name="periodcentered" unicode="&#xb7;" horiz-adv-x="191" 
d="M31 227v118h129v-118h-129z" />
    <glyph glyph-name="cedilla" unicode="&#xb8;" horiz-adv-x="283" 
d="M105 -240c-12 0 -26.334 0.833008 -43.001 2.5s-28.667 3.5 -36 5.5v71c19.333 -5.33301 39.333 -8 60 -8c27.333 0 46.833 2.16699 58.5 6.5s17.5 13.833 17.5 28.5c0 15.333 -6 24.833 -18 28.5s-28 5.5 -48 5.5h-53l29 100h95l-15 -43
c37.333 0 64.833 -8.5 82.5 -25.5s26.5 -39.5 26.5 -67.5c0 -32.667 -12.667 -58.167 -38 -76.5s-64.666 -27.5 -117.999 -27.5z" />
    <glyph glyph-name="uni00B9" unicode="&#xb9;" horiz-adv-x="208" 
d="M83 370v176l-63 -12v85l177 35v-284h-114z" />
    <glyph glyph-name="ordmasculine" unicode="&#xba;" horiz-adv-x="360" 
d="M179 380c-98.667 0 -148 45.667 -148 137s49.333 137 148 137c100 0 150 -45.667 150 -137s-50 -137 -150 -137zM179 449c19.333 0 33.166 5.5 41.499 16.5s12.5 28.167 12.5 51.5s-4.16699 40.333 -12.5 51s-22.166 16 -41.499 16c-18.667 0 -32.167 -5.33301 -40.5 -16
s-12.5 -27.667 -12.5 -51s4.16699 -40.5 12.5 -51.5s21.833 -16.5 40.5 -16.5z" />
    <glyph glyph-name="guillemotright" unicode="&#xbb;" horiz-adv-x="657" 
d="M360 58l-62 89l185 137l-185 137l62 90l266 -196v-61zM92 58l-61 89l184 137l-184 137l61 90l266 -196v-61z" />
    <glyph glyph-name="onequarter" unicode="&#xbc;" horiz-adv-x="669" 
d="M94 370v176l-63 -12v85l177 35v-284h-114zM84 0l337 644h153l-338 -644h-152zM499 0v46h-134v70l133 168h110v-164h30v-74h-30v-46h-109zM464 120h62v81z" />
    <glyph glyph-name="onehalf" unicode="&#xbd;" horiz-adv-x="684" 
d="M94 370v176l-63 -12v85l177 35v-284h-114zM84 0l337 644h153l-338 -644h-152zM400 0l0.000976562 48.001c10.667 14.667 21.334 26.5 32.001 35.5l37 30.5c21.333 16.667 36 28.5 44 35.5s12 14.833 12 23.5c0 18.667 -15.667 28 -47 28c-11.333 0 -23.333 -1.5 -36 -4.5
s-24.667 -6.83301 -36 -11.5v80c12 4.66699 28.667 9 50 13s42.666 6 63.999 6c39.333 0 69.166 -8.16699 89.499 -24.5s30.5 -36.833 30.5 -61.5c0 -18 -3.5 -32.833 -10.5 -44.5s-18.167 -24.834 -33.5 -39.501l-20.5 -17c-5 -4 -11.167 -9.66699 -18.5 -17h85v-80h-242z
" />
    <glyph glyph-name="threequarters" unicode="&#xbe;" horiz-adv-x="685" 
d="M138 362c-10 0 -22.1689 0.666992 -36.502 2s-27.833 3 -40.5 5s-22.667 4.33301 -30 7v69c12 -5.33301 24.833 -9.16602 38.5 -11.499s26.5 -3.5 38.5 -3.5c19.333 0 33.166 1.83301 41.499 5.5s12.5 9.83398 12.5 18.501c0 16.667 -15.333 25 -46 25h-44l5 59h37
c28 0 42 8.66699 42 26c0 7.33301 -4.33301 12.5 -13 15.5s-20.667 4.5 -36 4.5c-26.667 0 -50.667 -5 -72 -15v70c10.667 3.33301 25.834 6.66602 45.501 9.99902s38.834 5 57.501 5c47.333 0 81.333 -8 102 -24s31 -35.667 31 -59c0 -13.333 -2.66699 -25.5 -8 -36.5
s-13.666 -19.833 -24.999 -26.5c26 -8.66699 39 -28.334 39 -59.001c0 -58 -46.333 -87 -139 -87zM99.998 0l337 644h153l-338 -644h-152zM503.998 0v46h-134v70l133 168h110v-164h30v-74h-30v-46h-109zM468.998 120h62v81z" />
    <glyph glyph-name="questiondown" unicode="&#xbf;" horiz-adv-x="498" 
d="M202 358v116h169v-116h-169zM269 -180c-77.333 0 -136.334 16.8311 -177.001 50.498s-61 79.834 -61 138.501c0 37.333 7.83301 67.333 23.5 90s37.834 46.334 66.501 71.001c24.667 20.667 45.334 38.667 62.001 54s25 35.333 25 60v13h156v-19
c0 -26.667 -5.33301 -49 -16 -67s-25.667 -35.667 -45 -53c-17.333 -16 -34.333 -30.167 -51 -42.5s-30.334 -25 -41.001 -38s-16 -28.833 -16 -47.5c0 -26 9.16699 -44.5 27.5 -55.5s48.833 -16.5 91.5 -16.5c28 0 55.833 3.5 83.5 10.5s50.834 15.833 69.501 26.5v-135
c-24.667 -12 -53.834 -21.667 -87.501 -29s-70.5 -11 -110.5 -11z" />
    <glyph glyph-name="Agrave" unicode="&#xc0;" horiz-adv-x="728" 
d="M300 688l-93 196h132l84 -196h-123zM31 0l246 644h174l246 -644h-168l-58 146h-215l-57 -146h-168zM278 265h171l-86 224z" />
    <glyph glyph-name="Aacute" unicode="&#xc1;" horiz-adv-x="728" 
d="M297 688l84 196h132l-92 -196h-124zM31 0l246 644h174l246 -644h-168l-58 146h-215l-57 -146h-168zM278 265h171l-86 224z" />
    <glyph glyph-name="Acircumflex" unicode="&#xc2;" horiz-adv-x="728" 
d="M168 687l145 187h100l145 -187h-120l-75 104l-72 -104h-123zM31 0l246 644h174l246 -644h-168l-58 146h-215l-57 -146h-168zM278 265h171l-86 224z" />
    <glyph glyph-name="Atilde" unicode="&#xc3;" horiz-adv-x="728" 
d="M454 690c-20.667 0 -40.834 3.5 -60.501 10.5l-57 20.5c-18.333 6.66699 -36.166 10 -53.499 10c-19.333 0 -36.833 -3.33301 -52.5 -10s-29.5 -16 -41.5 -28v107c9.33301 9.33301 22.166 17 38.499 23s33.833 9 52.5 9c21.333 0 41.333 -3.33301 60 -10l55 -20.5
c18 -7 36.667 -10.5 56 -10.5c20 0 37.333 3.5 52 10.5s26.334 16.5 35.001 28.5v-108c-6.66699 -8.66699 -17.5 -16.167 -32.5 -22.5s-32.167 -9.5 -51.5 -9.5zM31 0l246 644h174l246 -644h-168l-58 146h-215l-57 -146h-168zM278 265h171l-86 224z" />
    <glyph glyph-name="Adieresis" unicode="&#xc4;" horiz-adv-x="728" 
d="M201 713v109h118v-109h-118zM407 713v109h118v-109h-118zM31 0l246 644h174l246 -644h-168l-58 146h-215l-57 -146h-168zM278 265h171l-86 224z" />
    <glyph glyph-name="Aring" unicode="&#xc5;" horiz-adv-x="728" 
d="M31 0l239 624.999c-25.333 23.333 -38 54 -38 92c0 35.333 11.667 65.166 35 89.499s55.333 36.5 96 36.5c42 0 74.5 -12.167 97.5 -36.5s34.5 -54.166 34.5 -89.499c0 -37.333 -12.333 -67.666 -37 -90.999l239 -626h-168l-58 146h-215l-57 -146h-168zM363 661.999
c18.667 0 33 5.33301 43 16s15 23.667 15 39s-5 28.5 -15 39.5s-24.333 16.5 -43 16.5c-17.333 0 -31.166 -5.5 -41.499 -16.5s-15.5 -24.167 -15.5 -39.5s5.16699 -28.333 15.5 -39s24.166 -16 41.499 -16zM278 264.999h171l-86 224z" />
    <glyph glyph-name="AE" unicode="&#xc6;" horiz-adv-x="854" 
d="M31 0l246 644h546v-124h-261v-135h224v-126h-224v-135h261v-124h-421v147h-142l-57 -147h-172zM297 272h105v248h-12z" />
    <glyph glyph-name="Ccedilla" unicode="&#xc7;" horiz-adv-x="603" 
d="M357 -240c-11.333 0 -25.502 0.833984 -42.502 2.50098s-29.167 3.5 -36.5 5.5v71c19.333 -5.33301 39.333 -8 60 -8c27.333 0 46.833 2.16699 58.5 6.5s17.5 13.833 17.5 28.5c0 15.333 -6 24.833 -18 28.5s-27.667 5.5 -47 5.5h-54l27 93
c-94.667 9.33301 -166.834 42.166 -216.501 98.499s-74.5 131.5 -74.5 225.5c0 107.333 28.833 190.333 86.5 249s143.834 88 258.501 88c39.333 0 74.5 -3 105.5 -9s60.833 -14 89.5 -24v-141c-58 24 -119 36 -183 36c-66.667 0 -115.5 -16 -146.5 -48
s-46.5 -82.333 -46.5 -151c0 -65.333 16.333 -113.333 49 -144s81.334 -46 146.001 -46c31.333 0 62.333 2.83301 93 8.5s60.334 14.5 89.001 26.5v-142c-23.333 -8 -47.5 -14.5 -72.5 -19.5s-52.5 -8.16699 -82.5 -9.5l-12 -34c37.333 0 64.833 -8.5 82.5 -25.5
s26.5 -39.5 26.5 -67.5c0 -32.667 -12.833 -58.167 -38.5 -76.5s-65.167 -27.5 -118.5 -27.5z" />
    <glyph glyph-name="Egrave" unicode="&#xc8;" horiz-adv-x="552" 
d="M243 688l-93 196h132l84 -196h-123zM51 0v644h475v-124h-314v-135h277v-126h-277v-135h314v-124h-475z" />
    <glyph glyph-name="Eacute" unicode="&#xc9;" horiz-adv-x="552" 
d="M211 688l84 196h132l-92 -196h-124zM51 0v644h475v-124h-314v-135h277v-126h-277v-135h314v-124h-475z" />
    <glyph glyph-name="Ecircumflex" unicode="&#xca;" horiz-adv-x="552" 
d="M93 687l145 187h100l145 -187h-120l-75 104l-72 -104h-123zM51 0v644h475v-124h-314v-135h277v-126h-277v-135h314v-124h-475z" />
    <glyph glyph-name="Edieresis" unicode="&#xcb;" horiz-adv-x="552" 
d="M130 714v109h118v-109h-118zM336 714v109h118v-109h-118zM51 0v644h475v-124h-314v-135h277v-126h-277v-135h314v-124h-475z" />
    <glyph glyph-name="Igrave" unicode="&#xcc;" horiz-adv-x="263" 
d="M71 688l-93 196h132l84 -196h-123zM51 0v644h161v-644h-161z" />
    <glyph glyph-name="Iacute" unicode="&#xcd;" horiz-adv-x="264" 
d="M67 688l84 196h132l-92 -196h-124zM51 0v644h161v-644h-161z" />
    <glyph glyph-name="Icircumflex" unicode="&#xce;" horiz-adv-x="264" 
d="M-64 687l145 187h100l145 -187h-120l-75 104l-72 -104h-123zM51 0v644h161v-644h-161z" />
    <glyph glyph-name="Idieresis" unicode="&#xcf;" horiz-adv-x="263" 
d="M-30 720v109h118v-109h-118zM176 720v109h118v-109h-118zM51 0v644h161v-644h-161z" />
    <glyph glyph-name="Eth" unicode="&#xd0;" horiz-adv-x="707" 
d="M94 0v257.003h-73v117h73v270h279c65.333 0 120.333 -10.833 165 -32.5s78.667 -56.334 102 -104.001s35 -110.834 35 -189.501c0 -110.667 -25.5 -191.334 -76.5 -242.001s-126.167 -76 -225.5 -76h-279zM255 124.003h95.999c34.667 0 63.834 5.16699 87.501 15.5
s41.667 29.5 54 57.5s18.5 68.333 18.5 121c0 53.333 -5.5 94.5 -16.5 123.5s-28.333 49.333 -52 61s-54.167 17.5 -91.5 17.5h-96v-146h126v-117h-126v-133z" />
    <glyph glyph-name="Ntilde" unicode="&#xd1;" horiz-adv-x="676" 
d="M437 698c-20.667 0 -40.834 3.5 -60.501 10.5l-57 20.5c-18.333 6.66699 -36.166 10 -53.499 10c-19.333 0 -36.833 -3.33301 -52.5 -10s-29.5 -16 -41.5 -28v107c9.33301 9.33301 22.166 17 38.499 23s33.833 9 52.5 9c21.333 0 41.333 -3.33301 60 -10l55 -20.5
c18 -7 36.667 -10.5 56 -10.5c20 0 37.333 3.5 52 10.5s26.334 16.5 35.001 28.5v-108c-6.66699 -8.66699 -17.5 -16.167 -32.5 -22.5s-32.167 -9.5 -51.5 -9.5zM51 0v644h138l274 -385v385h162v-644h-139l-274 384v-384h-161z" />
    <glyph glyph-name="Ograve" unicode="&#xd2;" horiz-adv-x="704" 
d="M296 688l-93 196h132l84 -196h-123zM352 -10c-104.667 0 -184.334 26.667 -239.001 80s-82 136.333 -82 249c0 119.333 27.333 205 82 257s134.334 78 239.001 78s184.334 -26 239.001 -78s82 -137.667 82 -257c0 -112.667 -27.333 -195.667 -82 -249
s-134.334 -80 -239.001 -80zM352 127c54 0 93.5 15.5 118.5 46.5s37.5 79.5 37.5 145.5c0 72 -12.5 122.833 -37.5 152.5s-64.5 44.5 -118.5 44.5c-54.667 0 -94.5 -14.833 -119.5 -44.5s-37.5 -80.5 -37.5 -152.5c0 -66 12.5 -114.5 37.5 -145.5s64.833 -46.5 119.5 -46.5z
" />
    <glyph glyph-name="Oacute" unicode="&#xd3;" horiz-adv-x="704" 
d="M279 688l84 196h132l-92 -196h-124zM352 -10c-104.667 0 -184.334 26.667 -239.001 80s-82 136.333 -82 249c0 119.333 27.333 205 82 257s134.334 78 239.001 78s184.334 -26 239.001 -78s82 -137.667 82 -257c0 -112.667 -27.333 -195.667 -82 -249
s-134.334 -80 -239.001 -80zM352 127c54 0 93.5 15.5 118.5 46.5s37.5 79.5 37.5 145.5c0 72 -12.5 122.833 -37.5 152.5s-64.5 44.5 -118.5 44.5c-54.667 0 -94.5 -14.833 -119.5 -44.5s-37.5 -80.5 -37.5 -152.5c0 -66 12.5 -114.5 37.5 -145.5s64.833 -46.5 119.5 -46.5z
" />
    <glyph glyph-name="Ocircumflex" unicode="&#xd4;" horiz-adv-x="704" 
d="M157 687l145 187h100l145 -187h-120l-75 104l-72 -104h-123zM352 -10c-104.667 0 -184.334 26.667 -239.001 80s-82 136.333 -82 249c0 119.333 27.333 205 82 257s134.334 78 239.001 78s184.334 -26 239.001 -78s82 -137.667 82 -257
c0 -112.667 -27.333 -195.667 -82 -249s-134.334 -80 -239.001 -80zM352 127c54 0 93.5 15.5 118.5 46.5s37.5 79.5 37.5 145.5c0 72 -12.5 122.833 -37.5 152.5s-64.5 44.5 -118.5 44.5c-54.667 0 -94.5 -14.833 -119.5 -44.5s-37.5 -80.5 -37.5 -152.5
c0 -66 12.5 -114.5 37.5 -145.5s64.833 -46.5 119.5 -46.5z" />
    <glyph glyph-name="Otilde" unicode="&#xd5;" horiz-adv-x="704" 
d="M443 710c-20.667 0 -40.834 3.5 -60.501 10.5l-57 20.5c-18.333 6.66699 -36.166 10 -53.499 10c-19.333 0 -36.833 -3.33301 -52.5 -10s-29.5 -16 -41.5 -28v107c9.33301 9.33301 22.166 17 38.499 23s33.833 9 52.5 9c21.333 0 41.333 -3.33301 60 -10l55 -20.5
c18 -7 36.667 -10.5 56 -10.5c20 0 37.333 3.5 52 10.5s26.334 16.5 35.001 28.5v-108c-6.66699 -8.66699 -17.5 -16.167 -32.5 -22.5s-32.167 -9.5 -51.5 -9.5zM352 -10c-104.667 0 -184.334 26.667 -239.001 80s-82 136.333 -82 249c0 119.333 27.333 205 82 257
s134.334 78 239.001 78s184.334 -26 239.001 -78s82 -137.667 82 -257c0 -112.667 -27.333 -195.667 -82 -249s-134.334 -80 -239.001 -80zM352 127c54 0 93.5 15.5 118.5 46.5s37.5 79.5 37.5 145.5c0 72 -12.5 122.833 -37.5 152.5s-64.5 44.5 -118.5 44.5
c-54.667 0 -94.5 -14.833 -119.5 -44.5s-37.5 -80.5 -37.5 -152.5c0 -66 12.5 -114.5 37.5 -145.5s64.833 -46.5 119.5 -46.5z" />
    <glyph glyph-name="Odieresis" unicode="&#xd6;" horiz-adv-x="704" 
d="M190 714v109h118v-109h-118zM396 714v109h118v-109h-118zM352 -10c-104.667 0 -184.334 26.667 -239.001 80s-82 136.333 -82 249c0 119.333 27.333 205 82 257s134.334 78 239.001 78s184.334 -26 239.001 -78s82 -137.667 82 -257
c0 -112.667 -27.333 -195.667 -82 -249s-134.334 -80 -239.001 -80zM352 127c54 0 93.5 15.5 118.5 46.5s37.5 79.5 37.5 145.5c0 72 -12.5 122.833 -37.5 152.5s-64.5 44.5 -118.5 44.5c-54.667 0 -94.5 -14.833 -119.5 -44.5s-37.5 -80.5 -37.5 -152.5
c0 -66 12.5 -114.5 37.5 -145.5s64.833 -46.5 119.5 -46.5z" />
    <glyph glyph-name="multiply" unicode="&#xd7;" horiz-adv-x="422" 
d="M313 70l-101 101l-98 -96l-80 79l98 97l-101 101l79 79l99 -102l102 101l79 -79l-101 -102l101 -101z" />
    <glyph glyph-name="Oslash" unicode="&#xd8;" horiz-adv-x="704" 
d="M156 -53l28.001 74c-50.667 22.667 -88.834 58.5 -114.501 107.5s-38.5 112.5 -38.5 190.5c0 119.333 27.333 205 82 257s134.334 78 239.001 78c13.333 0 26.333 -0.5 39 -1.5s25 -2.16699 37 -3.5l17 44h89l-25 -65c53.333 -20.667 94 -56.167 122 -106.5
s42 -117.833 42 -202.5c0 -112.667 -27.333 -195.667 -82 -249s-134.334 -80 -239.001 -80c-16 0 -31.333 0.666992 -46 2s-28.667 3 -42 5l-19 -50h-89zM240.001 165l136 350c-4 0 -8 0.166992 -12 0.5s-8 0.5 -12 0.5c-54.667 0 -94.5 -14.833 -119.5 -44.5
s-37.5 -80.5 -37.5 -152.5c0 -72.667 15 -124 45 -154zM352.001 127c54 0 93.5 15.5 118.5 46.5s37.5 79.5 37.5 145.5c0 84 -18 140 -54 168l-138 -358c5.33301 -0.666992 11 -1.16699 17 -1.5s12.333 -0.5 19 -0.5z" />
    <glyph glyph-name="Ugrave" unicode="&#xd9;" horiz-adv-x="684" 
d="M289 688l-93 196h132l84 -196h-123zM342 -10c-60 0 -112.167 9.66699 -156.5 29s-78.666 48 -102.999 86s-36.5 84.667 -36.5 140v399h161v-384c0 -44.667 11.667 -78 35 -100s56.666 -33 99.999 -33s76.666 11 99.999 33s35 55.333 35 100v384h161v-399
c0 -55.333 -12.167 -102 -36.5 -140s-58.666 -66.667 -102.999 -86s-96.5 -29 -156.5 -29z" />
    <glyph glyph-name="Uacute" unicode="&#xda;" horiz-adv-x="684" 
d="M277 688l84 196h132l-92 -196h-124zM342 -10c-60 0 -112.167 9.66699 -156.5 29s-78.666 48 -102.999 86s-36.5 84.667 -36.5 140v399h161v-384c0 -44.667 11.667 -78 35 -100s56.666 -33 99.999 -33s76.666 11 99.999 33s35 55.333 35 100v384h161v-399
c0 -55.333 -12.167 -102 -36.5 -140s-58.666 -66.667 -102.999 -86s-96.5 -29 -156.5 -29z" />
    <glyph glyph-name="Ucircumflex" unicode="&#xdb;" horiz-adv-x="684" 
d="M147 687l145 187h100l145 -187h-120l-75 104l-72 -104h-123zM342 -10c-60 0 -112.167 9.66699 -156.5 29s-78.666 48 -102.999 86s-36.5 84.667 -36.5 140v399h161v-384c0 -44.667 11.667 -78 35 -100s56.666 -33 99.999 -33s76.666 11 99.999 33s35 55.333 35 100v384
h161v-399c0 -55.333 -12.167 -102 -36.5 -140s-58.666 -66.667 -102.999 -86s-96.5 -29 -156.5 -29z" />
    <glyph glyph-name="Udieresis" unicode="&#xdc;" horiz-adv-x="684" 
d="M180 714v109h118v-109h-118zM386 714v109h118v-109h-118zM342 -10c-60 0 -112.167 9.66699 -156.5 29s-78.666 48 -102.999 86s-36.5 84.667 -36.5 140v399h161v-384c0 -44.667 11.667 -78 35 -100s56.666 -33 99.999 -33s76.666 11 99.999 33s35 55.333 35 100v384h161
v-399c0 -55.333 -12.167 -102 -36.5 -140s-58.666 -66.667 -102.999 -86s-96.5 -29 -156.5 -29z" />
    <glyph glyph-name="Yacute" unicode="&#xdd;" horiz-adv-x="686" 
d="M275 688l84 196h132l-92 -196h-124zM262 0v237l-231 407h168l144 -267l144 267h168l-231 -407v-237h-162z" />
    <glyph glyph-name="Thorn" unicode="&#xde;" horiz-adv-x="606" 
d="M51 0l0.000976562 643.999h161v-97h156c51.333 0 93.666 -9.83301 126.999 -29.5s58.166 -46.667 74.499 -81s24.5 -73.166 24.5 -116.499c0 -44 -9.33301 -83 -28 -117s-45.167 -60.5 -79.5 -79.5s-75.166 -28.5 -122.499 -28.5h-152v-95h-161zM212.001 218.999h116
c34 0 59.5 9.16699 76.5 27.5s25.5 42.833 25.5 73.5c0 33.333 -7.83301 58.833 -23.5 76.5s-40.167 26.5 -73.5 26.5h-121v-204z" />
    <glyph glyph-name="germandbls" unicode="&#xdf;" horiz-adv-x="640" 
d="M396 -10c-54.667 0 -101.333 7.33594 -140 22.0029v129c14 -6 30.167 -10.667 48.5 -14s36.5 -5 54.5 -5c26.667 0 47.667 6.5 63 19.5s23 31.833 23 56.5c0 29.333 -7.66699 50 -23 62s-39.666 18 -72.999 18h-68v117h61c29.333 0 50 7.16699 62 21.5s18 35.5 18 63.5
c0 15.333 -2.83301 29.166 -8.5 41.499s-15.834 22.166 -30.501 29.499s-36 11 -64 11c-37.333 0 -65.333 -9.33301 -84 -28s-28 -49.334 -28 -92.001v-442h-161v448c0 51.333 11.167 95.833 33.5 133.5s53.666 66.834 93.999 87.501s87.833 31 142.5 31
c60 0 110 -10.333 150 -31s70 -47.5 90 -80.5s30 -68.167 30 -105.5c0 -34.667 -6.66699 -64.5 -20 -89.5s-30.666 -43.5 -51.999 -55.5c29.333 -10.667 52.5 -28.834 69.5 -54.501s25.5 -57.167 25.5 -94.5c0 -62 -18.5 -110.667 -55.5 -146s-89.5 -53 -157.5 -53z" />
    <glyph glyph-name="agrave" unicode="&#xe0;" horiz-adv-x="561" 
d="M234 522l-93 196h132l84 -196h-123zM199 -10c-30 0 -57.833 5.33301 -83.5 16s-46.167 27.167 -61.5 49.5s-23 50.166 -23 83.499c0 48.667 16.5 86.834 49.5 114.501s82.5 41.5 148.5 41.5h132v11c0 24 -8 41.167 -24 51.5s-46 15.5 -90 15.5
c-54 0 -107 -8.33301 -159 -25v104c23.333 9.33301 51.833 17 85.5 23s69.167 9 106.5 9c73.333 0 130.833 -15 172.5 -45s62.5 -77.667 62.5 -143v-296h-141l-8 40c-17.333 -16 -39.5 -28.333 -66.5 -37s-60.5 -13 -100.5 -13zM250 89c25.333 0 47.333 4.33301 66 13
s33.667 19.667 45 33v67h-114c-47.333 0 -71 -19 -71 -57c0 -17.333 6 -31 18 -41s30.667 -15 56 -15z" />
    <glyph glyph-name="aacute" unicode="&#xe1;" horiz-adv-x="561" 
d="M221 522l84 196h132l-92 -196h-124zM199 -10c-30 0 -57.833 5.33301 -83.5 16s-46.167 27.167 -61.5 49.5s-23 50.166 -23 83.499c0 48.667 16.5 86.834 49.5 114.501s82.5 41.5 148.5 41.5h132v11c0 24 -8 41.167 -24 51.5s-46 15.5 -90 15.5
c-54 0 -107 -8.33301 -159 -25v104c23.333 9.33301 51.833 17 85.5 23s69.167 9 106.5 9c73.333 0 130.833 -15 172.5 -45s62.5 -77.667 62.5 -143v-296h-141l-8 40c-17.333 -16 -39.5 -28.333 -66.5 -37s-60.5 -13 -100.5 -13zM250 89c25.333 0 47.333 4.33301 66 13
s33.667 19.667 45 33v67h-114c-47.333 0 -71 -19 -71 -57c0 -17.333 6 -31 18 -41s30.667 -15 56 -15z" />
    <glyph glyph-name="acircumflex" unicode="&#xe2;" horiz-adv-x="561" 
d="M98 521l145 187h100l145 -187h-120l-75 104l-72 -104h-123zM199 -10c-30 0 -57.833 5.33301 -83.5 16s-46.167 27.167 -61.5 49.5s-23 50.166 -23 83.499c0 48.667 16.5 86.834 49.5 114.501s82.5 41.5 148.5 41.5h132v11c0 24 -8 41.167 -24 51.5s-46 15.5 -90 15.5
c-54 0 -107 -8.33301 -159 -25v104c23.333 9.33301 51.833 17 85.5 23s69.167 9 106.5 9c73.333 0 130.833 -15 172.5 -45s62.5 -77.667 62.5 -143v-296h-141l-8 40c-17.333 -16 -39.5 -28.333 -66.5 -37s-60.5 -13 -100.5 -13zM250 89c25.333 0 47.333 4.33301 66 13
s33.667 19.667 45 33v67h-114c-47.333 0 -71 -19 -71 -57c0 -17.333 6 -31 18 -41s30.667 -15 56 -15z" />
    <glyph glyph-name="atilde" unicode="&#xe3;" horiz-adv-x="561" 
d="M390 532c-20.667 0 -40.834 3.5 -60.501 10.5l-57 20.5c-18.333 6.66699 -36.166 10 -53.499 10c-19.333 0 -36.833 -3.33301 -52.5 -10s-29.5 -16 -41.5 -28v107c9.33301 9.33301 22.166 17 38.499 23s33.833 9 52.5 9c21.333 0 41.333 -3.33301 60 -10l55 -20.5
c18 -7 36.667 -10.5 56 -10.5c20 0 37.333 3.5 52 10.5s26.334 16.5 35.001 28.5v-108c-6.66699 -8.66699 -17.5 -16.167 -32.5 -22.5s-32.167 -9.5 -51.5 -9.5zM199 -10c-30 0 -57.833 5.33301 -83.5 16s-46.167 27.167 -61.5 49.5s-23 50.166 -23 83.499
c0 48.667 16.5 86.834 49.5 114.501s82.5 41.5 148.5 41.5h132v11c0 24 -8 41.167 -24 51.5s-46 15.5 -90 15.5c-54 0 -107 -8.33301 -159 -25v104c23.333 9.33301 51.833 17 85.5 23s69.167 9 106.5 9c73.333 0 130.833 -15 172.5 -45s62.5 -77.667 62.5 -143v-296h-141
l-8 40c-17.333 -16 -39.5 -28.333 -66.5 -37s-60.5 -13 -100.5 -13zM250 89c25.333 0 47.333 4.33301 66 13s33.667 19.667 45 33v67h-114c-47.333 0 -71 -19 -71 -57c0 -17.333 6 -31 18 -41s30.667 -15 56 -15z" />
    <glyph glyph-name="adieresis" unicode="&#xe4;" horiz-adv-x="561" 
d="M137 548v109h118v-109h-118zM343 548v109h118v-109h-118zM199 -10c-30 0 -57.833 5.33301 -83.5 16s-46.167 27.167 -61.5 49.5s-23 50.166 -23 83.499c0 48.667 16.5 86.834 49.5 114.501s82.5 41.5 148.5 41.5h132v11c0 24 -8 41.167 -24 51.5s-46 15.5 -90 15.5
c-54 0 -107 -8.33301 -159 -25v104c23.333 9.33301 51.833 17 85.5 23s69.167 9 106.5 9c73.333 0 130.833 -15 172.5 -45s62.5 -77.667 62.5 -143v-296h-141l-8 40c-17.333 -16 -39.5 -28.333 -66.5 -37s-60.5 -13 -100.5 -13zM250 89c25.333 0 47.333 4.33301 66 13
s33.667 19.667 45 33v67h-114c-47.333 0 -71 -19 -71 -57c0 -17.333 6 -31 18 -41s30.667 -15 56 -15z" />
    <glyph glyph-name="aring" unicode="&#xe5;" horiz-adv-x="561" 
d="M300 521c-40.667 0 -72.667 12.167 -96 36.5s-35 53.833 -35 88.5c0 35.333 11.667 65.166 35 89.499s55.333 36.5 96 36.5c42 0 74.5 -12.167 97.5 -36.5s34.5 -54.166 34.5 -89.499c0 -34.667 -11.5 -64.167 -34.5 -88.5s-55.5 -36.5 -97.5 -36.5zM300 591
c18.667 0 33 5.33301 43 16s15 23.667 15 39s-5 28.5 -15 39.5s-24.333 16.5 -43 16.5c-17.333 0 -31.166 -5.5 -41.499 -16.5s-15.5 -24.167 -15.5 -39.5s5.16699 -28.333 15.5 -39s24.166 -16 41.499 -16zM199 -10c-30 0 -57.833 5.33301 -83.5 16
s-46.167 27.167 -61.5 49.5s-23 50.166 -23 83.499c0 48.667 16.5 86.834 49.5 114.501s82.5 41.5 148.5 41.5h132v11c0 24 -8 41.167 -24 51.5s-46 15.5 -90 15.5c-54 0 -107 -8.33301 -159 -25v104c23.333 9.33301 51.833 17 85.5 23s69.167 9 106.5 9
c73.333 0 130.833 -15 172.5 -45s62.5 -77.667 62.5 -143v-296h-141l-8 40c-17.333 -16 -39.5 -28.333 -66.5 -37s-60.5 -13 -100.5 -13zM250 89c25.333 0 47.333 4.33301 66 13s33.667 19.667 45 33v67h-114c-47.333 0 -71 -19 -71 -57c0 -17.333 6 -31 18 -41
s30.667 -15 56 -15z" />
    <glyph glyph-name="ae" unicode="&#xe6;" horiz-adv-x="882" 
d="M212 -10c-34 0 -64.668 5.33301 -92.001 16s-49 27.167 -65 49.5s-24 50.166 -24 83.499c0 48.667 16.5 86.834 49.5 114.501s82.5 41.5 148.5 41.5h132v11c0 24 -8 41.167 -24 51.5s-46 15.5 -90 15.5c-54 0 -107 -8.33301 -159 -25v104
c23.333 9.33301 51.833 17 85.5 23s69.167 9 106.5 9c72 0 127.667 -15.333 167 -46c40.667 30.667 96.334 46 167.001 46c75.333 0 133.666 -19.333 174.999 -58s62 -90.667 62 -156v-85h-336c7.33301 -31.333 24.5 -53.5 51.5 -66.5s63.833 -19.5 110.5 -19.5
c26 0 52.5 2.5 79.5 7.5s49.5 10.833 67.5 17.5v-103c-22.667 -10.667 -49.667 -18.5 -81 -23.5s-65.666 -7.5 -102.999 -7.5c-38 0 -74.333 6.33301 -109 19s-62.667 30.667 -84 54c-18 -14 -37.333 -26.5 -58 -37.5s-45.167 -19.667 -73.5 -26s-62.833 -9.5 -103.5 -9.5z
M514.999 278h196v21c0 23.333 -7 41.833 -21 55.5s-37.667 20.5 -71 20.5c-38.667 0 -65.667 -7.83301 -81 -23.5s-23 -40.167 -23 -73.5zM249.999 89c25.333 0 47 3.83203 65 11.499s33.333 17.834 46 30.501v71h-114c-47.333 0 -71 -19 -71 -57c0 -17.333 6 -31 18 -41
s30.667 -15 56 -15z" />
    <glyph glyph-name="ccedilla" unicode="&#xe7;" horiz-adv-x="501" 
d="M274 -240c-11.333 0 -25.502 0.833984 -42.502 2.50098s-29.167 3.5 -36.5 5.5v71c19.333 -5.33301 39.333 -8 60 -8c27.333 0 46.833 2.16699 58.5 6.5s17.5 13.833 17.5 28.5c0 15.333 -6 24.833 -18 28.5s-27.667 5.5 -47 5.5h-54l27 94
c-66 9.33301 -117.167 34.333 -153.5 75s-54.5 96.667 -54.5 168c0 83.333 24.833 145.333 74.5 186s115.834 61 198.501 61c34.667 0 64.834 -2.5 90.501 -7.5s50.5 -13.167 74.5 -24.5v-114c-37.333 18 -81 27 -131 27c-46.667 0 -82.167 -9.33301 -106.5 -28
s-36.5 -52 -36.5 -100c0 -44.667 11.333 -77.167 34 -97.5s58.667 -30.5 108 -30.5c48.667 0 93 10 133 30v-119c-38.667 -16.667 -84 -26.334 -136 -29.001l-12 -34c37.333 0 64.833 -8.5 82.5 -25.5s26.5 -39.5 26.5 -67.5c0 -32.667 -12.833 -58.167 -38.5 -76.5
s-65.167 -27.5 -118.5 -27.5z" />
    <glyph glyph-name="egrave" unicode="&#xe8;" horiz-adv-x="547" 
d="M220 522l-93 196h132l84 -196h-123zM305 -10c-82.667 0 -149 20.499 -199 61.499s-75 102.833 -75 185.5c0 75.333 20.667 135.333 62 180s103.333 67 186 67c75.333 0 133.666 -19.333 174.999 -58s62 -90.667 62 -156v-85h-336
c7.33301 -31.333 24.5 -53.166 51.5 -65.499s63.833 -18.5 110.5 -18.5c26 0 52.5 2.33301 79.5 7s49.5 10.667 67.5 18v-105c-22.667 -10.667 -49.667 -18.5 -81 -23.5s-65.666 -7.5 -102.999 -7.5zM180 277.999h196v21c0 23.333 -7 41.833 -21 55.5s-37.667 20.5 -71 20.5
c-38.667 0 -65.667 -7.83301 -81 -23.5s-23 -40.167 -23 -73.5z" />
    <glyph glyph-name="eacute" unicode="&#xe9;" horiz-adv-x="547" 
d="M220 522l84 196h132l-92 -196h-124zM305 -10c-82.667 0 -149 20.499 -199 61.499s-75 102.833 -75 185.5c0 75.333 20.667 135.333 62 180s103.333 67 186 67c75.333 0 133.666 -19.333 174.999 -58s62 -90.667 62 -156v-85h-336
c7.33301 -31.333 24.5 -53.166 51.5 -65.499s63.833 -18.5 110.5 -18.5c26 0 52.5 2.33301 79.5 7s49.5 10.667 67.5 18v-105c-22.667 -10.667 -49.667 -18.5 -81 -23.5s-65.666 -7.5 -102.999 -7.5zM180 277.999h196v21c0 23.333 -7 41.833 -21 55.5s-37.667 20.5 -71 20.5
c-38.667 0 -65.667 -7.83301 -81 -23.5s-23 -40.167 -23 -73.5z" />
    <glyph glyph-name="ecircumflex" unicode="&#xea;" horiz-adv-x="547" 
d="M86 521l145 187h100l145 -187h-120l-75 104l-72 -104h-123zM305 -10c-82.667 0 -149 20.499 -199 61.499s-75 102.833 -75 185.5c0 75.333 20.667 135.333 62 180s103.333 67 186 67c75.333 0 133.666 -19.333 174.999 -58s62 -90.667 62 -156v-85h-336
c7.33301 -31.333 24.5 -53.166 51.5 -65.499s63.833 -18.5 110.5 -18.5c26 0 52.5 2.33301 79.5 7s49.5 10.667 67.5 18v-105c-22.667 -10.667 -49.667 -18.5 -81 -23.5s-65.666 -7.5 -102.999 -7.5zM180 277.999h196v21c0 23.333 -7 41.833 -21 55.5s-37.667 20.5 -71 20.5
c-38.667 0 -65.667 -7.83301 -81 -23.5s-23 -40.167 -23 -73.5z" />
    <glyph glyph-name="edieresis" unicode="&#xeb;" horiz-adv-x="547" 
d="M119 548v109h118v-109h-118zM325 548v109h118v-109h-118zM305 -10c-82.667 0 -149 20.499 -199 61.499s-75 102.833 -75 185.5c0 75.333 20.667 135.333 62 180s103.333 67 186 67c75.333 0 133.666 -19.333 174.999 -58s62 -90.667 62 -156v-85h-336
c7.33301 -31.333 24.5 -53.166 51.5 -65.499s63.833 -18.5 110.5 -18.5c26 0 52.5 2.33301 79.5 7s49.5 10.667 67.5 18v-105c-22.667 -10.667 -49.667 -18.5 -81 -23.5s-65.666 -7.5 -102.999 -7.5zM180 277.999h196v21c0 23.333 -7 41.833 -21 55.5s-37.667 20.5 -71 20.5
c-38.667 0 -65.667 -7.83301 -81 -23.5s-23 -40.167 -23 -73.5z" />
    <glyph glyph-name="igrave" unicode="&#xec;" horiz-adv-x="334" 
d="M134 522l-93 196h132l84 -196h-123zM121 0v355h-70l14 119h217v-474h-161z" />
    <glyph glyph-name="iacute" unicode="&#xed;" horiz-adv-x="334" 
d="M120 522l84 196h132l-92 -196h-124zM121 0v355h-70l14 119h217v-474h-161z" />
    <glyph glyph-name="icircumflex" unicode="&#xee;" horiz-adv-x="334" 
d="M-22 521l145 187h100l145 -187h-120l-75 104l-72 -104h-123zM121 0v355h-70l14 119h217v-474h-161z" />
    <glyph glyph-name="idieresis" unicode="&#xef;" horiz-adv-x="334" 
d="M8 548v109h118v-109h-118zM214 548v109h118v-109h-118zM121 0v355h-70l14 119h217v-474h-161z" />
    <glyph glyph-name="eth" unicode="&#xf0;" horiz-adv-x="572" 
d="M290 -10c-91.333 0 -157.334 18.8301 -198.001 56.4971s-61 88.834 -61 153.501c0 68.667 19.833 119.834 59.5 153.501s95.5 50.5 167.5 50.5c27.333 0 53.833 -3.83301 79.5 -11.5s46.834 -17.167 63.501 -28.5v29c0 19.333 -1.33301 37 -4 53s-7 30.333 -13 43
l-113 -49v59l75 32c-21.333 13.333 -49.333 20 -84 20c-27.333 0 -52.666 -2.5 -75.999 -7.5s-46.333 -12.167 -69 -21.5v105c48 18 105 27 171 27c42.667 0 79.667 -5.66699 111 -17s57.666 -27.666 78.999 -48.999l87 38v-59l-53 -23
c14 -23.333 24.167 -49.833 30.5 -79.5s9.5 -61.167 9.5 -94.5v-123c0 -171.333 -87.333 -257 -262 -257zM288.999 95.9971c37.333 0 65.3311 9.33398 83.998 28.001s28 48 28 88v56c-15.333 11.333 -32.166 20.166 -50.499 26.499s-39.166 9.5 -62.499 9.5
c-41.333 0 -70.5 -9.16699 -87.5 -27.5s-25.5 -43.833 -25.5 -76.5s9.5 -58.167 28.5 -76.5s47.5 -27.5 85.5 -27.5z" />
    <glyph glyph-name="ntilde" unicode="&#xf1;" horiz-adv-x="595" 
d="M392 532c-20.667 0 -40.834 3.5 -60.501 10.5l-57 20.5c-18.333 6.66699 -36.166 10 -53.499 10c-19.333 0 -36.833 -3.33301 -52.5 -10s-29.5 -16 -41.5 -28v107c9.33301 9.33301 22.166 17 38.499 23s33.833 9 52.5 9c21.333 0 41.333 -3.33301 60 -10l55 -20.5
c18 -7 36.667 -10.5 56 -10.5c20 0 37.333 3.5 52 10.5s26.334 16.5 35.001 28.5v-108c-6.66699 -8.66699 -17.5 -16.167 -32.5 -22.5s-32.167 -9.5 -51.5 -9.5zM51 0l0.000976562 474h150l5 -41c19.333 13.333 43.666 25.166 72.999 35.499s60.666 15.5 93.999 15.5
c61.333 0 106 -14.667 134 -44s42 -74.666 42 -135.999v-304h-161v291c0 26.667 -5.66699 45.667 -17 57s-31.666 17 -60.999 17c-17.333 0 -35 -4 -53 -12s-33 -18 -45 -30v-323h-161z" />
    <glyph glyph-name="ograve" unicode="&#xf2;" horiz-adv-x="597" 
d="M238 522l-93 196h132l84 -196h-123zM298 -10c-91.333 0 -158.668 21.167 -202.001 63.5s-65 103.5 -65 183.5c0 79.333 21.833 140.333 65.5 183s110.834 64 201.501 64c91.333 0 158.833 -21.333 202.5 -64s65.5 -103.667 65.5 -183c0 -80 -21.667 -141.167 -65 -183.5
s-111 -63.5 -203 -63.5zM297.998 116c37.333 0 64 9.33301 80 28s24 49.667 24 93s-8 74.333 -24 93s-42.667 28 -80 28c-36.667 0 -63 -9.33301 -79 -28s-24 -49.667 -24 -93s8 -74.333 24 -93s42.333 -28 79 -28z" />
    <glyph glyph-name="oacute" unicode="&#xf3;" horiz-adv-x="597" 
d="M225 522l84 196h132l-92 -196h-124zM298 -10c-91.333 0 -158.668 21.167 -202.001 63.5s-65 103.5 -65 183.5c0 79.333 21.833 140.333 65.5 183s110.834 64 201.501 64c91.333 0 158.833 -21.333 202.5 -64s65.5 -103.667 65.5 -183c0 -80 -21.667 -141.167 -65 -183.5
s-111 -63.5 -203 -63.5zM297.998 116c37.333 0 64 9.33301 80 28s24 49.667 24 93s-8 74.333 -24 93s-42.667 28 -80 28c-36.667 0 -63 -9.33301 -79 -28s-24 -49.667 -24 -93s8 -74.333 24 -93s42.333 -28 79 -28z" />
    <glyph glyph-name="ocircumflex" unicode="&#xf4;" horiz-adv-x="597" 
d="M103 521l145 187h100l145 -187h-120l-75 104l-72 -104h-123zM298 -10c-91.333 0 -158.668 21.167 -202.001 63.5s-65 103.5 -65 183.5c0 79.333 21.833 140.333 65.5 183s110.834 64 201.501 64c91.333 0 158.833 -21.333 202.5 -64s65.5 -103.667 65.5 -183
c0 -80 -21.667 -141.167 -65 -183.5s-111 -63.5 -203 -63.5zM297.998 116c37.333 0 64 9.33301 80 28s24 49.667 24 93s-8 74.333 -24 93s-42.667 28 -80 28c-36.667 0 -63 -9.33301 -79 -28s-24 -49.667 -24 -93s8 -74.333 24 -93s42.333 -28 79 -28z" />
    <glyph glyph-name="otilde" unicode="&#xf5;" horiz-adv-x="597" 
d="M389 544c-20.667 0 -40.834 3.5 -60.501 10.5l-57 20.5c-18.333 6.66699 -36.166 10 -53.499 10c-19.333 0 -36.833 -3.33301 -52.5 -10s-29.5 -16 -41.5 -28v107c9.33301 9.33301 22.166 17 38.499 23s33.833 9 52.5 9c21.333 0 41.333 -3.33301 60 -10l55 -20.5
c18 -7 36.667 -10.5 56 -10.5c20 0 37.333 3.5 52 10.5s26.334 16.5 35.001 28.5v-108c-6.66699 -8.66699 -17.5 -16.167 -32.5 -22.5s-32.167 -9.5 -51.5 -9.5zM298 -10c-91.333 0 -158.668 21.167 -202.001 63.5s-65 103.5 -65 183.5c0 79.333 21.833 140.333 65.5 183
s110.834 64 201.501 64c91.333 0 158.833 -21.333 202.5 -64s65.5 -103.667 65.5 -183c0 -80 -21.667 -141.167 -65 -183.5s-111 -63.5 -203 -63.5zM297.998 116c37.333 0 64 9.33301 80 28s24 49.667 24 93s-8 74.333 -24 93s-42.667 28 -80 28
c-36.667 0 -63 -9.33301 -79 -28s-24 -49.667 -24 -93s8 -74.333 24 -93s42.333 -28 79 -28z" />
    <glyph glyph-name="odieresis" unicode="&#xf6;" horiz-adv-x="597" 
d="M136 548v109h118v-109h-118zM342 548v109h118v-109h-118zM298 -10c-91.333 0 -158.668 21.167 -202.001 63.5s-65 103.5 -65 183.5c0 79.333 21.833 140.333 65.5 183s110.834 64 201.501 64c91.333 0 158.833 -21.333 202.5 -64s65.5 -103.667 65.5 -183
c0 -80 -21.667 -141.167 -65 -183.5s-111 -63.5 -203 -63.5zM297.998 116c37.333 0 64 9.33301 80 28s24 49.667 24 93s-8 74.333 -24 93s-42.667 28 -80 28c-36.667 0 -63 -9.33301 -79 -28s-24 -49.667 -24 -93s8 -74.333 24 -93s42.333 -28 79 -28z" />
    <glyph glyph-name="divide" unicode="&#xf7;" horiz-adv-x="457" 
d="M170 404v106h118v-106h-118zM31 215v125h395v-125h-395zM170 48v106h118v-106h-118z" />
    <glyph glyph-name="oslash" unicode="&#xf8;" horiz-adv-x="597" 
d="M141 -53l23.999 63.998c-45.333 17.333 -79 45 -101 83s-33 85.667 -33 143c0 79.333 21.833 140.333 65.5 183s110.834 64 201.501 64c16.667 0 33 -1 49 -3l18 47h87l-25 -64c47.333 -17.333 82.333 -45.166 105 -83.499s34 -86.166 34 -143.499
c0 -80 -21.667 -141.167 -65 -183.5s-111 -63.5 -203 -63.5c-18.667 0 -36.667 1 -54 3l-17 -46h-86zM215.999 140.998l83.999 220h-2c-37.333 0 -64.666 -9.66699 -81.999 -29s-26 -51 -26 -95c0 -44.667 8.66699 -76.667 26 -96zM290.998 112.998h7
c37.333 0 64.833 9.5 82.5 28.5s26.5 50.833 26.5 95.5c0 45.333 -10 78 -30 98z" />
    <glyph glyph-name="ugrave" unicode="&#xf9;" horiz-adv-x="595" 
d="M249 522l-93 196h132l84 -196h-123zM224 -10c-56 0 -99.666 15.832 -130.999 47.499s-47 77.834 -47 138.501v298h161v-289c0 -26.667 6.5 -46.167 19.5 -58.5s32.5 -18.5 58.5 -18.5c19.333 0 37.666 4 54.999 12s31.666 18 42.999 30v324h161v-474h-150l-5 40
c-19.333 -14.667 -42.666 -26.667 -69.999 -36s-59 -14 -95 -14z" />
    <glyph glyph-name="uacute" unicode="&#xfa;" horiz-adv-x="595" 
d="M215 522l84 196h132l-92 -196h-124zM224 -10c-56 0 -99.666 15.832 -130.999 47.499s-47 77.834 -47 138.501v298h161v-289c0 -26.667 6.5 -46.167 19.5 -58.5s32.5 -18.5 58.5 -18.5c19.333 0 37.666 4 54.999 12s31.666 18 42.999 30v324h161v-474h-150l-5 40
c-19.333 -14.667 -42.666 -26.667 -69.999 -36s-59 -14 -95 -14z" />
    <glyph glyph-name="ucircumflex" unicode="&#xfb;" horiz-adv-x="595" 
d="M99 521l145 187h100l145 -187h-120l-75 104l-72 -104h-123zM224 -10c-56 0 -99.666 15.832 -130.999 47.499s-47 77.834 -47 138.501v298h161v-289c0 -26.667 6.5 -46.167 19.5 -58.5s32.5 -18.5 58.5 -18.5c19.333 0 37.666 4 54.999 12s31.666 18 42.999 30v324h161
v-474h-150l-5 40c-19.333 -14.667 -42.666 -26.667 -69.999 -36s-59 -14 -95 -14z" />
    <glyph glyph-name="udieresis" unicode="&#xfc;" horiz-adv-x="595" 
d="M133 548v109h118v-109h-118zM339 548v109h118v-109h-118zM224 -10c-56 0 -99.666 15.832 -130.999 47.499s-47 77.834 -47 138.501v298h161v-289c0 -26.667 6.5 -46.167 19.5 -58.5s32.5 -18.5 58.5 -18.5c19.333 0 37.666 4 54.999 12s31.666 18 42.999 30v324h161v-474
h-150l-5 40c-19.333 -14.667 -42.666 -26.667 -69.999 -36s-59 -14 -95 -14z" />
    <glyph glyph-name="yacute" unicode="&#xfd;" horiz-adv-x="627" 
d="M255 522l84 196h132l-92 -196h-124zM192 -176c-24 0 -44.501 1.16504 -61.501 3.49805s-33.833 6.83301 -50.5 13.5v112c11.333 -4 21.833 -6.66699 31.5 -8s19.5 -2 29.5 -2c27.333 0 47.833 4.83301 61.5 14.5s27.5 26.834 41.5 51.501l-213 465h169l125 -301l123 301
h168l-181 -435c-18 -43.333 -38 -81.166 -60 -113.499s-47.667 -57.333 -77 -75s-64.666 -26.5 -105.999 -26.5z" />
    <glyph glyph-name="thorn" unicode="&#xfe;" horiz-adv-x="598" 
d="M51 -216l-0.000976562 916h161v-248c17.333 10.667 37.333 18.667 60 24s46.334 8 71.001 8c69.333 0 124 -19.833 164 -59.5s60 -102.167 60 -187.5c0 -84.667 -20.167 -147 -60.5 -187s-95.833 -60 -166.5 -60c-50 0 -92.667 10.333 -128 31v-237h-161zM298.999 108
c34 0 59.833 10.332 77.5 30.999s26.5 54.334 26.5 101.001c0 45.333 -8 77.666 -24 96.999s-41.667 29 -77 29c-34 0 -64 -12 -90 -36v-192c12.667 -9.33301 25.5 -16.666 38.5 -21.999s29.167 -8 48.5 -8z" />
    <glyph glyph-name="ydieresis" unicode="&#xff;" horiz-adv-x="627" 
d="M164 565v109h118v-109h-118zM370 565v109h118v-109h-118zM192 -176c-24 0 -44.501 1.16504 -61.501 3.49805s-33.833 6.83301 -50.5 13.5v112c11.333 -4 21.833 -6.66699 31.5 -8s19.5 -2 29.5 -2c27.333 0 47.833 4.83301 61.5 14.5s27.5 26.834 41.5 51.501l-213 465
h169l125 -301l123 301h168l-181 -435c-18 -43.333 -38 -81.166 -60 -113.499s-47.667 -57.333 -77 -75s-64.666 -26.5 -105.999 -26.5z" />
    <glyph glyph-name="Amacron" unicode="&#x100;" horiz-adv-x="728" 
d="M204 704v97h318v-97h-318zM31 0l246 644h174l246 -644h-168l-58 146h-215l-57 -146h-168zM278 265h171l-86 224z" />
    <glyph glyph-name="amacron" unicode="&#x101;" horiz-adv-x="561" 
d="M145 538v97h318v-97h-318zM199 -10c-30 0 -57.833 5.33301 -83.5 16s-46.167 27.167 -61.5 49.5s-23 50.166 -23 83.499c0 48.667 16.5 86.834 49.5 114.501s82.5 41.5 148.5 41.5h132v11c0 24 -8 41.167 -24 51.5s-46 15.5 -90 15.5c-54 0 -107 -8.33301 -159 -25v104
c23.333 9.33301 51.833 17 85.5 23s69.167 9 106.5 9c73.333 0 130.833 -15 172.5 -45s62.5 -77.667 62.5 -143v-296h-141l-8 40c-17.333 -16 -39.5 -28.333 -66.5 -37s-60.5 -13 -100.5 -13zM250 89c25.333 0 47.333 4.33301 66 13s33.667 19.667 45 33v67h-114
c-47.333 0 -71 -19 -71 -57c0 -17.333 6 -31 18 -41s30.667 -15 56 -15z" />
    <glyph glyph-name="Abreve" unicode="&#x102;" horiz-adv-x="728" 
d="M363 688c-51.333 0 -93.001 15 -125.001 45s-48 72.333 -48 127h106c0 -22.667 5.16699 -42 15.5 -58s27.5 -24 51.5 -24c24.667 0 42.334 8 53.001 24s16 35.333 16 58h106c0 -54.667 -16.167 -97 -48.5 -127s-74.5 -45 -126.5 -45zM30.999 0l246 644h174l246 -644h-168
l-58 146h-215l-57 -146h-168zM277.999 265h171l-86 224z" />
    <glyph glyph-name="abreve" unicode="&#x103;" horiz-adv-x="561" 
d="M302 522c-51.333 0 -93.001 15 -125.001 45s-48 72.333 -48 127h106c0 -22.667 5.16699 -42 15.5 -58s27.5 -24 51.5 -24c24.667 0 42.334 8 53.001 24s16 35.333 16 58h106c0 -54.667 -16.167 -97 -48.5 -127s-74.5 -45 -126.5 -45zM198.999 -10
c-30 0 -57.833 5.33301 -83.5 16s-46.167 27.167 -61.5 49.5s-23 50.166 -23 83.499c0 48.667 16.5 86.834 49.5 114.501s82.5 41.5 148.5 41.5h132v11c0 24 -8 41.167 -24 51.5s-46 15.5 -90 15.5c-54 0 -107 -8.33301 -159 -25v104c23.333 9.33301 51.833 17 85.5 23
s69.167 9 106.5 9c73.333 0 130.833 -15 172.5 -45s62.5 -77.667 62.5 -143v-296h-141l-8 40c-17.333 -16 -39.5 -28.333 -66.5 -37s-60.5 -13 -100.5 -13zM249.999 89c25.333 0 47.333 4.33301 66 13s33.667 19.667 45 33v67h-114c-47.333 0 -71 -19 -71 -57
c0 -17.333 6 -31 18 -41s30.667 -15 56 -15z" />
    <glyph glyph-name="Aogonek" unicode="&#x104;" horiz-adv-x="728" 
d="M31 0l246 644h174l246 -644h-45c-18.667 -14 -33.834 -29.167 -45.501 -45.5s-17.5 -33.5 -17.5 -51.5c0 -13.333 4 -23 12 -29s18.667 -9 32 -9c8.66699 0 17.667 1 27 3s17 4.66699 23 8v-81c-9.33301 -4 -22.666 -7.5 -39.999 -10.5s-35.333 -4.5 -54 -4.5
c-34 0 -63 7.5 -87 22.5s-36 38.833 -36 71.5c0 25.333 6.5 49 19.5 71s30.833 40.333 53.5 55h-10l-58 146h-215l-57 -146h-168zM278 265h171l-86 224z" />
    <glyph glyph-name="aogonek" unicode="&#x105;" horiz-adv-x="566" 
d="M199 -10c-30 0 -57.833 5.33301 -83.5 16s-46.167 27.167 -61.5 49.5s-23 50.166 -23 83.499c0 48.667 16.5 86.834 49.5 114.501s82.5 41.5 148.5 41.5h132v11c0 24 -8 41.167 -24 51.5s-46 15.5 -90 15.5c-54 0 -107 -8.33301 -159 -25v104
c23.333 9.33301 51.833 17 85.5 23s69.167 9 106.5 9c73.333 0 130.833 -15 172.5 -45s62.5 -77.667 62.5 -143v-296h-28c-18.667 -14 -33.834 -29.167 -45.501 -45.5s-17.5 -33.5 -17.5 -51.5c0 -13.333 4 -23 12 -29s18.667 -9 32 -9c8.66699 0 17.667 1 27 3
s17 4.66699 23 8v-81c-9.33301 -4 -22.666 -7.5 -39.999 -10.5s-35.333 -4.5 -54 -4.5c-34 0 -63 7.5 -87 22.5s-36 38.833 -36 71.5c0 25.333 6.5 49 19.5 71s30.833 40.333 53.5 55l-8 40c-17.333 -16 -39.5 -28.333 -66.5 -37s-60.5 -13 -100.5 -13zM250 89
c25.333 0 47.333 4.33301 66 13s33.667 19.667 45 33v67h-114c-47.333 0 -71 -19 -71 -57c0 -17.333 6 -31 18 -41s30.667 -15 56 -15z" />
    <glyph glyph-name="Cacute" unicode="&#x106;" horiz-adv-x="603" 
d="M299 688l84 196h132l-92 -196h-124zM377 -10c-112.667 0 -198.504 28.8311 -257.504 86.498s-88.5 137.834 -88.5 240.501c0 107.333 28.833 190.333 86.5 249s143.834 88 258.501 88c39.333 0 74.5 -3 105.5 -9s60.833 -14 89.5 -24v-141c-58 24 -119 36 -183 36
c-66.667 0 -115.5 -16 -146.5 -48s-46.5 -82.333 -46.5 -151c0 -65.333 16.333 -113.333 49 -144s81.334 -46 146.001 -46c31.333 0 62.333 2.83301 93 8.5s60.334 14.5 89.001 26.5v-142c-28 -9.33301 -57.667 -16.666 -89 -21.999s-66.666 -8 -105.999 -8z" />
    <glyph glyph-name="cacute" unicode="&#x107;" horiz-adv-x="501" 
d="M220 522l84 196h132l-92 -196h-124zM301 -10c-84.667 0 -150.835 20.668 -198.502 62.001s-71.5 103 -71.5 185c0 83.333 24.833 145.333 74.5 186s115.834 61 198.501 61c34.667 0 64.834 -2.5 90.501 -7.5s50.5 -13.167 74.5 -24.5v-114c-37.333 18 -81 27 -131 27
c-46.667 0 -82.167 -9.33301 -106.5 -28s-36.5 -52 -36.5 -100c0 -44.667 11.333 -77.167 34 -97.5s58.667 -30.5 108 -30.5c48.667 0 93 10 133 30v-119c-24 -10.667 -49.833 -18.334 -77.5 -23.001s-58.167 -7 -91.5 -7z" />
    <glyph glyph-name="Ccircumflex" unicode="&#x108;" horiz-adv-x="603" 
d="M150 687l145 187h100l145 -187h-120l-75 104l-72 -104h-123zM377 -10c-112.667 0 -198.504 28.8311 -257.504 86.498s-88.5 137.834 -88.5 240.501c0 107.333 28.833 190.333 86.5 249s143.834 88 258.501 88c39.333 0 74.5 -3 105.5 -9s60.833 -14 89.5 -24v-141
c-58 24 -119 36 -183 36c-66.667 0 -115.5 -16 -146.5 -48s-46.5 -82.333 -46.5 -151c0 -65.333 16.333 -113.333 49 -144s81.334 -46 146.001 -46c31.333 0 62.333 2.83301 93 8.5s60.334 14.5 89.001 26.5v-142c-28 -9.33301 -57.667 -16.666 -89 -21.999
s-66.666 -8 -105.999 -8z" />
    <glyph glyph-name="ccircumflex" unicode="&#x109;" horiz-adv-x="501" 
d="M77 521l145 187h100l145 -187h-120l-75 104l-72 -104h-123zM301 -10c-84.667 0 -150.835 20.668 -198.502 62.001s-71.5 103 -71.5 185c0 83.333 24.833 145.333 74.5 186s115.834 61 198.501 61c34.667 0 64.834 -2.5 90.501 -7.5s50.5 -13.167 74.5 -24.5v-114
c-37.333 18 -81 27 -131 27c-46.667 0 -82.167 -9.33301 -106.5 -28s-36.5 -52 -36.5 -100c0 -44.667 11.333 -77.167 34 -97.5s58.667 -30.5 108 -30.5c48.667 0 93 10 133 30v-119c-24 -10.667 -49.833 -18.334 -77.5 -23.001s-58.167 -7 -91.5 -7z" />
    <glyph glyph-name="Cdotaccent" unicode="&#x10a;" horiz-adv-x="603" 
d="M300 714v109h117v-109h-117zM377 -10c-112.667 0 -198.504 28.8311 -257.504 86.498s-88.5 137.834 -88.5 240.501c0 107.333 28.833 190.333 86.5 249s143.834 88 258.501 88c39.333 0 74.5 -3 105.5 -9s60.833 -14 89.5 -24v-141c-58 24 -119 36 -183 36
c-66.667 0 -115.5 -16 -146.5 -48s-46.5 -82.333 -46.5 -151c0 -65.333 16.333 -113.333 49 -144s81.334 -46 146.001 -46c31.333 0 62.333 2.83301 93 8.5s60.334 14.5 89.001 26.5v-142c-28 -9.33301 -57.667 -16.666 -89 -21.999s-66.666 -8 -105.999 -8z" />
    <glyph glyph-name="cdotaccent" unicode="&#x10b;" horiz-adv-x="501" 
d="M221 548v109h117v-109h-117zM301 -10c-84.667 0 -150.835 20.668 -198.502 62.001s-71.5 103 -71.5 185c0 83.333 24.833 145.333 74.5 186s115.834 61 198.501 61c34.667 0 64.834 -2.5 90.501 -7.5s50.5 -13.167 74.5 -24.5v-114c-37.333 18 -81 27 -131 27
c-46.667 0 -82.167 -9.33301 -106.5 -28s-36.5 -52 -36.5 -100c0 -44.667 11.333 -77.167 34 -97.5s58.667 -30.5 108 -30.5c48.667 0 93 10 133 30v-119c-24 -10.667 -49.833 -18.334 -77.5 -23.001s-58.167 -7 -91.5 -7z" />
    <glyph glyph-name="Ccaron" unicode="&#x10c;" horiz-adv-x="603" 
d="M317 687l-145 187h123l72 -104l75 104h120l-145 -187h-100zM377 -10c-112.667 0 -198.504 28.8311 -257.504 86.498s-88.5 137.834 -88.5 240.501c0 107.333 28.833 190.333 86.5 249s143.834 88 258.501 88c39.333 0 74.5 -3 105.5 -9s60.833 -14 89.5 -24v-141
c-58 24 -119 36 -183 36c-66.667 0 -115.5 -16 -146.5 -48s-46.5 -82.333 -46.5 -151c0 -65.333 16.333 -113.333 49 -144s81.334 -46 146.001 -46c31.333 0 62.333 2.83301 93 8.5s60.334 14.5 89.001 26.5v-142c-28 -9.33301 -57.667 -16.666 -89 -21.999
s-66.666 -8 -105.999 -8z" />
    <glyph glyph-name="ccaron" unicode="&#x10d;" horiz-adv-x="502" 
d="M226 521l-145 187h123l72 -104l75 104h120l-145 -187h-100zM301 -10c-84.667 0 -150.835 20.668 -198.502 62.001s-71.5 103 -71.5 185c0 83.333 24.833 145.333 74.5 186s115.834 61 198.501 61c34.667 0 64.834 -2.5 90.501 -7.5s50.5 -13.167 74.5 -24.5v-114
c-37.333 18 -81 27 -131 27c-46.667 0 -82.167 -9.33301 -106.5 -28s-36.5 -52 -36.5 -100c0 -44.667 11.333 -77.167 34 -97.5s58.667 -30.5 108 -30.5c48.667 0 93 10 133 30v-119c-24 -10.667 -49.833 -18.334 -77.5 -23.001s-58.167 -7 -91.5 -7z" />
    <glyph glyph-name="Dcaron" unicode="&#x10e;" horiz-adv-x="663" 
d="M251 698l-145 187h123l72 -104l75 104h120l-145 -187h-100zM51 0v644.003h279c65.333 0 120.333 -10.833 165 -32.5s78.667 -56.334 102 -104.001s35 -110.834 35 -189.501c0 -110.667 -25.5 -191.334 -76.5 -242.001s-126.167 -76 -225.5 -76h-279zM212 124.003h95.999
c34.667 0 63.834 5.16699 87.501 15.5s41.667 29.5 54 57.5s18.5 68.333 18.5 121c0 53.333 -5.5 94.5 -16.5 123.5s-28.333 49.333 -52 61s-54.167 17.5 -91.5 17.5h-96v-396z" />
    <glyph glyph-name="dcaron" unicode="&#x10f;" horiz-adv-x="756" 
d="M250 -10c-64.667 0 -117.333 19.332 -158 57.999s-61 100.334 -61 185.001c0 57.333 9.83301 104.5 29.5 141.5s46.5 64.5 80.5 82.5s72.667 27 116 27c50.667 0 93.667 -10.667 129 -32v222h161v-674h-139l-9 40c-19.333 -16.667 -41 -29.167 -65 -37.5
s-52 -12.5 -84 -12.5zM594.001 460.999l33 213h129l-53 -213h-109zM296.001 106.999c35.333 0 65.333 12 90 36v192c-22.667 20.667 -51.667 31 -87 31c-34 0 -59.833 -10.667 -77.5 -32s-26.5 -55.333 -26.5 -102c0 -45.333 8.5 -77.5 25.5 -96.5s42.167 -28.5 75.5 -28.5z
" />
    <glyph glyph-name="Dcroat" unicode="&#x110;" horiz-adv-x="697" 
d="M84 0v257.003h-73v117h73v270h279c65.333 0 120.333 -10.833 165 -32.5s78.667 -56.334 102 -104.001s35 -110.834 35 -189.501c0 -110.667 -25.5 -191.334 -76.5 -242.001s-126.167 -76 -225.5 -76h-279zM245 124.003h95.999c34.667 0 63.834 5.16699 87.501 15.5
s41.667 29.5 54 57.5s18.5 68.333 18.5 121c0 53.333 -5.5 94.5 -16.5 123.5s-28.333 49.333 -52 61s-54.167 17.5 -91.5 17.5h-96v-146h126v-117h-126v-133z" />
    <glyph glyph-name="dcroat" unicode="&#x111;" horiz-adv-x="599" 
d="M250 -10c-64.667 0 -117.333 19.332 -158 57.999s-61 100.334 -61 185.001c0 57.333 9.83301 104.5 29.5 141.5s46.5 64.5 80.5 82.5s72.667 27 116 27c50.667 0 93.667 -10.667 129 -32v69h-138v102h138v51h161v-51h41v-102h-41v-521h-139l-9 40
c-19.333 -16.667 -41 -29.167 -65 -37.5s-52 -12.5 -84 -12.5zM296.001 106.999c35.333 0 65.333 12 90 36v192c-22.667 20.667 -51.667 31 -87 31c-34 0 -59.833 -10.667 -77.5 -32s-26.5 -55.333 -26.5 -102c0 -45.333 8.5 -77.5 25.5 -96.5s42.167 -28.5 75.5 -28.5z" />
    <glyph glyph-name="Emacron" unicode="&#x112;" horiz-adv-x="552" 
d="M121 723v97h318v-97h-318zM51 0v644h475v-124h-314v-135h277v-126h-277v-135h314v-124h-475z" />
    <glyph glyph-name="emacron" unicode="&#x113;" horiz-adv-x="547" 
d="M126 557v97h318v-97h-318zM305 -10c-82.667 0 -149 20.499 -199 61.499s-75 102.833 -75 185.5c0 75.333 20.667 135.333 62 180s103.333 67 186 67c75.333 0 133.666 -19.333 174.999 -58s62 -90.667 62 -156v-85h-336c7.33301 -31.333 24.5 -53.166 51.5 -65.499
s63.833 -18.5 110.5 -18.5c26 0 52.5 2.33301 79.5 7s49.5 10.667 67.5 18v-105c-22.667 -10.667 -49.667 -18.5 -81 -23.5s-65.666 -7.5 -102.999 -7.5zM180 277.999h196v21c0 23.333 -7 41.833 -21 55.5s-37.667 20.5 -71 20.5c-38.667 0 -65.667 -7.83301 -81 -23.5
s-23 -40.167 -23 -73.5z" />
    <glyph glyph-name="Ebreve" unicode="&#x114;" horiz-adv-x="552" 
d="M293 688c-51.333 0 -93.001 15 -125.001 45s-48 72.333 -48 127h106c0 -22.667 5.16699 -42 15.5 -58s27.5 -24 51.5 -24c24.667 0 42.334 8 53.001 24s16 35.333 16 58h106c0 -54.667 -16.167 -97 -48.5 -127s-74.5 -45 -126.5 -45zM50.999 0v644h475v-124h-314v-135
h277v-126h-277v-135h314v-124h-475z" />
    <glyph glyph-name="ebreve" unicode="&#x115;" horiz-adv-x="547" 
d="M284 522c-51.333 0 -93.001 15 -125.001 45s-48 72.333 -48 127h106c0 -22.667 5.16699 -42 15.5 -58s27.5 -24 51.5 -24c24.667 0 42.334 8 53.001 24s16 35.333 16 58h106c0 -54.667 -16.167 -97 -48.5 -127s-74.5 -45 -126.5 -45zM304.999 -10
c-82.667 0 -149 20.499 -199 61.499s-75 102.833 -75 185.5c0 75.333 20.667 135.333 62 180s103.333 67 186 67c75.333 0 133.666 -19.333 174.999 -58s62 -90.667 62 -156v-85h-336c7.33301 -31.333 24.5 -53.166 51.5 -65.499s63.833 -18.5 110.5 -18.5
c26 0 52.5 2.33301 79.5 7s49.5 10.667 67.5 18v-105c-22.667 -10.667 -49.667 -18.5 -81 -23.5s-65.666 -7.5 -102.999 -7.5zM179.999 277.999h196v21c0 23.333 -7 41.833 -21 55.5s-37.667 20.5 -71 20.5c-38.667 0 -65.667 -7.83301 -81 -23.5s-23 -40.167 -23 -73.5z
" />
    <glyph glyph-name="Edotaccent" unicode="&#x116;" horiz-adv-x="552" 
d="M229 714v109h117v-109h-117zM51 0v644h475v-124h-314v-135h277v-126h-277v-135h314v-124h-475z" />
    <glyph glyph-name="edotaccent" unicode="&#x117;" horiz-adv-x="547" 
d="M224 548v109h117v-109h-117zM305 -10c-82.667 0 -149 20.499 -199 61.499s-75 102.833 -75 185.5c0 75.333 20.667 135.333 62 180s103.333 67 186 67c75.333 0 133.666 -19.333 174.999 -58s62 -90.667 62 -156v-85h-336c7.33301 -31.333 24.5 -53.166 51.5 -65.499
s63.833 -18.5 110.5 -18.5c26 0 52.5 2.33301 79.5 7s49.5 10.667 67.5 18v-105c-22.667 -10.667 -49.667 -18.5 -81 -23.5s-65.666 -7.5 -102.999 -7.5zM180 277.999h196v21c0 23.333 -7 41.833 -21 55.5s-37.667 20.5 -71 20.5c-38.667 0 -65.667 -7.83301 -81 -23.5
s-23 -40.167 -23 -73.5z" />
    <glyph glyph-name="Eogonek" unicode="&#x118;" horiz-adv-x="552" 
d="M51 0v644h475v-124h-314v-135h277v-126h-277v-135h314v-124h-39c-18.667 -14 -33.834 -29.167 -45.501 -45.5s-17.5 -33.5 -17.5 -51.5c0 -13.333 4 -23 12 -29s18.667 -9 32 -9c8.66699 0 17.667 1 27 3s17 4.66699 23 8v-81c-9.33301 -4 -22.666 -7.5 -39.999 -10.5
s-35.333 -4.5 -54 -4.5c-34 0 -63 7.5 -87 22.5s-36 38.833 -36 71.5c0 25.333 6.5 49 19.5 71s30.833 40.333 53.5 55h-323z" />
    <glyph glyph-name="eogonek" unicode="&#x119;" horiz-adv-x="547" 
d="M353 -220c-34 0 -63.001 7.49805 -87.001 22.498s-36 38.833 -36 71.5c0 22.667 5.33301 44 16 64s25.334 37.333 44.001 52c-78.667 2.66699 -141.5 24.5 -188.5 65.5s-70.5 101.5 -70.5 181.5c0 75.333 20.667 135.333 62 180s103.333 67 186 67
c75.333 0 133.666 -19.333 174.999 -58s62 -90.667 62 -156v-85h-336c7.33301 -31.333 24.5 -53.166 51.5 -65.499s63.833 -18.5 110.5 -18.5c26 0 52.5 2.33301 79.5 7s49.5 10.667 67.5 18v-105c-21.333 -9.33301 -46.333 -16.666 -75 -21.999
c-18 -14 -32.667 -29 -44 -45s-17 -33 -17 -51c0 -13.333 4 -23 12 -29s18.667 -9 32 -9c8.66699 0 17.667 1 27 3s17 4.66699 23 8v-81c-9.33301 -4 -22.666 -7.5 -39.999 -10.5s-35.333 -4.5 -54 -4.5zM179.999 277.998h196v21c0 23.333 -7 41.833 -21 55.5
s-37.667 20.5 -71 20.5c-38.667 0 -65.667 -7.83301 -81 -23.5s-23 -40.167 -23 -73.5z" />
    <glyph glyph-name="Ecaron" unicode="&#x11a;" horiz-adv-x="552" 
d="M246 687l-145 187h123l72 -104l75 104h120l-145 -187h-100zM51 0v644h475v-124h-314v-135h277v-126h-277v-135h314v-124h-475z" />
    <glyph glyph-name="ecaron" unicode="&#x11b;" horiz-adv-x="547" 
d="M239 521l-145 187h123l72 -104l75 104h120l-145 -187h-100zM305 -10c-82.667 0 -149 20.499 -199 61.499s-75 102.833 -75 185.5c0 75.333 20.667 135.333 62 180s103.333 67 186 67c75.333 0 133.666 -19.333 174.999 -58s62 -90.667 62 -156v-85h-336
c7.33301 -31.333 24.5 -53.166 51.5 -65.499s63.833 -18.5 110.5 -18.5c26 0 52.5 2.33301 79.5 7s49.5 10.667 67.5 18v-105c-22.667 -10.667 -49.667 -18.5 -81 -23.5s-65.666 -7.5 -102.999 -7.5zM180 277.999h196v21c0 23.333 -7 41.833 -21 55.5s-37.667 20.5 -71 20.5
c-38.667 0 -65.667 -7.83301 -81 -23.5s-23 -40.167 -23 -73.5z" />
    <glyph glyph-name="Gcircumflex" unicode="&#x11c;" horiz-adv-x="647" 
d="M166 687l145 187h100l145 -187h-120l-75 104l-72 -104h-123zM372 -10c-111.333 0 -196.001 28.167 -254.001 84.5s-87 135.833 -87 238.5c0 107.333 29.667 191 89 251s146.666 90 261.999 90c39.333 0 74.833 -2.33301 106.5 -7s61.834 -11.667 90.501 -21v-138
c-28.667 10.667 -58.5 18 -89.5 22s-62.833 6 -95.5 6c-69.333 0 -119.833 -16.5 -151.5 -49.5s-47.5 -84.167 -47.5 -153.5c0 -63.333 15 -110.166 45 -140.499s74.333 -45.5 133 -45.5c38.667 0 74.667 5.33301 108 16v122h-139v101h274v-319
c-22.667 -14.667 -54.167 -27.834 -94.5 -39.501s-90.166 -17.5 -149.499 -17.5z" />
    <glyph glyph-name="gcircumflex" unicode="&#x11d;" horiz-adv-x="563" 
d="M86 521l145 187h100l145 -187h-120l-75 104l-72 -104h-123zM255 -176c-23.333 0 -48 1.00488 -74 3.00488s-50.667 5 -74 9s-43.333 8.66699 -60 14v110c26.667 -8.66699 58.667 -15.334 96 -20.001s71.666 -7 102.999 -7c40.667 0 71.167 2.16699 91.5 6.5
s30.5 11.833 30.5 22.5c0 9.33301 -4 15.666 -12 18.999s-23.667 5 -47 5h-131c-42.667 0 -75.834 7.66699 -99.501 23s-35.5 37.666 -35.5 66.999c0 20 6.16699 39 18.5 57s30.5 31.333 54.5 40c-27.333 14 -48 31.667 -62 53s-21 48.333 -21 81
c0 61.333 19.833 106.166 59.5 134.499s97.834 42.5 174.501 42.5c16 0 33.833 -1.16699 53.5 -3.5s34.167 -4.5 43.5 -6.5h182l-4 -100h-69c16.667 -16.667 25 -41.334 25 -74.001c0 -46 -14.833 -83 -44.5 -111s-74.5 -42 -134.5 -42c-10 0 -19.833 0.5 -29.5 1.5
s-19.167 1.83301 -28.5 2.5c-17.333 -2 -32.166 -5.66699 -44.499 -11s-18.5 -13 -18.5 -23c0 -8 3.16699 -13.333 9.5 -16s15.833 -4 28.5 -4h121c48.667 0 86.5 -11.167 113.5 -33.5s40.5 -54.833 40.5 -97.5c0 -94.667 -85.333 -142 -256 -142zM268 236.005
c35.333 0 59.668 6.00098 73.001 18.001s20 32 20 60s-6.83301 48.333 -20.5 61s-37.834 19 -72.501 19c-32.667 0 -56.167 -6.16699 -70.5 -18.5s-21.5 -32.833 -21.5 -61.5c0 -26.667 6.66699 -46.334 20 -59.001s37.333 -19 72 -19z" />
    <glyph glyph-name="Gbreve" unicode="&#x11e;" horiz-adv-x="647" 
d="M372 688c-51.333 0 -93.001 15 -125.001 45s-48 72.333 -48 127h106c0 -22.667 5.16699 -42 15.5 -58s27.5 -24 51.5 -24c24.667 0 42.334 8 53.001 24s16 35.333 16 58h106c0 -54.667 -16.167 -97 -48.5 -127s-74.5 -45 -126.5 -45zM371.999 -10
c-111.333 0 -196.001 28.167 -254.001 84.5s-87 135.833 -87 238.5c0 107.333 29.667 191 89 251s146.666 90 261.999 90c39.333 0 74.833 -2.33301 106.5 -7s61.834 -11.667 90.501 -21v-138c-28.667 10.667 -58.5 18 -89.5 22s-62.833 6 -95.5 6
c-69.333 0 -119.833 -16.5 -151.5 -49.5s-47.5 -84.167 -47.5 -153.5c0 -63.333 15 -110.166 45 -140.499s74.333 -45.5 133 -45.5c38.667 0 74.667 5.33301 108 16v122h-139v101h274v-319c-22.667 -14.667 -54.167 -27.834 -94.5 -39.501s-90.166 -17.5 -149.499 -17.5z
" />
    <glyph glyph-name="gbreve" unicode="&#x11f;" horiz-adv-x="563" 
d="M277 522c-51.333 0 -93.001 15 -125.001 45s-48 72.333 -48 127h106c0 -22.667 5.16699 -42 15.5 -58s27.5 -24 51.5 -24c24.667 0 42.334 8 53.001 24s16 35.333 16 58h106c0 -54.667 -16.167 -97 -48.5 -127s-74.5 -45 -126.5 -45zM254.999 -176
c-23.333 0 -48 1.00488 -74 3.00488s-50.667 5 -74 9s-43.333 8.66699 -60 14v110c26.667 -8.66699 58.667 -15.334 96 -20.001s71.666 -7 102.999 -7c40.667 0 71.167 2.16699 91.5 6.5s30.5 11.833 30.5 22.5c0 9.33301 -4 15.666 -12 18.999s-23.667 5 -47 5h-131
c-42.667 0 -75.834 7.66699 -99.501 23s-35.5 37.666 -35.5 66.999c0 20 6.16699 39 18.5 57s30.5 31.333 54.5 40c-27.333 14 -48 31.667 -62 53s-21 48.333 -21 81c0 61.333 19.833 106.166 59.5 134.499s97.834 42.5 174.501 42.5c16 0 33.833 -1.16699 53.5 -3.5
s34.167 -4.5 43.5 -6.5h182l-4 -100h-69c16.667 -16.667 25 -41.334 25 -74.001c0 -46 -14.833 -83 -44.5 -111s-74.5 -42 -134.5 -42c-10 0 -19.833 0.5 -29.5 1.5s-19.167 1.83301 -28.5 2.5c-17.333 -2 -32.166 -5.66699 -44.499 -11s-18.5 -13 -18.5 -23
c0 -8 3.16699 -13.333 9.5 -16s15.833 -4 28.5 -4h121c48.667 0 86.5 -11.167 113.5 -33.5s40.5 -54.833 40.5 -97.5c0 -94.667 -85.333 -142 -256 -142zM267.999 236.005c35.333 0 59.668 6.00098 73.001 18.001s20 32 20 60s-6.83301 48.333 -20.5 61
s-37.834 19 -72.501 19c-32.667 0 -56.167 -6.16699 -70.5 -18.5s-21.5 -32.833 -21.5 -61.5c0 -26.667 6.66699 -46.334 20 -59.001s37.333 -19 72 -19z" />
    <glyph glyph-name="Gdotaccent" unicode="&#x120;" horiz-adv-x="647" 
d="M321 714v109h117v-109h-117zM372 -10c-111.333 0 -196.001 28.167 -254.001 84.5s-87 135.833 -87 238.5c0 107.333 29.667 191 89 251s146.666 90 261.999 90c39.333 0 74.833 -2.33301 106.5 -7s61.834 -11.667 90.501 -21v-138c-28.667 10.667 -58.5 18 -89.5 22
s-62.833 6 -95.5 6c-69.333 0 -119.833 -16.5 -151.5 -49.5s-47.5 -84.167 -47.5 -153.5c0 -63.333 15 -110.166 45 -140.499s74.333 -45.5 133 -45.5c38.667 0 74.667 5.33301 108 16v122h-139v101h274v-319c-22.667 -14.667 -54.167 -27.834 -94.5 -39.501
s-90.166 -17.5 -149.499 -17.5z" />
    <glyph glyph-name="gdotaccent" unicode="&#x121;" horiz-adv-x="563" 
d="M211 535v109h117v-109h-117zM255 -176c-23.333 0 -48 1.00488 -74 3.00488s-50.667 5 -74 9s-43.333 8.66699 -60 14v110c26.667 -8.66699 58.667 -15.334 96 -20.001s71.666 -7 102.999 -7c40.667 0 71.167 2.16699 91.5 6.5s30.5 11.833 30.5 22.5
c0 9.33301 -4 15.666 -12 18.999s-23.667 5 -47 5h-131c-42.667 0 -75.834 7.66699 -99.501 23s-35.5 37.666 -35.5 66.999c0 20 6.16699 39 18.5 57s30.5 31.333 54.5 40c-27.333 14 -48 31.667 -62 53s-21 48.333 -21 81c0 61.333 19.833 106.166 59.5 134.499
s97.834 42.5 174.501 42.5c16 0 33.833 -1.16699 53.5 -3.5s34.167 -4.5 43.5 -6.5h182l-4 -100h-69c16.667 -16.667 25 -41.334 25 -74.001c0 -46 -14.833 -83 -44.5 -111s-74.5 -42 -134.5 -42c-10 0 -19.833 0.5 -29.5 1.5s-19.167 1.83301 -28.5 2.5
c-17.333 -2 -32.166 -5.66699 -44.499 -11s-18.5 -13 -18.5 -23c0 -8 3.16699 -13.333 9.5 -16s15.833 -4 28.5 -4h121c48.667 0 86.5 -11.167 113.5 -33.5s40.5 -54.833 40.5 -97.5c0 -94.667 -85.333 -142 -256 -142zM268 236.005c35.333 0 59.668 6.00098 73.001 18.001
s20 32 20 60s-6.83301 48.333 -20.5 61s-37.834 19 -72.501 19c-32.667 0 -56.167 -6.16699 -70.5 -18.5s-21.5 -32.833 -21.5 -61.5c0 -26.667 6.66699 -46.334 20 -59.001s37.333 -19 72 -19z" />
    <glyph glyph-name="uni0122" unicode="&#x122;" horiz-adv-x="647" 
d="M372 -10c-111.333 0 -196.001 28.167 -254.001 84.5s-87 135.833 -87 238.5c0 107.333 29.667 191 89 251s146.666 90 261.999 90c39.333 0 74.833 -2.33301 106.5 -7s61.834 -11.667 90.501 -21v-138c-28.667 10.667 -58.5 18 -89.5 22s-62.833 6 -95.5 6
c-69.333 0 -119.833 -16.5 -151.5 -49.5s-47.5 -84.167 -47.5 -153.5c0 -63.333 15 -110.166 45 -140.499s74.333 -45.5 133 -45.5c38.667 0 74.667 5.33301 108 16v122h-139v101h274v-319c-22.667 -14.667 -54.167 -27.834 -94.5 -39.501s-90.166 -17.5 -149.499 -17.5z
M285.999 -250l33 213h129l-53 -213h-109z" />
    <glyph glyph-name="uni0123" unicode="&#x123;" horiz-adv-x="563" 
d="M208 522l53 213h109l-33 -213h-129zM255 -176c-23.333 0 -48 1.00488 -74 3.00488s-50.667 5 -74 9s-43.333 8.66699 -60 14v110c26.667 -8.66699 58.667 -15.334 96 -20.001s71.666 -7 102.999 -7c40.667 0 71.167 2.16699 91.5 6.5s30.5 11.833 30.5 22.5
c0 9.33301 -4 15.666 -12 18.999s-23.667 5 -47 5h-131c-42.667 0 -75.834 7.66699 -99.501 23s-35.5 37.666 -35.5 66.999c0 20 6.16699 39 18.5 57s30.5 31.333 54.5 40c-27.333 14 -48 31.667 -62 53s-21 48.333 -21 81c0 61.333 19.833 106.166 59.5 134.499
s97.834 42.5 174.501 42.5c16 0 33.833 -1.16699 53.5 -3.5s34.167 -4.5 43.5 -6.5h182l-4 -100h-69c16.667 -16.667 25 -41.334 25 -74.001c0 -46 -14.833 -83 -44.5 -111s-74.5 -42 -134.5 -42c-10 0 -19.833 0.5 -29.5 1.5s-19.167 1.83301 -28.5 2.5
c-17.333 -2 -32.166 -5.66699 -44.499 -11s-18.5 -13 -18.5 -23c0 -8 3.16699 -13.333 9.5 -16s15.833 -4 28.5 -4h121c48.667 0 86.5 -11.167 113.5 -33.5s40.5 -54.833 40.5 -97.5c0 -94.667 -85.333 -142 -256 -142zM268 236.005c35.333 0 59.668 6.00098 73.001 18.001
s20 32 20 60s-6.83301 48.333 -20.5 61s-37.834 19 -72.501 19c-32.667 0 -56.167 -6.16699 -70.5 -18.5s-21.5 -32.833 -21.5 -61.5c0 -26.667 6.66699 -46.334 20 -59.001s37.333 -19 72 -19z" />
    <glyph glyph-name="Hcircumflex" unicode="&#x124;" horiz-adv-x="676" 
d="M142 687l145 187h100l145 -187h-120l-75 104l-72 -104h-123zM51 0v644h161v-255h252v255h161v-644h-161v255h-252v-255h-161z" />
    <glyph glyph-name="hcircumflex" unicode="&#x125;" horiz-adv-x="595" 
d="M54 706l145 187h100l145 -187h-120l-75 104l-72 -104h-123zM51 0l-0.00195312 674.002h161v-235c18 13.333 40.333 24.166 67 32.499s55.334 12.5 86.001 12.5c63.333 0 109.833 -15 139.5 -45s44.5 -76 44.5 -138v-301h-161v290c0 27.333 -5.66699 46.666 -17 57.999
s-31.666 17 -60.999 17c-17.333 0 -35 -4 -53 -12s-33 -18 -45 -30v-323h-161z" />
    <glyph glyph-name="Hbar" unicode="&#x126;" horiz-adv-x="677" 
d="M51 0v454h-41v115h41v75h161v-75h252v75h161v-75h41v-115h-41v-454h-161v255h-252v-255h-161zM212 389h252v65h-252v-65z" />
    <glyph glyph-name="hbar" unicode="&#x127;" horiz-adv-x="595" 
d="M51 0l-0.000976562 523.002h-45v101h45v50h161v-50h123v-101h-123v-84c18 13.333 40.333 24.166 67 32.499s55.334 12.5 86.001 12.5c63.333 0 109.833 -15 139.5 -45s44.5 -76 44.5 -138v-301h-162v290c0 27.333 -5.5 46.666 -16.5 57.999s-31.167 17 -60.5 17
c-17.333 0 -35 -4 -53 -12s-33 -18 -45 -30v-323h-161z" />
    <glyph glyph-name="Itilde" unicode="&#x128;" horiz-adv-x="264" 
d="M222 705c-20.667 0 -40.834 3.5 -60.501 10.5l-57 20.5c-18.333 6.66699 -36.166 10 -53.499 10c-19.333 0 -36.833 -3.33301 -52.5 -10s-29.5 -16 -41.5 -28v107c9.33301 9.33301 22.166 17 38.499 23s33.833 9 52.5 9c21.333 0 41.333 -3.33301 60 -10l55 -20.5
c18 -7 36.667 -10.5 56 -10.5c20 0 37.333 3.5 52 10.5s26.334 16.5 35.001 28.5v-108c-6.66699 -8.66699 -17.5 -16.167 -32.5 -22.5s-32.167 -9.5 -51.5 -9.5zM51 0v644h161v-644h-161z" />
    <glyph glyph-name="itilde" unicode="&#x129;" horiz-adv-x="334" 
d="M257 538c-20.667 0 -40.834 3.5 -60.501 10.5l-57 20.5c-18.333 6.66699 -36.166 10 -53.499 10c-19.333 0 -36.833 -3.33301 -52.5 -10s-29.5 -16 -41.5 -28v107c9.33301 9.33301 22.166 17 38.499 23s33.833 9 52.5 9c21.333 0 41.333 -3.33301 60 -10l55 -20.5
c18 -7 36.667 -10.5 56 -10.5c20 0 37.333 3.5 52 10.5s26.334 16.5 35.001 28.5v-108c-6.66699 -8.66699 -17.5 -16.167 -32.5 -22.5s-32.167 -9.5 -51.5 -9.5zM121 0v355h-70l14 119h217v-474h-161z" />
    <glyph glyph-name="Imacron" unicode="&#x12a;" horiz-adv-x="264" 
d="M-27 723v97h318v-97h-318zM51 0v644h161v-644h-161z" />
    <glyph glyph-name="imacron" unicode="&#x12b;" horiz-adv-x="334" 
d="M9 574v97h318v-97h-318zM121 0v355h-70l14 119h217v-474h-161z" />
    <glyph glyph-name="Ibreve" unicode="&#x12c;" horiz-adv-x="264" 
d="M131 705c-51.333 0 -93.001 15 -125.001 45s-48 72.333 -48 127h106c0 -22.667 5.16699 -42 15.5 -58s27.5 -24 51.5 -24c24.667 0 42.334 8 53.001 24s16 35.333 16 58h106c0 -54.667 -16.167 -97 -48.5 -127s-74.5 -45 -126.5 -45zM50.999 0v644h161v-644h-161z" />
    <glyph glyph-name="ibreve" unicode="&#x12d;" horiz-adv-x="334" 
d="M170 522c-51.333 0 -93.001 15 -125.001 45s-48 72.333 -48 127h106c0 -22.667 5.16699 -42 15.5 -58s27.5 -24 51.5 -24c24.667 0 42.334 8 53.001 24s16 35.333 16 58h106c0 -54.667 -16.167 -97 -48.5 -127s-74.5 -45 -126.5 -45zM120.999 0v355h-70l14 119h217v-474
h-161z" />
    <glyph glyph-name="Iogonek" unicode="&#x12e;" horiz-adv-x="264" 
d="M51 0v644h161v-644h-22c-18.667 -14 -33.834 -29.167 -45.501 -45.5s-17.5 -33.5 -17.5 -51.5c0 -13.333 4 -23 12 -29s18.667 -9 32 -9c8.66699 0 17.667 1 27 3s17 4.66699 23 8v-81c-9.33301 -4 -22.666 -7.5 -39.999 -10.5s-35.333 -4.5 -54 -4.5
c-34 0 -63 7.5 -87 22.5s-36 38.833 -36 71.5c0 25.333 6.5 49 19.5 71s30.833 40.333 53.5 55h-26z" />
    <glyph glyph-name="iogonek" unicode="&#x12f;" horiz-adv-x="309" 
d="M83 549v121h175v-121h-175zM96 0v355h-70l14 119h217v-474h-22c-18.667 -14 -33.834 -29.167 -45.501 -45.5s-17.5 -33.5 -17.5 -51.5c0 -13.333 4 -23 12 -29s18.667 -9 32 -9c8.66699 0 17.667 1 27 3s17 4.66699 23 8v-81c-9.33301 -4 -22.666 -7.5 -39.999 -10.5
s-35.333 -4.5 -54 -4.5c-34 0 -63 7.5 -87 22.5s-36 38.833 -36 71.5c0 25.333 6.5 49 19.5 71s30.833 40.333 53.5 55h-26z" />
    <glyph glyph-name="Idotaccent" unicode="&#x130;" horiz-adv-x="263" 
d="M73 720v109h117v-109h-117zM51 0v644h161v-644h-161z" />
    <glyph glyph-name="dotlessi" unicode="&#x131;" horiz-adv-x="309" 
d="M96 0v355h-70l14 119h217v-474h-161z" />
    <glyph glyph-name="IJ" unicode="&#x132;" horiz-adv-x="696" 
d="M413 -10c-27.333 0 -53.499 1.83301 -78.499 5.5s-48.167 9.5 -69.5 17.5v135c16 -6.66699 34 -11.834 54 -15.501s40.333 -5.5 61 -5.5c39.333 0 67.166 7.83301 83.499 23.5s24.5 41.834 24.5 78.501v415h161v-445c0 -67.333 -20 -119 -60 -155s-98.667 -54 -176 -54z
M51.001 0v644h161v-644h-161z" />
    <glyph glyph-name="ij" unicode="&#x133;" horiz-adv-x="578" 
d="M83 549v121h175v-121h-175zM352 549v121h175v-121h-175zM354 -234c-47.333 0 -86.667 6.66797 -118 20.001v109c20 -6.66699 40 -10 60 -10c46.667 0 70 20 70 60v410h-70l14 119h217v-543c0 -48.667 -14 -88.334 -42 -119.001s-71.667 -46 -131 -46zM95.999 0.000976562
v355h-70l14 119h217v-474h-161z" />
    <glyph glyph-name="Jcircumflex" unicode="&#x134;" horiz-adv-x="441" 
d="M114 687l145 187h100l145 -187h-120l-75 104l-72 -104h-123zM159 -10c-27.333 0 -53.499 1.83301 -78.499 5.5s-48.167 9.5 -69.5 17.5v135c16 -6.66699 34 -11.834 54 -15.501s40.333 -5.5 61 -5.5c39.333 0 67.166 7.83301 83.499 23.5s24.5 41.834 24.5 78.501v415
h161v-445c0 -67.333 -20 -119 -60 -155s-98.667 -54 -176 -54z" />
    <glyph glyph-name="jcircumflex" unicode="&#x135;" horiz-adv-x="332" 
d="M-14 521l145 187h100l145 -187h-120l-75 104l-72 -104h-123zM108 -234c-47.333 0 -86.667 6.66797 -118 20.001v109c20 -6.66699 40 -10 60 -10c46.667 0 70 20 70 60v410h-70l14 119h217v-543c0 -48.667 -14 -88.334 -42 -119.001s-71.667 -46 -131 -46z" />
    <glyph glyph-name="uni0136" unicode="&#x136;" horiz-adv-x="663" 
d="M51 0v644h161v-250l222 250h184l-230 -263l244 -381h-172l-172 278l-76 -83v-195h-161zM239 -250l33 213h129l-53 -213h-109z" />
    <glyph glyph-name="uni0137" unicode="&#x137;" horiz-adv-x="592" 
d="M51 0v674h161v-352l155 152h183l-190 -197l201 -277h-171l-131 192l-47 -46v-146h-161zM187 -250l33 213h129l-53 -213h-109z" />
    <glyph glyph-name="kgreenlandic" unicode="&#x138;" horiz-adv-x="592" 
d="M51 0v474h161v-167l155 167h183l-190 -209l201 -265h-171l-130 180l-48 -50v-130h-161z" />
    <glyph glyph-name="Lacute" unicode="&#x139;" horiz-adv-x="527" 
d="M68 688l84 196h132l-92 -196h-124zM51 0v644h161v-520h304v-124h-465z" />
    <glyph glyph-name="lacute" unicode="&#x13a;" horiz-adv-x="308" 
d="M69 741l84 196h132l-92 -196h-124zM197 -10c-52 0 -89.333 11.333 -112 34s-34 59 -34 109v541h161v-525c0 -15.333 3.16699 -25.833 9.5 -31.5s15.833 -8.5 28.5 -8.5c18 0 34 2.33301 48 7v-109c-15.333 -6 -30.5 -10.333 -45.5 -13s-33.5 -4 -55.5 -4z" />
    <glyph glyph-name="uni013B" unicode="&#x13b;" horiz-adv-x="527" 
d="M51 0v644h161v-520h304v-124h-465zM202 -250l33 213h129l-53 -213h-109z" />
    <glyph glyph-name="uni013C" unicode="&#x13c;" horiz-adv-x="308" 
d="M197 -10c-52 0 -89.333 11.333 -112 34s-34 59 -34 109v541h161v-525c0 -15.333 3.16699 -25.833 9.5 -31.5s15.833 -8.5 28.5 -8.5c18 0 34 2.33301 48 7v-109c-15.333 -6 -30.5 -10.333 -45.5 -13s-33.5 -4 -55.5 -4zM96 -250l33 213h129l-53 -213h-109z" />
    <glyph glyph-name="Lcaron" unicode="&#x13d;" horiz-adv-x="527" 
d="M51 0v644h161v-520h304v-124h-465zM306 431l33 213h129l-53 -213h-109z" />
    <glyph glyph-name="lcaron" unicode="&#x13e;" horiz-adv-x="426" 
d="M197 -10c-52 0 -89.333 11.333 -112 34s-34 59 -34 109v541h161v-525c0 -15.333 3.16699 -25.833 9.5 -31.5s15.833 -8.5 28.5 -8.5c18 0 34 2.33301 48 7v-109c-15.333 -6 -30.5 -10.333 -45.5 -13s-33.5 -4 -55.5 -4zM264 461l33 213h129l-53 -213h-109z" />
    <glyph glyph-name="Ldot" unicode="&#x13f;" horiz-adv-x="527" 
d="M51 0v644h161v-520h304v-124h-465zM336 284v109h118v-109h-118z" />
    <glyph glyph-name="ldot" unicode="&#x140;" horiz-adv-x="407" 
d="M197 -10c-52 0 -89.333 11.333 -112 34s-34 59 -34 109v541h161v-525c0 -15.333 3.16699 -25.833 9.5 -31.5s15.833 -8.5 28.5 -8.5c18 0 34 2.33301 48 7v-109c-15.333 -6 -30.5 -10.333 -45.5 -13s-33.5 -4 -55.5 -4zM284 288v109h118v-109h-118z" />
    <glyph glyph-name="Lslash" unicode="&#x141;" horiz-adv-x="527" 
d="M51 0v249l-78 -34v115l78 34v280h161v-210l106 47v-115l-106 -47v-195h304v-124h-465z" />
    <glyph glyph-name="lslash" unicode="&#x142;" horiz-adv-x="308" 
d="M197 -10c-52 0 -89.333 11.333 -112 34s-34 59 -34 109v125l-82 -36v115l82 36v301h161v-231l84 37v-115l-84 -37v-179c0 -15.333 3.16699 -25.833 9.5 -31.5s15.833 -8.5 28.5 -8.5c18 0 34 2.33301 48 7v-109c-15.333 -6 -30.5 -10.333 -45.5 -13s-33.5 -4 -55.5 -4z
" />
    <glyph glyph-name="Nacute" unicode="&#x143;" horiz-adv-x="676" 
d="M259 688l84 196h132l-92 -196h-124zM51 0v644h138l274 -385v385h162v-644h-139l-274 384v-384h-161z" />
    <glyph glyph-name="nacute" unicode="&#x144;" horiz-adv-x="595" 
d="M213 522l84 196h132l-92 -196h-124zM51 0l0.000976562 474h150l5 -41c19.333 13.333 43.666 25.166 72.999 35.499s60.666 15.5 93.999 15.5c61.333 0 106 -14.667 134 -44s42 -74.666 42 -135.999v-304h-161v291c0 26.667 -5.66699 45.667 -17 57s-31.666 17 -60.999 17
c-17.333 0 -35 -4 -53 -12s-33 -18 -45 -30v-323h-161z" />
    <glyph glyph-name="uni0145" unicode="&#x145;" horiz-adv-x="676" 
d="M51 0v644h138l274 -385v385h162v-644h-139l-274 384v-384h-161zM250 -250l33 213h129l-53 -213h-109z" />
    <glyph glyph-name="uni0146" unicode="&#x146;" horiz-adv-x="595" 
d="M51 0l0.000976562 474h150l5 -41c19.333 13.333 43.666 25.166 72.999 35.499s60.666 15.5 93.999 15.5c61.333 0 106 -14.667 134 -44s42 -74.666 42 -135.999v-304h-161v291c0 26.667 -5.66699 45.667 -17 57s-31.666 17 -60.999 17c-17.333 0 -35 -4 -53 -12
s-33 -18 -45 -30v-323h-161zM213.001 -250l33 213h129l-53 -213h-109z" />
    <glyph glyph-name="Ncaron" unicode="&#x147;" horiz-adv-x="676" 
d="M288 687l-145 187h123l72 -104l75 104h120l-145 -187h-100zM51 0v644h138l274 -385v385h162v-644h-139l-274 384v-384h-161z" />
    <glyph glyph-name="ncaron" unicode="&#x148;" horiz-adv-x="595" 
d="M236 521l-145 187h123l72 -104l75 104h120l-145 -187h-100zM51 0l0.000976562 474h150l5 -41c19.333 13.333 43.666 25.166 72.999 35.499s60.666 15.5 93.999 15.5c61.333 0 106 -14.667 134 -44s42 -74.666 42 -135.999v-304h-161v291c0 26.667 -5.66699 45.667 -17 57
s-31.666 17 -60.999 17c-17.333 0 -35 -4 -53 -12s-33 -18 -45 -30v-323h-161z" />
    <glyph glyph-name="napostrophe" unicode="&#x149;" horiz-adv-x="691" 
d="M-20 431l33 213h129l-53 -213h-109zM147 0l0.000976562 474h150l5 -41c19.333 13.333 43.666 25.166 72.999 35.499s60.666 15.5 93.999 15.5c61.333 0 106 -14.667 134 -44s42 -74.666 42 -135.999v-304h-161v291c0 26.667 -5.66699 45.667 -17 57
s-31.666 17 -60.999 17c-17.333 0 -35 -4 -53 -12s-33 -18 -45 -30v-323h-161z" />
    <glyph glyph-name="Eng" unicode="&#x14a;" horiz-adv-x="676" 
d="M451 -234c-47.333 0 -86.668 6.66797 -118.001 20.001v107c10.667 -3.33301 21.167 -5.83301 31.5 -7.5s19.833 -2.5 28.5 -2.5c24.667 0 42.5 5.16699 53.5 15.5s16.5 25.833 16.5 46.5v87l-251 352v-384h-161v644h138l274 -385v385h162v-713
c0 -48.667 -14.167 -88.334 -42.5 -119.001s-72.166 -46 -131.499 -46z" />
    <glyph glyph-name="eng" unicode="&#x14b;" horiz-adv-x="595" 
d="M375 -234c-47.333 0 -86.666 6.66797 -117.999 20.001v107c10.667 -3.33301 21.167 -5.83301 31.5 -7.5s19.833 -2.5 28.5 -2.5c24.667 0 42.5 5.16699 53.5 15.5s16.5 25.833 16.5 46.5v346c0 26.667 -5.5 45.667 -16.5 57s-31.167 17 -60.5 17
c-17.333 0 -35 -4 -53 -12s-33 -18 -45 -30v-323h-161v474h150l5 -41c19.333 13.333 43.666 25.166 72.999 35.499s60.666 15.5 93.999 15.5c61.333 0 106 -14.667 134 -44s42 -74.666 42 -135.999v-373c0 -48.667 -14.167 -88.334 -42.5 -119.001s-72.166 -46 -131.499 -46
z" />
    <glyph glyph-name="Omacron" unicode="&#x14c;" horiz-adv-x="704" 
d="M190 724v97h318v-97h-318zM352 -10c-104.667 0 -184.334 26.667 -239.001 80s-82 136.333 -82 249c0 119.333 27.333 205 82 257s134.334 78 239.001 78s184.334 -26 239.001 -78s82 -137.667 82 -257c0 -112.667 -27.333 -195.667 -82 -249s-134.334 -80 -239.001 -80z
M352 127c54 0 93.5 15.5 118.5 46.5s37.5 79.5 37.5 145.5c0 72 -12.5 122.833 -37.5 152.5s-64.5 44.5 -118.5 44.5c-54.667 0 -94.5 -14.833 -119.5 -44.5s-37.5 -80.5 -37.5 -152.5c0 -66 12.5 -114.5 37.5 -145.5s64.833 -46.5 119.5 -46.5z" />
    <glyph glyph-name="omacron" unicode="&#x14d;" horiz-adv-x="597" 
d="M136 557v97h318v-97h-318zM298 -10c-91.333 0 -158.668 21.167 -202.001 63.5s-65 103.5 -65 183.5c0 79.333 21.833 140.333 65.5 183s110.834 64 201.501 64c91.333 0 158.833 -21.333 202.5 -64s65.5 -103.667 65.5 -183c0 -80 -21.667 -141.167 -65 -183.5
s-111 -63.5 -203 -63.5zM297.998 116c37.333 0 64 9.33301 80 28s24 49.667 24 93s-8 74.333 -24 93s-42.667 28 -80 28c-36.667 0 -63 -9.33301 -79 -28s-24 -49.667 -24 -93s8 -74.333 24 -93s42.333 -28 79 -28z" />
    <glyph glyph-name="Obreve" unicode="&#x14e;" horiz-adv-x="704" 
d="M351 688c-51.333 0 -93.001 15 -125.001 45s-48 72.333 -48 127h106c0 -22.667 5.16699 -42 15.5 -58s27.5 -24 51.5 -24c24.667 0 42.334 8 53.001 24s16 35.333 16 58h106c0 -54.667 -16.167 -97 -48.5 -127s-74.5 -45 -126.5 -45zM351.999 -10
c-104.667 0 -184.334 26.667 -239.001 80s-82 136.333 -82 249c0 119.333 27.333 205 82 257s134.334 78 239.001 78s184.334 -26 239.001 -78s82 -137.667 82 -257c0 -112.667 -27.333 -195.667 -82 -249s-134.334 -80 -239.001 -80zM351.999 127
c54 0 93.5 15.5 118.5 46.5s37.5 79.5 37.5 145.5c0 72 -12.5 122.833 -37.5 152.5s-64.5 44.5 -118.5 44.5c-54.667 0 -94.5 -14.833 -119.5 -44.5s-37.5 -80.5 -37.5 -152.5c0 -66 12.5 -114.5 37.5 -145.5s64.833 -46.5 119.5 -46.5z" />
    <glyph glyph-name="obreve" unicode="&#x14f;" horiz-adv-x="597" 
d="M298 522c-51.333 0 -93.001 15 -125.001 45s-48 72.333 -48 127h106c0 -22.667 5.16699 -42 15.5 -58s27.5 -24 51.5 -24c24.667 0 42.334 8 53.001 24s16 35.333 16 58h106c0 -54.667 -16.167 -97 -48.5 -127s-74.5 -45 -126.5 -45zM297.999 -10
c-91.333 0 -158.668 21.167 -202.001 63.5s-65 103.5 -65 183.5c0 79.333 21.833 140.333 65.5 183s110.834 64 201.501 64c91.333 0 158.833 -21.333 202.5 -64s65.5 -103.667 65.5 -183c0 -80 -21.667 -141.167 -65 -183.5s-111 -63.5 -203 -63.5zM297.997 116
c37.333 0 64 9.33301 80 28s24 49.667 24 93s-8 74.333 -24 93s-42.667 28 -80 28c-36.667 0 -63 -9.33301 -79 -28s-24 -49.667 -24 -93s8 -74.333 24 -93s42.333 -28 79 -28z" />
    <glyph glyph-name="Ohungarumlaut" unicode="&#x150;" horiz-adv-x="704" 
d="M148 688l82 180h139l-97 -180h-124zM379 688l82 180h139l-97 -180h-124zM352 -10c-104.667 0 -184.334 26.667 -239.001 80s-82 136.333 -82 249c0 119.333 27.333 205 82 257s134.334 78 239.001 78s184.334 -26 239.001 -78s82 -137.667 82 -257
c0 -112.667 -27.333 -195.667 -82 -249s-134.334 -80 -239.001 -80zM352 127c54 0 93.5 15.5 118.5 46.5s37.5 79.5 37.5 145.5c0 72 -12.5 122.833 -37.5 152.5s-64.5 44.5 -118.5 44.5c-54.667 0 -94.5 -14.833 -119.5 -44.5s-37.5 -80.5 -37.5 -152.5
c0 -66 12.5 -114.5 37.5 -145.5s64.833 -46.5 119.5 -46.5z" />
    <glyph glyph-name="ohungarumlaut" unicode="&#x151;" horiz-adv-x="597" 
d="M102 521l82 180h139l-97 -180h-124zM333 521l82 180h139l-97 -180h-124zM298 -10c-91.333 0 -158.668 21.167 -202.001 63.5s-65 103.5 -65 183.5c0 79.333 21.833 140.333 65.5 183s110.834 64 201.501 64c91.333 0 158.833 -21.333 202.5 -64s65.5 -103.667 65.5 -183
c0 -80 -21.667 -141.167 -65 -183.5s-111 -63.5 -203 -63.5zM297.998 116c37.333 0 64 9.33301 80 28s24 49.667 24 93s-8 74.333 -24 93s-42.667 28 -80 28c-36.667 0 -63 -9.33301 -79 -28s-24 -49.667 -24 -93s8 -74.333 24 -93s42.333 -28 79 -28z" />
    <glyph glyph-name="OE" unicode="&#x152;" horiz-adv-x="1015" 
d="M352 -10c-104.667 0 -184.334 26.667 -239.001 80s-82 136.333 -82 249c0 119.333 27.333 205 82 257s134.334 78 239.001 78c61.333 0 113.666 -8.66699 156.999 -26v16h475v-124h-314v-135h277v-126h-277v-1v-134h314v-124h-475v16
c-43.333 -17.333 -95.666 -26 -156.999 -26zM352 127c54 0 93.5 15.5 118.5 46.5s37.5 79.5 37.5 145.5c0 72 -12.5 122.833 -37.5 152.5s-64.5 44.5 -118.5 44.5c-54.667 0 -94.5 -14.833 -119.5 -44.5s-37.5 -80.5 -37.5 -152.5c0 -66 12.5 -114.5 37.5 -145.5
s64.833 -46.5 119.5 -46.5z" />
    <glyph glyph-name="oe" unicode="&#x153;" horiz-adv-x="931" 
d="M298 -10c-91.333 0 -158.668 21.166 -202.001 63.499s-65 103.5 -65 183.5c0 79.333 21.833 140.333 65.5 183s110.834 64 201.501 64c83.333 0 147.333 -18.333 192 -55c20.667 18 45.334 31.667 74.001 41s61.667 14 99 14c75.333 0 133.666 -19.333 174.999 -58
s62 -90.667 62 -156v-85h-336c7.33301 -31.333 24.5 -53.166 51.5 -65.499s63.833 -18.5 110.5 -18.5c26 0 52.5 2.33301 79.5 7s49.5 10.667 67.5 18v-105c-22.667 -10.667 -49.667 -18.5 -81 -23.5s-65.666 -7.5 -102.999 -7.5c-82 0 -146.667 19.333 -194 58
c-44.667 -38.667 -110.334 -58 -197.001 -58zM563.998 277.999h196v21c0 23.333 -7 41.833 -21 55.5s-37.667 20.5 -71 20.5c-38.667 0 -65.667 -7.83301 -81 -23.5s-23 -40.167 -23 -73.5zM297.998 115.999c37.333 0 64 9.33301 80 28s24 49.667 24 93s-8 74.333 -24 93
s-42.667 28 -80 28c-36.667 0 -63 -9.33301 -79 -28s-24 -49.667 -24 -93s8 -74.333 24 -93s42.333 -28 79 -28z" />
    <glyph glyph-name="Racute" unicode="&#x154;" horiz-adv-x="626" 
d="M207 688l84 196h132l-92 -196h-124zM51 0l-0.00195312 644h322c76 0 132 -20 168 -60s54 -93.667 54 -161c0 -43.333 -11 -81.333 -33 -114s-52 -57 -90 -73c9.33301 -7.33301 16.833 -15.5 22.5 -24.5s11.834 -21.5 18.501 -37.5l76 -174h-168l-72 164
c-6 14 -13.667 24.167 -23 30.5s-22.666 9.5 -39.999 9.5h-74v-204h-161zM211.998 328h119c31.333 0 55.833 7.83301 73.5 23.5s26.5 39.5 26.5 71.5c0 64.667 -31 97 -93 97h-126v-192z" />
    <glyph glyph-name="racute" unicode="&#x155;" horiz-adv-x="389" 
d="M81 522l84 196h132l-92 -196h-124zM51 0l-0.00195312 474h153l5 -44c20.667 12.667 46.334 24.167 77.001 34.5s61.334 16.833 92.001 19.5v-121c-17.333 -2 -36.5 -5.16699 -57.5 -9.5s-41 -9.5 -60 -15.5s-35.167 -12.333 -48.5 -19v-319h-161z" />
    <glyph glyph-name="uni0156" unicode="&#x156;" horiz-adv-x="626" 
d="M51 0l-0.00195312 644h322c76 0 132 -20 168 -60s54 -93.667 54 -161c0 -43.333 -11 -81.333 -33 -114s-52 -57 -90 -73c9.33301 -7.33301 16.833 -15.5 22.5 -24.5s11.834 -21.5 18.501 -37.5l76 -174h-168l-72 164c-6 14 -13.667 24.167 -23 30.5
s-22.666 9.5 -39.999 9.5h-74v-204h-161zM211.998 328h119c31.333 0 55.833 7.83301 73.5 23.5s26.5 39.5 26.5 71.5c0 64.667 -31 97 -93 97h-126v-192zM206.998 -250l33 213h129l-53 -213h-109z" />
    <glyph glyph-name="uni0157" unicode="&#x157;" horiz-adv-x="389" 
d="M51 0l-0.00195312 474h153l5 -44c20.667 12.667 46.334 24.167 77.001 34.5s61.334 16.833 92.001 19.5v-121c-17.333 -2 -36.5 -5.16699 -57.5 -9.5s-41 -9.5 -60 -15.5s-35.167 -12.333 -48.5 -19v-319h-161zM33.998 -250l33 213h129l-53 -213h-109z" />
    <glyph glyph-name="Rcaron" unicode="&#x158;" horiz-adv-x="626" 
d="M233 688l-145 187h123l72 -104l75 104h120l-145 -187h-100zM51 0l-0.00195312 644h322c76 0 132 -20 168 -60s54 -93.667 54 -161c0 -43.333 -11 -81.333 -33 -114s-52 -57 -90 -73c9.33301 -7.33301 16.833 -15.5 22.5 -24.5s11.834 -21.5 18.501 -37.5l76 -174h-168
l-72 164c-6 14 -13.667 24.167 -23 30.5s-22.666 9.5 -39.999 9.5h-74v-204h-161zM211.998 328h119c31.333 0 55.833 7.83301 73.5 23.5s26.5 39.5 26.5 71.5c0 64.667 -31 97 -93 97h-126v-192z" />
    <glyph glyph-name="rcaron" unicode="&#x159;" horiz-adv-x="389" 
d="M158 521l-145 187h123l72 -104l75 104h120l-145 -187h-100zM51 0l-0.00195312 474h153l5 -44c20.667 12.667 46.334 24.167 77.001 34.5s61.334 16.833 92.001 19.5v-121c-17.333 -2 -36.5 -5.16699 -57.5 -9.5s-41 -9.5 -60 -15.5s-35.167 -12.333 -48.5 -19v-319h-161z
" />
    <glyph glyph-name="Sacute" unicode="&#x15a;" horiz-adv-x="555" 
d="M202 689l84 196h132l-92 -196h-124zM256 -10c-42.667 0 -82.498 3.16992 -119.498 9.50293s-68.833 15.5 -95.5 27.5v137c29.333 -12.667 61.833 -23 97.5 -31s69.5 -12 101.5 -12c40 0 69.833 3.66699 89.5 11s29.5 23.333 29.5 48c0 16.667 -4.83301 30 -14.5 40
s-25.334 18.833 -47.001 26.5s-51.167 16.834 -88.5 27.501c-44 13.333 -79 28.166 -105 44.499s-44.667 36.166 -56 59.499s-17 52 -17 86c0 61.333 22 108.333 66 141s109 49 195 49c37.333 0 73.666 -2.83301 108.999 -8.5s64 -12.167 86 -19.5v-138
c-28.667 11.333 -57.5 19.666 -86.5 24.999s-57.167 8 -84.5 8c-36 0 -65.167 -3.33301 -87.5 -10s-33.5 -22 -33.5 -46c0 -14 4 -25.167 12 -33.5s21.833 -15.833 41.5 -22.5s46.5 -14.667 80.5 -24c52.667 -14 93 -30.833 121 -50.5s47.333 -42.334 58 -68.001
s16 -54.5 16 -86.5c0 -56.667 -22 -102.5 -66 -137.5s-111.333 -52.5 -202 -52.5z" />
    <glyph glyph-name="sacute" unicode="&#x15b;" horiz-adv-x="479" 
d="M162 522l84 196h132l-92 -196h-124zM227 -10c-38 0 -74.0029 2.66602 -108.003 7.99902s-61 12 -81 20v123c23.333 -10 50.333 -17.667 81 -23s58 -8 82 -8c28.667 0 49.5 1.33301 62.5 4s19.5 10 19.5 22c0 13.333 -10.667 23.333 -32 30s-50.666 16.334 -87.999 29.001
c-43.333 15.333 -76.166 33.166 -98.499 53.499s-33.5 50.5 -33.5 90.5c0 46.667 17.5 82.5 52.5 107.5s90.833 37.5 167.5 37.5c30 0 59.667 -2.33301 89 -7s53.333 -10 72 -16v-121c-18.667 8.66699 -40 15 -64 19s-45.667 6 -65 6c-24.667 0 -45.5 -1.5 -62.5 -4.5
s-25.5 -10.167 -25.5 -21.5c0 -12.667 9.33301 -21.5 28 -26.5s45.667 -13.167 81 -24.5c37.333 -11.333 66.333 -23.5 87 -36.5s35.334 -28.5 44.001 -46.5s13 -40.667 13 -68c0 -47.333 -18.667 -83.666 -56 -108.999s-92.333 -38 -165 -38z" />
    <glyph glyph-name="Scircumflex" unicode="&#x15c;" horiz-adv-x="555" 
d="M71 689l145 187h100l145 -187h-120l-75 104l-72 -104h-123zM256 -10c-42.667 0 -82.498 3.16992 -119.498 9.50293s-68.833 15.5 -95.5 27.5v137c29.333 -12.667 61.833 -23 97.5 -31s69.5 -12 101.5 -12c40 0 69.833 3.66699 89.5 11s29.5 23.333 29.5 48
c0 16.667 -4.83301 30 -14.5 40s-25.334 18.833 -47.001 26.5s-51.167 16.834 -88.5 27.501c-44 13.333 -79 28.166 -105 44.499s-44.667 36.166 -56 59.499s-17 52 -17 86c0 61.333 22 108.333 66 141s109 49 195 49c37.333 0 73.666 -2.83301 108.999 -8.5
s64 -12.167 86 -19.5v-138c-28.667 11.333 -57.5 19.666 -86.5 24.999s-57.167 8 -84.5 8c-36 0 -65.167 -3.33301 -87.5 -10s-33.5 -22 -33.5 -46c0 -14 4 -25.167 12 -33.5s21.833 -15.833 41.5 -22.5s46.5 -14.667 80.5 -24c52.667 -14 93 -30.833 121 -50.5
s47.333 -42.334 58 -68.001s16 -54.5 16 -86.5c0 -56.667 -22 -102.5 -66 -137.5s-111.333 -52.5 -202 -52.5z" />
    <glyph glyph-name="scircumflex" unicode="&#x15d;" horiz-adv-x="479" 
d="M42 522l145 187h100l145 -187h-120l-75 104l-72 -104h-123zM227 -10c-38 0 -74.0029 2.66602 -108.003 7.99902s-61 12 -81 20v123c23.333 -10 50.333 -17.667 81 -23s58 -8 82 -8c28.667 0 49.5 1.33301 62.5 4s19.5 10 19.5 22c0 13.333 -10.667 23.333 -32 30
s-50.666 16.334 -87.999 29.001c-43.333 15.333 -76.166 33.166 -98.499 53.499s-33.5 50.5 -33.5 90.5c0 46.667 17.5 82.5 52.5 107.5s90.833 37.5 167.5 37.5c30 0 59.667 -2.33301 89 -7s53.333 -10 72 -16v-121c-18.667 8.66699 -40 15 -64 19s-45.667 6 -65 6
c-24.667 0 -45.5 -1.5 -62.5 -4.5s-25.5 -10.167 -25.5 -21.5c0 -12.667 9.33301 -21.5 28 -26.5s45.667 -13.167 81 -24.5c37.333 -11.333 66.333 -23.5 87 -36.5s35.334 -28.5 44.001 -46.5s13 -40.667 13 -68c0 -47.333 -18.667 -83.666 -56 -108.999
s-92.333 -38 -165 -38z" />
    <glyph glyph-name="Scedilla" unicode="&#x15e;" horiz-adv-x="555" 
d="M253 -240c-11.333 0 -25.4971 0.835938 -42.4971 2.50293s-29.167 3.5 -36.5 5.5v71c19.333 -5.33301 39.333 -8 60 -8c27.333 0 46.833 2.16699 58.5 6.5s17.5 13.833 17.5 28.5c0 15.333 -6 24.833 -18 28.5s-27.667 5.5 -47 5.5h-54l26 91
c-34.667 1.33301 -67 5.16602 -97 11.499s-56.333 14.5 -79 24.5v137c29.333 -12.667 61.833 -23 97.5 -31s69.5 -12 101.5 -12c40 0 69.833 3.66699 89.5 11s29.5 23.333 29.5 48c0 16.667 -4.83301 30 -14.5 40s-25.334 18.833 -47.001 26.5s-51.167 16.834 -88.5 27.501
c-44 13.333 -79 28.166 -105 44.499s-44.667 36.166 -56 59.499s-17 52 -17 86c0 61.333 22 108.333 66 141s109 49 195 49c37.333 0 73.666 -2.83301 108.999 -8.5s64 -12.167 86 -19.5v-138c-28.667 11.333 -57.5 19.666 -86.5 24.999s-57.167 8 -84.5 8
c-36 0 -65.167 -3.33301 -87.5 -10s-33.5 -22 -33.5 -46c0 -14 4 -25.167 12 -33.5s21.833 -15.833 41.5 -22.5s46.5 -14.667 80.5 -24c52.667 -14 93 -30.833 121 -50.5s47.333 -42.334 58 -68.001s16 -54.5 16 -86.5c0 -50.667 -17.333 -92.667 -52 -126
s-87.334 -53.666 -158.001 -60.999l-13 -36c37.333 0 64.833 -8.5 82.5 -25.5s26.5 -39.5 26.5 -67.5c0 -32.667 -12.833 -58.167 -38.5 -76.5s-65.167 -27.5 -118.5 -27.5z" />
    <glyph glyph-name="scedilla" unicode="&#x15f;" horiz-adv-x="479" 
d="M218 -240c-11.333 0 -25.5039 0.832031 -42.5039 2.49902s-29.167 3.5 -36.5 5.5v71c19.333 -5.33301 39.333 -8 60 -8c27.333 0 46.833 2.16699 58.5 6.5s17.5 13.833 17.5 28.5c0 15.333 -6 24.833 -18 28.5s-27.667 5.5 -47 5.5h-54l26 91
c-29.333 2 -56.666 5.33301 -81.999 10s-46 10.334 -62 17.001v123c23.333 -10 50.333 -17.667 81 -23s58 -8 82 -8c28.667 0 49.5 1.33301 62.5 4s19.5 10 19.5 22c0 13.333 -10.667 23.333 -32 30s-50.666 16.334 -87.999 29.001
c-43.333 15.333 -76.166 33.166 -98.499 53.499s-33.5 50.5 -33.5 90.5c0 46.667 17.5 82.5 52.5 107.5s90.833 37.5 167.5 37.5c30 0 59.667 -2.33301 89 -7s53.333 -10 72 -16v-121c-18.667 8.66699 -40 15 -64 19s-45.667 6 -65 6c-24.667 0 -45.5 -1.5 -62.5 -4.5
s-25.5 -10.167 -25.5 -21.5c0 -12.667 9.33301 -21.5 28 -26.5s45.667 -13.167 81 -24.5c37.333 -11.333 66.333 -23.5 87 -36.5s35.334 -28.5 44.001 -46.5s13 -40.667 13 -68c0 -84.667 -56.667 -133 -170 -145l-12 -35c37.333 0 64.833 -8.5 82.5 -25.5
s26.5 -39.5 26.5 -67.5c0 -32.667 -12.833 -58.167 -38.5 -76.5s-65.167 -27.5 -118.5 -27.5z" />
    <glyph glyph-name="Scaron" unicode="&#x160;" horiz-adv-x="555" 
d="M226 688l-145 187h123l72 -104l75 104h120l-145 -187h-100zM256 -10c-42.667 0 -82.498 3.16992 -119.498 9.50293s-68.833 15.5 -95.5 27.5v137c29.333 -12.667 61.833 -23 97.5 -31s69.5 -12 101.5 -12c40 0 69.833 3.66699 89.5 11s29.5 23.333 29.5 48
c0 16.667 -4.83301 30 -14.5 40s-25.334 18.833 -47.001 26.5s-51.167 16.834 -88.5 27.501c-44 13.333 -79 28.166 -105 44.499s-44.667 36.166 -56 59.499s-17 52 -17 86c0 61.333 22 108.333 66 141s109 49 195 49c37.333 0 73.666 -2.83301 108.999 -8.5
s64 -12.167 86 -19.5v-138c-28.667 11.333 -57.5 19.666 -86.5 24.999s-57.167 8 -84.5 8c-36 0 -65.167 -3.33301 -87.5 -10s-33.5 -22 -33.5 -46c0 -14 4 -25.167 12 -33.5s21.833 -15.833 41.5 -22.5s46.5 -14.667 80.5 -24c52.667 -14 93 -30.833 121 -50.5
s47.333 -42.334 58 -68.001s16 -54.5 16 -86.5c0 -56.667 -22 -102.5 -66 -137.5s-111.333 -52.5 -202 -52.5z" />
    <glyph glyph-name="scaron" unicode="&#x161;" horiz-adv-x="479" 
d="M196 521l-145 187h123l72 -104l75 104h120l-145 -187h-100zM227 -10c-38 0 -74.0029 2.66602 -108.003 7.99902s-61 12 -81 20v123c23.333 -10 50.333 -17.667 81 -23s58 -8 82 -8c28.667 0 49.5 1.33301 62.5 4s19.5 10 19.5 22c0 13.333 -10.667 23.333 -32 30
s-50.666 16.334 -87.999 29.001c-43.333 15.333 -76.166 33.166 -98.499 53.499s-33.5 50.5 -33.5 90.5c0 46.667 17.5 82.5 52.5 107.5s90.833 37.5 167.5 37.5c30 0 59.667 -2.33301 89 -7s53.333 -10 72 -16v-121c-18.667 8.66699 -40 15 -64 19s-45.667 6 -65 6
c-24.667 0 -45.5 -1.5 -62.5 -4.5s-25.5 -10.167 -25.5 -21.5c0 -12.667 9.33301 -21.5 28 -26.5s45.667 -13.167 81 -24.5c37.333 -11.333 66.333 -23.5 87 -36.5s35.334 -28.5 44.001 -46.5s13 -40.667 13 -68c0 -47.333 -18.667 -83.666 -56 -108.999
s-92.333 -38 -165 -38z" />
    <glyph glyph-name="uni0162" unicode="&#x162;" horiz-adv-x="561" 
d="M200 0v520h-189v124h539v-124h-189v-520h-34l-15 -43c37.333 0 64.833 -8.5 82.5 -25.5s26.5 -39.5 26.5 -67.5c0 -32.667 -12.833 -58.167 -38.5 -76.5s-65.167 -27.5 -118.5 -27.5c-11.333 0 -25.5 0.833008 -42.5 2.5s-29.167 3.5 -36.5 5.5v71
c19.333 -5.33301 39.333 -8 60 -8c27.333 0 46.833 2.16699 58.5 6.5s17.5 13.833 17.5 28.5c0 15.333 -6 24.833 -18 28.5s-27.667 5.5 -47 5.5h-54l29 100h-31z" />
    <glyph glyph-name="uni0163" unicode="&#x163;" horiz-adv-x="389" 
d="M229 -240c-11.333 0 -25.5 0.833008 -42.5 2.5s-29.167 3.5 -36.5 5.5v71c19.333 -5.33301 39.333 -8 60 -8c27.333 0 46.833 2.16699 58.5 6.5s17.5 13.833 17.5 28.5c0 15.333 -6 24.833 -18 28.5s-27.667 5.5 -47 5.5h-54l27 95c-40.667 8 -70.667 26.333 -90 55
s-29 65 -29 109v193h-64v122h64v99l161 43v-142h115l-7 -122h-108v-182c0 -22.667 5.66699 -38.5 17 -47.5s28.333 -13.5 51 -13.5c19.333 0 39 3.33301 59 10v-109c-22 -9.33301 -46.667 -15.333 -74 -18l-12 -35c37.333 0 64.833 -8.5 82.5 -25.5s26.5 -39.5 26.5 -67.5
c0 -32.667 -12.833 -58.167 -38.5 -76.5s-65.167 -27.5 -118.5 -27.5z" />
    <glyph glyph-name="Tcaron" unicode="&#x164;" horiz-adv-x="561" 
d="M230 688l-145 187h123l72 -104l75 104h120l-145 -187h-100zM200 0v520h-189v124h539v-124h-189v-520h-161z" />
    <glyph glyph-name="tcaron" unicode="&#x165;" horiz-adv-x="385" 
d="M328 558l33 213h129l-53 -213h-109zM246 -10c-58.667 0 -101.833 15 -129.5 45s-41.5 71.333 -41.5 124v193h-64v122h64v99l161 43v-142h115l-7 -122h-108v-182c0 -22.667 5.66699 -38.5 17 -47.5s28.333 -13.5 51 -13.5c19.333 0 39 3.33301 59 10v-109
c-31.333 -13.333 -70.333 -20 -117 -20z" />
    <glyph glyph-name="Tbar" unicode="&#x166;" horiz-adv-x="561" 
d="M200 0v279h-109v113h109v128h-189v124h539v-124h-189v-128h106v-113h-106v-279h-161z" />
    <glyph glyph-name="tbar" unicode="&#x167;" horiz-adv-x="374" 
d="M246 -10c-58.667 0 -101.833 15 -129.5 45s-41.5 71.333 -41.5 124v32h-64v99h64v62h-64v122h64v99l162 43v-142h114l-7 -122h-107v-62h115v-99h-115v-21c0 -22.667 5.5 -38.5 16.5 -47.5s27.833 -13.5 50.5 -13.5c19.333 0 39 3.33301 59 10v-109
c-31.333 -13.333 -70.333 -20 -117 -20z" />
    <glyph glyph-name="Utilde" unicode="&#x168;" horiz-adv-x="684" 
d="M432 698c-20.667 0 -40.834 3.5 -60.501 10.5l-57 20.5c-18.333 6.66699 -36.166 10 -53.499 10c-19.333 0 -36.833 -3.33301 -52.5 -10s-29.5 -16 -41.5 -28v107c9.33301 9.33301 22.166 17 38.499 23s33.833 9 52.5 9c21.333 0 41.333 -3.33301 60 -10l55 -20.5
c18 -7 36.667 -10.5 56 -10.5c20 0 37.333 3.5 52 10.5s26.334 16.5 35.001 28.5v-108c-6.66699 -8.66699 -17.5 -16.167 -32.5 -22.5s-32.167 -9.5 -51.5 -9.5zM342 -10c-60 0 -112.167 9.66699 -156.5 29s-78.666 48 -102.999 86s-36.5 84.667 -36.5 140v399h161v-384
c0 -44.667 11.667 -78 35 -100s56.666 -33 99.999 -33s76.666 11 99.999 33s35 55.333 35 100v384h161v-399c0 -55.333 -12.167 -102 -36.5 -140s-58.666 -66.667 -102.999 -86s-96.5 -29 -156.5 -29z" />
    <glyph glyph-name="utilde" unicode="&#x169;" horiz-adv-x="595" 
d="M388 532c-20.667 0 -40.834 3.5 -60.501 10.5l-57 20.5c-18.333 6.66699 -36.166 10 -53.499 10c-19.333 0 -36.833 -3.33301 -52.5 -10s-29.5 -16 -41.5 -28v107c9.33301 9.33301 22.166 17 38.499 23s33.833 9 52.5 9c21.333 0 41.333 -3.33301 60 -10l55 -20.5
c18 -7 36.667 -10.5 56 -10.5c20 0 37.333 3.5 52 10.5s26.334 16.5 35.001 28.5v-108c-6.66699 -8.66699 -17.5 -16.167 -32.5 -22.5s-32.167 -9.5 -51.5 -9.5zM224 -10c-56 0 -99.666 15.832 -130.999 47.499s-47 77.834 -47 138.501v298h161v-289
c0 -26.667 6.5 -46.167 19.5 -58.5s32.5 -18.5 58.5 -18.5c19.333 0 37.666 4 54.999 12s31.666 18 42.999 30v324h161v-474h-150l-5 40c-19.333 -14.667 -42.666 -26.667 -69.999 -36s-59 -14 -95 -14z" />
    <glyph glyph-name="Umacron" unicode="&#x16a;" horiz-adv-x="684" 
d="M182 723v97h318v-97h-318zM342 -10c-60 0 -112.167 9.66699 -156.5 29s-78.666 48 -102.999 86s-36.5 84.667 -36.5 140v399h161v-384c0 -44.667 11.667 -78 35 -100s56.666 -33 99.999 -33s76.666 11 99.999 33s35 55.333 35 100v384h161v-399
c0 -55.333 -12.167 -102 -36.5 -140s-58.666 -66.667 -102.999 -86s-96.5 -29 -156.5 -29z" />
    <glyph glyph-name="umacron" unicode="&#x16b;" horiz-adv-x="595" 
d="M138 557v97h318v-97h-318zM224 -10c-56 0 -99.666 15.832 -130.999 47.499s-47 77.834 -47 138.501v298h161v-289c0 -26.667 6.5 -46.167 19.5 -58.5s32.5 -18.5 58.5 -18.5c19.333 0 37.666 4 54.999 12s31.666 18 42.999 30v324h161v-474h-150l-5 40
c-19.333 -14.667 -42.666 -26.667 -69.999 -36s-59 -14 -95 -14z" />
    <glyph glyph-name="Ubreve" unicode="&#x16c;" horiz-adv-x="684" 
d="M338 688c-51.333 0 -93.001 15 -125.001 45s-48 72.333 -48 127h106c0 -22.667 5.16699 -42 15.5 -58s27.5 -24 51.5 -24c24.667 0 42.334 8 53.001 24s16 35.333 16 58h106c0 -54.667 -16.167 -97 -48.5 -127s-74.5 -45 -126.5 -45zM341.999 -10
c-60 0 -112.167 9.66699 -156.5 29s-78.666 48 -102.999 86s-36.5 84.667 -36.5 140v399h161v-384c0 -44.667 11.667 -78 35 -100s56.666 -33 99.999 -33s76.666 11 99.999 33s35 55.333 35 100v384h161v-399c0 -55.333 -12.167 -102 -36.5 -140
s-58.666 -66.667 -102.999 -86s-96.5 -29 -156.5 -29z" />
    <glyph glyph-name="ubreve" unicode="&#x16d;" horiz-adv-x="595" 
d="M299 522c-51.333 0 -93.001 15 -125.001 45s-48 72.333 -48 127h106c0 -22.667 5.16699 -42 15.5 -58s27.5 -24 51.5 -24c24.667 0 42.334 8 53.001 24s16 35.333 16 58h106c0 -54.667 -16.167 -97 -48.5 -127s-74.5 -45 -126.5 -45zM223.999 -10
c-56 0 -99.666 15.832 -130.999 47.499s-47 77.834 -47 138.501v298h161v-289c0 -26.667 6.5 -46.167 19.5 -58.5s32.5 -18.5 58.5 -18.5c19.333 0 37.666 4 54.999 12s31.666 18 42.999 30v324h161v-474h-150l-5 40c-19.333 -14.667 -42.666 -26.667 -69.999 -36
s-59 -14 -95 -14z" />
    <glyph glyph-name="Uring" unicode="&#x16e;" horiz-adv-x="684" 
d="M341 687c-40.667 0 -72.667 12.167 -96 36.5s-35 53.833 -35 88.5c0 35.333 11.667 65.166 35 89.499s55.333 36.5 96 36.5c42 0 74.5 -12.167 97.5 -36.5s34.5 -54.166 34.5 -89.499c0 -34.667 -11.5 -64.167 -34.5 -88.5s-55.5 -36.5 -97.5 -36.5zM341 757
c18.667 0 33 5.33301 43 16s15 23.667 15 39s-5 28.5 -15 39.5s-24.333 16.5 -43 16.5c-17.333 0 -31.166 -5.5 -41.499 -16.5s-15.5 -24.167 -15.5 -39.5s5.16699 -28.333 15.5 -39s24.166 -16 41.499 -16zM342 -10c-60 0 -112.167 9.66699 -156.5 29
s-78.666 48 -102.999 86s-36.5 84.667 -36.5 140v399h161v-384c0 -44.667 11.667 -78 35 -100s56.666 -33 99.999 -33s76.666 11 99.999 33s35 55.333 35 100v384h161v-399c0 -55.333 -12.167 -102 -36.5 -140s-58.666 -66.667 -102.999 -86s-96.5 -29 -156.5 -29z" />
    <glyph glyph-name="uring" unicode="&#x16f;" horiz-adv-x="595" 
d="M295 521c-40.667 0 -72.667 12.167 -96 36.5s-35 53.833 -35 88.5c0 35.333 11.667 65.166 35 89.499s55.333 36.5 96 36.5c42 0 74.5 -12.167 97.5 -36.5s34.5 -54.166 34.5 -89.499c0 -34.667 -11.5 -64.167 -34.5 -88.5s-55.5 -36.5 -97.5 -36.5zM295 591
c18.667 0 33 5.33301 43 16s15 23.667 15 39s-5 28.5 -15 39.5s-24.333 16.5 -43 16.5c-17.333 0 -31.166 -5.5 -41.499 -16.5s-15.5 -24.167 -15.5 -39.5s5.16699 -28.333 15.5 -39s24.166 -16 41.499 -16zM224 -10c-56 0 -99.666 15.832 -130.999 47.499
s-47 77.834 -47 138.501v298h161v-289c0 -26.667 6.5 -46.167 19.5 -58.5s32.5 -18.5 58.5 -18.5c19.333 0 37.666 4 54.999 12s31.666 18 42.999 30v324h161v-474h-150l-5 40c-19.333 -14.667 -42.666 -26.667 -69.999 -36s-59 -14 -95 -14z" />
    <glyph glyph-name="Uhungarumlaut" unicode="&#x170;" horiz-adv-x="684" 
d="M142 687l82 180h139l-97 -180h-124zM373 687l82 180h139l-97 -180h-124zM342 -10c-60 0 -112.167 9.66699 -156.5 29s-78.666 48 -102.999 86s-36.5 84.667 -36.5 140v399h161v-384c0 -44.667 11.667 -78 35 -100s56.666 -33 99.999 -33s76.666 11 99.999 33
s35 55.333 35 100v384h161v-399c0 -55.333 -12.167 -102 -36.5 -140s-58.666 -66.667 -102.999 -86s-96.5 -29 -156.5 -29z" />
    <glyph glyph-name="uhungarumlaut" unicode="&#x171;" horiz-adv-x="595" 
d="M83 521l82 180h139l-97 -180h-124zM314 521l82 180h139l-97 -180h-124zM224 -10c-56 0 -99.666 15.832 -130.999 47.499s-47 77.834 -47 138.501v298h161v-289c0 -26.667 6.5 -46.167 19.5 -58.5s32.5 -18.5 58.5 -18.5c19.333 0 37.666 4 54.999 12s31.666 18 42.999 30
v324h161v-474h-150l-5 40c-19.333 -14.667 -42.666 -26.667 -69.999 -36s-59 -14 -95 -14z" />
    <glyph glyph-name="Uogonek" unicode="&#x172;" horiz-adv-x="684" 
d="M365 -220c-34 0 -62.999 7.5 -86.999 22.5s-36 38.833 -36 71.5c0 22.667 5.5 44.167 16.5 64.5s25.833 37.833 44.5 52.5c-78 6.66699 -140.333 31.5 -187 74.5s-70 102.833 -70 179.5v399h161v-384c0 -44.667 11.667 -78 35 -100s56.666 -33 99.999 -33
s76.666 11 99.999 33s35 55.333 35 100v384h161v-399c0 -69.333 -19.167 -125 -57.5 -167s-90.5 -69 -156.5 -81c-17.333 -13.333 -31.5 -28 -42.5 -44s-16.5 -32.667 -16.5 -50c0 -13.333 4 -23 12 -29s18.667 -9 32 -9c8.66699 0 17.667 1 27 3s17 4.66699 23 8v-81
c-9.33301 -4 -22.666 -7.5 -39.999 -10.5s-35.333 -4.5 -54 -4.5z" />
    <glyph glyph-name="uogonek" unicode="&#x173;" horiz-adv-x="595" 
d="M224 -10c-56 0 -99.666 15.832 -130.999 47.499s-47 77.834 -47 138.501v298h161v-289c0 -26.667 6.5 -46.167 19.5 -58.5s32.5 -18.5 58.5 -18.5c19.333 0 37.666 4 54.999 12s31.666 18 42.999 30v324h161v-474h-37c-18.667 -14 -33.834 -29.167 -45.501 -45.5
s-17.5 -33.5 -17.5 -51.5c0 -13.333 4 -23 12 -29s18.667 -9 32 -9c8.66699 0 17.667 1 27 3s17 4.66699 23 8v-81c-9.33301 -4 -22.666 -7.5 -39.999 -10.5s-35.333 -4.5 -54 -4.5c-34 0 -63 7.5 -87 22.5s-36 38.833 -36 71.5c0 25.333 6.5 49 19.5 71
s30.833 40.333 53.5 55l-5 40c-19.333 -14.667 -42.666 -26.667 -69.999 -36s-59 -14 -95 -14z" />
    <glyph glyph-name="Wcircumflex" unicode="&#x174;" horiz-adv-x="883" 
d="M251 688l145 187h100l145 -187h-120l-75 104l-72 -104h-123zM181 0l-150 644h158l85 -388l88 297v91h132l111 -389l89 389h158l-149 -644h-149l-108 372l-116 -372h-149z" />
    <glyph glyph-name="wcircumflex" unicode="&#x175;" horiz-adv-x="770" 
d="M192 521l145 187h100l145 -187h-120l-75 104l-72 -104h-123zM156 0l-125 474h158l64 -272l67 207v65h121l78 -272l62 272h158l-125 -474h-146l-81 246l-83 -246h-148z" />
    <glyph glyph-name="Ycircumflex" unicode="&#x176;" horiz-adv-x="686" 
d="M148 688l145 187h100l145 -187h-120l-75 104l-72 -104h-123zM262 0v237l-231 407h168l144 -267l144 267h168l-231 -407v-237h-162z" />
    <glyph glyph-name="ycircumflex" unicode="&#x177;" horiz-adv-x="627" 
d="M130 521l145 187h100l145 -187h-120l-75 104l-72 -104h-123zM192 -176c-24 0 -44.501 1.16504 -61.501 3.49805s-33.833 6.83301 -50.5 13.5v112c11.333 -4 21.833 -6.66699 31.5 -8s19.5 -2 29.5 -2c27.333 0 47.833 4.83301 61.5 14.5s27.5 26.834 41.5 51.501
l-213 465h169l125 -301l123 301h168l-181 -435c-18 -43.333 -38 -81.166 -60 -113.499s-47.667 -57.333 -77 -75s-64.666 -26.5 -105.999 -26.5z" />
    <glyph glyph-name="Ydieresis" unicode="&#x178;" horiz-adv-x="686" 
d="M182 714v109h118v-109h-118zM388 714v109h118v-109h-118zM262 0v237l-231 407h168l144 -267l144 267h168l-231 -407v-237h-162z" />
    <glyph glyph-name="Zacute" unicode="&#x179;" horiz-adv-x="578" 
d="M224 688l84 196h132l-92 -196h-124zM31 0v82l302 434h-287v128h498v-90l-299 -430h305v-124h-519z" />
    <glyph glyph-name="zacute" unicode="&#x17a;" horiz-adv-x="492" 
d="M179 522l84 196h132l-92 -196h-124zM31 0v86l219 260h-211v128h415v-94l-214 -256h221v-124h-430z" />
    <glyph glyph-name="Zdotaccent" unicode="&#x17b;" horiz-adv-x="578" 
d="M240 714v109h117v-109h-117zM31 0v82l302 434h-287v128h498v-90l-299 -430h305v-124h-519z" />
    <glyph glyph-name="zdotaccent" unicode="&#x17c;" horiz-adv-x="492" 
d="M191 548v109h117v-109h-117zM31 0v86l219 260h-211v128h415v-94l-214 -256h221v-124h-430z" />
    <glyph glyph-name="Zcaron" unicode="&#x17d;" horiz-adv-x="578" 
d="M257 688l-145 187h123l72 -104l75 104h120l-145 -187h-100zM31 0v82l302 434h-287v128h498v-90l-299 -430h305v-124h-519z" />
    <glyph glyph-name="zcaron" unicode="&#x17e;" horiz-adv-x="492" 
d="M192 521l-145 187h123l72 -104l75 104h120l-145 -187h-100zM31 0v86l219 260h-211v128h415v-94l-214 -256h221v-124h-430z" />
    <glyph glyph-name="uni018F" unicode="&#x18f;" horiz-adv-x="684" 
d="M333 -10c-98.667 0 -173.665 25.166 -224.998 75.499s-77 118.833 -77 205.5v118h471c-3.33301 38.667 -13.333 68.667 -30 90s-41.167 36.333 -73.5 45s-74.5 13 -126.5 13c-20.667 0 -43.834 -1.83301 -69.501 -5.5s-50.667 -8.5 -75 -14.5s-44.833 -12.667 -61.5 -20
v114c30.667 11.333 67.167 21.333 109.5 30s86.166 13 131.499 13c111.333 0 196.833 -29.833 256.5 -89.5s89.5 -143.5 89.5 -251.5c0 -66 -11.333 -123.167 -34 -171.5s-57.5 -85.666 -104.5 -111.999s-107.5 -39.5 -181.5 -39.5zM333.002 99.999
c58.667 0 101.5 14.667 128.5 44s40.5 73 40.5 131h-329v-40c0 -42 14 -75 42 -99s67.333 -36 118 -36z" />
    <glyph glyph-name="florin" unicode="&#x192;" horiz-adv-x="514" 
d="M19 -123c-24 0 -44.999 1.83398 -62.999 5.50098s-34.667 8.83398 -50 15.501l23 107c18.667 -7.33301 37.667 -11 57 -11c24.667 0 43.834 4.66699 57.501 14s23.167 27.333 28.5 54l60 290h-63l26 122h63l8 39c11.333 53.333 35.166 96.166 71.499 128.499
s83.5 48.5 141.5 48.5c24 0 45.167 -1.83301 63.5 -5.5s34.833 -8.83398 49.5 -15.501l-23 -108c-8.66699 3.33301 -17.667 6 -27 8s-19.333 3 -30 3c-26 0 -45.333 -4.83301 -58 -14.5s-21.334 -25.5 -26.001 -47.5l-8 -36h116l-33 -122h-109l-62 -299
c-11.333 -54.667 -34.333 -97.667 -69 -129s-82.667 -47 -144 -47z" />
    <glyph glyph-name="Ohorn" unicode="&#x1a0;" horiz-adv-x="785" 
d="M352 -10c-104.667 0 -184.333 26.666 -239 79.999s-82 136.333 -82 249c0 119.333 27.333 205 82 257s134.334 78 239.001 78c97.333 0 172 -23 224 -69c32.667 1.33301 55.834 9.33301 69.501 24s20.5 41 20.5 79h115c0 -64.667 -10.833 -112.167 -32.5 -142.5
s-55.834 -50.166 -102.501 -59.499c18 -44 27 -99.667 27 -167c0 -112.667 -27.333 -195.667 -82 -249s-134.334 -80 -239.001 -80zM352.001 126.999c54 0 93.5 15.5 118.5 46.5s37.5 79.5 37.5 145.5c0 72 -12.5 122.833 -37.5 152.5s-64.5 44.5 -118.5 44.5
c-54.667 0 -94.5 -14.833 -119.5 -44.5s-37.5 -80.5 -37.5 -152.5c0 -66 12.5 -114.5 37.5 -145.5s64.833 -46.5 119.5 -46.5z" />
    <glyph glyph-name="ohorn" unicode="&#x1a1;" horiz-adv-x="707" 
d="M298 -10c-91.333 0 -158.668 21.165 -202.001 63.498s-65 103.5 -65 183.5c0 79.333 21.833 140.333 65.5 183s110.834 64 201.501 64c43.333 0 81 -5 113 -15s58.667 -24 80 -42c37.333 0 62.833 8.5 76.5 25.5s20.5 44.833 20.5 83.5h115
c0 -67.333 -11.833 -117.166 -35.5 -149.499s-61.167 -52.833 -112.5 -61.5c7.33301 -27.333 11 -56.666 11 -87.999c0 -80 -21.667 -141.167 -65 -183.5s-111 -63.5 -203 -63.5zM297.998 115.998c37.333 0 64 9.33301 80 28s24 49.667 24 93s-8 74.333 -24 93
s-42.667 28 -80 28c-36.667 0 -63 -9.33301 -79 -28s-24 -49.667 -24 -93s8 -74.333 24 -93s42.333 -28 79 -28z" />
    <glyph glyph-name="Uhorn" unicode="&#x1af;" horiz-adv-x="834" 
d="M342 -10c-60 0 -112.169 9.66699 -156.502 29s-78.666 48 -102.999 86s-36.5 84.667 -36.5 140v399h161v-384c0 -44.667 11.667 -78 35 -100s56.666 -33 99.999 -33s76.5 11 99.5 33s34.5 55.333 34.5 100v384h162v-59c32.667 1.33301 55.834 9.33301 69.501 24
s20.5 41 20.5 79h115c0 -52 -7 -93.167 -21 -123.5s-36 -52 -66 -65s-69.333 -19.833 -118 -20.5v-234c0 -55.333 -12.333 -102 -37 -140s-59.167 -66.667 -103.5 -86s-96.166 -29 -155.499 -29z" />
    <glyph glyph-name="uhorn" unicode="&#x1b0;" horiz-adv-x="745" 
d="M224 -10c-56 0 -99.667 15.832 -131 47.499s-47 77.834 -47 138.501v298h161v-289c0 -26.667 6.5 -46.167 19.5 -58.5s32.5 -18.5 58.5 -18.5c19.333 0 37.5 4 54.5 12s31.167 18 42.5 30v324h162v-46c29.333 2.66699 49.5 12.5 60.5 29.5s16.5 43.167 16.5 78.5h115
c0 -76 -15 -130 -45 -162s-79 -49.667 -147 -53v-321h-151l-5 40c-19.333 -14.667 -42.5 -26.667 -69.5 -36s-58.5 -14 -94.5 -14z" />
    <glyph glyph-name="uni01CD" unicode="&#x1cd;" horiz-adv-x="728" 
d="M313 688l-145 187h123l72 -104l75 104h120l-145 -187h-100zM31 0l246 644h174l246 -644h-168l-58 146h-215l-57 -146h-168zM278 265h171l-86 224z" />
    <glyph glyph-name="uni01CE" unicode="&#x1ce;" horiz-adv-x="561" 
d="M237 521l-145 187h123l72 -104l75 104h120l-145 -187h-100zM199 -10c-30 0 -57.833 5.33301 -83.5 16s-46.167 27.167 -61.5 49.5s-23 50.166 -23 83.499c0 48.667 16.5 86.834 49.5 114.501s82.5 41.5 148.5 41.5h132v11c0 24 -8 41.167 -24 51.5s-46 15.5 -90 15.5
c-54 0 -107 -8.33301 -159 -25v104c23.333 9.33301 51.833 17 85.5 23s69.167 9 106.5 9c73.333 0 130.833 -15 172.5 -45s62.5 -77.667 62.5 -143v-296h-141l-8 40c-17.333 -16 -39.5 -28.333 -66.5 -37s-60.5 -13 -100.5 -13zM250 89c25.333 0 47.333 4.33301 66 13
s33.667 19.667 45 33v67h-114c-47.333 0 -71 -19 -71 -57c0 -17.333 6 -31 18 -41s30.667 -15 56 -15z" />
    <glyph glyph-name="uni01CF" unicode="&#x1cf;" horiz-adv-x="264" 
d="M81 688l-145 187h123l72 -104l75 104h120l-145 -187h-100zM51 0v644h161v-644h-161z" />
    <glyph glyph-name="uni01D0" unicode="&#x1d0;" horiz-adv-x="334" 
d="M128 521l-145 187h123l72 -104l75 104h120l-145 -187h-100zM121 0v355h-70l14 119h217v-474h-161z" />
    <glyph glyph-name="uni01D1" unicode="&#x1d1;" horiz-adv-x="704" 
d="M301 688l-145 187h123l72 -104l75 104h120l-145 -187h-100zM352 -10c-104.667 0 -184.334 26.667 -239.001 80s-82 136.333 -82 249c0 119.333 27.333 205 82 257s134.334 78 239.001 78s184.334 -26 239.001 -78s82 -137.667 82 -257
c0 -112.667 -27.333 -195.667 -82 -249s-134.334 -80 -239.001 -80zM352 127c54 0 93.5 15.5 118.5 46.5s37.5 79.5 37.5 145.5c0 72 -12.5 122.833 -37.5 152.5s-64.5 44.5 -118.5 44.5c-54.667 0 -94.5 -14.833 -119.5 -44.5s-37.5 -80.5 -37.5 -152.5
c0 -66 12.5 -114.5 37.5 -145.5s64.833 -46.5 119.5 -46.5z" />
    <glyph glyph-name="uni01D2" unicode="&#x1d2;" horiz-adv-x="597" 
d="M248 521l-145 187h123l72 -104l75 104h120l-145 -187h-100zM298 -10c-91.333 0 -158.668 21.167 -202.001 63.5s-65 103.5 -65 183.5c0 79.333 21.833 140.333 65.5 183s110.834 64 201.501 64c91.333 0 158.833 -21.333 202.5 -64s65.5 -103.667 65.5 -183
c0 -80 -21.667 -141.167 -65 -183.5s-111 -63.5 -203 -63.5zM297.998 116c37.333 0 64 9.33301 80 28s24 49.667 24 93s-8 74.333 -24 93s-42.667 28 -80 28c-36.667 0 -63 -9.33301 -79 -28s-24 -49.667 -24 -93s8 -74.333 24 -93s42.333 -28 79 -28z" />
    <glyph glyph-name="uni01D3" unicode="&#x1d3;" horiz-adv-x="684" 
d="M291 688l-145 187h123l72 -104l75 104h120l-145 -187h-100zM342 -10c-60 0 -112.167 9.66699 -156.5 29s-78.666 48 -102.999 86s-36.5 84.667 -36.5 140v399h161v-384c0 -44.667 11.667 -78 35 -100s56.666 -33 99.999 -33s76.666 11 99.999 33s35 55.333 35 100v384
h161v-399c0 -55.333 -12.167 -102 -36.5 -140s-58.666 -66.667 -102.999 -86s-96.5 -29 -156.5 -29z" />
    <glyph glyph-name="uni01D4" unicode="&#x1d4;" horiz-adv-x="595" 
d="M246 521l-145 187h123l72 -104l75 104h120l-145 -187h-100zM224 -10c-56 0 -99.666 15.832 -130.999 47.499s-47 77.834 -47 138.501v298h161v-289c0 -26.667 6.5 -46.167 19.5 -58.5s32.5 -18.5 58.5 -18.5c19.333 0 37.666 4 54.999 12s31.666 18 42.999 30v324h161
v-474h-150l-5 40c-19.333 -14.667 -42.666 -26.667 -69.999 -36s-59 -14 -95 -14z" />
    <glyph glyph-name="uni01D5" unicode="&#x1d5;" horiz-adv-x="684" 
d="M182 844v97h318v-97h-318zM180 688v109h118v-109h-118zM386 688v109h118v-109h-118zM342 -10c-60 0 -112.167 9.66699 -156.5 29s-78.666 48 -102.999 86s-36.5 84.667 -36.5 140v399h161v-384c0 -44.667 11.667 -78 35 -100s56.666 -33 99.999 -33s76.666 11 99.999 33
s35 55.333 35 100v384h161v-399c0 -55.333 -12.167 -102 -36.5 -140s-58.666 -66.667 -102.999 -86s-96.5 -29 -156.5 -29z" />
    <glyph glyph-name="uni01D6" unicode="&#x1d6;" horiz-adv-x="595" 
d="M138 684v97h318v-97h-318zM135 530v109h118v-109h-118zM341 530v109h118v-109h-118zM224 -10c-56 0 -99.666 15.832 -130.999 47.499s-47 77.834 -47 138.501v298h161v-289c0 -26.667 6.5 -46.167 19.5 -58.5s32.5 -18.5 58.5 -18.5c19.333 0 37.666 4 54.999 12
s31.666 18 42.999 30v324h161v-474h-150l-5 40c-19.333 -14.667 -42.666 -26.667 -69.999 -36s-59 -14 -95 -14z" />
    <glyph glyph-name="uni01D7" unicode="&#x1d7;" horiz-adv-x="684" 
d="M284 815l58 133h121l-68 -133h-111zM181 689v103h114v-103h-114zM389 689v103h114v-103h-114zM342 -10c-60 0 -112.167 9.66699 -156.5 29s-78.666 48 -102.999 86s-36.5 84.667 -36.5 140v399h161v-384c0 -44.667 11.667 -78 35 -100s56.666 -33 99.999 -33
s76.666 11 99.999 33s35 55.333 35 100v384h161v-399c0 -55.333 -12.167 -102 -36.5 -140s-58.666 -66.667 -102.999 -86s-96.5 -29 -156.5 -29z" />
    <glyph glyph-name="uni01D8" unicode="&#x1d8;" horiz-adv-x="595" 
d="M230 656l58 133h121l-68 -133h-111zM127 530v103h114v-103h-114zM335 530v103h114v-103h-114zM224 -10c-56 0 -99.666 15.832 -130.999 47.499s-47 77.834 -47 138.501v298h161v-289c0 -26.667 6.5 -46.167 19.5 -58.5s32.5 -18.5 58.5 -18.5
c19.333 0 37.666 4 54.999 12s31.666 18 42.999 30v324h161v-474h-150l-5 40c-19.333 -14.667 -42.666 -26.667 -69.999 -36s-59 -14 -95 -14z" />
    <glyph glyph-name="uni01D9" unicode="&#x1d9;" horiz-adv-x="684" 
d="M287 812l-120 127h119l57 -73l58 73h116l-119 -127h-111zM180 688v103h114v-103h-114zM388 688v103h114v-103h-114zM342 -10c-60 0 -112.167 9.66699 -156.5 29s-78.666 48 -102.999 86s-36.5 84.667 -36.5 140v399h161v-384c0 -44.667 11.667 -78 35 -100
s56.666 -33 99.999 -33s76.666 11 99.999 33s35 55.333 35 100v384h161v-399c0 -55.333 -12.167 -102 -36.5 -140s-58.666 -66.667 -102.999 -86s-96.5 -29 -156.5 -29z" />
    <glyph glyph-name="uni01DA" unicode="&#x1da;" horiz-adv-x="595" 
d="M242 647l-120 127h119l57 -73l58 73h116l-119 -127h-111zM135 523v103h114v-103h-114zM343 523v103h114v-103h-114zM224 -10c-56 0 -99.666 15.832 -130.999 47.499s-47 77.834 -47 138.501v298h161v-289c0 -26.667 6.5 -46.167 19.5 -58.5s32.5 -18.5 58.5 -18.5
c19.333 0 37.666 4 54.999 12s31.666 18 42.999 30v324h161v-474h-150l-5 40c-19.333 -14.667 -42.666 -26.667 -69.999 -36s-59 -14 -95 -14z" />
    <glyph glyph-name="uni01DB" unicode="&#x1db;" horiz-adv-x="684" 
d="M289 814l-68 133h121l58 -133h-111zM181 688v103h114v-103h-114zM389 688v103h114v-103h-114zM342 -10c-60 0 -112.167 9.66699 -156.5 29s-78.666 48 -102.999 86s-36.5 84.667 -36.5 140v399h161v-384c0 -44.667 11.667 -78 35 -100s56.666 -33 99.999 -33
s76.666 11 99.999 33s35 55.333 35 100v384h161v-399c0 -55.333 -12.167 -102 -36.5 -140s-58.666 -66.667 -102.999 -86s-96.5 -29 -156.5 -29z" />
    <glyph glyph-name="uni01DC" unicode="&#x1dc;" horiz-adv-x="595" 
d="M246 656l-68 133h121l58 -133h-111zM138 530v103h114v-103h-114zM346 530v103h114v-103h-114zM224 -10c-56 0 -99.666 15.832 -130.999 47.499s-47 77.834 -47 138.501v298h161v-289c0 -26.667 6.5 -46.167 19.5 -58.5s32.5 -18.5 58.5 -18.5
c19.333 0 37.666 4 54.999 12s31.666 18 42.999 30v324h161v-474h-150l-5 40c-19.333 -14.667 -42.666 -26.667 -69.999 -36s-59 -14 -95 -14z" />
    <glyph glyph-name="Gcaron" unicode="&#x1e6;" horiz-adv-x="647" 
d="M319 688l-145 187h123l72 -104l75 104h120l-145 -187h-100zM372 -10c-111.333 0 -196.001 28.167 -254.001 84.5s-87 135.833 -87 238.5c0 107.333 29.667 191 89 251s146.666 90 261.999 90c39.333 0 74.833 -2.33301 106.5 -7s61.834 -11.667 90.501 -21v-138
c-28.667 10.667 -58.5 18 -89.5 22s-62.833 6 -95.5 6c-69.333 0 -119.833 -16.5 -151.5 -49.5s-47.5 -84.167 -47.5 -153.5c0 -63.333 15 -110.166 45 -140.499s74.333 -45.5 133 -45.5c38.667 0 74.667 5.33301 108 16v122h-139v101h274v-319
c-22.667 -14.667 -54.167 -27.834 -94.5 -39.501s-90.166 -17.5 -149.499 -17.5z" />
    <glyph glyph-name="gcaron" unicode="&#x1e7;" horiz-adv-x="563" 
d="M242 522l-145 187h123l72 -104l75 104h120l-145 -187h-100zM255 -176c-23.333 0 -48 1.00488 -74 3.00488s-50.667 5 -74 9s-43.333 8.66699 -60 14v110c26.667 -8.66699 58.667 -15.334 96 -20.001s71.666 -7 102.999 -7c40.667 0 71.167 2.16699 91.5 6.5
s30.5 11.833 30.5 22.5c0 9.33301 -4 15.666 -12 18.999s-23.667 5 -47 5h-131c-42.667 0 -75.834 7.66699 -99.501 23s-35.5 37.666 -35.5 66.999c0 20 6.16699 39 18.5 57s30.5 31.333 54.5 40c-27.333 14 -48 31.667 -62 53s-21 48.333 -21 81
c0 61.333 19.833 106.166 59.5 134.499s97.834 42.5 174.501 42.5c16 0 33.833 -1.16699 53.5 -3.5s34.167 -4.5 43.5 -6.5h182l-4 -100h-69c16.667 -16.667 25 -41.334 25 -74.001c0 -46 -14.833 -83 -44.5 -111s-74.5 -42 -134.5 -42c-10 0 -19.833 0.5 -29.5 1.5
s-19.167 1.83301 -28.5 2.5c-17.333 -2 -32.166 -5.66699 -44.499 -11s-18.5 -13 -18.5 -23c0 -8 3.16699 -13.333 9.5 -16s15.833 -4 28.5 -4h121c48.667 0 86.5 -11.167 113.5 -33.5s40.5 -54.833 40.5 -97.5c0 -94.667 -85.333 -142 -256 -142zM268 236.005
c35.333 0 59.668 6.00098 73.001 18.001s20 32 20 60s-6.83301 48.333 -20.5 61s-37.834 19 -72.501 19c-32.667 0 -56.167 -6.16699 -70.5 -18.5s-21.5 -32.833 -21.5 -61.5c0 -26.667 6.66699 -46.334 20 -59.001s37.333 -19 72 -19z" />
    <glyph glyph-name="Aringacute" unicode="&#x1fa;" horiz-adv-x="728" 
d="M291 867l84 186h132l-92 -186h-124zM31 0l239 624.999c-25.333 23.333 -38 54 -38 92c0 35.333 11.667 65.166 35 89.499s55.333 36.5 96 36.5c42 0 74.5 -12.167 97.5 -36.5s34.5 -54.166 34.5 -89.499c0 -37.333 -12.333 -67.666 -37 -90.999l239 -626h-168l-58 146
h-215l-57 -146h-168zM363 661.999c18.667 0 33 5.33301 43 16s15 23.667 15 39s-5 28.5 -15 39.5s-24.333 16.5 -43 16.5c-17.333 0 -31.166 -5.5 -41.499 -16.5s-15.5 -24.167 -15.5 -39.5s5.16699 -28.333 15.5 -39s24.166 -16 41.499 -16zM278 264.999h171l-86 224z" />
    <glyph glyph-name="aringacute" unicode="&#x1fb;" horiz-adv-x="561" 
d="M224 795l84 156h132l-92 -156h-124zM300 521c-40.667 0 -72.667 12.167 -96 36.5s-35 53.833 -35 88.5c0 35.333 11.667 65.166 35 89.499s55.333 36.5 96 36.5c42 0 74.5 -12.167 97.5 -36.5s34.5 -54.166 34.5 -89.499c0 -34.667 -11.5 -64.167 -34.5 -88.5
s-55.5 -36.5 -97.5 -36.5zM300 591c18.667 0 33 5.33301 43 16s15 23.667 15 39s-5 28.5 -15 39.5s-24.333 16.5 -43 16.5c-17.333 0 -31.166 -5.5 -41.499 -16.5s-15.5 -24.167 -15.5 -39.5s5.16699 -28.333 15.5 -39s24.166 -16 41.499 -16zM199 -10
c-30 0 -57.833 5.33301 -83.5 16s-46.167 27.167 -61.5 49.5s-23 50.166 -23 83.499c0 48.667 16.5 86.834 49.5 114.501s82.5 41.5 148.5 41.5h132v11c0 24 -8 41.167 -24 51.5s-46 15.5 -90 15.5c-54 0 -107 -8.33301 -159 -25v104c23.333 9.33301 51.833 17 85.5 23
s69.167 9 106.5 9c73.333 0 130.833 -15 172.5 -45s62.5 -77.667 62.5 -143v-296h-141l-8 40c-17.333 -16 -39.5 -28.333 -66.5 -37s-60.5 -13 -100.5 -13zM250 89c25.333 0 47.333 4.33301 66 13s33.667 19.667 45 33v67h-114c-47.333 0 -71 -19 -71 -57
c0 -17.333 6 -31 18 -41s30.667 -15 56 -15z" />
    <glyph glyph-name="AEacute" unicode="&#x1fc;" horiz-adv-x="854" 
d="M418 688l84 196h132l-92 -196h-124zM31 0l246 644h546v-124h-261v-135h224v-126h-224v-135h261v-124h-421v147h-142l-57 -147h-172zM297 272h105v248h-12z" />
    <glyph glyph-name="aeacute" unicode="&#x1fd;" horiz-adv-x="882" 
d="M371 522l84 196h132l-92 -196h-124zM212 -10c-34 0 -64.668 5.33301 -92.001 16s-49 27.167 -65 49.5s-24 50.166 -24 83.499c0 48.667 16.5 86.834 49.5 114.501s82.5 41.5 148.5 41.5h132v11c0 24 -8 41.167 -24 51.5s-46 15.5 -90 15.5c-54 0 -107 -8.33301 -159 -25
v104c23.333 9.33301 51.833 17 85.5 23s69.167 9 106.5 9c72 0 127.667 -15.333 167 -46c40.667 30.667 96.334 46 167.001 46c75.333 0 133.666 -19.333 174.999 -58s62 -90.667 62 -156v-85h-336c7.33301 -31.333 24.5 -53.5 51.5 -66.5s63.833 -19.5 110.5 -19.5
c26 0 52.5 2.5 79.5 7.5s49.5 10.833 67.5 17.5v-103c-22.667 -10.667 -49.667 -18.5 -81 -23.5s-65.666 -7.5 -102.999 -7.5c-38 0 -74.333 6.33301 -109 19s-62.667 30.667 -84 54c-18 -14 -37.333 -26.5 -58 -37.5s-45.167 -19.667 -73.5 -26s-62.833 -9.5 -103.5 -9.5z
M514.999 278h196v21c0 23.333 -7 41.833 -21 55.5s-37.667 20.5 -71 20.5c-38.667 0 -65.667 -7.83301 -81 -23.5s-23 -40.167 -23 -73.5zM249.999 89c25.333 0 47 3.83203 65 11.499s33.333 17.834 46 30.501v71h-114c-47.333 0 -71 -19 -71 -57c0 -17.333 6 -31 18 -41
s30.667 -15 56 -15z" />
    <glyph glyph-name="Oslashacute" unicode="&#x1fe;" horiz-adv-x="704" 
d="M257 688l84 196h132l-92 -196h-124zM156 -53l28.001 74c-50.667 22.667 -88.834 58.5 -114.501 107.5s-38.5 112.5 -38.5 190.5c0 119.333 27.333 205 82 257s134.334 78 239.001 78c13.333 0 26.333 -0.5 39 -1.5s25 -2.16699 37 -3.5l17 44h89l-25 -65
c53.333 -20.667 94 -56.167 122 -106.5s42 -117.833 42 -202.5c0 -112.667 -27.333 -195.667 -82 -249s-134.334 -80 -239.001 -80c-16 0 -31.333 0.666992 -46 2s-28.667 3 -42 5l-19 -50h-89zM240.001 165l136 350c-4 0 -8 0.166992 -12 0.5s-8 0.5 -12 0.5
c-54.667 0 -94.5 -14.833 -119.5 -44.5s-37.5 -80.5 -37.5 -152.5c0 -72.667 15 -124 45 -154zM352.001 127c54 0 93.5 15.5 118.5 46.5s37.5 79.5 37.5 145.5c0 84 -18 140 -54 168l-138 -358c5.33301 -0.666992 11 -1.16699 17 -1.5s12.333 -0.5 19 -0.5z" />
    <glyph glyph-name="oslashacute" unicode="&#x1ff;" horiz-adv-x="597" 
d="M195 522l84 196h132l-92 -196h-124zM141 -53l23.999 63.998c-45.333 17.333 -79 45 -101 83s-33 85.667 -33 143c0 79.333 21.833 140.333 65.5 183s110.834 64 201.501 64c16.667 0 33 -1 49 -3l18 47h87l-25 -64c47.333 -17.333 82.333 -45.166 105 -83.499
s34 -86.166 34 -143.499c0 -80 -21.667 -141.167 -65 -183.5s-111 -63.5 -203 -63.5c-18.667 0 -36.667 1 -54 3l-17 -46h-86zM215.999 140.998l83.999 220h-2c-37.333 0 -64.666 -9.66699 -81.999 -29s-26 -51 -26 -95c0 -44.667 8.66699 -76.667 26 -96zM290.998 112.998
h7c37.333 0 64.833 9.5 82.5 28.5s26.5 50.833 26.5 95.5c0 45.333 -10 78 -30 98z" />
    <glyph glyph-name="uni0218" unicode="&#x218;" horiz-adv-x="555" 
d="M256 -10c-42.667 0 -82.498 3.16992 -119.498 9.50293s-68.833 15.5 -95.5 27.5v137c29.333 -12.667 61.833 -23 97.5 -31s69.5 -12 101.5 -12c40 0 69.833 3.66699 89.5 11s29.5 23.333 29.5 48c0 16.667 -4.83301 30 -14.5 40s-25.334 18.833 -47.001 26.5
s-51.167 16.834 -88.5 27.501c-44 13.333 -79 28.166 -105 44.499s-44.667 36.166 -56 59.499s-17 52 -17 86c0 61.333 22 108.333 66 141s109 49 195 49c37.333 0 73.666 -2.83301 108.999 -8.5s64 -12.167 86 -19.5v-138c-28.667 11.333 -57.5 19.666 -86.5 24.999
s-57.167 8 -84.5 8c-36 0 -65.167 -3.33301 -87.5 -10s-33.5 -22 -33.5 -46c0 -14 4 -25.167 12 -33.5s21.833 -15.833 41.5 -22.5s46.5 -14.667 80.5 -24c52.667 -14 93 -30.833 121 -50.5s47.333 -42.334 58 -68.001s16 -54.5 16 -86.5c0 -56.667 -22 -102.5 -66 -137.5
s-111.333 -52.5 -202 -52.5zM187.002 -230.997l30 186h133l-45 -186h-118z" />
    <glyph glyph-name="uni0219" unicode="&#x219;" horiz-adv-x="479" 
d="M227 -10c-38 0 -74.0029 2.66602 -108.003 7.99902s-61 12 -81 20v123c23.333 -10 50.333 -17.667 81 -23s58 -8 82 -8c28.667 0 49.5 1.33301 62.5 4s19.5 10 19.5 22c0 13.333 -10.667 23.333 -32 30s-50.666 16.334 -87.999 29.001
c-43.333 15.333 -76.166 33.166 -98.499 53.499s-33.5 50.5 -33.5 90.5c0 46.667 17.5 82.5 52.5 107.5s90.833 37.5 167.5 37.5c30 0 59.667 -2.33301 89 -7s53.333 -10 72 -16v-121c-18.667 8.66699 -40 15 -64 19s-45.667 6 -65 6c-24.667 0 -45.5 -1.5 -62.5 -4.5
s-25.5 -10.167 -25.5 -21.5c0 -12.667 9.33301 -21.5 28 -26.5s45.667 -13.167 81 -24.5c37.333 -11.333 66.333 -23.5 87 -36.5s35.334 -28.5 44.001 -46.5s13 -40.667 13 -68c0 -47.333 -18.667 -83.666 -56 -108.999s-92.333 -38 -165 -38zM149.997 -231.001l30 186h133
l-45 -186h-118z" />
    <glyph glyph-name="uni021A" unicode="&#x21a;" horiz-adv-x="561" 
d="M200 0v520h-189v124h539v-124h-189v-520h-161zM187 -258l33 213h129l-53 -213h-109z" />
    <glyph glyph-name="uni021B" unicode="&#x21b;" horiz-adv-x="374" 
d="M246 -10c-58.667 0 -101.833 15 -129.5 45s-41.5 71.333 -41.5 124v193h-64v122h64v99l161 43v-142h115l-7 -122h-108v-182c0 -22.667 5.66699 -38.5 17 -47.5s28.333 -13.5 51 -13.5c19.333 0 39 3.33301 59 10v-109c-31.333 -13.333 -70.333 -20 -117 -20z
M136.001 -258l33 213h129l-53 -213h-109z" />
    <glyph glyph-name="uni0237" unicode="&#x237;" horiz-adv-x="332" 
d="M108 -234c-47.333 0 -86.667 6.66797 -118 20.001v109c20 -6.66699 40 -10 60 -10c46.667 0 70 20 70 60v410h-70l14 119h217v-543c0 -48.667 -14 -88.334 -42 -119.001s-71.667 -46 -131 -46z" />
    <glyph glyph-name="uni0251" unicode="&#x251;" horiz-adv-x="599" 
d="M244 -10c-68.667 0 -121.333 18.166 -158 54.499s-55 94.166 -55 173.499c0 52.667 9.83301 98.834 29.5 138.501s47.167 70.834 82.5 93.501s76.333 34 123 34c27.333 0 49.833 -3.16699 67.5 -9.5s35.167 -15.5 52.5 -27.5v27h161v-474h-139l-9 40
c-39.333 -33.333 -91 -50 -155 -50zM296.001 106.999c35.333 0 65.333 12.001 90 36.001v190c-10.667 11.333 -22 19.666 -34 24.999s-26.667 8 -44 8c-38 0 -66.333 -11.833 -85 -35.5s-28 -61.167 -28 -112.5c0 -42 8.66699 -71 26 -87s42.333 -24 75 -24z" />
    <glyph glyph-name="uni0259" unicode="&#x259;" horiz-adv-x="547" 
d="M268 -10c-75.333 0 -133.668 19.5 -175.001 58.5s-62 90.833 -62 155.5v84h336c-8 32 -25.167 54.167 -51.5 66.5s-63.166 18.5 -110.499 18.5c-26.667 0 -53.5 -2.33301 -80.5 -7s-49.167 -10.667 -66.5 -18v104c46 21.333 107.333 32 184 32
c82.667 0 149 -20.5 199 -61.5s75 -102.833 75 -185.5c0 -75.333 -20.667 -135.333 -62 -180s-103.333 -67 -186 -67zM262.998 98c38.667 0 65.667 8 81 24s23 40.667 23 74h-196v-22c0 -22.667 7 -41 21 -55s37.667 -21 71 -21z" />
    <glyph glyph-name="uni02BB" unicode="&#x2bb;" horiz-adv-x="257" 
d="M31 436l74 218h121l-59 -218h-136z" />
    <glyph glyph-name="uni02BC" unicode="&#x2bc;" horiz-adv-x="257" 
d="M31 436l59 218h136l-74 -218h-121z" />
    <glyph glyph-name="uni02BE" unicode="&#x2be;" 
d="M-394 450v98c50 0 75 23.667 75 71c0 46 -25 69 -75 69v98c56 0 98.833 -15 128.5 -45s44.5 -70.667 44.5 -122c0 -52 -14.833 -93.167 -44.5 -123.5s-72.5 -45.5 -128.5 -45.5z" />
    <glyph glyph-name="uni02BF" unicode="&#x2bf;" 
d="M-221 450c-56 0 -98.833 15.166 -128.5 45.499s-44.5 71.5 -44.5 123.5c0 51.333 14.833 92 44.5 122s72.5 45 128.5 45v-98c-23.333 0 -41.666 -5.66699 -54.999 -17s-20 -28.666 -20 -51.999s6.66699 -41 20 -53s31.666 -18 54.999 -18v-98z" />
    <glyph glyph-name="circumflex" unicode="&#x2c6;" horiz-adv-x="384" 
d="M-3 529l145 187h100l145 -187h-120l-75 104l-72 -104h-123z" />
    <glyph glyph-name="caron" unicode="&#x2c7;" horiz-adv-x="384" 
d="M142 529l-145 187h123l72 -104l75 104h120l-145 -187h-100z" />
    <glyph glyph-name="uni02C8" unicode="&#x2c8;" 
d="M-81 477v194h104v-194h-104z" />
    <glyph glyph-name="uni02C9" unicode="&#x2c9;" 
d="M111 559v97h318v-97h-318z" />
    <glyph glyph-name="uni02CA" unicode="&#x2ca;" 
d="M-137 522l84 196h131l-92 -196h-123z" />
    <glyph glyph-name="uni02CB" unicode="&#x2cb;" 
d="M-48 522l-92 196h131l84 -196h-123z" />
    <glyph glyph-name="uni02CC" unicode="&#x2cc;" 
d="M-81 -236v195h104v-195h-104z" />
    <glyph glyph-name="breve" unicode="&#x2d8;" horiz-adv-x="347" 
d="M172 533c-51.333 0 -93.001 15 -125.001 45s-48 72.333 -48 127h106c0 -22.667 5.16699 -42 15.5 -58s27.5 -24 51.5 -24c24.667 0 42.334 8 53.001 24s16 35.333 16 58h106c0 -54.667 -16.167 -97 -48.5 -127s-74.5 -45 -126.5 -45z" />
    <glyph glyph-name="dotaccent" unicode="&#x2d9;" horiz-adv-x="145" 
d="M13 555v109h118v-109h-118z" />
    <glyph glyph-name="ring" unicode="&#x2da;" horiz-adv-x="295" 
d="M149 521c-37.333 0 -68.166 11.667 -92.499 35s-36.5 52.333 -36.5 87c0 35.333 12.167 64.666 36.5 87.999s55.166 35 92.499 35c38 0 69 -11.667 93 -35s36 -52.666 36 -87.999c0 -34.667 -12 -63.667 -36 -87s-55 -35 -93 -35zM149 595
c14.667 0 26.5 4.83301 35.5 14.5s13.5 20.834 13.5 33.501c0 13.333 -4.5 24.833 -13.5 34.5s-20.833 14.5 -35.5 14.5c-14 0 -25.667 -4.83301 -35 -14.5s-14 -21.167 -14 -34.5c0 -12.667 4.66699 -23.834 14 -33.501s21 -14.5 35 -14.5z" />
    <glyph glyph-name="ogonek" unicode="&#x2db;" horiz-adv-x="246" 
d="M140 -220c-34.667 0 -64 7.5 -88 22.5s-36 38.833 -36 71.5c0 25.333 6.66699 49 20 71s31.333 40.333 54 55h112c-18.667 -14 -33.667 -29.167 -45 -45.5s-17 -33.5 -17 -51.5c0 -25.333 14.667 -38 44 -38c8.66699 0 17.5 1 26.5 3s16.5 4.66699 22.5 8v-81
c-9.33301 -4 -22.5 -7.5 -39.5 -10.5s-34.833 -4.5 -53.5 -4.5z" />
    <glyph glyph-name="tilde" unicode="&#x2dc;" horiz-adv-x="376" 
d="M277 550c-20.667 0 -40.834 3.5 -60.501 10.5l-57 20.5c-18.333 6.66699 -36.166 10 -53.499 10c-19.333 0 -36.833 -3.33301 -52.5 -10s-29.167 -16 -40.5 -28v107c9.33301 9.33301 22.166 17 38.499 23s33.5 9 51.5 9c21.333 0 41.333 -3.33301 60 -10l55 -20.5
c18 -7 36.667 -10.5 56 -10.5c20 0 37.333 3.5 52 10.5s26.334 16.5 35.001 28.5v-108c-6.66699 -8.66699 -17.5 -16.167 -32.5 -22.5s-32.167 -9.5 -51.5 -9.5z" />
    <glyph glyph-name="hungarumlaut" unicode="&#x2dd;" horiz-adv-x="443" 
d="M227 530l83 180h139l-97 -180h-125zM-4 530l83 180h139l-97 -180h-125z" />
    <glyph glyph-name="gravecomb" unicode="&#x300;" 
d="M-396 522l-93 196h132l84 -196h-123z" />
    <glyph glyph-name="acutecomb" unicode="&#x301;" 
d="M-455 522l84 196h132l-92 -196h-124z" />
    <glyph glyph-name="uni0302" unicode="&#x302;" 
d="M-235 529l145 187h100l145 -187h-120l-75 104l-72 -104h-123z" />
    <glyph glyph-name="tildecomb" unicode="&#x303;" 
d="M-257 550c-20.667 0 -40.834 3.5 -60.501 10.5l-57 20.5c-18.333 6.66699 -36.166 10 -53.499 10c-19.333 0 -36.833 -3.33301 -52.5 -10s-29.5 -16 -41.5 -28v107c9.33301 9.33301 22.166 17 38.499 23s33.833 9 52.5 9c21.333 0 41.333 -3.33301 60 -10l55 -20.5
c18 -7 36.667 -10.5 56 -10.5c20 0 37.333 3.5 52 10.5s26.334 16.5 35.001 28.5v-108c-6.66699 -8.66699 -17.5 -16.167 -32.5 -22.5s-32.167 -9.5 -51.5 -9.5z" />
    <glyph glyph-name="uni0304" unicode="&#x304;" 
d="M-196 559v97h318v-97h-318z" />
    <glyph glyph-name="uni0306" unicode="&#x306;" 
d="M-29 533c-51.333 0 -93.001 15 -125.001 45s-48 72.333 -48 127h106c0 -22.667 5.16699 -42 15.5 -58s27.5 -24 51.5 -24c24.667 0 42.334 8 53.001 24s16 35.333 16 58h106c0 -54.667 -16.167 -97 -48.5 -127s-74.5 -45 -126.5 -45z" />
    <glyph glyph-name="uni0307" unicode="&#x307;" 
d="M-87 555v109h117v-109h-117z" />
    <glyph glyph-name="uni0308" unicode="&#x308;" 
d="M39 555v109h118v-109h-118zM-167 555v109h118v-109h-118z" />
    <glyph glyph-name="hookabovecomb" unicode="&#x309;" 
d="M-392 504l-0.00195312 80.998c35.333 2 59 6.83301 71 14.5s18 18.167 18 31.5c0 12.667 -5.66699 21.834 -17 27.501s-27.333 8.5 -48 8.5c-9.33301 0 -19.666 -0.833008 -30.999 -2.5s-21 -3.83398 -29 -6.50098v72c26.667 9.33301 62.334 14 107.001 14
c44 0 77.667 -9.16699 101 -27.5s35 -42.166 35 -71.499c0 -28.667 -6.83301 -50.167 -20.5 -64.5s-35.167 -25.166 -64.5 -32.499v-44h-122z" />
    <glyph glyph-name="uni030A" unicode="&#x30a;" 
d="M-29 514c-40.667 0 -72.667 12.167 -96 36.5s-35 53.833 -35 88.5c0 35.333 11.667 65.166 35 89.499s55.333 36.5 96 36.5c42 0 74.5 -12.167 97.5 -36.5s34.5 -54.166 34.5 -89.499c0 -34.667 -11.5 -64.167 -34.5 -88.5s-55.5 -36.5 -97.5 -36.5zM-29 584
c18.667 0 33 5.33301 43 16s15 23.667 15 39s-5 28.5 -15 39.5s-24.333 16.5 -43 16.5c-17.333 0 -31.166 -5.5 -41.499 -16.5s-15.5 -24.167 -15.5 -39.5s5.16699 -28.333 15.5 -39s24.166 -16 41.499 -16z" />
    <glyph glyph-name="uni030B" unicode="&#x30b;" 
d="M-32 530l82 180h139l-97 -180h-124zM-263 530l82 180h139l-97 -180h-124z" />
    <glyph glyph-name="uni030C" unicode="&#x30c;" 
d="M-90 529l-145 187h123l72 -104l75 104h120l-145 -187h-100z" />
    <glyph glyph-name="uni031B" unicode="&#x31b;" 
d="M-143 515v103.001c40.667 0 67.667 7.66699 81 23s20 42.666 20 81.999h115c0 -53.333 -7.16699 -95 -21.5 -125s-37.333 -51.167 -69 -63.5s-73.5 -18.833 -125.5 -19.5z" />
    <glyph glyph-name="dotbelowcomb" unicode="&#x323;" 
d="M-387 -189v109h118v-109h-118z" />
    <glyph glyph-name="uni0324" unicode="&#x324;" 
d="M19 -189v109h119v-109h-119zM-193 -189v109h119v-109h-119z" />
    <glyph glyph-name="uni0326" unicode="&#x326;" 
d="M33 -250l33 213h129l-53 -213h-109z" />
    <glyph glyph-name="uni0327" unicode="&#x327;" 
d="M-37 -240c-11.333 0 -25.5 0.833008 -42.5 2.5s-29.167 3.5 -36.5 5.5v71c19.333 -5.33301 39.333 -8 60 -8c27.333 0 46.833 2.16699 58.5 6.5s17.5 13.833 17.5 28.5c0 15.333 -6 24.833 -18 28.5s-27.667 5.5 -47 5.5h-54l29 100h96l-15 -43
c37.333 0 64.833 -8.5 82.5 -25.5s26.5 -39.5 26.5 -67.5c0 -32.667 -12.833 -58.167 -38.5 -76.5s-65.167 -27.5 -118.5 -27.5z" />
    <glyph glyph-name="uni0328" unicode="&#x328;" 
d="M-13 -220c-34 0 -63 7.5 -87 22.5s-36 38.833 -36 71.5c0 25.333 6.5 49 19.5 71s30.833 40.333 53.5 55h113c-18.667 -14 -33.834 -29.167 -45.501 -45.5s-17.5 -33.5 -17.5 -51.5c0 -13.333 4 -23 12 -29s18.667 -9 32 -9c8.66699 0 17.667 1 27 3s17 4.66699 23 8v-81
c-9.33301 -4 -22.666 -7.5 -39.999 -10.5s-35.333 -4.5 -54 -4.5z" />
    <glyph glyph-name="uni032E" unicode="&#x32e;" 
d="M-29 -227c-51.333 0 -93.001 15 -125.001 45s-48 72.333 -48 127h106c0 -22.667 5.16699 -42 15.5 -58s27.5 -24 51.5 -24c24.667 0 42.334 8 53.001 24s16 35.333 16 58h106c0 -54.667 -16.167 -97 -48.5 -127s-74.5 -45 -126.5 -45z" />
    <glyph glyph-name="uni0331" unicode="&#x331;" 
d="M-196 -144v98h318v-98h-318z" />
    <glyph glyph-name="uni0394" unicode="&#x394;" horiz-adv-x="640" 
d="M31 0v86l220 558h136l222 -559v-85h-578zM184 123h268l-133 338z" />
    <glyph glyph-name="uni03A9" unicode="&#x3a9;" horiz-adv-x="752" 
d="M38 0l0.00195312 122h114c-39.333 27.333 -69.333 61.333 -90 102s-31 88.334 -31 143.001c0 66 13.5 123.5 40.5 172.5s66.167 87.167 117.5 114.5s113.666 41 186.999 41s135.666 -13.667 186.999 -41s90.5 -65.5 117.5 -114.5s40.5 -106.5 40.5 -172.5
c0 -54.667 -10.333 -102.334 -31 -143.001s-50.667 -74.667 -90 -102h114v-122h-297v126c48.667 28 84.167 61 106.5 99s33.5 82 33.5 132c0 60.667 -16 109.167 -48 145.5s-76.333 54.5 -133 54.5s-101 -18.167 -133 -54.5s-48 -84.833 -48 -145.5
c0 -50 11.167 -94 33.5 -132s57.833 -71 106.5 -99v-126h-297z" />
    <glyph glyph-name="uni03BC" unicode="&#x3bc;" horiz-adv-x="600" 
d="M51 -143l0.000976562 617h161v-289c0 -26.667 6.5 -46.167 19.5 -58.5s32.5 -18.5 58.5 -18.5c19.333 0 37.666 4 54.999 12s31.666 18 42.999 30v324h161v-474h-150l-5 40c-16.667 -14.667 -36.667 -26.667 -60 -36s-50.666 -14 -81.999 -14
c-14.667 0 -28 2.33301 -40 7v-140h-161z" />
    <glyph glyph-name="pi" unicode="&#x3c0;" horiz-adv-x="683" 
d="M551 -10c-59.333 0 -103 15.833 -131 47.5s-42 76.5 -42 134.5v178h-133v-350h-161v350h-63v124h580v-124h-62v-168c0 -22.667 5.5 -38.667 16.5 -48s27.833 -14 50.5 -14c19.333 0 39 3.33301 59 10v-120c-15.333 -6.66699 -32 -11.667 -50 -15s-39.333 -5 -64 -5z" />
    <glyph glyph-name="uni0E01" unicode="&#xe01;" horiz-adv-x="627" 
d="M52 0l-0.00390625 170.998c0 28 5.33301 53.5 16 76.5s30.334 39.167 59.001 48.5l-96 27v136c28.667 22.667 66.334 43.5 113.001 62.5s100 28.5 160 28.5c89.333 0 156.5 -18.167 201.5 -54.5s67.5 -93.166 67.5 -170.499v-325h-161v324c0 38 -9.16699 65 -27.5 81
s-48.166 24 -89.499 24c-26 0 -50.167 -3.66699 -72.5 -11s-40.166 -16.666 -53.499 -27.999v-11l108 -31v-85c-24 -6.66699 -40.667 -17 -50 -31s-14 -35 -14 -63v-169h-161z" />
    <glyph glyph-name="uni0E02" unicode="&#xe02;" horiz-adv-x="605" 
d="M295 -10c-81.333 0 -144.002 18.5 -188.002 55.5s-66 87.833 -66 152.5v30c0 21.333 4 40.5 12 57.5s17 32.167 27 45.5l27 36.5c8 11 12 21.5 12 31.5c0 9.33301 -2.33301 15.833 -7 19.5s-12.667 5.5 -24 5.5h-59l13 116h156c31.333 0 53.833 -7 67.5 -21
s20.5 -35 20.5 -63c0 -22.667 -4.16699 -43 -12.5 -61s-18.166 -35 -29.499 -51s-21.166 -32.5 -29.499 -49.5s-12.5 -35.833 -12.5 -56.5v-44c0 -55.333 31 -83 93 -83c63.333 0 95 29.333 95 88v341h161v-339c0 -66 -22.833 -117.667 -68.5 -155s-108.167 -56 -187.5 -56z
" />
    <glyph glyph-name="uni0E03" unicode="&#xe03;" horiz-adv-x="606" 
d="M296 -10c-80.667 0 -142.999 16.498 -186.999 49.498s-66 81.833 -66 146.5v14c0 22.667 5.83301 44.334 17.5 65.001s25.167 40 40.5 58l40.5 48.5c11.667 14.333 17.5 26.5 17.5 36.5c0 12.667 -5.33301 19 -16 19c-9.33301 0 -17 -3.66699 -23 -11v-40h-92v164h99v-28
c10 7.33301 22.167 13.833 36.5 19.5s31.166 8.5 50.499 8.5c59.333 0 89 -29 89 -87c0 -26.667 -5 -50.167 -15 -70.5s-21.5 -39.166 -34.5 -56.499s-24.5 -34.333 -34.5 -51s-15 -35 -15 -55v-24c0 -56.667 30.667 -85 92 -85c63.333 0 95 29.333 95 88v341h161v-339
c0 -66 -22.833 -117.667 -68.5 -155s-108.167 -56 -187.5 -56z" />
    <glyph glyph-name="uni0E04" unicode="&#xe04;" horiz-adv-x="635" 
d="M51 0v327.001c0 71.333 22 126.333 66 165s110.333 58 199 58s155 -19.333 199 -58s66 -93.667 66 -165v-327h-161v333c0 30 -9 53.5 -27 70.5s-43.667 25.5 -77 25.5c-34.667 0 -60.667 -8.33301 -78 -25s-26 -40.334 -26 -71.001v-77c24 17.333 52 26 84 26h59l4 -127
h-65c-32 0 -59.333 -7.66699 -82 -23v-132h-161z" />
    <glyph glyph-name="uni0E05" unicode="&#xe05;" horiz-adv-x="635" 
d="M51 0l0.00488281 387c0 49.333 11.667 88.833 35 118.5s59.666 44.5 108.999 44.5c22 0 43.667 -3.83301 65 -11.5s39.666 -20.834 54.999 -39.501c15.333 18.667 34.666 31.834 57.999 39.501s46 11.5 68 11.5c49.333 0 85 -14.167 107 -42.5s33 -68.5 33 -120.5v-387
h-161v379c0 16 -2.33301 28.333 -7 37s-14.334 13 -29.001 13c-10.667 0 -19.334 -3 -26.001 -9s-12.334 -13.667 -17.001 -23h-50c-3.33301 9.33301 -7.66602 17 -12.999 23s-13.333 9 -24 9c-28 0 -42 -16.667 -42 -50v-123c22.667 17.333 50.667 26 84 26h59l4 -127h-66
c-31.333 0 -58.333 -7.66699 -81 -23v-132h-161z" />
    <glyph glyph-name="uni0E06" unicode="&#xe06;" horiz-adv-x="623" 
d="M380 -10c-36.667 0 -69.5 5.16797 -98.5 15.501s-54.833 24.166 -77.5 41.499l-6 -47h-149v194c0 24 5.83301 46.833 17.5 68.5s25.167 41.667 40.5 60l40.5 49c11.667 14.333 17.5 26.5 17.5 36.5c0 12.667 -5.33301 19 -16 19c-9.33301 0 -17 -3.66699 -23 -11v-40h-92
v164h99v-28c10 7.33301 22.167 13.833 36.5 19.5s31.166 8.5 50.499 8.5c59.333 0 89 -29 89 -87c0 -28.667 -5 -54 -15 -76s-21.5 -42.5 -34.5 -61.5s-24.5 -38.333 -34.5 -58s-15 -41.167 -15 -64.5v-35c12 -12.667 28.333 -23.667 49 -33s42 -14 64 -14
c28.667 0 50 7 64 21s21 36.333 21 67v341h161v-355c0 -62 -17.167 -110 -51.5 -144s-80.166 -51 -137.499 -51z" />
    <glyph glyph-name="uni0E07" unicode="&#xe07;" horiz-adv-x="571" 
d="M281 -10c-18.667 0 -39.5 1.33398 -62.5 4.00098s-42.833 7 -59.5 13l-148 364h157l108 -265c78 4 117 64 117 180c0 51.333 -8.16699 86.166 -24.5 104.499s-44.833 27.5 -85.5 27.5h-40v122h68c161.333 0 242 -84.667 242 -254c0 -69.333 -11.5 -125.833 -34.5 -169.5
s-55 -75.667 -96 -96s-88.167 -30.5 -141.5 -30.5z" />
    <glyph glyph-name="uni0E08" unicode="&#xe08;" horiz-adv-x="568" 
d="M277 -10c-18.667 0 -38.334 1.66406 -59.001 4.99707s-37 7.33301 -49 12l-67 181h-76l6 122h164l75 -200c34 2 60.167 16.167 78.5 42.5s27.5 66.833 27.5 121.5c0 38.667 -5.16699 69.334 -15.5 92.001s-27.666 38.834 -51.999 48.501s-57.5 14.5 -99.5 14.5
c-26.667 0 -55.334 -2.33301 -86.001 -7s-60 -11 -88 -19v114c30 9.33301 63.833 17.166 101.5 23.499s75.5 9.5 113.5 9.5c103.333 0 176.833 -23.667 220.5 -71s65.5 -115.666 65.5 -204.999c0 -62 -12.333 -114.167 -37 -156.5s-56.667 -74.166 -96 -95.499
s-81.666 -32 -126.999 -32z" />
    <glyph glyph-name="uni0E09" unicode="&#xe09;" horiz-adv-x="601" 
d="M213 -10c-54.667 0 -97.8359 15.667 -129.503 47s-47.5 77.666 -47.5 138.999v124h161v-100c0 -28.667 6.33301 -50.667 19 -66s33.667 -23 63 -23c23.333 0 43.833 4.33301 61.5 13s32.834 20.334 45.501 35.001v148c0 46 -11.333 77.833 -34 95.5
s-63.334 26.5 -122.001 26.5c-18 0 -39 -1.33301 -63 -4s-48 -6.16699 -72 -10.5s-45.333 -9.16602 -64 -14.499v114c32.667 11.333 70.5 20.166 113.5 26.499s85.167 9.5 126.5 9.5c98.667 0 169.334 -20.5 212.001 -61.5s64 -101.833 64 -182.5v-306h-149l-6 48
c-21.333 -16.667 -46.666 -30.5 -75.999 -41.5s-63.666 -16.5 -102.999 -16.5z" />
    <glyph glyph-name="uni0E0A" unicode="&#xe0a;" horiz-adv-x="606" 
d="M296 -10c-81.333 0 -143.999 18.499 -187.999 55.499s-66 87.833 -66 152.5v30c0 21.333 4 40.5 12 57.5s17 32.167 27 45.5l27 36.5c8 11 12 21.5 12 31.5c0 9.33301 -2.33301 15.833 -7 19.5s-12.667 5.5 -24 5.5h-59l13 116h155c31.333 0 53.833 -7 67.5 -21
s20.5 -35 20.5 -63c0 -22.667 -4.16699 -43 -12.5 -61s-18 -35 -29 -51s-20.667 -32.5 -29 -49.5s-12.5 -35.833 -12.5 -56.5v-44c0 -55.333 31 -83 93 -83c63.333 0 95 29.333 95 88v56c0 22.667 -4.33301 38.667 -13 48s-22 14 -40 14h-23l9 112h12
c19.333 0 33.166 5 41.499 15s12.5 27.333 12.5 52v54h162v-49c0 -31.333 -4.66699 -57.166 -14 -77.499s-27 -36.833 -53 -49.5c27.333 -13.333 45.333 -30 54 -50s13 -44.667 13 -74v-49c0 -66 -22.833 -117.667 -68.5 -155s-108.167 -56 -187.5 -56z" />
    <glyph glyph-name="uni0E0B" unicode="&#xe0b;" horiz-adv-x="607" 
d="M297 -10c-80.667 0 -142.997 16.666 -186.997 49.999s-66 81 -66 143v20c0 22.667 5.83301 44.167 17.5 64.5s25.167 39.333 40.5 57l40.5 47.5c11.667 14 17.5 26 17.5 36c0 12.667 -5.33301 19 -16 19c-9.33301 0 -17 -3.66699 -23 -11v-40h-92v164h99v-28
c10 7.33301 22.167 13.833 36.5 19.5s31.166 8.5 50.499 8.5c29.333 0 51.166 -7.66699 65.499 -23s21.5 -36.666 21.5 -63.999c0 -26.667 -4.83301 -50.334 -14.5 -71.001s-21 -39.667 -34 -57s-24.333 -34.5 -34 -51.5s-14.5 -35.5 -14.5 -55.5v-24
c0 -55.333 30.667 -83 92 -83c63.333 0 95 29.333 95 88v56c0 22.667 -4.33301 38.667 -13 48s-22 14 -40 14h-23l9 112h12c19.333 0 33.166 5 41.499 15s12.5 27.333 12.5 52v54h162v-49c0 -31.333 -4.66699 -57.166 -14 -77.499s-27 -36.833 -53 -49.5
c27.333 -13.333 45.333 -30 54 -50s13 -44.667 13 -74v-49c0 -66 -22.833 -117.667 -68.5 -155s-108.167 -56 -187.5 -56z" />
    <glyph glyph-name="uni0E0C" unicode="&#xe0c;" horiz-adv-x="958" 
d="M721 -10c-36.667 0 -68.334 5.16504 -95.001 15.498s-51.334 24.166 -74.001 41.499l-7 -47h-146v324c0 38 -8.16699 65 -24.5 81s-44.166 24 -83.499 24c-26 0 -49.5 -3.66699 -70.5 -11s-38.167 -16.666 -51.5 -27.999v-11l108 -31v-85
c-24 -6.66699 -40.667 -16.5 -50 -29.5s-14 -32.5 -14 -58.5v-28c0 -22.667 11.333 -34 34 -34h47v-113h-138c-31.333 0 -56.5 9.83301 -75.5 29.5s-28.5 44.834 -28.5 75.501v66c0 28 5.33301 53.5 16 76.5s30.334 39.167 59.001 48.5l-96 27v136
c28.667 22.667 65.667 43.5 111 62.5s98 28.5 158 28.5c87.333 0 152.166 -18.167 194.499 -54.5s63.5 -93.166 63.5 -170.499v-167c12 -12.667 27.5 -23.667 46.5 -33s38.833 -14 59.5 -14c28 0 48.167 7 60.5 21s18.5 36.333 18.5 67v341h161v-355
c0 -62 -16.167 -110 -48.5 -144s-77.166 -51 -134.499 -51z" />
    <glyph glyph-name="uni0E0D" unicode="&#xe0d;" horiz-adv-x="973" 
d="M670 -81c-20.667 0 -43.334 1.49707 -68.001 4.49707s-49.167 7.66699 -73.5 14s-46.166 14.5 -65.499 24.5v114c20 -10 42.333 -18.167 67 -24.5s49 -11 73 -14s44.667 -4.5 62 -4.5c45.333 0 77.666 4.33301 96.999 13s29 20.667 29 36c0 11.333 -4 20 -12 26
c-34.667 -12 -75 -18 -121 -18c-80.667 0 -144 17.5 -190 52.5s-69 91.833 -69 170.5v11c0 38 -8.16699 65 -24.5 81s-44.166 24 -83.499 24c-26 0 -49.5 -3.66699 -70.5 -11s-38.167 -16.666 -51.5 -27.999v-11l108 -31v-85c-24 -6.66699 -40.667 -16.5 -50 -29.5
s-14 -32.5 -14 -58.5v-28c0 -22.667 11.333 -34 34 -34h47v-113h-138c-31.333 0 -56.5 9.83301 -75.5 29.5s-28.5 44.834 -28.5 75.501v66c0 28 5.33301 53.5 16 76.5s30.334 39.167 59.001 48.5l-96 27v136c28.667 22.667 65.667 43.5 111 62.5s98 28.5 158 28.5
c87.333 0 152.166 -18.167 194.499 -54.5s63.5 -93.166 63.5 -170.499v-17c0 -37.333 8 -62.833 24 -76.5s41.333 -20.5 76 -20.5c35.333 0 60.833 8.66699 76.5 26s23.5 44.333 23.5 81v222h161v-217c0 -62 -15.333 -112.333 -46 -151c11.333 -10.667 21.333 -25 30 -43
s13 -37.333 13 -58c0 -50.667 -22 -88.667 -66 -114s-104 -38 -180 -38z" />
    <glyph glyph-name="uni0E0E" unicode="&#xe0e;" horiz-adv-x="660" 
d="M156 -198l-0.000976562 120.997c24 10.667 49.667 18.834 77 24.501s58 8.5 92 8.5c23.333 0 45.833 -2 67.5 -6s38.834 -9 51.501 -15v389c0 38 -8.66699 65 -26 81s-45.666 24 -84.999 24c-26 0 -50 -3.66699 -72 -11s-40 -16.666 -54 -27.999v-11l108 -31v-85
c-22.667 -7.33301 -37.167 -17.5 -43.5 -30.5s-9.5 -33.167 -9.5 -60.5v-46c0 -43.333 -11 -75.166 -33 -95.499s-53 -30.5 -93 -30.5h-100v113h29c12 0 20.333 2.66699 25 8s7 14 7 26v28c0 28 4.33301 52.5 13 73.5s27.334 36.833 56.001 47.5l-97 27v136
c29.333 22.667 67.166 43.5 113.499 62.5s99.5 28.5 159.5 28.5c87.333 0 153.166 -18.333 197.499 -55s66.5 -93.334 66.5 -170.001v-519h-154c-36.667 19.333 -83.667 29 -141 29c-26 0 -53.167 -3.16699 -81.5 -9.5s-52.833 -14.166 -73.5 -23.499z" />
    <glyph glyph-name="uni0E0F" unicode="&#xe0f;" horiz-adv-x="660" 
d="M438 -197c-28.667 0 -54.167 4.49902 -76.5 13.499s-39.833 20.167 -52.5 33.5c-8.66699 -13.333 -20.834 -24 -36.501 -32s-36.167 -12 -61.5 -12h-98l8 118h65c18.667 0 32.667 3.16699 42 9.5s16.666 16.833 21.999 31.5h99c3.33301 -13.333 8.83301 -24 16.5 -32
s18.834 -12 33.501 -12c30 0 45 15.333 45 46v357c0 38 -8.66699 65 -26 81s-45.666 24 -84.999 24c-26 0 -50 -3.66699 -72 -11s-40 -16.666 -54 -27.999v-11l108 -31v-85c-22.667 -7.33301 -37.167 -17.5 -43.5 -30.5s-9.5 -33.167 -9.5 -60.5v-46
c0 -43.333 -11 -75.166 -33 -95.499s-53 -30.5 -93 -30.5h-100v113h29c12 0 20.333 2.66699 25 8s7 14 7 26v28c0 28 4.33301 52.5 13 73.5s27.334 36.833 56.001 47.5l-97 27v136c29.333 22.667 67.166 43.5 113.499 62.5s99.5 28.5 159.5 28.5
c87.333 0 153.166 -18.333 197.499 -55s66.5 -93.334 66.5 -170.001v-361c0 -48.667 -14.667 -87.667 -44 -117s-70.666 -44 -123.999 -44z" />
    <glyph glyph-name="uni0E10" unicode="&#xe10;" horiz-adv-x="610" 
d="M277 -10c-18.667 0 -38.333 1.66504 -59 4.99805s-37 7.33301 -49 12l-67 181h-76l6 122h164l75 -200c34 2 60.167 16.167 78.5 42.5s27.5 66.833 27.5 121.5c0 38.667 -5.16699 69.334 -15.5 92.001s-27.666 38.834 -51.999 48.501s-57.5 14.5 -99.5 14.5
c-26.667 0 -55.334 -2.33301 -86.001 -7s-60 -11 -88 -19v114c30 9.33301 63.833 17.166 101.5 23.499s75.5 9.5 113.5 9.5c19.333 0 37.666 -0.833008 54.999 -2.5s33.333 -4.16699 48 -7.5h233l-8 -120h-76c11.333 -19.333 19.833 -41 25.5 -65s8.5 -51 8.5 -81
c0 -62 -12.333 -114.167 -37 -156.5s-56.667 -74.166 -96 -95.499s-81.666 -32 -126.999 -32zM355.001 -213.002c-30 0 -55.834 4.5 -77.501 13.5s-38.834 20.5 -51.501 34.5c-8.66699 -13.333 -20.667 -24.333 -36 -33s-35.666 -13 -60.999 -13h-87l8 115h58
c18.667 0 32.834 3.5 42.501 10.5s16.834 17.833 21.501 32.5h102c3.33301 -14.667 9.66602 -26 18.999 -34s22.333 -12 39 -12c36 0 54 15.333 54 46v22h129v-22c0 -48 -13.167 -86.667 -39.5 -116s-66.5 -44 -120.5 -44z" />
    <glyph glyph-name="uni0E11" unicode="&#xe11;" horiz-adv-x="620" 
d="M70 0l0.00195312 184.003c0 23.333 4.5 45.666 13.5 66.999s19.5 41.666 31.5 60.999s22.5 37 31.5 53s13.5 30.333 13.5 43s-5.33301 19 -16 19c-9.33301 0 -17 -3.66699 -23 -11v-40h-92v164h99v-28c10 7.33301 21.333 13.833 34 19.5s28.334 8.5 47.001 8.5
c27.333 0 49.333 -9.33301 66 -28c14.667 10.667 32.667 19.667 54 27s43.666 11 66.999 11c58 0 100.833 -15.5 128.5 -46.5s41.5 -77.167 41.5 -138.5v-365h-161v362c0 23.333 -3.66699 40.166 -11 50.499s-21.333 15.5 -42 15.5c-8.66699 0 -17.834 -2 -27.501 -6
s-17.834 -8.66699 -24.501 -14c0 -20.667 -3.5 -39.667 -10.5 -57s-15 -34.333 -24 -51s-17 -34.5 -24 -53.5s-10.5 -40.833 -10.5 -65.5v-181h-161z" />
    <glyph glyph-name="uni0E12" unicode="&#xe12;" horiz-adv-x="991" 
d="M261 -10c-44.667 0 -84.334 8.99707 -119.001 26.9971s-61.834 46.5 -81.501 85.5s-29.5 89.833 -29.5 152.5c0 96.667 16 170 48 220s77.667 75 137 75c27.333 0 49.5 -4.66699 66.5 -14s31.5 -21.666 43.5 -36.999c14.667 15.333 33.334 27.666 56.001 36.999
s46 14 70 14c51.333 0 87.333 -14.5 108 -43.5s31 -66.167 31 -111.5v-237c12 -12.667 27.5 -23.667 46.5 -33s38.833 -14 59.5 -14c28 0 48.167 7 60.5 21s18.5 36.333 18.5 67v341h161v-355c0 -62 -16.167 -110 -48.5 -144s-77.166 -51 -134.499 -51
c-36.667 0 -68.334 5.16699 -95.001 15.5s-51.334 24.166 -74.001 41.499l-7 -47h-145v366c0 20.667 -2.16699 36.334 -6.5 47.001s-14.166 16 -29.499 16c-22 0 -36.667 -13 -44 -39h-60c-6 12.667 -11.833 22.334 -17.5 29.001s-14.5 10 -26.5 10
c-16.667 0 -29.167 -7.66699 -37.5 -23s-13.833 -36.166 -16.5 -62.499s-4 -55.833 -4 -88.5c0 -53.333 8.66699 -90.666 26 -111.999s43.333 -32 78 -32c11.333 0 22.833 0.666992 34.5 2s21.834 3.33301 30.501 6v-113c-12.667 -4.66699 -27 -8.5 -43 -11.5
s-34.667 -4.5 -56 -4.5z" />
    <glyph glyph-name="uni0E13" unicode="&#xe13;" horiz-adv-x="962" 
d="M583 -10c-56.667 0 -101.333 16.9971 -134 50.9971s-49 82 -49 144v139c0 38 -8.33301 65 -25 81s-44.667 24 -84 24c-26 0 -49.5 -3.66699 -70.5 -11s-38.167 -16.666 -51.5 -27.999v-11l108 -31v-85c-24 -6.66699 -40.667 -16.5 -50 -29.5s-14 -32.5 -14 -58.5v-28
c0 -22.667 11.333 -34 34 -34h47v-113h-138c-31.333 0 -56.5 9.83301 -75.5 29.5s-28.5 44.834 -28.5 75.501v66c0 28 5.33301 53.5 16 76.5s30.334 39.167 59.001 48.5l-96 27v136c28.667 22.667 65.667 43.5 111 62.5s98 28.5 158 28.5
c87.333 0 152.166 -18.167 194.499 -54.5s63.5 -93.166 63.5 -170.499v-126c0 -30.667 6.5 -53 19.5 -67s33.5 -21 61.5 -21c21.333 0 41.5 4.66699 60.5 14s34.5 20.333 46.5 33v382h162v-540h-149l-7 47c-22 -18 -46.5 -32 -73.5 -42s-58.833 -15 -95.5 -15z" />
    <glyph glyph-name="uni0E14" unicode="&#xe14;" horiz-adv-x="657" 
d="M261 -10c-44.667 0 -84.334 8.99902 -119.001 26.999s-61.834 46.5 -81.501 85.5s-29.5 89.833 -29.5 152.5c0 94 24.333 166.667 73 218s122 77 220 77c66 0 119.5 -10.667 160.5 -32s71 -48.833 90 -82.5s28.5 -69.834 28.5 -108.501v-327h-162v314
c0 34.667 -8.16699 62.5 -24.5 83.5s-48.166 31.5 -95.499 31.5c-44 0 -76.667 -14.167 -98 -42.5s-32 -72.166 -32 -131.499c0 -53.333 8.66699 -90.666 26 -111.999s43.333 -32 78 -32c11.333 0 22.833 0.666992 34.5 2s21.834 3.33301 30.501 6v-113
c-12.667 -4.66699 -27 -8.5 -43 -11.5s-34.667 -4.5 -56 -4.5z" />
    <glyph glyph-name="uni0E15" unicode="&#xe15;" horiz-adv-x="660" 
d="M261 -10c-44.667 0 -84.3369 8.99609 -119.004 26.9961s-61.834 46.5 -81.501 85.5s-29.5 89.833 -29.5 152.5c0 96.667 16.667 170 50 220s80.333 75 141 75c27.333 0 49.666 -4.66699 66.999 -14s32 -21.666 44 -36.999c14.667 15.333 33.834 27.666 57.501 36.999
s47.834 14 72.501 14c50.667 0 87.167 -14.5 109.5 -43.5s33.5 -66.167 33.5 -111.5v-395h-162v366c0 20.667 -2.66699 36.334 -8 47.001s-15.666 16 -30.999 16c-22.667 0 -37.667 -13 -45 -39h-60c-6 12.667 -12 22.334 -18 29.001s-15 10 -27 10
c-17.333 0 -30.666 -7.66699 -39.999 -23s-15.666 -36.166 -18.999 -62.499s-5 -55.833 -5 -88.5c0 -53.333 8.66699 -90.666 26 -111.999s43.333 -32 78 -32c11.333 0 22.833 0.666992 34.5 2s21.834 3.33301 30.501 6v-113c-12.667 -4.66699 -27 -8.5 -43 -11.5
s-34.667 -4.5 -56 -4.5z" />
    <glyph glyph-name="uni0E16" unicode="&#xe16;" horiz-adv-x="627" 
d="M156 0c-31.333 0 -56.5039 9.83008 -75.5039 29.4971s-28.5 44.834 -28.5 75.501v66c0 28 5.33301 53.5 16 76.5s30.334 39.167 59.001 48.5l-96 27v136c28.667 22.667 66.334 43.5 113.001 62.5s100 28.5 160 28.5c89.333 0 156.5 -18.167 201.5 -54.5
s67.5 -93.166 67.5 -170.499v-325h-161v324c0 38 -9.16699 65 -27.5 81s-48.166 24 -89.499 24c-26 0 -50.167 -3.66699 -72.5 -11s-40.166 -16.666 -53.499 -27.999v-11l108 -31v-85c-24 -6.66699 -40.667 -16.5 -50 -29.5s-14 -32.5 -14 -58.5v-28
c0 -22.667 11.333 -34 34 -34h47v-113h-138z" />
    <glyph glyph-name="uni0E17" unicode="&#xe17;" horiz-adv-x="625" 
d="M51 0l0.000976562 540h149l6 -48c22.667 17.333 49.167 31.333 79.5 42s63.833 16 100.5 16c56.667 0 101.667 -17 135 -51s50 -81.333 50 -142v-357h-162v343c0 30 -6.83301 51.667 -20.5 65s-34.834 20 -63.501 20c-22 0 -43.333 -4.5 -64 -13.5s-37 -20.167 -49 -33.5
v-381h-161z" />
    <glyph glyph-name="uni0E18" unicode="&#xe18;" horiz-adv-x="544" 
d="M277 -10c-46.667 0 -90.835 4.16797 -132.502 12.501s-76.5 18.5 -104.5 30.5v195h144v-107c10 -4 22.833 -7.16699 38.5 -9.5s30.834 -3.5 45.501 -3.5c31.333 0 55.166 4.5 71.499 13.5s24.5 24.833 24.5 47.5c0 17.333 -6.66699 30.5 -20 39.5s-32.333 16.667 -57 23
s-54.334 13.5 -89.001 21.5c-32 8 -60.667 17.333 -86 28s-45.166 25 -59.499 43s-21.5 42 -21.5 72c0 48.667 20.5 86.5 61.5 113.5s103.833 40.5 188.5 40.5c42.667 0 82.334 -2.5 119.001 -7.5s64.667 -10.833 84 -17.5v-122c-22 9.33301 -49.667 16.333 -83 21
s-64.666 7 -93.999 7c-18.667 0 -37.167 -0.666992 -55.5 -2s-33.5 -4.33301 -45.5 -9s-18 -12.334 -18 -23.001c0 -12 7.83301 -21.167 23.5 -27.5s36 -12 61 -17s51.167 -11.5 78.5 -19.5c34.667 -9.33301 64 -20.166 88 -32.499s42.333 -28.833 55 -49.5
s19 -48.334 19 -83.001c0 -58 -21 -102.167 -63 -132.5s-99.667 -45.5 -173 -45.5z" />
    <glyph glyph-name="uni0E19" unicode="&#xe19;" horiz-adv-x="625" 
d="M238 -10c-56.667 0 -102 16.999 -136 50.999s-51 82 -51 144v355h161v-341c0 -30.667 7 -53 21 -67s35.333 -21 64 -21c22 0 43.167 4.66699 63.5 14s36.5 20.333 48.5 33v382h162v-540h-149l-7 47c-22.667 -17.333 -48.667 -31.166 -78 -41.499s-62.333 -15.5 -99 -15.5
z" />
    <glyph glyph-name="uni0E1A" unicode="&#xe1a;" horiz-adv-x="639" 
d="M318 -10c-81.333 0 -146.167 19.167 -194.5 57.5s-72.5 96.833 -72.5 175.5v317h161v-322c0 -36.667 8.66699 -63.667 26 -81s44 -26 80 -26c35.333 0 61.666 8.66699 78.999 26s26 44.333 26 81v322h162v-317c0 -78.667 -24.167 -137.167 -72.5 -175.5
s-113.166 -57.5 -194.499 -57.5z" />
    <glyph glyph-name="uni0E1B" unicode="&#xe1b;" horiz-adv-x="639" 
d="M318 -10c-81.333 0 -146.167 19.167 -194.5 57.5s-72.5 96.833 -72.5 175.5v317h161v-322c0 -36.667 8.66699 -63.667 26 -81s44 -26 80 -26c35.333 0 61.666 8.66699 78.999 26s26 44.333 26 81v482h162v-477c0 -78.667 -24.167 -137.167 -72.5 -175.5
s-113.166 -57.5 -194.499 -57.5z" />
    <glyph glyph-name="uni0E1C" unicode="&#xe1c;" horiz-adv-x="650" 
d="M51 0v440c0 28.667 7.33301 52.5 22 71.5s37 28.5 67 28.5h139l6 -113h-49c-26 0 -39 -13.667 -39 -41v-183l99 172h56l98 -172v337h146v-540h-147l-125 227l-126 -227h-147z" />
    <glyph glyph-name="uni0E1D" unicode="&#xe1d;" horiz-adv-x="650" 
d="M51 0v440c0 28.667 7.33301 52.5 22 71.5s37 28.5 67 28.5h139l6 -113h-49c-26 0 -39 -13.667 -39 -41v-183l99 172h56l98 -172v497h146v-700h-147l-125 227l-126 -227h-147z" />
    <glyph glyph-name="uni0E1E" unicode="&#xe1e;" horiz-adv-x="732" 
d="M138 0l-117 540h149l56 -319l77 224v95h112l93 -319l55 319h148l-118 -540h-136l-88 286l-95 -286h-136z" />
    <glyph glyph-name="uni0E1F" unicode="&#xe1f;" horiz-adv-x="732" 
d="M138 0l-117 540h149l56 -319l77 224v95h112l93 -319l79 479h148l-142 -700h-136l-88 286l-95 -286h-136z" />
    <glyph glyph-name="uni0E20" unicode="&#xe20;" horiz-adv-x="660" 
d="M36 0v112.999h29c12 0 20.333 2.66699 25 8s7 14 7 26v28c0 28 4.33301 52.5 13 73.5s27.334 36.833 56.001 47.5l-97 27v136c29.333 22.667 67.166 43.5 113.499 62.5s99.5 28.5 159.5 28.5c87.333 0 153.166 -18.333 197.499 -55s66.5 -93.334 66.5 -170.001v-325h-162
v324c0 38 -8.66699 65 -26 81s-45.666 24 -84.999 24c-26 0 -50 -3.66699 -72 -11s-40 -16.666 -54 -27.999v-11l108 -31v-85c-22.667 -7.33301 -37.167 -17.5 -43.5 -30.5s-9.5 -33.167 -9.5 -60.5v-46c0 -43.333 -11 -75.166 -33 -95.499s-53 -30.5 -93 -30.5h-100z" />
    <glyph glyph-name="uni0E21" unicode="&#xe21;" horiz-adv-x="625" 
d="M382 -10c-36.667 0 -69.502 5.16797 -98.502 15.501s-54.833 24.166 -77.5 41.499l-6 -47h-149v540h161v-382c12 -12.667 28.333 -23.667 49 -33s42 -14 64 -14c28.667 0 49.834 7 63.501 21s20.5 36.333 20.5 67v341h162v-355c0 -62 -17.167 -110 -51.5 -144
s-80.166 -51 -137.499 -51z" />
    <glyph glyph-name="uni0E22" unicode="&#xe22;" horiz-adv-x="622" 
d="M300 -10c-52.667 0 -99.334 6.1709 -140.001 18.5039s-72.5 31.5 -95.5 57.5s-34.5 60 -34.5 102c0 23.333 5.16699 44.666 15.5 63.999s25.833 35.333 46.5 48c-17.333 9.33301 -31.666 23.333 -42.999 42s-17 41 -17 67c0 53.333 17.333 93.5 52 120.5
s80.334 40.5 137.001 40.5c21.333 0 40.166 -1.33301 56.499 -4s30.5 -6.33398 42.5 -11.001v-114c-18 5.33301 -39.333 8 -64 8c-20.667 0 -36.5 -3.33301 -47.5 -10s-16.5 -18.667 -16.5 -36c0 -18.667 5.83301 -31.334 17.5 -38.001s28.5 -10 50.5 -10h53l6 -110h-60
c-46 0 -69 -19 -69 -57c0 -18.667 8.16699 -32.834 24.5 -42.501s43.5 -14.5 81.5 -14.5c73.333 0 110 29.667 110 89v340h162v-330c0 -76.667 -23.333 -132.5 -70 -167.5s-112.667 -52.5 -198 -52.5z" />
    <glyph glyph-name="uni0E23" unicode="&#xe23;" horiz-adv-x="503" 
d="M238 -10c-39.333 0 -76.8359 2.83301 -112.503 8.5s-64.167 12.834 -85.5 21.501v126c24.667 -10.667 52.334 -19.167 83.001 -25.5s58.667 -9.5 84 -9.5c38 0 65 2.66699 81 8s24 16 24 32c0 13.333 -4.66699 23.666 -14 30.999s-23.833 14.5 -43.5 21.5l-76.5 26.5
c-47.333 17.333 -83.666 37.166 -108.999 59.499s-38 54.5 -38 96.5c0 48.667 19.167 88.167 57.5 118.5s96.5 45.5 174.5 45.5c32.667 0 65.334 -2.5 98.001 -7.5s59 -10.5 79 -16.5v-125c-21.333 9.33301 -46 16.333 -74 21s-52.667 7 -74 7
c-28.667 0 -52.667 -2.83301 -72 -8.5s-29 -17.167 -29 -34.5c0 -11.333 5.16699 -20.5 15.5 -27.5s25.333 -13.5 45 -19.5s43.167 -14 70.5 -24c38 -14 68 -28 90 -42s37.5 -30.667 46.5 -50s13.5 -44 13.5 -74c0 -51.333 -20.5 -90.666 -61.5 -117.999
s-98.5 -41 -172.5 -41z" />
    <glyph glyph-name="uni0E24" unicode="&#xe24;" horiz-adv-x="627" 
d="M412 -160l-0.00390625 483.997c0 38 -9.16699 65 -27.5 81s-48.166 24 -89.499 24c-26 0 -50.167 -3.66699 -72.5 -11s-40.166 -16.666 -53.499 -27.999v-11l108 -31v-85c-24 -6.66699 -40.667 -16.5 -50 -29.5s-14 -32.5 -14 -58.5v-28c0 -22.667 11.333 -34 34 -34h47
v-113h-138c-31.333 0 -56.5 9.83301 -75.5 29.5s-28.5 44.834 -28.5 75.501v66c0 28 5.33301 53.5 16 76.5s30.334 39.167 59.001 48.5l-96 27v136c28.667 22.667 66.334 43.5 113.001 62.5s100 28.5 160 28.5c89.333 0 156.5 -18.167 201.5 -54.5
s67.5 -93.166 67.5 -170.499v-485h-161z" />
    <glyph glyph-name="uni0E25" unicode="&#xe25;" horiz-adv-x="602" 
d="M216 -10c-34.667 0 -66.001 5.66797 -94.001 17.001s-50.333 29.666 -67 54.999s-25 58.666 -25 99.999c0 55.333 18.5 97.833 55.5 127.5s89.167 44.5 156.5 44.5h144v20c0 26.667 -9.16699 45.834 -27.5 57.501s-48.833 17.5 -91.5 17.5
c-31.333 0 -62.166 -2.33301 -92.499 -7s-60.166 -11.667 -89.499 -21v116c28 9.33301 61.167 17.166 99.5 23.499s75.833 9.5 112.5 9.5c82.667 0 145.167 -17.667 187.5 -53s63.5 -89.666 63.5 -162.999v-334h-162v220h-119c-24.667 0 -44.167 -4 -58.5 -12
s-21.5 -23.667 -21.5 -47c0 -21.333 6.16699 -36 18.5 -44s31.833 -12 58.5 -12c11.333 0 22.166 0.5 32.499 1.5s19.5 2.83301 27.5 5.5v-108c-26.667 -9.33301 -62.667 -14 -108 -14z" />
    <glyph glyph-name="uni0E26" unicode="&#xe26;" horiz-adv-x="660" 
d="M444 -160v483.999c0 38 -8.66699 65 -26 81s-45.666 24 -84.999 24c-26 0 -50 -3.66699 -72 -11s-40 -16.666 -54 -27.999v-11l108 -31v-85c-22.667 -7.33301 -37.167 -17.5 -43.5 -30.5s-9.5 -33.167 -9.5 -60.5v-46c0 -43.333 -11 -75.166 -33 -95.499
s-53 -30.5 -93 -30.5h-100v113h29c12 0 20.333 2.66699 25 8s7 14 7 26v28c0 28 4.33301 52.5 13 73.5s27.334 36.833 56.001 47.5l-97 27v136c29.333 22.667 67.166 43.5 113.499 62.5s99.5 28.5 159.5 28.5c87.333 0 153.166 -18.333 197.499 -55
s66.5 -93.334 66.5 -170.001v-485h-162z" />
    <glyph glyph-name="uni0E27" unicode="&#xe27;" horiz-adv-x="514" 
d="M207 -10c-34.667 0 -67.499 2.66602 -98.499 7.99902s-59.5 14 -85.5 26v120c21.333 -10 44.666 -18 69.999 -24s50.333 -9 75 -9c56.667 0 97.5 12.333 122.5 37s37.5 65.334 37.5 122.001c0 56 -12.5 96.5 -37.5 121.5s-65.5 37.5 -121.5 37.5
c-24.667 0 -49.834 -2.83301 -75.501 -8.5s-49.167 -13.167 -70.5 -22.5v118c54.667 22.667 116.334 34 185.001 34c186.667 0 280 -93.333 280 -280s-93.667 -280 -281 -280z" />
    <glyph glyph-name="uni0E28" unicode="&#xe28;" horiz-adv-x="663" 
d="M51 0v327c0 71.333 22 126.333 66 165s110.333 58 199 58c18 0 35 -0.833008 51 -2.5s31.333 -4.16699 46 -7.5h219l-8 -120h-66c9.33301 -12.667 15.5 -28.5 18.5 -47.5s4.5 -38.833 4.5 -59.5v-313h-162v335c0 30 -8.83301 53.167 -26.5 69.5s-43.167 24.5 -76.5 24.5
c-69.333 0 -104 -31.333 -104 -94v-79c24 17.333 52 26 84 26h59l4 -127h-65c-32 0 -59.333 -7.66699 -82 -23v-132h-161z" />
    <glyph glyph-name="uni0E29" unicode="&#xe29;" horiz-adv-x="650" 
d="M318 -10c-80.667 0 -145.333 19.167 -194 57.5s-73 96.833 -73 175.5v317h162v-322c0 -36.667 8.66699 -63.667 26 -81s43.666 -26 78.999 -26c36 0 62.667 8.66699 80 26s26 44.333 26 81v53h-101v123h101v146h161v-146h59l-11 -123h-48v-48
c0 -78.667 -24.167 -137.167 -72.5 -175.5s-113.166 -57.5 -194.499 -57.5z" />
    <glyph glyph-name="uni0E2A" unicode="&#xe2a;" horiz-adv-x="626" 
d="M216 -10c-34 0 -65.168 5.33203 -93.501 15.999s-50.833 28.334 -67.5 53.001s-25 57.667 -25 99c0 55.333 18.5 98.5 55.5 129.5s89.167 46.5 156.5 46.5h145v20c0 26.667 -9.33301 45.834 -28 57.501s-49 17.5 -91 17.5c-32 0 -63 -2.33301 -93 -7
s-59.667 -11.667 -89 -21v116c28 9.33301 61 17.166 99 23.499s75.333 9.5 112 9.5c18 0 35 -0.833008 51 -2.5s31.333 -4.16699 46 -7.5h201l-8 -120h-59c6.66699 -10.667 11.667 -24.5 15 -41.5s5 -34.5 5 -52.5v-326h-161v220h-119c-25.333 0 -45.166 -4 -59.499 -12
s-21.5 -23.667 -21.5 -47c0 -21.333 6.16699 -36 18.5 -44s32.166 -12 59.499 -12c10.667 0 21.334 0.5 32.001 1.5s20 2.83301 28 5.5v-108c-28 -9.33301 -64.333 -14 -109 -14z" />
    <glyph glyph-name="uni0E2B" unicode="&#xe2b;" horiz-adv-x="618" 
d="M51 0v539.999h161v-155h112c29.333 0 49.666 6.66699 60.999 20s17 33.333 17 60v75h162v-79c0 -30.667 -5.16699 -58.167 -15.5 -82.5s-28.833 -42.166 -55.5 -53.499c25.333 -10.667 43 -26.667 53 -48s15 -46 15 -74v-203h-162v182c0 29.333 -5.66699 50 -17 62
s-31.666 18 -60.999 18h-109v-262h-161z" />
    <glyph glyph-name="uni0E2C" unicode="&#xe2c;" horiz-adv-x="732" 
d="M138 0l-117.004 539.999h149l57 -324l79 189v95h107l96 -284l32 213c4.66699 30 3.83398 51 -2.49902 63s-20.166 18 -41.499 18h-35l18 104h43c22.667 0 38.834 4.33301 48.501 13s16.834 23.334 21.501 44.001l6 29h137l-10 -49c-5.33301 -26.667 -14 -47.5 -26 -62.5
s-28.667 -25.167 -50 -30.5c32 -20.667 42 -61 30 -121l-87 -437h-136l-88 253l-94 -253h-137z" />
    <glyph glyph-name="uni0E2D" unicode="&#xe2d;" horiz-adv-x="593" 
d="M274 -10c-46 0 -89.6709 4.16504 -131.004 12.498s-75.666 18.5 -102.999 30.5v286h240l7 -111h-90v-87c11.333 -3.33301 23.333 -5.83301 36 -7.5s26 -2.5 40 -2.5c48 0 81.5 11.833 100.5 35.5s28.5 63.834 28.5 120.501c0 42 -5.5 74.833 -16.5 98.5
s-28.833 40.167 -53.5 49.5s-57.667 14 -99 14c-28.667 0 -59.5 -2.33301 -92.5 -7s-64.5 -11.667 -94.5 -21v116c32.667 10.667 69.334 18.834 110.001 24.501s79.334 8.5 116.001 8.5c101.333 0 175 -24 221 -72s69 -118.333 69 -211c0 -90 -22.667 -158.667 -68 -206
s-118.666 -71 -219.999 -71z" />
    <glyph glyph-name="uni0E2E" unicode="&#xe2e;" horiz-adv-x="633" 
d="M274 -10c-46 0 -89.6719 4.16406 -131.005 12.4971s-75.666 18.5 -102.999 30.5v286h240l7 -111h-90v-87c11.333 -3.33301 23.333 -5.83301 36 -7.5s26 -2.5 40 -2.5c48 0 81.5 11.833 100.5 35.5s28.5 63.834 28.5 120.501c0 42 -5.5 74.833 -16.5 98.5
s-28.833 40.167 -53.5 49.5s-57.667 14 -99 14c-28.667 0 -59.5 -2.33301 -92.5 -7s-64.5 -11.667 -94.5 -21v116c32.667 10.667 69.334 18.834 110.001 24.501s79.334 8.5 116.001 8.5c18.667 0 36.334 -0.833008 53.001 -2.5s32.334 -4.16699 47.001 -7.5h230l-8 -120h-68
c11.333 -21.333 20.166 -44.666 26.499 -69.999s9.5 -53 9.5 -83c0 -90 -22.667 -158.667 -68 -206s-118.666 -71 -219.999 -71z" />
    <glyph glyph-name="uni0E2F" unicode="&#xe2f;" horiz-adv-x="599" 
d="M384 0v234.998c-15.333 -8 -34.5 -15.167 -57.5 -21.5s-47.167 -9.5 -72.5 -9.5c-64.667 0 -116.5 15.333 -155.5 46s-58.5 77.334 -58.5 140.001c0 29.333 4 56.333 12 81s19.333 47.667 34 69h154c-26.667 -45.333 -40 -88.666 -40 -129.999
c0 -30.667 7.66699 -53 23 -67s37 -21 65 -21c21.333 0 39.5 2.5 54.5 7.5s28.833 12.167 41.5 21.5v189h161v-540h-161z" />
    <glyph glyph-name="uni0E30" unicode="&#xe30;" horiz-adv-x="324" 
d="M31 312v162h128v-48h136l-5 -114h-259zM31 49v162h128v-49h136l-5 -113h-259z" />
    <glyph glyph-name="uni0E31" unicode="&#xe31;" 
d="M-328 605v172h126v-67h244l-6 -105h-364z" />
    <glyph glyph-name="uni0E32" unicode="&#xe32;" horiz-adv-x="447" 
d="M232 0l-0.000976562 325.998c0 34.667 -6.66699 60.5 -20 77.5s-38.666 25.5 -75.999 25.5c-22.667 0 -45.5 -2.66699 -68.5 -8s-44.167 -11.666 -63.5 -18.999v114c20 9.33301 45 17.333 75 24s60.333 10 91 10c78.667 0 135.5 -17.167 170.5 -51.5
s52.5 -86.166 52.5 -155.499v-343h-161z" />
    <glyph glyph-name="uni0E33" unicode="&#xe33;" horiz-adv-x="447" 
d="M-133 575c-36 0 -66.5 11.5 -91.5 34.5s-37.5 52.167 -37.5 87.5c0 36 12.5 65.5 37.5 88.5s55.5 34.5 91.5 34.5c35.333 0 65.5 -11.5 90.5 -34.5s37.5 -52.5 37.5 -88.5c0 -35.333 -12.5 -64.5 -37.5 -87.5s-55.167 -34.5 -90.5 -34.5zM-133 656
c11.333 0 21 4.16699 29 12.5s12 17.833 12 28.5c0 11.333 -4 21.166 -12 29.499s-17.667 12.5 -29 12.5s-21.166 -4.16699 -29.499 -12.5s-12.5 -18.166 -12.5 -29.499c0 -10.667 4.16699 -20.167 12.5 -28.5s18.166 -12.5 29.499 -12.5zM232 0l-0.000976562 325.998
c0 34.667 -6.66699 60.5 -20 77.5s-38.666 25.5 -75.999 25.5c-22.667 0 -45.5 -2.66699 -68.5 -8s-44.167 -11.666 -63.5 -18.999v114c20 9.33301 45 17.333 75 24s60.333 10 91 10c78.667 0 135.5 -17.167 170.5 -51.5s52.5 -86.166 52.5 -155.499v-343h-161z" />
    <glyph glyph-name="uni0E34" unicode="&#xe34;" 
d="M-512 605l8 109h449v-109h-457z" />
    <glyph glyph-name="uni0E35" unicode="&#xe35;" 
d="M-512 605l8 109h318v78h131v-187h-457z" />
    </font>
</defs>
</svg>
