<?xml version="1.0" standalone="no"?>
<!DOCTYPE svg PUBLIC "-//W3C//DTD SVG 1.1//EN" "http://www.w3.org/Graphics/SVG/1.1/DTD/svg11.dtd" >
<svg>
<metadata>
Created by FontForge 20090914 at Tue Dec 10 22:54:01 2019
 By www-data
Copyright 2018 The Sarabun Project Authors (https://github.com/cadsondemak/Sarabun)
</metadata>
<defs>
<font id="Sarabun-BoldItalic" horiz-adv-x="0" >
  <font-face 
    font-family="Sarabun"
    font-weight="700"
    font-style="italic"
    font-stretch="normal"
    units-per-em="1000"
    panose-1="0 0 8 0 0 0 0 0 0 0"
    ascent="800"
    descent="-200"
    x-height="500"
    cap-height="700"
    bbox="-633.998 -559 1332 1281"
    underline-thickness="50"
    underline-position="-50"
    slope="-10"
    unicode-range="U+000D-U+FB02"
  />
<missing-glyph horiz-adv-x="700" 
d="M118 750h500v-750h-500v750zM574 41v668h-412v-668h412z" />
    <glyph glyph-name="fi" unicode="fi" horiz-adv-x="615" 
d="M121 413h-81.001l15 87h82l10 60c8.66699 49.333 29.667 87.833 63 115.5s76.333 41.5 129 41.5c25.333 0 49.333 -4 72 -12s39.334 -18.333 50.001 -31l-58 -76c-6.66699 6.66699 -15 12.167 -25 16.5s-20.333 6.5 -31 6.5c-18.667 0 -34.667 -6.33301 -48 -19
s-22 -30 -26 -52l-9 -50h141l-15 -87h-141l-73 -413h-127zM500.999 575c-13.333 11.333 -20 25.666 -20 42.999c0 26.667 9 48.334 27 65.001s41.333 25 70 25c20.667 0 37.5 -5.66699 50.5 -17s19.5 -25.666 19.5 -42.999c0 -26.667 -9 -48.334 -27 -65.001
s-41 -25 -69 -25c-20.667 0 -37.667 5.66699 -51 17zM477.999 500h127l-88 -500h-127z" />
    <glyph glyph-name="fl" unicode="fl" horiz-adv-x="653" 
d="M121 413h-81.001l15 87h82l10 60c8.66699 49.333 29.667 87.833 63 115.5s76.333 41.5 129 41.5c25.333 0 49.333 -4 72 -12s39.334 -18.333 50.001 -31l-58 -76c-6.66699 6.66699 -15 12.167 -25 16.5s-20.333 6.5 -31 6.5c-18.667 0 -34.667 -6.33301 -48 -19
s-22 -30 -26 -52l-9 -50h141l-15 -87h-141l-73 -413h-127zM419.999 15.5c-18.667 17 -28 41.5 -28 73.5c0 10.667 1 22 3 34l110 619h127l-110 -620c-0.666992 -2.66699 -1 -6.66699 -1 -12c0 -20.667 13.333 -31 40 -31c14.667 0 34.334 4.33301 59.001 13l7 -68
c-34 -22.667 -75.333 -34 -124 -34c-36.667 0 -64.334 8.5 -83.001 25.5z" />
    <glyph glyph-name="uni0E240E45" unicode="&#xe24;&#xe45;" horiz-adv-x="907" 
d="M823 548.5c34.667 -25 51.999 -59.166 51.999 -102.499c0 -9.33301 -1 -19.666 -3 -30.999l-116 -665h-128l116 657c0.666992 4 1 9.66699 1 17c0 19.333 -6.33301 34.5 -19 45.5s-31 16.5 -55 16.5c-28.667 0 -53 -8.83301 -73 -26.5s-33.333 -41.167 -40 -70.5
c0 -4 -0.333008 -7 -1 -9l-110 -630h-128l109 616c1.33301 6 2 14.333 2 25c0 28.667 -9.33301 51.667 -28 69s-43.667 26 -75 26s-60.666 -6.66699 -87.999 -20s-47.333 -30.666 -60 -51.999c46.667 -10.667 83 -24.667 109 -42l-7 -36
c-25.333 -8.66699 -45.666 -21.334 -60.999 -38.001s-25 -36.667 -29 -60l-6 -33h5c27.333 0 49.666 -7.83301 66.999 -23.5s26 -36.167 26 -61.5c0 -38.667 -13 -70 -39 -94s-59.333 -36 -100 -36c-32.667 0 -58.5 8.66699 -77.5 26s-28.5 40.666 -28.5 69.999
c0 4.66699 0.666992 11.667 2 21l22 125c4.66699 23.333 15 44.833 31 64.5s35.333 34.5 58 44.5c-28 7.33301 -61 13.333 -99 18c5.33301 44 21.333 83.167 48 117.5s61.167 61.166 103.5 80.499s89.166 29 140.499 29c36 0 68.167 -4.83301 96.5 -14.5
s51.833 -23.5 70.5 -41.5c44.667 37.333 101 56 169 56c60.667 0 108.334 -12.5 143.001 -37.5zM207.499 132.501c-7 6.33301 -16.166 9.50098 -27.499 9.50098c-16 0 -29 -5 -39 -15s-15 -22.667 -15 -38c0 -10.667 3.5 -19.334 10.5 -26.001s16.167 -10 27.5 -10
c15.333 0 28.166 5 38.499 15s15.5 23 15.5 39c0 10.667 -3.5 19.167 -10.5 25.5z" />
    <glyph glyph-name="uni0E260E45" unicode="&#xe26;&#xe45;" horiz-adv-x="930" 
d="M845.5 549c35 -24.667 52.501 -59.001 52.501 -103.001c0 -9.33301 -1 -19.666 -3 -30.999l-116 -665h-128l116 657c1.33301 8 2 13.667 2 17c0 20 -6.5 35.333 -19.5 46s-31.5 16 -55.5 16c-26.667 0 -50 -8 -70 -24s-33.667 -37.667 -41 -65
c0 -3.33301 -0.666992 -9 -2 -17l-111 -630h-127l108 616c2 10 3 19.333 3 28c0 28.667 -8.66699 51.167 -26 67.5s-41.333 24.5 -72 24.5c-28.667 0 -55.834 -6 -81.501 -18s-45.5 -30 -59.5 -54c21.333 -5.33301 42.5 -11.833 63.5 -19.5s37.5 -15.167 49.5 -22.5l-7 -36
c-28 -10 -48.167 -23.167 -60.5 -39.5s-18.5 -39.833 -18.5 -70.5v-27c0 -72 -13.167 -124.833 -39.5 -158.5s-66.166 -50.5 -119.499 -50.5c-29.333 0 -53.166 8 -71.499 24s-27.5 36.667 -27.5 62c0 38 11.667 69 35 93s53.666 36 90.999 36c8.66699 0 16 -1.33301 22 -4
c-1.33301 10.667 -2 19 -2 25c0 24 5.5 46.5 16.5 67.5s24.833 36.833 41.5 47.5c-32 8 -65 14 -99 18c5.33301 44 20.833 83.333 46.5 118s59 61.5 100 80.5s86.833 28.5 137.5 28.5c35.333 0 67 -4.5 95 -13.5s51 -22.167 69 -39.5c43.333 35.333 98.666 53 165.999 53
c60 0 107.5 -12.333 142.5 -37zM127.001 68.499c10 10.333 15.001 23.167 15.001 38.5c0 10.667 -3.5 19.334 -10.5 26.001s-16.167 10 -27.5 10c-16 0 -29 -5 -39 -15s-15 -23 -15 -39c0 -10.667 3.66699 -19.334 11 -26.001s16.666 -10 27.999 -10
c15.333 0 28 5.16699 38 15.5z" />
    <glyph glyph-name=".notdef" horiz-adv-x="700" 
d="M118 750h500v-750h-500v750zM574 41v668h-412v-668h412z" />
    <glyph glyph-name="NULL" 
 />
    <glyph glyph-name="NULL" 
 />
    <glyph glyph-name="nonmarkingreturn" unicode="&#xd;" horiz-adv-x="233" 
 />
    <glyph glyph-name="space" unicode=" " horiz-adv-x="233" 
 />
    <glyph glyph-name="exclam" unicode="!" horiz-adv-x="256" 
d="M131 700h153l-100 -481h-123zM25 9.5c-14.667 13 -22 29.832 -22 50.499c0 31.333 10.167 56.833 30.5 76.5s46.833 29.5 79.5 29.5c23.333 0 42.333 -6.66699 57 -20s22 -30.333 22 -51c0 -31.333 -10.167 -56.666 -30.5 -75.999s-46.833 -29 -79.5 -29
c-23.333 0 -42.333 6.5 -57 19.5z" />
    <glyph glyph-name="quotedbl" unicode="&#x22;" horiz-adv-x="405" 
d="M116 710h135l-57 -262h-114zM316 710h135l-56 -262h-114z" />
    <glyph glyph-name="numbersign" unicode="#" horiz-adv-x="707" 
d="M607 414l-38 -128h82l-18 -103h-95l-55 -183h-136l55 183h-154l-55 -183h-136l55 183h-81l18 103h94l38 128h-90l18 103h103l55 183h136l-55 -183h154l55 183h136l-55 -183h73l-18 -103h-86zM471 414h-154l-38 -128h154z" />
    <glyph glyph-name="dollar" unicode="$" horiz-adv-x="541" 
d="M483 324.5c22 -29.667 32.999 -64.5 32.999 -104.5c0 -64.667 -20.333 -117 -61 -157s-97.334 -63.667 -170.001 -71l-12 -71h-110l13 74c-38.667 7.33301 -73 21.333 -103 42s-53.333 46.334 -70 77.001l98 80c16.667 -26.667 38.667 -48.167 66 -64.5
s55 -24.5 83 -24.5c36.667 0 65.834 8.33301 87.501 25s32.5 39 32.5 67c0 16.667 -7.5 32.334 -22.5 47.001s-42.833 33 -83.5 55c-58 31.333 -100.167 63.166 -126.5 95.499s-39.5 67.833 -39.5 106.5c0 54.667 18.333 100.167 55 136.5s86.334 59.166 149.001 68.499
l11 63h110l-11 -63c36.667 -6 68.667 -18.167 96 -36.5s47.333 -41.166 60 -68.499l-103 -68c-26 41.333 -63.333 62 -112 62c-33.333 0 -59.833 -7.16699 -79.5 -21.5s-29.5 -33.5 -29.5 -57.5c0 -16 9.5 -31.833 28.5 -47.5s54.167 -36.5 105.5 -62.5
c48 -24.667 83 -51.834 105 -81.501z" />
    <glyph glyph-name="percent" unicode="%" horiz-adv-x="968" 
d="M122 340.5c-26.667 29 -40.001 67.5 -40.001 115.5c0 46.667 9.66699 89.334 29 128.001s45.5 69.334 78.5 92.001s69.5 34 109.5 34c44.667 0 80.334 -14.5 107.001 -43.5s40 -67.5 40 -115.5c0 -46.667 -9.66699 -89.334 -29 -128.001s-45.5 -69.334 -78.5 -92.001
s-69.167 -34 -108.5 -34c-45.333 0 -81.333 14.5 -108 43.5zM700.999 700h147l-553 -713h-147zM285.499 416c12.333 13.333 22.333 31.332 30 53.999s11.5 46.667 11.5 72c0 20.667 -4 37.334 -12 50.001s-18.667 19 -32 19c-14.667 0 -28.167 -6.66699 -40.5 -20
s-22.333 -31.166 -30 -53.499s-11.5 -46.5 -11.5 -72.5c0 -20.667 4 -37.334 12 -50.001s18.667 -19 32 -19c14.667 0 28.167 6.66699 40.5 20zM597.999 34.499c-26.667 29 -40 67.5 -40 115.5c0 46.667 9.66699 89.334 29 128.001s45.5 69.334 78.5 92.001
s69.5 34 109.5 34c44.667 0 80.334 -14.5 107.001 -43.5s40 -67.5 40 -115.5c0 -46.667 -9.66699 -89.334 -29 -128.001s-45.5 -69.334 -78.5 -92.001s-69.5 -34 -109.5 -34c-44.667 0 -80.334 14.5 -107.001 43.5zM761.499 109.999
c12.333 13.333 22.334 31.332 30.001 53.999s11.5 46.667 11.5 72c0 20.667 -4 37.334 -12 50.001s-18.667 19 -32 19c-14.667 0 -28.334 -6.83301 -41.001 -20.5s-22.667 -31.667 -30 -54s-11 -46.166 -11 -71.499c0 -20.667 4 -37.334 12 -50.001s18.667 -19 32 -19
c14.667 0 28.167 6.66699 40.5 20z" />
    <glyph glyph-name="ampersand" unicode="&#x26;" horiz-adv-x="697" 
d="M573 143l65.002 -60l-96 -93l-71 64c-67.333 -42.667 -140 -64 -218 -64c-70 0 -125.833 15.833 -167.5 47.5s-62.5 74.5 -62.5 128.5c0 47.333 15.167 91.5 45.5 132.5s72.5 74.5 126.5 100.5c-18.667 41.333 -28 78.333 -28 111c0 38 9.66699 72.167 29 102.5
s45.666 54.166 78.999 71.499s70.666 26 111.999 26c48.667 0 87.667 -12.167 117 -36.5s44 -56.166 44 -95.499c0 -42 -14.833 -81.667 -44.5 -119s-73.167 -71 -130.5 -101c28.667 -40.667 68.334 -86 119.001 -136c25.333 36 44 75 56 117h123
c-16.667 -72 -49.334 -137.333 -98.001 -196zM319.002 584c-14 -14.667 -21 -33.668 -21 -57.001c0 -27.333 10.333 -59.666 31 -96.999c28 20.667 49.833 42.667 65.5 66s23.5 45.333 23.5 66c0 14 -4.16699 24.833 -12.5 32.5s-19.5 11.5 -33.5 11.5
c-21.333 0 -39 -7.33301 -53 -22zM201.502 128.499c19.667 -15 46.833 -22.5 81.5 -22.5c38.667 0 75 9 109 27c-59.333 61.333 -106.333 117 -141 167l-9 14c-22 -18 -39.167 -37.5 -51.5 -58.5s-18.5 -42.5 -18.5 -64.5c0 -26.667 9.83301 -47.5 29.5 -62.5z" />
    <glyph glyph-name="quotesingle" unicode="'" horiz-adv-x="205" 
d="M116 710h135l-57 -262h-114z" />
    <glyph glyph-name="parenleft" unicode="(" horiz-adv-x="354" 
d="M45 217c0 70 9.99805 139.003 29.998 207.003s48.333 130.167 85 186.5s79.334 102.833 128.001 139.5h131c-44 -32.667 -83.833 -77.834 -119.5 -135.501s-63.5 -121.334 -83.5 -191.001s-30 -138.834 -30 -207.501c0 -60 7.83301 -114 23.5 -162
s37.834 -86.333 66.501 -115h-131c-66.667 68 -100 160.667 -100 278z" />
    <glyph glyph-name="parenright" unicode=")" horiz-adv-x="354" 
d="M87 73.5c35.333 57.667 63.168 121.499 83.501 191.499s30.5 139.333 30.5 208c0 60 -7.83301 114 -23.5 162s-37.834 86.333 -66.501 115h131c66.667 -67.333 100 -160.333 100 -279c0 -106.667 -22 -208.167 -66 -304.5s-103 -172.166 -177 -227.499h-131
c44 32 83.667 76.833 119 134.5z" />
    <glyph glyph-name="asterisk" unicode="*" horiz-adv-x="448" 
d="M99 399l109 111l-140 -9l15 91l138 -8l-69 111l96 50l41 -127l85 127l80 -50l-109 -111l140 8l-16 -91l-137 9l69 -111l-96 -51l-41 128l-86 -128z" />
    <glyph glyph-name="plus" unicode="+" horiz-adv-x="617" 
d="M241 214h-201l18 96h200l38 214h122l-38 -214h201l-17 -96h-201l-38 -214h-122z" />
    <glyph glyph-name="comma" unicode="," horiz-adv-x="291" 
d="M185.5 133.5c14.333 -15 21.498 -34.499 21.498 -58.499c0 -44.667 -16.5 -92 -49.5 -142s-75.167 -91.333 -126.5 -124l-46 65c18.667 13.333 36.834 30.5 54.501 51.5s32.167 42.833 43.5 65.5c-2 -0.666992 -5.33301 -1 -10 -1c-16 0 -29 5.66699 -39 17
s-15 25.666 -15 42.999c0 31.333 10.333 56.833 31 76.5s47.334 29.5 80.001 29.5c22.667 0 41.167 -7.5 55.5 -22.5z" />
    <glyph glyph-name="hyphen" unicode="-" horiz-adv-x="340" 
d="M34 310h293l-15 -88h-294z" />
    <glyph glyph-name="period" unicode="." horiz-adv-x="291" 
d="M49 10c-13.333 12.667 -20 28.667 -20 48c0 30.667 9.33301 55.667 28 75s43 29 73 29c20.667 0 37.667 -6.33301 51 -19s20 -29 20 -49c0 -30 -9.5 -54.667 -28.5 -74s-43.167 -29 -72.5 -29c-20.667 0 -37.667 6.33301 -51 19z" />
    <glyph glyph-name="slash" unicode="/" horiz-adv-x="468" 
d="M442 725h130l-515 -768h-130z" />
    <glyph glyph-name="zero" unicode="0" horiz-adv-x="565" 
d="M134.5 21c-32.333 20.667 -57.501 49.499 -75.501 86.499s-27 79.167 -27 126.5c0 93.333 13.667 176 41 248s65.5 128 114.5 168s105.167 60 168.5 60c41.333 0 78 -10.333 110 -31s57 -49.5 75 -86.5s27 -78.833 27 -125.5c0 -93.333 -13.667 -176.166 -41 -248.499
s-65.5 -128.5 -114.5 -168.5s-104.833 -60 -167.5 -60c-41.333 0 -78.166 10.333 -110.499 31zM343.999 142.999c26 32.667 46.166 78.167 60.499 136.5s21.5 124.833 21.5 199.5c0 37.333 -7.5 67.833 -22.5 91.5s-34.167 35.5 -57.5 35.5
c-33.333 0 -63.166 -16.167 -89.499 -48.5s-46.666 -77.5 -60.999 -135.5s-21.5 -124.667 -21.5 -200c0 -38 7.66699 -68.833 23 -92.5s34.666 -35.5 57.999 -35.5c33.333 0 63 16.333 89 49z" />
    <glyph glyph-name="one" unicode="1" horiz-adv-x="565" 
d="M92 107h113l76 432l-143 -77l22 128l199 110h94l-104 -593h112l-19 -107h-369z" />
    <glyph glyph-name="two" unicode="2" horiz-adv-x="565" 
d="M30 104c72.667 45.333 137.501 93.834 194.501 145.501s101.5 101.667 133.5 150s48 90.166 48 125.499c0 22.667 -6.66699 40.167 -20 52.5s-32 18.5 -56 18.5c-30 0 -60.333 -8 -91 -24s-57.334 -38 -80.001 -66l-64 83c29.333 38.667 66 68.5 110 89.5
s91.333 31.5 142 31.5c64.667 0 115.167 -14.333 151.5 -43s54.5 -68 54.5 -118c0 -60.667 -27 -127 -81 -199s-137.333 -153 -250 -243h281l-19 -107h-472z" />
    <glyph glyph-name="three" unicode="3" horiz-adv-x="565" 
d="M97.5 20c-39 19.333 -65.832 45.999 -80.499 79.999l84 78c15.333 -22 36.166 -39.667 62.499 -53s53.166 -20 80.499 -20c39.333 0 71.166 11.333 95.499 34s36.5 51.667 36.5 87c0 27.333 -10.667 49 -32 65s-51.333 24 -90 24h-60l18 102h59
c24.667 0 47.334 5.16699 68.001 15.5s37 24.333 49 42s18 37.167 18 58.5c0 20 -7 35.333 -21 46s-34.333 16 -61 16c-29.333 0 -58.5 -6.33301 -87.5 -19s-55.167 -30.667 -78.5 -54l-52 79c29.333 34 66 60.5 110 79.5s90.667 28.5 140 28.5
c38.667 0 72.834 -6.33301 102.501 -19s52.834 -30.334 69.501 -53.001s25 -48.667 25 -78c0 -40 -12.333 -76.333 -37 -109s-59.667 -58.667 -105 -78c35.333 -12.667 62.166 -31.167 80.499 -55.5s27.5 -53.166 27.5 -86.499c0 -46 -12.167 -87.167 -36.5 -123.5
s-58 -64.666 -101 -84.999s-91.5 -30.5 -145.5 -30.5c-53.333 0 -99.5 9.66699 -138.5 29z" />
    <glyph glyph-name="four" unicode="4" horiz-adv-x="565" 
d="M304 109h-309l18 100l386 491h153l-85 -477h74l-20 -114h-73l-20 -109h-144zM324 223l49 282l-223 -282h174z" />
    <glyph glyph-name="five" unicode="5" horiz-adv-x="565" 
d="M94.5 20c-40.333 20 -68.501 46.334 -84.501 79.001l78 91c19.333 -28 41.666 -49.333 66.999 -64s52.666 -22 81.999 -22c28 0 53.333 7.5 76 22.5s40.334 35.5 53.001 61.5s19 55.333 19 88c0 29.333 -7.66699 52 -23 68s-36.666 24 -63.999 24
c-20 0 -40.167 -5.83301 -60.5 -17.5s-37.166 -27.167 -50.499 -46.5h-119l105 396h413l-21 -114h-285l-41 -152c11.333 11.333 28.166 20.833 50.499 28.5s43.833 11.5 64.5 11.5c54.667 0 98 -16.667 130 -50s48 -78 48 -134c0 -57.333 -13.167 -108.833 -39.5 -154.5
s-62.666 -81.334 -108.999 -107.001s-98.5 -38.5 -156.5 -38.5c-48 0 -92.167 10 -132.5 30z" />
    <glyph glyph-name="six" unicode="6" horiz-adv-x="565" 
d="M136 17c-32.667 18 -58 43.166 -76 75.499s-27 69.5 -27 111.5c0 80 24.333 158 73 234s113 139.333 193 190s164 79.667 252 87l-6 -108c-57.333 -10 -109.666 -28.667 -156.999 -56s-86.333 -61.333 -117 -102c7.33301 4 16.833 7.33301 28.5 10s22.834 4 33.501 4
c61.333 0 109.666 -16.667 144.999 -50s53 -79.333 53 -138c0 -54.667 -12 -103.667 -36 -147s-57.5 -77.166 -100.5 -101.499s-91.5 -36.5 -145.5 -36.5c-42.667 0 -80.334 9 -113.001 27zM324.5 125.499c19 13.667 34.166 32.166 45.499 55.499s17 49 17 77
s-7.5 50 -22.5 66s-35.167 24 -60.5 24c-22.667 0 -43.667 -6.83301 -63 -20.5s-34.666 -32.167 -45.999 -55.5s-17 -48.666 -17 -75.999c0 -28 7.5 -50.167 22.5 -66.5s35.167 -24.5 60.5 -24.5c23.333 0 44.5 6.83301 63.5 20.5z" />
    <glyph glyph-name="seven" unicode="7" horiz-adv-x="565" 
d="M229 324c42.667 94 101.998 181.332 177.998 261.999h-303l20 114h476l-16 -93c-79.333 -71.333 -146.166 -160.166 -200.499 -266.499s-92.166 -219.833 -113.499 -340.5h-144c26 122 60.333 230 103 324z" />
    <glyph glyph-name="eight" unicode="8" horiz-adv-x="565" 
d="M126 12.5c-34 15 -60.335 35.666 -79.002 61.999s-28 56.833 -28 91.5c0 44.667 13.667 85.834 41 123.501s63 64.834 107 81.501c-19.333 8.66699 -35.166 24.667 -47.499 48s-18.5 49.666 -18.5 78.999c0 41.333 10.833 78 32.5 110s52 57 91 75s83.5 27 133.5 27
c39.333 0 74.5 -6.83301 105.5 -20.5s55 -32.667 72 -57s25.5 -52.166 25.5 -83.499c0 -38.667 -11.167 -74.667 -33.5 -108s-51.166 -56.666 -86.499 -69.999c26 -10.667 46.833 -29.334 62.5 -56.001s23.5 -56.334 23.5 -89.001c0 -46 -12 -86.833 -36 -122.5
s-57.5 -63.5 -100.5 -83.5s-92.167 -30 -147.5 -30c-44 0 -83 7.5 -117 22.5zM386.498 450.999c19 20 28.501 45.667 28.501 77c0 20 -6.66699 36.333 -20 49s-30.333 19 -51 19c-30.667 0 -55.5 -10 -74.5 -30s-28.5 -45.667 -28.5 -77c0 -20 6.66699 -36.333 20 -49
s30.666 -19 51.999 -19c30 0 54.5 10 73.5 30zM349.999 141.499c24 25 36.001 57.166 36.001 96.499c0 24.667 -8.33301 44.834 -25 60.501s-38.334 23.5 -65.001 23.5c-38 0 -69.167 -12.333 -93.5 -37s-36.5 -56.667 -36.5 -96c0 -25.333 8.5 -45.833 25.5 -61.5
s38.833 -23.5 65.5 -23.5c38 0 69 12.5 93 37.5z" />
    <glyph glyph-name="nine" unicode="9" horiz-adv-x="565" 
d="M57 94c60 10.667 115.5 30.333 166.5 59s89.833 61.667 116.5 99c-26 -9.33301 -49.333 -14 -70 -14c-60 0 -108 17.5 -144 52.5s-54 81.5 -54 139.5c0 52.667 12.167 100.334 36.5 143.001s58 76 101 100s91.167 36 144.5 36c42.667 0 80.167 -8.83301 112.5 -26.5
s57.5 -42.834 75.5 -75.501s27 -70.334 27 -113.001c0 -84 -22.667 -163.333 -68 -238s-107 -136.167 -185 -184.5s-163.333 -77.166 -256 -86.499zM359 364.999c20 14.667 35.8311 34.5 47.498 59.5s17.5 51.833 17.5 80.5c0 28 -7.5 50 -22.5 66s-35.5 24 -61.5 24
c-22.667 0 -43.667 -7 -63 -21s-34.666 -33 -45.999 -57s-17 -50.333 -17 -79c0 -29.333 7.33301 -52.5 22 -69.5s34.334 -25.5 59.001 -25.5c22.667 0 44 7.33301 64 22z" />
    <glyph glyph-name="colon" unicode=":" horiz-adv-x="291" 
d="M108 347c-13.333 12.667 -20 28.667 -20 48c0 30.667 9.5 55.5 28.5 74.5s43.167 28.5 72.5 28.5c21.333 0 38.666 -6.16699 51.999 -18.5s20 -28.5 20 -48.5c0 -30.667 -9.5 -55.5 -28.5 -74.5s-43.167 -28.5 -72.5 -28.5c-21.333 0 -38.666 6.33301 -51.999 19zM49 9
c-13.333 12.667 -20 29 -20 49c0 30.667 9.33301 55.5 28 74.5s43 28.5 73 28.5c20.667 0 37.667 -6.16699 51 -18.5s20 -28.5 20 -48.5c0 -30.667 -9.5 -55.667 -28.5 -75s-43.167 -29 -72.5 -29c-20.667 0 -37.667 6.33301 -51 19z" />
    <glyph glyph-name="semicolon" unicode=";" horiz-adv-x="291" 
d="M241 479.5c13.333 -12.333 20 -28.5 20 -48.5c0 -30.667 -9.5 -55.5 -28.5 -74.5s-43.167 -28.5 -72.5 -28.5c-21.333 0 -38.666 6.33301 -51.999 19s-20 28.667 -20 48c0 30.667 9.5 55.5 28.5 74.5s43.167 28.5 72.5 28.5c21.333 0 38.666 -6.16699 51.999 -18.5z
M183.5 133.5c14.333 -15 21.498 -34.499 21.498 -58.499c0 -44.667 -16.5 -92 -49.5 -142s-75.167 -91.333 -126.5 -124l-46 65c18.667 12.667 36.834 29.5 54.501 50.5s32.167 43.167 43.5 66.5c-2.66699 -0.666992 -6 -1 -10 -1c-16 0 -29 5.66699 -39 17
s-15 25.666 -15 42.999c0 31.333 10.333 56.833 31 76.5s47.334 29.5 80.001 29.5c22.667 0 41.167 -7.5 55.5 -22.5z" />
    <glyph glyph-name="less" unicode="&#x3c;" horiz-adv-x="617" 
d="M58 265l9 53l554 264l-20 -109l-385 -183l320 -183l-18 -107z" />
    <glyph glyph-name="equal" unicode="=" horiz-adv-x="617" 
d="M86 416h503l-18 -104h-503zM48 200h503l-18 -104h-503z" />
    <glyph glyph-name="greater" unicode="&#x3e;" horiz-adv-x="617" 
d="M30 109l385 183l-320 183l19 107l460 -264l-9 -53l-554 -265z" />
    <glyph glyph-name="question" unicode="?" horiz-adv-x="471" 
d="M160 186c0 27.333 4.83203 52.168 14.499 74.501s21.334 41.833 35.001 58.5s32.167 37 55.5 61c30.667 30.667 53.667 57.5 69 80.5s23 49.5 23 79.5c0 21.333 -6.5 37.666 -19.5 48.999s-31.5 17 -55.5 17s-48.833 -7.83301 -74.5 -23.5s-48.5 -36.834 -68.5 -63.501
l-55 82c24.667 34.667 56.834 61.5 96.501 80.5s83.167 28.5 130.5 28.5c59.333 0 105.833 -12.833 139.5 -38.5s50.5 -61.167 50.5 -106.5c0 -30 -5.83301 -57.667 -17.5 -83s-25.834 -47.666 -42.501 -66.999s-38.667 -42 -66 -68c-32 -30.667 -55.833 -56.667 -71.5 -78
s-23.5 -44.333 -23.5 -69v-19h-120v5zM143.499 7.00195c-13 11.333 -19.5 26.333 -19.5 45c0 27.333 9 49.5 27 66.5s41.333 25.5 70 25.5c20.667 0 37.5 -5.66699 50.5 -17s19.5 -26.333 19.5 -45c0 -27.333 -9 -49.5 -27 -66.5s-41.333 -25.5 -70 -25.5
c-20.667 0 -37.5 5.66699 -50.5 17z" />
    <glyph glyph-name="at" unicode="@" horiz-adv-x="805" 
d="M156.5 -116c-43.667 23.333 -77.5 56.334 -101.5 99.001s-36 92 -36 148c0 86 20.5 164.667 61.5 236s96.667 127.833 167 169.5s147.5 62.5 231.5 62.5c59.333 0 111.5 -11.167 156.5 -33.5s79.667 -53.666 104 -93.999s36.5 -86.833 36.5 -139.5
c0 -56 -11 -107.5 -33 -154.5s-51.833 -84.333 -89.5 -112s-79.167 -41.834 -124.5 -42.501h-30l-15 60c-20.667 -19.333 -45.167 -35 -73.5 -47s-54.833 -18 -79.5 -18c-38 0 -68.333 10 -91 30s-34 46.667 -34 80c0 31.333 8.66699 59.5 26 84.5s41.5 44.5 72.5 58.5
s65.5 21 103.5 21h77l3 14c0.666992 2.66699 1 7 1 13c0 16.667 -5.66699 30.167 -17 40.5s-26.333 15.5 -45 15.5c-23.333 0 -47.5 -5.16699 -72.5 -15.5s-45.833 -23.833 -62.5 -40.5l-36 50c22.667 22.667 51.334 41.334 86.001 56.001s67.667 22 99 22
c40 0 71.833 -11.167 95.5 -33.5s35.5 -51.833 35.5 -88.5c0 -10 -1 -20.667 -3 -32l-21 -122c-1.33301 -6 -2 -15 -2 -27c0 -21.333 3 -37 9 -47c22.667 5.33301 43.667 18.833 63 40.5s34.833 48.167 46.5 79.5s17.5 64.333 17.5 99c0 38.667 -8.83301 72.667 -26.5 102
s-42.834 52.166 -75.501 68.499s-70.667 24.5 -114 24.5c-63.333 0 -121.666 -16.167 -174.999 -48.5s-95.333 -76.333 -126 -132s-46 -116.5 -46 -182.5c0 -42 8.66699 -78.833 26 -110.5s42.166 -56.334 74.499 -74.001s69.833 -26.5 112.5 -26.5c30 0 61.167 4 93.5 12
s58.833 18.333 79.5 31l22 -71c-24.667 -18 -57.167 -32.5 -97.5 -43.5s-80.5 -16.5 -120.5 -16.5c-58 0 -108.833 11.667 -152.5 35zM424.5 110.501c22.333 15 34.833 30.832 37.5 47.499l12 70h-73c-30 0 -54.833 -8.16699 -74.5 -24.5s-29.5 -37.166 -29.5 -62.499
c0 -16 5 -28.833 15 -38.5s24 -14.5 42 -14.5c24.667 0 48.167 7.5 70.5 22.5z" />
    <glyph glyph-name="A" unicode="A" horiz-adv-x="641" 
d="M423 116h-240l-55 -116h-157l365 700h127l119 -700h-144zM408 231l-37 278l-133 -278h170z" />
    <glyph glyph-name="B" unicode="B" horiz-adv-x="606" 
d="M147 700h225c70.667 0 125.167 -12.833 163.5 -38.5s57.5 -61.834 57.5 -108.501c0 -39.333 -10 -73.166 -30 -101.499s-51 -52.833 -93 -73.5l-1 -3c64 -26 96 -70.333 96 -133c0 -76 -22.167 -135.333 -66.5 -178s-106.5 -64 -186.5 -64h-288zM338 421
c30.667 0 56.167 9.33105 76.5 27.998s30.5 43.334 30.5 74.001c0 20.667 -8 36.834 -24 48.501s-40 17.5 -72 17.5h-77l-30 -168h96zM304 110.998c34.667 0 63.167 11.5 85.5 34.5s33.5 53.167 33.5 90.5c0 53.333 -38.667 80 -116 80h-83l-36 -205h116z" />
    <glyph glyph-name="C" unicode="C" horiz-adv-x="620" 
d="M176 24c-43.333 22.667 -76.667 54.998 -100 96.998s-35 91.333 -35 148c0 85.333 16 161.333 48 228s76.833 118.834 134.5 156.501s123.167 56.5 196.5 56.5c57.333 0 107.166 -11.167 149.499 -33.5s70.833 -52.166 85.5 -89.499l-95 -72
c-12.667 26 -31.167 45.833 -55.5 59.5s-52.833 20.5 -85.5 20.5c-45.333 0 -85.666 -13.833 -120.999 -41.5s-63 -66 -83 -115s-30 -104.833 -30 -167.5c0 -52.667 12.667 -93.5 38 -122.5s61.333 -43.5 108 -43.5c70.667 0 127.667 26.667 171 80l72 -72
c-56 -82 -137.667 -123 -245 -123c-58.667 0 -109.667 11.333 -153 34z" />
    <glyph glyph-name="D" unicode="D" horiz-adv-x="642" 
d="M147 700l240.001 0.000976562c80.667 0 142.167 -20.5 184.5 -61.5s63.5 -100.833 63.5 -179.5c0 -148.667 -31.833 -262.334 -95.5 -341.001s-155.834 -118 -276.501 -118h-239zM283.001 115.001c41.333 0 77.833 13.667 109.5 41s56 66 73 116s25.5 108 25.5 174
c0 47.333 -9.5 82.333 -28.5 105s-48.5 34 -88.5 34h-103l-82 -470h94z" />
    <glyph glyph-name="E" unicode="E" horiz-adv-x="571" 
d="M147 700h465l-20 -115h-321l-28 -160h286l-20 -115h-287l-33 -195h320l-20 -115h-465z" />
    <glyph glyph-name="F" unicode="F" horiz-adv-x="574" 
d="M147 700h470l-20 -115h-326l-33 -187h304l-20 -115h-304l-50 -283h-144z" />
    <glyph glyph-name="G" unicode="G" horiz-adv-x="653" 
d="M333 380h293.004l-66 -380h-109l-6 35c-42.667 -30 -92.667 -45 -150 -45c-52 0 -97.333 10.667 -136 32s-68.334 51.833 -89.001 91.5s-31 85.834 -31 138.501c0 89.333 16 168.666 48 237.999s76.667 123.333 134 162s123 58 197 58
c59.333 0 110.666 -11.333 153.999 -34s71 -52.334 83 -89.001l-94 -72c-12 26 -30.333 45.833 -55 59.5s-54.334 20.5 -89.001 20.5c-44.667 0 -84.667 -14.333 -120 -43s-63 -68.5 -83 -119.5s-30 -109.167 -30 -174.5c0 -53.333 11.167 -93.666 33.5 -120.999
s55.166 -41 98.499 -41c44 0 85.333 10.667 124 32l26 150h-151z" />
    <glyph glyph-name="H" unicode="H" horiz-adv-x="692" 
d="M147 700h144l-50 -286h268l51 286h143l-123 -700h-143l53 299h-269l-53 -299h-144z" />
    <glyph glyph-name="I" unicode="I" horiz-adv-x="323" 
d="M169 700h143l-123 -700h-143z" />
    <glyph glyph-name="J" unicode="J" horiz-adv-x="492" 
d="M52 10.5c-33.333 13.667 -59.667 32.501 -79 56.501l73 92c14.667 -16.667 32.5 -29.834 53.5 -39.501s42.5 -14.5 64.5 -14.5c32.667 0 58 10.667 76 32s31.333 56 40 104l80 459h144l-84 -475c-14 -80.667 -42 -140 -84 -178s-100.667 -57 -176 -57
c-38.667 0 -74.667 6.83301 -108 20.5z" />
    <glyph glyph-name="K" unicode="K" horiz-adv-x="656" 
d="M419 423l174 -423h-152l-130 313l-107 -108l-36 -205h-144l124 700h144l-54 -304l285 304h169z" />
    <glyph glyph-name="L" unicode="L" horiz-adv-x="565" 
d="M147 700h144l-103 -585h330l-20 -115h-474z" />
    <glyph glyph-name="M" unicode="M" horiz-adv-x="816" 
d="M827 700l-124 -700h-142l73 414l-221 -414h-101l-74 407l-72 -407h-142l124 700h145l94 -541l283 541h157z" />
    <glyph glyph-name="N" unicode="N" horiz-adv-x="699" 
d="M710 700l-123 -700h-133l-205 465l-82 -465h-143l123 700h139l200 -457l81 457h143z" />
    <glyph glyph-name="O" unicode="O" horiz-adv-x="690" 
d="M170 24.5c-41.333 23 -73.333 55.167 -96 96.5s-34 89 -34 143c0 86 15.833 162.833 47.5 230.5s75.834 120.5 132.501 158.5s121 57 193 57c54 0 101.667 -11.5 143 -34.5s73.333 -55.167 96 -96.5s34 -89 34 -143c0 -86 -15.833 -162.833 -47.5 -230.5
s-75.834 -120.5 -132.501 -158.5s-121 -57 -193 -57c-54 0 -101.667 11.5 -143 34.5zM435.5 145c33 27.333 58.833 65.501 77.5 114.501s28 104.5 28 166.5c0 50.667 -12.667 91.667 -38 123s-58.333 47 -99 47c-42 0 -79.5 -13.667 -112.5 -41s-58.833 -65.333 -77.5 -114
s-28 -104 -28 -166c0 -50.667 12.667 -91.834 38 -123.501s58.333 -47.5 99 -47.5c42 0 79.5 13.667 112.5 41z" />
    <glyph glyph-name="P" unicode="P" horiz-adv-x="590" 
d="M147 700l224 -0.000976562c72 0 127.833 -15.333 167.5 -46s59.5 -73.667 59.5 -129c0 -89.333 -26 -159.166 -78 -209.499s-124 -75.5 -216 -75.5h-94l-42 -240h-144zM326 353.999c38 0 69 13.833 93 41.5s36 63.167 36 106.5c0 27.333 -8.16699 48 -24.5 62
s-39.833 21 -70.5 21h-89l-41 -231h96z" />
    <glyph glyph-name="Q" unicode="Q" horiz-adv-x="690" 
d="M650 232.5c-24 -61 -57.833 -111.667 -101.5 -152s-94.167 -67.166 -151.5 -80.499c53.333 -18.667 121.333 -29.334 204 -32.001l-40 -98c-65.333 3.33301 -131.333 18 -198 44s-116.334 55.333 -149.001 88l8 1c-56 16.667 -100.333 48.167 -133 94.5
s-49 101.833 -49 166.5c0 86 15.833 162.833 47.5 230.5s75.834 120.5 132.501 158.5s121 57 193 57c54 0 101.667 -11.5 143 -34.5s73.333 -55.167 96 -96.5s34 -89 34 -143c0 -74.667 -12 -142.5 -36 -203.5zM291.5 555c-33 -27.333 -58.833 -65.332 -77.5 -113.999
s-28 -104 -28 -166c0 -50.667 12.667 -91.834 38 -123.501s58.333 -47.5 99 -47.5c42 0 79.5 13.667 112.5 41s58.833 65.5 77.5 114.5s28 104.5 28 166.5c0 50.667 -12.667 91.667 -38 123s-58.333 47 -99 47c-42 0 -79.5 -13.667 -112.5 -41z" />
    <glyph glyph-name="R" unicode="R" horiz-adv-x="596" 
d="M147 700l237.999 -0.000976562c70 0 123.667 -14.333 161 -43s56 -69.667 56 -123c0 -110 -50.333 -182.667 -151 -218v-2c10.667 -8.66699 18.667 -17.167 24 -25.5s9.33301 -18.166 12 -29.499l58 -259h-153l-42 213c-4.66699 21.333 -12.667 35.5 -24 42.5
s-32.666 10.5 -63.999 10.5h-47l-47 -266h-144zM322.999 379.999c40.667 0 73.167 12.168 97.5 36.501s36.5 56.166 36.5 95.499c0 48.667 -33.333 73 -100 73h-86l-36 -205h88z" />
    <glyph glyph-name="S" unicode="S" horiz-adv-x="549" 
d="M96 23c-41.333 22 -72.334 52.334 -93.001 91.001l98 80c16.667 -26.667 38.667 -48.167 66 -64.5s55 -24.5 83 -24.5c36.667 0 65.834 8.33301 87.501 25s32.5 39 32.5 67c0 16.667 -7.5 32.334 -22.5 47.001s-42.833 33 -83.5 55
c-58 31.333 -100.167 63.166 -126.5 95.499s-39.5 67.833 -39.5 106.5c0 41.333 10.833 77.833 32.5 109.5s52.334 56.167 92.001 73.5s85.5 26 137.5 26c48.667 0 91.5 -9.83301 128.5 -29.5s63.5 -46.167 79.5 -79.5l-103 -68c-26 41.333 -63.333 62 -112 62
c-33.333 0 -59.833 -7.16699 -79.5 -21.5s-29.5 -33.5 -29.5 -57.5c0 -16 9.5 -31.833 28.5 -47.5s54.167 -36.5 105.5 -62.5c48 -24.667 83 -51.834 105 -81.501s33 -64.5 33 -104.5c0 -71.333 -24.833 -127.5 -74.5 -168.5s-117.834 -61.5 -204.501 -61.5
c-52.667 0 -99.667 11 -141 33z" />
    <glyph glyph-name="T" unicode="T" horiz-adv-x="590" 
d="M284 594h-208l19 106h560l-19 -106h-208l-105 -594h-144z" />
    <glyph glyph-name="U" unicode="U" horiz-adv-x="662" 
d="M117.5 43.5c-40.333 35.667 -60.5 87.833 -60.5 156.5c0 24.667 2.33301 49 7 73l75 427h144l-75 -425c-4 -20.667 -6 -40 -6 -58c0 -74.667 34.667 -112 104 -112c42 0 76.167 14.333 102.5 43s44.5 71 54.5 127l75 425h144l-75 -427
c-33.333 -188.667 -138 -283 -314 -283c-76.667 0 -135.167 17.833 -175.5 53.5z" />
    <glyph glyph-name="V" unicode="V" horiz-adv-x="647" 
d="M711 700l-367 -700h-130l-120 700h147l67 -517l250 517h153z" />
    <glyph glyph-name="W" unicode="W" horiz-adv-x="874" 
d="M928 700l-271 -700h-134l-36 521l-220 -521h-139l-24 700h151l-6 -463l197 463h136l34 -461l157 461h155z" />
    <glyph glyph-name="X" unicode="X" horiz-adv-x="655" 
d="M264 358l-149 342h156l89 -225l169 225h170l-269 -342l155 -358h-151l-100 239l-181 -239h-171z" />
    <glyph glyph-name="Y" unicode="Y" horiz-adv-x="628" 
d="M247 280l-153 420h152l95 -275l191 275h160l-301 -420l-49 -280h-144z" />
    <glyph glyph-name="Z" unicode="Z" horiz-adv-x="592" 
d="M-6 70l435 515h-315l20 115h497l-12 -72l-430 -513h353l-21 -115h-539z" />
    <glyph glyph-name="bracketleft" unicode="[" horiz-adv-x="332" 
d="M125 700h250l-18 -100h-109l-106 -605h109l-18 -100h-251z" />
    <glyph glyph-name="backslash" unicode="\" horiz-adv-x="385" 
d="M63 725h130l245 -768h-130z" />
    <glyph glyph-name="bracketright" unicode="]" horiz-adv-x="332" 
d="M-8 -5h110l106 605h-109l18 100h250l-142 -805h-251z" />
    <glyph glyph-name="asciicircum" unicode="^" horiz-adv-x="599" 
d="M327 700h105l129 -477h-125l-81 334l-198 -334h-128z" />
    <glyph glyph-name="underscore" unicode="_" horiz-adv-x="358" 
d="M-83 -223h358l-17 -96h-358z" />
    <glyph glyph-name="grave" unicode="`" horiz-adv-x="400" 
d="M155 731h123l63 -176h-102z" />
    <glyph glyph-name="a" unicode="a" horiz-adv-x="558" 
d="M69.5 43c-31.667 35.333 -47.5 83.333 -47.5 144c0 62.667 10.833 118.5 32.5 167.5s51.834 87.167 90.501 114.5s83 41 133 41c34.667 0 64.667 -6.33301 90 -19s43.333 -30.667 54 -54h2l20 63h107l-65 -367c-12 -70 -19 -114.333 -21 -133h-120
c4 27.333 7.66699 49.333 11 66h-2c-20 -23.333 -43.833 -41.833 -71.5 -55.5s-55.834 -20.5 -84.501 -20.5c-54 0 -96.833 17.667 -128.5 53zM324 118.5c24.667 20.333 40.002 47.168 46.002 80.501l18 103c1.33301 9.33301 2 16.666 2 21.999
c0 26.667 -9.16699 48.5 -27.5 65.5s-41.833 25.5 -70.5 25.5c-26.667 0 -50.834 -9.5 -72.501 -28.5s-38.667 -45.167 -51 -78.5s-18.5 -70.666 -18.5 -111.999c0 -34.667 7.16699 -61.334 21.5 -80.001s35.166 -28 62.499 -28c35.333 0 65.333 10.167 90 30.5z" />
    <glyph glyph-name="b" unicode="b" horiz-adv-x="558" 
d="M196 11.5c-26.667 14.333 -45.334 32.499 -56.001 54.499h-2c-1.33301 -5.33301 -2.66602 -12.666 -3.99902 -21.999l-9 -44h-120c8 33.333 16.667 77.666 26 132.999l108 609h127l-52 -293h2c39.333 40.667 89.333 61 150 61c53.333 0 95.5 -16.167 126.5 -48.5
s46.5 -76.833 46.5 -133.5c0 -64 -11.333 -121.667 -34 -173s-53.667 -91.666 -93 -120.999s-83.333 -44 -132 -44c-29.333 0 -57.333 7.16699 -84 21.5zM339 117.499c22 19.667 39.333 46.501 52 80.501s19 71.667 19 113c0 34 -7.33301 59.833 -22 77.5s-36 26.5 -64 26.5
c-32.667 0 -62 -10.833 -88 -32.5s-41.667 -48.5 -47 -80.5l-19 -103c-1.33301 -10.667 -2 -18.334 -2 -23.001c0 -26.667 8.83301 -48 26.5 -64s41.5 -24 71.5 -24c26.667 0 51 9.83301 73 29.5z" />
    <glyph glyph-name="c" unicode="c" horiz-adv-x="492" 
d="M79 44c-38.667 36 -58 85.335 -58 148.002c0 62 12.333 117.167 37 165.5s59.334 85.833 104.001 112.5s96 40 154 40c47.333 0 87.666 -8.83301 120.999 -26.5s56.333 -42.167 69 -73.5l-88 -67c-9.33301 21.333 -23.5 38.166 -42.5 50.499s-40.5 18.5 -64.5 18.5
c-30 0 -57.333 -9 -82 -27s-44 -43 -58 -75s-21 -67.667 -21 -107c0 -36.667 9 -65 27 -85s43.667 -30 77 -30c24.667 0 48.334 6.16699 71.001 18.5s42.667 29.166 60 50.499l65 -67c-24.667 -32.667 -55 -57.5 -91 -74.5s-76.667 -25.5 -122 -25.5
c-66.667 0 -119.334 18 -158.001 54z" />
    <glyph glyph-name="d" unicode="d" horiz-adv-x="558" 
d="M69.5 43c-31.667 35.333 -47.499 83.333 -47.499 144c0 62 11 117.5 33 166.5s52.667 87.333 92 115s84 41.5 134 41.5c62 0 105.667 -20.333 131 -61h2l52 293h127l-107 -609l-11 -70c-6 -37.333 -9.33301 -58.333 -10 -63h-120c4 26 7.66699 48 11 66h-2
c-20 -23.333 -43.833 -41.833 -71.5 -55.5s-55.834 -20.5 -84.501 -20.5c-54 0 -96.833 17.667 -128.5 53zM324.001 118.5c24.667 20.333 40.002 47.168 46.002 80.501l18 103c1.33301 9.33301 2 16.666 2 21.999c0 26.667 -9.16699 48.5 -27.5 65.5
s-41.833 25.5 -70.5 25.5c-26.667 0 -50.834 -9.5 -72.501 -28.5s-38.667 -45.167 -51 -78.5s-18.5 -70.666 -18.5 -111.999c0 -34.667 7.16699 -61.334 21.5 -80.001s35.166 -28 62.499 -28c35.333 0 65.333 10.167 90 30.5z" />
    <glyph glyph-name="e" unicode="e" horiz-adv-x="542" 
d="M464.5 457c35.667 -35.333 53.4951 -83.667 53.4951 -145c0 -22 -2.33301 -44.333 -7 -67l-9 -42h-348c0.666992 -34.667 9.83398 -61 27.501 -79s43.5 -27 77.5 -27c29.333 0 55.833 5 79.5 15s47.834 26.667 72.501 50l58 -66
c-25.333 -32.667 -58.666 -58.5 -99.999 -77.5s-84.666 -28.5 -129.999 -28.5c-65.333 0 -117.333 18 -156 54s-58 85 -58 147s12.333 117.167 37 165.5s59.167 86 103.5 113s94.833 40.5 151.5 40.5c62.667 0 111.834 -17.667 147.501 -53zM376.995 377.999
c-16 18.667 -40.666 28 -73.999 28c-31.333 0 -59.333 -10.167 -84 -30.5s-42.334 -48.833 -53.001 -85.5h232v6c2 36 -5 63.333 -21 82z" />
    <glyph glyph-name="f" unicode="f" horiz-adv-x="377" 
d="M121 413h-81.001l15 87h82l10 60c8.66699 49.333 29.667 87.833 63 115.5s76.333 41.5 129 41.5c25.333 0 49.333 -4 72 -12s39.334 -18.333 50.001 -31l-58 -76c-6.66699 6.66699 -15 12.167 -25 16.5s-20.333 6.5 -31 6.5c-18.667 0 -34.667 -6.33301 -48 -19
s-22 -30 -26 -52l-9 -50h141l-15 -87h-141l-73 -413h-127z" />
    <glyph glyph-name="g" unicode="g" horiz-adv-x="555" 
d="M550 500l-84 -479.999c-14.667 -84.667 -46.167 -148.5 -94.5 -191.5s-113.166 -64.5 -194.499 -64.5c-39.333 0 -76.333 4.66699 -111 14s-63.667 22.666 -87 39.999l58 87c21.333 -12 45 -21.5 71 -28.5s51 -10.5 75 -10.5c88.667 0 143 57 163 171l2 13
c-32 -35.333 -78.667 -53 -140 -53c-58 0 -103.5 16.833 -136.5 50.5s-49.5 80.167 -49.5 139.5c0 63.333 10.667 119.5 32 168.5s51.333 87 90 114s83 40.5 133 40.5c35.333 0 65.666 -6.33301 90.999 -19s43.333 -30.667 54 -54h2l20 63h106zM387 319.001
c0 31.333 -7.83594 55.166 -23.5029 71.499s-38.167 24.5 -67.5 24.5c-28.667 0 -54 -9.33301 -76 -28s-39.167 -44.167 -51.5 -76.5s-18.5 -69.166 -18.5 -110.499c0 -34 7.83301 -59.833 23.5 -77.5s38.834 -26.5 69.501 -26.5c34.667 0 63.334 10.5 86.001 31.5
s37.334 50.833 44.001 89.5l11 64c2 14 3 26.667 3 38z" />
    <glyph glyph-name="h" unicode="h" horiz-adv-x="567" 
d="M135 742l127.999 0.00292969l-53 -301c17.333 21.333 40.333 38.166 69 50.499s59.334 18.5 92.001 18.5c50 0 89.5 -14.5 118.5 -43.5s43.5 -68.167 43.5 -117.5c0 -14 -1.66699 -30.333 -5 -49l-53 -300h-128l51 291c2.66699 17.333 4 29.666 4 36.999
c0 27.333 -6.66699 48.666 -20 63.999s-32.333 23 -57 23c-36.667 0 -68 -12.833 -94 -38.5s-43 -60.5 -51 -104.5l-48 -272h-128z" />
    <glyph glyph-name="i" unicode="i" horiz-adv-x="273" 
d="M140 575c-13.333 11.333 -20 25.666 -20 42.999c0 26.667 9 48.334 27 65.001s41.333 25 70 25c20.667 0 37.5 -5.66699 50.5 -17s19.5 -25.666 19.5 -42.999c0 -26.667 -9 -48.334 -27 -65.001s-41 -25 -69 -25c-20.667 0 -37.667 5.66699 -51 17zM117 500h127l-88 -500
h-127z" />
    <glyph glyph-name="j" unicode="j" horiz-adv-x="279" 
d="M154 575c-13.333 11.333 -20 26 -20 44c0 26 9.16699 47.333 27.5 64s41.833 25 70.5 25c20.667 0 37.5 -5.66699 50.5 -17s19.5 -26 19.5 -44c0 -26.667 -9 -48.167 -27 -64.5s-41.333 -24.5 -70 -24.5c-20.667 0 -37.667 5.66699 -51 17zM-96 -201.5
c-18.667 2.33301 -34.3311 5.16699 -46.998 8.5l22 89c20 -2 41.333 -3 64 -3c28.667 0 51 6.5 67 19.5s26.333 33.5 31 61.5l93 526h128l-93 -524c-10.667 -61.333 -33.334 -106.833 -68.001 -136.5s-82.667 -44.5 -144 -44.5c-16.667 0 -34.334 1.16699 -53.001 3.5z" />
    <glyph glyph-name="k" unicode="k" horiz-adv-x="533" 
d="M339 319l147 -319h-140l-107 236l-74 -62l-31 -174h-128l131 742h128l-75 -412l205 170h160z" />
    <glyph glyph-name="l" unicode="l" horiz-adv-x="301" 
d="M59 15.5c-18.667 17 -28 41.5 -28 73.5c0 10.667 1 22 3 34l110 619h127l-110 -620c-0.666992 -2.66699 -1 -6.66699 -1 -12c0 -20.667 13.333 -31 40 -31c14.667 0 34.334 4.33301 59.001 13l7 -68c-34 -22.667 -75.333 -34 -124 -34
c-36.667 0 -64.334 8.5 -83.001 25.5z" />
    <glyph glyph-name="m" unicode="m" horiz-adv-x="846" 
d="M69 367l8 51c6.66699 36.667 10.334 64 11.001 82h112c-0.666992 -22 -4 -51 -10 -87h2c14.667 30.667 36.834 54.5 66.501 71.5s63.167 25.5 100.5 25.5c36 0 65.667 -8 89 -24s36.666 -37.333 39.999 -64c18.667 28 42.667 49.667 72 65s61 23 95 23
c48 0 85.5 -13.5 112.5 -40.5s40.5 -64.167 40.5 -111.5c0 -14 -1.66699 -30.333 -5 -49l-54 -309h-127l51 295c2 12 3 23 3 33c0 25.333 -6.33301 44.833 -19 58.5s-30.667 20.5 -54 20.5c-28.667 0 -53 -10.167 -73 -30.5s-33 -47.833 -39 -82.5l-52 -294h-126l52 291
c2 13.333 3 25 3 35c0 26 -6.16699 46 -18.5 60s-29.833 21 -52.5 21c-28.667 0 -53.334 -10.5 -74.001 -31.5s-34 -49.167 -40 -84.5l-52 -291h-127z" />
    <glyph glyph-name="n" unicode="n" horiz-adv-x="563" 
d="M69 368l3.99707 24.999c8.66699 52.667 13.334 88.334 14.001 107.001h120c-1.33301 -28.667 -4.66602 -57.667 -9.99902 -87h2c18 30.667 42.333 54.5 73 71.5s65.334 25.5 104.001 25.5c48.667 0 85.334 -13.5 110.001 -40.5s37 -66.167 37 -117.5
c0 -23.333 -2.33301 -47 -7 -71l-50 -281h-127l50 282c2.66699 14 4 28.667 4 44c0 54 -24.667 81 -74 81c-35.333 0 -65.833 -12.167 -91.5 -36.5s-41.834 -56.833 -48.501 -97.5l-48 -273h-128z" />
    <glyph glyph-name="o" unicode="o" horiz-adv-x="579" 
d="M86.5 45c-40.333 36.667 -60.5 86.334 -60.5 149.001c0 62 12.667 117 38 165s60.833 85.167 106.5 111.5s98.5 39.5 158.5 39.5c68.667 0 123.167 -18.333 163.5 -55s60.5 -86.334 60.5 -149.001c0 -62 -12.667 -117 -38 -165s-61 -85.167 -107 -111.5
s-98.667 -39.5 -158 -39.5c-68.667 0 -123.167 18.333 -163.5 55zM345 112c24.667 18 44.001 43 58.001 75s21 68 21 108c0 37.333 -9.5 66.666 -28.5 87.999s-45.5 32 -79.5 32c-30.667 0 -58.334 -9 -83.001 -27s-44 -43 -58 -75s-21 -68 -21 -108
c0 -37.333 9.66699 -66.666 29 -87.999s45.666 -32 78.999 -32c30.667 0 58.334 9 83.001 27z" />
    <glyph glyph-name="p" unicode="p" horiz-adv-x="565" 
d="M74 367c7.33301 44.667 13.666 89.001 18.999 133.001h120c-1.33301 -19.333 -4 -41.333 -8 -66h2c32.667 50.667 85.334 76 158.001 76c53.333 0 95.833 -17.5 127.5 -52.5s47.5 -81.833 47.5 -140.5c0 -62.667 -10.5 -118.834 -31.5 -168.501s-50.5 -88.5 -88.5 -116.5
s-81.333 -42 -130 -42c-32 0 -60.5 5.33301 -85.5 16s-43.5 25.667 -55.5 45h-3l-52 -293h-128zM343 113.501c21.333 19 38 45.5 50 79.5s18 72 18 114c0 34 -7.33301 60 -22 78s-35.667 27 -63 27c-34.667 0 -64.5 -10.167 -89.5 -30.5s-40.5 -47.166 -46.5 -80.499
l-18 -103c-1.33301 -9.33301 -2 -16 -2 -20c0 -26.667 9.5 -48.834 28.5 -66.501s43.167 -26.5 72.5 -26.5c26.667 0 50.667 9.5 72 28.5z" />
    <glyph glyph-name="q" unicode="q" horiz-adv-x="565" 
d="M349 56l-3 -0.000976562c-16 -21.333 -36.667 -37.666 -62 -48.999s-53.333 -17 -84 -17c-52.667 0 -95 18.5 -127 55.5s-48 85.5 -48 145.5c0 62.667 10.667 118.167 32 166.5s51.333 85.833 90 112.5s82.667 40 132 40c34 0 64.167 -6.5 90.5 -19.5
s44.5 -30.5 54.5 -52.5h2l13 62h121c-10 -40.667 -19.333 -85 -28 -133l-107 -609h-128zM327.5 117.499c25.667 21.667 41.167 48.499 46.5 80.499l19 103c1.33301 10.667 2 18 2 22c0 26.667 -9 48.167 -27 64.5s-42 24.5 -72 24.5c-26.667 0 -50.834 -9.33301 -72.501 -28
s-38.667 -44.667 -51 -78s-18.5 -70.666 -18.5 -111.999c0 -35.333 7.5 -62.333 22.5 -81s36.167 -28 63.5 -28c32.667 0 61.834 10.833 87.501 32.5z" />
    <glyph glyph-name="r" unicode="r" horiz-adv-x="397" 
d="M77 378c10 58 16.002 98.668 18.002 122.001h121c-0.666992 -30 -4.33398 -59.333 -11.001 -88l-2 -10h4c18.667 33.333 45.5 59.666 80.5 78.999s73.5 29 115.5 29c8 0 17.667 -1 29 -3l-17 -101c-2.66699 1.33301 -10.667 2 -24 2c-32 0 -63.333 -8.66699 -94 -26
s-56.834 -40.5 -78.501 -69.5s-35.5 -60.167 -41.5 -93.5l-39 -219h-128z" />
    <glyph glyph-name="s" unicode="s" horiz-adv-x="441" 
d="M60.5 16.5c-33 17.667 -53.832 40.5029 -62.499 68.5029l90 55c8.66699 -16.667 21.334 -30 38.001 -40s35 -15 55 -15c26.667 0 48.167 5.5 64.5 16.5s24.5 25.833 24.5 44.5c0 12.667 -5.66699 24.167 -17 34.5s-30 20.833 -56 31.5c-48 20 -83.167 41.667 -105.5 65
s-33.5 49.666 -33.5 78.999c0 47.333 18 84.833 54 112.5s85 41.5 147 41.5c39.333 0 74.166 -7.33301 104.499 -22s51.833 -35 64.5 -61l-83 -55c-18.667 28.667 -48 43 -88 43c-22 0 -39.333 -4.33301 -52 -13s-19 -20.334 -19 -35.001c0 -10.667 5.66699 -20 17 -28
s34.666 -19.333 69.999 -34c44 -18.667 76.167 -38.834 96.5 -60.501s30.5 -46.167 30.5 -73.5c0 -35.333 -9.5 -66.833 -28.5 -94.5s-45.5 -49 -79.5 -64s-73 -22.5 -117 -22.5c-43.333 0 -81.5 8.83301 -114.5 26.5z" />
    <glyph glyph-name="t" unicode="t" horiz-adv-x="420" 
d="M120.5 22c-25 21.333 -37.5 51.667 -37.5 91c0 11.333 1 23.333 3 36l45 256h-91l17 95h91l22 129l130 36h4l-28 -165h145l-17 -95h-145l-42 -236c-1.33301 -12 -2 -20 -2 -24c0 -39.333 22.667 -59 68 -59c26 0 51 4 75 12l-9 -87c-32 -14 -73 -21 -123 -21
c-45.333 0 -80.5 10.667 -105.5 32z" />
    <glyph glyph-name="u" unicode="u" horiz-adv-x="561" 
d="M73 29.5c-24.667 26.333 -37 65.166 -37 116.499c0 23.333 2.33301 47 7 71l49 283h128l-49 -283c-3.33301 -20 -5 -36 -5 -48c0 -26 5.66699 -45.167 17 -57.5s28.666 -18.5 51.999 -18.5c34.667 0 65.834 13.333 93.501 40s45.167 60.334 52.5 101.001l46 266h128
l-65 -373c-5.33301 -26.667 -10.333 -69 -15 -127h-121c0.666992 32 3 61.333 7 88h-2c-18 -30.667 -42.833 -54.667 -74.5 -72s-66.167 -26 -103.5 -26c-47.333 0 -83.333 13.167 -108 39.5z" />
    <glyph glyph-name="v" unicode="v" horiz-adv-x="528" 
d="M559 500l-284 -500h-110l-108 500h128l58 -344l180 344h136z" />
    <glyph glyph-name="w" unicode="w" horiz-adv-x="707" 
d="M738 500l-216 -500h-112l-35 363l-165 -363h-113l-40 500h131l8 -311l143 311h113l34 -311l117 311h135z" />
    <glyph glyph-name="x" unicode="x" horiz-adv-x="520" 
d="M195 254l-124 246h137l66 -148l118 148h145l-209 -246l135 -254h-138l-76 163l-133 -163h-147z" />
    <glyph glyph-name="y" unicode="y" horiz-adv-x="505" 
d="M536 500l-283.002 -523c-61.333 -112.667 -143.333 -169 -246 -169c-26 0 -52.667 3.66699 -80 11l18 101c7.33301 -2.66699 17 -5 29 -7s22.667 -3 32 -3c28.667 0 55.334 10.167 80.001 30.5s49.334 52.5 74.001 96.5l-104 463h132l54 -321l156 321h138z" />
    <glyph glyph-name="z" unicode="z" horiz-adv-x="476" 
d="M-12 68l326 336h-252l17 96h409l-11 -62l-321 -342h272l-17 -96h-434z" />
    <glyph glyph-name="braceleft" unicode="{" horiz-adv-x="350" 
d="M56 3c0 14 1.33594 27.668 4.00293 41.001l28 159l1 9c0 14 -4.83301 25.5 -14.5 34.5s-23.167 14.5 -40.5 16.5l13 71c19.333 0.666992 35.666 6.5 48.999 17.5s21.666 24.833 24.999 41.5l28 159c19.333 105.333 84 158 194 158h61l-17 -101h-58
c-10.667 0 -19.334 -3.33301 -26.001 -10s-11.334 -16 -14.001 -28l-31 -179c-8.66699 -44.667 -37.667 -76 -87 -94c37.333 -15.333 56 -40 56 -74c0 -4 -0.666992 -10.667 -2 -20l-32 -179c-0.666992 -2.66699 -1 -6.33398 -1 -11.001c0 -8 2.33301 -14.5 7 -19.5
s11.334 -7.5 20.001 -7.5h58l-18 -101h-61c-94.667 0 -142 39 -142 117z" />
    <glyph glyph-name="bar" unicode="|" horiz-adv-x="257" 
d="M145 700h127l-152 -860h-127z" />
    <glyph glyph-name="braceright" unicode="}" horiz-adv-x="350" 
d="M-19 -13l57.998 0.00292969c10 0 18.333 3.33301 25 10s11.334 16 14.001 28l31 179c8.66699 46 38.334 77.333 89.001 94c-19.333 8 -33.666 18 -42.999 30s-14 26.667 -14 44c0 4 0.666992 10.667 2 20l31 179c0.666992 2.66699 1 6.33398 1 11.001
c0 18 -8.66699 27 -26 27h-58l17 101h61c47.333 0 83 -9.83301 107 -29.5s36 -48.834 36 -87.501c0 -14 -1.33301 -27.667 -4 -41l-28 -159c-0.666992 -2.66699 -1 -6.33398 -1 -11.001c0 -14 4.83301 -25.333 14.5 -34s23.167 -13.334 40.5 -14.001l-13 -71
c-20 -2.66699 -36.833 -9.33398 -50.5 -20.001s-21.834 -24 -24.501 -40l-27 -159c-8.66699 -52 -29.5 -91.333 -62.5 -118s-77.167 -40 -132.5 -40h-61z" />
    <glyph glyph-name="asciitilde" unicode="~" horiz-adv-x="617" 
d="M49 212c8 42.667 28.0029 77.333 60.0029 104s69.333 40 112 40c18 0 36.5 -3.83301 55.5 -11.5s40.167 -18.5 63.5 -32.5c20 -10.667 34.667 -18.167 44 -22.5s18.333 -6.5 27 -6.5c14.667 0 27.5 6.83301 38.5 20.5s18.167 31.167 21.5 52.5h110l-5 -31
c-7.33301 -42.667 -26.833 -77.667 -58.5 -105s-68.834 -41 -111.501 -41c-18.667 0 -37.667 4 -57 12s-41.333 19 -66 33c-16.667 9.33301 -30.334 16.333 -41.001 21s-19.667 7 -27 7c-13.333 0 -25.833 -6.66699 -37.5 -20s-19.834 -31 -24.501 -53h-110z" />
    <glyph glyph-name="uni00A0" unicode="&#xa0;" horiz-adv-x="233" 
 />
    <glyph glyph-name="exclamdown" unicode="&#xa1;" horiz-adv-x="256" 
d="M87 354c-14.667 13.333 -21.999 30.332 -21.999 50.999c0 30.667 10.167 55.834 30.5 75.501s46.5 29.5 78.5 29.5c23.333 0 42.333 -6.5 57 -19.5s22 -29.833 22 -50.5c0 -31.333 -10.167 -56.833 -30.5 -76.5s-46.833 -29.5 -79.5 -29.5
c-22.667 0 -41.334 6.66699 -56.001 20zM72.001 280.999h123l-70 -481h-153z" />
    <glyph glyph-name="cent" unicode="&#xa2;" horiz-adv-x="489" 
d="M337 176.5c22.667 12.333 42.665 29.167 59.998 50.5l65 -67c-44.667 -58.667 -106.334 -91.667 -185.001 -99l-16 -89h-79l16 92c-51.333 8.66699 -91.666 30.334 -120.999 65.001s-44 79 -44 133c0 57.333 10.667 108.833 32 154.5s51.333 82.5 90 110.5
s83.334 45 134.001 51l16 90h79l-16 -90c37.333 -4.66699 69 -15.5 95 -32.5s44.333 -38.833 55 -65.5l-88 -67c-9.33301 21.333 -23.5 38.166 -42.5 50.499s-40.5 18.5 -64.5 18.5c-30 0 -57.333 -9 -82 -27s-44 -43 -58 -75s-21 -67.667 -21 -107c0 -36.667 9 -65 27 -85
s43.667 -30 77 -30c24.667 0 48.334 6.16699 71.001 18.5z" />
    <glyph glyph-name="sterling" unicode="&#xa3;" horiz-adv-x="551" 
d="M506 692c28.667 -12 50.665 -27.998 65.998 -47.998l-62 -94c-12 14 -26.667 25.333 -44 34s-34.666 13 -51.999 13c-26 0 -48 -8.66699 -66 -26s-29.667 -40.333 -35 -69c-4 -24.667 -6 -65 -6 -121h158l-15 -85h-144
c-1.33301 -20.667 -2.66602 -35.334 -3.99902 -44.001c-10.667 -62.667 -41.334 -112.334 -92.001 -149.001h264l-18 -103h-452l15 81c36.667 14.667 68.667 37.667 96 69s43.666 62.333 48.999 93c2.66699 16 4.33398 33.667 5.00098 53h-93l15 85h79
c1.33301 64 3.66602 106.333 6.99902 127c10.667 61.333 37.834 110.333 81.501 147s96.5 55 158.5 55c30.667 0 60.334 -6 89.001 -18z" />
    <glyph glyph-name="currency" unicode="&#xa4;" horiz-adv-x="631" 
d="M210 73c-24 7.33301 -45.332 17.335 -63.999 30.002l-69 -58l-68 79l64 56c-16 30 -24 66.667 -24 110c0 36 8.16699 71.667 24.5 107s34.166 63.666 53.499 84.999l-45 56l96 79l49 -58c22 13.333 46 23.5 72 30.5s51.333 10.5 76 10.5c24 0 48.5 -3.66699 73.5 -11
s46.5 -17.333 64.5 -30l71 58l66 -87l-64 -48c8 -12.667 14 -28.167 18 -46.5s6 -37.5 6 -57.5c0 -36.667 -7.66699 -73.334 -23 -110.001s-33.333 -66 -54 -88l46 -56l-95 -78l-52 57c-22 -12.667 -46.5 -22.667 -73.5 -30s-52.833 -11 -77.5 -11
c-23.333 0 -47 3.66699 -71 11zM394.001 199.002c28 17.333 50.333 40.834 67 70.501s25 61.834 25 96.501c0 38 -11.5 68.5 -34.5 91.5s-54.167 34.5 -93.5 34.5c-33.333 0 -64 -8.83301 -92 -26.5s-50.333 -41.334 -67 -71.001s-25 -61.834 -25 -96.501
c0 -37.333 11.667 -67.5 35 -90.5s54.333 -34.5 93 -34.5c33.333 0 64 8.66699 92 26z" />
    <glyph glyph-name="yen" unicode="&#xa5;" horiz-adv-x="638" 
d="M480 395h112l-17 -94h-162l-15 -21l-9 -52h174l-16 -92h-174l-24 -136h-144l24 136h-176l16 92h176l9 52l-8 21h-165l17 93h114l-111 306h152l95 -275l191 275h160z" />
    <glyph glyph-name="brokenbar" unicode="&#xa6;" horiz-adv-x="257" 
d="M145 700h127l-69 -392h-127zM62 232h127l-69 -392h-127z" />
    <glyph glyph-name="section" unicode="&#xa7;" horiz-adv-x="546" 
d="M449 168c17.333 -18.667 26.001 -41.9971 26.001 -69.9971c0 -39.333 -11.5 -74.666 -34.5 -105.999s-54.667 -55.833 -95 -73.5s-85.833 -26.5 -136.5 -26.5c-48.667 0 -91.834 9 -129.501 27s-65.5 42.333 -83.5 73l92 79c18.667 -24.667 39.834 -43.167 63.501 -55.5
s48.167 -18.5 73.5 -18.5c29.333 0 54 7.5 74 22.5s30 33.167 30 54.5c0 16.667 -7.66699 30.834 -23 42.501s-40.333 25.834 -75 42.501c-6 3.33301 -15 7.66602 -27 12.999c-38 18.667 -66.167 33.667 -84.5 45s-32.833 24.5 -43.5 39.5s-16 33.5 -16 55.5
c0 50.667 23.333 94 70 130c-22 23.333 -33 49.666 -33 78.999c0 35.333 11.167 67.5 33.5 96.5s52.833 51.667 91.5 68s82 24.5 130 24.5c50 0 91.667 -8.83301 125 -26.5s56.333 -42.834 69 -75.501l-83 -55c-10.667 16.667 -26.834 29.5 -48.501 38.5
s-45.5 13.5 -71.5 13.5c-29.333 0 -53.5 -6.33301 -72.5 -19s-28.5 -28.334 -28.5 -47.001c0 -15.333 7.66699 -29.333 23 -42s46 -30.334 92 -53.001c47.333 -23.333 84.5 -46.833 111.5 -70.5s40.5 -52.834 40.5 -87.501c0 -42 -20 -81.333 -60 -118zM367.001 221.003
c14.667 19.333 21.999 34.332 21.999 44.999s-8.16699 22.334 -24.5 35.001s-49.166 31 -98.499 55c-20.667 10 -39 19.333 -55 28c-16 -14.667 -24 -30 -24 -46c0 -10.667 6.66699 -20.667 20 -30s38 -23.333 74 -42l42 -22z" />
    <glyph glyph-name="dieresis" unicode="&#xa8;" horiz-adv-x="400" 
d="M108 570c-10.667 10 -15.999 23.002 -15.999 39.002c0 23.333 7.33301 42.166 22 56.499s34 21.5 58 21.5c16.667 0 30.167 -5 40.5 -15s15.5 -23 15.5 -39c0 -22.667 -7.33301 -41.334 -22 -56.001s-33.667 -22 -57 -22c-16.667 0 -30.334 5 -41.001 15z
M318.501 570.002c-10.333 10 -15.5 23.002 -15.5 39.002c0 23.333 7.33301 42.166 22 56.499s34 21.5 58 21.5c16 0 29.333 -5 40 -15s16 -23 16 -39c0 -22.667 -7.5 -41.334 -22.5 -56.001s-34.167 -22 -57.5 -22c-16.667 0 -30.167 5 -40.5 15z" />
    <glyph glyph-name="copyright" unicode="&#xa9;" horiz-adv-x="810" 
d="M197 26c-46.667 24 -82.667 57.667 -108 101s-38 93.333 -38 150c0 80 19.167 153.167 57.5 219.5s90.5 118.5 156.5 156.5s139.333 57 220 57c62 0 116.333 -12 163 -36s82.667 -57.667 108 -101s38 -93.333 38 -150c0 -80.667 -19.167 -154 -57.5 -220
s-90.5 -118 -156.5 -156s-139.333 -57 -220 -57c-62 0 -116.333 12 -163 36zM540.5 114c50.333 30 90 70.834 119 122.501s43.5 108.834 43.5 171.501c0 44 -9.5 83 -28.5 117s-45.833 60.167 -80.5 78.5s-75 27.5 -121 27.5c-61.333 0 -117.166 -15 -167.499 -45
s-90 -70.833 -119 -122.5s-43.5 -108.834 -43.5 -171.501c0 -44 9.5 -82.833 28.5 -116.5s45.833 -59.834 80.5 -78.501s75 -28 121 -28c61.333 0 117.166 15 167.499 45zM282 187.001c-27.333 29.333 -41 68.333 -41 117s10 92.667 30 132s47.333 70.333 82 93
s73.667 34 117 34c31.333 0 58.833 -7.5 82.5 -22.5s38.5 -34.167 44.5 -57.5l-60 -52c-16.667 33.333 -43.667 50 -81 50c-22 0 -42 -7.33301 -60 -22s-32.167 -34.667 -42.5 -60s-15.5 -53.333 -15.5 -84c0 -27.333 6.16699 -49.333 18.5 -66s29.166 -25 50.499 -25
c19.333 0 37.166 4.5 53.499 13.5s32.833 22.5 49.5 40.5l41 -55c-15.333 -22 -37.666 -40.833 -66.999 -56.5s-59.666 -23.5 -90.999 -23.5c-46.667 0 -83.667 14.667 -111 44z" />
    <glyph glyph-name="ordfeminine" unicode="&#xaa;" horiz-adv-x="362" 
d="M92 385c-17.333 16 -26.002 36.666 -26.002 61.999c0 38 13.5 67.667 40.5 89s64.167 32 111.5 32h64l2 13c1.33301 8 2 13 2 15c0 12.667 -4.16699 22.5 -12.5 29.5s-20.166 10.5 -35.499 10.5c-34.667 0 -65.334 -13.333 -92.001 -40l-38 53
c38.667 38.667 88.334 58 149.001 58c41.333 0 73 -8.16699 95 -24.5s33 -39.833 33 -70.5c0 -11.333 -0.666992 -20 -2 -26l-26 -147c-4 -32.667 -5.66699 -56.667 -5 -72h-90c-0.666992 7.33301 -1 20.333 -1 39c-9.33301 -13.333 -23.333 -24.166 -42 -32.499
s-38.667 -12.5 -60 -12.5c-27.333 0 -49.666 8 -66.999 24zM242.498 442.499c12.333 11.667 20.501 25.833 24.501 42.5l5 25h-41c-21.333 0 -38 -4.66699 -50 -14s-18 -22.333 -18 -39c0 -10 3.16699 -17.833 9.5 -23.5s14.833 -8.5 25.5 -8.5
c17.333 0 32.166 5.83301 44.499 17.5z" />
    <glyph glyph-name="guillemotleft" unicode="&#xab;" horiz-adv-x="585" 
d="M34 260l185 200h138l-182 -200l112 -200h-138zM267 260l185 200h138l-182 -200l112 -200h-138z" />
    <glyph glyph-name="logicalnot" unicode="&#xac;" horiz-adv-x="615" 
d="M462 320h-406l16 88h531l-50 -287h-126z" />
    <glyph glyph-name="uni00AD" unicode="&#xad;" horiz-adv-x="340" 
d="M34 310h293l-15 -88h-294z" />
    <glyph glyph-name="registered" unicode="&#xae;" horiz-adv-x="530" 
d="M482.5 662c34.333 -32 51.5 -74.333 51.5 -127c0 -48.667 -11.667 -93 -35 -133s-55 -71.667 -95 -95s-84.333 -35 -133 -35c-57.333 0 -103.166 16 -137.499 48s-51.5 74.333 -51.5 127c0 48.667 11.667 93 35 133s55.166 71.667 95.499 95s84.833 35 133.5 35
c56.667 0 102.167 -16 136.5 -48zM379 349.5c30.667 17.667 54.834 41.834 72.501 72.501s26.5 65 26.5 103c0 40 -12.5 72.333 -37.5 97s-58.5 37 -100.5 37c-38 0 -72.333 -8.83301 -103 -26.5s-54.834 -41.834 -72.501 -72.501s-26.5 -65 -26.5 -103
c0 -40 12.5 -72.333 37.5 -97s58.5 -37 100.5 -37c38 0 72.333 8.83301 103 26.5zM392 600c12.667 -10 18.999 -24.667 18.999 -44c0 -24 -5.66699 -44.167 -17 -60.5s-27.666 -27.5 -48.999 -33.5l33 -92h-58l-31 87h-24l-15 -87h-54l43 245h98c24 0 42.333 -5 55 -15z
M357.999 548c0 8 -3.33301 13.5 -10 16.5s-17 4.5 -31 4.5h-32l-12 -66h34c34 0 51 15 51 45z" />
    <glyph glyph-name="macron" unicode="&#xaf;" horiz-adv-x="400" 
d="M92 640h353l-11 -66h-354z" />
    <glyph glyph-name="degree" unicode="&#xb0;" horiz-adv-x="322" 
d="M109 469.5c-21.333 19.667 -31.999 45.834 -31.999 78.501c0 30 7.33301 57.333 22 82s34.667 44.167 60 58.5s53.333 21.5 84 21.5c35.333 0 63.666 -9.83301 84.999 -29.5s32 -45.834 32 -78.501c0 -30 -7.33301 -57.333 -22 -82s-34.5 -44.167 -59.5 -58.5
s-52.833 -21.5 -83.5 -21.5c-36 0 -64.667 9.83301 -86 29.5zM266.501 528.5c16.333 16.333 24.5 36.833 24.5 61.5c0 17.333 -5.33301 31 -16 41s-25.334 15 -44.001 15c-24 0 -44.167 -8.16699 -60.5 -24.5s-24.5 -36.833 -24.5 -61.5c0 -17.333 5.33301 -31 16 -41
s25.334 -15 44.001 -15c24 0 44.167 8.16699 60.5 24.5z" />
    <glyph glyph-name="plusminus" unicode="&#xb1;" horiz-adv-x="617" 
d="M379 306l-29 -165h-122l29 165h-200l15 89h201l29 166h122l-29 -166h201l-16 -89h-201zM26 89h509l-16 -89h-508z" />
    <glyph glyph-name="uni00B2" unicode="&#xb2;" horiz-adv-x="430" 
d="M54 289c45.333 27.333 87.501 58.332 126.501 92.999s69.833 68.334 92.5 101.001s34 60 34 82c0 12 -4.33301 21.5 -13 28.5s-20.667 10.5 -36 10.5c-36 0 -72 -20 -108 -60l-56 67c22 30 49.667 53.167 83 69.5s69.333 24.5 108 24.5
c48.667 0 86.5 -10.167 113.5 -30.5s40.5 -48.5 40.5 -84.5c0 -40 -16.833 -83 -50.5 -129s-86.834 -99 -159.501 -159h175l-16 -94h-349z" />
    <glyph glyph-name="uni00B3" unicode="&#xb3;" horiz-adv-x="430" 
d="M109 219.5c-28 14.333 -48.999 33.8301 -62.999 58.4971l74 68c13.333 -14.667 28.166 -26.167 44.499 -34.5s32.833 -12.5 49.5 -12.5c20 0 36.833 6.66699 50.5 20s20.5 29.666 20.5 48.999c0 15.333 -5.83301 27.5 -17.5 36.5s-26.834 13.5 -45.501 13.5h-55l15 87h55
c18.667 0 34.5 6.33301 47.5 19s19.5 27.667 19.5 45c0 10.667 -4.16699 19.167 -12.5 25.5s-19.833 9.5 -34.5 9.5c-16 0 -33.667 -4.16699 -53 -12.5s-37.333 -19.833 -54 -34.5l-47 71c23.333 24.667 51.333 43.667 84 57s67 20 103 20c44 0 79.5 -10.167 106.5 -30.5
s40.5 -47.166 40.5 -80.499c0 -24.667 -7.5 -48.167 -22.5 -70.5s-36.167 -41.166 -63.5 -56.499c19.333 -10 34.5 -24.167 45.5 -42.5s16.5 -38.166 16.5 -59.499c0 -32 -8.83301 -60.667 -26.5 -86s-42.167 -45.166 -73.5 -59.499s-66.666 -21.5 -105.999 -21.5
c-37.333 0 -70 7.16699 -98 21.5z" />
    <glyph glyph-name="acute" unicode="&#xb4;" horiz-adv-x="400" 
d="M285 731h123l-146 -176h-101z" />
    <glyph glyph-name="uni00B5" unicode="&#xb5;" horiz-adv-x="561" 
d="M92 500l128.001 -0.000976562l-50 -283c-2.66699 -15.333 -4 -30.333 -4 -45c0 -26.667 5.83301 -46.5 17.5 -59.5s29.5 -19.5 53.5 -19.5c34.667 0 65.5 13.667 92.5 41s44.167 61 51.5 101l46 265h128l-65 -373c-6 -40.667 -11 -83 -15 -127h-120l-1 24
c0 15.333 1.33301 31 4 47h-2c-18 -27.333 -37.667 -47.666 -59 -60.999s-48 -20 -80 -20c-32.667 0 -60.334 9.33301 -83.001 28l-39 -222h-127z" />
    <glyph glyph-name="paragraph" unicode="&#xb6;" horiz-adv-x="544" 
d="M270 267l-6 -0.000976562c-60 0 -106.5 13.833 -139.5 41.5s-49.5 66.834 -49.5 117.501c0 56 12.833 104.667 38.5 146s62.667 73 111 95s105.5 33 171.5 33h137l-140 -793h-65l132 747h-64l-132 -747h-58z" />
    <glyph glyph-name="periodcentered" unicode="&#xb7;" horiz-adv-x="291" 
d="M81 195c-13.333 12.667 -20 29 -20 49c0 30 9.5 54.667 28.5 74s43.167 29 72.5 29c20.667 0 37.667 -6.33301 51 -19s20 -29 20 -49c0 -30 -9.33301 -54.667 -28 -74s-43 -29 -73 -29c-20.667 0 -37.667 6.33301 -51 19z" />
    <glyph glyph-name="cedilla" unicode="&#xb8;" horiz-adv-x="400" 
d="M48 -251c-17.333 4 -30.665 9 -39.998 15l30 64c8 -4.66699 17.667 -8.5 29 -11.5s22 -4.5 32 -4.5c12.667 0 23.5 3.5 32.5 10.5s13.5 15.5 13.5 25.5c0 8.66699 -5.66699 15.667 -17 21s-26 7.33301 -44 6l-28 36l74 102h87l-58 -79
c23.333 0 42.166 -6.83301 56.499 -20.5s21.5 -31.167 21.5 -52.5c0 -33.333 -12.833 -61.333 -38.5 -84s-58.834 -34 -99.501 -34c-16.667 0 -33.667 2 -51 6z" />
    <glyph glyph-name="uni00B9" unicode="&#xb9;" horiz-adv-x="430" 
d="M98 302h76l45 253l-96 -51l20 114l144 80h87l-70 -396h75l-17 -94h-280z" />
    <glyph glyph-name="ordmasculine" unicode="&#xba;" horiz-adv-x="390" 
d="M109 397.5c-26.667 24.333 -40.001 57.5 -40.001 99.5c0 41.333 8.5 77.833 25.5 109.5s40.833 56.334 71.5 74.001s65.667 26.5 105 26.5c46.667 0 83.334 -12.167 110.001 -36.5s40 -57.5 40 -99.5c0 -41.333 -8.5 -77.833 -25.5 -109.5s-40.833 -56.334 -71.5 -74.001
s-66 -26.5 -106 -26.5c-46 0 -82.333 12.167 -109 36.5zM293.999 470c18 26.667 27 59.334 27 98.001c0 22.667 -5 40 -15 52s-24.333 18 -43 18c-26.667 0 -49 -12.833 -67 -38.5s-27 -57.834 -27 -96.501c0 -22.667 5 -40.5 15 -53.5s24.333 -19.5 43 -19.5
c26.667 0 49 13.333 67 40z" />
    <glyph glyph-name="guillemotright" unicode="&#xbb;" horiz-adv-x="585" 
d="M180 260l-111 200h137l115 -200l-185 -200h-138zM414 260l-112 200h138l114 -200l-185 -200h-138z" />
    <glyph glyph-name="onequarter" unicode="&#xbc;" horiz-adv-x="1022" 
d="M747 719h105l-520 -757h-104zM109 351h68l40 226l-85 -46l17 101l128 72h77l-62 -353h66l-14 -83h-249zM770 62h-186l14 77l233 296h121l-52 -292h43l-14 -81h-43l-11 -62h-116zM785 143l27 157l-121 -157h94z" />
    <glyph glyph-name="onehalf" unicode="&#xbd;" horiz-adv-x="1022" 
d="M717 719h105l-519 -757h-105zM109 351h68l40 226l-85 -46l17 101l128 72h77l-62 -353h66l-14 -83h-249zM619 72c40.667 24 78.1689 51.332 112.502 81.999s61.666 60.5 81.999 89.5s30.5 53.5 30.5 73.5c0 11.333 -3.83301 20 -11.5 26s-18.5 9 -32.5 9
c-31.333 0 -63 -18 -95 -54l-50 60c19.333 26.667 43.833 47.334 73.5 62.001s61.5 22 95.5 22c43.333 0 77.166 -9 101.499 -27s36.5 -43.333 36.5 -76c0 -35.333 -14.833 -73.5 -44.5 -114.5s-77.167 -88.167 -142.5 -141.5h156l-15 -83h-310z" />
    <glyph glyph-name="threequarters" unicode="&#xbe;" horiz-adv-x="1022" 
d="M729 719h104l-519 -757h-105zM128 279c-24.667 12.667 -43 30.002 -55 52.002l66 61c11.333 -13.333 24.333 -23.666 39 -30.999s29.334 -11 44.001 -11c18 0 33 5.83301 45 17.5s18 26.167 18 43.5c0 13.333 -5.16699 24.166 -15.5 32.499s-23.833 12.5 -40.5 12.5h-49
l14 77h48c16.667 0 30.834 5.66699 42.501 17s17.5 24.666 17.5 39.999c0 9.33301 -3.83301 16.833 -11.5 22.5s-17.834 8.5 -30.501 8.5c-14 0 -29.833 -3.83301 -47.5 -11.5s-33.5 -17.834 -47.5 -30.501l-42 63c20.667 22 45.667 39 75 51s60 18 92 18
c38.667 0 70 -9.16699 94 -27.5s36 -42.166 36 -71.499c0 -22.667 -6.66699 -43.834 -20 -63.501s-32 -36.167 -56 -49.5c16.667 -8.66699 29.834 -21.167 39.501 -37.5s14.5 -34.166 14.5 -53.499c0 -28 -7.83301 -53.333 -23.5 -76s-37.334 -40.334 -65.001 -53.001
s-58.834 -19 -93.501 -19c-34 0 -63.333 6.33301 -88 19zM753 62.002h-186l14 77l234 296h120l-51 -292h42l-14 -81h-43l-11 -62h-116zM768 143.002l27 157l-121 -157h94z" />
    <glyph glyph-name="questiondown" unicode="&#xbf;" horiz-adv-x="471" 
d="M202.5 373.5c-13 11.667 -19.5 26.5 -19.5 44.5c0 26 9.33301 47.833 28 65.5s41.667 26.5 69 26.5c21.333 0 38.333 -5.66699 51 -17s19 -26.333 19 -45c0 -25.333 -9.33301 -47 -28 -65s-41.667 -27 -69 -27c-20.667 0 -37.5 5.83301 -50.5 17.5zM20 -172
c-32.667 25.333 -48.9971 60.667 -48.9971 106c0 30 5.33301 57 16 81s23.834 45 39.501 63s36.167 39 61.5 63c30 28.667 53 53.334 69 74.001s26.333 44 31 70c2 20 3 31.333 3 34h120v-5c0 -27.333 -4.83301 -52.166 -14.5 -74.499s-21.334 -42 -35.001 -59
s-31.834 -37.167 -54.501 -60.5c-30.667 -30.667 -53.667 -57.5 -69 -80.5s-23 -49.5 -23 -79.5c0 -20.667 6.5 -36.834 19.5 -48.501s31.167 -17.5 54.5 -17.5c24 0 48.667 7.66699 74 23s48.666 36.666 69.999 63.999l54 -79c-24.667 -34.667 -57.5 -62 -98.5 -82
s-84.833 -30 -131.5 -30c-58.667 0 -104.334 12.667 -137.001 38z" />
    <glyph glyph-name="Agrave" unicode="&#xc0;" horiz-adv-x="641" 
d="M423 116h-240l-55 -116h-157l365 700h127l119 -700h-144zM408 231l-37 278l-133 -278h170zM279 917h124l56 -162h-102z" />
    <glyph glyph-name="Aacute" unicode="&#xc1;" horiz-adv-x="641" 
d="M423 116h-240l-55 -116h-157l365 700h127l119 -700h-144zM408 231l-37 278l-133 -278h170zM473 917h124l-136 -162h-102z" />
    <glyph glyph-name="Acircumflex" unicode="&#xc2;" horiz-adv-x="641" 
d="M423 116h-240l-55 -116h-157l365 700h127l119 -700h-144zM408 231l-37 278l-133 -278h170zM402 917h73l106 -162h-106l-46 78l-73 -78h-117z" />
    <glyph glyph-name="Atilde" unicode="&#xc3;" horiz-adv-x="641" 
d="M423 116h-240l-55 -116h-157l365 700h127l119 -700h-144zM408 231l-37 278l-133 -278h170zM284.5 848c23.667 22 50.5029 33 80.5029 33c13.333 0 25.333 -2.33301 36 -7s23 -11.667 37 -21c9.33301 -6 17.166 -10.667 23.499 -14s12.5 -5 18.5 -5c18 0 30 17 36 51h80
c-6 -43.333 -20.333 -75.833 -43 -97.5s-50 -32.5 -82 -32.5c-13.333 0 -25.833 2.5 -37.5 7.5s-24.834 12.167 -39.501 21.5c-18 12 -31 18 -39 18c-7.33301 0 -14.333 -4.33301 -21 -13s-11.334 -20 -14.001 -34h-80c6 40 20.833 71 44.5 93z" />
    <glyph glyph-name="Adieresis" unicode="&#xc4;" horiz-adv-x="641" 
d="M423 116h-240l-55 -116h-157l365 700h127l119 -700h-144zM408 231l-37 278l-133 -278h170zM264 770c-10.667 10 -15.999 23.002 -15.999 39.002c0 23.333 7.33301 42.166 22 56.499s34 21.5 58 21.5c16.667 0 30.167 -5 40.5 -15s15.5 -23 15.5 -39
c0 -22.667 -7.33301 -41.334 -22 -56.001s-33.667 -22 -57 -22c-16.667 0 -30.334 5 -41.001 15zM474.501 770.002c-10.333 10 -15.5 23.002 -15.5 39.002c0 23.333 7.33301 42.166 22 56.499s34 21.5 58 21.5c16 0 29.333 -5 40 -15s16 -23 16 -39
c0 -22.667 -7.5 -41.334 -22.5 -56.001s-34.167 -22 -57.5 -22c-16.667 0 -30.167 5 -40.5 15z" />
    <glyph glyph-name="Aring" unicode="&#xc5;" horiz-adv-x="641" 
d="M423 116h-240l-55 -116h-157l365 700h127l119 -700h-144zM408 231l-37 278l-133 -278h170zM345 742.5c-16.667 15 -25 34.5 -25 58.5c0 35.333 11.667 64 35 86s53.333 33 90 33c26.667 0 48.334 -7.5 65.001 -22.5s25 -34.5 25 -58.5
c0 -34.667 -11.667 -63.167 -35 -85.5s-53.333 -33.5 -90 -33.5c-26.667 0 -48.334 7.5 -65.001 22.5zM461 786c11.333 11.333 17.002 26.333 17.002 45c0 12 -3.83301 21.667 -11.5 29s-17.834 11 -30.501 11c-17.333 0 -31.5 -5.66699 -42.5 -17s-16.5 -26.333 -16.5 -45
c0 -12 3.83301 -21.667 11.5 -29s17.5 -11 29.5 -11c17.333 0 31.666 5.66699 42.999 17z" />
    <glyph glyph-name="AE" unicode="&#xc6;" horiz-adv-x="827" 
d="M580 585l-29 -164h235l-19 -113h-236l-34 -193h268l-20 -115h-411l17 98h-163l-58 -98h-159l435 700h462l-20 -115h-268zM370 206l50 285l-168 -285h118z" />
    <glyph glyph-name="Ccedilla" unicode="&#xc7;" horiz-adv-x="620" 
d="M502 185l71.999 -72c-52 -76.667 -126 -117.334 -222 -122.001l-42 -57c24.667 0 44.334 -6 59.001 -18s22 -27.667 22 -47c0 -31.333 -13 -57.666 -39 -78.999s-58.333 -32 -97 -32c-16.667 0 -33.5 2 -50.5 6s-30.167 9 -39.5 15l23 55c18.667 -8 40 -12 64 -12
c14 0 25.5 3.5 34.5 10.5s13.5 15.833 13.5 26.5c0 9.33301 -5.5 16.166 -16.5 20.499s-25.833 6.16602 -44.5 5.49902l-23 33l56 76c-72 10.667 -128.5 40.167 -169.5 88.5s-61.5 110.5 -61.5 186.5c0 85.333 16 161.333 48 228s76.833 118.834 134.5 156.501
s123.167 56.5 196.5 56.5c57.333 0 107.166 -11.167 149.499 -33.5s70.833 -52.166 85.5 -89.499l-95 -72c-12.667 26 -31.167 45.833 -55.5 59.5s-52.833 20.5 -85.5 20.5c-45.333 0 -85.666 -13.833 -120.999 -41.5s-63 -66 -83 -115s-30 -104.833 -30 -167.5
c0 -52.667 12.667 -93.5 38 -122.5s61.333 -43.5 108 -43.5c70.667 0 127.667 26.667 171 80z" />
    <glyph glyph-name="Egrave" unicode="&#xc8;" horiz-adv-x="571" 
d="M147 700h465l-20 -115h-321l-28 -160h286l-20 -115h-287l-33 -195h320l-20 -115h-465zM261 917h124l56 -162h-102z" />
    <glyph glyph-name="Eacute" unicode="&#xc9;" horiz-adv-x="571" 
d="M147 700h465l-20 -115h-321l-28 -160h286l-20 -115h-287l-33 -195h320l-20 -115h-465zM455 917h124l-136 -162h-102z" />
    <glyph glyph-name="Ecircumflex" unicode="&#xca;" horiz-adv-x="571" 
d="M147 700h465l-20 -115h-321l-28 -160h286l-20 -115h-287l-33 -195h320l-20 -115h-465zM384 917h73l106 -162h-106l-46 78l-73 -78h-117z" />
    <glyph glyph-name="Edieresis" unicode="&#xcb;" horiz-adv-x="571" 
d="M147 700h465l-20 -115h-321l-28 -160h286l-20 -115h-287l-33 -195h320l-20 -115h-465zM246 770c-10.667 10 -15.999 23.002 -15.999 39.002c0 23.333 7.33301 42.166 22 56.499s34 21.5 58 21.5c16.667 0 30.167 -5 40.5 -15s15.5 -23 15.5 -39
c0 -22.667 -7.33301 -41.334 -22 -56.001s-33.667 -22 -57 -22c-16.667 0 -30.334 5 -41.001 15zM456.501 770.002c-10.333 10 -15.5 23.002 -15.5 39.002c0 23.333 7.33301 42.166 22 56.499s34 21.5 58 21.5c16 0 29.333 -5 40 -15s16 -23 16 -39
c0 -22.667 -7.5 -41.334 -22.5 -56.001s-34.167 -22 -57.5 -22c-16.667 0 -30.167 5 -40.5 15z" />
    <glyph glyph-name="Igrave" unicode="&#xcc;" horiz-adv-x="323" 
d="M169 700h143l-123 -700h-143zM120 917h124l56 -162h-102z" />
    <glyph glyph-name="Iacute" unicode="&#xcd;" horiz-adv-x="323" 
d="M169 700h143l-123 -700h-143zM314 917h124l-136 -162h-102z" />
    <glyph glyph-name="Icircumflex" unicode="&#xce;" horiz-adv-x="323" 
d="M169 700h143l-123 -700h-143zM243 917h73l106 -162h-106l-46 78l-73 -78h-117z" />
    <glyph glyph-name="Idieresis" unicode="&#xcf;" horiz-adv-x="323" 
d="M169 700h143l-123 -700h-143zM105 770c-10.667 10 -15.999 23.002 -15.999 39.002c0 23.333 7.33301 42.166 22 56.499s34 21.5 58 21.5c16.667 0 30.167 -5 40.5 -15s15.5 -23 15.5 -39c0 -22.667 -7.33301 -41.334 -22 -56.001s-33.667 -22 -57 -22
c-16.667 0 -30.334 5 -41.001 15zM315.501 770.002c-10.333 10 -15.5 23.002 -15.5 39.002c0 23.333 7.33301 42.166 22 56.499s34 21.5 58 21.5c16 0 29.333 -5 40 -15s16 -23 16 -39c0 -22.667 -7.5 -41.334 -22.5 -56.001s-34.167 -22 -57.5 -22
c-16.667 0 -30.167 5 -40.5 15z" />
    <glyph glyph-name="Eth" unicode="&#xd0;" horiz-adv-x="648" 
d="M576.5 638.5c42.333 -41 63.5 -100.832 63.5 -179.499c0 -148.667 -31.667 -262.334 -95 -341.001s-155.333 -118 -276 -118h-239l50 286h-64l18 104h65l54 310h240c80 0 141.167 -20.5 183.5 -61.5zM397.5 156.001c31.667 27.333 56.167 66 73.5 116s26 108 26 174
c0 47.333 -9.5 82.333 -28.5 105s-48.5 34 -88.5 34h-103l-34 -195h159l-19 -104h-159l-30 -171h94c41.333 0 77.833 13.667 109.5 41z" />
    <glyph glyph-name="Ntilde" unicode="&#xd1;" horiz-adv-x="699" 
d="M710 700l-123 -700h-133l-205 465l-82 -465h-143l123 700h139l200 -457l81 457h143zM312.5 848c23.667 22 50.5029 33 80.5029 33c13.333 0 25.333 -2.33301 36 -7s23 -11.667 37 -21c9.33301 -6 17.166 -10.667 23.499 -14s12.5 -5 18.5 -5c18 0 30 17 36 51h80
c-6 -43.333 -20.333 -75.833 -43 -97.5s-50 -32.5 -82 -32.5c-13.333 0 -25.833 2.5 -37.5 7.5s-24.834 12.167 -39.501 21.5c-18 12 -31 18 -39 18c-7.33301 0 -14.333 -4.33301 -21 -13s-11.334 -20 -14.001 -34h-80c6 40 20.833 71 44.5 93z" />
    <glyph glyph-name="Ograve" unicode="&#xd2;" horiz-adv-x="690" 
d="M170 24.5c-41.333 23 -73.333 55.167 -96 96.5s-34 89 -34 143c0 86 15.833 162.833 47.5 230.5s75.834 120.5 132.501 158.5s121 57 193 57c54 0 101.667 -11.5 143 -34.5s73.333 -55.167 96 -96.5s34 -89 34 -143c0 -86 -15.833 -162.833 -47.5 -230.5
s-75.834 -120.5 -132.501 -158.5s-121 -57 -193 -57c-54 0 -101.667 11.5 -143 34.5zM435.5 145c33 27.333 58.833 65.501 77.5 114.501s28 104.5 28 166.5c0 50.667 -12.667 91.667 -38 123s-58.333 47 -99 47c-42 0 -79.5 -13.667 -112.5 -41s-58.833 -65.333 -77.5 -114
s-28 -104 -28 -166c0 -50.667 12.667 -91.834 38 -123.501s58.333 -47.5 99 -47.5c42 0 79.5 13.667 112.5 41zM293 917.001h124l56 -162h-102z" />
    <glyph glyph-name="Oacute" unicode="&#xd3;" horiz-adv-x="690" 
d="M170 24.5c-41.333 23 -73.333 55.167 -96 96.5s-34 89 -34 143c0 86 15.833 162.833 47.5 230.5s75.834 120.5 132.501 158.5s121 57 193 57c54 0 101.667 -11.5 143 -34.5s73.333 -55.167 96 -96.5s34 -89 34 -143c0 -86 -15.833 -162.833 -47.5 -230.5
s-75.834 -120.5 -132.501 -158.5s-121 -57 -193 -57c-54 0 -101.667 11.5 -143 34.5zM435.5 145c33 27.333 58.833 65.501 77.5 114.501s28 104.5 28 166.5c0 50.667 -12.667 91.667 -38 123s-58.333 47 -99 47c-42 0 -79.5 -13.667 -112.5 -41s-58.833 -65.333 -77.5 -114
s-28 -104 -28 -166c0 -50.667 12.667 -91.834 38 -123.501s58.333 -47.5 99 -47.5c42 0 79.5 13.667 112.5 41zM487 917.001h124l-136 -162h-102z" />
    <glyph glyph-name="Ocircumflex" unicode="&#xd4;" horiz-adv-x="690" 
d="M170 24.5c-41.333 23 -73.333 55.167 -96 96.5s-34 89 -34 143c0 86 15.833 162.833 47.5 230.5s75.834 120.5 132.501 158.5s121 57 193 57c54 0 101.667 -11.5 143 -34.5s73.333 -55.167 96 -96.5s34 -89 34 -143c0 -86 -15.833 -162.833 -47.5 -230.5
s-75.834 -120.5 -132.501 -158.5s-121 -57 -193 -57c-54 0 -101.667 11.5 -143 34.5zM435.5 145c33 27.333 58.833 65.501 77.5 114.501s28 104.5 28 166.5c0 50.667 -12.667 91.667 -38 123s-58.333 47 -99 47c-42 0 -79.5 -13.667 -112.5 -41s-58.833 -65.333 -77.5 -114
s-28 -104 -28 -166c0 -50.667 12.667 -91.834 38 -123.501s58.333 -47.5 99 -47.5c42 0 79.5 13.667 112.5 41zM416 917.001h73l106 -162h-106l-46 78l-73 -78h-117z" />
    <glyph glyph-name="Otilde" unicode="&#xd5;" horiz-adv-x="690" 
d="M170 24.5c-41.333 23 -73.333 55.167 -96 96.5s-34 89 -34 143c0 86 15.833 162.833 47.5 230.5s75.834 120.5 132.501 158.5s121 57 193 57c54 0 101.667 -11.5 143 -34.5s73.333 -55.167 96 -96.5s34 -89 34 -143c0 -86 -15.833 -162.833 -47.5 -230.5
s-75.834 -120.5 -132.501 -158.5s-121 -57 -193 -57c-54 0 -101.667 11.5 -143 34.5zM435.5 145c33 27.333 58.833 65.501 77.5 114.501s28 104.5 28 166.5c0 50.667 -12.667 91.667 -38 123s-58.333 47 -99 47c-42 0 -79.5 -13.667 -112.5 -41s-58.833 -65.333 -77.5 -114
s-28 -104 -28 -166c0 -50.667 12.667 -91.834 38 -123.501s58.333 -47.5 99 -47.5c42 0 79.5 13.667 112.5 41zM298.5 848.001c23.667 22 50.5029 33 80.5029 33c13.333 0 25.333 -2.33301 36 -7s23 -11.667 37 -21c9.33301 -6 17.166 -10.667 23.499 -14s12.5 -5 18.5 -5
c18 0 30 17 36 51h80c-6 -43.333 -20.333 -75.833 -43 -97.5s-50 -32.5 -82 -32.5c-13.333 0 -25.833 2.5 -37.5 7.5s-24.834 12.167 -39.501 21.5c-18 12 -31 18 -39 18c-7.33301 0 -14.333 -4.33301 -21 -13s-11.334 -20 -14.001 -34h-80c6 40 20.833 71 44.5 93z" />
    <glyph glyph-name="Odieresis" unicode="&#xd6;" horiz-adv-x="690" 
d="M170 24.5c-41.333 23 -73.333 55.167 -96 96.5s-34 89 -34 143c0 86 15.833 162.833 47.5 230.5s75.834 120.5 132.501 158.5s121 57 193 57c54 0 101.667 -11.5 143 -34.5s73.333 -55.167 96 -96.5s34 -89 34 -143c0 -86 -15.833 -162.833 -47.5 -230.5
s-75.834 -120.5 -132.501 -158.5s-121 -57 -193 -57c-54 0 -101.667 11.5 -143 34.5zM435.5 145c33 27.333 58.833 65.501 77.5 114.501s28 104.5 28 166.5c0 50.667 -12.667 91.667 -38 123s-58.333 47 -99 47c-42 0 -79.5 -13.667 -112.5 -41s-58.833 -65.333 -77.5 -114
s-28 -104 -28 -166c0 -50.667 12.667 -91.834 38 -123.501s58.333 -47.5 99 -47.5c42 0 79.5 13.667 112.5 41zM278 770.001c-10.667 10 -15.999 23.002 -15.999 39.002c0 23.333 7.33301 42.166 22 56.499s34 21.5 58 21.5c16.667 0 30.167 -5 40.5 -15s15.5 -23 15.5 -39
c0 -22.667 -7.33301 -41.334 -22 -56.001s-33.667 -22 -57 -22c-16.667 0 -30.334 5 -41.001 15zM488.501 770.003c-10.333 10 -15.5 23.002 -15.5 39.002c0 23.333 7.33301 42.166 22 56.499s34 21.5 58 21.5c16 0 29.333 -5 40 -15s16 -23 16 -39
c0 -22.667 -7.5 -41.334 -22.5 -56.001s-34.167 -22 -57.5 -22c-16.667 0 -30.167 5 -40.5 15z" />
    <glyph glyph-name="multiply" unicode="&#xd7;" horiz-adv-x="617" 
d="M296 185l-206 -183l-67 72l211 189l-145 187l92 73l143 -182l207 182l67 -73l-210 -187l144 -189l-93 -72z" />
    <glyph glyph-name="Oslash" unicode="&#xd8;" horiz-adv-x="690" 
d="M665.5 550c13.667 -34.667 20.5 -72.667 20.5 -114c0 -86 -15.833 -162.833 -47.5 -230.5s-75.834 -120.5 -132.501 -158.5s-121 -57 -193 -57c-52.667 0 -100 11.333 -142 34l-47 -67h-111l88 125c-40.667 49.333 -61 110 -61 182c0 86 15.833 162.833 47.5 230.5
s75.834 120.5 132.501 158.5s121 57 193 57c42.667 0 81 -7 115 -21l25 36h115l-61 -87c25.333 -24 44.833 -53.333 58.5 -88zM194 214l261 372c-16.667 6.66699 -33.667 10 -51 10c-42 0 -79.5 -13.667 -112.5 -41s-58.833 -65.333 -77.5 -114s-28 -104 -28 -166
c0 -20.667 2.66699 -41 8 -61zM435.5 145c33 27.333 58.832 65.5 77.499 114.5s28 104.5 28 166.5c0 34.667 -6.33301 65.667 -19 93l-276 -389c22.667 -17.333 48.334 -26 77.001 -26c42 0 79.5 13.667 112.5 41z" />
    <glyph glyph-name="Ugrave" unicode="&#xd9;" horiz-adv-x="662" 
d="M117.5 43.5c-40.333 35.667 -60.5 87.833 -60.5 156.5c0 24.667 2.33301 49 7 73l75 427h144l-75 -425c-4 -20.667 -6 -40 -6 -58c0 -74.667 34.667 -112 104 -112c42 0 76.167 14.333 102.5 43s44.5 71 54.5 127l75 425h144l-75 -427
c-33.333 -188.667 -138 -283 -314 -283c-76.667 0 -135.167 17.833 -175.5 53.5zM289 916.999h124l56 -162h-102z" />
    <glyph glyph-name="Uacute" unicode="&#xda;" horiz-adv-x="662" 
d="M117.5 43.5c-40.333 35.667 -60.5 87.833 -60.5 156.5c0 24.667 2.33301 49 7 73l75 427h144l-75 -425c-4 -20.667 -6 -40 -6 -58c0 -74.667 34.667 -112 104 -112c42 0 76.167 14.333 102.5 43s44.5 71 54.5 127l75 425h144l-75 -427
c-33.333 -188.667 -138 -283 -314 -283c-76.667 0 -135.167 17.833 -175.5 53.5zM483 916.999h124l-136 -162h-102z" />
    <glyph glyph-name="Ucircumflex" unicode="&#xdb;" horiz-adv-x="662" 
d="M117.5 43.5c-40.333 35.667 -60.5 87.833 -60.5 156.5c0 24.667 2.33301 49 7 73l75 427h144l-75 -425c-4 -20.667 -6 -40 -6 -58c0 -74.667 34.667 -112 104 -112c42 0 76.167 14.333 102.5 43s44.5 71 54.5 127l75 425h144l-75 -427
c-33.333 -188.667 -138 -283 -314 -283c-76.667 0 -135.167 17.833 -175.5 53.5zM412 916.999h73l106 -162h-106l-46 78l-73 -78h-117z" />
    <glyph glyph-name="Udieresis" unicode="&#xdc;" horiz-adv-x="662" 
d="M117.5 43.5c-40.333 35.667 -60.5 87.833 -60.5 156.5c0 24.667 2.33301 49 7 73l75 427h144l-75 -425c-4 -20.667 -6 -40 -6 -58c0 -74.667 34.667 -112 104 -112c42 0 76.167 14.333 102.5 43s44.5 71 54.5 127l75 425h144l-75 -427
c-33.333 -188.667 -138 -283 -314 -283c-76.667 0 -135.167 17.833 -175.5 53.5zM274 769.999c-10.667 10 -15.999 23.002 -15.999 39.002c0 23.333 7.33301 42.166 22 56.499s34 21.5 58 21.5c16.667 0 30.167 -5 40.5 -15s15.5 -23 15.5 -39
c0 -22.667 -7.33301 -41.334 -22 -56.001s-33.667 -22 -57 -22c-16.667 0 -30.334 5 -41.001 15zM484.501 770.001c-10.333 10 -15.5 23.002 -15.5 39.002c0 23.333 7.33301 42.166 22 56.499s34 21.5 58 21.5c16 0 29.333 -5 40 -15s16 -23 16 -39
c0 -22.667 -7.5 -41.334 -22.5 -56.001s-34.167 -22 -57.5 -22c-16.667 0 -30.167 5 -40.5 15z" />
    <glyph glyph-name="Yacute" unicode="&#xdd;" horiz-adv-x="628" 
d="M247 280l-153 420h152l95 -275l191 275h160l-301 -420l-49 -280h-144zM463 917h124l-136 -162h-102z" />
    <glyph glyph-name="Thorn" unicode="&#xde;" horiz-adv-x="574" 
d="M147 700l143 0.000976562l-15 -92h66c70.667 0 125.834 -15.333 165.501 -46s59.5 -73.334 59.5 -128.001c0 -85.333 -25.833 -152.333 -77.5 -201s-122.834 -73 -213.501 -73h-79l-29 -160h-143zM297 274.001c37.333 0 67.832 12.999 91.499 38.999
s35.5 59.667 35.5 101c0 26.667 -8.16699 46.834 -24.5 60.501s-40.166 20.5 -71.499 20.5h-74l-38 -221h81z" />
    <glyph glyph-name="germandbls" unicode="&#xdf;" horiz-adv-x="575" 
d="M226.5 15c-29 16.667 -48.499 41.0049 -58.499 73.0049l88 52c17.333 -36.667 42.333 -55 75 -55c20 0 37.5 7.66699 52.5 23s22.5 33.666 22.5 54.999c0 14 -5 25.667 -15 35s-26.333 18.666 -49 27.999c-28 12 -49.167 27.833 -63.5 47.5s-21.5 41.5 -21.5 65.5
c0 22 3.83301 40.667 11.5 56s16.834 28 27.501 38s25.334 21.667 44.001 35c22.667 16 39.667 30.333 51 43s17 29.334 17 50.001c0 17.333 -6 30.666 -18 39.999s-29.333 14 -52 14c-68.667 0 -111 -45.333 -127 -136l-84 -479h-126l85 484
c13.333 72 41.666 127.667 84.999 167s99.666 59 168.999 59c59.333 0 106.666 -12.333 141.999 -37s53 -57.334 53 -98.001c0 -27.333 -5 -51 -15 -71s-21.667 -36.167 -35 -48.5s-30.333 -25.833 -51 -40.5c-18 -12 -31.167 -22.333 -39.5 -31
s-12.5 -18.334 -12.5 -29.001c0 -9.33301 4.5 -17.833 13.5 -25.5s27.833 -18.834 56.5 -33.501c26.667 -14 47 -31.5 61 -52.5s21 -44.167 21 -69.5c0 -36 -8.5 -68 -25.5 -96s-41 -49.667 -72 -65s-66.167 -23 -105.5 -23c-40.667 0 -75.5 8.33301 -104.5 25z" />
    <glyph glyph-name="agrave" unicode="&#xe0;" horiz-adv-x="558" 
d="M69.5 43c-31.667 35.333 -47.5 83.333 -47.5 144c0 62.667 10.833 118.5 32.5 167.5s51.834 87.167 90.501 114.5s83 41 133 41c34.667 0 64.667 -6.33301 90 -19s43.333 -30.667 54 -54h2l20 63h107l-65 -367c-12 -70 -19 -114.333 -21 -133h-120
c4 27.333 7.66699 49.333 11 66h-2c-20 -23.333 -43.833 -41.833 -71.5 -55.5s-55.834 -20.5 -84.501 -20.5c-54 0 -96.833 17.667 -128.5 53zM324 118.5c24.667 20.333 40.002 47.168 46.002 80.501l18 103c1.33301 9.33301 2 16.666 2 21.999
c0 26.667 -9.16699 48.5 -27.5 65.5s-41.833 25.5 -70.5 25.5c-26.667 0 -50.834 -9.5 -72.501 -28.5s-38.667 -45.167 -51 -78.5s-18.5 -70.666 -18.5 -111.999c0 -34.667 7.16699 -61.334 21.5 -80.001s35.166 -28 62.499 -28c35.333 0 65.333 10.167 90 30.5z
M191.002 717.002h124l56 -162h-102z" />
    <glyph glyph-name="aacute" unicode="&#xe1;" horiz-adv-x="558" 
d="M69.5 43c-31.667 35.333 -47.5 83.333 -47.5 144c0 62.667 10.833 118.5 32.5 167.5s51.834 87.167 90.501 114.5s83 41 133 41c34.667 0 64.667 -6.33301 90 -19s43.333 -30.667 54 -54h2l20 63h107l-65 -367c-12 -70 -19 -114.333 -21 -133h-120
c4 27.333 7.66699 49.333 11 66h-2c-20 -23.333 -43.833 -41.833 -71.5 -55.5s-55.834 -20.5 -84.501 -20.5c-54 0 -96.833 17.667 -128.5 53zM324 118.5c24.667 20.333 40.002 47.168 46.002 80.501l18 103c1.33301 9.33301 2 16.666 2 21.999
c0 26.667 -9.16699 48.5 -27.5 65.5s-41.833 25.5 -70.5 25.5c-26.667 0 -50.834 -9.5 -72.501 -28.5s-38.667 -45.167 -51 -78.5s-18.5 -70.666 -18.5 -111.999c0 -34.667 7.16699 -61.334 21.5 -80.001s35.166 -28 62.499 -28c35.333 0 65.333 10.167 90 30.5z
M385.002 717.002h124l-136 -162h-102z" />
    <glyph glyph-name="acircumflex" unicode="&#xe2;" horiz-adv-x="558" 
d="M69.5 43c-31.667 35.333 -47.5 83.333 -47.5 144c0 62.667 10.833 118.5 32.5 167.5s51.834 87.167 90.501 114.5s83 41 133 41c34.667 0 64.667 -6.33301 90 -19s43.333 -30.667 54 -54h2l20 63h107l-65 -367c-12 -70 -19 -114.333 -21 -133h-120
c4 27.333 7.66699 49.333 11 66h-2c-20 -23.333 -43.833 -41.833 -71.5 -55.5s-55.834 -20.5 -84.501 -20.5c-54 0 -96.833 17.667 -128.5 53zM324 118.5c24.667 20.333 40.002 47.168 46.002 80.501l18 103c1.33301 9.33301 2 16.666 2 21.999
c0 26.667 -9.16699 48.5 -27.5 65.5s-41.833 25.5 -70.5 25.5c-26.667 0 -50.834 -9.5 -72.501 -28.5s-38.667 -45.167 -51 -78.5s-18.5 -70.666 -18.5 -111.999c0 -34.667 7.16699 -61.334 21.5 -80.001s35.166 -28 62.499 -28c35.333 0 65.333 10.167 90 30.5z
M314.002 717.002h73l106 -162h-106l-46 78l-73 -78h-117z" />
    <glyph glyph-name="atilde" unicode="&#xe3;" horiz-adv-x="558" 
d="M69.5 43c-31.667 35.333 -47.5 83.333 -47.5 144c0 62.667 10.833 118.5 32.5 167.5s51.834 87.167 90.501 114.5s83 41 133 41c34.667 0 64.667 -6.33301 90 -19s43.333 -30.667 54 -54h2l20 63h107l-65 -367c-12 -70 -19 -114.333 -21 -133h-120
c4 27.333 7.66699 49.333 11 66h-2c-20 -23.333 -43.833 -41.833 -71.5 -55.5s-55.834 -20.5 -84.501 -20.5c-54 0 -96.833 17.667 -128.5 53zM324 118.5c24.667 20.333 40.002 47.168 46.002 80.501l18 103c1.33301 9.33301 2 16.666 2 21.999
c0 26.667 -9.16699 48.5 -27.5 65.5s-41.833 25.5 -70.5 25.5c-26.667 0 -50.834 -9.5 -72.501 -28.5s-38.667 -45.167 -51 -78.5s-18.5 -70.666 -18.5 -111.999c0 -34.667 7.16699 -61.334 21.5 -80.001s35.166 -28 62.499 -28c35.333 0 65.333 10.167 90 30.5z
M196.502 648.002c23.667 22 50.5029 33 80.5029 33c13.333 0 25.333 -2.33301 36 -7s23 -11.667 37 -21c9.33301 -6 17.166 -10.667 23.499 -14s12.5 -5 18.5 -5c18 0 30 17 36 51h80c-6 -43.333 -20.333 -75.833 -43 -97.5s-50 -32.5 -82 -32.5
c-13.333 0 -25.833 2.5 -37.5 7.5s-24.834 12.167 -39.501 21.5c-18 12 -31 18 -39 18c-7.33301 0 -14.333 -4.33301 -21 -13s-11.334 -20 -14.001 -34h-80c6 40 20.833 71 44.5 93z" />
    <glyph glyph-name="adieresis" unicode="&#xe4;" horiz-adv-x="558" 
d="M69.5 43c-31.667 35.333 -47.5 83.333 -47.5 144c0 62.667 10.833 118.5 32.5 167.5s51.834 87.167 90.501 114.5s83 41 133 41c34.667 0 64.667 -6.33301 90 -19s43.333 -30.667 54 -54h2l20 63h107l-65 -367c-12 -70 -19 -114.333 -21 -133h-120
c4 27.333 7.66699 49.333 11 66h-2c-20 -23.333 -43.833 -41.833 -71.5 -55.5s-55.834 -20.5 -84.501 -20.5c-54 0 -96.833 17.667 -128.5 53zM324 118.5c24.667 20.333 40.002 47.168 46.002 80.501l18 103c1.33301 9.33301 2 16.666 2 21.999
c0 26.667 -9.16699 48.5 -27.5 65.5s-41.833 25.5 -70.5 25.5c-26.667 0 -50.834 -9.5 -72.501 -28.5s-38.667 -45.167 -51 -78.5s-18.5 -70.666 -18.5 -111.999c0 -34.667 7.16699 -61.334 21.5 -80.001s35.166 -28 62.499 -28c35.333 0 65.333 10.167 90 30.5z
M176.002 570.002c-10.667 10 -15.999 23.002 -15.999 39.002c0 23.333 7.33301 42.166 22 56.499s34 21.5 58 21.5c16.667 0 30.167 -5 40.5 -15s15.5 -23 15.5 -39c0 -22.667 -7.33301 -41.334 -22 -56.001s-33.667 -22 -57 -22c-16.667 0 -30.334 5 -41.001 15z
M386.503 570.004c-10.333 10 -15.5 23.002 -15.5 39.002c0 23.333 7.33301 42.166 22 56.499s34 21.5 58 21.5c16 0 29.333 -5 40 -15s16 -23 16 -39c0 -22.667 -7.5 -41.334 -22.5 -56.001s-34.167 -22 -57.5 -22c-16.667 0 -30.167 5 -40.5 15z" />
    <glyph glyph-name="aring" unicode="&#xe5;" horiz-adv-x="558" 
d="M69.5 43c-31.667 35.333 -47.5 83.333 -47.5 144c0 62.667 10.833 118.5 32.5 167.5s51.834 87.167 90.501 114.5s83 41 133 41c34.667 0 64.667 -6.33301 90 -19s43.333 -30.667 54 -54h2l20 63h107l-65 -367c-12 -70 -19 -114.333 -21 -133h-120
c4 27.333 7.66699 49.333 11 66h-2c-20 -23.333 -43.833 -41.833 -71.5 -55.5s-55.834 -20.5 -84.501 -20.5c-54 0 -96.833 17.667 -128.5 53zM324 118.5c24.667 20.333 40.002 47.168 46.002 80.501l18 103c1.33301 9.33301 2 16.666 2 21.999
c0 26.667 -9.16699 48.5 -27.5 65.5s-41.833 25.5 -70.5 25.5c-26.667 0 -50.834 -9.5 -72.501 -28.5s-38.667 -45.167 -51 -78.5s-18.5 -70.666 -18.5 -111.999c0 -34.667 7.16699 -61.334 21.5 -80.001s35.166 -28 62.499 -28c35.333 0 65.333 10.167 90 30.5z
M257.002 573.502c-16.667 15 -25 34.5 -25 58.5c0 35.333 11.667 64 35 86s53.333 33 90 33c26.667 0 48.334 -7.5 65.001 -22.5s25 -34.5 25 -58.5c0 -34.667 -11.667 -63.167 -35 -85.5s-53.333 -33.5 -90 -33.5c-26.667 0 -48.334 7.5 -65.001 22.5zM373.002 617.002
c11.333 11.333 17.002 26.333 17.002 45c0 12 -3.83301 21.667 -11.5 29s-17.834 11 -30.501 11c-17.333 0 -31.5 -5.66699 -42.5 -17s-16.5 -26.333 -16.5 -45c0 -12 3.83301 -21.667 11.5 -29s17.5 -11 29.5 -11c17.333 0 31.666 5.66699 42.999 17z" />
    <glyph glyph-name="ae" unicode="&#xe6;" horiz-adv-x="818" 
d="M742.5 460.5c35 -33 52.5029 -79.8311 52.5029 -140.498c0 -19.333 -2 -40 -6 -62l-8 -44h-335v-15c0 -68 32.667 -102 98 -102c27.333 0 52.166 5 74.499 15s45.833 26.667 70.5 50l56 -66c-24 -32.667 -55.5 -58.5 -94.5 -77.5s-80.833 -28.5 -125.5 -28.5
c-34.667 0 -65.834 5.66699 -93.501 17s-50.5 27.666 -68.5 48.999c-24.667 -20.667 -53 -36.834 -85 -48.501s-65 -17.5 -99 -17.5c-54.667 0 -97 12.5 -127 37.5s-45 57.833 -45 98.5c0 56.667 20.833 99.667 62.5 129s101.5 44 179.5 44h85l5 30
c1.33301 10.667 2 17.667 2 21c0 41.333 -23.667 62 -71 62c-60.667 0 -113 -20 -157 -60l-44 76c62.667 54.667 134.667 82 216 82c70 0 120.667 -18.667 152 -56c45.333 37.333 98.666 56 159.999 56c62 0 110.5 -16.5 145.5 -49.5zM657.003 379.002
c-14.667 18 -37.999 27 -69.999 27c-27.333 0 -52 -9.66699 -74 -29s-39 -45.333 -51 -78h215v7c1.33301 30.667 -5.33398 55 -20.001 73zM271.504 111.002c22.333 16.667 35.502 37.332 39.502 61.999l8 41h-76c-34.667 0 -61.834 -6.5 -81.501 -19.5
s-29.5 -33.167 -29.5 -60.5c0 -15.333 5.33301 -27.166 16 -35.499s26 -12.5 46 -12.5c29.333 0 55.166 8.33301 77.499 25z" />
    <glyph glyph-name="ccedilla" unicode="&#xe7;" horiz-adv-x="492" 
d="M325 106.5c22.667 12.333 42.667 29.167 60 50.5l65 -67c-42.667 -56 -100.334 -88.667 -173.001 -98l-44 -58c24.667 0 44.5 -6 59.5 -18s22.5 -27.667 22.5 -47c0 -31.333 -13.167 -57.666 -39.5 -78.999s-58.833 -32 -97.5 -32c-16.667 0 -33.5 2 -50.5 6
s-30.167 9 -39.5 15l23 55c18.667 -8 40 -12 64 -12c14 0 25.667 3.5 35 10.5s14 15.833 14 26.5c0 8.66699 -5.5 15.5 -16.5 20.5s-26.167 6.83301 -45.5 5.5l-23 33l55 75c-54 7.33301 -96.333 28.5 -127 63.5s-46 80.167 -46 135.5c0 62 12.333 117.167 37 165.5
s59.334 85.833 104.001 112.5s96 40 154 40c47.333 0 87.666 -8.83301 120.999 -26.5s56.333 -42.167 69 -73.5l-88 -67c-9.33301 21.333 -23.5 38.166 -42.5 50.499s-40.5 18.5 -64.5 18.5c-30 0 -57.333 -9 -82 -27s-44 -43 -58 -75s-21 -67.667 -21 -107
c0 -36.667 9 -65 27 -85s43.667 -30 77 -30c24.667 0 48.334 6.16699 71.001 18.5z" />
    <glyph glyph-name="egrave" unicode="&#xe8;" horiz-adv-x="542" 
d="M464.5 457c35.667 -35.333 53.4951 -83.667 53.4951 -145c0 -22 -2.33301 -44.333 -7 -67l-9 -42h-348c0.666992 -34.667 9.83398 -61 27.501 -79s43.5 -27 77.5 -27c29.333 0 55.833 5 79.5 15s47.834 26.667 72.501 50l58 -66
c-25.333 -32.667 -58.666 -58.5 -99.999 -77.5s-84.666 -28.5 -129.999 -28.5c-65.333 0 -117.333 18 -156 54s-58 85 -58 147s12.333 117.167 37 165.5s59.167 86 103.5 113s94.833 40.5 151.5 40.5c62.667 0 111.834 -17.667 147.501 -53zM376.995 377.999
c-16 18.667 -40.666 28 -73.999 28c-31.333 0 -59.333 -10.167 -84 -30.5s-42.334 -48.833 -53.001 -85.5h232v6c2 36 -5 63.333 -21 82zM196.996 716.999h124l56 -162h-102z" />
    <glyph glyph-name="eacute" unicode="&#xe9;" horiz-adv-x="542" 
d="M464.5 457c35.667 -35.333 53.4951 -83.667 53.4951 -145c0 -22 -2.33301 -44.333 -7 -67l-9 -42h-348c0.666992 -34.667 9.83398 -61 27.501 -79s43.5 -27 77.5 -27c29.333 0 55.833 5 79.5 15s47.834 26.667 72.501 50l58 -66
c-25.333 -32.667 -58.666 -58.5 -99.999 -77.5s-84.666 -28.5 -129.999 -28.5c-65.333 0 -117.333 18 -156 54s-58 85 -58 147s12.333 117.167 37 165.5s59.167 86 103.5 113s94.833 40.5 151.5 40.5c62.667 0 111.834 -17.667 147.501 -53zM376.995 377.999
c-16 18.667 -40.666 28 -73.999 28c-31.333 0 -59.333 -10.167 -84 -30.5s-42.334 -48.833 -53.001 -85.5h232v6c2 36 -5 63.333 -21 82zM390.996 716.999h124l-136 -162h-102z" />
    <glyph glyph-name="ecircumflex" unicode="&#xea;" horiz-adv-x="542" 
d="M464.5 457c35.667 -35.333 53.4951 -83.667 53.4951 -145c0 -22 -2.33301 -44.333 -7 -67l-9 -42h-348c0.666992 -34.667 9.83398 -61 27.501 -79s43.5 -27 77.5 -27c29.333 0 55.833 5 79.5 15s47.834 26.667 72.501 50l58 -66
c-25.333 -32.667 -58.666 -58.5 -99.999 -77.5s-84.666 -28.5 -129.999 -28.5c-65.333 0 -117.333 18 -156 54s-58 85 -58 147s12.333 117.167 37 165.5s59.167 86 103.5 113s94.833 40.5 151.5 40.5c62.667 0 111.834 -17.667 147.501 -53zM376.995 377.999
c-16 18.667 -40.666 28 -73.999 28c-31.333 0 -59.333 -10.167 -84 -30.5s-42.334 -48.833 -53.001 -85.5h232v6c2 36 -5 63.333 -21 82zM319.996 716.999h73l106 -162h-106l-46 78l-73 -78h-117z" />
    <glyph glyph-name="edieresis" unicode="&#xeb;" horiz-adv-x="542" 
d="M464.5 457c35.667 -35.333 53.4951 -83.667 53.4951 -145c0 -22 -2.33301 -44.333 -7 -67l-9 -42h-348c0.666992 -34.667 9.83398 -61 27.501 -79s43.5 -27 77.5 -27c29.333 0 55.833 5 79.5 15s47.834 26.667 72.501 50l58 -66
c-25.333 -32.667 -58.666 -58.5 -99.999 -77.5s-84.666 -28.5 -129.999 -28.5c-65.333 0 -117.333 18 -156 54s-58 85 -58 147s12.333 117.167 37 165.5s59.167 86 103.5 113s94.833 40.5 151.5 40.5c62.667 0 111.834 -17.667 147.501 -53zM376.995 377.999
c-16 18.667 -40.666 28 -73.999 28c-31.333 0 -59.333 -10.167 -84 -30.5s-42.334 -48.833 -53.001 -85.5h232v6c2 36 -5 63.333 -21 82zM181.996 569.999c-10.667 10 -15.999 23.002 -15.999 39.002c0 23.333 7.33301 42.166 22 56.499s34 21.5 58 21.5
c16.667 0 30.167 -5 40.5 -15s15.5 -23 15.5 -39c0 -22.667 -7.33301 -41.334 -22 -56.001s-33.667 -22 -57 -22c-16.667 0 -30.334 5 -41.001 15zM392.497 570.001c-10.333 10 -15.5 23.002 -15.5 39.002c0 23.333 7.33301 42.166 22 56.499s34 21.5 58 21.5
c16 0 29.333 -5 40 -15s16 -23 16 -39c0 -22.667 -7.5 -41.334 -22.5 -56.001s-34.167 -22 -57.5 -22c-16.667 0 -30.167 5 -40.5 15z" />
    <glyph glyph-name="igrave" unicode="&#xec;" horiz-adv-x="279" 
d="M121 500h126l-88 -500h-126zM63 717h124l56 -162h-102z" />
    <glyph glyph-name="iacute" unicode="&#xed;" horiz-adv-x="279" 
d="M121 500h126l-88 -500h-126zM257 717h124l-136 -162h-102z" />
    <glyph glyph-name="icircumflex" unicode="&#xee;" horiz-adv-x="279" 
d="M121 500h126l-88 -500h-126zM186 717h73l106 -162h-106l-46 78l-73 -78h-117z" />
    <glyph glyph-name="idieresis" unicode="&#xef;" horiz-adv-x="279" 
d="M121 500h126l-88 -500h-126zM48 570c-10.667 10 -15.999 23.002 -15.999 39.002c0 23.333 7.33301 42.166 22 56.499s34 21.5 58 21.5c16.667 0 30.167 -5 40.5 -15s15.5 -23 15.5 -39c0 -22.667 -7.33301 -41.334 -22 -56.001s-33.667 -22 -57 -22
c-16.667 0 -30.334 5 -41.001 15zM258.501 570.002c-10.333 10 -15.5 23.002 -15.5 39.002c0 23.333 7.33301 42.166 22 56.499s34 21.5 58 21.5c16 0 29.333 -5 40 -15s16 -23 16 -39c0 -22.667 -7.5 -41.334 -22.5 -56.001s-34.167 -22 -57.5 -22
c-16.667 0 -30.167 5 -40.5 15z" />
    <glyph glyph-name="eth" unicode="&#xf0;" horiz-adv-x="511" 
d="M461.5 471.5c17.667 -44.333 26.5 -92.168 26.5 -143.501c0 -64 -12.167 -121.667 -36.5 -173s-58 -91.666 -101 -120.999s-91.167 -44 -144.5 -44c-56.667 0 -102 16.167 -136 48.5s-51 75.5 -51 129.5c0 50 11.833 96.333 35.5 139s55.5 76.667 95.5 102
s83.333 38 130 38c24 0 46.333 -6 67 -18c-12 39.333 -31.667 73.666 -59 102.999l-140 -82l-35 68l112 65c-31.333 18.667 -63.333 30.667 -96 36l24 76c64.667 -7.33301 120.667 -26 168 -56l133 77l33 -69l-102 -59c33.333 -33.333 58.833 -72.166 76.5 -116.499z
M291.5 110.998c19.667 14.667 35 34.834 46 60.501s16.5 54.167 16.5 85.5c0 29.333 -7.16699 52.166 -21.5 68.499s-34.5 24.5 -60.5 24.5c-22.667 0 -43.667 -7.5 -63 -22.5s-34.5 -35.5 -45.5 -61.5s-16.5 -54.333 -16.5 -85c0 -28.667 7 -51.167 21 -67.5
s33.333 -24.5 58 -24.5c24 0 45.833 7.33301 65.5 22z" />
    <glyph glyph-name="ntilde" unicode="&#xf1;" horiz-adv-x="563" 
d="M69 368l3.99707 24.999c8.66699 52.667 13.334 88.334 14.001 107.001h120c-1.33301 -28.667 -4.66602 -57.667 -9.99902 -87h2c18 30.667 42.333 54.5 73 71.5s65.334 25.5 104.001 25.5c48.667 0 85.334 -13.5 110.001 -40.5s37 -66.167 37 -117.5
c0 -23.333 -2.33301 -47 -7 -71l-50 -281h-127l50 282c2.66699 14 4 28.667 4 44c0 54 -24.667 81 -74 81c-35.333 0 -65.833 -12.167 -91.5 -36.5s-41.834 -56.833 -48.501 -97.5l-48 -273h-128zM207.497 647.999c23.667 22 50.5029 33 80.5029 33
c13.333 0 25.333 -2.33301 36 -7s23 -11.667 37 -21c9.33301 -6 17.166 -10.667 23.499 -14s12.5 -5 18.5 -5c18 0 30 17 36 51h80c-6 -43.333 -20.333 -75.833 -43 -97.5s-50 -32.5 -82 -32.5c-13.333 0 -25.833 2.5 -37.5 7.5s-24.834 12.167 -39.501 21.5
c-18 12 -31 18 -39 18c-7.33301 0 -14.333 -4.33301 -21 -13s-11.334 -20 -14.001 -34h-80c6 40 20.833 71 44.5 93z" />
    <glyph glyph-name="ograve" unicode="&#xf2;" horiz-adv-x="579" 
d="M86.5 45c-40.333 36.667 -60.5 86.334 -60.5 149.001c0 62 12.667 117 38 165s60.833 85.167 106.5 111.5s98.5 39.5 158.5 39.5c68.667 0 123.167 -18.333 163.5 -55s60.5 -86.334 60.5 -149.001c0 -62 -12.667 -117 -38 -165s-61 -85.167 -107 -111.5
s-98.667 -39.5 -158 -39.5c-68.667 0 -123.167 18.333 -163.5 55zM345 112c24.667 18 44.001 43 58.001 75s21 68 21 108c0 37.333 -9.5 66.666 -28.5 87.999s-45.5 32 -79.5 32c-30.667 0 -58.334 -9 -83.001 -27s-44 -43 -58 -75s-21 -68 -21 -108
c0 -37.333 9.66699 -66.666 29 -87.999s45.666 -32 78.999 -32c30.667 0 58.334 9 83.001 27zM212.001 717h124l56 -162h-102z" />
    <glyph glyph-name="oacute" unicode="&#xf3;" horiz-adv-x="579" 
d="M86.5 45c-40.333 36.667 -60.5 86.334 -60.5 149.001c0 62 12.667 117 38 165s60.833 85.167 106.5 111.5s98.5 39.5 158.5 39.5c68.667 0 123.167 -18.333 163.5 -55s60.5 -86.334 60.5 -149.001c0 -62 -12.667 -117 -38 -165s-61 -85.167 -107 -111.5
s-98.667 -39.5 -158 -39.5c-68.667 0 -123.167 18.333 -163.5 55zM345 112c24.667 18 44.001 43 58.001 75s21 68 21 108c0 37.333 -9.5 66.666 -28.5 87.999s-45.5 32 -79.5 32c-30.667 0 -58.334 -9 -83.001 -27s-44 -43 -58 -75s-21 -68 -21 -108
c0 -37.333 9.66699 -66.666 29 -87.999s45.666 -32 78.999 -32c30.667 0 58.334 9 83.001 27zM406.001 717h124l-136 -162h-102z" />
    <glyph glyph-name="ocircumflex" unicode="&#xf4;" horiz-adv-x="579" 
d="M86.5 45c-40.333 36.667 -60.5 86.334 -60.5 149.001c0 62 12.667 117 38 165s60.833 85.167 106.5 111.5s98.5 39.5 158.5 39.5c68.667 0 123.167 -18.333 163.5 -55s60.5 -86.334 60.5 -149.001c0 -62 -12.667 -117 -38 -165s-61 -85.167 -107 -111.5
s-98.667 -39.5 -158 -39.5c-68.667 0 -123.167 18.333 -163.5 55zM345 112c24.667 18 44.001 43 58.001 75s21 68 21 108c0 37.333 -9.5 66.666 -28.5 87.999s-45.5 32 -79.5 32c-30.667 0 -58.334 -9 -83.001 -27s-44 -43 -58 -75s-21 -68 -21 -108
c0 -37.333 9.66699 -66.666 29 -87.999s45.666 -32 78.999 -32c30.667 0 58.334 9 83.001 27zM335.001 717h73l106 -162h-106l-46 78l-73 -78h-117z" />
    <glyph glyph-name="otilde" unicode="&#xf5;" horiz-adv-x="579" 
d="M86.5 45c-40.333 36.667 -60.5 86.334 -60.5 149.001c0 62 12.667 117 38 165s60.833 85.167 106.5 111.5s98.5 39.5 158.5 39.5c68.667 0 123.167 -18.333 163.5 -55s60.5 -86.334 60.5 -149.001c0 -62 -12.667 -117 -38 -165s-61 -85.167 -107 -111.5
s-98.667 -39.5 -158 -39.5c-68.667 0 -123.167 18.333 -163.5 55zM345 112c24.667 18 44.001 43 58.001 75s21 68 21 108c0 37.333 -9.5 66.666 -28.5 87.999s-45.5 32 -79.5 32c-30.667 0 -58.334 -9 -83.001 -27s-44 -43 -58 -75s-21 -68 -21 -108
c0 -37.333 9.66699 -66.666 29 -87.999s45.666 -32 78.999 -32c30.667 0 58.334 9 83.001 27zM217.501 648c23.667 22 50.5029 33 80.5029 33c13.333 0 25.333 -2.33301 36 -7s23 -11.667 37 -21c9.33301 -6 17.166 -10.667 23.499 -14s12.5 -5 18.5 -5c18 0 30 17 36 51h80
c-6 -43.333 -20.333 -75.833 -43 -97.5s-50 -32.5 -82 -32.5c-13.333 0 -25.833 2.5 -37.5 7.5s-24.834 12.167 -39.501 21.5c-18 12 -31 18 -39 18c-7.33301 0 -14.333 -4.33301 -21 -13s-11.334 -20 -14.001 -34h-80c6 40 20.833 71 44.5 93z" />
    <glyph glyph-name="odieresis" unicode="&#xf6;" horiz-adv-x="579" 
d="M86.5 45c-40.333 36.667 -60.5 86.334 -60.5 149.001c0 62 12.667 117 38 165s60.833 85.167 106.5 111.5s98.5 39.5 158.5 39.5c68.667 0 123.167 -18.333 163.5 -55s60.5 -86.334 60.5 -149.001c0 -62 -12.667 -117 -38 -165s-61 -85.167 -107 -111.5
s-98.667 -39.5 -158 -39.5c-68.667 0 -123.167 18.333 -163.5 55zM345 112c24.667 18 44.001 43 58.001 75s21 68 21 108c0 37.333 -9.5 66.666 -28.5 87.999s-45.5 32 -79.5 32c-30.667 0 -58.334 -9 -83.001 -27s-44 -43 -58 -75s-21 -68 -21 -108
c0 -37.333 9.66699 -66.666 29 -87.999s45.666 -32 78.999 -32c30.667 0 58.334 9 83.001 27zM197.001 570c-10.667 10 -15.999 23.002 -15.999 39.002c0 23.333 7.33301 42.166 22 56.499s34 21.5 58 21.5c16.667 0 30.167 -5 40.5 -15s15.5 -23 15.5 -39
c0 -22.667 -7.33301 -41.334 -22 -56.001s-33.667 -22 -57 -22c-16.667 0 -30.334 5 -41.001 15zM407.502 570.002c-10.333 10 -15.5 23.002 -15.5 39.002c0 23.333 7.33301 42.166 22 56.499s34 21.5 58 21.5c16 0 29.333 -5 40 -15s16 -23 16 -39
c0 -22.667 -7.5 -41.334 -22.5 -56.001s-34.167 -22 -57.5 -22c-16.667 0 -30.167 5 -40.5 15z" />
    <glyph glyph-name="divide" unicode="&#xf7;" horiz-adv-x="617" 
d="M282.5 387c-12.333 10.667 -18.5 24.667 -18.5 42c0 24.667 9 45.167 27 61.5s39.667 24.5 65 24.5c20 0 36 -5.33301 48 -16s18 -24.667 18 -42c0 -24.667 -8.83301 -45.167 -26.5 -61.5s-39.167 -24.5 -64.5 -24.5c-20 0 -36.167 5.33301 -48.5 16zM58 310h523l-17 -96
h-524zM218.5 25.5c-12.333 11 -18.5 25.167 -18.5 42.5c0 24 9 44.167 27 60.5s39.667 24.5 65 24.5c20 0 36 -5.16699 48 -15.5s18 -24.166 18 -41.499c0 -24.667 -8.66699 -45.334 -26 -62.001s-39 -25 -65 -25c-20 0 -36.167 5.5 -48.5 16.5z" />
    <glyph glyph-name="oslash" unicode="&#xf8;" horiz-adv-x="579" 
d="M534.5 396c12.333 -26.667 18.5 -56.667 18.5 -90c0 -62 -12.667 -117 -38 -165s-61 -85.167 -107 -111.5s-98.667 -39.5 -158 -39.5c-34 0 -65 4.66699 -93 14l-34 -47h-88l58 82c-44.667 37.333 -67 89 -67 155c0 62 12.667 117 38 165s60.833 85.167 106.5 111.5
s98.5 39.5 158.5 39.5c31.333 0 60 -4 86 -12l26 37h92l-51 -72c22.667 -18 40.167 -40.333 52.5 -67zM166 143l187.001 267c-12 3.33301 -24.333 5 -37 5c-30.667 0 -58.334 -9 -83.001 -27s-44 -43 -58 -75s-21 -68 -21 -108c0 -23.333 4 -44 12 -62zM345.001 112
c24.667 18 44 43 58 75s21 68 21 108c0 24.667 -4.66699 47 -14 67l-191 -270c15.333 -4.66699 29.666 -7 42.999 -7c30.667 0 58.334 9 83.001 27z" />
    <glyph glyph-name="ugrave" unicode="&#xf9;" horiz-adv-x="561" 
d="M73 29.5c-24.667 26.333 -37 65.166 -37 116.499c0 23.333 2.33301 47 7 71l49 283h128l-49 -283c-3.33301 -20 -5 -36 -5 -48c0 -26 5.66699 -45.167 17 -57.5s28.666 -18.5 51.999 -18.5c34.667 0 65.834 13.333 93.501 40s45.167 60.334 52.5 101.001l46 266h128
l-65 -373c-5.33301 -26.667 -10.333 -69 -15 -127h-121c0.666992 32 3 61.333 7 88h-2c-18 -30.667 -42.833 -54.667 -74.5 -72s-66.167 -26 -103.5 -26c-47.333 0 -83.333 13.167 -108 39.5zM211 717h124l56 -162h-102z" />
    <glyph glyph-name="uacute" unicode="&#xfa;" horiz-adv-x="561" 
d="M73 29.5c-24.667 26.333 -37 65.166 -37 116.499c0 23.333 2.33301 47 7 71l49 283h128l-49 -283c-3.33301 -20 -5 -36 -5 -48c0 -26 5.66699 -45.167 17 -57.5s28.666 -18.5 51.999 -18.5c34.667 0 65.834 13.333 93.501 40s45.167 60.334 52.5 101.001l46 266h128
l-65 -373c-5.33301 -26.667 -10.333 -69 -15 -127h-121c0.666992 32 3 61.333 7 88h-2c-18 -30.667 -42.833 -54.667 -74.5 -72s-66.167 -26 -103.5 -26c-47.333 0 -83.333 13.167 -108 39.5zM405 717h124l-136 -162h-102z" />
    <glyph glyph-name="ucircumflex" unicode="&#xfb;" horiz-adv-x="561" 
d="M73 29.5c-24.667 26.333 -37 65.166 -37 116.499c0 23.333 2.33301 47 7 71l49 283h128l-49 -283c-3.33301 -20 -5 -36 -5 -48c0 -26 5.66699 -45.167 17 -57.5s28.666 -18.5 51.999 -18.5c34.667 0 65.834 13.333 93.501 40s45.167 60.334 52.5 101.001l46 266h128
l-65 -373c-5.33301 -26.667 -10.333 -69 -15 -127h-121c0.666992 32 3 61.333 7 88h-2c-18 -30.667 -42.833 -54.667 -74.5 -72s-66.167 -26 -103.5 -26c-47.333 0 -83.333 13.167 -108 39.5zM334 717h73l106 -162h-106l-46 78l-73 -78h-117z" />
    <glyph glyph-name="udieresis" unicode="&#xfc;" horiz-adv-x="561" 
d="M73 29.5c-24.667 26.333 -37 65.166 -37 116.499c0 23.333 2.33301 47 7 71l49 283h128l-49 -283c-3.33301 -20 -5 -36 -5 -48c0 -26 5.66699 -45.167 17 -57.5s28.666 -18.5 51.999 -18.5c34.667 0 65.834 13.333 93.501 40s45.167 60.334 52.5 101.001l46 266h128
l-65 -373c-5.33301 -26.667 -10.333 -69 -15 -127h-121c0.666992 32 3 61.333 7 88h-2c-18 -30.667 -42.833 -54.667 -74.5 -72s-66.167 -26 -103.5 -26c-47.333 0 -83.333 13.167 -108 39.5zM196 570c-10.667 10 -15.999 23.002 -15.999 39.002
c0 23.333 7.33301 42.166 22 56.499s34 21.5 58 21.5c16.667 0 30.167 -5 40.5 -15s15.5 -23 15.5 -39c0 -22.667 -7.33301 -41.334 -22 -56.001s-33.667 -22 -57 -22c-16.667 0 -30.334 5 -41.001 15zM406.501 570.002c-10.333 10 -15.5 23.002 -15.5 39.002
c0 23.333 7.33301 42.166 22 56.499s34 21.5 58 21.5c16 0 29.333 -5 40 -15s16 -23 16 -39c0 -22.667 -7.5 -41.334 -22.5 -56.001s-34.167 -22 -57.5 -22c-16.667 0 -30.167 5 -40.5 15z" />
    <glyph glyph-name="yacute" unicode="&#xfd;" horiz-adv-x="505" 
d="M536 500l-283.002 -523c-61.333 -112.667 -143.333 -169 -246 -169c-26 0 -52.667 3.66699 -80 11l18 101c7.33301 -2.66699 17 -5 29 -7s22.667 -3 32 -3c28.667 0 55.334 10.167 80.001 30.5s49.334 52.5 74.001 96.5l-104 463h132l54 -321l156 321h138zM371.998 717
h124l-136 -162h-102z" />
    <glyph glyph-name="thorn" unicode="&#xfe;" horiz-adv-x="542" 
d="M136 742l126 -0.00195312l-50 -280c14.667 14.667 34.5 26.334 59.5 35.001s51.167 13 78.5 13c52.667 0 94 -16.833 124 -50.5s45 -80.167 45 -139.5c0 -62.667 -11.333 -119.167 -34 -169.5s-54 -89.666 -94 -117.999s-85.333 -42.5 -136 -42.5c-26 0 -50 3.5 -72 10.5
s-37.667 16.5 -47 28.5l-44 -251h-126zM319.5 115.498c22.333 20.333 40 47.833 53 82.5s19.5 72 19.5 112c0 34 -7.16699 60 -21.5 78s-35.166 27 -62.499 27c-31.333 0 -58.333 -10.833 -81 -32.5s-37.334 -50.5 -44.001 -86.5l-13 -77c-2.66699 -18.667 -4 -32 -4 -40
c0 -29.333 7 -52.333 21 -69s34 -25 60 -25s50.167 10.167 72.5 30.5z" />
    <glyph glyph-name="ydieresis" unicode="&#xff;" horiz-adv-x="505" 
d="M536 500l-283.002 -523c-61.333 -112.667 -143.333 -169 -246 -169c-26 0 -52.667 3.66699 -80 11l18 101c7.33301 -2.66699 17 -5 29 -7s22.667 -3 32 -3c28.667 0 55.334 10.167 80.001 30.5s49.334 52.5 74.001 96.5l-104 463h132l54 -321l156 321h138zM162.998 570
c-10.667 10 -15.999 23.002 -15.999 39.002c0 23.333 7.33301 42.166 22 56.499s34 21.5 58 21.5c16.667 0 30.167 -5 40.5 -15s15.5 -23 15.5 -39c0 -22.667 -7.33301 -41.334 -22 -56.001s-33.667 -22 -57 -22c-16.667 0 -30.334 5 -41.001 15zM373.499 570.002
c-10.333 10 -15.5 23.002 -15.5 39.002c0 23.333 7.33301 42.166 22 56.499s34 21.5 58 21.5c16 0 29.333 -5 40 -15s16 -23 16 -39c0 -22.667 -7.5 -41.334 -22.5 -56.001s-34.167 -22 -57.5 -22c-16.667 0 -30.167 5 -40.5 15z" />
    <glyph glyph-name="Amacron" unicode="&#x100;" horiz-adv-x="641" 
d="M423 116h-240l-55 -116h-157l365 700h127l119 -700h-144zM408 231l-37 278l-133 -278h170zM256 855h342l-14 -83h-343z" />
    <glyph glyph-name="amacron" unicode="&#x101;" horiz-adv-x="558" 
d="M69.5 43c-31.667 35.333 -47.5 83.333 -47.5 144c0 62.667 10.833 118.5 32.5 167.5s51.834 87.167 90.501 114.5s83 41 133 41c34.667 0 64.667 -6.33301 90 -19s43.333 -30.667 54 -54h2l20 63h107l-65 -367c-12 -70 -19 -114.333 -21 -133h-120
c4 27.333 7.66699 49.333 11 66h-2c-20 -23.333 -43.833 -41.833 -71.5 -55.5s-55.834 -20.5 -84.501 -20.5c-54 0 -96.833 17.667 -128.5 53zM324 118.5c24.667 20.333 40.002 47.168 46.002 80.501l18 103c1.33301 9.33301 2 16.666 2 21.999
c0 26.667 -9.16699 48.5 -27.5 65.5s-41.833 25.5 -70.5 25.5c-26.667 0 -50.834 -9.5 -72.501 -28.5s-38.667 -45.167 -51 -78.5s-18.5 -70.666 -18.5 -111.999c0 -34.667 7.16699 -61.334 21.5 -80.001s35.166 -28 62.499 -28c35.333 0 65.333 10.167 90 30.5z
M168.002 655.002h342l-14 -83h-343z" />
    <glyph glyph-name="Abreve" unicode="&#x102;" horiz-adv-x="641" 
d="M423 116h-240l-55 -116h-157l365 700h127l119 -700h-144zM408 231l-37 278l-133 -278h170zM309.5 786.5c-25.667 21 -38.501 50.498 -38.501 88.498c0 10.667 1 21.334 3 32.001h83c-0.666992 -3.33301 -1 -8.33301 -1 -15c0 -18 5.66699 -32 17 -42s27.333 -15 48 -15
c24 0 43.833 6.33301 59.5 19s25.834 30.334 30.501 53.001h88c-8.66699 -49.333 -28.5 -87 -59.5 -113s-71.833 -39 -122.5 -39c-46 0 -81.833 10.5 -107.5 31.5z" />
    <glyph glyph-name="abreve" unicode="&#x103;" horiz-adv-x="558" 
d="M69.5 43c-31.667 35.333 -47.5 83.333 -47.5 144c0 62.667 10.833 118.5 32.5 167.5s51.834 87.167 90.501 114.5s83 41 133 41c34.667 0 64.667 -6.33301 90 -19s43.333 -30.667 54 -54h2l20 63h107l-65 -367c-12 -70 -19 -114.333 -21 -133h-120
c4 27.333 7.66699 49.333 11 66h-2c-20 -23.333 -43.833 -41.833 -71.5 -55.5s-55.834 -20.5 -84.501 -20.5c-54 0 -96.833 17.667 -128.5 53zM324 118.5c24.667 20.333 40.002 47.168 46.002 80.501l18 103c1.33301 9.33301 2 16.666 2 21.999
c0 26.667 -9.16699 48.5 -27.5 65.5s-41.833 25.5 -70.5 25.5c-26.667 0 -50.834 -9.5 -72.501 -28.5s-38.667 -45.167 -51 -78.5s-18.5 -70.666 -18.5 -111.999c0 -34.667 7.16699 -61.334 21.5 -80.001s35.166 -28 62.499 -28c35.333 0 65.333 10.167 90 30.5z
M221.502 586.502c-25.667 21 -38.501 50.498 -38.501 88.498c0 10.667 1 21.334 3 32.001h83c-0.666992 -3.33301 -1 -8.33301 -1 -15c0 -18 5.66699 -32 17 -42s27.333 -15 48 -15c24 0 43.833 6.33301 59.5 19s25.834 30.334 30.501 53.001h88
c-8.66699 -49.333 -28.5 -87 -59.5 -113s-71.833 -39 -122.5 -39c-46 0 -81.833 10.5 -107.5 31.5z" />
    <glyph glyph-name="Aogonek" unicode="&#x104;" horiz-adv-x="641" 
d="M557 -134l8.00098 -60.001c-14.667 -12.667 -32.167 -22.5 -52.5 -29.5s-40.833 -10.5 -61.5 -10.5c-31.333 0 -55.333 6.83301 -72 20.5s-25 33.167 -25 58.5c0 32 10 61 30 87s49.667 48.667 89 68h-35l-15 116h-240l-55 -116h-157l365 700h127l119 -700h-22
c-35.333 -21.333 -62.5 -42.5 -81.5 -63.5s-28.5 -39.833 -28.5 -56.5c0 -9.33301 3.83301 -16.666 11.5 -21.999s18.167 -8 31.5 -8s34.666 5.33301 63.999 16zM408.001 230.999l-37 278l-133 -278h170z" />
    <glyph glyph-name="aogonek" unicode="&#x105;" horiz-adv-x="558" 
d="M380.5 -64c-19 -20.667 -28.499 -39.334 -28.499 -56.001c0 -9.33301 3.66699 -16.666 11 -21.999s17.666 -8 30.999 -8s35 5.33301 65 16l8 -60c-15.333 -12.667 -33.166 -22.5 -53.499 -29.5s-40.833 -10.5 -61.5 -10.5c-30.667 0 -54.5 6.83301 -71.5 20.5
s-25.5 33.167 -25.5 58.5c0 32 10.167 61.167 30.5 87.5s50.166 48.833 89.499 67.5h-30c4 27.333 7.66699 49.333 11 66h-2c-20 -23.333 -43.833 -41.833 -71.5 -55.5s-55.834 -20.5 -84.501 -20.5c-54 0 -96.833 17.667 -128.5 53s-47.5 83.333 -47.5 144
c0 62.667 10.833 118.5 32.5 167.5s51.834 87.167 90.501 114.5s83 41 133 41c34.667 0 64.667 -6.33301 90 -19s43.333 -30.667 54 -54h2l20 63h107l-65 -367c-12 -70 -19 -114.333 -21 -133h-4c-34.667 -22 -61.5 -43.333 -80.5 -64zM324.001 118.5
c24.667 20.333 40.002 47.168 46.002 80.501l18 103c1.33301 9.33301 2 16.666 2 21.999c0 26.667 -9.16699 48.5 -27.5 65.5s-41.833 25.5 -70.5 25.5c-26.667 0 -50.834 -9.5 -72.501 -28.5s-38.667 -45.167 -51 -78.5s-18.5 -70.666 -18.5 -111.999
c0 -34.667 7.16699 -61.334 21.5 -80.001s35.166 -28 62.499 -28c35.333 0 65.333 10.167 90 30.5z" />
    <glyph glyph-name="Cacute" unicode="&#x106;" horiz-adv-x="620" 
d="M176 24c-43.333 22.667 -76.667 54.998 -100 96.998s-35 91.333 -35 148c0 85.333 16 161.333 48 228s76.833 118.834 134.5 156.501s123.167 56.5 196.5 56.5c57.333 0 107.166 -11.167 149.499 -33.5s70.833 -52.166 85.5 -89.499l-95 -72
c-12.667 26 -31.167 45.833 -55.5 59.5s-52.833 20.5 -85.5 20.5c-45.333 0 -85.666 -13.833 -120.999 -41.5s-63 -66 -83 -115s-30 -104.833 -30 -167.5c0 -52.667 12.667 -93.5 38 -122.5s61.333 -43.5 108 -43.5c70.667 0 127.667 26.667 171 80l72 -72
c-56 -82 -137.667 -123 -245 -123c-58.667 0 -109.667 11.333 -153 34zM509.999 916.998h124l-136 -162h-102z" />
    <glyph glyph-name="cacute" unicode="&#x107;" horiz-adv-x="492" 
d="M79 44c-38.667 36 -58 85.335 -58 148.002c0 62 12.333 117.167 37 165.5s59.334 85.833 104.001 112.5s96 40 154 40c47.333 0 87.666 -8.83301 120.999 -26.5s56.333 -42.167 69 -73.5l-88 -67c-9.33301 21.333 -23.5 38.166 -42.5 50.499s-40.5 18.5 -64.5 18.5
c-30 0 -57.333 -9 -82 -27s-44 -43 -58 -75s-21 -67.667 -21 -107c0 -36.667 9 -65 27 -85s43.667 -30 77 -30c24.667 0 48.334 6.16699 71.001 18.5s42.667 29.166 60 50.499l65 -67c-24.667 -32.667 -55 -57.5 -91 -74.5s-76.667 -25.5 -122 -25.5
c-66.667 0 -119.334 18 -158.001 54zM400 717.002h124l-136 -162h-102z" />
    <glyph glyph-name="Ccircumflex" unicode="&#x108;" horiz-adv-x="620" 
d="M176 24c-43.333 22.667 -76.667 54.998 -100 96.998s-35 91.333 -35 148c0 85.333 16 161.333 48 228s76.833 118.834 134.5 156.501s123.167 56.5 196.5 56.5c57.333 0 107.166 -11.167 149.499 -33.5s70.833 -52.166 85.5 -89.499l-95 -72
c-12.667 26 -31.167 45.833 -55.5 59.5s-52.833 20.5 -85.5 20.5c-45.333 0 -85.666 -13.833 -120.999 -41.5s-63 -66 -83 -115s-30 -104.833 -30 -167.5c0 -52.667 12.667 -93.5 38 -122.5s61.333 -43.5 108 -43.5c70.667 0 127.667 26.667 171 80l72 -72
c-56 -82 -137.667 -123 -245 -123c-58.667 0 -109.667 11.333 -153 34zM438.999 916.998h73l106 -162h-106l-46 78l-73 -78h-117z" />
    <glyph glyph-name="ccircumflex" unicode="&#x109;" horiz-adv-x="492" 
d="M79 44c-38.667 36 -58 85.335 -58 148.002c0 62 12.333 117.167 37 165.5s59.334 85.833 104.001 112.5s96 40 154 40c47.333 0 87.666 -8.83301 120.999 -26.5s56.333 -42.167 69 -73.5l-88 -67c-9.33301 21.333 -23.5 38.166 -42.5 50.499s-40.5 18.5 -64.5 18.5
c-30 0 -57.333 -9 -82 -27s-44 -43 -58 -75s-21 -67.667 -21 -107c0 -36.667 9 -65 27 -85s43.667 -30 77 -30c24.667 0 48.334 6.16699 71.001 18.5s42.667 29.166 60 50.499l65 -67c-24.667 -32.667 -55 -57.5 -91 -74.5s-76.667 -25.5 -122 -25.5
c-66.667 0 -119.334 18 -158.001 54zM329 717.002h73l106 -162h-106l-46 78l-73 -78h-117z" />
    <glyph glyph-name="Cdotaccent" unicode="&#x10a;" horiz-adv-x="620" 
d="M176 24c-43.333 22.667 -76.667 54.998 -100 96.998s-35 91.333 -35 148c0 85.333 16 161.333 48 228s76.833 118.834 134.5 156.501s123.167 56.5 196.5 56.5c57.333 0 107.166 -11.167 149.499 -33.5s70.833 -52.166 85.5 -89.499l-95 -72
c-12.667 26 -31.167 45.833 -55.5 59.5s-52.833 20.5 -85.5 20.5c-45.333 0 -85.666 -13.833 -120.999 -41.5s-63 -66 -83 -115s-30 -104.833 -30 -167.5c0 -52.667 12.667 -93.5 38 -122.5s61.333 -43.5 108 -43.5c70.667 0 127.667 26.667 171 80l72 -72
c-56 -82 -137.667 -123 -245 -123c-58.667 0 -109.667 11.333 -153 34zM405.999 769.998c-10.667 10 -15.999 22.998 -15.999 38.998c0 22.667 7.5 41.334 22.5 56.001s34.167 22 57.5 22c16.667 0 30.167 -5 40.5 -15s15.5 -23 15.5 -39
c0 -23.333 -7.33301 -42.166 -22 -56.499s-33.667 -21.5 -57 -21.5c-16.667 0 -30.334 5 -41.001 15z" />
    <glyph glyph-name="cdotaccent" unicode="&#x10b;" horiz-adv-x="492" 
d="M79 44c-38.667 36 -58 85.335 -58 148.002c0 62 12.333 117.167 37 165.5s59.334 85.833 104.001 112.5s96 40 154 40c47.333 0 87.666 -8.83301 120.999 -26.5s56.333 -42.167 69 -73.5l-88 -67c-9.33301 21.333 -23.5 38.166 -42.5 50.499s-40.5 18.5 -64.5 18.5
c-30 0 -57.333 -9 -82 -27s-44 -43 -58 -75s-21 -67.667 -21 -107c0 -36.667 9 -65 27 -85s43.667 -30 77 -30c24.667 0 48.334 6.16699 71.001 18.5s42.667 29.166 60 50.499l65 -67c-24.667 -32.667 -55 -57.5 -91 -74.5s-76.667 -25.5 -122 -25.5
c-66.667 0 -119.334 18 -158.001 54zM296 570.002c-10.667 10 -15.999 22.998 -15.999 38.998c0 22.667 7.5 41.334 22.5 56.001s34.167 22 57.5 22c16.667 0 30.167 -5 40.5 -15s15.5 -23 15.5 -39c0 -23.333 -7.33301 -42.166 -22 -56.499s-33.667 -21.5 -57 -21.5
c-16.667 0 -30.334 5 -41.001 15z" />
    <glyph glyph-name="Ccaron" unicode="&#x10c;" horiz-adv-x="620" 
d="M176 24c-43.333 22.667 -76.667 54.998 -100 96.998s-35 91.333 -35 148c0 85.333 16 161.333 48 228s76.833 118.834 134.5 156.501s123.167 56.5 196.5 56.5c57.333 0 107.166 -11.167 149.499 -33.5s70.833 -52.166 85.5 -89.499l-95 -72
c-12.667 26 -31.167 45.833 -55.5 59.5s-52.833 20.5 -85.5 20.5c-45.333 0 -85.666 -13.833 -120.999 -41.5s-63 -66 -83 -115s-30 -104.833 -30 -167.5c0 -52.667 12.667 -93.5 38 -122.5s61.333 -43.5 108 -43.5c70.667 0 127.667 26.667 171 80l72 -72
c-56 -82 -137.667 -123 -245 -123c-58.667 0 -109.667 11.333 -153 34zM303.999 916.998h108l45 -78l74 78h115l-163 -162h-73z" />
    <glyph glyph-name="ccaron" unicode="&#x10d;" horiz-adv-x="492" 
d="M79 44c-38.667 36 -58 85.335 -58 148.002c0 62 12.333 117.167 37 165.5s59.334 85.833 104.001 112.5s96 40 154 40c47.333 0 87.666 -8.83301 120.999 -26.5s56.333 -42.167 69 -73.5l-88 -67c-9.33301 21.333 -23.5 38.166 -42.5 50.499s-40.5 18.5 -64.5 18.5
c-30 0 -57.333 -9 -82 -27s-44 -43 -58 -75s-21 -67.667 -21 -107c0 -36.667 9 -65 27 -85s43.667 -30 77 -30c24.667 0 48.334 6.16699 71.001 18.5s42.667 29.166 60 50.499l65 -67c-24.667 -32.667 -55 -57.5 -91 -74.5s-76.667 -25.5 -122 -25.5
c-66.667 0 -119.334 18 -158.001 54zM194 717.002h108l45 -78l74 78h115l-163 -162h-73z" />
    <glyph glyph-name="Dcaron" unicode="&#x10e;" horiz-adv-x="642" 
d="M147 700l240.001 0.000976562c80.667 0 142.167 -20.5 184.5 -61.5s63.5 -100.833 63.5 -179.5c0 -148.667 -31.833 -262.334 -95.5 -341.001s-155.834 -118 -276.501 -118h-239zM283.001 115.001c41.333 0 77.833 13.667 109.5 41s56 66 73 116s25.5 108 25.5 174
c0 47.333 -9.5 82.333 -28.5 105s-48.5 34 -88.5 34h-103l-82 -470h94zM267.001 917.001h108l45 -78l74 78h115l-163 -162h-73z" />
    <glyph glyph-name="dcaron" unicode="&#x10f;" horiz-adv-x="742" 
d="M69.5 43c-31.667 35.333 -47.499 83.333 -47.499 144c0 62 11 117.5 33 166.5s52.667 87.333 92 115s84 41.5 134 41.5c62 0 105.667 -20.333 131 -61h2l52 293h127l-107 -609l-11 -70c-6 -37.333 -9.33301 -58.333 -10 -63h-120c4 26 7.66699 48 11 66h-2
c-20 -23.333 -43.833 -41.833 -71.5 -55.5s-55.834 -20.5 -84.501 -20.5c-54 0 -96.833 17.667 -128.5 53zM324.001 118.5c24.667 20.333 40.002 47.168 46.002 80.501l18 103c1.33301 9.33301 2 16.666 2 21.999c0 26.667 -9.16699 48.5 -27.5 65.5
s-41.833 25.5 -70.5 25.5c-26.667 0 -50.834 -9.5 -72.501 -28.5s-38.667 -45.167 -51 -78.5s-18.5 -70.666 -18.5 -111.999c0 -34.667 7.16699 -61.334 21.5 -80.001s35.166 -28 62.499 -28c35.333 0 65.333 10.167 90 30.5zM790.003 746.502
c12.667 -11.667 19 -26.835 19 -45.502c0 -27.333 -10.167 -57.166 -30.5 -89.499s-46.5 -60.166 -78.5 -83.499l-43 38c3.33301 4 10.833 11.833 22.5 23.5s22.167 24.167 31.5 37.5c-15.333 2 -27.833 8 -37.5 18s-14.5 22.333 -14.5 37c0 24.667 7.66699 44.5 23 59.5
s35.333 22.5 60 22.5c19.333 0 35.333 -5.83301 48 -17.5z" />
    <glyph glyph-name="Dcroat" unicode="&#x110;" horiz-adv-x="648" 
d="M576.5 638.5c42.333 -41 63.5 -100.832 63.5 -179.499c0 -148.667 -31.667 -262.334 -95 -341.001s-155.333 -118 -276 -118h-239l50 286h-64l18 104h65l54 310h240c80 0 141.167 -20.5 183.5 -61.5zM397.5 156.001c31.667 27.333 56.167 66 73.5 116s26 108 26 174
c0 47.333 -9.5 82.333 -28.5 105s-48.5 34 -88.5 34h-103l-34 -195h159l-19 -104h-159l-30 -171h94c41.333 0 77.833 13.667 109.5 41z" />
    <glyph glyph-name="dcroat" unicode="&#x111;" horiz-adv-x="586" 
d="M625 584h-59.999l-79 -451l-11 -70c-6 -37.333 -9.33301 -58.333 -10 -63h-120c4 26 7.66699 48 11 66h-2c-20 -23.333 -43.833 -41.833 -71.5 -55.5s-55.834 -20.5 -84.501 -20.5c-54 0 -96.833 17.667 -128.5 53s-47.5 83.333 -47.5 144c0 62 11 117.5 33 166.5
s52.667 87.333 92 115s84 41.5 134 41.5c62 0 105.667 -20.333 131 -61h2l24 135h-140l16 87h139l13 71h127l-12 -71h59zM390.001 324c0 26.667 -9.16504 48.502 -27.498 65.502s-41.833 25.5 -70.5 25.5c-26.667 0 -50.834 -9.5 -72.501 -28.5s-38.667 -45.167 -51 -78.5
s-18.5 -70.666 -18.5 -111.999c0 -34.667 7.16699 -61.334 21.5 -80.001s35.166 -28 62.499 -28c35.333 0 65.333 10.167 90 30.5s40 47.166 46 80.499l18 103c1.33301 9.33301 2 16.666 2 21.999z" />
    <glyph glyph-name="Emacron" unicode="&#x112;" horiz-adv-x="571" 
d="M147 700h465l-20 -115h-321l-28 -160h286l-20 -115h-287l-33 -195h320l-20 -115h-465zM238 855h342l-14 -83h-343z" />
    <glyph glyph-name="emacron" unicode="&#x113;" horiz-adv-x="542" 
d="M464.5 457c35.667 -35.333 53.4951 -83.667 53.4951 -145c0 -22 -2.33301 -44.333 -7 -67l-9 -42h-348c0.666992 -34.667 9.83398 -61 27.501 -79s43.5 -27 77.5 -27c29.333 0 55.833 5 79.5 15s47.834 26.667 72.501 50l58 -66
c-25.333 -32.667 -58.666 -58.5 -99.999 -77.5s-84.666 -28.5 -129.999 -28.5c-65.333 0 -117.333 18 -156 54s-58 85 -58 147s12.333 117.167 37 165.5s59.167 86 103.5 113s94.833 40.5 151.5 40.5c62.667 0 111.834 -17.667 147.501 -53zM376.995 377.999
c-16 18.667 -40.666 28 -73.999 28c-31.333 0 -59.333 -10.167 -84 -30.5s-42.334 -48.833 -53.001 -85.5h232v6c2 36 -5 63.333 -21 82zM173.996 654.999h342l-14 -83h-343z" />
    <glyph glyph-name="Ebreve" unicode="&#x114;" horiz-adv-x="571" 
d="M147 700h465l-20 -115h-321l-28 -160h286l-20 -115h-287l-33 -195h320l-20 -115h-465zM291.5 786.5c-25.667 21 -38.501 50.498 -38.501 88.498c0 10.667 1 21.334 3 32.001h83c-0.666992 -3.33301 -1 -8.33301 -1 -15c0 -18 5.66699 -32 17 -42s27.333 -15 48 -15
c24 0 43.833 6.33301 59.5 19s25.834 30.334 30.501 53.001h88c-8.66699 -49.333 -28.5 -87 -59.5 -113s-71.833 -39 -122.5 -39c-46 0 -81.833 10.5 -107.5 31.5z" />
    <glyph glyph-name="ebreve" unicode="&#x115;" horiz-adv-x="542" 
d="M464.5 457c35.667 -35.333 53.4951 -83.667 53.4951 -145c0 -22 -2.33301 -44.333 -7 -67l-9 -42h-348c0.666992 -34.667 9.83398 -61 27.501 -79s43.5 -27 77.5 -27c29.333 0 55.833 5 79.5 15s47.834 26.667 72.501 50l58 -66
c-25.333 -32.667 -58.666 -58.5 -99.999 -77.5s-84.666 -28.5 -129.999 -28.5c-65.333 0 -117.333 18 -156 54s-58 85 -58 147s12.333 117.167 37 165.5s59.167 86 103.5 113s94.833 40.5 151.5 40.5c62.667 0 111.834 -17.667 147.501 -53zM376.995 377.999
c-16 18.667 -40.666 28 -73.999 28c-31.333 0 -59.333 -10.167 -84 -30.5s-42.334 -48.833 -53.001 -85.5h232v6c2 36 -5 63.333 -21 82zM227.496 586.499c-25.667 21 -38.501 50.498 -38.501 88.498c0 10.667 1 21.334 3 32.001h83c-0.666992 -3.33301 -1 -8.33301 -1 -15
c0 -18 5.66699 -32 17 -42s27.333 -15 48 -15c24 0 43.833 6.33301 59.5 19s25.834 30.334 30.501 53.001h88c-8.66699 -49.333 -28.5 -87 -59.5 -113s-71.833 -39 -122.5 -39c-46 0 -81.833 10.5 -107.5 31.5z" />
    <glyph glyph-name="Edotaccent" unicode="&#x116;" horiz-adv-x="571" 
d="M147 700h465l-20 -115h-321l-28 -160h286l-20 -115h-287l-33 -195h320l-20 -115h-465zM351 770c-10.667 10 -15.999 22.998 -15.999 38.998c0 22.667 7.5 41.334 22.5 56.001s34.167 22 57.5 22c16.667 0 30.167 -5 40.5 -15s15.5 -23 15.5 -39
c0 -23.333 -7.33301 -42.166 -22 -56.499s-33.667 -21.5 -57 -21.5c-16.667 0 -30.334 5 -41.001 15z" />
    <glyph glyph-name="edotaccent" unicode="&#x117;" horiz-adv-x="542" 
d="M464.5 457c35.667 -35.333 53.4951 -83.667 53.4951 -145c0 -22 -2.33301 -44.333 -7 -67l-9 -42h-348c0.666992 -34.667 9.83398 -61 27.501 -79s43.5 -27 77.5 -27c29.333 0 55.833 5 79.5 15s47.834 26.667 72.501 50l58 -66
c-25.333 -32.667 -58.666 -58.5 -99.999 -77.5s-84.666 -28.5 -129.999 -28.5c-65.333 0 -117.333 18 -156 54s-58 85 -58 147s12.333 117.167 37 165.5s59.167 86 103.5 113s94.833 40.5 151.5 40.5c62.667 0 111.834 -17.667 147.501 -53zM376.995 377.999
c-16 18.667 -40.666 28 -73.999 28c-31.333 0 -59.333 -10.167 -84 -30.5s-42.334 -48.833 -53.001 -85.5h232v6c2 36 -5 63.333 -21 82zM286.996 569.999c-10.667 10 -15.999 22.998 -15.999 38.998c0 22.667 7.5 41.334 22.5 56.001s34.167 22 57.5 22
c16.667 0 30.167 -5 40.5 -15s15.5 -23 15.5 -39c0 -23.333 -7.33301 -42.166 -22 -56.499s-33.667 -21.5 -57 -21.5c-16.667 0 -30.334 5 -41.001 15z" />
    <glyph glyph-name="Eogonek" unicode="&#x118;" horiz-adv-x="571" 
d="M271 585l-27.999 -160.001h286l-20 -115h-287l-33 -195h320l-20 -115c-35.333 -21.333 -62.5 -42.5 -81.5 -63.5s-28.5 -39.833 -28.5 -56.5c0 -9.33301 3.83301 -16.666 11.5 -21.999s18.167 -8 31.5 -8s34.666 5.33301 63.999 16l8 -60
c-14.667 -12.667 -32.167 -22.5 -52.5 -29.5s-40.833 -10.5 -61.5 -10.5c-31.333 0 -55.333 6.83301 -72 20.5s-25 33.167 -25 58.5c0 32 10 61 30 87s49.667 48.667 89 68h-378l123 700h465l-20 -115h-321z" />
    <glyph glyph-name="eogonek" unicode="&#x119;" horiz-adv-x="542" 
d="M464.5 457c35.667 -35.333 53.4971 -83.6689 53.4971 -145.002c0 -22 -2.33301 -44.333 -7 -67l-9 -42h-348c0.666992 -34.667 9.83398 -61 27.501 -79s43.5 -27 77.5 -27c29.333 0 55.833 5 79.5 15s47.834 26.667 72.501 50l58 -66
c-22.667 -29.333 -52 -53.333 -88 -72c-42 -33.333 -63 -63 -63 -89c0 -9.33301 3.83301 -16.666 11.5 -21.999s18.167 -8 31.5 -8c10.667 0 32 5.66699 64 17l8 -60c-15.333 -12.667 -33.166 -22.667 -53.499 -30s-40.833 -11 -61.5 -11c-30.667 0 -54.334 7 -71.001 21
s-25 33.667 -25 59c0 32.667 10.667 62.334 32 89.001h-15c-65.333 0 -117.333 18 -156 54s-58 85 -58 147s12.333 117.167 37 165.5s59.167 86 103.5 113s94.833 40.5 151.5 40.5c62.667 0 111.834 -17.667 147.501 -53zM376.997 377.997c-16 18.667 -40.666 28 -73.999 28
c-31.333 0 -59.333 -10.167 -84 -30.5s-42.334 -48.833 -53.001 -85.5h232v6c2 36 -5 63.333 -21 82z" />
    <glyph glyph-name="Ecaron" unicode="&#x11a;" horiz-adv-x="571" 
d="M147 700h465l-20 -115h-321l-28 -160h286l-20 -115h-287l-33 -195h320l-20 -115h-465zM250 917h108l45 -78l74 78h115l-163 -162h-73z" />
    <glyph glyph-name="ecaron" unicode="&#x11b;" horiz-adv-x="542" 
d="M464.5 457c35.667 -35.333 53.4951 -83.667 53.4951 -145c0 -22 -2.33301 -44.333 -7 -67l-9 -42h-348c0.666992 -34.667 9.83398 -61 27.501 -79s43.5 -27 77.5 -27c29.333 0 55.833 5 79.5 15s47.834 26.667 72.501 50l58 -66
c-25.333 -32.667 -58.666 -58.5 -99.999 -77.5s-84.666 -28.5 -129.999 -28.5c-65.333 0 -117.333 18 -156 54s-58 85 -58 147s12.333 117.167 37 165.5s59.167 86 103.5 113s94.833 40.5 151.5 40.5c62.667 0 111.834 -17.667 147.501 -53zM376.995 377.999
c-16 18.667 -40.666 28 -73.999 28c-31.333 0 -59.333 -10.167 -84 -30.5s-42.334 -48.833 -53.001 -85.5h232v6c2 36 -5 63.333 -21 82zM184.996 716.999h108l45 -78l74 78h115l-163 -162h-73z" />
    <glyph glyph-name="Gcircumflex" unicode="&#x11c;" horiz-adv-x="653" 
d="M333 380h293.004l-66 -380h-109l-6 35c-42.667 -30 -92.667 -45 -150 -45c-52 0 -97.333 10.667 -136 32s-68.334 51.833 -89.001 91.5s-31 85.834 -31 138.501c0 89.333 16 168.666 48 237.999s76.667 123.333 134 162s123 58 197 58
c59.333 0 110.666 -11.333 153.999 -34s71 -52.334 83 -89.001l-94 -72c-12 26 -30.333 45.833 -55 59.5s-54.334 20.5 -89.001 20.5c-44.667 0 -84.667 -14.333 -120 -43s-63 -68.5 -83 -119.5s-30 -109.167 -30 -174.5c0 -53.333 11.167 -93.666 33.5 -120.999
s55.166 -41 98.499 -41c44 0 85.333 10.667 124 32l26 150h-151zM429.004 917h73l106 -162h-106l-46 78l-73 -78h-117z" />
    <glyph glyph-name="gcircumflex" unicode="&#x11d;" horiz-adv-x="555" 
d="M550 500l-84 -479.999c-14.667 -84.667 -46.167 -148.5 -94.5 -191.5s-113.166 -64.5 -194.499 -64.5c-39.333 0 -76.333 4.66699 -111 14s-63.667 22.666 -87 39.999l58 87c21.333 -12 45 -21.5 71 -28.5s51 -10.5 75 -10.5c88.667 0 143 57 163 171l2 13
c-32 -35.333 -78.667 -53 -140 -53c-58 0 -103.5 16.833 -136.5 50.5s-49.5 80.167 -49.5 139.5c0 63.333 10.667 119.5 32 168.5s51.333 87 90 114s83 40.5 133 40.5c35.333 0 65.666 -6.33301 90.999 -19s43.333 -30.667 54 -54h2l20 63h106zM387 319.001
c0 31.333 -7.83594 55.166 -23.5029 71.499s-38.167 24.5 -67.5 24.5c-28.667 0 -54 -9.33301 -76 -28s-39.167 -44.167 -51.5 -76.5s-18.5 -69.166 -18.5 -110.499c0 -34 7.83301 -59.833 23.5 -77.5s38.834 -26.5 69.501 -26.5c34.667 0 63.334 10.5 86.001 31.5
s37.334 50.833 44.001 89.5l11 64c2 14 3 26.667 3 38zM310.997 717.001h73l106 -162h-106l-46 78l-73 -78h-117z" />
    <glyph glyph-name="Gbreve" unicode="&#x11e;" horiz-adv-x="653" 
d="M333 380h293.004l-66 -380h-109l-6 35c-42.667 -30 -92.667 -45 -150 -45c-52 0 -97.333 10.667 -136 32s-68.334 51.833 -89.001 91.5s-31 85.834 -31 138.501c0 89.333 16 168.666 48 237.999s76.667 123.333 134 162s123 58 197 58
c59.333 0 110.666 -11.333 153.999 -34s71 -52.334 83 -89.001l-94 -72c-12 26 -30.333 45.833 -55 59.5s-54.334 20.5 -89.001 20.5c-44.667 0 -84.667 -14.333 -120 -43s-63 -68.5 -83 -119.5s-30 -109.167 -30 -174.5c0 -53.333 11.167 -93.666 33.5 -120.999
s55.166 -41 98.499 -41c44 0 85.333 10.667 124 32l26 150h-151zM336.504 786.5c-25.667 21 -38.501 50.498 -38.501 88.498c0 10.667 1 21.334 3 32.001h83c-0.666992 -3.33301 -1 -8.33301 -1 -15c0 -18 5.66699 -32 17 -42s27.333 -15 48 -15
c24 0 43.833 6.33301 59.5 19s25.834 30.334 30.501 53.001h88c-8.66699 -49.333 -28.5 -87 -59.5 -113s-71.833 -39 -122.5 -39c-46 0 -81.833 10.5 -107.5 31.5z" />
    <glyph glyph-name="gbreve" unicode="&#x11f;" horiz-adv-x="555" 
d="M550 500l-84 -479.999c-14.667 -84.667 -46.167 -148.5 -94.5 -191.5s-113.166 -64.5 -194.499 -64.5c-39.333 0 -76.333 4.66699 -111 14s-63.667 22.666 -87 39.999l58 87c21.333 -12 45 -21.5 71 -28.5s51 -10.5 75 -10.5c88.667 0 143 57 163 171l2 13
c-32 -35.333 -78.667 -53 -140 -53c-58 0 -103.5 16.833 -136.5 50.5s-49.5 80.167 -49.5 139.5c0 63.333 10.667 119.5 32 168.5s51.333 87 90 114s83 40.5 133 40.5c35.333 0 65.666 -6.33301 90.999 -19s43.333 -30.667 54 -54h2l20 63h106zM387 319.001
c0 31.333 -7.83594 55.166 -23.5029 71.499s-38.167 24.5 -67.5 24.5c-28.667 0 -54 -9.33301 -76 -28s-39.167 -44.167 -51.5 -76.5s-18.5 -69.166 -18.5 -110.499c0 -34 7.83301 -59.833 23.5 -77.5s38.834 -26.5 69.501 -26.5c34.667 0 63.334 10.5 86.001 31.5
s37.334 50.833 44.001 89.5l11 64c2 14 3 26.667 3 38zM218.497 586.501c-25.667 21 -38.501 50.498 -38.501 88.498c0 10.667 1 21.334 3 32.001h83c-0.666992 -3.33301 -1 -8.33301 -1 -15c0 -18 5.66699 -32 17 -42s27.333 -15 48 -15c24 0 43.833 6.33301 59.5 19
s25.834 30.334 30.501 53.001h88c-8.66699 -49.333 -28.5 -87 -59.5 -113s-71.833 -39 -122.5 -39c-46 0 -81.833 10.5 -107.5 31.5z" />
    <glyph glyph-name="Gdotaccent" unicode="&#x120;" horiz-adv-x="653" 
d="M333 380h293.004l-66 -380h-109l-6 35c-42.667 -30 -92.667 -45 -150 -45c-52 0 -97.333 10.667 -136 32s-68.334 51.833 -89.001 91.5s-31 85.834 -31 138.501c0 89.333 16 168.666 48 237.999s76.667 123.333 134 162s123 58 197 58
c59.333 0 110.666 -11.333 153.999 -34s71 -52.334 83 -89.001l-94 -72c-12 26 -30.333 45.833 -55 59.5s-54.334 20.5 -89.001 20.5c-44.667 0 -84.667 -14.333 -120 -43s-63 -68.5 -83 -119.5s-30 -109.167 -30 -174.5c0 -53.333 11.167 -93.666 33.5 -120.999
s55.166 -41 98.499 -41c44 0 85.333 10.667 124 32l26 150h-151zM396.004 770c-10.667 10 -15.999 22.998 -15.999 38.998c0 22.667 7.5 41.334 22.5 56.001s34.167 22 57.5 22c16.667 0 30.167 -5 40.5 -15s15.5 -23 15.5 -39c0 -23.333 -7.33301 -42.166 -22 -56.499
s-33.667 -21.5 -57 -21.5c-16.667 0 -30.334 5 -41.001 15z" />
    <glyph glyph-name="gdotaccent" unicode="&#x121;" horiz-adv-x="555" 
d="M550 500l-84 -479.999c-14.667 -84.667 -46.167 -148.5 -94.5 -191.5s-113.166 -64.5 -194.499 -64.5c-39.333 0 -76.333 4.66699 -111 14s-63.667 22.666 -87 39.999l58 87c21.333 -12 45 -21.5 71 -28.5s51 -10.5 75 -10.5c88.667 0 143 57 163 171l2 13
c-32 -35.333 -78.667 -53 -140 -53c-58 0 -103.5 16.833 -136.5 50.5s-49.5 80.167 -49.5 139.5c0 63.333 10.667 119.5 32 168.5s51.333 87 90 114s83 40.5 133 40.5c35.333 0 65.666 -6.33301 90.999 -19s43.333 -30.667 54 -54h2l20 63h106zM387 319.001
c0 31.333 -7.83594 55.166 -23.5029 71.499s-38.167 24.5 -67.5 24.5c-28.667 0 -54 -9.33301 -76 -28s-39.167 -44.167 -51.5 -76.5s-18.5 -69.166 -18.5 -110.499c0 -34 7.83301 -59.833 23.5 -77.5s38.834 -26.5 69.501 -26.5c34.667 0 63.334 10.5 86.001 31.5
s37.334 50.833 44.001 89.5l11 64c2 14 3 26.667 3 38zM277.997 570.001c-10.667 10 -15.999 22.998 -15.999 38.998c0 22.667 7.5 41.334 22.5 56.001s34.167 22 57.5 22c16.667 0 30.167 -5 40.5 -15s15.5 -23 15.5 -39c0 -23.333 -7.33301 -42.166 -22 -56.499
s-33.667 -21.5 -57 -21.5c-16.667 0 -30.334 5 -41.001 15z" />
    <glyph glyph-name="uni0122" unicode="&#x122;" horiz-adv-x="653" 
d="M333 380h293.004l-66 -380h-109l-6 35c-42.667 -30 -92.667 -45 -150 -45c-52 0 -97.333 10.667 -136 32s-68.334 51.833 -89.001 91.5s-31 85.834 -31 138.501c0 89.333 16 168.666 48 237.999s76.667 123.333 134 162s123 58 197 58
c59.333 0 110.666 -11.333 153.999 -34s71 -52.334 83 -89.001l-94 -72c-12 26 -30.333 45.833 -55 59.5s-54.334 20.5 -89.001 20.5c-44.667 0 -84.667 -14.333 -120 -43s-63 -68.5 -83 -119.5s-30 -109.167 -30 -174.5c0 -53.333 11.167 -93.666 33.5 -120.999
s55.166 -41 98.499 -41c44 0 85.333 10.667 124 32l26 150h-151zM333.004 -90c12.667 -12 19 -27.333 19 -46c0 -27.333 -10 -57 -30 -89s-46.333 -60 -79 -84l-43 39c3.33301 4 10.833 11.833 22.5 23.5s22.167 24.167 31.5 37.5c-15.333 1.33301 -27.833 7 -37.5 17
s-14.5 22.333 -14.5 37c0 24.667 7.66699 44.667 23 60s35.333 23 60 23c19.333 0 35.333 -6 48 -18z" />
    <glyph glyph-name="uni0123" unicode="&#x123;" horiz-adv-x="555" 
d="M550 500l-84 -479.999c-14.667 -84.667 -46.167 -148.5 -94.5 -191.5s-113.166 -64.5 -194.499 -64.5c-39.333 0 -76.333 4.66699 -111 14s-63.667 22.666 -87 39.999l58 87c21.333 -12 45 -21.5 71 -28.5s51 -10.5 75 -10.5c88.667 0 143 57 163 171l2 13
c-32 -35.333 -78.667 -53 -140 -53c-58 0 -103.5 16.833 -136.5 50.5s-49.5 80.167 -49.5 139.5c0 63.333 10.667 119.5 32 168.5s51.333 87 90 114s83 40.5 133 40.5c35.333 0 65.666 -6.33301 90.999 -19s43.333 -30.667 54 -54h2l20 63h106zM387 319.001
c0 31.333 -7.83594 55.166 -23.5029 71.499s-38.167 24.5 -67.5 24.5c-28.667 0 -54 -9.33301 -76 -28s-39.167 -44.167 -51.5 -76.5s-18.5 -69.166 -18.5 -110.499c0 -34 7.83301 -59.833 23.5 -77.5s38.834 -26.5 69.501 -26.5c34.667 0 63.334 10.5 86.001 31.5
s37.334 50.833 44.001 89.5l11 64c2 14 3 26.667 3 38zM395.497 674.501c9.66699 -9.66699 14.5 -21.833 14.5 -36.5c0 -24.667 -7.83301 -44.667 -23.5 -60s-35.834 -23 -60.501 -23c-19.333 0 -35.166 6 -47.499 18s-18.5 27.333 -18.5 46c0 27.333 10 57 30 89
s46 60 78 84l43 -39c-24.667 -24.667 -42.667 -45 -54 -61c16 -2 28.833 -7.83301 38.5 -17.5z" />
    <glyph glyph-name="Hcircumflex" unicode="&#x124;" horiz-adv-x="692" 
d="M147 700h144l-50 -286h268l51 286h143l-123 -700h-143l53 299h-269l-53 -299h-144zM428 917h73l106 -162h-106l-46 78l-73 -78h-117z" />
    <glyph glyph-name="hcircumflex" unicode="&#x125;" horiz-adv-x="567" 
d="M135 742l127.999 0.00292969l-53 -301c17.333 21.333 40.333 38.166 69 50.499s59.334 18.5 92.001 18.5c50 0 89.5 -14.5 118.5 -43.5s43.5 -68.167 43.5 -117.5c0 -14 -1.66699 -30.333 -5 -49l-53 -300h-128l51 291c2.66699 17.333 4 29.666 4 36.999
c0 27.333 -6.66699 48.666 -20 63.999s-32.333 23 -57 23c-36.667 0 -68 -12.833 -94 -38.5s-43 -60.5 -51 -104.5l-48 -272h-128zM309.999 959.003h73l106 -162h-106l-46 78l-73 -78h-117z" />
    <glyph glyph-name="Hbar" unicode="&#x126;" horiz-adv-x="709" 
d="M736 496h-60l-87 -496h-144l53 299h-269l-53 -299h-143l87 496h-60l16 90h60l20 114h143l-20 -114h269l20 114h144l-20 -114h60zM532 496h-269l-14 -82h269z" />
    <glyph glyph-name="hbar" unicode="&#x127;" horiz-adv-x="567" 
d="M489.5 466.5c29 -29 43.499 -68.1641 43.499 -117.497c0 -14 -1.66699 -30.333 -5 -49l-53 -300h-128l51 291c2.66699 17.333 4 29.666 4 36.999c0 27.333 -6.66699 48.666 -20 63.999s-32.333 23 -57 23c-36.667 0 -68 -12.833 -94 -38.5s-43 -60.5 -51 -104.5l-48 -272
h-128l103 584h-59l15 87h59l13 71h128l-13 -71h132l-15 -87h-132l-25 -143c17.333 21.333 40.333 38.166 69 50.499s59.334 18.5 92.001 18.5c50 0 89.5 -14.5 118.5 -43.5z" />
    <glyph glyph-name="Itilde" unicode="&#x128;" horiz-adv-x="323" 
d="M169 700h143l-123 -700h-143zM125.5 848c23.667 22 50.5029 33 80.5029 33c13.333 0 25.333 -2.33301 36 -7s23 -11.667 37 -21c9.33301 -6 17.166 -10.667 23.499 -14s12.5 -5 18.5 -5c18 0 30 17 36 51h80c-6 -43.333 -20.333 -75.833 -43 -97.5s-50 -32.5 -82 -32.5
c-13.333 0 -25.833 2.5 -37.5 7.5s-24.834 12.167 -39.501 21.5c-18 12 -31 18 -39 18c-7.33301 0 -14.333 -4.33301 -21 -13s-11.334 -20 -14.001 -34h-80c6 40 20.833 71 44.5 93z" />
    <glyph glyph-name="itilde" unicode="&#x129;" horiz-adv-x="279" 
d="M121 500h126l-88 -500h-126zM68.5 648c23.667 22 50.5029 33 80.5029 33c13.333 0 25.333 -2.33301 36 -7s23 -11.667 37 -21c9.33301 -6 17.166 -10.667 23.499 -14s12.5 -5 18.5 -5c18 0 30 17 36 51h80c-6 -43.333 -20.333 -75.833 -43 -97.5s-50 -32.5 -82 -32.5
c-13.333 0 -25.833 2.5 -37.5 7.5s-24.834 12.167 -39.501 21.5c-18 12 -31 18 -39 18c-7.33301 0 -14.333 -4.33301 -21 -13s-11.334 -20 -14.001 -34h-80c6 40 20.833 71 44.5 93z" />
    <glyph glyph-name="Imacron" unicode="&#x12a;" horiz-adv-x="323" 
d="M169 700h143l-123 -700h-143zM97 855h342l-14 -83h-343z" />
    <glyph glyph-name="imacron" unicode="&#x12b;" horiz-adv-x="279" 
d="M121 500h126l-88 -500h-126zM40 655h342l-14 -83h-343z" />
    <glyph glyph-name="Ibreve" unicode="&#x12c;" horiz-adv-x="323" 
d="M169 700h143l-123 -700h-143zM150.5 786.5c-25.667 21 -38.501 50.498 -38.501 88.498c0 10.667 1 21.334 3 32.001h83c-0.666992 -3.33301 -1 -8.33301 -1 -15c0 -18 5.66699 -32 17 -42s27.333 -15 48 -15c24 0 43.833 6.33301 59.5 19s25.834 30.334 30.501 53.001h88
c-8.66699 -49.333 -28.5 -87 -59.5 -113s-71.833 -39 -122.5 -39c-46 0 -81.833 10.5 -107.5 31.5z" />
    <glyph glyph-name="ibreve" unicode="&#x12d;" horiz-adv-x="279" 
d="M121 500h126l-88 -500h-126zM93.5 586.5c-25.667 21 -38.501 50.498 -38.501 88.498c0 10.667 1 21.334 3 32.001h83c-0.666992 -3.33301 -1 -8.33301 -1 -15c0 -18 5.66699 -32 17 -42s27.333 -15 48 -15c24 0 43.833 6.33301 59.5 19s25.834 30.334 30.501 53.001h88
c-8.66699 -49.333 -28.5 -87 -59.5 -113s-71.833 -39 -122.5 -39c-46 0 -81.833 10.5 -107.5 31.5z" />
    <glyph glyph-name="Iogonek" unicode="&#x12e;" horiz-adv-x="323" 
d="M90.5 -63.5c-19 -21 -28.499 -39.834 -28.499 -56.501c0 -9.33301 3.83301 -16.666 11.5 -21.999s18.167 -8 31.5 -8s34.666 5.33301 63.999 16l8 -60c-14.667 -12.667 -32.167 -22.5 -52.5 -29.5s-40.833 -10.5 -61.5 -10.5c-31.333 0 -55.333 6.83301 -72 20.5
s-25 33.167 -25 58.5c0 32 10 61 30 87s49.667 48.667 89 68h-39l123 700h143l-123 -700h-17c-35.333 -21.333 -62.5 -42.5 -81.5 -63.5z" />
    <glyph glyph-name="iogonek" unicode="&#x12f;" horiz-adv-x="273" 
d="M267.5 691c13 -11.333 19.5 -25.666 19.5 -42.999c0 -26.667 -9 -48.334 -27 -65.001s-41 -25 -69 -25c-20.667 0 -37.667 5.66699 -51 17s-20 25.666 -20 42.999c0 26.667 9 48.334 27 65.001s41.333 25 70 25c20.667 0 37.5 -5.66699 50.5 -17zM117 500
l127.001 -0.000976562l-88 -500h-15c-35.333 -21.333 -62.5 -42.5 -81.5 -63.5s-28.5 -39.833 -28.5 -56.5c0 -9.33301 3.83301 -16.666 11.5 -21.999s18.167 -8 31.5 -8s34.666 5.33301 63.999 16l8 -60c-14.667 -12.667 -32.167 -22.5 -52.5 -29.5
s-40.833 -10.5 -61.5 -10.5c-31.333 0 -55.333 6.83301 -72 20.5s-25 33.167 -25 58.5c0 65.333 39.667 117 119 155h-25z" />
    <glyph glyph-name="Idotaccent" unicode="&#x130;" horiz-adv-x="323" 
d="M169 700h143l-123 -700h-143zM210 770c-10.667 10 -15.999 22.998 -15.999 38.998c0 22.667 7.5 41.334 22.5 56.001s34.167 22 57.5 22c16.667 0 30.167 -5 40.5 -15s15.5 -23 15.5 -39c0 -23.333 -7.33301 -42.166 -22 -56.499s-33.667 -21.5 -57 -21.5
c-16.667 0 -30.334 5 -41.001 15z" />
    <glyph glyph-name="dotlessi" unicode="&#x131;" horiz-adv-x="279" 
d="M121 500h126l-88 -500h-126z" />
    <glyph glyph-name="IJ" unicode="&#x132;" horiz-adv-x="815" 
d="M169 700h143l-123 -700h-143zM375 10.5c-33.333 13.667 -59.667 32.501 -79 56.501l73 92c14.667 -16.667 32.5 -29.834 53.5 -39.501s42.5 -14.5 64.5 -14.5c32.667 0 58 10.667 76 32s31.333 56 40 104l80 459h144l-84 -475c-14 -80.667 -42 -140 -84 -178
s-100.667 -57 -176 -57c-38.667 0 -74.667 6.83301 -108 20.5z" />
    <glyph glyph-name="ij" unicode="&#x133;" horiz-adv-x="551" 
d="M140 575c-13.333 11.333 -20 25.666 -20 42.999c0 26.667 9 48.334 27 65.001s41.333 25 70 25c20.667 0 37.5 -5.66699 50.5 -17s19.5 -25.666 19.5 -42.999c0 -26.667 -9 -48.334 -27 -65.001s-41 -25 -69 -25c-20.667 0 -37.667 5.66699 -51 17zM117 500h127l-88 -500
h-127zM427 575c-13.333 11.333 -20 26 -20 44c0 26 9.16699 47.333 27.5 64s41.833 25 70.5 25c20.667 0 37.5 -5.66699 50.5 -17s19.5 -26 19.5 -44c0 -26.667 -9 -48.167 -27 -64.5s-41.333 -24.5 -70 -24.5c-20.667 0 -37.667 5.66699 -51 17zM177 -201.5
c-18.667 2.33301 -34.3311 5.16699 -46.998 8.5l22 89c20 -2 41.333 -3 64 -3c28.667 0 51 6.5 67 19.5s26.333 33.5 31 61.5l93 526h128l-93 -524c-10.667 -61.333 -33.334 -106.833 -68.001 -136.5s-82.667 -44.5 -144 -44.5c-16.667 0 -34.334 1.16699 -53.001 3.5z" />
    <glyph glyph-name="Jcircumflex" unicode="&#x134;" horiz-adv-x="492" 
d="M52 10.5c-33.333 13.667 -59.667 32.501 -79 56.501l73 92c14.667 -16.667 32.5 -29.834 53.5 -39.501s42.5 -14.5 64.5 -14.5c32.667 0 58 10.667 76 32s31.333 56 40 104l80 459h144l-84 -475c-14 -80.667 -42 -140 -84 -178s-100.667 -57 -176 -57
c-38.667 0 -74.667 6.83301 -108 20.5zM347.999 917.001h73l106 -162h-106l-46 78l-73 -78h-117z" />
    <glyph glyph-name="jcircumflex" unicode="&#x135;" horiz-adv-x="277" 
d="M-143 -193l22 89c18 -2 39 -3 63 -3c48.667 0 77.334 27 86.001 81l93 526h127l-93 -524c-10.667 -58.667 -32.334 -103.5 -65.001 -134.5s-79 -46.5 -139 -46.5c-36 0 -67.333 4 -94 12zM188 717h73l106 -162h-106l-46 78l-73 -78h-117z" />
    <glyph glyph-name="uni0136" unicode="&#x136;" horiz-adv-x="656" 
d="M419 423l174 -423h-152l-130 313l-107 -108l-36 -205h-144l124 700h144l-54 -304l285 304h169zM322 -90c12.667 -12 19 -27.333 19 -46c0 -27.333 -10 -57 -30 -89s-46.333 -60 -79 -84l-43 39c3.33301 4 10.833 11.833 22.5 23.5s22.167 24.167 31.5 37.5
c-15.333 1.33301 -27.833 7 -37.5 17s-14.5 22.333 -14.5 37c0 24.667 7.66699 44.667 23 60s35.333 23 60 23c19.333 0 35.333 -6 48 -18z" />
    <glyph glyph-name="uni0137" unicode="&#x137;" horiz-adv-x="533" 
d="M339 319l147 -319h-140l-107 236l-74 -62l-31 -174h-128l131 742h128l-75 -412l205 170h160zM256 -90c12.667 -12 19 -27.333 19 -46c0 -27.333 -10 -57 -30 -89s-46.333 -60 -79 -84l-43 39c3.33301 4 10.833 11.833 22.5 23.5s22.167 24.167 31.5 37.5
c-15.333 1.33301 -27.833 7 -37.5 17s-14.5 22.333 -14.5 37c0 24.667 7.66699 44.667 23 60s35.333 23 60 23c19.333 0 35.333 -6 48 -18z" />
    <glyph glyph-name="kgreenlandic" unicode="&#x138;" horiz-adv-x="533" 
d="M345 308l141 -308h-144l-97 215l-88 -80l-23 -135h-128l88 500h128l-37 -210l214 210h156z" />
    <glyph glyph-name="Lacute" unicode="&#x139;" horiz-adv-x="565" 
d="M147 700h144l-103 -585h330l-20 -115h-474zM293 917h124l-136 -162h-102z" />
    <glyph glyph-name="lacute" unicode="&#x13a;" horiz-adv-x="301" 
d="M59 15.5c-18.667 17 -28 41.5 -28 73.5c0 10.667 1 22 3 34l110 619h127l-110 -620c-0.666992 -2.66699 -1 -6.66699 -1 -12c0 -20.667 13.333 -31 40 -31c14.667 0 34.334 4.33301 59.001 13l7 -68c-34 -22.667 -75.333 -34 -124 -34
c-36.667 0 -64.334 8.5 -83.001 25.5zM281 959h124l-136 -162h-102z" />
    <glyph glyph-name="uni013B" unicode="&#x13b;" horiz-adv-x="565" 
d="M147 700h144l-103 -585h330l-20 -115h-474zM289 -90c12.667 -12 19 -27.333 19 -46c0 -27.333 -10 -57 -30 -89s-46.333 -60 -79 -84l-43 39c3.33301 4 10.833 11.833 22.5 23.5s22.167 24.167 31.5 37.5c-15.333 1.33301 -27.833 7 -37.5 17s-14.5 22.333 -14.5 37
c0 24.667 7.66699 44.667 23 60s35.333 23 60 23c19.333 0 35.333 -6 48 -18z" />
    <glyph glyph-name="uni013C" unicode="&#x13c;" horiz-adv-x="301" 
d="M59 15.5c-18.667 17 -28 41.5 -28 73.5c0 10.667 1 22 3 34l110 619h127l-110 -620c-0.666992 -2.66699 -1 -6.66699 -1 -12c0 -20.667 13.333 -31 40 -31c14.667 0 34.334 4.33301 59.001 13l7 -68c-34 -22.667 -75.333 -34 -124 -34
c-36.667 0 -64.334 8.5 -83.001 25.5zM174 -90c12.667 -12 19 -27.333 19 -46c0 -27.333 -10 -57 -30 -89s-46.333 -60 -79 -84l-43 39c3.33301 4 10.833 11.833 22.5 23.5s22.167 24.167 31.5 37.5c-15.333 1.33301 -27.833 7 -37.5 17s-14.5 22.333 -14.5 37
c0 24.667 7.66699 44.667 23 60s35.333 23 60 23c19.333 0 35.333 -6 48 -18z" />
    <glyph glyph-name="Lcaron" unicode="&#x13d;" horiz-adv-x="565" 
d="M147 700h144l-103 -585h330l-20 -115h-474zM574 692.5c12.667 -11.667 19 -26.835 19 -45.502c0 -27.333 -10.167 -57.166 -30.5 -89.499s-46.5 -60.166 -78.5 -83.499l-43 38c3.33301 4 10.833 11.833 22.5 23.5s22.167 24.167 31.5 37.5c-15.333 2 -27.833 8 -37.5 18
s-14.5 22.333 -14.5 37c0 24.667 7.66699 44.5 23 59.5s35.333 22.5 60 22.5c19.333 0 35.333 -5.83301 48 -17.5z" />
    <glyph glyph-name="lcaron" unicode="&#x13e;" horiz-adv-x="388" 
d="M59 15.5c-18.667 17 -28 41.5 -28 73.5c0 10.667 1 22 3 34l110 619h127l-110 -620c-0.666992 -2.66699 -1 -6.66699 -1 -12c0 -20.667 13.333 -31 40 -31c14.667 0 34.334 4.33301 59.001 13l7 -68c-34 -22.667 -75.333 -34 -124 -34
c-36.667 0 -64.334 8.5 -83.001 25.5zM460 726.5c12.667 -11.667 19 -26.835 19 -45.502c0 -27.333 -10.167 -57.166 -30.5 -89.499s-46.5 -60.166 -78.5 -83.499l-43 38c3.33301 4 10.833 11.833 22.5 23.5s22.167 24.167 31.5 37.5c-15.333 2 -27.833 8 -37.5 18
s-14.5 22.333 -14.5 37c0 24.667 7.66699 44.5 23 59.5s35.333 22.5 60 22.5c19.333 0 35.333 -5.83301 48 -17.5z" />
    <glyph glyph-name="Ldot" unicode="&#x13f;" horiz-adv-x="565" 
d="M147 700h144l-103 -585h330l-20 -115h-474zM315 280c-13.333 12.667 -20 29 -20 49c0 30 9.5 54.667 28.5 74s43.167 29 72.5 29c20.667 0 37.667 -6.33301 51 -19s20 -29 20 -49c0 -30 -9.33301 -54.667 -28 -74s-43 -29 -73 -29c-20.667 0 -37.667 6.33301 -51 19z" />
    <glyph glyph-name="ldot" unicode="&#x140;" horiz-adv-x="410" 
d="M59 15.5c-18.667 17 -28 41.5 -28 73.5c0 10.667 1 22 3 34l110 619h127l-110 -620c-0.666992 -2.66699 -1 -6.66699 -1 -12c0 -20.667 13.333 -31 40 -31c14.667 0 34.334 4.33301 59.001 13l7 -68c-34 -22.667 -75.333 -34 -124 -34
c-36.667 0 -64.334 8.5 -83.001 25.5zM254 271c-13.333 12.667 -20 29 -20 49c0 30 9.5 54.667 28.5 74s43.167 29 72.5 29c20.667 0 37.667 -6.33301 51 -19s20 -29 20 -49c0 -30 -9.33301 -54.667 -28 -74s-43 -29 -73 -29c-20.667 0 -37.667 6.33301 -51 19z" />
    <glyph glyph-name="Lslash" unicode="&#x141;" horiz-adv-x="565" 
d="M518 115l-20 -115h-474l45 256l-70 -27l20 112l70 27l58 332h144l-48 -271l167 65l-21 -116l-166 -63l-35 -200h330z" />
    <glyph glyph-name="lslash" unicode="&#x142;" horiz-adv-x="326" 
d="M170 122c-0.666992 -2.66699 -1 -6.66699 -1 -12c0 -20.667 13.333 -31 40 -31c14.667 0 34.334 4.33301 59.001 13l7 -68c-34 -22.667 -75.333 -34 -124 -34c-36.667 0 -64.334 8.5 -83.001 25.5s-28 41.5 -28 73.5c0 10.667 1 22 3 34l32 179l-51 -20l17 93l50 20
l62 347h127l-52 -294l100 39l-16 -91l-100 -40z" />
    <glyph glyph-name="Nacute" unicode="&#x143;" horiz-adv-x="699" 
d="M710 700l-123 -700h-133l-205 465l-82 -465h-143l123 700h139l200 -457l81 457h143zM501 917h124l-136 -162h-102z" />
    <glyph glyph-name="nacute" unicode="&#x144;" horiz-adv-x="563" 
d="M69 368l3.99707 24.999c8.66699 52.667 13.334 88.334 14.001 107.001h120c-1.33301 -28.667 -4.66602 -57.667 -9.99902 -87h2c18 30.667 42.333 54.5 73 71.5s65.334 25.5 104.001 25.5c48.667 0 85.334 -13.5 110.001 -40.5s37 -66.167 37 -117.5
c0 -23.333 -2.33301 -47 -7 -71l-50 -281h-127l50 282c2.66699 14 4 28.667 4 44c0 54 -24.667 81 -74 81c-35.333 0 -65.833 -12.167 -91.5 -36.5s-41.834 -56.833 -48.501 -97.5l-48 -273h-128zM395.997 716.999h124l-136 -162h-102z" />
    <glyph glyph-name="uni0145" unicode="&#x145;" horiz-adv-x="699" 
d="M710 700l-123 -700h-133l-205 465l-82 -465h-143l123 700h139l200 -457l81 457h143zM339 -90c12.667 -12 19 -27.333 19 -46c0 -27.333 -10 -57 -30 -89s-46.333 -60 -79 -84l-43 39c3.33301 4 10.833 11.833 22.5 23.5s22.167 24.167 31.5 37.5
c-15.333 1.33301 -27.833 7 -37.5 17s-14.5 22.333 -14.5 37c0 24.667 7.66699 44.667 23 60s35.333 23 60 23c19.333 0 35.333 -6 48 -18z" />
    <glyph glyph-name="uni0146" unicode="&#x146;" horiz-adv-x="563" 
d="M69 368l3.99707 24.999c8.66699 52.667 13.334 88.334 14.001 107.001h120c-1.33301 -28.667 -4.66602 -57.667 -9.99902 -87h2c18 30.667 42.333 54.5 73 71.5s65.334 25.5 104.001 25.5c48.667 0 85.334 -13.5 110.001 -40.5s37 -66.167 37 -117.5
c0 -23.333 -2.33301 -47 -7 -71l-50 -281h-127l50 282c2.66699 14 4 28.667 4 44c0 54 -24.667 81 -74 81c-35.333 0 -65.833 -12.167 -91.5 -36.5s-41.834 -56.833 -48.501 -97.5l-48 -273h-128zM268.997 -90.001c12.667 -12 19 -27.333 19 -46c0 -27.333 -10 -57 -30 -89
s-46.333 -60 -79 -84l-43 39c3.33301 4 10.833 11.833 22.5 23.5s22.167 24.167 31.5 37.5c-15.333 1.33301 -27.833 7 -37.5 17s-14.5 22.333 -14.5 37c0 24.667 7.66699 44.667 23 60s35.333 23 60 23c19.333 0 35.333 -6 48 -18z" />
    <glyph glyph-name="Ncaron" unicode="&#x147;" horiz-adv-x="699" 
d="M710 700l-123 -700h-133l-205 465l-82 -465h-143l123 700h139l200 -457l81 457h143zM296 917h108l45 -78l74 78h115l-163 -162h-73z" />
    <glyph glyph-name="ncaron" unicode="&#x148;" horiz-adv-x="563" 
d="M69 368l3.99707 24.999c8.66699 52.667 13.334 88.334 14.001 107.001h120c-1.33301 -28.667 -4.66602 -57.667 -9.99902 -87h2c18 30.667 42.333 54.5 73 71.5s65.334 25.5 104.001 25.5c48.667 0 85.334 -13.5 110.001 -40.5s37 -66.167 37 -117.5
c0 -23.333 -2.33301 -47 -7 -71l-50 -281h-127l50 282c2.66699 14 4 28.667 4 44c0 54 -24.667 81 -74 81c-35.333 0 -65.833 -12.167 -91.5 -36.5s-41.834 -56.833 -48.501 -97.5l-48 -273h-128zM190.997 716.999h108l45 -78l74 78h115l-163 -162h-73z" />
    <glyph glyph-name="napostrophe" unicode="&#x149;" horiz-adv-x="683" 
d="M211 692.5c12.667 -11.667 19 -26.835 19 -45.502c0 -27.333 -10.167 -57.166 -30.5 -89.499s-46.5 -60.166 -78.5 -83.499l-43 38c3.33301 4 10.833 11.833 22.5 23.5s22.167 24.167 31.5 37.5c-15.333 2 -27.833 8 -37.5 18s-14.5 22.333 -14.5 37
c0 24.667 7.66699 44.5 23 59.5s35.333 22.5 60 22.5c19.333 0 35.333 -5.83301 48 -17.5zM189 367.999l3.99707 24.999c8.66699 52.667 13.334 88.334 14.001 107.001h120c-1.33301 -28.667 -4.66602 -57.667 -9.99902 -87h2c18 30.667 42.333 54.5 73 71.5
s65.334 25.5 104.001 25.5c48.667 0 85.334 -13.5 110.001 -40.5s37 -66.167 37 -117.5c0 -23.333 -2.33301 -47 -7 -71l-50 -281h-127l50 282c2.66699 14 4 28.667 4 44c0 54 -24.667 81 -74 81c-35.333 0 -65.833 -12.167 -91.5 -36.5s-41.834 -56.833 -48.501 -97.5
l-48 -273h-128z" />
    <glyph glyph-name="Eng" unicode="&#x14a;" horiz-adv-x="699" 
d="M147 700l139.001 -0.000976562l200 -458l81 458h143l-134 -765c-11.333 -67.333 -37.5 -118.666 -78.5 -153.999s-94.5 -53 -160.5 -53c-30.667 0 -58.334 4.33301 -83.001 13s-45 21 -61 37l61 89c31.333 -24 61 -36 89 -36c48 0 78.333 35 91 105l14 79l-199 451
l-82 -466h-143z" />
    <glyph glyph-name="eng" unicode="&#x14b;" horiz-adv-x="564" 
d="M69 368l3.99707 25c8.66699 52.667 13.334 88.334 14.001 107.001h120c-1.33301 -28.667 -4.66602 -57.667 -9.99902 -87h2c18 30.667 42.333 54.5 73 71.5s65.334 25.5 104.001 25.5c48.667 0 85.334 -13.5 110.001 -40.5s37 -66.167 37 -117.5
c0 -23.333 -2.33301 -47 -7 -71l-53 -306c-20.667 -120 -89.334 -180 -206.001 -180c-35.333 0 -66.666 4 -93.999 12l22 89c21.333 -2 42.333 -3 63 -3c24 0 42.833 6.66699 56.5 20s23.167 33.666 28.5 60.999l56 308c2.66699 14 4 28.667 4 44c0 54 -24.667 81 -74 81
c-35.333 0 -65.833 -12.167 -91.5 -36.5s-41.834 -56.833 -48.501 -97.5l-48 -273h-128z" />
    <glyph glyph-name="Omacron" unicode="&#x14c;" horiz-adv-x="690" 
d="M170 24.5c-41.333 23 -73.333 55.167 -96 96.5s-34 89 -34 143c0 86 15.833 162.833 47.5 230.5s75.834 120.5 132.501 158.5s121 57 193 57c54 0 101.667 -11.5 143 -34.5s73.333 -55.167 96 -96.5s34 -89 34 -143c0 -86 -15.833 -162.833 -47.5 -230.5
s-75.834 -120.5 -132.501 -158.5s-121 -57 -193 -57c-54 0 -101.667 11.5 -143 34.5zM435.5 145c33 27.333 58.833 65.501 77.5 114.501s28 104.5 28 166.5c0 50.667 -12.667 91.667 -38 123s-58.333 47 -99 47c-42 0 -79.5 -13.667 -112.5 -41s-58.833 -65.333 -77.5 -114
s-28 -104 -28 -166c0 -50.667 12.667 -91.834 38 -123.501s58.333 -47.5 99 -47.5c42 0 79.5 13.667 112.5 41zM270 855.001h342l-14 -83h-343z" />
    <glyph glyph-name="omacron" unicode="&#x14d;" horiz-adv-x="579" 
d="M86.5 45c-40.333 36.667 -60.5 86.334 -60.5 149.001c0 62 12.667 117 38 165s60.833 85.167 106.5 111.5s98.5 39.5 158.5 39.5c68.667 0 123.167 -18.333 163.5 -55s60.5 -86.334 60.5 -149.001c0 -62 -12.667 -117 -38 -165s-61 -85.167 -107 -111.5
s-98.667 -39.5 -158 -39.5c-68.667 0 -123.167 18.333 -163.5 55zM345 112c24.667 18 44.001 43 58.001 75s21 68 21 108c0 37.333 -9.5 66.666 -28.5 87.999s-45.5 32 -79.5 32c-30.667 0 -58.334 -9 -83.001 -27s-44 -43 -58 -75s-21 -68 -21 -108
c0 -37.333 9.66699 -66.666 29 -87.999s45.666 -32 78.999 -32c30.667 0 58.334 9 83.001 27zM189.001 655h342l-14 -83h-343z" />
    <glyph glyph-name="Obreve" unicode="&#x14e;" horiz-adv-x="690" 
d="M170 24.5c-41.333 23 -73.333 55.167 -96 96.5s-34 89 -34 143c0 86 15.833 162.833 47.5 230.5s75.834 120.5 132.501 158.5s121 57 193 57c54 0 101.667 -11.5 143 -34.5s73.333 -55.167 96 -96.5s34 -89 34 -143c0 -86 -15.833 -162.833 -47.5 -230.5
s-75.834 -120.5 -132.501 -158.5s-121 -57 -193 -57c-54 0 -101.667 11.5 -143 34.5zM435.5 145c33 27.333 58.833 65.501 77.5 114.501s28 104.5 28 166.5c0 50.667 -12.667 91.667 -38 123s-58.333 47 -99 47c-42 0 -79.5 -13.667 -112.5 -41s-58.833 -65.333 -77.5 -114
s-28 -104 -28 -166c0 -50.667 12.667 -91.834 38 -123.501s58.333 -47.5 99 -47.5c42 0 79.5 13.667 112.5 41zM323.5 786.501c-25.667 21 -38.501 50.498 -38.501 88.498c0 10.667 1 21.334 3 32.001h83c-0.666992 -3.33301 -1 -8.33301 -1 -15c0 -18 5.66699 -32 17 -42
s27.333 -15 48 -15c24 0 43.833 6.33301 59.5 19s25.834 30.334 30.501 53.001h88c-8.66699 -49.333 -28.5 -87 -59.5 -113s-71.833 -39 -122.5 -39c-46 0 -81.833 10.5 -107.5 31.5z" />
    <glyph glyph-name="obreve" unicode="&#x14f;" horiz-adv-x="579" 
d="M86.5 45c-40.333 36.667 -60.5 86.334 -60.5 149.001c0 62 12.667 117 38 165s60.833 85.167 106.5 111.5s98.5 39.5 158.5 39.5c68.667 0 123.167 -18.333 163.5 -55s60.5 -86.334 60.5 -149.001c0 -62 -12.667 -117 -38 -165s-61 -85.167 -107 -111.5
s-98.667 -39.5 -158 -39.5c-68.667 0 -123.167 18.333 -163.5 55zM345 112c24.667 18 44.001 43 58.001 75s21 68 21 108c0 37.333 -9.5 66.666 -28.5 87.999s-45.5 32 -79.5 32c-30.667 0 -58.334 -9 -83.001 -27s-44 -43 -58 -75s-21 -68 -21 -108
c0 -37.333 9.66699 -66.666 29 -87.999s45.666 -32 78.999 -32c30.667 0 58.334 9 83.001 27zM242.501 586.5c-25.667 21 -38.501 50.498 -38.501 88.498c0 10.667 1 21.334 3 32.001h83c-0.666992 -3.33301 -1 -8.33301 -1 -15c0 -18 5.66699 -32 17 -42s27.333 -15 48 -15
c24 0 43.833 6.33301 59.5 19s25.834 30.334 30.501 53.001h88c-8.66699 -49.333 -28.5 -87 -59.5 -113s-71.833 -39 -122.5 -39c-46 0 -81.833 10.5 -107.5 31.5z" />
    <glyph glyph-name="Ohungarumlaut" unicode="&#x150;" horiz-adv-x="690" 
d="M170 24.5c-41.333 23 -73.333 55.167 -96 96.5s-34 89 -34 143c0 86 15.833 162.833 47.5 230.5s75.834 120.5 132.501 158.5s121 57 193 57c54 0 101.667 -11.5 143 -34.5s73.333 -55.167 96 -96.5s34 -89 34 -143c0 -86 -15.833 -162.833 -47.5 -230.5
s-75.834 -120.5 -132.501 -158.5s-121 -57 -193 -57c-54 0 -101.667 11.5 -143 34.5zM435.5 145c33 27.333 58.833 65.501 77.5 114.501s28 104.5 28 166.5c0 50.667 -12.667 91.667 -38 123s-58.333 47 -99 47c-42 0 -79.5 -13.667 -112.5 -41s-58.833 -65.333 -77.5 -114
s-28 -104 -28 -166c0 -50.667 12.667 -91.834 38 -123.501s58.333 -47.5 99 -47.5c42 0 79.5 13.667 112.5 41zM381 917.001h124l-136 -162h-102zM556 917.001h124l-136 -162h-102z" />
    <glyph glyph-name="ohungarumlaut" unicode="&#x151;" horiz-adv-x="579" 
d="M303 704h116l-127 -153h-96zM467 704h116l-127 -153h-96zM86.5 45c-40.333 36.667 -60.5 86.334 -60.5 149.001c0 62 12.667 117 38 165s60.833 85.167 106.5 111.5s98.5 39.5 158.5 39.5c68.667 0 123.167 -18.333 163.5 -55s60.5 -86.334 60.5 -149.001
c0 -62 -12.667 -117 -38 -165s-61 -85.167 -107 -111.5s-98.667 -39.5 -158 -39.5c-68.667 0 -123.167 18.333 -163.5 55zM345 112c24.667 18 44.001 43 58.001 75s21 68 21 108c0 37.333 -9.5 66.666 -28.5 87.999s-45.5 32 -79.5 32c-30.667 0 -58.334 -9 -83.001 -27
s-44 -43 -58 -75s-21 -68 -21 -108c0 -37.333 9.66699 -66.666 29 -87.999s45.666 -32 78.999 -32c30.667 0 58.334 9 83.001 27z" />
    <glyph glyph-name="OE" unicode="&#x152;" horiz-adv-x="887" 
d="M640 585l-29.001 -164.999h236l-18 -104h-236l-35 -201h268l-21 -115h-411l6 34c-44 -28.667 -91.333 -43 -142 -43c-70 0 -124.167 21.667 -162.5 65s-57.5 104.666 -57.5 183.999c0 90.667 14.167 171.667 42.5 243s67.833 126.833 118.5 166.5
s108.334 59.5 173.001 59.5c54.667 0 101 -16 139 -48l7 39h411l-21 -115h-268zM382.999 164.001c31.333 40 54.002 92 68.002 156l8 49c4 27.333 6 55.666 6 84.999c0 46.667 -8.33301 82 -25 106s-41.334 36 -74.001 36c-34 0 -65.167 -15.833 -93.5 -47.5
s-50.666 -74.667 -66.999 -129s-24.5 -114.166 -24.5 -179.499c0 -45.333 8.16699 -79.333 24.5 -102s41.166 -34 74.499 -34c37.333 0 71.666 20 102.999 60z" />
    <glyph glyph-name="oe" unicode="&#x153;" horiz-adv-x="866" 
d="M791.5 461.5c33.667 -32.333 50.502 -78.501 50.502 -138.501c0 -20 -2 -41.667 -6 -65l-7 -44h-336v-15c0 -68 32.667 -102 98 -102c27.333 0 52 5 74 15s45.667 26.667 71 50l57 -66c-24 -32.667 -55.833 -58.5 -95.5 -77.5s-81.834 -28.5 -126.501 -28.5
c-34.667 0 -66.167 6.5 -94.5 19.5s-51.5 31.5 -69.5 55.5c-46.667 -50 -106.667 -75 -180 -75c-64 0 -113.667 16.833 -149 50.5s-53 80.834 -53 141.501c0 66.667 11.333 124.667 34 174s55.167 87.333 97.5 114s92.166 40 149.499 40c76.667 0 130 -23.333 160 -70
c24.667 22.667 52.667 40 84 52s64.333 18 99 18c61.333 0 108.833 -16.167 142.5 -48.5zM320.502 128.999c23.667 29.333 39.833 67.667 48.5 115l3 19c2 17.333 3 34.333 3 51c0 67.333 -26.667 101 -80 101c-26.667 0 -51 -9.83301 -73 -29.5s-39.167 -46.5 -51.5 -80.5
s-18.5 -72.333 -18.5 -115c0 -34 7.33301 -60 22 -78s36 -27 64 -27c31.333 0 58.833 14.667 82.5 44zM725.001 304c0 68 -30.002 102 -90.002 102c-27.333 0 -52.166 -9.66699 -74.499 -29s-39.166 -45.333 -50.499 -78h215v5z" />
    <glyph glyph-name="Racute" unicode="&#x154;" horiz-adv-x="596" 
d="M147 700l237.999 -0.000976562c70 0 123.667 -14.333 161 -43s56 -69.667 56 -123c0 -110 -50.333 -182.667 -151 -218v-2c10.667 -8.66699 18.667 -17.167 24 -25.5s9.33301 -18.166 12 -29.499l58 -259h-153l-42 213c-4.66699 21.333 -12.667 35.5 -24 42.5
s-32.666 10.5 -63.999 10.5h-47l-47 -266h-144zM322.999 379.999c40.667 0 73.167 12.168 97.5 36.501s36.5 56.166 36.5 95.499c0 48.667 -33.333 73 -100 73h-86l-36 -205h88zM450.999 917h124l-136 -162h-102z" />
    <glyph glyph-name="racute" unicode="&#x155;" horiz-adv-x="397" 
d="M77 378c10 58 16.002 98.668 18.002 122.001h121c-0.666992 -30 -4.33398 -59.333 -11.001 -88l-2 -10h4c18.667 33.333 45.5 59.666 80.5 78.999s73.5 29 115.5 29c8 0 17.667 -1 29 -3l-17 -101c-2.66699 1.33301 -10.667 2 -24 2c-32 0 -63.333 -8.66699 -94 -26
s-56.834 -40.5 -78.501 -69.5s-35.5 -60.167 -41.5 -93.5l-39 -219h-128zM316.002 717.001h124l-136 -162h-102z" />
    <glyph glyph-name="uni0156" unicode="&#x156;" horiz-adv-x="596" 
d="M147 700l237.999 -0.000976562c70 0 123.667 -14.333 161 -43s56 -69.667 56 -123c0 -110 -50.333 -182.667 -151 -218v-2c10.667 -8.66699 18.667 -17.167 24 -25.5s9.33301 -18.166 12 -29.499l58 -259h-153l-42 213c-4.66699 21.333 -12.667 35.5 -24 42.5
s-32.666 10.5 -63.999 10.5h-47l-47 -266h-144zM322.999 379.999c40.667 0 73.167 12.168 97.5 36.501s36.5 56.166 36.5 95.499c0 48.667 -33.333 73 -100 73h-86l-36 -205h88zM288.999 -90c12.667 -12 19 -27.333 19 -46c0 -27.333 -10 -57 -30 -89s-46.333 -60 -79 -84
l-43 39c3.33301 4 10.833 11.833 22.5 23.5s22.167 24.167 31.5 37.5c-15.333 1.33301 -27.833 7 -37.5 17s-14.5 22.333 -14.5 37c0 24.667 7.66699 44.667 23 60s35.333 23 60 23c19.333 0 35.333 -6 48 -18z" />
    <glyph glyph-name="uni0157" unicode="&#x157;" horiz-adv-x="397" 
d="M77 378c10 58 16.002 98.668 18.002 122.001h121c-0.666992 -30 -4.33398 -59.333 -11.001 -88l-2 -10h4c18.667 33.333 45.5 59.666 80.5 78.999s73.5 29 115.5 29c8 0 17.667 -1 29 -3l-17 -101c-2.66699 1.33301 -10.667 2 -24 2c-32 0 -63.333 -8.66699 -94 -26
s-56.834 -40.5 -78.501 -69.5s-35.5 -60.167 -41.5 -93.5l-39 -219h-128zM111.002 -89.999c12.667 -12 19 -27.333 19 -46c0 -27.333 -10 -57 -30 -89s-46.333 -60 -79 -84l-43 39c3.33301 4 10.833 11.833 22.5 23.5s22.167 24.167 31.5 37.5
c-15.333 1.33301 -27.833 7 -37.5 17s-14.5 22.333 -14.5 37c0 24.667 7.66699 44.667 23 60s35.333 23 60 23c19.333 0 35.333 -6 48 -18z" />
    <glyph glyph-name="Rcaron" unicode="&#x158;" horiz-adv-x="596" 
d="M147 700l237.999 -0.000976562c70 0 123.667 -14.333 161 -43s56 -69.667 56 -123c0 -110 -50.333 -182.667 -151 -218v-2c10.667 -8.66699 18.667 -17.167 24 -25.5s9.33301 -18.166 12 -29.499l58 -259h-153l-42 213c-4.66699 21.333 -12.667 35.5 -24 42.5
s-32.666 10.5 -63.999 10.5h-47l-47 -266h-144zM322.999 379.999c40.667 0 73.167 12.168 97.5 36.501s36.5 56.166 36.5 95.499c0 48.667 -33.333 73 -100 73h-86l-36 -205h88zM244.999 917h108l45 -78l74 78h115l-163 -162h-73z" />
    <glyph glyph-name="rcaron" unicode="&#x159;" horiz-adv-x="397" 
d="M77 378c10 58 16.002 98.668 18.002 122.001h121c-0.666992 -30 -4.33398 -59.333 -11.001 -88l-2 -10h4c18.667 33.333 45.5 59.666 80.5 78.999s73.5 29 115.5 29c8 0 17.667 -1 29 -3l-17 -101c-2.66699 1.33301 -10.667 2 -24 2c-32 0 -63.333 -8.66699 -94 -26
s-56.834 -40.5 -78.501 -69.5s-35.5 -60.167 -41.5 -93.5l-39 -219h-128zM110.002 717.001h108l45 -78l74 78h115l-163 -162h-73z" />
    <glyph glyph-name="Sacute" unicode="&#x15a;" horiz-adv-x="549" 
d="M96 23c-41.333 22 -72.334 52.334 -93.001 91.001l98 80c16.667 -26.667 38.667 -48.167 66 -64.5s55 -24.5 83 -24.5c36.667 0 65.834 8.33301 87.501 25s32.5 39 32.5 67c0 16.667 -7.5 32.334 -22.5 47.001s-42.833 33 -83.5 55
c-58 31.333 -100.167 63.166 -126.5 95.499s-39.5 67.833 -39.5 106.5c0 41.333 10.833 77.833 32.5 109.5s52.334 56.167 92.001 73.5s85.5 26 137.5 26c48.667 0 91.5 -9.83301 128.5 -29.5s63.5 -46.167 79.5 -79.5l-103 -68c-26 41.333 -63.333 62 -112 62
c-33.333 0 -59.833 -7.16699 -79.5 -21.5s-29.5 -33.5 -29.5 -57.5c0 -16 9.5 -31.833 28.5 -47.5s54.167 -36.5 105.5 -62.5c48 -24.667 83 -51.834 105 -81.501s33 -64.5 33 -104.5c0 -71.333 -24.833 -127.5 -74.5 -168.5s-117.834 -61.5 -204.501 -61.5
c-52.667 0 -99.667 11 -141 33zM428.999 917.001h124l-136 -162h-102z" />
    <glyph glyph-name="sacute" unicode="&#x15b;" horiz-adv-x="441" 
d="M60.5 16.5c-33 17.667 -53.832 40.5029 -62.499 68.5029l90 55c8.66699 -16.667 21.334 -30 38.001 -40s35 -15 55 -15c26.667 0 48.167 5.5 64.5 16.5s24.5 25.833 24.5 44.5c0 12.667 -5.66699 24.167 -17 34.5s-30 20.833 -56 31.5c-48 20 -83.167 41.667 -105.5 65
s-33.5 49.666 -33.5 78.999c0 47.333 18 84.833 54 112.5s85 41.5 147 41.5c39.333 0 74.166 -7.33301 104.499 -22s51.833 -35 64.5 -61l-83 -55c-18.667 28.667 -48 43 -88 43c-22 0 -39.333 -4.33301 -52 -13s-19 -20.334 -19 -35.001c0 -10.667 5.66699 -20 17 -28
s34.666 -19.333 69.999 -34c44 -18.667 76.167 -38.834 96.5 -60.501s30.5 -46.167 30.5 -73.5c0 -35.333 -9.5 -66.833 -28.5 -94.5s-45.5 -49 -79.5 -64s-73 -22.5 -117 -22.5c-43.333 0 -81.5 8.83301 -114.5 26.5zM339.001 717.003h124l-136 -162h-102z" />
    <glyph glyph-name="Scircumflex" unicode="&#x15c;" horiz-adv-x="549" 
d="M96 23c-41.333 22 -72.334 52.334 -93.001 91.001l98 80c16.667 -26.667 38.667 -48.167 66 -64.5s55 -24.5 83 -24.5c36.667 0 65.834 8.33301 87.501 25s32.5 39 32.5 67c0 16.667 -7.5 32.334 -22.5 47.001s-42.833 33 -83.5 55
c-58 31.333 -100.167 63.166 -126.5 95.499s-39.5 67.833 -39.5 106.5c0 41.333 10.833 77.833 32.5 109.5s52.334 56.167 92.001 73.5s85.5 26 137.5 26c48.667 0 91.5 -9.83301 128.5 -29.5s63.5 -46.167 79.5 -79.5l-103 -68c-26 41.333 -63.333 62 -112 62
c-33.333 0 -59.833 -7.16699 -79.5 -21.5s-29.5 -33.5 -29.5 -57.5c0 -16 9.5 -31.833 28.5 -47.5s54.167 -36.5 105.5 -62.5c48 -24.667 83 -51.834 105 -81.501s33 -64.5 33 -104.5c0 -71.333 -24.833 -127.5 -74.5 -168.5s-117.834 -61.5 -204.501 -61.5
c-52.667 0 -99.667 11 -141 33zM357.999 917.001h73l106 -162h-106l-46 78l-73 -78h-117z" />
    <glyph glyph-name="scircumflex" unicode="&#x15d;" horiz-adv-x="441" 
d="M60.5 16.5c-33 17.667 -53.832 40.5029 -62.499 68.5029l90 55c8.66699 -16.667 21.334 -30 38.001 -40s35 -15 55 -15c26.667 0 48.167 5.5 64.5 16.5s24.5 25.833 24.5 44.5c0 12.667 -5.66699 24.167 -17 34.5s-30 20.833 -56 31.5c-48 20 -83.167 41.667 -105.5 65
s-33.5 49.666 -33.5 78.999c0 47.333 18 84.833 54 112.5s85 41.5 147 41.5c39.333 0 74.166 -7.33301 104.499 -22s51.833 -35 64.5 -61l-83 -55c-18.667 28.667 -48 43 -88 43c-22 0 -39.333 -4.33301 -52 -13s-19 -20.334 -19 -35.001c0 -10.667 5.66699 -20 17 -28
s34.666 -19.333 69.999 -34c44 -18.667 76.167 -38.834 96.5 -60.501s30.5 -46.167 30.5 -73.5c0 -35.333 -9.5 -66.833 -28.5 -94.5s-45.5 -49 -79.5 -64s-73 -22.5 -117 -22.5c-43.333 0 -81.5 8.83301 -114.5 26.5zM268.001 717.003h73l106 -162h-106l-46 78l-73 -78
h-117z" />
    <glyph glyph-name="Scedilla" unicode="&#x15e;" horiz-adv-x="549" 
d="M483 324.5c22 -29.667 32.9961 -64.499 32.9961 -104.499c0 -66.667 -21.667 -120.167 -65 -160.5s-103.333 -63.166 -180 -68.499l-43 -57c24.667 0 44.334 -6 59.001 -18s22 -27.667 22 -47c0 -31.333 -13 -57.666 -39 -78.999s-58.333 -32 -97 -32
c-16.667 0 -33.5 2 -50.5 6s-30.167 9 -39.5 15l23 55c18.667 -8 40 -12 64 -12c14 0 25.5 3.5 34.5 10.5s13.5 15.833 13.5 26.5c0 9.33301 -5.5 16.166 -16.5 20.499s-25.833 6.16602 -44.5 5.49902l-23 33l55 75c-42 6 -79.167 19.5 -111.5 40.5
s-57.166 47.833 -74.499 80.5l98 80c16.667 -26.667 38.667 -48.167 66 -64.5s55 -24.5 83 -24.5c36.667 0 65.834 8.33301 87.501 25s32.5 39 32.5 67c0 16.667 -7.5 32.334 -22.5 47.001s-42.833 33 -83.5 55c-58 31.333 -100.167 63.166 -126.5 95.499
s-39.5 67.833 -39.5 106.5c0 41.333 10.833 77.833 32.5 109.5s52.334 56.167 92.001 73.5s85.5 26 137.5 26c48.667 0 91.5 -9.83301 128.5 -29.5s63.5 -46.167 79.5 -79.5l-103 -68c-26 41.333 -63.333 62 -112 62c-33.333 0 -59.833 -7.16699 -79.5 -21.5
s-29.5 -33.5 -29.5 -57.5c0 -16 9.5 -31.833 28.5 -47.5s54.167 -36.5 105.5 -62.5c48 -24.667 83 -51.834 105 -81.501z" />
    <glyph glyph-name="scedilla" unicode="&#x15f;" horiz-adv-x="441" 
d="M369.5 244.5c20.333 -21.667 30.501 -46.1631 30.501 -73.4961c0 -48 -16.5 -88 -49.5 -120s-77.5 -51.667 -133.5 -59l-44 -58c24.667 0 44.334 -6 59.001 -18s22 -27.667 22 -47c0 -31.333 -13 -57.666 -39 -78.999s-58.333 -32 -97 -32c-16.667 0 -33.667 2 -51 6
s-30.666 9 -39.999 15l24 55c18.667 -8 40 -12 64 -12c14 0 25.5 3.5 34.5 10.5s13.5 15.833 13.5 26.5c0 8.66699 -5.5 15.5 -16.5 20.5s-25.833 6.83301 -44.5 5.5l-24 33l56 75c-34.667 5.33301 -64.334 16.166 -89.001 32.499s-40.334 36.166 -47.001 59.499l90 55
c8.66699 -16.667 21.334 -30 38.001 -40s35 -15 55 -15c26.667 0 48.167 5.5 64.5 16.5s24.5 25.833 24.5 44.5c0 12.667 -5.66699 24.167 -17 34.5s-30 20.833 -56 31.5c-48 20 -83.167 41.667 -105.5 65s-33.5 49.666 -33.5 78.999c0 47.333 18 84.833 54 112.5
s85 41.5 147 41.5c39.333 0 74.166 -7.33301 104.499 -22s51.833 -35 64.5 -61l-83 -55c-18.667 28.667 -48 43 -88 43c-22 0 -39.333 -4.33301 -52 -13s-19 -20.334 -19 -35.001c0 -10.667 5.66699 -20 17 -28s34.666 -19.333 69.999 -34
c44 -18.667 76.167 -38.834 96.5 -60.501z" />
    <glyph glyph-name="Scaron" unicode="&#x160;" horiz-adv-x="549" 
d="M96 23c-41.333 22 -72.334 52.334 -93.001 91.001l98 80c16.667 -26.667 38.667 -48.167 66 -64.5s55 -24.5 83 -24.5c36.667 0 65.834 8.33301 87.501 25s32.5 39 32.5 67c0 16.667 -7.5 32.334 -22.5 47.001s-42.833 33 -83.5 55
c-58 31.333 -100.167 63.166 -126.5 95.499s-39.5 67.833 -39.5 106.5c0 41.333 10.833 77.833 32.5 109.5s52.334 56.167 92.001 73.5s85.5 26 137.5 26c48.667 0 91.5 -9.83301 128.5 -29.5s63.5 -46.167 79.5 -79.5l-103 -68c-26 41.333 -63.333 62 -112 62
c-33.333 0 -59.833 -7.16699 -79.5 -21.5s-29.5 -33.5 -29.5 -57.5c0 -16 9.5 -31.833 28.5 -47.5s54.167 -36.5 105.5 -62.5c48 -24.667 83 -51.834 105 -81.501s33 -64.5 33 -104.5c0 -71.333 -24.833 -127.5 -74.5 -168.5s-117.834 -61.5 -204.501 -61.5
c-52.667 0 -99.667 11 -141 33zM222.999 917.001h108l45 -78l74 78h115l-163 -162h-73z" />
    <glyph glyph-name="scaron" unicode="&#x161;" horiz-adv-x="441" 
d="M60.5 16.5c-33 17.667 -53.832 40.5029 -62.499 68.5029l90 55c8.66699 -16.667 21.334 -30 38.001 -40s35 -15 55 -15c26.667 0 48.167 5.5 64.5 16.5s24.5 25.833 24.5 44.5c0 12.667 -5.66699 24.167 -17 34.5s-30 20.833 -56 31.5c-48 20 -83.167 41.667 -105.5 65
s-33.5 49.666 -33.5 78.999c0 47.333 18 84.833 54 112.5s85 41.5 147 41.5c39.333 0 74.166 -7.33301 104.499 -22s51.833 -35 64.5 -61l-83 -55c-18.667 28.667 -48 43 -88 43c-22 0 -39.333 -4.33301 -52 -13s-19 -20.334 -19 -35.001c0 -10.667 5.66699 -20 17 -28
s34.666 -19.333 69.999 -34c44 -18.667 76.167 -38.834 96.5 -60.501s30.5 -46.167 30.5 -73.5c0 -35.333 -9.5 -66.833 -28.5 -94.5s-45.5 -49 -79.5 -64s-73 -22.5 -117 -22.5c-43.333 0 -81.5 8.83301 -114.5 26.5zM133.001 717.003h108l45 -78l74 78h115l-163 -162h-73z
" />
    <glyph glyph-name="uni0162" unicode="&#x162;" horiz-adv-x="590" 
d="M655 700l-19.002 -106.001h-208l-105 -594h-28l-49 -66c24.667 0 44.334 -6 59.001 -18s22 -27.667 22 -47c0 -31.333 -13 -57.666 -39 -78.999s-58.333 -32 -97 -32c-16.667 0 -33.667 2 -51 6s-30.666 9 -39.999 15l24 55c18.667 -8 40 -12 64 -12
c14 0 25.5 3.5 34.5 10.5s13.5 15.833 13.5 26.5c0 8.66699 -5.5 15.5 -16.5 20.5s-25.833 6.83301 -44.5 5.5l-24 33l61 82h-33l105 594h-208l19 106h560z" />
    <glyph glyph-name="uni0163" unicode="&#x163;" horiz-adv-x="420" 
d="M217 169c-1.33301 -12 -1.99902 -20.001 -1.99902 -24.001c0 -39.333 22.667 -59 68 -59c26 0 51 4 75 12l-9 -87c-26.667 -11.333 -58.334 -18 -95.001 -20l-42 -57c24.667 0 44.5 -6 59.5 -18s22.5 -27.667 22.5 -47c0 -31.333 -13.167 -57.666 -39.5 -78.999
s-58.833 -32 -97.5 -32c-16.667 0 -33.5 2 -50.5 6s-30.167 9 -39.5 15l23 55c18.667 -8 40 -12 64 -12c14 0 25.667 3.5 35 10.5s14 15.833 14 26.5c0 8.66699 -5.5 15.5 -16.5 20.5s-26.167 6.83301 -45.5 5.5l-23 33l57 78c-29.333 7.33301 -52 20.833 -68 40.5
s-24 45.167 -24 76.5c0 11.333 1 23.333 3 36l45 256h-91l17 95h91l22 129l130 36h4l-28 -165h145l-17 -95h-145z" />
    <glyph glyph-name="Tcaron" unicode="&#x164;" horiz-adv-x="590" 
d="M284 594h-208l19 106h560l-19 -106h-208l-105 -594h-144zM242 917h108l45 -78l74 78h115l-163 -162h-73z" />
    <glyph glyph-name="tcaron" unicode="&#x165;" horiz-adv-x="540" 
d="M120.5 22c-25 21.333 -37.5 51.667 -37.5 91c0 11.333 1 23.333 3 36l45 256h-91l17 95h91l22 129l130 36h4l-28 -165h145l-17 -95h-145l-42 -236c-1.33301 -12 -2 -20 -2 -24c0 -39.333 22.667 -59 68 -59c26 0 51 4 75 12l-9 -87c-32 -14 -73 -21 -123 -21
c-45.333 0 -80.5 10.667 -105.5 32zM587 731.501c12.667 -11.667 19 -26.835 19 -45.502c0 -27.333 -10.167 -57.166 -30.5 -89.499s-46.5 -60.166 -78.5 -83.499l-43 38c3.33301 4 10.833 11.833 22.5 23.5s22.167 24.167 31.5 37.5c-15.333 2 -27.833 8 -37.5 18
s-14.5 22.333 -14.5 37c0 24.667 7.66699 44.5 23 59.5s35.333 22.5 60 22.5c19.333 0 35.333 -5.83301 48 -17.5z" />
    <glyph glyph-name="Tbar" unicode="&#x166;" horiz-adv-x="590" 
d="M428 594l-37 -209h151l-17 -96h-151l-51 -289h-144l51 289h-150l17 96h150l37 209h-208l19 106h560l-19 -106h-208z" />
    <glyph glyph-name="tbar" unicode="&#x167;" horiz-adv-x="420" 
d="M259 405l-18 -98.999h104l-15 -82h-103l-10 -55c-1.33301 -12 -2 -20 -2 -24c0 -39.333 22.667 -59 68 -59c26 0 51 4 75 12l-9 -87c-32 -14 -73 -21 -123 -21c-45.333 0 -80.5 10.667 -105.5 32s-37.5 51.666 -37.5 90.999c0 11.333 1 23.333 3 36l13 75h-75l15 82h75
l17 99h-91l17 95h91l22 129l130 36h4l-28 -165h145l-17 -95h-145z" />
    <glyph glyph-name="Utilde" unicode="&#x168;" horiz-adv-x="662" 
d="M117.5 43.5c-40.333 35.667 -60.5 87.833 -60.5 156.5c0 24.667 2.33301 49 7 73l75 427h144l-75 -425c-4 -20.667 -6 -40 -6 -58c0 -74.667 34.667 -112 104 -112c42 0 76.167 14.333 102.5 43s44.5 71 54.5 127l75 425h144l-75 -427
c-33.333 -188.667 -138 -283 -314 -283c-76.667 0 -135.167 17.833 -175.5 53.5zM294.5 847.999c23.667 22 50.5029 33 80.5029 33c13.333 0 25.333 -2.33301 36 -7s23 -11.667 37 -21c9.33301 -6 17.166 -10.667 23.499 -14s12.5 -5 18.5 -5c18 0 30 17 36 51h80
c-6 -43.333 -20.333 -75.833 -43 -97.5s-50 -32.5 -82 -32.5c-13.333 0 -25.833 2.5 -37.5 7.5s-24.834 12.167 -39.501 21.5c-18 12 -31 18 -39 18c-7.33301 0 -14.333 -4.33301 -21 -13s-11.334 -20 -14.001 -34h-80c6 40 20.833 71 44.5 93z" />
    <glyph glyph-name="utilde" unicode="&#x169;" horiz-adv-x="561" 
d="M73 29.5c-24.667 26.333 -37 65.166 -37 116.499c0 23.333 2.33301 47 7 71l49 283h128l-49 -283c-3.33301 -20 -5 -36 -5 -48c0 -26 5.66699 -45.167 17 -57.5s28.666 -18.5 51.999 -18.5c34.667 0 65.834 13.333 93.501 40s45.167 60.334 52.5 101.001l46 266h128
l-65 -373c-5.33301 -26.667 -10.333 -69 -15 -127h-121c0.666992 32 3 61.333 7 88h-2c-18 -30.667 -42.833 -54.667 -74.5 -72s-66.167 -26 -103.5 -26c-47.333 0 -83.333 13.167 -108 39.5zM216.5 648c23.667 22 50.5029 33 80.5029 33c13.333 0 25.333 -2.33301 36 -7
s23 -11.667 37 -21c9.33301 -6 17.166 -10.667 23.499 -14s12.5 -5 18.5 -5c18 0 30 17 36 51h80c-6 -43.333 -20.333 -75.833 -43 -97.5s-50 -32.5 -82 -32.5c-13.333 0 -25.833 2.5 -37.5 7.5s-24.834 12.167 -39.501 21.5c-18 12 -31 18 -39 18
c-7.33301 0 -14.333 -4.33301 -21 -13s-11.334 -20 -14.001 -34h-80c6 40 20.833 71 44.5 93z" />
    <glyph glyph-name="Umacron" unicode="&#x16a;" horiz-adv-x="662" 
d="M117.5 43.5c-40.333 35.667 -60.5 87.833 -60.5 156.5c0 24.667 2.33301 49 7 73l75 427h144l-75 -425c-4 -20.667 -6 -40 -6 -58c0 -74.667 34.667 -112 104 -112c42 0 76.167 14.333 102.5 43s44.5 71 54.5 127l75 425h144l-75 -427
c-33.333 -188.667 -138 -283 -314 -283c-76.667 0 -135.167 17.833 -175.5 53.5zM266 854.999h342l-14 -83h-343z" />
    <glyph glyph-name="umacron" unicode="&#x16b;" horiz-adv-x="561" 
d="M73 29.5c-24.667 26.333 -37 65.166 -37 116.499c0 23.333 2.33301 47 7 71l49 283h128l-49 -283c-3.33301 -20 -5 -36 -5 -48c0 -26 5.66699 -45.167 17 -57.5s28.666 -18.5 51.999 -18.5c34.667 0 65.834 13.333 93.501 40s45.167 60.334 52.5 101.001l46 266h128
l-65 -373c-5.33301 -26.667 -10.333 -69 -15 -127h-121c0.666992 32 3 61.333 7 88h-2c-18 -30.667 -42.833 -54.667 -74.5 -72s-66.167 -26 -103.5 -26c-47.333 0 -83.333 13.167 -108 39.5zM188 655h342l-14 -83h-343z" />
    <glyph glyph-name="Ubreve" unicode="&#x16c;" horiz-adv-x="662" 
d="M117.5 43.5c-40.333 35.667 -60.5 87.833 -60.5 156.5c0 24.667 2.33301 49 7 73l75 427h144l-75 -425c-4 -20.667 -6 -40 -6 -58c0 -74.667 34.667 -112 104 -112c42 0 76.167 14.333 102.5 43s44.5 71 54.5 127l75 425h144l-75 -427
c-33.333 -188.667 -138 -283 -314 -283c-76.667 0 -135.167 17.833 -175.5 53.5zM319.5 786.499c-25.667 21 -38.501 50.498 -38.501 88.498c0 10.667 1 21.334 3 32.001h83c-0.666992 -3.33301 -1 -8.33301 -1 -15c0 -18 5.66699 -32 17 -42s27.333 -15 48 -15
c24 0 43.833 6.33301 59.5 19s25.834 30.334 30.501 53.001h88c-8.66699 -49.333 -28.5 -87 -59.5 -113s-71.833 -39 -122.5 -39c-46 0 -81.833 10.5 -107.5 31.5z" />
    <glyph glyph-name="ubreve" unicode="&#x16d;" horiz-adv-x="561" 
d="M73 29.5c-24.667 26.333 -37 65.166 -37 116.499c0 23.333 2.33301 47 7 71l49 283h128l-49 -283c-3.33301 -20 -5 -36 -5 -48c0 -26 5.66699 -45.167 17 -57.5s28.666 -18.5 51.999 -18.5c34.667 0 65.834 13.333 93.501 40s45.167 60.334 52.5 101.001l46 266h128
l-65 -373c-5.33301 -26.667 -10.333 -69 -15 -127h-121c0.666992 32 3 61.333 7 88h-2c-18 -30.667 -42.833 -54.667 -74.5 -72s-66.167 -26 -103.5 -26c-47.333 0 -83.333 13.167 -108 39.5zM241.5 586.5c-25.667 21 -38.501 50.498 -38.501 88.498
c0 10.667 1 21.334 3 32.001h83c-0.666992 -3.33301 -1 -8.33301 -1 -15c0 -18 5.66699 -32 17 -42s27.333 -15 48 -15c24 0 43.833 6.33301 59.5 19s25.834 30.334 30.501 53.001h88c-8.66699 -49.333 -28.5 -87 -59.5 -113s-71.833 -39 -122.5 -39
c-46 0 -81.833 10.5 -107.5 31.5z" />
    <glyph glyph-name="Uring" unicode="&#x16e;" horiz-adv-x="662" 
d="M117.5 43.5c-40.333 35.667 -60.5 87.833 -60.5 156.5c0 24.667 2.33301 49 7 73l75 427h144l-75 -425c-4 -20.667 -6 -40 -6 -58c0 -74.667 34.667 -112 104 -112c42 0 76.167 14.333 102.5 43s44.5 71 54.5 127l75 425h144l-75 -427
c-33.333 -188.667 -138 -283 -314 -283c-76.667 0 -135.167 17.833 -175.5 53.5zM355 773.499c-16.667 15 -25 34.5 -25 58.5c0 35.333 11.667 64 35 86s53.333 33 90 33c26.667 0 48.334 -7.5 65.001 -22.5s25 -34.5 25 -58.5c0 -34.667 -11.667 -63.167 -35 -85.5
s-53.333 -33.5 -90 -33.5c-26.667 0 -48.334 7.5 -65.001 22.5zM471 816.999c11.333 11.333 17.002 26.333 17.002 45c0 12 -3.83301 21.667 -11.5 29s-17.834 11 -30.501 11c-17.333 0 -31.5 -5.66699 -42.5 -17s-16.5 -26.333 -16.5 -45c0 -12 3.83301 -21.667 11.5 -29
s17.5 -11 29.5 -11c17.333 0 31.666 5.66699 42.999 17z" />
    <glyph glyph-name="uring" unicode="&#x16f;" horiz-adv-x="561" 
d="M73 29.5c-24.667 26.333 -37 65.166 -37 116.499c0 23.333 2.33301 47 7 71l49 283h128l-49 -283c-3.33301 -20 -5 -36 -5 -48c0 -26 5.66699 -45.167 17 -57.5s28.666 -18.5 51.999 -18.5c34.667 0 65.834 13.333 93.501 40s45.167 60.334 52.5 101.001l46 266h128
l-65 -373c-5.33301 -26.667 -10.333 -69 -15 -127h-121c0.666992 32 3 61.333 7 88h-2c-18 -30.667 -42.833 -54.667 -74.5 -72s-66.167 -26 -103.5 -26c-47.333 0 -83.333 13.167 -108 39.5zM277 573.5c-16.667 15 -25 34.5 -25 58.5c0 35.333 11.667 64 35 86
s53.333 33 90 33c26.667 0 48.334 -7.5 65.001 -22.5s25 -34.5 25 -58.5c0 -34.667 -11.667 -63.167 -35 -85.5s-53.333 -33.5 -90 -33.5c-26.667 0 -48.334 7.5 -65.001 22.5zM393 617c11.333 11.333 17.002 26.333 17.002 45c0 12 -3.83301 21.667 -11.5 29
s-17.834 11 -30.501 11c-17.333 0 -31.5 -5.66699 -42.5 -17s-16.5 -26.333 -16.5 -45c0 -12 3.83301 -21.667 11.5 -29s17.5 -11 29.5 -11c17.333 0 31.666 5.66699 42.999 17z" />
    <glyph glyph-name="Uhungarumlaut" unicode="&#x170;" horiz-adv-x="662" 
d="M117.5 43.5c-40.333 35.667 -60.5 87.833 -60.5 156.5c0 24.667 2.33301 49 7 73l75 427h144l-75 -425c-4 -20.667 -6 -40 -6 -58c0 -74.667 34.667 -112 104 -112c42 0 76.167 14.333 102.5 43s44.5 71 54.5 127l75 425h144l-75 -427
c-33.333 -188.667 -138 -283 -314 -283c-76.667 0 -135.167 17.833 -175.5 53.5zM377 916.999h124l-136 -162h-102zM552 916.999h124l-136 -162h-102z" />
    <glyph glyph-name="uhungarumlaut" unicode="&#x171;" horiz-adv-x="561" 
d="M73 29.5c-24.667 26.333 -37 65.166 -37 116.499c0 23.333 2.33301 47 7 71l49 283h128l-49 -283c-3.33301 -20 -5 -36 -5 -48c0 -26 5.66699 -45.167 17 -57.5s28.666 -18.5 51.999 -18.5c34.667 0 65.834 13.333 93.501 40s45.167 60.334 52.5 101.001l46 266h128
l-65 -373c-5.33301 -26.667 -10.333 -69 -15 -127h-121c0.666992 32 3 61.333 7 88h-2c-18 -30.667 -42.833 -54.667 -74.5 -72s-66.167 -26 -103.5 -26c-47.333 0 -83.333 13.167 -108 39.5zM299 717h124l-136 -162h-102zM474 717h124l-136 -162h-102z" />
    <glyph glyph-name="Uogonek" unicode="&#x172;" horiz-adv-x="662" 
d="M682 700l-75 -427.001c-30 -170 -117.667 -263.333 -263 -280c-31.333 -20.667 -55.5 -40.667 -72.5 -60s-25.5 -37 -25.5 -53c0 -9.33301 3.83301 -16.666 11.5 -21.999s18.167 -8 31.5 -8c12.667 0 34 5.33301 64 16l8 -60
c-15.333 -12.667 -33.166 -22.5 -53.499 -29.5s-40.833 -10.5 -61.5 -10.5c-30.667 0 -54.334 6.83301 -71.001 20.5s-25 33.167 -25 58.5c0 29.333 8.66699 56.5 26 81.5s43 46.833 77 65.5c-64 6 -112.667 26.5 -146 61.5s-50 83.5 -50 145.5c0 25.333 2.33301 50 7 74
l75 427h144l-75 -425c-4 -20.667 -6 -40 -6 -58c0 -74.667 34.667 -112 104 -112c42 0 76.167 14.333 102.5 43s44.5 71 54.5 127l75 425h144z" />
    <glyph glyph-name="uogonek" unicode="&#x173;" horiz-adv-x="561" 
d="M555 500l-64.998 -373c-5.33301 -26.667 -10.333 -69 -15 -127h-18c-34.667 -22 -61.5 -43.333 -80.5 -64s-28.5 -39.334 -28.5 -56.001c0 -9.33301 3.66699 -16.666 11 -21.999s17.666 -8 30.999 -8s35 5.33301 65 16l7 -60c-14.667 -12.667 -32.167 -22.5 -52.5 -29.5
s-40.833 -10.5 -61.5 -10.5c-31.333 0 -55.333 6.83301 -72 20.5s-25 33.167 -25 58.5c0 32 10.167 61.167 30.5 87.5s50.166 48.833 89.499 67.5h-17c0.666992 32 3 61.333 7 88h-2c-18 -30.667 -42.833 -54.667 -74.5 -72s-66.167 -26 -103.5 -26
c-47.333 0 -83.333 13.167 -108 39.5s-37 65.166 -37 116.499c0 23.333 2.33301 47 7 71l49 283h128l-49 -283c-3.33301 -20 -5 -36 -5 -48c0 -26 5.66699 -45.167 17 -57.5s28.666 -18.5 51.999 -18.5c34.667 0 65.834 13.333 93.501 40s45.167 60.334 52.5 101.001l46 266
h128z" />
    <glyph glyph-name="Wcircumflex" unicode="&#x174;" horiz-adv-x="874" 
d="M928 700l-271 -700h-134l-36 521l-220 -521h-139l-24 700h151l-6 -463l197 463h136l34 -461l157 461h155zM518 917h73l106 -162h-106l-46 78l-73 -78h-117z" />
    <glyph glyph-name="wcircumflex" unicode="&#x175;" horiz-adv-x="707" 
d="M738 500l-216 -500h-112l-35 363l-165 -363h-113l-40 500h131l8 -311l143 311h113l34 -311l117 311h135zM400 717h73l106 -162h-106l-46 78l-73 -78h-117z" />
    <glyph glyph-name="Ycircumflex" unicode="&#x176;" horiz-adv-x="628" 
d="M247 280l-153 420h152l95 -275l191 275h160l-301 -420l-49 -280h-144zM392 917h73l106 -162h-106l-46 78l-73 -78h-117z" />
    <glyph glyph-name="ycircumflex" unicode="&#x177;" horiz-adv-x="505" 
d="M536 500l-283.002 -523c-61.333 -112.667 -143.333 -169 -246 -169c-26 0 -52.667 3.66699 -80 11l18 101c7.33301 -2.66699 17 -5 29 -7s22.667 -3 32 -3c28.667 0 55.334 10.167 80.001 30.5s49.334 52.5 74.001 96.5l-104 463h132l54 -321l156 321h138zM300.998 717
h73l106 -162h-106l-46 78l-73 -78h-117z" />
    <glyph glyph-name="Ydieresis" unicode="&#x178;" horiz-adv-x="628" 
d="M247 280l-153 420h152l95 -275l191 275h160l-301 -420l-49 -280h-144zM254 770c-10.667 10 -15.999 23.002 -15.999 39.002c0 23.333 7.33301 42.166 22 56.499s34 21.5 58 21.5c16.667 0 30.167 -5 40.5 -15s15.5 -23 15.5 -39c0 -22.667 -7.33301 -41.334 -22 -56.001
s-33.667 -22 -57 -22c-16.667 0 -30.334 5 -41.001 15zM464.501 770.002c-10.333 10 -15.5 23.002 -15.5 39.002c0 23.333 7.33301 42.166 22 56.499s34 21.5 58 21.5c16 0 29.333 -5 40 -15s16 -23 16 -39c0 -22.667 -7.5 -41.334 -22.5 -56.001s-34.167 -22 -57.5 -22
c-16.667 0 -30.167 5 -40.5 15z" />
    <glyph glyph-name="Zacute" unicode="&#x179;" horiz-adv-x="592" 
d="M-6 70l435 515h-315l20 115h497l-12 -72l-430 -513h353l-21 -115h-539zM448 917h124l-136 -162h-102z" />
    <glyph glyph-name="zacute" unicode="&#x17a;" horiz-adv-x="476" 
d="M-12 68l326 336h-252l17 96h409l-11 -62l-321 -342h272l-17 -96h-434zM355 717h124l-136 -162h-102z" />
    <glyph glyph-name="Zdotaccent" unicode="&#x17b;" horiz-adv-x="592" 
d="M-6 70l435 515h-315l20 115h497l-12 -72l-430 -513h353l-21 -115h-539zM344 770c-10.667 10 -15.999 22.998 -15.999 38.998c0 22.667 7.5 41.334 22.5 56.001s34.167 22 57.5 22c16.667 0 30.167 -5 40.5 -15s15.5 -23 15.5 -39c0 -23.333 -7.33301 -42.166 -22 -56.499
s-33.667 -21.5 -57 -21.5c-16.667 0 -30.334 5 -41.001 15z" />
    <glyph glyph-name="zdotaccent" unicode="&#x17c;" horiz-adv-x="476" 
d="M-12 68l326 336h-252l17 96h409l-11 -62l-321 -342h272l-17 -96h-434zM251 570c-10.667 10 -15.999 22.998 -15.999 38.998c0 22.667 7.5 41.334 22.5 56.001s34.167 22 57.5 22c16.667 0 30.167 -5 40.5 -15s15.5 -23 15.5 -39c0 -23.333 -7.33301 -42.166 -22 -56.499
s-33.667 -21.5 -57 -21.5c-16.667 0 -30.334 5 -41.001 15z" />
    <glyph glyph-name="Zcaron" unicode="&#x17d;" horiz-adv-x="592" 
d="M-6 70l435 515h-315l20 115h497l-12 -72l-430 -513h353l-21 -115h-539zM242 917h108l45 -78l74 78h115l-163 -162h-73z" />
    <glyph glyph-name="zcaron" unicode="&#x17e;" horiz-adv-x="476" 
d="M-12 68l326 336h-252l17 96h409l-11 -62l-321 -342h272l-17 -96h-434zM149 717h108l45 -78l74 78h115l-163 -162h-73z" />
    <glyph glyph-name="uni018F" unicode="&#x18f;" horiz-adv-x="684" 
d="M606 636.5c49.333 -48.333 74.001 -115.164 74.001 -200.497c0 -86 -15.833 -162.667 -47.5 -230s-76.167 -120 -133.5 -158s-122.666 -57 -195.999 -57c-84.667 0 -150.334 23.167 -197.001 69.5s-70 111.5 -70 195.5c0 25.333 2.66699 54 8 86l11 60h480
c0.666992 5.33301 1 13.666 1 24.999c0 54.667 -12.5 96.5 -37.5 125.5s-61.167 43.5 -108.5 43.5c-39.333 0 -77 -9.33301 -113 -28s-68.333 -46.334 -97 -83.001l-73 86c31.333 43.333 73.166 77.166 125.499 101.499s108.833 36.5 169.5 36.5
c86.667 0 154.667 -24.167 204 -72.5zM438.501 156.502c37 35 63.834 82.167 80.501 141.5l-338 -1l-2 -9c-4 -18.667 -6 -36.667 -6 -54c0 -40.667 12.167 -72.5 36.5 -95.5s58.166 -34.5 101.499 -34.5c48 0 90.5 17.5 127.5 52.5z" />
    <glyph glyph-name="florin" unicode="&#x192;" horiz-adv-x="485" 
d="M496 699c22.667 -7.33301 39.332 -16.334 49.999 -27.001l-61 -86c-5.33301 6.66699 -13.333 11.834 -24 15.501s-22 5.5 -34 5.5c-40 0 -68.333 -22 -85 -66l-15 -41h134l-18 -102h-155l-186 -492h-141l188 492h-88l17 102h110l28 73c16 41.333 39.5 74.5 70.5 99.5
s77.167 37.5 138.5 37.5c24.667 0 48.334 -3.66699 71.001 -11z" />
    <glyph glyph-name="Ohorn" unicode="&#x1a0;" horiz-adv-x="738" 
d="M857 700l-8.99902 -51.999c-8 -44 -26.5 -83.833 -55.5 -119.5s-64.5 -62.5 -106.5 -80.5v-12c0 -86 -15.833 -162.833 -47.5 -230.5s-75.834 -120.5 -132.501 -158.5s-121 -57 -193 -57c-54 0 -101.667 11.5 -143 34.5s-73.333 55.167 -96 96.5s-34 89 -34 143
c0 86 15.833 162.833 47.5 230.5s75.834 120.5 132.501 158.5s121 57 193 57c64.667 0 120 -16.333 166 -49s77.333 -77 94 -133c20 16 35.167 33.167 45.5 51.5s18.166 41.166 23.499 68.499l9 52h106zM435.501 145.001c33 27.333 58.833 65.501 77.5 114.501
s28 104.5 28 166.5c0 50.667 -12.667 91.667 -38 123s-58.333 47 -99 47c-42 0 -79.5 -13.667 -112.5 -41s-58.833 -65.333 -77.5 -114s-28 -104 -28 -166c0 -50.667 12.667 -91.834 38 -123.501s58.333 -47.5 99 -47.5c42 0 79.5 13.667 112.5 41z" />
    <glyph glyph-name="ohorn" unicode="&#x1a1;" horiz-adv-x="651" 
d="M723 508l-8.99902 -52.002c-8 -44.667 -26.667 -85 -56 -121s-65.333 -62.667 -108 -80c-6.66699 -53.333 -23.334 -99.833 -50.001 -139.5s-61.5 -70.5 -104.5 -92.5s-91.5 -33 -145.5 -33c-68.667 0 -123.167 18.333 -163.5 55s-60.5 86.334 -60.5 149.001
c0 62 12.667 117 38 165s60.833 85.167 106.5 111.5s98.5 39.5 158.5 39.5c60.667 0 110.5 -14.667 149.5 -44s62.833 -69.666 71.5 -120.999c16 14.667 28.5 30.667 37.5 48s15.833 38.333 20.5 63l9 52h106zM345.001 111.998c24.667 18 44.001 43 58.001 75s21 68 21 108
c0 37.333 -9.5 66.666 -28.5 87.999s-45.5 32 -79.5 32c-30.667 0 -58.334 -9 -83.001 -27s-44 -43 -58 -75s-21 -68 -21 -108c0 -37.333 9.66699 -66.666 29 -87.999s45.666 -32 78.999 -32c30.667 0 58.334 9 83.001 27z" />
    <glyph glyph-name="Uhorn" unicode="&#x1af;" horiz-adv-x="743" 
d="M862 700l-9.00293 -52.0029c-9.33301 -53.333 -34.166 -100.166 -74.499 -140.499s-88.166 -66.166 -143.499 -77.499l-28 -157c-33.333 -188.667 -138 -283 -314 -283c-76.667 0 -135.167 17.833 -175.5 53.5s-60.5 87.834 -60.5 156.501c0 24.667 2.33301 49 7 73
l75 427h144l-75 -425c-4 -20.667 -6 -40 -6 -58c0 -74.667 34.667 -112 104 -112c42 0 76.167 14.333 102.5 43s44.5 71 54.5 127l75 425h144l-34 -192c30.667 18.667 53.334 38.5 68.001 59.5s25 47.833 31 80.5l9 52h106z" />
    <glyph glyph-name="uhorn" unicode="&#x1b0;" horiz-adv-x="649" 
d="M723 501l-9 -52.0029c-8.66699 -51.333 -32 -96.666 -70 -135.999s-83 -65.666 -135 -78.999l-19 -107c-5.33301 -26.667 -10.333 -69 -15 -127h-121c0.666992 32 3 61.333 7 88h-2c-18 -30.667 -42.833 -54.667 -74.5 -72s-66.167 -26 -103.5 -26
c-47.333 0 -83.333 13.167 -108 39.5s-37 65.166 -37 116.499c0 23.333 2.33301 47 7 71l49 283h128l-49 -283c-3.33301 -20 -5 -36 -5 -48c0 -26 5.66699 -45.167 17 -57.5s28.666 -18.5 51.999 -18.5c34.667 0 65.834 13.333 93.501 40s45.167 60.334 52.5 101.001l46 266
h128l-32 -182c26 17.333 45.333 35.833 58 55.5s21.667 44.834 27 75.501l9 52h106z" />
    <glyph glyph-name="uni01CD" unicode="&#x1cd;" horiz-adv-x="641" 
d="M423 116h-240l-55 -116h-157l365 700h127l119 -700h-144zM408 231l-37 278l-133 -278h170zM267 917h108l45 -78l74 78h115l-163 -162h-73z" />
    <glyph glyph-name="uni01CE" unicode="&#x1ce;" horiz-adv-x="558" 
d="M69.5 43c-31.667 35.333 -47.5 83.333 -47.5 144c0 62.667 10.833 118.5 32.5 167.5s51.834 87.167 90.501 114.5s83 41 133 41c34.667 0 64.667 -6.33301 90 -19s43.333 -30.667 54 -54h2l20 63h107l-65 -367c-12 -70 -19 -114.333 -21 -133h-120
c4 27.333 7.66699 49.333 11 66h-2c-20 -23.333 -43.833 -41.833 -71.5 -55.5s-55.834 -20.5 -84.501 -20.5c-54 0 -96.833 17.667 -128.5 53zM324 118.5c24.667 20.333 40.002 47.168 46.002 80.501l18 103c1.33301 9.33301 2 16.666 2 21.999
c0 26.667 -9.16699 48.5 -27.5 65.5s-41.833 25.5 -70.5 25.5c-26.667 0 -50.834 -9.5 -72.501 -28.5s-38.667 -45.167 -51 -78.5s-18.5 -70.666 -18.5 -111.999c0 -34.667 7.16699 -61.334 21.5 -80.001s35.166 -28 62.499 -28c35.333 0 65.333 10.167 90 30.5z
M180.002 717.002h108l45 -78l74 78h115l-163 -162h-73z" />
    <glyph glyph-name="uni01CF" unicode="&#x1cf;" horiz-adv-x="323" 
d="M169 700h143l-123 -700h-143zM108 917h108l45 -78l74 78h115l-163 -162h-73z" />
    <glyph glyph-name="uni01D0" unicode="&#x1d0;" horiz-adv-x="279" 
d="M121 500h126l-88 -500h-126zM51 717h108l45 -78l74 78h115l-163 -162h-73z" />
    <glyph glyph-name="uni01D1" unicode="&#x1d1;" horiz-adv-x="690" 
d="M170 24.5c-41.333 23 -73.333 55.167 -96 96.5s-34 89 -34 143c0 86 15.833 162.833 47.5 230.5s75.834 120.5 132.501 158.5s121 57 193 57c54 0 101.667 -11.5 143 -34.5s73.333 -55.167 96 -96.5s34 -89 34 -143c0 -86 -15.833 -162.833 -47.5 -230.5
s-75.834 -120.5 -132.501 -158.5s-121 -57 -193 -57c-54 0 -101.667 11.5 -143 34.5zM435.5 145c33 27.333 58.833 65.501 77.5 114.501s28 104.5 28 166.5c0 50.667 -12.667 91.667 -38 123s-58.333 47 -99 47c-42 0 -79.5 -13.667 -112.5 -41s-58.833 -65.333 -77.5 -114
s-28 -104 -28 -166c0 -50.667 12.667 -91.834 38 -123.501s58.333 -47.5 99 -47.5c42 0 79.5 13.667 112.5 41zM281 917.001h108l45 -78l74 78h115l-163 -162h-73z" />
    <glyph glyph-name="uni01D2" unicode="&#x1d2;" horiz-adv-x="579" 
d="M86.5 45c-40.333 36.667 -60.5 86.334 -60.5 149.001c0 62 12.667 117 38 165s60.833 85.167 106.5 111.5s98.5 39.5 158.5 39.5c68.667 0 123.167 -18.333 163.5 -55s60.5 -86.334 60.5 -149.001c0 -62 -12.667 -117 -38 -165s-61 -85.167 -107 -111.5
s-98.667 -39.5 -158 -39.5c-68.667 0 -123.167 18.333 -163.5 55zM345 112c24.667 18 44.001 43 58.001 75s21 68 21 108c0 37.333 -9.5 66.666 -28.5 87.999s-45.5 32 -79.5 32c-30.667 0 -58.334 -9 -83.001 -27s-44 -43 -58 -75s-21 -68 -21 -108
c0 -37.333 9.66699 -66.666 29 -87.999s45.666 -32 78.999 -32c30.667 0 58.334 9 83.001 27zM201.001 717h108l45 -78l74 78h115l-163 -162h-73z" />
    <glyph glyph-name="uni01D3" unicode="&#x1d3;" horiz-adv-x="662" 
d="M117.5 43.5c-40.333 35.667 -60.5 87.833 -60.5 156.5c0 24.667 2.33301 49 7 73l75 427h144l-75 -425c-4 -20.667 -6 -40 -6 -58c0 -74.667 34.667 -112 104 -112c42 0 76.167 14.333 102.5 43s44.5 71 54.5 127l75 425h144l-75 -427
c-33.333 -188.667 -138 -283 -314 -283c-76.667 0 -135.167 17.833 -175.5 53.5zM278 916.999h108l45 -78l74 78h115l-163 -162h-73z" />
    <glyph glyph-name="uni01D4" unicode="&#x1d4;" horiz-adv-x="561" 
d="M73 29.5c-24.667 26.333 -37 65.166 -37 116.499c0 23.333 2.33301 47 7 71l49 283h128l-49 -283c-3.33301 -20 -5 -36 -5 -48c0 -26 5.66699 -45.167 17 -57.5s28.666 -18.5 51.999 -18.5c34.667 0 65.834 13.333 93.501 40s45.167 60.334 52.5 101.001l46 266h128
l-65 -373c-5.33301 -26.667 -10.333 -69 -15 -127h-121c0.666992 32 3 61.333 7 88h-2c-18 -30.667 -42.833 -54.667 -74.5 -72s-66.167 -26 -103.5 -26c-47.333 0 -83.333 13.167 -108 39.5zM199 717h108l45 -78l74 78h115l-163 -162h-73z" />
    <glyph glyph-name="uni01D5" unicode="&#x1d5;" horiz-adv-x="662" 
d="M117.5 43.5c-40.333 35.667 -60.5 87.833 -60.5 156.5c0 24.667 2.33301 49 7 73l75 427h144l-75 -425c-4 -20.667 -6 -40 -6 -58c0 -74.667 34.667 -112 104 -112c42 0 76.167 14.333 102.5 43s44.5 71 54.5 127l75 425h144l-75 -427
c-33.333 -188.667 -138 -283 -314 -283c-76.667 0 -135.167 17.833 -175.5 53.5zM308 1006h298l-10 -66h-297zM270.5 769.999c-10.333 10 -15.5 23.002 -15.5 39.002c0 23.333 7.33301 42.166 22 56.499s34 21.5 58 21.5c16 0 29.333 -5 40 -15s16 -23 16 -39
c0 -22.667 -7.5 -41.334 -22.5 -56.001s-34.167 -22 -57.5 -22c-16.667 0 -30.167 5 -40.5 15zM481 770.001c-10.667 10 -15.999 22.998 -15.999 38.998c0 22.667 7.5 41.334 22.5 56.001s34.167 22 57.5 22c16.667 0 30.167 -5 40.5 -15s15.5 -23 15.5 -39
c0 -23.333 -7.33301 -42.166 -22 -56.499s-33.667 -21.5 -57 -21.5c-16.667 0 -30.334 5 -41.001 15z" />
    <glyph glyph-name="uni01D6" unicode="&#x1d6;" horiz-adv-x="561" 
d="M73 29.5c-24.667 26.333 -37 65.166 -37 116.499c0 23.333 2.33301 47 7 71l49 283h128l-49 -283c-3.33301 -20 -5 -36 -5 -48c0 -26 5.66699 -45.167 17 -57.5s28.666 -18.5 51.999 -18.5c34.667 0 65.834 13.333 93.501 40s45.167 60.334 52.5 101.001l46 266h128
l-65 -373c-5.33301 -26.667 -10.333 -69 -15 -127h-121c0.666992 32 3 61.333 7 88h-2c-18 -30.667 -42.833 -54.667 -74.5 -72s-66.167 -26 -103.5 -26c-47.333 0 -83.333 13.167 -108 39.5zM230 806h298l-10 -66h-297zM192.5 570c-10.333 10 -15.5 23.002 -15.5 39.002
c0 23.333 7.33301 42.166 22 56.499s34 21.5 58 21.5c16 0 29.333 -5 40 -15s16 -23 16 -39c0 -22.667 -7.5 -41.334 -22.5 -56.001s-34.167 -22 -57.5 -22c-16.667 0 -30.167 5 -40.5 15zM403 570.002c-10.667 10 -15.999 22.998 -15.999 38.998
c0 22.667 7.5 41.334 22.5 56.001s34.167 22 57.5 22c16.667 0 30.167 -5 40.5 -15s15.5 -23 15.5 -39c0 -23.333 -7.33301 -42.166 -22 -56.499s-33.667 -21.5 -57 -21.5c-16.667 0 -30.334 5 -41.001 15z" />
    <glyph glyph-name="uni01D7" unicode="&#x1d7;" horiz-adv-x="662" 
d="M117.5 43.5c-40.333 35.667 -60.5 87.833 -60.5 156.5c0 24.667 2.33301 49 7 73l75 427h144l-75 -425c-4 -20.667 -6 -40 -6 -58c0 -74.667 34.667 -112 104 -112c42 0 76.167 14.333 102.5 43s44.5 71 54.5 127l75 425h144l-75 -427
c-33.333 -188.667 -138 -283 -314 -283c-76.667 0 -135.167 17.833 -175.5 53.5zM471 1036h99l-81 -109h-84zM274 769.999c-10.667 10 -15.999 23.002 -15.999 39.002c0 23.333 7.33301 42.166 22 56.499s34 21.5 58 21.5c16.667 0 30.167 -5 40.5 -15s15.5 -23 15.5 -39
c0 -22.667 -7.33301 -41.334 -22 -56.001s-33.667 -22 -57 -22c-16.667 0 -30.334 5 -41.001 15zM484.501 770.001c-10.333 10 -15.5 23.002 -15.5 39.002c0 23.333 7.33301 42.166 22 56.499s34 21.5 58 21.5c16 0 29.333 -5 40 -15s16 -23 16 -39
c0 -22.667 -7.5 -41.334 -22.5 -56.001s-34.167 -22 -57.5 -22c-16.667 0 -30.167 5 -40.5 15z" />
    <glyph glyph-name="uni01D8" unicode="&#x1d8;" horiz-adv-x="561" 
d="M73 29.5c-24.667 26.333 -37 65.166 -37 116.499c0 23.333 2.33301 47 7 71l49 283h128l-49 -283c-3.33301 -20 -5 -36 -5 -48c0 -26 5.66699 -45.167 17 -57.5s28.666 -18.5 51.999 -18.5c34.667 0 65.834 13.333 93.501 40s45.167 60.334 52.5 101.001l46 266h128
l-65 -373c-5.33301 -26.667 -10.333 -69 -15 -127h-121c0.666992 32 3 61.333 7 88h-2c-18 -30.667 -42.833 -54.667 -74.5 -72s-66.167 -26 -103.5 -26c-47.333 0 -83.333 13.167 -108 39.5zM393 836h99l-81 -109h-84zM196 570c-10.667 10 -15.999 23.002 -15.999 39.002
c0 23.333 7.33301 42.166 22 56.499s34 21.5 58 21.5c16.667 0 30.167 -5 40.5 -15s15.5 -23 15.5 -39c0 -22.667 -7.33301 -41.334 -22 -56.001s-33.667 -22 -57 -22c-16.667 0 -30.334 5 -41.001 15zM406.501 570.002c-10.333 10 -15.5 23.002 -15.5 39.002
c0 23.333 7.33301 42.166 22 56.499s34 21.5 58 21.5c16 0 29.333 -5 40 -15s16 -23 16 -39c0 -22.667 -7.5 -41.334 -22.5 -56.001s-34.167 -22 -57.5 -22c-16.667 0 -30.167 5 -40.5 15z" />
    <glyph glyph-name="uni01D9" unicode="&#x1d9;" horiz-adv-x="662" 
d="M117.5 43.5c-40.333 35.667 -60.5 87.833 -60.5 156.5c0 24.667 2.33301 49 7 73l75 427h144l-75 -425c-4 -20.667 -6 -40 -6 -58c0 -74.667 34.667 -112 104 -112c42 0 76.167 14.333 102.5 43s44.5 71 54.5 127l75 425h144l-75 -427
c-33.333 -188.667 -138 -283 -314 -283c-76.667 0 -135.167 17.833 -175.5 53.5zM312 1036h97l47 -70l71 70h100l-144 -130h-72zM274 769.999c-10.667 10 -15.999 23.002 -15.999 39.002c0 23.333 7.33301 42.166 22 56.499s34 21.5 58 21.5c16.667 0 30.167 -5 40.5 -15
s15.5 -23 15.5 -39c0 -22.667 -7.33301 -41.334 -22 -56.001s-33.667 -22 -57 -22c-16.667 0 -30.334 5 -41.001 15zM484.501 770.001c-10.333 10 -15.5 23.002 -15.5 39.002c0 23.333 7.33301 42.166 22 56.499s34 21.5 58 21.5c16 0 29.333 -5 40 -15s16 -23 16 -39
c0 -22.667 -7.5 -41.334 -22.5 -56.001s-34.167 -22 -57.5 -22c-16.667 0 -30.167 5 -40.5 15z" />
    <glyph glyph-name="uni01DA" unicode="&#x1da;" horiz-adv-x="561" 
d="M73 29.5c-24.667 26.333 -37 65.166 -37 116.499c0 23.333 2.33301 47 7 71l49 283h128l-49 -283c-3.33301 -20 -5 -36 -5 -48c0 -26 5.66699 -45.167 17 -57.5s28.666 -18.5 51.999 -18.5c34.667 0 65.834 13.333 93.501 40s45.167 60.334 52.5 101.001l46 266h128
l-65 -373c-5.33301 -26.667 -10.333 -69 -15 -127h-121c0.666992 32 3 61.333 7 88h-2c-18 -30.667 -42.833 -54.667 -74.5 -72s-66.167 -26 -103.5 -26c-47.333 0 -83.333 13.167 -108 39.5zM234 836h97l47 -70l71 70h100l-144 -130h-72zM196 570
c-10.667 10 -15.999 23.002 -15.999 39.002c0 23.333 7.33301 42.166 22 56.499s34 21.5 58 21.5c16.667 0 30.167 -5 40.5 -15s15.5 -23 15.5 -39c0 -22.667 -7.33301 -41.334 -22 -56.001s-33.667 -22 -57 -22c-16.667 0 -30.334 5 -41.001 15zM406.501 570.002
c-10.333 10 -15.5 23.002 -15.5 39.002c0 23.333 7.33301 42.166 22 56.499s34 21.5 58 21.5c16 0 29.333 -5 40 -15s16 -23 16 -39c0 -22.667 -7.5 -41.334 -22.5 -56.001s-34.167 -22 -57.5 -22c-16.667 0 -30.167 5 -40.5 15z" />
    <glyph glyph-name="uni01DB" unicode="&#x1db;" horiz-adv-x="662" 
d="M117.5 43.5c-40.333 35.667 -60.5 87.833 -60.5 156.5c0 24.667 2.33301 49 7 73l75 427h144l-75 -425c-4 -20.667 -6 -40 -6 -58c0 -74.667 34.667 -112 104 -112c42 0 76.167 14.333 102.5 43s44.5 71 54.5 127l75 425h144l-75 -427
c-33.333 -188.667 -138 -283 -314 -283c-76.667 0 -135.167 17.833 -175.5 53.5zM364 1036h99l29 -109h-84zM274 769.999c-10.667 10 -15.999 23.002 -15.999 39.002c0 23.333 7.33301 42.166 22 56.499s34 21.5 58 21.5c16.667 0 30.167 -5 40.5 -15s15.5 -23 15.5 -39
c0 -22.667 -7.33301 -41.334 -22 -56.001s-33.667 -22 -57 -22c-16.667 0 -30.334 5 -41.001 15zM484.501 770.001c-10.333 10 -15.5 23.002 -15.5 39.002c0 23.333 7.33301 42.166 22 56.499s34 21.5 58 21.5c16 0 29.333 -5 40 -15s16 -23 16 -39
c0 -22.667 -7.5 -41.334 -22.5 -56.001s-34.167 -22 -57.5 -22c-16.667 0 -30.167 5 -40.5 15z" />
    <glyph glyph-name="uni01DC" unicode="&#x1dc;" horiz-adv-x="561" 
d="M73 29.5c-24.667 26.333 -37 65.166 -37 116.499c0 23.333 2.33301 47 7 71l49 283h128l-49 -283c-3.33301 -20 -5 -36 -5 -48c0 -26 5.66699 -45.167 17 -57.5s28.666 -18.5 51.999 -18.5c34.667 0 65.834 13.333 93.501 40s45.167 60.334 52.5 101.001l46 266h128
l-65 -373c-5.33301 -26.667 -10.333 -69 -15 -127h-121c0.666992 32 3 61.333 7 88h-2c-18 -30.667 -42.833 -54.667 -74.5 -72s-66.167 -26 -103.5 -26c-47.333 0 -83.333 13.167 -108 39.5zM286 836h99l29 -109h-84zM196 570c-10.667 10 -15.999 23.002 -15.999 39.002
c0 23.333 7.33301 42.166 22 56.499s34 21.5 58 21.5c16.667 0 30.167 -5 40.5 -15s15.5 -23 15.5 -39c0 -22.667 -7.33301 -41.334 -22 -56.001s-33.667 -22 -57 -22c-16.667 0 -30.334 5 -41.001 15zM406.501 570.002c-10.333 10 -15.5 23.002 -15.5 39.002
c0 23.333 7.33301 42.166 22 56.499s34 21.5 58 21.5c16 0 29.333 -5 40 -15s16 -23 16 -39c0 -22.667 -7.5 -41.334 -22.5 -56.001s-34.167 -22 -57.5 -22c-16.667 0 -30.167 5 -40.5 15z" />
    <glyph glyph-name="Gcaron" unicode="&#x1e6;" horiz-adv-x="653" 
d="M333 380h293.004l-66 -380h-109l-6 35c-42.667 -30 -92.667 -45 -150 -45c-52 0 -97.333 10.667 -136 32s-68.334 51.833 -89.001 91.5s-31 85.834 -31 138.501c0 89.333 16 168.666 48 237.999s76.667 123.333 134 162s123 58 197 58
c59.333 0 110.666 -11.333 153.999 -34s71 -52.334 83 -89.001l-94 -72c-12 26 -30.333 45.833 -55 59.5s-54.334 20.5 -89.001 20.5c-44.667 0 -84.667 -14.333 -120 -43s-63 -68.5 -83 -119.5s-30 -109.167 -30 -174.5c0 -53.333 11.167 -93.666 33.5 -120.999
s55.166 -41 98.499 -41c44 0 85.333 10.667 124 32l26 150h-151zM295.004 917h108l45 -78l74 78h115l-163 -162h-73z" />
    <glyph glyph-name="gcaron" unicode="&#x1e7;" horiz-adv-x="555" 
d="M550 500l-84 -479.999c-14.667 -84.667 -46.167 -148.5 -94.5 -191.5s-113.166 -64.5 -194.499 -64.5c-39.333 0 -76.333 4.66699 -111 14s-63.667 22.666 -87 39.999l58 87c21.333 -12 45 -21.5 71 -28.5s51 -10.5 75 -10.5c88.667 0 143 57 163 171l2 13
c-32 -35.333 -78.667 -53 -140 -53c-58 0 -103.5 16.833 -136.5 50.5s-49.5 80.167 -49.5 139.5c0 63.333 10.667 119.5 32 168.5s51.333 87 90 114s83 40.5 133 40.5c35.333 0 65.666 -6.33301 90.999 -19s43.333 -30.667 54 -54h2l20 63h106zM387 319.001
c0 31.333 -7.83594 55.166 -23.5029 71.499s-38.167 24.5 -67.5 24.5c-28.667 0 -54 -9.33301 -76 -28s-39.167 -44.167 -51.5 -76.5s-18.5 -69.166 -18.5 -110.499c0 -34 7.83301 -59.833 23.5 -77.5s38.834 -26.5 69.501 -26.5c34.667 0 63.334 10.5 86.001 31.5
s37.334 50.833 44.001 89.5l11 64c2 14 3 26.667 3 38zM175.997 717.001h108l45 -78l74 78h115l-163 -162h-73z" />
    <glyph glyph-name="Aringacute" unicode="&#x1fa;" horiz-adv-x="641" 
d="M503 946h-93l75 109h108zM344.5 742.5c-16.333 15 -24.501 34.5 -24.501 58.5c0 35.333 11.5 64 34.5 86s52.833 33 89.5 33c26.667 0 48.334 -7.5 65.001 -22.5s25 -34.5 25 -58.5c0 -35.333 -11.667 -64 -35 -86s-53.333 -33 -90 -33c-26.667 0 -48.167 7.5 -64.5 22.5
zM393.499 854c-11 -11.333 -16.5 -26.333 -16.5 -45c0 -12 3.83301 -21.667 11.5 -29s17.5 -11 29.5 -11c17.333 0 31.5 5.66699 42.5 17s16.5 26.333 16.5 45c0 12 -3.83301 21.667 -11.5 29s-17.5 11 -29.5 11c-17.333 0 -31.5 -5.66699 -42.5 -17zM462.999 700l119 -700
h-144l-15 116h-240l-55 -116h-157l365 700h127zM407.999 231l-37 278l-133 -278h170z" />
    <glyph glyph-name="aringacute" unicode="&#x1fb;" horiz-adv-x="558" 
d="M387 898h108l-90 -109h-92zM257 573.5c-16.667 15 -25 34.5 -25 58.5c0 34.667 11.667 63.167 35 85.5s53.333 33.5 90 33.5c26.667 0 48.334 -7.5 65.001 -22.5s25 -34.5 25 -58.5c0 -35.333 -11.667 -64 -35 -86s-53.333 -33 -90 -33
c-26.667 0 -48.334 7.5 -65.001 22.5zM373.5 617c11 11.333 16.498 26.333 16.498 45c0 12 -3.83301 21.667 -11.5 29s-17.5 11 -29.5 11c-17.333 0 -31.666 -5.66699 -42.999 -17s-17 -26.333 -17 -45c0 -12 3.83301 -21.667 11.5 -29s17.834 -11 30.501 -11
c17.333 0 31.5 5.66699 42.5 17zM69.498 43c-31.667 35.333 -47.5 83.333 -47.5 144c0 62.667 10.833 118.5 32.5 167.5s51.834 87.167 90.501 114.5s83 41 133 41c34.667 0 64.667 -6.33301 90 -19s43.333 -30.667 54 -54h2l20 63h107l-65 -367
c-12 -70 -19 -114.333 -21 -133h-120c4 27.333 7.66699 49.333 11 66h-2c-20 -23.333 -43.833 -41.833 -71.5 -55.5s-55.834 -20.5 -84.501 -20.5c-54 0 -96.833 17.667 -128.5 53zM323.998 118.5c24.667 20.333 40.002 47.168 46.002 80.501l18 103
c1.33301 9.33301 2 16.666 2 21.999c0 26.667 -9.16699 48.5 -27.5 65.5s-41.833 25.5 -70.5 25.5c-26.667 0 -50.834 -9.5 -72.501 -28.5s-38.667 -45.167 -51 -78.5s-18.5 -70.666 -18.5 -111.999c0 -34.667 7.16699 -61.334 21.5 -80.001s35.166 -28 62.499 -28
c35.333 0 65.333 10.167 90 30.5z" />
    <glyph glyph-name="AEacute" unicode="&#x1fc;" horiz-adv-x="827" 
d="M580 585l-29 -164h235l-19 -113h-236l-34 -193h268l-20 -115h-411l17 98h-163l-58 -98h-159l435 700h462l-20 -115h-268zM370 206l50 285l-168 -285h118zM629 917h124l-136 -162h-102z" />
    <glyph glyph-name="aeacute" unicode="&#x1fd;" horiz-adv-x="818" 
d="M742.5 460.5c35 -33 52.5029 -79.8311 52.5029 -140.498c0 -19.333 -2 -40 -6 -62l-8 -44h-335v-15c0 -68 32.667 -102 98 -102c27.333 0 52.166 5 74.499 15s45.833 26.667 70.5 50l56 -66c-24 -32.667 -55.5 -58.5 -94.5 -77.5s-80.833 -28.5 -125.5 -28.5
c-34.667 0 -65.834 5.66699 -93.501 17s-50.5 27.666 -68.5 48.999c-24.667 -20.667 -53 -36.834 -85 -48.501s-65 -17.5 -99 -17.5c-54.667 0 -97 12.5 -127 37.5s-45 57.833 -45 98.5c0 56.667 20.833 99.667 62.5 129s101.5 44 179.5 44h85l5 30
c1.33301 10.667 2 17.667 2 21c0 41.333 -23.667 62 -71 62c-60.667 0 -113 -20 -157 -60l-44 76c62.667 54.667 134.667 82 216 82c70 0 120.667 -18.667 152 -56c45.333 37.333 98.666 56 159.999 56c62 0 110.5 -16.5 145.5 -49.5zM657.003 379.002
c-14.667 18 -37.999 27 -69.999 27c-27.333 0 -52 -9.66699 -74 -29s-39 -45.333 -51 -78h215v7c1.33301 30.667 -5.33398 55 -20.001 73zM271.504 111.002c22.333 16.667 35.502 37.332 39.502 61.999l8 41h-76c-34.667 0 -61.834 -6.5 -81.501 -19.5
s-29.5 -33.167 -29.5 -60.5c0 -15.333 5.33301 -27.166 16 -35.499s26 -12.5 46 -12.5c29.333 0 55.166 8.33301 77.499 25zM526.006 717h124l-136 -162h-102z" />
    <glyph glyph-name="Oslashacute" unicode="&#x1fe;" horiz-adv-x="690" 
d="M665.5 550c13.667 -34.667 20.5 -72.667 20.5 -114c0 -86 -15.833 -162.833 -47.5 -230.5s-75.834 -120.5 -132.501 -158.5s-121 -57 -193 -57c-52.667 0 -100 11.333 -142 34l-47 -67h-111l88 125c-40.667 49.333 -61 110 -61 182c0 86 15.833 162.833 47.5 230.5
s75.834 120.5 132.501 158.5s121 57 193 57c42.667 0 81 -7 115 -21l25 36h115l-61 -87c25.333 -24 44.833 -53.333 58.5 -88zM194 214l261 372c-16.667 6.66699 -33.667 10 -51 10c-42 0 -79.5 -13.667 -112.5 -41s-58.833 -65.333 -77.5 -114s-28 -104 -28 -166
c0 -20.667 2.66699 -41 8 -61zM435.5 145c33 27.333 58.832 65.5 77.499 114.5s28 104.5 28 166.5c0 34.667 -6.33301 65.667 -19 93l-276 -389c22.667 -17.333 48.334 -26 77.001 -26c42 0 79.5 13.667 112.5 41zM486.999 917h124l-136 -162h-102z" />
    <glyph glyph-name="oslashacute" unicode="&#x1ff;" horiz-adv-x="579" 
d="M534.5 396c12.333 -26.667 18.5 -56.667 18.5 -90c0 -62 -12.667 -117 -38 -165s-61 -85.167 -107 -111.5s-98.667 -39.5 -158 -39.5c-34 0 -65 4.66699 -93 14l-34 -47h-88l58 82c-44.667 37.333 -67 89 -67 155c0 62 12.667 117 38 165s60.833 85.167 106.5 111.5
s98.5 39.5 158.5 39.5c31.333 0 60 -4 86 -12l26 37h92l-51 -72c22.667 -18 40.167 -40.333 52.5 -67zM166 143l187.001 267c-12 3.33301 -24.333 5 -37 5c-30.667 0 -58.334 -9 -83.001 -27s-44 -43 -58 -75s-21 -68 -21 -108c0 -23.333 4 -44 12 -62zM345.001 112
c24.667 18 44 43 58 75s21 68 21 108c0 24.667 -4.66699 47 -14 67l-191 -270c15.333 -4.66699 29.666 -7 42.999 -7c30.667 0 58.334 9 83.001 27zM406.001 717h124l-136 -162h-102z" />
    <glyph glyph-name="uni0218" unicode="&#x218;" horiz-adv-x="549" 
d="M96 23c-41.333 22 -72.334 52.334 -93.001 91.001l98 80c16.667 -26.667 38.667 -48.167 66 -64.5s55 -24.5 83 -24.5c36.667 0 65.834 8.33301 87.501 25s32.5 39 32.5 67c0 16.667 -7.5 32.334 -22.5 47.001s-42.833 33 -83.5 55
c-58 31.333 -100.167 63.166 -126.5 95.499s-39.5 67.833 -39.5 106.5c0 41.333 10.833 77.833 32.5 109.5s52.334 56.167 92.001 73.5s85.5 26 137.5 26c48.667 0 91.5 -9.83301 128.5 -29.5s63.5 -46.167 79.5 -79.5l-103 -68c-26 41.333 -63.333 62 -112 62
c-33.333 0 -59.833 -7.16699 -79.5 -21.5s-29.5 -33.5 -29.5 -57.5c0 -16 9.5 -31.833 28.5 -47.5s54.167 -36.5 105.5 -62.5c48 -24.667 83 -51.834 105 -81.501s33 -64.5 33 -104.5c0 -71.333 -24.833 -127.5 -74.5 -168.5s-117.834 -61.5 -204.501 -61.5
c-52.667 0 -99.667 11 -141 33zM266.999 -89.999c12.667 -12 19 -27.333 19 -46c0 -27.333 -10 -57 -30 -89s-46.333 -60 -79 -84l-43 39c3.33301 4 10.833 11.833 22.5 23.5s22.167 24.167 31.5 37.5c-15.333 1.33301 -27.833 7 -37.5 17s-14.5 22.333 -14.5 37
c0 24.667 7.66699 44.667 23 60s35.333 23 60 23c19.333 0 35.333 -6 48 -18z" />
    <glyph glyph-name="uni0219" unicode="&#x219;" horiz-adv-x="441" 
d="M60.5 16.5c-33 17.667 -53.832 40.5029 -62.499 68.5029l90 55c8.66699 -16.667 21.334 -30 38.001 -40s35 -15 55 -15c26.667 0 48.167 5.5 64.5 16.5s24.5 25.833 24.5 44.5c0 12.667 -5.66699 24.167 -17 34.5s-30 20.833 -56 31.5c-48 20 -83.167 41.667 -105.5 65
s-33.5 49.666 -33.5 78.999c0 47.333 18 84.833 54 112.5s85 41.5 147 41.5c39.333 0 74.166 -7.33301 104.499 -22s51.833 -35 64.5 -61l-83 -55c-18.667 28.667 -48 43 -88 43c-22 0 -39.333 -4.33301 -52 -13s-19 -20.334 -19 -35.001c0 -10.667 5.66699 -20 17 -28
s34.666 -19.333 69.999 -34c44 -18.667 76.167 -38.834 96.5 -60.501s30.5 -46.167 30.5 -73.5c0 -35.333 -9.5 -66.833 -28.5 -94.5s-45.5 -49 -79.5 -64s-73 -22.5 -117 -22.5c-43.333 0 -81.5 8.83301 -114.5 26.5zM212.001 -89.9971c12.667 -12 19 -27.333 19 -46
c0 -27.333 -10 -57 -30 -89s-46.333 -60 -79 -84l-43 39c3.33301 4 10.833 11.833 22.5 23.5s22.167 24.167 31.5 37.5c-15.333 1.33301 -27.833 7 -37.5 17s-14.5 22.333 -14.5 37c0 24.667 7.66699 44.667 23 60s35.333 23 60 23c19.333 0 35.333 -6 48 -18z" />
    <glyph glyph-name="uni021A" unicode="&#x21a;" horiz-adv-x="590" 
d="M284 594h-208l19 106h560l-19 -106h-208l-105 -594h-144zM285 -90c12.667 -12 19 -27.333 19 -46c0 -27.333 -10 -57 -30 -89s-46.333 -60 -79 -84l-43 39c3.33301 4 10.833 11.833 22.5 23.5s22.167 24.167 31.5 37.5c-15.333 1.33301 -27.833 7 -37.5 17
s-14.5 22.333 -14.5 37c0 24.667 7.66699 44.667 23 60s35.333 23 60 23c19.333 0 35.333 -6 48 -18z" />
    <glyph glyph-name="uni021B" unicode="&#x21b;" horiz-adv-x="420" 
d="M120.5 22c-25 21.333 -37.5 51.667 -37.5 91c0 11.333 1 23.333 3 36l45 256h-91l17 95h91l22 129l130 36h4l-28 -165h145l-17 -95h-145l-42 -236c-1.33301 -12 -2 -20 -2 -24c0 -39.333 22.667 -59 68 -59c26 0 51 4 75 12l-9 -87c-32 -14 -73 -21 -123 -21
c-45.333 0 -80.5 10.667 -105.5 32zM251 -89.999c12.667 -12 19 -27.333 19 -46c0 -27.333 -10 -57 -30 -89s-46.333 -60 -79 -84l-43 39c3.33301 4 10.833 11.833 22.5 23.5s22.167 24.167 31.5 37.5c-15.333 1.33301 -27.833 7 -37.5 17s-14.5 22.333 -14.5 37
c0 24.667 7.66699 44.667 23 60s35.333 23 60 23c19.333 0 35.333 -6 48 -18z" />
    <glyph glyph-name="uni0237" unicode="&#x237;" horiz-adv-x="277" 
d="M-143 -193l22 89c18 -2 39 -3 63 -3c48.667 0 77.334 27 86.001 81l93 526h127l-93 -524c-10.667 -58.667 -32.334 -103.5 -65.001 -134.5s-79 -46.5 -139 -46.5c-36 0 -67.333 4 -94 12z" />
    <glyph glyph-name="uni0251" unicode="&#x251;" horiz-adv-x="542" 
d="M67 42.5c-30 35 -44.998 82.165 -44.998 141.498c0 62.667 10.667 118.834 32 168.501s51 88.334 89 116.001s81 41.5 129 41.5c61.333 0 103 -20.333 125 -61h2l9 51h126l-64 -367l-6 -35l-8.5 -49.5c-3.66699 -21 -5.83398 -37.167 -6.50098 -48.5h-119
c3.33301 26.667 6.66602 48.667 9.99902 66h-2c-18 -23.333 -40.167 -41.833 -66.5 -55.5s-53.5 -20.5 -81.5 -20.5c-52 0 -93 17.5 -123 52.5zM310.002 117.998c24 20 39.001 46.999 45.001 80.999l18 103c1.33301 10.667 2 18.334 2 23.001c0 26 -8.5 47.5 -25.5 64.5
s-38.833 25.5 -65.5 25.5c-25.333 0 -48.333 -9.66699 -69 -29s-36.834 -46 -48.501 -80s-17.5 -72 -17.5 -114c0 -34 6.5 -59.833 19.5 -77.5s32.167 -26.5 57.5 -26.5c32 0 60 10 84 30z" />
    <glyph glyph-name="uni0259" unicode="&#x259;" horiz-adv-x="542" 
d="M457.5 456c38.333 -36 57.5049 -85.001 57.5049 -147.001s-12.333 -117.167 -37 -165.5s-59 -86 -103 -113s-94.333 -40.5 -151 -40.5c-62.667 0 -111.834 17.833 -147.501 53.5s-53.5 83.834 -53.5 144.501c0 22 2.33301 44.333 7 67l8 42h349
c-0.666992 34.667 -9.83398 61 -27.501 79s-43.834 27 -78.501 27c-28.667 0 -54.834 -5 -78.501 -15s-47.834 -26.333 -72.501 -49l-58 65c25.333 32.667 58.5 58.5 99.5 77.5s84.167 28.5 129.5 28.5c66 0 118.167 -18 156.5 -54zM322.005 124.499
c24.667 20.333 42.333 48.833 53 85.5h-232v-6c-2 -36 5 -63.333 21 -82s40.667 -28 74 -28c31.333 0 59.333 10.167 84 30.5z" />
    <glyph glyph-name="uni02BB" unicode="&#x2bb;" horiz-adv-x="200" 
d="M230.5 674.5c9.66699 -9.66699 14.5 -21.833 14.5 -36.5c0 -24.667 -7.83301 -44.667 -23.5 -60s-35.834 -23 -60.501 -23c-19.333 0 -35.166 6 -47.499 18s-18.5 27.333 -18.5 46c0 27.333 10 57 30 89s46 60 78 84l43 -39c-24.667 -24.667 -42.667 -45 -54 -61
c16 -2 28.833 -7.83301 38.5 -17.5z" />
    <glyph glyph-name="uni02BC" unicode="&#x2bc;" horiz-adv-x="200" 
d="M236 734.5c12.667 -11.667 19 -26.835 19 -45.502c0 -27.333 -10.167 -57.166 -30.5 -89.499s-46.5 -60.166 -78.5 -83.499l-43 38c3.33301 4 10.833 11.833 22.5 23.5s22.167 24.167 31.5 37.5c-15.333 2 -27.833 8 -37.5 18s-14.5 22.333 -14.5 37
c0 24.667 7.66699 44.5 23 59.5s35.333 22.5 60 22.5c19.333 0 35.333 -5.83301 48 -17.5z" />
    <glyph glyph-name="uni02BE" unicode="&#x2be;" 
d="M62 602c17.333 0 31.5 5.66699 42.5 17s16.5 26 16.5 44c0 12 -3.83301 21.833 -11.5 29.5s-17.5 11.5 -29.5 11.5l9 47c26 0 47.333 -8 64 -24s25 -36.667 25 -62c0 -34 -11.5 -61.5 -34.5 -82.5s-53.167 -31.5 -90.5 -31.5z" />
    </font>
</defs>
</svg>
