<?xml version="1.0" standalone="no"?>
<!DOCTYPE svg PUBLIC "-//W3C//DTD SVG 1.1//EN" "http://www.w3.org/Graphics/SVG/1.1/DTD/svg11.dtd" >
<svg>
<metadata>
Created by FontForge 20090914 at Tue Dec 10 22:53:38 2019
 By www-data
Copyright 2018 The Sarabun Project Authors (https://github.com/cadsondemak/Sarabun)
</metadata>
<defs>
<font id="Sarabun-LightItalic" horiz-adv-x="0" >
  <font-face 
    font-family="Sarabun Light"
    font-weight="300"
    font-style="italic"
    font-stretch="normal"
    units-per-em="1000"
    panose-1="0 0 4 0 0 0 0 0 0 0"
    ascent="800"
    descent="-200"
    x-height="500"
    cap-height="700"
    bbox="-559.999 -520 1194 1260"
    underline-thickness="50"
    underline-position="-50"
    slope="-10"
    unicode-range="U+000D-U+FB02"
  />
<missing-glyph horiz-adv-x="700" 
d="M112 750h500v-750h-500v750zM568 41v668h-412v-668h412z" />
    <glyph glyph-name="fi" unicode="fi" horiz-adv-x="545" 
d="M126 447h-84l10 53h83l12 66c8 47.333 26.333 84.333 55 111s65.334 40 110.001 40c20.667 0 40.5 -2.83301 59.5 -8.5s32.5 -13.5 40.5 -23.5l-34 -44c-14 14 -34.333 21 -61 21s-48.834 -8.5 -66.501 -25.5s-29.167 -40.833 -34.5 -71.5l-12 -65h145l-9 -53h-145
l-79 -447h-69zM459.5 608.5c-8.33301 7.66699 -12.502 17.167 -12.502 28.5c0 18 5.83301 33 17.5 45s26.834 18 45.501 18c13.333 0 24.333 -3.66699 33 -11s13 -17.333 13 -30c0 -17.333 -6 -32 -18 -44s-27.333 -18 -46 -18c-13.333 0 -24.166 3.83301 -32.499 11.5z
M439.998 500h70l-88 -500h-70z" />
    <glyph glyph-name="fl" unicode="fl" horiz-adv-x="600" 
d="M126 447h-84l10 53h83l12 66c8 47.333 26.333 84.333 55 111s65.334 40 110.001 40c20.667 0 40.5 -2.83301 59.5 -8.5s32.5 -13.5 40.5 -23.5l-34 -44c-14 14 -34.333 21 -61 21s-48.834 -8.5 -66.501 -25.5s-29.167 -40.833 -34.5 -71.5l-12 -65h145l-9 -53h-145
l-79 -447h-69zM360 74c0 6.66699 1.33301 19.332 4 37.999l111 630h69l-110 -626c-2 -12 -3 -22 -3 -30c0 -15.333 3.33301 -26.166 10 -32.499s17.667 -9.5 33 -9.5c13.333 0 30 3.66699 50 11l4 -43c-11.333 -6.66699 -24.5 -12 -39.5 -16s-29.833 -6 -44.5 -6
c-56 0 -84 28 -84 84z" />
    <glyph glyph-name="uni0E240E45" unicode="&#xe24;&#xe45;" horiz-adv-x="870" 
d="M784.5 551c29 -23.333 43.5 -54.998 43.5 -94.998c0 -8.66699 -1 -18.667 -3 -30l-120 -676h-69l119 676c1.33301 9.33301 2 16.333 2 21c0 26 -8.5 46.167 -25.5 60.5s-40.833 21.5 -71.5 21.5c-30 0 -57.333 -8.66699 -82 -26s-42 -41 -52 -71
c0 -16.667 -1.33301 -32 -4 -46l-112 -636h-69l111 629c2 12 3 23 3 33c0 36.667 -11.333 65.334 -34 86.001s-54 31 -94 31c-37.333 0 -72.333 -9.16699 -105 -27.5s-57 -42.5 -73 -72.5c24 -3.33301 46 -9.5 66 -18.5s34.333 -19.5 43 -31.5l-3 -14
c-27.333 -7.33301 -50 -20.166 -68 -38.499s-29.333 -40.166 -34 -65.499l-16 -91c12 6 25.333 9 40 9c23.333 0 42.333 -6.83301 57 -20.5s22 -31.834 22 -54.501c0 -32.667 -11.167 -59.834 -33.5 -81.501s-50.166 -32.5 -83.499 -32.5
c-26.667 0 -47.834 7.33301 -63.501 22s-23.5 34 -23.5 58c0 5.33301 0.666992 12.666 2 21.999l30 167c4.66699 25.333 15.334 48.166 32.001 68.499s37 35.166 61 44.499c-28.667 10 -63.667 15.667 -105 17c12.667 59.333 43.334 107 92.001 143s106.334 54 173.001 54
c38 0 71.167 -6.33301 99.5 -19s50.166 -31 65.499 -55c19.333 23.333 43.166 41.5 71.499 54.5s59.166 19.5 92.499 19.5c50 0 89.5 -11.667 118.5 -35zM196 121.502c-7.33301 7 -17.334 10.5 -30.001 10.5c-16 0 -29.5 -5.33301 -40.5 -16s-16.5 -24.334 -16.5 -41.001
c0 -11.333 3.83301 -20.5 11.5 -27.5s17.5 -10.5 29.5 -10.5c16.667 0 30.334 5.33301 41.001 16s16 24.334 16 41.001c0 11.333 -3.66699 20.5 -11 27.5z" />
    <glyph glyph-name="uni0E260E45" unicode="&#xe26;&#xe45;" horiz-adv-x="903" 
d="M815.5 551.5c29 -23 43.4971 -54.5 43.4971 -94.5c0 -9.33301 -1 -19.666 -3 -30.999l-119 -676h-68l119 676c1.33301 9.33301 2 16.333 2 21c0 25.333 -8.66699 45.333 -26 60s-41.333 22 -72 22c-29.333 0 -56.166 -8.5 -80.499 -25.5s-42.166 -40.167 -53.499 -69.5
c1.33301 -14.667 0.333008 -30.667 -3 -48l-112 -636h-69l111 629c2 12 3 23.333 3 34c0 37.333 -11 66 -33 86s-52.333 30 -91 30c-38 0 -72.167 -9 -102.5 -27s-53.5 -42.333 -69.5 -73c25.333 -3.33301 48 -9.33301 68 -18s34.333 -19.334 43 -32.001l-2 -13
c-33.333 -8.66699 -57.333 -26 -72 -52s-22 -65 -22 -117v-30c0 -64 -10.667 -109.5 -32 -136.5s-52.333 -40.5 -93 -40.5c-24.667 0 -44.834 7 -60.501 21s-23.5 32.333 -23.5 55c0 33.333 10.667 60.833 32 82.5s48.666 32.5 81.999 32.5
c12.667 0 23.334 -2.33301 32.001 -7c-1.33301 13.333 -2 24.333 -2 33c0 44.667 7.33301 80.667 22 108s34.334 46.333 59.001 57c-12 4.66699 -27.667 8.5 -47 11.5s-39.666 4.83301 -60.999 5.5c8 38 24 71.833 48 101.5s54 53 90 70s76 25.5 120 25.5
c37.333 0 70 -6.33301 98 -19s49.333 -30.667 64 -54c20 23.333 44 41.333 72 54s58.667 19 92 19c48.667 0 87.5 -11.5 116.5 -34.5zM128.997 53.5c10.667 11 16 24.833 16 41.5c0 11.333 -3.66699 20.5 -11 27.5s-17 10.5 -29 10.5
c-16.667 0 -30.334 -5.33301 -41.001 -16s-16 -24.334 -16 -41.001c0 -11.333 3.66699 -20.666 11 -27.999s17 -11 29 -11c16.667 0 30.334 5.5 41.001 16.5z" />
    <glyph glyph-name=".notdef" horiz-adv-x="700" 
d="M112 750h500v-750h-500v750zM568 41v668h-412v-668h412z" />
    <glyph glyph-name="NULL" 
 />
    <glyph glyph-name="NULL" 
 />
    <glyph glyph-name="nonmarkingreturn" unicode="&#xd;" horiz-adv-x="247" 
 />
    <glyph glyph-name="space" unicode=" " horiz-adv-x="247" 
 />
    <glyph glyph-name="exclam" unicode="!" horiz-adv-x="230" 
d="M152 700h84l-102 -516h-62zM33 3c-9.33301 8.66699 -14.002 19.667 -14.002 33c0 20.667 6.5 37.5 19.5 50.5s30.167 19.5 51.5 19.5c14.667 0 26.834 -4.33301 36.501 -13s14.5 -19.667 14.5 -33c0 -20.667 -6.66699 -37.5 -20 -50.5s-30.666 -19.5 -51.999 -19.5
c-14.667 0 -26.667 4.33301 -36 13z" />
    <glyph glyph-name="quotedbl" unicode="&#x22;" horiz-adv-x="336" 
d="M136 710h77l-53 -242h-57zM285 710h77l-53 -242h-57z" />
    <glyph glyph-name="numbersign" unicode="#" horiz-adv-x="679" 
d="M565 437l-52 -175h91l-10 -57h-98l-62 -205h-66l62 205h-224l-62 -205h-66l62 205h-91l10 57h98l52 175h-99l10 58h107l61 205h66l-61 -205h224l61 205h66l-61 -205h82l-10 -58h-90zM499 437h-224l-52 -175h224z" />
    <glyph glyph-name="dollar" unicode="$" horiz-adv-x="526" 
d="M231.5 615c-28.333 -22 -42.502 -50.6699 -42.502 -86.0029c0 -24.667 10.333 -46.667 31 -66s57.667 -44 111 -74c92.667 -50.667 139 -114 139 -190c0 -58.667 -19.5 -106.667 -58.5 -144s-90.5 -58.666 -154.5 -63.999l-12 -68h-65l12 69
c-39.333 4.66699 -74.5 16 -105.5 34s-54.167 40.667 -69.5 68l53 45c16.667 -26 39.334 -47 68.001 -63s58.667 -24 90 -24c48 0 87.667 13 119 39s47 59.667 47 101c0 30 -10.167 56 -30.5 78s-50.833 44 -91.5 66c-52.667 28.667 -92.167 57.834 -118.5 87.501
s-39.5 63.167 -39.5 100.5c0 52.667 18.833 95.834 56.5 129.501s87.167 52.167 148.5 55.5l10 60h65l-11 -62c36 -6 67.167 -18.167 93.5 -36.5s44.166 -40.5 53.499 -66.5l-56 -35c-11.333 24 -29.166 43.167 -53.499 57.5s-51.5 21.5 -81.5 21.5
c-43.333 0 -79.166 -11 -107.499 -33z" />
    <glyph glyph-name="percent" unicode="%" horiz-adv-x="880" 
d="M125 359c-23.333 26.667 -35 61.667 -35 105c0 46.667 7.83301 88.667 23.5 126s37.667 66.666 66 87.999s60.166 32 95.499 32c38 0 68.833 -13.333 92.5 -40s35.5 -61.667 35.5 -105c0 -47.333 -8 -89.666 -24 -126.999s-38.167 -66.5 -66.5 -87.5
s-60.166 -31.5 -95.499 -31.5c-38 0 -68.667 13.333 -92 40zM694 700h74l-555 -713h-73zM281.5 396.5c17.667 16.333 31.667 39 42 68s15.5 61.5 15.5 97.5c0 28.667 -6.16699 51.5 -18.5 68.5s-28.833 25.5 -49.5 25.5c-22.667 0 -43 -8.16699 -61 -24.5
s-32.167 -38.833 -42.5 -67.5s-15.5 -61 -15.5 -97c0 -28.667 6.16699 -51.667 18.5 -69s29.166 -26 50.499 -26c22.667 0 42.834 8.16699 60.501 24.5zM548 30c-23.333 26.667 -35 61.667 -35 105c0 47.333 7.83301 89.666 23.5 126.999s37.667 66.5 66 87.5
s60.166 31.5 95.499 31.5c38 0 68.667 -13.333 92 -40s35 -61.667 35 -105c0 -47.333 -8 -89.666 -24 -126.999s-38 -66.5 -66 -87.5s-60 -31.5 -96 -31.5c-37.333 0 -67.666 13.333 -90.999 40zM704.5 68.5c17.667 16.333 31.665 38.833 41.998 67.5s15.5 61 15.5 97
c0 29.333 -6.16699 52.5 -18.5 69.5s-28.833 25.5 -49.5 25.5c-22.667 0 -43 -8.16699 -61 -24.5s-32.167 -39 -42.5 -68s-15.5 -61.5 -15.5 -97.5c0 -28.667 6.33301 -51.5 19 -68.5s29.334 -25.5 50.001 -25.5c22.667 0 42.834 8.16699 60.501 24.5z" />
    <glyph glyph-name="ampersand" unicode="&#x26;" horiz-adv-x="657" 
d="M590 39l-49.998 -48.999l-75 78c-68.667 -52 -145 -78 -229 -78c-62.667 0 -113.334 14.667 -152.001 44s-58 70 -58 122c0 50.667 16.833 97.667 50.5 141s78.834 76.666 135.501 99.999c-23.333 50 -35 93 -35 129s7.66699 67.833 23 95.5s37.166 49.334 65.499 65.001
s61.166 23.5 98.499 23.5c42 0 76 -11 102 -33s39 -50.333 39 -85c0 -40.667 -17.833 -80.834 -53.5 -120.501s-84.167 -73.5 -145.5 -101.5l10 -16c36.667 -55.333 89 -120 157 -194c38 42 67 92.667 87 152h67c-22.667 -76 -59.667 -142 -111 -198zM279.002 619.501
c-21.333 -21.667 -32.001 -49.834 -32.001 -84.501c0 -35.333 12 -76.333 36 -123c46 22.667 82.833 49.167 110.5 79.5s41.5 60.833 41.5 91.5c0 20.667 -6.83301 37.334 -20.5 50.001s-31.5 19 -53.5 19c-33.333 0 -60.666 -10.833 -81.999 -32.5zM423.001 113.001
c-74 82.667 -129.667 151.333 -167 206c-4 6 -7.66699 11.833 -11 17.5s-6.33301 10.5 -9 14.5c-40.667 -20 -73.167 -46.167 -97.5 -78.5s-36.5 -66.5 -36.5 -102.5c0 -37.333 13.333 -66.5 40 -87.5s62.667 -31.5 108 -31.5c61.333 0 119 20.667 173 62z" />
    <glyph glyph-name="quotesingle" unicode="'" horiz-adv-x="188" 
d="M136 710h77l-53 -242h-57z" />
    <glyph glyph-name="parenleft" unicode="(" horiz-adv-x="305" 
d="M69 58.5c-16 49 -24 102.168 -24 159.501c0 68.667 9.83301 137.167 29.5 205.5s47.167 130.833 82.5 187.5s76 103 122 139h76c-46 -32 -87 -76.333 -123 -133s-64.167 -119.834 -84.5 -189.501s-30.5 -140.167 -30.5 -211.5c0 -59.333 8.33301 -113.5 25 -162.5
s40 -87.5 70 -115.5h-75c-29.333 31.333 -52 71.5 -68 120.5z" />
    <glyph glyph-name="parenright" unicode=")" horiz-adv-x="305" 
d="M107 72c36 56.667 64.168 119.83 84.501 189.497s30.5 139.834 30.5 210.501c0 59.333 -8.5 113.5 -25.5 162.5s-40.167 87.5 -69.5 115.5h74c29.333 -30.667 52.166 -70.667 68.499 -120s24.5 -102.666 24.5 -159.999c0 -68.667 -9.83301 -137 -29.5 -205
s-47.167 -130.5 -82.5 -187.5s-76.333 -103.5 -123 -139.5h-75c46 32.667 87 77.334 123 134.001z" />
    <glyph glyph-name="asterisk" unicode="*" horiz-adv-x="448" 
d="M119 394l115 122l-152 -10l11 63l149 -10l-72 122l68 36l45 -134l92 134l56 -36l-114 -122l151 10l-11 -63l-148 10l71 -122l-68 -37l-45 134l-92 -134z" />
    <glyph glyph-name="plus" unicode="+" horiz-adv-x="603" 
d="M266 234h-216l10 56h216l41 234h65l-41 -234h217l-10 -56h-217l-41 -234h-65z" />
    <glyph glyph-name="comma" unicode="," horiz-adv-x="237" 
d="M133 96.5c9.33301 -11 14.001 -25.165 14.001 -42.498c0 -32.667 -12.833 -70.834 -38.5 -114.501s-57.167 -79.5 -94.5 -107.5l-23 33c18.667 16.667 35.834 36.5 51.501 59.5s27.5 45.833 35.5 68.5l-14 -1c-12.667 0 -22.834 4.16699 -30.501 12.5
s-11.5 19.166 -11.5 32.499c0 22 7 40.167 21 54.5s31.667 21.5 53 21.5c15.333 0 27.666 -5.5 36.999 -16.5z" />
    <glyph glyph-name="hyphen" unicode="-" horiz-adv-x="340" 
d="M44 293h267l-10 -54h-266z" />
    <glyph glyph-name="period" unicode="." horiz-adv-x="237" 
d="M39 3c-8.66699 8.66699 -13 19.667 -13 33c0 20.667 6.33301 37.667 19 51s28.667 20 48 20c14 0 25.333 -4.33301 34 -13s13 -19.667 13 -33c0 -20.667 -6.33301 -37.667 -19 -51s-28.667 -20 -48 -20c-14 0 -25.333 4.33301 -34 13z" />
    <glyph glyph-name="slash" unicode="/" horiz-adv-x="396" 
d="M438 725h66l-515 -768h-66z" />
    <glyph glyph-name="zero" unicode="0" horiz-adv-x="545" 
d="M136.5 18c-28.333 18.667 -50.333 45.5 -66 80.5s-23.5 76.5 -23.5 124.5c0 93.333 12.667 177 38 251s60.666 131.833 105.999 173.5s97 62.5 155 62.5c36.667 0 69.167 -9.33301 97.5 -28s50.333 -45.5 66 -80.5s23.5 -75.833 23.5 -122.5c0 -94 -12.667 -178 -38 -252
s-60.666 -132 -105.999 -174s-97 -63 -155 -63c-36.667 0 -69.167 9.33301 -97.5 28zM350.5 104c33.667 37.333 60.167 88.833 79.5 154.5s29 138.834 29 219.501c0 53.333 -10.333 95.666 -31 126.999s-48.667 47 -84 47c-42 0 -80 -18.5 -114 -55.5s-60.667 -88 -80 -153
s-29 -138.167 -29 -219.5c0 -54.667 10.5 -97.667 31.5 -129s49.167 -47 84.5 -47c42 0 79.833 18.667 113.5 56z" />
    <glyph glyph-name="one" unicode="1" horiz-adv-x="545" 
d="M100 61h122l97 550l-155 -83l12 69l186 103h46l-112 -639h122l-11 -61h-318z" />
    <glyph glyph-name="two" unicode="2" horiz-adv-x="545" 
d="M35 69c70 45.333 135.668 96.667 197.001 154s110.666 114.5 147.999 171.5s56 107.5 56 151.5c0 32 -9.66699 57 -29 75s-46 27 -80 27c-33.333 0 -66.833 -8 -100.5 -24s-61.5 -37 -83.5 -63l-31 45c23.333 32 54.833 57.333 94.5 76s81.834 28 126.501 28
c55.333 0 99.166 -14 131.499 -42s48.5 -65.333 48.5 -112c0 -68 -33 -144.5 -99 -229.5s-160.667 -173.5 -284 -265.5h333l-11 -61h-429z" />
    <glyph glyph-name="three" unicode="3" horiz-adv-x="545" 
d="M97 17.5c-36.667 18.333 -61.6641 42.8359 -74.9971 73.5029l47 45c12 -25.333 32.333 -45.666 61 -60.999s61 -23 97 -23c34.667 0 66 7.16699 94 21.5s50.167 34 66.5 59s24.5 52.167 24.5 81.5c0 38 -15.667 67.667 -47 89s-75 32 -131 32h-28l11 63h27
c37.333 0 71.666 7.33301 102.999 22s56 34.5 74 59.5s27 52.167 27 81.5c0 28 -9.5 49.5 -28.5 64.5s-46.167 22.5 -81.5 22.5s-69.5 -7.5 -102.5 -22.5s-60.5 -35.5 -82.5 -61.5l-30 45c24 31.333 56 56 96 74s82.667 27 128 27c53.333 0 96 -12.5 128 -37.5
s48 -58.5 48 -100.5c0 -44.667 -16.167 -85.834 -48.5 -123.501s-74.5 -64.167 -126.5 -79.5c44.667 -8.66699 79 -26.334 103 -53.001s36 -59.667 36 -99c0 -42.667 -11.167 -81.334 -33.5 -116.001s-53.333 -61.834 -93 -81.501s-84.834 -29.5 -135.501 -29.5
c-48.667 0 -91.334 9.16699 -128.001 27.5z" />
    <glyph glyph-name="four" unicode="4" horiz-adv-x="545" 
d="M335 124h-328l12 66l397 510h95l-91 -514h81l-11 -62h-81l-21 -124h-74zM346 186l76 431l-335 -431h259z" />
    <glyph glyph-name="five" unicode="5" horiz-adv-x="545" 
d="M94.5 17.5c-36.333 18.333 -61.1699 42.833 -74.5029 73.5l46 48c13.333 -27.333 33.833 -48.666 61.5 -63.999s59.167 -23 94.5 -23c37.333 0 71 9.5 101 28.5s53.5 45 70.5 78s25.5 70.167 25.5 111.5c0 39.333 -10.667 70.166 -32 92.499s-51.333 33.5 -90 33.5
c-28 0 -55.5 -6.16699 -82.5 -18.5s-49.167 -29.166 -66.5 -50.499h-62l98 373h367l-10 -62h-300l-59 -225c16.667 13.333 37.834 24 63.501 32s51.834 12 78.501 12c53.333 0 95.666 -16.167 126.999 -48.5s47 -75.5 47 -129.5c0 -56 -11.833 -105.833 -35.5 -149.5
s-56.667 -77.834 -99 -102.501s-90.166 -37 -143.499 -37c-47.333 0 -89.166 9.16699 -125.499 27.5z" />
    <glyph glyph-name="six" unicode="6" horiz-adv-x="545" 
d="M95.5 44.5c-35.667 36.333 -53.502 85.499 -53.502 147.499c0 76.667 22 152.5 66 227.5s102.667 138.833 176 191.5s151.333 86 234 100l-2 -58c-73.333 -16.667 -141.666 -50 -204.999 -100s-110.333 -107 -141 -171c16 19.333 37.167 34.5 63.5 45.5
s54.5 16.5 84.5 16.5c55.333 0 99 -16.667 131 -50s48 -77.333 48 -132c0 -51.333 -11.167 -97.666 -33.5 -138.999s-53.166 -73.833 -92.499 -97.5s-83.333 -35.5 -132 -35.5c-60 0 -107.833 18.167 -143.5 54.5zM333.498 78.999c27.667 18 49.501 42.667 65.501 74
s24 66 24 104c0 38.667 -10.833 69.167 -32.5 91.5s-51.834 33.5 -90.501 33.5c-33.333 0 -64 -9 -92 -27s-50 -42.667 -66 -74s-24 -65.666 -24 -102.999c0 -38.667 11 -69.334 33 -92.001s52.333 -34 91 -34c33.333 0 63.833 9 91.5 27z" />
    <glyph glyph-name="seven" unicode="7" horiz-adv-x="545" 
d="M206.5 221c23 66.667 56.166 135.332 99.499 205.999s100 141 170 211h-351l10 62h434l-12 -67c-177.333 -166 -288.666 -377 -333.999 -633h-76c16.667 80.667 36.5 154.334 59.5 221.001z" />
    <glyph glyph-name="eight" unicode="8" horiz-adv-x="545" 
d="M83.5 34.5c-37 29.667 -55.5 69.5039 -55.5 119.504c0 49.333 14 93.666 42 132.999s66.333 68.333 115 87c-22 9.33301 -39.333 25.833 -52 49.5s-19 50.5 -19 80.5c0 40 9.83301 75.667 29.5 107s47.167 55.666 82.5 72.999s76 26 122 26
c55.333 0 99.833 -13.667 133.5 -41s50.5 -63 50.5 -107c0 -40.667 -12 -78.5 -36 -113.5s-54.667 -59.833 -92 -74.5c30 -12.667 52.833 -32 68.5 -58s23.5 -56 23.5 -90c0 -46.667 -11 -87.834 -33 -123.501s-52.833 -63.334 -92.5 -83.001s-85.5 -29.5 -137.5 -29.5
c-62.667 0 -112.5 14.833 -149.5 44.5zM412.5 444.004c29 28 43.5 63.999 43.5 107.999c0 28.667 -10.5 51.834 -31.5 69.501s-48.167 26.5 -81.5 26.5c-46 0 -83.5 -13.833 -112.5 -41.5s-43.5 -63.5 -43.5 -107.5c0 -28.667 10.5 -52 31.5 -70s48.167 -27 81.5 -27
c46 0 83.5 14 112.5 42zM334 75.0029c28 15.333 49.833 36.667 65.5 64s23.5 58.333 23.5 93c0 33.333 -12.5 60.333 -37.5 81s-57.167 31 -96.5 31c-36 0 -68 -7.5 -96 -22.5s-49.833 -36 -65.5 -63s-23.5 -57.5 -23.5 -91.5s12.5 -61.667 37.5 -83s57.167 -32 96.5 -32
c36 0 68 7.66699 96 23z" />
    <glyph glyph-name="nine" unicode="9" horiz-adv-x="545" 
d="M66 47c51.333 11.333 100.332 30.333 146.999 57s87.334 58.334 122.001 95.001s60.334 75.667 77.001 117c-16 -18 -37.333 -32.5 -64 -43.5s-54.334 -16.5 -83.001 -16.5c-54 0 -97.667 17 -131 51s-50 78.333 -50 133c0 50.667 11.333 96.5 34 137.5
s53.667 73.333 93 97s83 35.5 131 35.5c60.667 0 108.5 -18.333 143.5 -55s52.5 -86.334 52.5 -149.001c0 -80 -21.167 -157.167 -63.5 -231.5s-99.833 -137 -172.5 -188s-151.667 -83.5 -237 -97.5zM371.999 343.5c28 18.333 50.166 43.166 66.499 74.499s24.5 66 24.5 104
c0 38.667 -11.167 69.334 -33.5 92.001s-52.833 34 -91.5 34c-33.333 0 -63.666 -9.16699 -90.999 -27.5s-49 -43.166 -65 -74.499s-24 -66 -24 -104c0 -38.667 10.667 -69.334 32 -92.001s51 -34 89 -34c34 0 65 9.16699 93 27.5z" />
    <glyph glyph-name="colon" unicode=":" horiz-adv-x="237" 
d="M103 368c-8.66699 8.66699 -13 19.667 -13 33c0 20.667 6.33301 37.5 19 50.5s29 19.5 49 19.5c13.333 0 24.333 -4.33301 33 -13s13 -19.667 13 -33c0 -20.667 -6.16699 -37.5 -18.5 -50.5s-28.5 -19.5 -48.5 -19.5c-14 0 -25.333 4.33301 -34 13zM39 1
c-8.66699 8.66699 -13.001 19.667 -13.001 33c0 20.667 6.33301 37.667 19 51s28.667 20 48 20c13.333 0 24.333 -4.33301 33 -13s13 -19.667 13 -33c0 -20.667 -6.16699 -37.667 -18.5 -51s-28.166 -20 -47.499 -20c-14 0 -25.333 4.33301 -34 13z" />
    <glyph glyph-name="semicolon" unicode=";" horiz-adv-x="237" 
d="M191 458c8.66699 -8.66699 13 -19.667 13 -33c0 -20.667 -6.16699 -37.5 -18.5 -50.5s-28.5 -19.5 -48.5 -19.5c-14 0 -25.333 4.33301 -34 13s-13 19.667 -13 33c0 20.667 6.33301 37.5 19 50.5s29 19.5 49 19.5c13.333 0 24.333 -4.33301 33 -13zM131 96.5
c9.33301 -11 13.999 -25.165 13.999 -42.498c0 -32.667 -12.833 -70.834 -38.5 -114.501s-57.167 -79.5 -94.5 -107.5l-23 33c18.667 16.667 35.834 36.5 51.501 59.5s27.834 45.833 36.501 68.5l-15 -1c-12.667 0 -22.667 4.16699 -30 12.5s-11 19.166 -11 32.499
c0 22 6.83301 40.167 20.5 54.5s31.167 21.5 52.5 21.5c15.333 0 27.666 -5.5 36.999 -16.5z" />
    <glyph glyph-name="less" unicode="&#x3c;" horiz-adv-x="603" 
d="M64 259l7 40l524 260l-12 -67l-432 -217l355 -215l-9 -60z" />
    <glyph glyph-name="equal" unicode="=" horiz-adv-x="603" 
d="M96 392h461l-10 -58h-461zM61 191h460l-10 -58h-460z" />
    <glyph glyph-name="greater" unicode="&#x3e;" horiz-adv-x="603" 
d="M29 67l432 215l-356 217l12 60l433 -260l-8 -40l-524 -259z" />
    <glyph glyph-name="question" unicode="?" horiz-adv-x="448" 
d="M172 173c0 28.667 5.16699 54.835 15.5 78.502s23 44.5 38 62.5s34.833 39 59.5 63c23.333 23.333 42 43.166 56 59.499s25.667 35 35 56s14 43.833 14 68.5c0 60 -34.667 90 -104 90c-28 0 -55.5 -7.33301 -82.5 -22s-50.167 -34.667 -69.5 -60l-33 45
c21.333 30 49.333 53.333 84 70s72.667 25 114 25c52.667 0 93.5 -11.833 122.5 -35.5s43.5 -56.834 43.5 -99.501c0 -30 -5.16699 -56.833 -15.5 -80.5s-23 -44.334 -38 -62.001s-35.5 -38.834 -61.5 -63.501s-46.333 -45.667 -61 -63s-27.167 -37.666 -37.5 -60.999
s-15.5 -49.666 -15.5 -78.999v-7h-63zM143 2.50098c-9.33301 8.33301 -13.999 19.168 -13.999 32.501c0 20 6.5 36.333 19.5 49s29.833 19 50.5 19c14 0 25.5 -4.16699 34.5 -12.5s13.5 -18.833 13.5 -31.5c0 -20.667 -6.33301 -37.334 -19 -50.001s-29.334 -19 -50.001 -19
c-14 0 -25.667 4.16699 -35 12.5z" />
    <glyph glyph-name="at" unicode="@" horiz-adv-x="791" 
d="M155.5 -109c-43 24 -76.5 57.333 -100.5 100s-36 91 -36 145c0 89.333 19 168.666 57 237.999s91.333 123.166 160 161.499s147 57.5 235 57.5c56 0 106.167 -11.333 150.5 -34s78.833 -54.167 103.5 -94.5s37 -86.166 37 -137.499c0 -58.667 -10 -111.167 -30 -157.5
s-47.833 -83 -83.5 -110s-76.5 -41.833 -122.5 -44.5l-41 -2l-5 67c-22 -22.667 -48.167 -41 -78.5 -55s-58.833 -21 -85.5 -21c-36.667 0 -66.5 10.333 -89.5 31s-34.5 47.334 -34.5 80.001c0 33.333 8.66699 63 26 89s41.5 46.333 72.5 61s66.5 22 106.5 22h109l5 26
c1.33301 9.33301 2 15.666 2 18.999c0 24.667 -8.16699 44.334 -24.5 59.001s-37.833 22 -64.5 22c-25.333 0 -51.166 -6.33301 -77.499 -19s-47.833 -29 -64.5 -49l-27 35c20.667 23.333 47.667 42.5 81 57.5s65.666 22.5 96.999 22.5c41.333 0 73.833 -11.5 97.5 -34.5
s35.5 -53.5 35.5 -91.5c0 -11.333 -1 -23 -3 -35l-30 -170c-1.33301 -6.66699 -2 -18.334 -2 -35.001c0 -13.333 0.333008 -23 1 -29c33.333 2.66699 63 15.167 89 37.5s46.167 52.333 60.5 90s21.5 79.834 21.5 126.501c0 42.667 -9.83301 80.667 -29.5 114
s-47.5 59.333 -83.5 78s-77.667 28 -125 28c-74.667 0 -141 -16.833 -199 -50.5s-103.333 -80.5 -136 -140.5s-49 -128.667 -49 -206c0 -45.333 10.167 -85.5 30.5 -120.5s48.5 -62.333 84.5 -82s77.333 -29.5 124 -29.5c30 0 61.167 3.83301 93.5 11.5
s58.5 17.167 78.5 28.5l15 -45c-24 -14.667 -55 -26.667 -93 -36s-75.333 -14 -112 -14c-54.667 0 -103.5 12 -146.5 36zM400 65.5c22 9.66699 40.501 22.5 55.501 38.5s23.833 33 26.5 51l16 87h-104c-42 0 -76.5 -11 -103.5 -33s-40.5 -50.333 -40.5 -85
c0 -22.667 7.66699 -40.5 23 -53.5s34.666 -19.5 57.999 -19.5c24 0 47 4.83301 69 14.5z" />
    <glyph glyph-name="A" unicode="A" horiz-adv-x="581" 
d="M421 164h-282l-80 -164h-85l360 700h71l114 -700h-75zM412 225l-55 386l-188 -386h243z" />
    <glyph glyph-name="B" unicode="B" horiz-adv-x="584" 
d="M165 700h176.001c69.333 0 122.166 -11.5 158.499 -34.5s54.5 -56.167 54.5 -99.5c0 -46 -12.667 -85.833 -38 -119.5s-60.333 -57.5 -105 -71.5v-2c76 -20 114 -65.333 114 -136c0 -78 -22.333 -137 -67 -177s-110.667 -60 -198 -60h-218zM309.001 399
c51.333 0 92.501 14.167 123.501 42.5s46.5 66.166 46.5 113.499c0 28.667 -11.333 49.834 -34 63.501s-57.334 20.5 -104.001 20.5h-113l-42 -240h123zM268.002 61c58.667 0 103.833 14.667 135.5 44s47.5 71.333 47.5 126c0 38 -14.333 65.833 -43 83.5
s-73.667 26.5 -135 26.5h-97l-49 -280h141z" />
    <glyph glyph-name="C" unicode="C" horiz-adv-x="576" 
d="M112.5 61c-44.333 47.333 -66.499 112 -66.499 194c0 85.333 15.667 162.666 47 231.999s74.833 123.833 130.5 163.5s118.167 59.5 187.5 59.5c46.667 0 88.167 -9.33301 124.5 -28s61.166 -44 74.499 -76l-49 -44c-28 57.333 -78.667 86 -152 86
c-54 0 -103 -16.833 -147 -50.5s-78.5 -80.167 -103.5 -139.5s-37.5 -125.666 -37.5 -198.999c0 -66 15.5 -117 46.5 -153s74.833 -54 131.5 -54c79.333 0 142 28.667 188 86l33 -44c-25.333 -33.333 -57.5 -59 -96.5 -77s-82.167 -27 -129.5 -27
c-76.667 0 -137.167 23.667 -181.5 71z" />
    <glyph glyph-name="D" unicode="D" horiz-adv-x="618" 
d="M165 700h216c147.333 0 221 -75 221 -225c0 -99.333 -14.333 -184.5 -43 -255.5s-70.5 -125.333 -125.5 -163s-120.833 -56.5 -197.5 -56.5h-194zM255 62c54 0 101.667 16.999 143 50.999s73.333 82 96 144s34 133 34 213c0 58.667 -13.333 101.334 -40 128.001
s-67 40 -121 40h-139l-101 -576h128z" />
    <glyph glyph-name="E" unicode="E" horiz-adv-x="546" 
d="M165 700h404l-10 -62h-331l-41 -238h295l-11 -63h-296l-48 -275h330l-11 -62h-404z" />
    <glyph glyph-name="F" unicode="F" horiz-adv-x="543" 
d="M165 700h409l-10 -62h-336l-46 -267h313l-11 -62h-314l-54 -309h-74z" />
    <glyph glyph-name="G" unicode="G" horiz-adv-x="633" 
d="M340 356l244.999 0.000976562l-62 -356h-46l-8 47c-24 -18.667 -51.167 -32.834 -81.5 -42.501s-62.5 -14.5 -96.5 -14.5c-75.333 0 -135 23.667 -179 71s-66 112 -66 194c0 85.333 15.667 162.666 47 231.999s74.833 123.833 130.5 163.5s118.167 59.5 187.5 59.5
c50 0 93.833 -9.33301 131.5 -28s62.834 -44 75.501 -76l-47 -43c-13.333 27.333 -34 48.333 -62 63s-62 22 -102 22c-53.333 0 -101.833 -17 -145.5 -51s-78 -80.667 -103 -140s-37.5 -125.666 -37.5 -198.999c0 -66.667 15.5 -118 46.5 -154s75.167 -54 132.5 -54
c32 0 62.833 5.16699 92.5 15.5s55.167 24.833 76.5 43.5l34 190h-173z" />
    <glyph glyph-name="H" unicode="H" horiz-adv-x="674" 
d="M164 700h74l-55 -316h356l55 316h74l-123 -700h-74l57 322h-356l-57 -322h-74z" />
    <glyph glyph-name="I" unicode="I" horiz-adv-x="284" 
d="M184 700h74l-123 -700h-74z" />
    <glyph glyph-name="J" unicode="J" horiz-adv-x="423" 
d="M27.5 2.5c-25 8.33301 -44.166 19.167 -57.499 32.5l38 55c11.333 -11.333 26.166 -20.5 44.499 -27.5s37.166 -10.5 56.499 -10.5c42.667 0 76 15 100 45s41.333 75.667 52 137l82 466h74l-84 -477c-14 -80.667 -39.167 -139.667 -75.5 -177s-87.166 -56 -152.499 -56
c-26.667 0 -52.5 4.16699 -77.5 12.5z" />
    <glyph glyph-name="K" unicode="K" horiz-adv-x="588" 
d="M336 415l192 -415h-73l-172 363l-126 -123l-42 -240h-74l123 700h74l-62 -358l363 358h88z" />
    <glyph glyph-name="L" unicode="L" horiz-adv-x="537" 
d="M164 700h74l-112 -638h341l-11 -62h-415z" />
    <glyph glyph-name="M" unicode="M" horiz-adv-x="793" 
d="M786 700l-123 -700h-72l103 578l-317 -578h-50l-112 575l-101 -575h-72l123 700h89l113 -605l327 605h92z" />
    <glyph glyph-name="N" unicode="N" horiz-adv-x="677" 
d="M670 700l-123 -700h-75l-253 591l-104 -591h-74l123 700h82l248 -583l103 583h73z" />
    <glyph glyph-name="O" unicode="O" horiz-adv-x="655" 
d="M111.5 61.5c-43.667 47.667 -65.499 112.5 -65.499 194.5c0 84.667 15.5 161.667 46.5 231s73.833 123.833 128.5 163.5s115.667 59.5 183 59.5c48.667 0 91.167 -10.833 127.5 -32.5s64.333 -52.5 84 -92.5s29.5 -87 29.5 -141c0 -84.667 -15.5 -161.667 -46.5 -231
s-73.667 -123.833 -128 -163.5s-114.833 -59.5 -181.5 -59.5c-74.667 0 -133.834 23.833 -177.501 71.5zM433.001 103c42 34.667 75.335 81.832 100.002 141.499s37 124.834 37 195.501c0 65.333 -15 116.5 -45 153.5s-72 55.5 -126 55.5
c-50.667 0 -97.334 -17.333 -140.001 -52s-76.334 -81.667 -101.001 -141s-37 -124.333 -37 -195c0 -66 15.167 -117.5 45.5 -154.5s72.833 -55.5 127.5 -55.5c50.667 0 97 17.333 139 52z" />
    <glyph glyph-name="P" unicode="P" horiz-adv-x="568" 
d="M165 700l189 0.000976562c65.333 0 115.833 -13.833 151.5 -41.5s53.5 -67.5 53.5 -119.5c0 -54.667 -11 -102.334 -33 -143.001s-53.333 -72.167 -94 -94.5s-88.667 -33.5 -144 -33.5h-125l-47 -268h-74zM304 331.001c34.667 0 65.832 8.16699 93.499 24.5
s49.334 39.333 65.001 69s23.5 63.167 23.5 100.5s-11.5 65.5 -34.5 84.5s-56.833 28.5 -101.5 28.5h-122l-54 -307h130z" />
    <glyph glyph-name="Q" unicode="Q" horiz-adv-x="655" 
d="M608 236c-24.667 -63.333 -58.833 -115.832 -102.5 -157.499s-93.5 -68.834 -149.5 -81.501c43.333 -20 105 -36 185 -48l-22 -53c-50 7.33301 -98.333 19.666 -145 36.999s-88.667 37.333 -126 60c-63.333 8.66699 -112.833 36.167 -148.5 82.5s-53.5 106.5 -53.5 180.5
c0 84.667 15.5 161.667 46.5 231s73.833 123.833 128.5 163.5s115.667 59.5 183 59.5c48.667 0 91.167 -10.833 127.5 -32.5s64.333 -52.5 84 -92.5s29.5 -87 29.5 -141c0 -75.333 -12.333 -144.666 -37 -207.999zM166.501 106.501
c30.333 -37 72.835 -55.502 127.502 -55.502c50.667 0 97 17.333 139 52s75.333 81.834 100 141.501s37 124.834 37 195.501c0 65.333 -15 116.5 -45 153.5s-72 55.5 -126 55.5c-50.667 0 -97.334 -17.333 -140.001 -52s-76.334 -81.667 -101.001 -141
s-37 -124.333 -37 -195c0 -66 15.167 -117.5 45.5 -154.5z" />
    <glyph glyph-name="R" unicode="R" horiz-adv-x="577" 
d="M165 700h198.001c64.667 0 114.334 -12.167 149.001 -36.5s52 -59.833 52 -106.5c0 -58 -15.5 -106.833 -46.5 -146.5s-74.167 -65.5 -129.5 -77.5v-2c12.667 -8.66699 22.667 -18.5 30 -29.5s13 -24.833 17 -41.5l59 -260h-80l-50 230
c-6.66699 31.333 -17.834 52.833 -33.501 64.5s-40.834 17.5 -75.501 17.5h-84l-55 -312h-74zM310.001 373c56 0 100 15.332 132 45.999s48 72.334 48 125.001c0 62.667 -45.333 94 -136 94h-126l-46 -265h128z" />
    <glyph glyph-name="S" unicode="S" horiz-adv-x="525" 
d="M100.5 18.5c-37.667 19 -65.5 44.165 -83.5 75.498l53 45c16.667 -26 39.334 -47 68.001 -63s58.667 -24 90 -24c48 0 87.667 13 119 39s47 59.667 47 101c0 30 -10.167 56 -30.5 78s-50.833 44 -91.5 66c-52.667 28.667 -92.167 57.834 -118.5 87.501
s-39.5 63.167 -39.5 100.5s9.66699 70 29 98s46 49.667 80 65s72.667 23 116 23c45.333 0 85.666 -9.83301 120.999 -29.5s58.666 -45.167 69.999 -76.5l-56 -35c-11.333 24 -29.166 43.167 -53.499 57.5s-51.5 21.5 -81.5 21.5c-43.333 0 -79.166 -11 -107.499 -33
s-42.5 -50.667 -42.5 -86c0 -24.667 10.333 -46.667 31 -66s57.667 -44 111 -74c92.667 -50.667 139 -114 139 -190c0 -42 -10.333 -78.667 -31 -110s-49.334 -55.666 -86.001 -72.999s-79 -26 -127 -26c-46 0 -87.833 9.5 -125.5 28.5z" />
    <glyph glyph-name="T" unicode="T" horiz-adv-x="547" 
d="M306 640h-219l11 60h510l-11 -60h-217l-113 -640h-74z" />
    <glyph glyph-name="U" unicode="U" horiz-adv-x="656" 
d="M133.5 42c-35.667 34.667 -53.5 85.001 -53.5 151.001c0 24 2.66699 51.333 8 82l75 425h75l-75 -423c-5.33301 -32 -8 -58.667 -8 -80c0 -48.667 11.333 -85 34 -109s57.667 -36 105 -36c112.667 0 182.334 75 209.001 225l75 423h74l-75 -425
c-16.667 -96.667 -48.5 -168.334 -95.5 -215.001s-110.833 -70 -191.5 -70c-68.667 0 -120.834 17.333 -156.501 52z" />
    <glyph glyph-name="V" unicode="V" horiz-adv-x="587" 
d="M648 700l-361 -700h-75l-115 700h78l89 -607l302 607h82z" />
    <glyph glyph-name="W" unicode="W" horiz-adv-x="817" 
d="M867 700l-267 -700h-75l-53 604l-266 -604h-77l-22 700h80l1 -594l260 594h78l49 -594l211 594h81z" />
    <glyph glyph-name="X" unicode="X" horiz-adv-x="589" 
d="M272 361l-145 339h84l112 -282l206 282h92l-263 -341l150 -359h-81l-120 300l-222 -300h-92z" />
    <glyph glyph-name="Y" unicode="Y" horiz-adv-x="554" 
d="M245 278l-147 422h81l113 -353l238 353h84l-295 -422l-48 -278h-75z" />
    <glyph glyph-name="Z" unicode="Z" horiz-adv-x="559" 
d="M1 44l484 594h-350l11 62h442l-8 -46l-482 -592h391l-11 -62h-485z" />
    <glyph glyph-name="bracketleft" unicode="[" horiz-adv-x="299" 
d="M144 700h211l-10 -54h-138l-124 -705h138l-9 -54h-211z" />
    <glyph glyph-name="backslash" unicode="\" horiz-adv-x="381" 
d="M59 725h66l245 -768h-66z" />
    <glyph glyph-name="bracketright" unicode="]" horiz-adv-x="299" 
d="M-31 -59h138l124 705h-138l9 54h211l-143 -813h-211z" />
    <glyph glyph-name="asciicircum" unicode="^" horiz-adv-x="580" 
d="M339 700h63l128 -473h-65l-104 401l-247 -401h-71z" />
    <glyph glyph-name="underscore" unicode="_" horiz-adv-x="311" 
d="M-83 -223h311l-10 -55h-311z" />
    <glyph glyph-name="grave" unicode="`" horiz-adv-x="400" 
d="M182 696h74l52 -142h-56z" />
    <glyph glyph-name="a" unicode="a" horiz-adv-x="538" 
d="M78.5 42.5c-31 35 -46.501 82.833 -46.501 143.5c0 62 10.833 117.667 32.5 167s52 87.833 91 115.5s83.167 41.5 132.5 41.5c34.667 0 65 -7.5 91 -22.5s44.333 -35.833 55 -62.5h2l23 75h57l-66 -376c-9.33301 -48.667 -16 -90 -20 -124h-62
c5.33301 40.667 9.33301 68.667 12 84h-2c-20.667 -29.333 -46.167 -52.333 -76.5 -69s-62.166 -25 -95.499 -25c-54 0 -96.5 17.5 -127.5 52.5zM333.499 89.5c32.333 28.333 52.5 65.166 60.5 110.499l15 87c2.66699 13.333 4 27.333 4 42
c0 39.333 -10.833 70.166 -32.5 92.499s-51.5 33.5 -89.5 33.5c-35.333 0 -67.5 -11.5 -96.5 -34.5s-51.667 -54.667 -68 -95s-24.5 -85.166 -24.5 -134.499c0 -45.333 10.167 -80.666 30.5 -105.999s48.833 -38 85.5 -38c44.667 0 83.167 14.167 115.5 42.5z" />
    <glyph glyph-name="b" unicode="b" horiz-adv-x="538" 
d="M156.5 16.5c-27.667 17.667 -46.166 40.167 -55.499 67.5h-2c-4.66699 -30.667 -10.334 -58.667 -17.001 -84h-62c11.333 53.333 19.333 94.666 24 123.999l110 618h69l-56 -315h2c37.333 55.333 92.333 83 165 83c53.333 0 95.833 -17.167 127.5 -51.5
s47.5 -81.166 47.5 -140.499c0 -60 -11.167 -115 -33.5 -165s-53.333 -89.667 -93 -119s-84.167 -44 -133.5 -44c-34 0 -64.833 8.83301 -92.5 26.5zM344.001 83.5c29.333 24.333 52.334 57.002 69.001 98.002s25 85.167 25 132.5c0 45.333 -10.333 80.166 -31 104.499
s-50 36.5 -88 36.5c-44 0 -82.333 -15.333 -115 -46s-53.334 -71.334 -62.001 -122.001l-15 -87c-2 -12 -3 -23.333 -3 -34c0 -36.667 11 -65.667 33 -87s51.333 -32 88 -32s69.667 12.167 99 36.5z" />
    <glyph glyph-name="c" unicode="c" horiz-adv-x="467" 
d="M83 41.5c-34.667 34.333 -52.001 81.834 -52.001 142.501c0 63.333 11.5 119.666 34.5 168.999s55.333 87.833 97 115.5s89.5 41.5 143.5 41.5c40.667 0 76.167 -8.16699 106.5 -24.5s52.5 -39.166 66.5 -68.499l-49 -39c-10.667 23.333 -27.167 41.666 -49.5 54.999
s-47.833 20 -76.5 20c-38 0 -72.5 -11.333 -103.5 -34s-55.333 -54 -73 -94s-26.5 -84.333 -26.5 -133c0 -46 11.5 -81.667 34.5 -107s55.167 -38 96.5 -38c29.333 0 57.333 6.5 84 19.5s49.334 31.5 68.001 55.5l35 -39c-50 -62 -114 -93 -192 -93
c-61.333 0 -109.333 17.167 -144 51.5z" />
    <glyph glyph-name="d" unicode="d" horiz-adv-x="538" 
d="M78.5 42.5c-31 35 -46.5 82.832 -46.5 143.499c0 62 10.833 117.667 32.5 167s52 87.833 91 115.5s83.167 41.5 132.5 41.5c32.667 0 61.667 -7.33301 87 -22s44.333 -35 57 -61h2l56 315h68l-108 -618c-10.667 -61.333 -17.334 -102.666 -20.001 -123.999h-62
c2 22 6 50 12 84h-2c-20.667 -29.333 -46.167 -52.333 -76.5 -69s-62.166 -25 -95.499 -25c-54 0 -96.5 17.5 -127.5 52.5zM333.5 89.499c32.333 28.333 52.5 65.166 60.5 110.499l15 87c2.66699 13.333 4 27.333 4 42c0 39.333 -10.833 70.166 -32.5 92.499
s-51.5 33.5 -89.5 33.5c-35.333 0 -67.5 -11.5 -96.5 -34.5s-51.667 -54.667 -68 -95s-24.5 -85.166 -24.5 -134.499c0 -45.333 10.167 -80.666 30.5 -105.999s48.833 -38 85.5 -38c44.667 0 83.167 14.167 115.5 42.5z" />
    <glyph glyph-name="e" unicode="e" horiz-adv-x="510" 
d="M432.5 460c31.667 -33.333 47.499 -79.333 47.499 -138c0 -20.667 -2 -42.667 -6 -66l-6 -34h-366c-0.666992 -6.66699 -1 -17.334 -1 -32.001c0 -45.333 11.333 -80.166 34 -104.499s55.334 -36.5 98.001 -36.5c30 0 58.5 6.5 85.5 19.5s50.5 31.167 70.5 54.5l34 -39
c-52.667 -62.667 -117.667 -94 -195 -94c-60.667 0 -108.667 17.5 -144 52.5s-53 82.833 -53 143.5c0 62 11.5 117.667 34.5 167s55 87.833 96 115.5s87.5 41.5 139.5 41.5c56 0 99.833 -16.667 131.5 -50zM417.999 326c0 40 -10.833 71.166 -32.5 93.499
s-51.834 33.5 -90.501 33.5c-43.333 0 -81.666 -16.167 -114.999 -48.5s-56.333 -75.166 -69 -128.499h301l2 8c2.66699 20 4 34 4 42z" />
    <glyph glyph-name="f" unicode="f" horiz-adv-x="316" 
d="M126 447h-84l10 53h83l12 66c8 47.333 26.333 84.333 55 111s65.334 40 110.001 40c20.667 0 40.5 -2.83301 59.5 -8.5s32.5 -13.5 40.5 -23.5l-34 -44c-14 14 -34.333 21 -61 21s-48.834 -8.5 -66.501 -25.5s-29.167 -40.833 -34.5 -71.5l-12 -65h145l-9 -53h-145
l-79 -447h-69z" />
    <glyph glyph-name="g" unicode="g" horiz-adv-x="538" 
d="M515 500l-85.001 -484.998c-13.333 -78.667 -42.166 -138.334 -86.499 -179.001s-102.833 -61 -175.5 -61c-32.667 0 -64.167 3.83301 -94.5 11.5s-57.166 18.167 -80.499 31.5l33 53c23.333 -12.667 46.666 -21.834 69.999 -27.501s48.333 -8.5 75 -8.5
c54.667 0 98.167 15.667 130.5 47s54.166 79 65.499 143l9 51c-18 -26.667 -41.667 -47.5 -71 -62.5s-61.333 -22.5 -96 -22.5c-55.333 0 -98.666 17 -129.999 51s-47 81 -47 141c0 62 10.833 118 32.5 168s52 89 91 117s82.833 42 131.5 42
c34.667 0 65.167 -7.5 91.5 -22.5s44.833 -35.833 55.5 -62.5h2l22 75h57zM411.999 328.002c0 40 -10.333 71.166 -31 93.499s-50 33.5 -88 33.5c-36 0 -68.667 -11.5 -98 -34.5s-52.333 -54.667 -69 -95s-25 -85.166 -25 -134.499c0 -45.333 10.5 -80.5 31.5 -105.5
s50.167 -37.5 87.5 -37.5c45.333 0 83.5 13.833 114.5 41.5s50.833 65.5 59.5 113.5l14 81c2.66699 14 4 28.667 4 44z" />
    <glyph glyph-name="h" unicode="h" horiz-adv-x="555" 
d="M153 742l68.998 0.000976562l-58 -329c18 29.333 43.833 52.833 77.5 70.5s68.834 26.5 105.501 26.5c49.333 0 87.333 -13.833 114 -41.5s40 -67.167 40 -118.5c0 -20 -2 -41.667 -6 -65l-50 -285h-69l51 286c3.33301 16.667 5 35.334 5 56.001
c0 36.667 -8.33301 64.667 -25 84s-41 29 -73 29c-30.667 0 -59.667 -7.83301 -87 -23.5s-50.666 -37.334 -69.999 -65.001s-32 -58.834 -38 -93.501l-48 -273h-69z" />
    <glyph glyph-name="i" unicode="i" horiz-adv-x="236" 
d="M146.5 608.5c-8.33301 7.66699 -12.502 17.167 -12.502 28.5c0 18 5.83301 33 17.5 45s26.834 18 45.501 18c13.333 0 24.333 -3.66699 33 -11s13 -17.333 13 -30c0 -17.333 -6 -32 -18 -44s-27.333 -18 -46 -18c-13.333 0 -24.166 3.83301 -32.499 11.5zM126.998 500h70
l-88 -500h-70z" />
    <glyph glyph-name="j" unicode="j" horiz-adv-x="237" 
d="M154.5 608.5c-8.33301 7.66699 -12.499 17.5 -12.499 29.5c0 18 6 32.833 18 44.5s27 17.5 45 17.5c13.333 0 24.166 -3.66699 32.499 -11s12.5 -17.333 12.5 -30c0 -17.333 -5.83301 -32 -17.5 -44s-26.834 -18 -45.501 -18c-13.333 0 -24.166 3.83301 -32.499 11.5z
M-117.999 -182l11 53.999c6 -0.666992 16.667 -1 32 -1c38 0 66.5 11.167 85.5 33.5s32.833 57.5 41.5 105.5l86 490h69l-87 -495c-11.333 -65.333 -31.5 -113.666 -60.5 -144.999s-68.833 -47 -119.5 -47c-22 0 -41.333 1.66699 -58 5z" />
    <glyph glyph-name="k" unicode="k" horiz-adv-x="472" 
d="M271 307l149 -307h-78l-125 261l-95 -82l-31 -179h-69l131 742h69l-84 -474l273 232h85z" />
    <glyph glyph-name="l" unicode="l" horiz-adv-x="289" 
d="M47 74c0 6.66699 1.33301 19.332 4 37.999l111 630h69l-110 -626c-2 -12 -3 -22 -3 -30c0 -15.333 3.33301 -26.166 10 -32.499s17.667 -9.5 33 -9.5c13.333 0 30 3.66699 50 11l4 -43c-11.333 -6.66699 -24.5 -12 -39.5 -16s-29.833 -6 -44.5 -6c-56 0 -84 28 -84 84z
" />
    <glyph glyph-name="m" unicode="m" horiz-adv-x="838" 
d="M88 376c10.667 66 16.668 107.331 18.001 123.998h62c-2 -31.333 -6.33301 -61 -13 -89h3c19.333 30.667 44 54.834 74 72.501s62.333 26.5 97 26.5c36.667 0 67 -9.66699 91 -29s37.333 -45.333 40 -78c20.667 34.667 46 61.167 76 79.5s63.667 27.5 101 27.5
c46.667 0 83.167 -13.167 109.5 -39.5s39.5 -63.166 39.5 -110.499c0 -14 -1.66699 -31 -5 -51l-54 -309h-69l54 305c2.66699 14 4 28.667 4 44c0 34 -8.5 59.833 -25.5 77.5s-41.167 26.5 -72.5 26.5c-36.667 0 -70 -14.167 -100 -42.5s-48.667 -63.833 -56 -106.5
l-54 -304h-68l53 299c3.33301 22 5 40 5 54c0 66.667 -30.333 100 -91 100c-24 0 -47.667 -7 -71 -21s-43.333 -32.833 -60 -56.5s-27.334 -48.5 -32.001 -74.5l-53 -301h-69z" />
    <glyph glyph-name="n" unicode="n" horiz-adv-x="545" 
d="M88 376c10.667 65.333 16.666 106.666 17.999 123.999h63c-1.33301 -24.667 -5.66602 -56.334 -12.999 -95.001h3c19.333 32.667 45.5 58.334 78.5 77.001s68.5 28 106.5 28c48.667 0 85.5 -13.167 110.5 -39.5s37.5 -64.833 37.5 -115.5c0 -23.333 -2.33301 -47 -7 -71
l-50 -284h-69l50 285c4 23.333 6 44.333 6 63c0 70 -31 105 -93 105c-30 0 -58.5 -7.66699 -85.5 -23s-49.667 -36.666 -68 -63.999s-30.5 -58.333 -36.5 -93l-48 -273h-70z" />
    <glyph glyph-name="o" unicode="o" horiz-adv-x="550" 
d="M87.5 45.5c-37 37 -55.5 86.167 -55.5 147.5c0 60 12 114.167 36 162.5s57.333 86.166 100 113.499s91 41 145 41c62 0 111.667 -18.5 149 -55.5s56 -86.167 56 -147.5c0 -60 -12.167 -114.167 -36.5 -162.5s-57.833 -86.166 -100.5 -113.499s-91 -41 -145 -41
c-62 0 -111.5 18.5 -148.5 55.5zM344 79.5c32 23 57.335 54.334 76.002 94.001s28 83.167 28 130.5s-12.167 84.333 -36.5 111s-57.833 40 -100.5 40c-38.667 0 -73.834 -11.5 -105.501 -34.5s-56.834 -54.333 -75.501 -94s-28 -83.5 -28 -131.5
c0 -46.667 12 -83.334 36 -110.001s57.333 -40 100 -40c38.667 0 74 11.5 106 34.5z" />
    <glyph glyph-name="p" unicode="p" horiz-adv-x="539" 
d="M89 376c5.33301 29.333 11.3359 70.667 18.0029 124h63c-4 -36 -8 -64 -12 -84h2c17.333 28 41.666 50.667 72.999 68s65 26 101 26c53.333 0 95.666 -17 126.999 -51s47 -80.333 47 -139c0 -62 -10.833 -118 -32.5 -168s-51.834 -89.5 -90.501 -118.5
s-82 -43.5 -130 -43.5c-34.667 0 -65.5 7.5 -92.5 22.5s-45.5 35.167 -55.5 60.5h-2l-56 -315h-69zM342.503 81.501c29 24.333 52.167 57.168 69.5 98.501s26 86.333 26 135c0 44 -10.167 78 -30.5 102s-49.5 36 -87.5 36c-43.333 0 -81.333 -14.333 -114 -43
s-53 -65.334 -61 -110.001l-15 -87c-2.66699 -13.333 -4 -27 -4 -41c0 -39.333 10.667 -70.333 32 -93s51 -34 89 -34c34.667 0 66.5 12.167 95.5 36.5z" />
    <glyph glyph-name="q" unicode="q" horiz-adv-x="539" 
d="M372 74l-3.00195 -0.000976562c-16.667 -26.667 -38.667 -47.334 -66 -62.001s-57.666 -22 -90.999 -22c-53.333 0 -96.666 17.833 -129.999 53.5s-50 82.834 -50 141.501c0 61.333 11 116.833 33 166.5s52.333 88.5 91 116.5s82 42 130 42
c35.333 0 67.5 -8.66699 96.5 -26s47.5 -39.666 55.5 -66.999h2l4 21c2 11.333 6.33301 32 13 62h63c-9.33301 -40 -18 -81.333 -26 -124l-108 -618h-70zM334.498 90.999c32.333 30.667 52.834 71.332 61.501 121.999l16 87c2 11.333 3 22 3 32
c0 36 -11.333 65.167 -34 87.5s-52.667 33.5 -90 33.5c-35.333 0 -67.333 -11.333 -96 -34s-51.334 -54 -68.001 -94s-25 -84.333 -25 -133c0 -45.333 10.5 -81.166 31.5 -107.499s49.833 -39.5 86.5 -39.5c44 0 82.167 15.333 114.5 46z" />
    <glyph glyph-name="r" unicode="r" horiz-adv-x="334" 
d="M95 378c10 58 16.001 98.665 18.001 121.998h64c-2 -29.333 -5.66699 -58.666 -11 -87.999l-3 -12h3c37.333 73.333 95 110 173 110c12 0 21.333 -1 28 -3l-10 -58c-10.667 1.33301 -21.334 2 -32.001 2c-27.333 0 -53.833 -8.33301 -79.5 -25s-47.5 -39.667 -65.5 -69
s-30.333 -61.666 -37 -96.999l-46 -260h-69z" />
    <glyph glyph-name="s" unicode="s" horiz-adv-x="409" 
d="M61.5 13c-29.667 15.333 -48.167 34.3379 -55.5 57.0049l52 32c8 -18 21.5 -32 40.5 -42s40.833 -15 65.5 -15c34.667 0 63.334 10.167 86.001 30.5s34 45.5 34 75.5c0 19.333 -6.5 35.666 -19.5 48.999s-35.833 26.666 -68.5 39.999c-44.667 18 -77 37.167 -97 57.5
s-30 44.166 -30 71.499c0 43.333 15.667 77.666 47 102.999s73.666 38 126.999 38c32 0 61.5 -7.33301 88.5 -22s44.833 -33.334 53.5 -56.001l-50 -32c-8 18 -20.167 31.667 -36.5 41s-35.166 14 -56.499 14c-30.667 0 -55.5 -7.16699 -74.5 -21.5
s-28.5 -32.833 -28.5 -55.5c0 -16 7.66699 -30.5 23 -43.5s41.666 -27.167 78.999 -42.5c38.667 -16.667 67.334 -35.667 86.001 -57s28 -46 28 -74c0 -33.333 -8 -63 -24 -89s-38.667 -46.167 -68 -60.5s-63.333 -21.5 -102 -21.5c-36.667 0 -69.834 7.66699 -99.501 23z
" />
    <glyph glyph-name="t" unicode="t" horiz-adv-x="363" 
d="M106.5 19c-20.333 19.333 -30.5 47.332 -30.5 83.999c0 7.33301 1.33301 20.333 4 39l54 303h-90l10 55h90l24 135l69 21h4l-27 -156h141l-10 -55h-141l-52 -291c-2.66699 -13.333 -4 -26.666 -4 -39.999c0 -22 5 -38.667 15 -50s26.333 -17 49 -17c26 0 49.333 4 70 12
l-3 -53c-24 -10.667 -53 -16 -87 -16c-36.667 0 -65.167 9.66699 -85.5 29z" />
    <glyph glyph-name="u" unicode="u" horiz-adv-x="550" 
d="M88.5 27c-25 24.667 -37.501 61.6699 -37.501 111.003c0 15.333 2.33301 37.666 7 66.999l52 295h69l-51 -294c-4 -20.667 -6 -39.334 -6 -56.001c0 -68.667 31.667 -103 95 -103c30 0 58.333 7.66699 85 23s49.167 36.666 67.5 63.999s30.5 58 36.5 92l48 274h69
l-70 -400c-6 -32 -9 -65.333 -9 -100h-62l-1 20c0 13.333 2.33301 38 7 74h-4c-20.667 -32.667 -47.667 -58.167 -81 -76.5s-68.666 -27.5 -105.999 -27.5c-47.333 0 -83.5 12.333 -108.5 37z" />
    <glyph glyph-name="v" unicode="v" horiz-adv-x="463" 
d="M496 500l-276 -500h-65l-100 500h69l74 -419l223 419h75z" />
    <glyph glyph-name="w" unicode="w" horiz-adv-x="655" 
d="M689 500l-213 -500h-63l-54 430l-204 -430h-64l-36 500h71l16 -410l196 410h65l51 -410l160 410h75z" />
    <glyph glyph-name="x" unicode="x" horiz-adv-x="440" 
d="M185 254l-117 246h76l83 -196l152 196h82l-204 -246l128 -254h-78l-92 210l-167 -210h-81z" />
    <glyph glyph-name="y" unicode="y" horiz-adv-x="448" 
d="M482 500l-266.999 -504c-35.333 -67.333 -73.333 -117.833 -114 -151.5s-84.667 -50.5 -132 -50.5c-18.667 0 -34.334 2 -47.001 6l9 52c11.333 -3.33301 24 -5 38 -5c35.333 0 67.5 13.167 96.5 39.5s61.5 71.5 97.5 135.5l-102 478h74l71 -403l198 403h78z" />
    <glyph glyph-name="z" unicode="z" horiz-adv-x="443" 
d="M-9 41l365 403h-279l9 56h363l-7 -44l-359 -400h298l-10 -56h-387z" />
    <glyph glyph-name="braceleft" unicode="{" horiz-adv-x="309" 
d="M93 -90c-19.333 16 -29.001 40.667 -29.001 74c0 16 1.33301 31 4 45l31 171c1.33301 9.33301 2 15.666 2 18.999c0 34 -19.333 52.333 -58 55l9 49c46 2 73 26.333 81 73l30 171c8.66699 50 26 86.333 52 109s63.667 34 113 34h24l-9 -55h-28
c-25.333 0 -44.5 -6.66699 -57.5 -20s-22.5 -36.333 -28.5 -69l-29 -167c-5.33301 -26.667 -13.666 -47.5 -24.999 -62.5s-28.333 -27.833 -51 -38.5c29.333 -15.333 44 -39.666 44 -72.999c0 -8.66699 -1 -18 -3 -28l-29 -167c-2.66699 -18.667 -4 -30.667 -4 -36
c0 -18 4.5 -31.333 13.5 -40s23.5 -13 43.5 -13h28l-10 -55h-24c-40.667 0 -70.667 8 -90 24z" />
    <glyph glyph-name="bar" unicode="|" horiz-adv-x="238" 
d="M165 700h68l-152 -860h-68z" />
    <glyph glyph-name="braceright" unicode="}" horiz-adv-x="309" 
d="M-16 -59l28 0.000976562c25.333 0 44.333 6.66699 57 20s21.667 36.333 27 69l29 167c8.66699 50 35 83.667 79 101c-16 9.33301 -27.5 19.166 -34.5 29.499s-10.5 23.833 -10.5 40.5c0 8.66699 1 19 3 31l29 167c2.66699 12.667 4 24.667 4 36
c0 18.667 -4.5 32.167 -13.5 40.5s-23.5 12.5 -43.5 12.5h-29l10 55h25c40.667 0 70.667 -8 90 -24s29 -41.333 29 -76c0 -14.667 -1.33301 -29 -4 -43l-29 -171c-1.33301 -10.667 -2 -18 -2 -22c0 -16.667 4.5 -29 13.5 -37s23.167 -12.667 42.5 -14l-9 -49
c-23.333 -1.33301 -41.5 -8 -54.5 -20s-21.833 -30 -26.5 -54l-30 -171c-9.33301 -49.333 -27 -85.5 -53 -108.5s-63.333 -34.5 -112 -34.5h-25z" />
    <glyph glyph-name="asciitilde" unicode="~" horiz-adv-x="603" 
d="M57 209c6.66699 40.667 23.833 73.167 51.5 97.5s60.167 36.5 97.5 36.5c20.667 0 39.334 -4.16699 56.001 -12.5s36.667 -20.5 60 -36.5c19.333 -14 36.166 -24.667 50.499 -32s29.166 -11 44.499 -11c22 0 40 8.33301 54 25s24 39 30 67h55l-2 -13
c-4.66699 -41.333 -20.334 -74.5 -47.001 -99.5s-58.667 -37.5 -96 -37.5c-21.333 0 -40.666 4.16699 -57.999 12.5s-37.666 20.833 -60.999 37.5c-18.667 14 -35 24.5 -49 31.5s-28.667 10.5 -44 10.5c-22 0 -40.5 -8 -55.5 -24s-25.833 -38.667 -32.5 -68h-57z" />
    <glyph glyph-name="uni00A0" unicode="&#xa0;" horiz-adv-x="247" 
 />
    <glyph glyph-name="exclamdown" unicode="&#xa1;" horiz-adv-x="230" 
d="M104 407c-9.33301 8.66699 -14.002 19.667 -14.002 33c0 20.667 6.66699 37.5 20 50.5s30.333 19.5 51 19.5c14.667 0 26.834 -4.33301 36.501 -13s14.5 -19.667 14.5 -33c0 -20.667 -6.66699 -37.5 -20 -50.5s-30.666 -19.5 -51.999 -19.5
c-14.667 0 -26.667 4.33301 -36 13zM94.998 315h62l-80 -516h-84z" />
    <glyph glyph-name="cent" unicode="&#xa2;" horiz-adv-x="467" 
d="M212.5 489c-31 -22.667 -55.335 -53.998 -73.002 -93.998s-26.5 -84.333 -26.5 -133c0 -46 11.5 -81.667 34.5 -107s55.167 -38 96.5 -38c29.333 0 57.333 6.5 84 19.5s49.334 31.5 68.001 55.5l35 -39c-46 -58 -105.667 -89 -179 -93l-16 -88h-52l16 91
c-49.333 7.33301 -87.833 27.666 -115.5 60.999s-41.5 76.666 -41.5 129.999c0 59.333 10.333 112.833 31 160.5s49.834 85.834 87.501 114.501s80.834 45.334 129.501 50.001l16 89h52l-16 -89c35.333 -3.33301 65.666 -12.833 90.999 -28.5s44.333 -36.834 57 -63.501
l-49 -39c-10.667 23.333 -27.167 41.666 -49.5 54.999s-47.833 20 -76.5 20c-38 0 -72.5 -11.333 -103.5 -34z" />
    <glyph glyph-name="sterling" unicode="&#xa3;" horiz-adv-x="531" 
d="M479 697.5c24 -8.33301 43.001 -20.166 57.001 -35.499l-35 -52c-11.333 12 -26 21.5 -44 28.5s-36.333 10.5 -55 10.5c-36.667 0 -67.334 -11.833 -92.001 -35.5s-40.667 -56.5 -48 -98.5c-3.33301 -18 -5.33301 -40.667 -6 -68s-1 -54.333 -1 -81h167l-10 -52h-158
c-1.33301 -28 -3.33301 -52 -6 -72c-6 -35.333 -19 -69.5 -39 -102.5s-46.333 -60.5 -79 -82.5h299l-10 -57h-406l9 47c44 22.667 80 51.167 108 85.5s45 68.833 51 103.5c2 13.333 3.66699 39.333 5 78h-96l9 52h87c1.33301 76 4.33301 127.667 9 155
c10.667 59.333 34.167 105.666 70.5 138.999s82.5 50 138.5 50c26 0 51 -4.16699 75 -12.5z" />
    <glyph glyph-name="currency" unicode="&#xa4;" horiz-adv-x="609" 
d="M188.5 79c-28.333 10.667 -51.5 24.666 -69.5 41.999l-69 -57l-40 46l67 57c-19.333 31.333 -29 70.333 -29 117c0 37.333 8 75.5 24 114.5s37.333 71.833 64 98.5l-48 57l56 46l49 -57c21.333 18 47.666 32.167 78.999 42.5s63 15.5 95 15.5
c30 0 58.833 -5.16699 86.5 -15.5s50.167 -24.5 67.5 -42.5l71 57l39 -48l-67 -55c18.667 -29.333 28 -67 28 -113c0 -38.667 -8 -78.167 -24 -118.5s-36.667 -73.166 -62 -98.499l47 -57l-55 -46l-51 57c-21.333 -18 -47.5 -32.167 -78.5 -42.5s-62.167 -15.5 -93.5 -15.5
c-29.333 0 -58.166 5.33301 -86.499 16zM403.5 160.499c37 22.333 66.333 52.333 88 90s32.5 78.5 32.5 122.5c0 49.333 -15.333 89.333 -46 120s-71 46 -121 46c-42.667 0 -82.5 -11.333 -119.5 -34s-66.333 -53.167 -88 -91.5s-32.5 -79.5 -32.5 -123.5
c0 -48.667 15.333 -88 46 -118s71 -45 121 -45c42.667 0 82.5 11.167 119.5 33.5z" />
    <glyph glyph-name="yen" unicode="&#xa5;" horiz-adv-x="564" 
d="M367 339h144l-9 -53h-171l-6 -8l-13 -73h175l-9 -52h-175l-27 -153h-75l27 153h-174l9 52h174l13 73l-3 8h-169l9 52h142l-126 362h81l113 -353l238 353h84z" />
    <glyph glyph-name="brokenbar" unicode="&#xa6;" horiz-adv-x="238" 
d="M165 700h68l-68 -383h-67zM81 223h67l-67 -383h-68z" />
    <glyph glyph-name="section" unicode="&#xa7;" horiz-adv-x="525" 
d="M415 157c20 -20 30 -45 30 -75c0 -56.667 -21 -101.5 -63 -134.5s-99 -49.5 -171 -49.5c-47.333 0 -89.333 9.16699 -126 27.5s-63.667 42.833 -81 73.5l52 45c16 -27.333 37.833 -48.5 65.5 -63.5s59.167 -22.5 94.5 -22.5c46 0 83.167 10.667 111.5 32
s42.5 49.333 42.5 84c0 14.667 -3.83301 27.334 -11.5 38.001s-20 21.167 -37 31.5s-42.5 23.833 -76.5 40.5c-44.667 22 -78.334 40 -101.001 54s-39.167 28.5 -49.5 43.5s-15.5 32.5 -15.5 52.5c0 47.333 24 87.333 72 120c-22.667 23.333 -34 50 -34 80
c0 34 9.5 64.333 28.5 91s45.333 47.5 79 62.5s71.834 22.5 114.501 22.5c45.333 0 85 -9.33301 119 -28s56.667 -44 68 -76l-50 -34c-12.667 24.667 -31.5 44 -56.5 58s-53.167 21 -84.5 21c-40.667 0 -74.667 -10.833 -102 -32.5s-41 -48.167 -41 -79.5
c0 -14.667 4.16699 -27.5 12.5 -38.5s22.333 -22.167 42 -33.5s49.5 -26.666 89.5 -45.999c52 -24.667 89.167 -47.834 111.5 -69.501s33.5 -46.834 33.5 -75.501c0 -43.333 -22 -83 -66 -119zM374 190c12 11.333 21.665 24.1699 28.998 38.5029s11 27.5 11 39.5
c0 13.333 -3.66699 24.666 -11 33.999s-19.666 18.833 -36.999 28.5s-46.666 24.5 -87.999 44.5c-30.667 13.333 -58.667 28.333 -84 45c-13.333 -10.667 -24 -22.834 -32 -36.501s-12 -26.834 -12 -39.501c0 -11.333 2.66699 -20.666 8 -27.999s14.5 -15 27.5 -23
s35.833 -20.333 68.5 -37c14 -8 29.667 -16.333 47 -25c32.667 -16.667 57 -30.334 73 -41.001z" />
    <glyph glyph-name="dieresis" unicode="&#xa8;" horiz-adv-x="400" 
d="M127 564.5c-7.33301 7 -11 15.834 -11 26.501c0 16 5.16699 29 15.5 39s23.833 15 40.5 15c11.333 0 20.666 -3.33301 27.999 -10s11 -15.334 11 -26.001c0 -16.667 -5.16699 -30 -15.5 -40s-23.833 -15 -40.5 -15c-11.333 0 -20.666 3.5 -27.999 10.5zM323 564.501
c-7.33301 7 -10.999 16.168 -10.999 27.501c0 15.333 5.16699 28 15.5 38s23.833 15 40.5 15c11.333 0 20.666 -3.33301 27.999 -10s11 -15.334 11 -26.001c0 -16.667 -5 -30 -15 -40s-23.333 -15 -40 -15c-12 0 -21.667 3.5 -29 10.5z" />
    <glyph glyph-name="copyright" unicode="&#xa9;" horiz-adv-x="802" 
d="M199 26.5c-46.667 24.333 -83 58.166 -109 101.499s-39 93 -39 149c0 84.667 18 159.667 54 225s86.5 116.333 151.5 153s139.167 55 222.5 55c59.333 0 112.333 -12.167 159 -36.5s83 -58.166 109 -101.499s39 -93 39 -149c0 -84.667 -18 -159.667 -54 -225
s-86.5 -116.333 -151.5 -153s-139.167 -55 -222.5 -55c-59.333 0 -112.333 12.167 -159 36.5zM556.5 84c56.333 32 100.166 76.668 131.499 134.001s47 122.666 47 195.999c0 48.667 -11 92 -33 130s-52.833 67.5 -92.5 88.5s-84.834 31.5 -135.501 31.5
c-72.667 0 -137.167 -16 -193.5 -48s-100.166 -76.5 -131.499 -133.5s-47 -122.167 -47 -195.5c0 -48.667 11 -92 33 -130s52.833 -67.667 92.5 -89s84.834 -32 135.501 -32c72.667 0 137.167 16 193.5 48zM286.5 182.001c-27 29.333 -40.5029 68.3359 -40.5029 117.003
c0 51.333 9.16699 97.5 27.5 138.5s43.833 73 76.5 96s69.667 34.5 111 34.5c28 0 53.167 -5.83301 75.5 -17.5s37.5 -26.834 45.5 -45.501l-36 -32c-7.33301 14.667 -19.166 26.167 -35.499 34.5s-34.166 12.5 -53.499 12.5c-29.333 0 -56 -9.33301 -80 -28
s-42.667 -44.334 -56 -77.001s-20 -69.667 -20 -111c0 -36 8.66699 -64.667 26 -86s40.666 -32 69.999 -32c18.667 0 37.834 4.33301 57.501 13s36.167 20 49.5 34l24 -32c-15.333 -18.667 -35.166 -33.834 -59.499 -45.501s-49.5 -17.5 -75.5 -17.5
c-44 0 -79.5 14.667 -106.5 44z" />
    <glyph glyph-name="ordfeminine" unicode="&#xaa;" horiz-adv-x="362" 
d="M107.5 385.5c-18.333 16.333 -27.5 37.1699 -27.5 62.5029c0 37.333 14 66.666 42 87.999s65.667 32 113 32h76l3 16c1.33301 6 2 14 2 24c0 19.333 -5.33301 33.666 -16 42.999s-27 14 -49 14c-38.667 0 -71.667 -16.667 -99 -50l-25 33c35.333 39.333 79 59 131 59
c36 0 63.667 -8 83 -24s29 -38.667 29 -68c0 -10.667 -0.666992 -19 -2 -25l-27 -158c-4 -22.667 -5.66699 -44 -5 -64h-48c-0.666992 9.33301 -0.333984 25.666 0.999023 48.999c-29.333 -37.333 -66.666 -56 -111.999 -56c-28 0 -51.167 8.16699 -69.5 24.5z
M260.5 426.504c19.667 17 31.498 36.167 35.498 57.5l8 46h-70c-31.333 0 -56.166 -7.16699 -74.499 -21.5s-27.5 -33.833 -27.5 -58.5c0 -15.333 5.33301 -27.333 16 -36s25 -13 43 -13c26.667 0 49.834 8.5 69.501 25.5z" />
    <glyph glyph-name="guillemotleft" unicode="&#xab;" horiz-adv-x="490" 
d="M41 260l194 195h76l-191 -195l122 -195h-77zM217 260l195 195h76l-191 -195l122 -195h-76z" />
    <glyph glyph-name="logicalnot" unicode="&#xac;" horiz-adv-x="603" 
d="M512 346h-459l9 54h527l-47 -268h-68z" />
    <glyph glyph-name="uni00AD" unicode="&#xad;" horiz-adv-x="340" 
d="M44 293h267l-10 -54h-266z" />
    <glyph glyph-name="registered" unicode="&#xae;" horiz-adv-x="514" 
d="M459 665.5c32 -29.667 48.001 -68.167 48.001 -115.5c0 -46.667 -10 -88 -30 -124s-48 -64.167 -84 -84.5s-77 -30.5 -123 -30.5c-50.667 0 -91.834 14.833 -123.501 44.5s-47.5 68.167 -47.5 115.5c0 46.667 10 88 30 124s47.833 64.167 83.5 84.5s76.5 30.5 122.5 30.5
c50.667 0 92 -14.833 124 -44.5zM374.501 371c30.333 16.667 53.833 40.167 70.5 70.5s25 65.166 25 104.499c0 38 -12.667 69 -38 93s-58 36 -98 36c-38.667 0 -73 -8.33301 -103 -25s-53.333 -40 -70 -70s-25 -64 -25 -102c0 -39.333 12.5 -71.166 37.5 -95.499
s57.833 -36.5 98.5 -36.5c38 0 72.167 8.33301 102.5 25zM379.501 614c13 -10 19.5 -23.668 19.5 -41.001c0 -23.333 -5.83301 -42.666 -17.5 -57.999s-28.5 -25 -50.5 -29l32 -89h-43l-30 87h-35l-16 -87h-39l40 232h87c22 0 39.5 -5 52.5 -15zM345.001 530.999
c10 9.33301 15 22.001 15 38.001c0 9.33301 -3.5 16.166 -10.5 20.499s-18.5 6.5 -34.5 6.5h-41l-14 -79h43c18 0 32 4.66699 42 14z" />
    <glyph glyph-name="macron" unicode="&#xaf;" horiz-adv-x="400" 
d="M102 622h327l-8 -48h-327z" />
    <glyph glyph-name="degree" unicode="&#xb0;" horiz-adv-x="312" 
d="M115 483c-20 18.667 -30 43 -30 73c0 45.333 14.167 82.333 42.5 111s64.833 43 109.5 43c31.333 0 57.166 -9.33301 77.499 -28s30.5 -43 30.5 -73c0 -45.333 -14.167 -82.333 -42.5 -111s-65.166 -43 -110.499 -43c-31.333 0 -57 9.33301 -77 28zM271.5 526.5
c18.333 19 27.5 43.5 27.5 73.5c0 20 -6.5 36.167 -19.5 48.5s-29.833 18.5 -50.5 18.5c-28.667 0 -52.167 -9.5 -70.5 -28.5s-27.5 -43.5 -27.5 -73.5c0 -20 6.33301 -36.167 19 -48.5s29.334 -18.5 50.001 -18.5c29.333 0 53.166 9.5 71.499 28.5z" />
    <glyph glyph-name="plusminus" unicode="&#xb1;" horiz-adv-x="603" 
d="M344 304l-36 -197h-65l36 197h-216l9 55h216l35 197h65l-35 -197h217l-9 -55h-217zM27 54h481l-9 -54h-481z" />
    <glyph glyph-name="uni00B2" unicode="&#xb2;" horiz-adv-x="390" 
d="M47 262c75.333 48.667 140.334 103.667 195.001 165s82 114 82 158c0 20 -6.33301 36 -19 48s-30.334 18 -53.001 18s-45.167 -5.66699 -67.5 -17s-41.5 -26 -57.5 -44l-27 38c16.667 23.333 39.5 41.833 68.5 55.5s59.5 20.5 91.5 20.5c40 0 72 -9.66699 96 -29
s36 -45.333 36 -78c0 -92 -86.333 -204.333 -259 -337h224l-9 -52h-310z" />
    <glyph glyph-name="uni00B3" unicode="&#xb3;" horiz-adv-x="390" 
d="M93 219c-27.333 13.333 -45.6689 30.666 -55.002 51.999l40 39c9.33301 -18 24 -32.167 44 -42.5s42 -15.5 66 -15.5c32 0 59.5 10.5 82.5 31.5s34.5 46.5 34.5 76.5c0 24.667 -10 43.834 -30 57.501s-47.667 20.5 -83 20.5h-25l9 51h25c36 0 66.667 10.167 92 30.5
s38 45.166 38 74.499c0 18 -6.66699 32 -20 42s-30.666 15 -51.999 15c-23.333 0 -46.5 -5.16699 -69.5 -15.5s-42.167 -24.166 -57.5 -41.499l-25 38c18 22.667 41.5 40.334 70.5 53.001s59.5 19 91.5 19c37.333 0 68 -9.33301 92 -28s36 -43 36 -73
c0 -30.667 -10.667 -58.334 -32 -83.001s-49.666 -42.667 -84.999 -54c28.667 -6.66699 51 -19.667 67 -39s24 -42.333 24 -69c0 -30 -8 -57.167 -24 -81.5s-38 -43.333 -66 -57s-59.667 -20.5 -95 -20.5c-34.667 0 -65.667 6.66699 -93 20z" />
    <glyph glyph-name="acute" unicode="&#xb4;" horiz-adv-x="400" 
d="M286 696h73l-120 -142h-56z" />
    <glyph glyph-name="uni00B5" unicode="&#xb5;" horiz-adv-x="550" 
d="M110 500l69.002 -0.00195312l-52 -292c-2.66699 -15.333 -4 -31.333 -4 -48c0 -36 8.33301 -64 25 -84s41.667 -30 75 -30c44.667 0 84 17 118 51s55.667 77.667 65 131l48 272h69l-69 -395c-6 -37.333 -9 -72.333 -9 -105h-63
c-0.666992 24.667 0.666016 53.334 3.99902 86.001h-3c-42.667 -64 -98 -96 -166 -96c-26 0 -49.833 4.83301 -71.5 14.5s-36.834 23.834 -45.501 42.501l-48 -266h-69z" />
    <glyph glyph-name="paragraph" unicode="&#xb6;" horiz-adv-x="533" 
d="M277 267h-5.99902c-37.333 0 -70.833 7.16699 -100.5 21.5s-52.834 34.333 -69.501 60s-25 55.167 -25 88.5c0 82.667 27.5 147.167 82.5 193.5s133.833 69.5 236.5 69.5h127l-140 -793h-46l132 750h-77l-132 -750h-46z" />
    <glyph glyph-name="periodcentered" unicode="&#xb7;" horiz-adv-x="237" 
d="M77 217c-8.66699 8.66699 -13 19.667 -13 33c0 21.333 6.16699 38.5 18.5 51.5s28.5 19.5 48.5 19.5c13.333 0 24.333 -4.16699 33 -12.5s13 -19.5 13 -33.5c0 -21.333 -6.16699 -38.5 -18.5 -51.5s-28.5 -19.5 -48.5 -19.5c-13.333 0 -24.333 4.33301 -33 13z" />
    <glyph glyph-name="cedilla" unicode="&#xb8;" horiz-adv-x="400" 
d="M66 -213.5c-13.333 1.66699 -23.333 3.83203 -30 6.49902l14 36c4.66699 -1.33301 12 -2.66602 22 -3.99902s19.667 -2 29 -2c19.333 0 35.333 4.5 48 13.5s19 20.5 19 34.5c0 10.667 -6.5 19.167 -19.5 25.5s-31.167 9.5 -54.5 9.5l-15 19l65 88h46l-50 -74
c24.667 0 44 -5 58 -15s21 -24 21 -42c0 -27.333 -11 -50.5 -33 -69.5s-49 -28.5 -81 -28.5c-12.667 0 -25.667 0.833008 -39 2.5z" />
    <glyph glyph-name="uni00B9" unicode="&#xb9;" horiz-adv-x="390" 
d="M86 260h84l64 361l-106 -56l10 60l133 73h42l-77 -438h83l-9 -52h-233z" />
    <glyph glyph-name="ordmasculine" unicode="&#xba;" horiz-adv-x="390" 
d="M120 398c-24.667 24.667 -36.998 57 -36.998 97c0 41.333 8 78 24 110s38.333 57 67 75s61 27 97 27c41.333 0 74.333 -12.333 99 -37s37 -57 37 -97c0 -41.333 -8 -78 -24 -110s-38.333 -57 -67 -75s-61.334 -27 -98.001 -27c-40.667 0 -73.334 12.333 -98.001 37z
M316.502 449c24.333 32 36.5 73 36.5 123c0 29.333 -7.5 52.5 -22.5 69.5s-35.833 25.5 -62.5 25.5c-38.667 0 -70.167 -16 -94.5 -48s-36.5 -73 -36.5 -123c0 -29.333 7.5 -52.5 22.5 -69.5s35.833 -25.5 62.5 -25.5c38.667 0 70.167 16 94.5 48z" />
    <glyph glyph-name="guillemotright" unicode="&#xbb;" horiz-adv-x="490" 
d="M197 260l-122 195h76l125 -195l-194 -195h-76zM374 260l-123 195h77l125 -195l-194 -195h-77z" />
    <glyph glyph-name="onequarter" unicode="&#xbc;" horiz-adv-x="948" 
d="M99 314h74l57 321l-94 -50l9 53l118 66h38l-69 -390h73l-8 -46h-206zM734 692h59l-536 -710h-60zM732 74h-199l9 50l240 311h73l-56 -315h48l-8 -46h-48l-13 -74h-59zM740 120l45 253l-194 -253h149z" />
    <glyph glyph-name="onehalf" unicode="&#xbd;" horiz-adv-x="948" 
d="M99 314h74l57 321l-94 -50l9 53l118 66h38l-69 -390h73l-8 -46h-206zM694 692h59l-536 -710h-60zM577 48c66.667 42.667 124.332 91.333 172.999 146s73 101.667 73 141c0 18 -5.66699 32.167 -17 42.5s-27 15.5 -47 15.5s-40 -5 -60 -15s-36.667 -23 -50 -39l-24 35
c14.667 20.667 34.834 37 60.501 49s52.5 18 80.5 18c36 0 64.667 -8.66699 86 -26s32 -40.333 32 -69c0 -82 -76.667 -182 -230 -300h198l-8 -46h-275z" />
    <glyph glyph-name="threequarters" unicode="&#xbe;" horiz-adv-x="948" 
d="M101 278.5c-24 11.667 -40.334 27.1689 -49.001 46.502l35 34c8.66699 -16 21.834 -28.5 39.501 -37.5s37.167 -13.5 58.5 -13.5c28.667 0 53.334 9.33301 74.001 28s31 41.334 31 68.001c0 21.333 -9 38.166 -27 50.499s-42.667 18.5 -74 18.5h-23l9 46h22
c32 0 59.167 9.16699 81.5 27.5s33.5 40.166 33.5 65.499c0 16 -5.83301 28.333 -17.5 37s-26.834 13 -45.501 13c-20.667 0 -41.334 -4.5 -62.001 -13.5s-37.667 -21.167 -51 -36.5l-23 34c16 20 36.833 35.667 62.5 47s52.834 17 81.501 17
c33.333 0 60.833 -8.33301 82.5 -25s32.5 -38.334 32.5 -65.001s-9.5 -51 -28.5 -73s-44.167 -38 -75.5 -48c25.333 -6.66699 45 -18.667 59 -36s21 -37.666 21 -60.999c0 -40.667 -15.5 -74.334 -46.5 -101.001s-70.167 -40 -117.5 -40c-31.333 0 -59 5.83301 -83 17.5z
M729.999 692.002h59l-537 -710h-59zM728.999 74.002h-199l9 50l240 311h73l-56 -315h48l-8 -46h-48l-13 -74h-59zM736.999 120.002l45 253l-195 -253h150z" />
    <glyph glyph-name="questiondown" unicode="&#xbf;" horiz-adv-x="448" 
d="M215 410c-9.33301 8.66699 -14 19.334 -14 32.001c0 20 6.33301 36.333 19 49s29.334 19 50.001 19c14 0 25.667 -4.33301 35 -13s14 -19.334 14 -32.001c0 -20.667 -6.33301 -37.167 -19 -49.5s-29.334 -18.5 -50.001 -18.5c-14 0 -25.667 4.33301 -35 13zM26.5 -174.5
c-29 23.667 -43.5 56.834 -43.5 99.501c0 29.333 5.16699 56 15.5 80s23 44.833 38 62.5s35.5 39.167 61.5 64.5c34 33.333 60.167 63 78.5 89s29.166 56 32.499 90c2 11.333 3 21.333 3 30h63v-16c0 -28.667 -5.16699 -54.667 -15.5 -78s-22.833 -43.833 -37.5 -61.5
s-34.667 -39.167 -60 -64.5c-24 -24 -42.833 -44 -56.5 -60s-25.167 -34.5 -34.5 -55.5s-14 -43.833 -14 -68.5c0 -28.667 8.83301 -50.5 26.5 -65.5s43.834 -22.5 78.501 -22.5c28 0 55.333 7.16699 82 21.5s50 34.166 70 59.499l32 -45
c-21.333 -30 -49.5 -53.333 -84.5 -70s-72.5 -25 -112.5 -25c-52.667 0 -93.5 11.833 -122.5 35.5z" />
    <glyph glyph-name="Agrave" unicode="&#xc0;" horiz-adv-x="581" 
d="M421 164h-282l-80 -164h-85l360 700h71l114 -700h-75zM412 225l-55 386l-188 -386h243zM282 894h74l51 -140h-56z" />
    <glyph glyph-name="Aacute" unicode="&#xc1;" horiz-adv-x="581" 
d="M421 164h-282l-80 -164h-85l360 700h71l114 -700h-75zM412 225l-55 386l-188 -386h243zM455 894h74l-118 -140h-57z" />
    <glyph glyph-name="Acircumflex" unicode="&#xc2;" horiz-adv-x="581" 
d="M421 164h-282l-80 -164h-85l360 700h71l114 -700h-75zM412 225l-55 386l-188 -386h243zM376 890h53l80 -136h-58l-53 91l-86 -91h-63z" />
    <glyph glyph-name="Atilde" unicode="&#xc3;" horiz-adv-x="581" 
d="M421 164h-282l-80 -164h-85l360 700h71l114 -700h-75zM412 225l-55 386l-188 -386h243zM269.5 819.5c16.333 17.667 36.1689 26.501 59.502 26.501c12 0 23.167 -2.33301 33.5 -7s22.166 -11.334 35.499 -20.001c19.333 -13.333 34.333 -20 45 -20
c9.33301 0 17.333 4 24 12s12.334 21 17.001 39h45c-5.33301 -28 -16.333 -51 -33 -69s-37 -27 -61 -27c-12 0 -23.333 2.5 -34 7.5s-22.334 11.833 -35.001 20.5c-7.33301 4.66699 -14.666 9 -21.999 13s-14 6 -20 6c-8.66699 0 -16.834 -4.33301 -24.501 -13
s-12.834 -20 -15.501 -34h-45c4 26 14.167 47.833 30.5 65.5z" />
    <glyph glyph-name="Adieresis" unicode="&#xc4;" horiz-adv-x="581" 
d="M421 164h-282l-80 -164h-85l360 700h71l114 -700h-75zM412 225l-55 386l-188 -386h243zM252 764.5c-7.33301 7 -11 15.834 -11 26.501c0 16 5.16699 29 15.5 39s23.833 15 40.5 15c11.333 0 20.666 -3.33301 27.999 -10s11 -15.334 11 -26.001
c0 -16.667 -5.16699 -30 -15.5 -40s-23.833 -15 -40.5 -15c-11.333 0 -20.666 3.5 -27.999 10.5zM448 764.501c-7.33301 7 -10.999 16.168 -10.999 27.501c0 15.333 5.16699 28 15.5 38s23.833 15 40.5 15c11.333 0 20.666 -3.33301 27.999 -10s11 -15.334 11 -26.001
c0 -16.667 -5 -30 -15 -40s-23.333 -15 -40 -15c-12 0 -21.667 3.5 -29 10.5z" />
    <glyph glyph-name="Aring" unicode="&#xc5;" horiz-adv-x="581" 
d="M421 164h-282l-80 -164h-85l360 700h71l114 -700h-75zM412 225l-55 386l-188 -386h243zM321 739.5c-14 13 -21 29.5 -21 49.5c0 30 9.66699 54.333 29 73s44.666 28 75.999 28c22.667 0 41 -6.5 55 -19.5s21 -29.5 21 -49.5c0 -30 -9.66699 -54.333 -29 -73
s-44.666 -28 -75.999 -28c-22.667 0 -41 6.5 -55 19.5zM425 770.5c11.333 11.667 16.998 26.5 16.998 44.5c0 12 -4 21.833 -12 29.5s-18.333 11.5 -31 11.5c-17.333 0 -31.666 -5.66699 -42.999 -17s-17 -26 -17 -44c0 -12 3.83301 -22 11.5 -30s17.834 -12 30.501 -12
c18 0 32.667 5.83301 44 17.5z" />
    <glyph glyph-name="AE" unicode="&#xc6;" horiz-adv-x="791" 
d="M515 638l-42 -239h254l-11 -61h-254l-48 -276h288l-11 -62h-362l28 161h-197l-104 -161h-82l454 700h386l-11 -62h-288zM432 584l-235 -364h171z" />
    <glyph glyph-name="Ccedilla" unicode="&#xc7;" horiz-adv-x="576" 
d="M535.5 682c36.333 -18.667 61.166 -43.998 74.499 -75.998l-49 -44c-28 57.333 -78.667 86 -152 86c-54 0 -103 -16.833 -147 -50.5s-78.5 -80.167 -103.5 -139.5s-37.5 -125.666 -37.5 -198.999c0 -66 15.5 -117 46.5 -153s74.833 -54 131.5 -54
c79.333 0 142 28.667 188 86l33 -44c-23.333 -30.667 -52.666 -54.834 -87.999 -72.501s-74.333 -27.834 -117 -30.501l-37 -54c24 0 43.333 -6 58 -18s22 -27.333 22 -46c0 -27.333 -10.5 -48.833 -31.5 -64.5s-48.167 -23.5 -81.5 -23.5c-30.667 0 -53.667 3.33301 -69 10
l13 33c11.333 -3.33301 28.333 -5 51 -5c20 0 36.333 4.33301 49 13s19 20.667 19 36c0 11.333 -6.5 20 -19.5 26s-31.5 8.66699 -55.5 8l-13 18l49 67c-69.333 5.33301 -123.833 31.333 -163.5 78s-59.5 108.667 -59.5 186c0 85.333 15.667 162.666 47 231.999
s74.833 123.833 130.5 163.5s118.167 59.5 187.5 59.5c46.667 0 88.167 -9.33301 124.5 -28z" />
    <glyph glyph-name="Egrave" unicode="&#xc8;" horiz-adv-x="546" 
d="M165 700h404l-10 -62h-331l-41 -238h295l-11 -63h-296l-48 -275h330l-11 -62h-404zM285 894h74l51 -140h-56z" />
    <glyph glyph-name="Eacute" unicode="&#xc9;" horiz-adv-x="546" 
d="M165 700h404l-10 -62h-331l-41 -238h295l-11 -63h-296l-48 -275h330l-11 -62h-404zM458 894h74l-118 -140h-57z" />
    <glyph glyph-name="Ecircumflex" unicode="&#xca;" horiz-adv-x="546" 
d="M165 700h404l-10 -62h-331l-41 -238h295l-11 -63h-296l-48 -275h330l-11 -62h-404zM379 890h53l80 -136h-58l-53 91l-86 -91h-63z" />
    <glyph glyph-name="Edieresis" unicode="&#xcb;" horiz-adv-x="546" 
d="M165 700h404l-10 -62h-331l-41 -238h295l-11 -63h-296l-48 -275h330l-11 -62h-404zM255 764.5c-7.33301 7 -11 15.834 -11 26.501c0 16 5.16699 29 15.5 39s23.833 15 40.5 15c11.333 0 20.666 -3.33301 27.999 -10s11 -15.334 11 -26.001
c0 -16.667 -5.16699 -30 -15.5 -40s-23.833 -15 -40.5 -15c-11.333 0 -20.666 3.5 -27.999 10.5zM451 764.501c-7.33301 7 -10.999 16.168 -10.999 27.501c0 15.333 5.16699 28 15.5 38s23.833 15 40.5 15c11.333 0 20.666 -3.33301 27.999 -10s11 -15.334 11 -26.001
c0 -16.667 -5 -30 -15 -40s-23.333 -15 -40 -15c-12 0 -21.667 3.5 -29 10.5z" />
    <glyph glyph-name="Igrave" unicode="&#xcc;" horiz-adv-x="284" 
d="M184 700h74l-123 -700h-74zM135 894h74l51 -140h-56z" />
    <glyph glyph-name="Iacute" unicode="&#xcd;" horiz-adv-x="284" 
d="M184 700h74l-123 -700h-74zM308 894h74l-118 -140h-57z" />
    <glyph glyph-name="Icircumflex" unicode="&#xce;" horiz-adv-x="284" 
d="M184 700h74l-123 -700h-74zM229 890h53l80 -136h-58l-53 91l-86 -91h-63z" />
    <glyph glyph-name="Idieresis" unicode="&#xcf;" horiz-adv-x="284" 
d="M184 700h74l-123 -700h-74zM105 764.5c-7.33301 7 -11 15.834 -11 26.501c0 16 5.16699 29 15.5 39s23.833 15 40.5 15c11.333 0 20.666 -3.33301 27.999 -10s11 -15.334 11 -26.001c0 -16.667 -5.16699 -30 -15.5 -40s-23.833 -15 -40.5 -15
c-11.333 0 -20.666 3.5 -27.999 10.5zM301 764.501c-7.33301 7 -10.999 16.168 -10.999 27.501c0 15.333 5.16699 28 15.5 38s23.833 15 40.5 15c11.333 0 20.666 -3.33301 27.999 -10s11 -15.334 11 -26.001c0 -16.667 -5 -30 -15 -40s-23.333 -15 -40 -15
c-12 0 -21.667 3.5 -29 10.5z" />
    <glyph glyph-name="Eth" unicode="&#xd0;" horiz-adv-x="619" 
d="M603 475c0 -99.333 -14.333 -184.5 -43 -255.5s-70.5 -125.333 -125.5 -163s-120.833 -56.5 -197.5 -56.5h-194l54 308h-79l11 59h78l59 333h216c147.333 0 221 -75 221 -225zM399 113c41.333 34 73.333 81.999 96 143.999s34 133 34 213
c0 58.667 -13.333 101.334 -40 128.001s-67 40 -121 40h-139l-48 -271h222l-10 -59h-222l-43 -246h128c54 0 101.667 17 143 51z" />
    <glyph glyph-name="Ntilde" unicode="&#xd1;" horiz-adv-x="677" 
d="M670 700l-123 -700h-75l-253 591l-104 -591h-74l123 700h82l248 -583l103 583h73zM317.5 819.5c16.333 17.667 36.1689 26.501 59.502 26.501c12 0 23.167 -2.33301 33.5 -7s22.166 -11.334 35.499 -20.001c19.333 -13.333 34.333 -20 45 -20c9.33301 0 17.333 4 24 12
s12.334 21 17.001 39h45c-5.33301 -28 -16.333 -51 -33 -69s-37 -27 -61 -27c-12 0 -23.333 2.5 -34 7.5s-22.334 11.833 -35.001 20.5c-7.33301 4.66699 -14.666 9 -21.999 13s-14 6 -20 6c-8.66699 0 -16.834 -4.33301 -24.501 -13s-12.834 -20 -15.501 -34h-45
c4 26 14.167 47.833 30.5 65.5z" />
    <glyph glyph-name="Ograve" unicode="&#xd2;" horiz-adv-x="655" 
d="M111.5 61.5c-43.667 47.667 -65.499 112.5 -65.499 194.5c0 84.667 15.5 161.667 46.5 231s73.833 123.833 128.5 163.5s115.667 59.5 183 59.5c48.667 0 91.167 -10.833 127.5 -32.5s64.333 -52.5 84 -92.5s29.5 -87 29.5 -141c0 -84.667 -15.5 -161.667 -46.5 -231
s-73.667 -123.833 -128 -163.5s-114.833 -59.5 -181.5 -59.5c-74.667 0 -133.834 23.833 -177.501 71.5zM433.001 103c42 34.667 75.335 81.832 100.002 141.499s37 124.834 37 195.501c0 65.333 -15 116.5 -45 153.5s-72 55.5 -126 55.5
c-50.667 0 -97.334 -17.333 -140.001 -52s-76.334 -81.667 -101.001 -141s-37 -124.333 -37 -195c0 -66 15.167 -117.5 45.5 -154.5s72.833 -55.5 127.5 -55.5c50.667 0 97 17.333 139 52zM321.003 893.998h74l51 -140h-56z" />
    <glyph glyph-name="Oacute" unicode="&#xd3;" horiz-adv-x="655" 
d="M111.5 61.5c-43.667 47.667 -65.499 112.5 -65.499 194.5c0 84.667 15.5 161.667 46.5 231s73.833 123.833 128.5 163.5s115.667 59.5 183 59.5c48.667 0 91.167 -10.833 127.5 -32.5s64.333 -52.5 84 -92.5s29.5 -87 29.5 -141c0 -84.667 -15.5 -161.667 -46.5 -231
s-73.667 -123.833 -128 -163.5s-114.833 -59.5 -181.5 -59.5c-74.667 0 -133.834 23.833 -177.501 71.5zM433.001 103c42 34.667 75.335 81.832 100.002 141.499s37 124.834 37 195.501c0 65.333 -15 116.5 -45 153.5s-72 55.5 -126 55.5
c-50.667 0 -97.334 -17.333 -140.001 -52s-76.334 -81.667 -101.001 -141s-37 -124.333 -37 -195c0 -66 15.167 -117.5 45.5 -154.5s72.833 -55.5 127.5 -55.5c50.667 0 97 17.333 139 52zM494.003 893.998h74l-118 -140h-57z" />
    <glyph glyph-name="Ocircumflex" unicode="&#xd4;" horiz-adv-x="655" 
d="M111.5 61.5c-43.667 47.667 -65.499 112.5 -65.499 194.5c0 84.667 15.5 161.667 46.5 231s73.833 123.833 128.5 163.5s115.667 59.5 183 59.5c48.667 0 91.167 -10.833 127.5 -32.5s64.333 -52.5 84 -92.5s29.5 -87 29.5 -141c0 -84.667 -15.5 -161.667 -46.5 -231
s-73.667 -123.833 -128 -163.5s-114.833 -59.5 -181.5 -59.5c-74.667 0 -133.834 23.833 -177.501 71.5zM433.001 103c42 34.667 75.335 81.832 100.002 141.499s37 124.834 37 195.501c0 65.333 -15 116.5 -45 153.5s-72 55.5 -126 55.5
c-50.667 0 -97.334 -17.333 -140.001 -52s-76.334 -81.667 -101.001 -141s-37 -124.333 -37 -195c0 -66 15.167 -117.5 45.5 -154.5s72.833 -55.5 127.5 -55.5c50.667 0 97 17.333 139 52zM415.003 889.998h53l80 -136h-58l-53 91l-86 -91h-63z" />
    <glyph glyph-name="Otilde" unicode="&#xd5;" horiz-adv-x="655" 
d="M111.5 61.5c-43.667 47.667 -65.499 112.5 -65.499 194.5c0 84.667 15.5 161.667 46.5 231s73.833 123.833 128.5 163.5s115.667 59.5 183 59.5c48.667 0 91.167 -10.833 127.5 -32.5s64.333 -52.5 84 -92.5s29.5 -87 29.5 -141c0 -84.667 -15.5 -161.667 -46.5 -231
s-73.667 -123.833 -128 -163.5s-114.833 -59.5 -181.5 -59.5c-74.667 0 -133.834 23.833 -177.501 71.5zM433.001 103c42 34.667 75.335 81.832 100.002 141.499s37 124.834 37 195.501c0 65.333 -15 116.5 -45 153.5s-72 55.5 -126 55.5
c-50.667 0 -97.334 -17.333 -140.001 -52s-76.334 -81.667 -101.001 -141s-37 -124.333 -37 -195c0 -66 15.167 -117.5 45.5 -154.5s72.833 -55.5 127.5 -55.5c50.667 0 97 17.333 139 52zM308.503 819.498c16.333 17.667 36.1689 26.501 59.502 26.501
c12 0 23.167 -2.33301 33.5 -7s22.166 -11.334 35.499 -20.001c19.333 -13.333 34.333 -20 45 -20c9.33301 0 17.333 4 24 12s12.334 21 17.001 39h45c-5.33301 -28 -16.333 -51 -33 -69s-37 -27 -61 -27c-12 0 -23.333 2.5 -34 7.5s-22.334 11.833 -35.001 20.5
c-7.33301 4.66699 -14.666 9 -21.999 13s-14 6 -20 6c-8.66699 0 -16.834 -4.33301 -24.501 -13s-12.834 -20 -15.501 -34h-45c4 26 14.167 47.833 30.5 65.5z" />
    <glyph glyph-name="Odieresis" unicode="&#xd6;" horiz-adv-x="655" 
d="M111.5 61.5c-43.667 47.667 -65.499 112.5 -65.499 194.5c0 84.667 15.5 161.667 46.5 231s73.833 123.833 128.5 163.5s115.667 59.5 183 59.5c48.667 0 91.167 -10.833 127.5 -32.5s64.333 -52.5 84 -92.5s29.5 -87 29.5 -141c0 -84.667 -15.5 -161.667 -46.5 -231
s-73.667 -123.833 -128 -163.5s-114.833 -59.5 -181.5 -59.5c-74.667 0 -133.834 23.833 -177.501 71.5zM433.001 103c42 34.667 75.335 81.832 100.002 141.499s37 124.834 37 195.501c0 65.333 -15 116.5 -45 153.5s-72 55.5 -126 55.5
c-50.667 0 -97.334 -17.333 -140.001 -52s-76.334 -81.667 -101.001 -141s-37 -124.333 -37 -195c0 -66 15.167 -117.5 45.5 -154.5s72.833 -55.5 127.5 -55.5c50.667 0 97 17.333 139 52zM291.003 764.498c-7.33301 7 -11 15.834 -11 26.501c0 16 5.16699 29 15.5 39
s23.833 15 40.5 15c11.333 0 20.666 -3.33301 27.999 -10s11 -15.334 11 -26.001c0 -16.667 -5.16699 -30 -15.5 -40s-23.833 -15 -40.5 -15c-11.333 0 -20.666 3.5 -27.999 10.5zM487.003 764.499c-7.33301 7 -10.999 16.168 -10.999 27.501c0 15.333 5.16699 28 15.5 38
s23.833 15 40.5 15c11.333 0 20.666 -3.33301 27.999 -10s11 -15.334 11 -26.001c0 -16.667 -5 -30 -15 -40s-23.333 -15 -40 -15c-12 0 -21.667 3.5 -29 10.5z" />
    <glyph glyph-name="multiply" unicode="&#xd7;" horiz-adv-x="603" 
d="M294 212l-224 -199l-39 42l226 203l-154 200l53 42l154 -198l226 198l39 -42l-226 -200l155 -203l-54 -42z" />
    <glyph glyph-name="Oslash" unicode="&#xd8;" horiz-adv-x="655" 
d="M628.5 553c11 -32.667 16.5 -69 16.5 -109c0 -84.667 -15.5 -161.667 -46.5 -231s-73.667 -123.833 -128 -163.5s-114.833 -59.5 -181.5 -59.5c-53.333 0 -99.333 12.667 -138 38l-50 -71h-61l73 103c-44.667 48 -67 113.333 -67 196c0 84.667 15.5 161.667 46.5 231
s73.833 123.833 128.5 163.5s115.667 59.5 183 59.5c53.333 0 99.333 -13 138 -39l38 54h64l-62 -88c20 -23.333 35.5 -51.333 46.5 -84zM156 121l347.002 494c-28 22.667 -62.667 34 -104 34c-50.667 0 -97.334 -17.333 -140.001 -52s-76.334 -81.667 -101.001 -141
s-37 -124.333 -37 -195c0 -58 11.667 -104.667 35 -140zM433.002 103c42 34.667 75.332 81.832 99.999 141.499s37 124.834 37 195.501c0 55.333 -10.667 100.333 -32 135l-348 -492c28.667 -21.333 63.334 -32 104.001 -32c50.667 0 97 17.333 139 52z" />
    <glyph glyph-name="Ugrave" unicode="&#xd9;" horiz-adv-x="656" 
d="M133.5 42c-35.667 34.667 -53.5 85.001 -53.5 151.001c0 24 2.66699 51.333 8 82l75 425h75l-75 -423c-5.33301 -32 -8 -58.667 -8 -80c0 -48.667 11.333 -85 34 -109s57.667 -36 105 -36c112.667 0 182.334 75 209.001 225l75 423h74l-75 -425
c-16.667 -96.667 -48.5 -168.334 -95.5 -215.001s-110.833 -70 -191.5 -70c-68.667 0 -120.834 17.333 -156.501 52zM321 894.001h74l51 -140h-56z" />
    <glyph glyph-name="Uacute" unicode="&#xda;" horiz-adv-x="656" 
d="M133.5 42c-35.667 34.667 -53.5 85.001 -53.5 151.001c0 24 2.66699 51.333 8 82l75 425h75l-75 -423c-5.33301 -32 -8 -58.667 -8 -80c0 -48.667 11.333 -85 34 -109s57.667 -36 105 -36c112.667 0 182.334 75 209.001 225l75 423h74l-75 -425
c-16.667 -96.667 -48.5 -168.334 -95.5 -215.001s-110.833 -70 -191.5 -70c-68.667 0 -120.834 17.333 -156.501 52zM494 894.001h74l-118 -140h-57z" />
    <glyph glyph-name="Ucircumflex" unicode="&#xdb;" horiz-adv-x="656" 
d="M133.5 42c-35.667 34.667 -53.5 85.001 -53.5 151.001c0 24 2.66699 51.333 8 82l75 425h75l-75 -423c-5.33301 -32 -8 -58.667 -8 -80c0 -48.667 11.333 -85 34 -109s57.667 -36 105 -36c112.667 0 182.334 75 209.001 225l75 423h74l-75 -425
c-16.667 -96.667 -48.5 -168.334 -95.5 -215.001s-110.833 -70 -191.5 -70c-68.667 0 -120.834 17.333 -156.501 52zM415 890.001h53l80 -136h-58l-53 91l-86 -91h-63z" />
    <glyph glyph-name="Udieresis" unicode="&#xdc;" horiz-adv-x="656" 
d="M133.5 42c-35.667 34.667 -53.5 85.001 -53.5 151.001c0 24 2.66699 51.333 8 82l75 425h75l-75 -423c-5.33301 -32 -8 -58.667 -8 -80c0 -48.667 11.333 -85 34 -109s57.667 -36 105 -36c112.667 0 182.334 75 209.001 225l75 423h74l-75 -425
c-16.667 -96.667 -48.5 -168.334 -95.5 -215.001s-110.833 -70 -191.5 -70c-68.667 0 -120.834 17.333 -156.501 52zM291 764.501c-7.33301 7 -11 15.834 -11 26.501c0 16 5.16699 29 15.5 39s23.833 15 40.5 15c11.333 0 20.666 -3.33301 27.999 -10s11 -15.334 11 -26.001
c0 -16.667 -5.16699 -30 -15.5 -40s-23.833 -15 -40.5 -15c-11.333 0 -20.666 3.5 -27.999 10.5zM487 764.502c-7.33301 7 -10.999 16.168 -10.999 27.501c0 15.333 5.16699 28 15.5 38s23.833 15 40.5 15c11.333 0 20.666 -3.33301 27.999 -10s11 -15.334 11 -26.001
c0 -16.667 -5 -30 -15 -40s-23.333 -15 -40 -15c-12 0 -21.667 3.5 -29 10.5z" />
    <glyph glyph-name="Yacute" unicode="&#xdd;" horiz-adv-x="554" 
d="M245 278l-147 422h81l113 -353l238 353h84l-295 -422l-48 -278h-75zM442 894h74l-118 -140h-57z" />
    <glyph glyph-name="Thorn" unicode="&#xde;" horiz-adv-x="565" 
d="M165 700h74l-17 -99h113c64 0 114 -14.333 150 -43s54 -69 54 -121c0 -54 -10.833 -101 -32.5 -141s-53 -70.667 -94 -92s-89.167 -32 -144.5 -32h-121l-31 -172h-74zM284 234c36 0 67.668 8.16895 95.001 24.502s48.666 39.166 63.999 68.499s23 62.666 23 99.999
c0 36.667 -11.5 64.667 -34.5 84s-56.833 29 -101.5 29h-119l-54 -306h127z" />
    <glyph glyph-name="germandbls" unicode="&#xdf;" horiz-adv-x="562" 
d="M224 10.5c-28 13.667 -46.9951 33.833 -56.9951 60.5l51 31c9.33301 -18.667 22.666 -32.834 39.999 -42.501s36.666 -14.5 57.999 -14.5c34.667 0 63.667 10.833 87 32.5s35 48.834 35 81.501c0 21.333 -6.83301 37.833 -20.5 49.5s-35.5 23.167 -65.5 34.5
c-28 11.333 -48.833 24.5 -62.5 39.5s-20.5 33.167 -20.5 54.5c0 20.667 4 38.5 12 53.5s17.667 27.333 29 37s26.666 21.167 45.999 34.5c28 18.667 48.833 35.834 62.5 51.501s20.5 37.167 20.5 64.5c0 24.667 -8.33301 43.5 -25 56.5s-41 19.5 -73 19.5
c-47.333 0 -84.333 -14.333 -111 -43s-45 -71.667 -55 -129l-85 -482h-68l86 487c12.667 73.333 38.167 128.833 76.5 166.5s89.5 56.5 153.5 56.5c52.667 0 94.167 -11 124.5 -33s45.5 -52.333 45.5 -91c0 -26.667 -5.16699 -49.834 -15.5 -69.501
s-22.5 -35.834 -36.5 -48.501s-32 -26.667 -54 -42c-22.667 -15.333 -39.334 -28.5 -50.001 -39.5s-16 -24.167 -16 -39.5c0 -12 5.16699 -22.333 15.5 -31s28.166 -18 53.499 -28c68.667 -28 103 -69.333 103 -124c0 -33.333 -8.16699 -63.166 -24.5 -89.499
s-39 -47 -68 -62s-61.833 -22.5 -98.5 -22.5c-34 0 -65 6.83301 -93 20.5z" />
    <glyph glyph-name="agrave" unicode="&#xe0;" horiz-adv-x="538" 
d="M78.5 42.5c-31 35 -46.501 82.833 -46.501 143.5c0 62 10.833 117.667 32.5 167s52 87.833 91 115.5s83.167 41.5 132.5 41.5c34.667 0 65 -7.5 91 -22.5s44.333 -35.833 55 -62.5h2l23 75h57l-66 -376c-9.33301 -48.667 -16 -90 -20 -124h-62
c5.33301 40.667 9.33301 68.667 12 84h-2c-20.667 -29.333 -46.167 -52.333 -76.5 -69s-62.166 -25 -95.499 -25c-54 0 -96.5 17.5 -127.5 52.5zM333.499 89.5c32.333 28.333 52.5 65.166 60.5 110.499l15 87c2.66699 13.333 4 27.333 4 42
c0 39.333 -10.833 70.166 -32.5 92.499s-51.5 33.5 -89.5 33.5c-35.333 0 -67.5 -11.5 -96.5 -34.5s-51.667 -54.667 -68 -95s-24.5 -85.166 -24.5 -134.499c0 -45.333 10.167 -80.666 30.5 -105.999s48.833 -38 85.5 -38c44.667 0 83.167 14.167 115.5 42.5zM208.999 694
h74l51 -140h-56z" />
    <glyph glyph-name="aacute" unicode="&#xe1;" horiz-adv-x="538" 
d="M78.5 42.5c-31 35 -46.501 82.833 -46.501 143.5c0 62 10.833 117.667 32.5 167s52 87.833 91 115.5s83.167 41.5 132.5 41.5c34.667 0 65 -7.5 91 -22.5s44.333 -35.833 55 -62.5h2l23 75h57l-66 -376c-9.33301 -48.667 -16 -90 -20 -124h-62
c5.33301 40.667 9.33301 68.667 12 84h-2c-20.667 -29.333 -46.167 -52.333 -76.5 -69s-62.166 -25 -95.499 -25c-54 0 -96.5 17.5 -127.5 52.5zM333.499 89.5c32.333 28.333 52.5 65.166 60.5 110.499l15 87c2.66699 13.333 4 27.333 4 42
c0 39.333 -10.833 70.166 -32.5 92.499s-51.5 33.5 -89.5 33.5c-35.333 0 -67.5 -11.5 -96.5 -34.5s-51.667 -54.667 -68 -95s-24.5 -85.166 -24.5 -134.499c0 -45.333 10.167 -80.666 30.5 -105.999s48.833 -38 85.5 -38c44.667 0 83.167 14.167 115.5 42.5zM381.999 694
h74l-118 -140h-57z" />
    <glyph glyph-name="acircumflex" unicode="&#xe2;" horiz-adv-x="538" 
d="M78.5 42.5c-31 35 -46.501 82.833 -46.501 143.5c0 62 10.833 117.667 32.5 167s52 87.833 91 115.5s83.167 41.5 132.5 41.5c34.667 0 65 -7.5 91 -22.5s44.333 -35.833 55 -62.5h2l23 75h57l-66 -376c-9.33301 -48.667 -16 -90 -20 -124h-62
c5.33301 40.667 9.33301 68.667 12 84h-2c-20.667 -29.333 -46.167 -52.333 -76.5 -69s-62.166 -25 -95.499 -25c-54 0 -96.5 17.5 -127.5 52.5zM333.499 89.5c32.333 28.333 52.5 65.166 60.5 110.499l15 87c2.66699 13.333 4 27.333 4 42
c0 39.333 -10.833 70.166 -32.5 92.499s-51.5 33.5 -89.5 33.5c-35.333 0 -67.5 -11.5 -96.5 -34.5s-51.667 -54.667 -68 -95s-24.5 -85.166 -24.5 -134.499c0 -45.333 10.167 -80.666 30.5 -105.999s48.833 -38 85.5 -38c44.667 0 83.167 14.167 115.5 42.5zM302.999 690
h53l80 -136h-58l-53 91l-86 -91h-63z" />
    <glyph glyph-name="atilde" unicode="&#xe3;" horiz-adv-x="538" 
d="M78.5 42.5c-31 35 -46.501 82.833 -46.501 143.5c0 62 10.833 117.667 32.5 167s52 87.833 91 115.5s83.167 41.5 132.5 41.5c34.667 0 65 -7.5 91 -22.5s44.333 -35.833 55 -62.5h2l23 75h57l-66 -376c-9.33301 -48.667 -16 -90 -20 -124h-62
c5.33301 40.667 9.33301 68.667 12 84h-2c-20.667 -29.333 -46.167 -52.333 -76.5 -69s-62.166 -25 -95.499 -25c-54 0 -96.5 17.5 -127.5 52.5zM333.499 89.5c32.333 28.333 52.5 65.166 60.5 110.499l15 87c2.66699 13.333 4 27.333 4 42
c0 39.333 -10.833 70.166 -32.5 92.499s-51.5 33.5 -89.5 33.5c-35.333 0 -67.5 -11.5 -96.5 -34.5s-51.667 -54.667 -68 -95s-24.5 -85.166 -24.5 -134.499c0 -45.333 10.167 -80.666 30.5 -105.999s48.833 -38 85.5 -38c44.667 0 83.167 14.167 115.5 42.5zM196.499 619.5
c16.333 17.667 36.1689 26.501 59.502 26.501c12 0 23.167 -2.33301 33.5 -7s22.166 -11.334 35.499 -20.001c19.333 -13.333 34.333 -20 45 -20c9.33301 0 17.333 4 24 12s12.334 21 17.001 39h45c-5.33301 -28 -16.333 -51 -33 -69s-37 -27 -61 -27
c-12 0 -23.333 2.5 -34 7.5s-22.334 11.833 -35.001 20.5c-7.33301 4.66699 -14.666 9 -21.999 13s-14 6 -20 6c-8.66699 0 -16.834 -4.33301 -24.501 -13s-12.834 -20 -15.501 -34h-45c4 26 14.167 47.833 30.5 65.5z" />
    <glyph glyph-name="adieresis" unicode="&#xe4;" horiz-adv-x="538" 
d="M78.5 42.5c-31 35 -46.501 82.833 -46.501 143.5c0 62 10.833 117.667 32.5 167s52 87.833 91 115.5s83.167 41.5 132.5 41.5c34.667 0 65 -7.5 91 -22.5s44.333 -35.833 55 -62.5h2l23 75h57l-66 -376c-9.33301 -48.667 -16 -90 -20 -124h-62
c5.33301 40.667 9.33301 68.667 12 84h-2c-20.667 -29.333 -46.167 -52.333 -76.5 -69s-62.166 -25 -95.499 -25c-54 0 -96.5 17.5 -127.5 52.5zM333.499 89.5c32.333 28.333 52.5 65.166 60.5 110.499l15 87c2.66699 13.333 4 27.333 4 42
c0 39.333 -10.833 70.166 -32.5 92.499s-51.5 33.5 -89.5 33.5c-35.333 0 -67.5 -11.5 -96.5 -34.5s-51.667 -54.667 -68 -95s-24.5 -85.166 -24.5 -134.499c0 -45.333 10.167 -80.666 30.5 -105.999s48.833 -38 85.5 -38c44.667 0 83.167 14.167 115.5 42.5zM178.999 564.5
c-7.33301 7 -11 15.834 -11 26.501c0 16 5.16699 29 15.5 39s23.833 15 40.5 15c11.333 0 20.666 -3.33301 27.999 -10s11 -15.334 11 -26.001c0 -16.667 -5.16699 -30 -15.5 -40s-23.833 -15 -40.5 -15c-11.333 0 -20.666 3.5 -27.999 10.5zM374.999 564.501
c-7.33301 7 -10.999 16.168 -10.999 27.501c0 15.333 5.16699 28 15.5 38s23.833 15 40.5 15c11.333 0 20.666 -3.33301 27.999 -10s11 -15.334 11 -26.001c0 -16.667 -5 -30 -15 -40s-23.333 -15 -40 -15c-12 0 -21.667 3.5 -29 10.5z" />
    <glyph glyph-name="aring" unicode="&#xe5;" horiz-adv-x="538" 
d="M78.5 42.5c-31 35 -46.501 82.833 -46.501 143.5c0 62 10.833 117.667 32.5 167s52 87.833 91 115.5s83.167 41.5 132.5 41.5c34.667 0 65 -7.5 91 -22.5s44.333 -35.833 55 -62.5h2l23 75h57l-66 -376c-9.33301 -48.667 -16 -90 -20 -124h-62
c5.33301 40.667 9.33301 68.667 12 84h-2c-20.667 -29.333 -46.167 -52.333 -76.5 -69s-62.166 -25 -95.499 -25c-54 0 -96.5 17.5 -127.5 52.5zM333.499 89.5c32.333 28.333 52.5 65.166 60.5 110.499l15 87c2.66699 13.333 4 27.333 4 42
c0 39.333 -10.833 70.166 -32.5 92.499s-51.5 33.5 -89.5 33.5c-35.333 0 -67.5 -11.5 -96.5 -34.5s-51.667 -54.667 -68 -95s-24.5 -85.166 -24.5 -134.499c0 -45.333 10.167 -80.666 30.5 -105.999s48.833 -38 85.5 -38c44.667 0 83.167 14.167 115.5 42.5zM248.999 562.5
c-14 13 -21 29.5 -21 49.5c0 30 9.66699 54.333 29 73s44.666 28 75.999 28c22.667 0 41 -6.5 55 -19.5s21 -29.5 21 -49.5c0 -30 -9.66699 -54.333 -29 -73s-44.666 -28 -75.999 -28c-22.667 0 -41 6.5 -55 19.5zM352.999 593.5c11.333 11.667 16.998 26.5 16.998 44.5
c0 12 -4 21.833 -12 29.5s-18.333 11.5 -31 11.5c-17.333 0 -31.666 -5.66699 -42.999 -17s-17 -26 -17 -44c0 -12 3.83301 -22 11.5 -30s17.834 -12 30.501 -12c18 0 32.667 5.83301 44 17.5z" />
    <glyph glyph-name="ae" unicode="&#xe6;" horiz-adv-x="827" 
d="M750.5 464c32.333 -30.667 48.499 -74.002 48.499 -130.002c0 -20 -2 -41 -6 -63l-5 -31h-364l-2 -15c-1.33301 -16 -2 -27.667 -2 -35c0 -45.333 11.333 -80.166 34 -104.499s55 -36.5 97 -36.5c29.333 0 57.333 6.33301 84 19s50 31 70 55l34 -39
c-24 -30 -53.167 -53.167 -87.5 -69.5s-71.166 -24.5 -110.499 -24.5c-41.333 0 -76.5 8.16699 -105.5 24.5s-50.5 39.833 -64.5 70.5c-23.333 -28.667 -52.666 -51.667 -87.999 -69s-73.333 -26 -114 -26c-48 0 -85.667 12.333 -113 37s-41 56 -41 94
c0 52.667 21 94.334 63 125.001s97.667 46 167 46h120l6 34c2 12 3 23.333 3 34c0 30 -8.66699 53 -26 69s-42.666 24 -75.999 24c-30 0 -58.667 -6.66699 -86 -20s-51 -32 -71 -56l-29 44c50 59.333 114.333 89 193 89c38.667 0 71.167 -7.33301 97.5 -22
s45.166 -35.667 56.499 -63c23.333 27.333 50.666 48.333 81.999 63s65.333 22 102 22c56.667 0 101.167 -15.333 133.5 -46zM738.999 334.998c0 35.333 -10.667 63.832 -32 85.499s-52.333 32.5 -93 32.5s-77.167 -14.667 -109.5 -44s-55.833 -68.333 -70.5 -117h300l3 14
c1.33301 6.66699 2 16.334 2 29.001zM284.999 79.9971c32 22.667 51.001 50.668 57.001 84.001l13 72l1 4h-114c-46.667 0 -84.834 -10.833 -114.501 -32.5s-44.5 -49.834 -44.5 -84.501c0 -22.667 8.33301 -41.167 25 -55.5s39 -21.5 67 -21.5c41.333 0 78 11.333 110 34z
" />
    <glyph glyph-name="ccedilla" unicode="&#xe7;" horiz-adv-x="467" 
d="M200.5 419c-31 -22.667 -55.334 -53.999 -73.001 -93.999s-26.5 -84.333 -26.5 -133c0 -46 11.5 -81.667 34.5 -107s55.167 -38 96.5 -38c29.333 0 57.333 6.5 84 19.5s49.334 31.5 68.001 55.5l35 -39c-46.667 -58 -106 -89 -178 -93l-37 -53c24 0 43.333 -6 58 -18
s22 -27.333 22 -46c0 -27.333 -10.5 -48.833 -31.5 -64.5s-48.167 -23.5 -81.5 -23.5c-30.667 0 -53.667 3.33301 -69 10l13 33c11.333 -3.33301 28.333 -5 51 -5c20 0 36.333 4.33301 49 13s19 20.667 19 36c0 11.333 -6.5 20 -19.5 26s-31.5 8.66699 -55.5 8l-13 18l50 68
c-52 5.33301 -92.5 24.833 -121.5 58.5s-43.5 78.167 -43.5 133.5c0 63.333 11.5 119.666 34.5 168.999s55.333 87.833 97 115.5s89.5 41.5 143.5 41.5c40.667 0 76.167 -8.16699 106.5 -24.5s52.5 -39.166 66.5 -68.499l-49 -39
c-10.667 23.333 -27.167 41.666 -49.5 54.999s-47.833 20 -76.5 20c-38 0 -72.5 -11.333 -103.5 -34z" />
    <glyph glyph-name="egrave" unicode="&#xe8;" horiz-adv-x="510" 
d="M432.5 460c31.667 -33.333 47.499 -79.333 47.499 -138c0 -20.667 -2 -42.667 -6 -66l-6 -34h-366c-0.666992 -6.66699 -1 -17.334 -1 -32.001c0 -45.333 11.333 -80.166 34 -104.499s55.334 -36.5 98.001 -36.5c30 0 58.5 6.5 85.5 19.5s50.5 31.167 70.5 54.5l34 -39
c-52.667 -62.667 -117.667 -94 -195 -94c-60.667 0 -108.667 17.5 -144 52.5s-53 82.833 -53 143.5c0 62 11.5 117.667 34.5 167s55 87.833 96 115.5s87.5 41.5 139.5 41.5c56 0 99.833 -16.667 131.5 -50zM417.999 326c0 40 -10.833 71.166 -32.5 93.499
s-51.834 33.5 -90.501 33.5c-43.333 0 -81.666 -16.167 -114.999 -48.5s-56.333 -75.166 -69 -128.499h301l2 8c2.66699 20 4 34 4 42zM220.999 693.999h74l51 -140h-56z" />
    <glyph glyph-name="eacute" unicode="&#xe9;" horiz-adv-x="510" 
d="M432.5 460c31.667 -33.333 47.499 -79.333 47.499 -138c0 -20.667 -2 -42.667 -6 -66l-6 -34h-366c-0.666992 -6.66699 -1 -17.334 -1 -32.001c0 -45.333 11.333 -80.166 34 -104.499s55.334 -36.5 98.001 -36.5c30 0 58.5 6.5 85.5 19.5s50.5 31.167 70.5 54.5l34 -39
c-52.667 -62.667 -117.667 -94 -195 -94c-60.667 0 -108.667 17.5 -144 52.5s-53 82.833 -53 143.5c0 62 11.5 117.667 34.5 167s55 87.833 96 115.5s87.5 41.5 139.5 41.5c56 0 99.833 -16.667 131.5 -50zM417.999 326c0 40 -10.833 71.166 -32.5 93.499
s-51.834 33.5 -90.501 33.5c-43.333 0 -81.666 -16.167 -114.999 -48.5s-56.333 -75.166 -69 -128.499h301l2 8c2.66699 20 4 34 4 42zM393.999 693.999h74l-118 -140h-57z" />
    <glyph glyph-name="ecircumflex" unicode="&#xea;" horiz-adv-x="510" 
d="M432.5 460c31.667 -33.333 47.499 -79.333 47.499 -138c0 -20.667 -2 -42.667 -6 -66l-6 -34h-366c-0.666992 -6.66699 -1 -17.334 -1 -32.001c0 -45.333 11.333 -80.166 34 -104.499s55.334 -36.5 98.001 -36.5c30 0 58.5 6.5 85.5 19.5s50.5 31.167 70.5 54.5l34 -39
c-52.667 -62.667 -117.667 -94 -195 -94c-60.667 0 -108.667 17.5 -144 52.5s-53 82.833 -53 143.5c0 62 11.5 117.667 34.5 167s55 87.833 96 115.5s87.5 41.5 139.5 41.5c56 0 99.833 -16.667 131.5 -50zM417.999 326c0 40 -10.833 71.166 -32.5 93.499
s-51.834 33.5 -90.501 33.5c-43.333 0 -81.666 -16.167 -114.999 -48.5s-56.333 -75.166 -69 -128.499h301l2 8c2.66699 20 4 34 4 42zM314.999 689.999h53l80 -136h-58l-53 91l-86 -91h-63z" />
    <glyph glyph-name="edieresis" unicode="&#xeb;" horiz-adv-x="510" 
d="M432.5 460c31.667 -33.333 47.499 -79.333 47.499 -138c0 -20.667 -2 -42.667 -6 -66l-6 -34h-366c-0.666992 -6.66699 -1 -17.334 -1 -32.001c0 -45.333 11.333 -80.166 34 -104.499s55.334 -36.5 98.001 -36.5c30 0 58.5 6.5 85.5 19.5s50.5 31.167 70.5 54.5l34 -39
c-52.667 -62.667 -117.667 -94 -195 -94c-60.667 0 -108.667 17.5 -144 52.5s-53 82.833 -53 143.5c0 62 11.5 117.667 34.5 167s55 87.833 96 115.5s87.5 41.5 139.5 41.5c56 0 99.833 -16.667 131.5 -50zM417.999 326c0 40 -10.833 71.166 -32.5 93.499
s-51.834 33.5 -90.501 33.5c-43.333 0 -81.666 -16.167 -114.999 -48.5s-56.333 -75.166 -69 -128.499h301l2 8c2.66699 20 4 34 4 42zM190.999 564.499c-7.33301 7 -11 15.834 -11 26.501c0 16 5.16699 29 15.5 39s23.833 15 40.5 15c11.333 0 20.666 -3.33301 27.999 -10
s11 -15.334 11 -26.001c0 -16.667 -5.16699 -30 -15.5 -40s-23.833 -15 -40.5 -15c-11.333 0 -20.666 3.5 -27.999 10.5zM386.999 564.5c-7.33301 7 -10.999 16.168 -10.999 27.501c0 15.333 5.16699 28 15.5 38s23.833 15 40.5 15c11.333 0 20.666 -3.33301 27.999 -10
s11 -15.334 11 -26.001c0 -16.667 -5 -30 -15 -40s-23.333 -15 -40 -15c-12 0 -21.667 3.5 -29 10.5z" />
    <glyph glyph-name="igrave" unicode="&#xec;" horiz-adv-x="244" 
d="M131 500h70l-88 -500h-70zM79 694h74l51 -140h-56z" />
    <glyph glyph-name="iacute" unicode="&#xed;" horiz-adv-x="244" 
d="M131 500h70l-88 -500h-70zM252 694h74l-118 -140h-57z" />
    <glyph glyph-name="icircumflex" unicode="&#xee;" horiz-adv-x="244" 
d="M131 500h70l-88 -500h-70zM173 690h53l80 -136h-58l-53 91l-86 -91h-63z" />
    <glyph glyph-name="idieresis" unicode="&#xef;" horiz-adv-x="244" 
d="M131 500h70l-88 -500h-70zM49 564.5c-7.33301 7 -11 15.834 -11 26.501c0 16 5.16699 29 15.5 39s23.833 15 40.5 15c11.333 0 20.666 -3.33301 27.999 -10s11 -15.334 11 -26.001c0 -16.667 -5.16699 -30 -15.5 -40s-23.833 -15 -40.5 -15
c-11.333 0 -20.666 3.5 -27.999 10.5zM245 564.501c-7.33301 7 -10.999 16.168 -10.999 27.501c0 15.333 5.16699 28 15.5 38s23.833 15 40.5 15c11.333 0 20.666 -3.33301 27.999 -10s11 -15.334 11 -26.001c0 -16.667 -5 -30 -15 -40s-23.333 -15 -40 -15
c-12 0 -21.667 3.5 -29 10.5z" />
    <glyph glyph-name="eth" unicode="&#xf0;" horiz-adv-x="493" 
d="M367 595c31.333 -34 55.1689 -73.6641 71.502 -118.997s24.5 -94 24.5 -146c0 -66 -11 -124.667 -33 -176s-52.833 -91.5 -92.5 -120.5s-85.167 -43.5 -136.5 -43.5c-52 0 -94.167 16.5 -126.5 49.5s-48.5 75.5 -48.5 127.5c0 49.333 10.667 95.166 32 137.499
s50.5 75.833 87.5 100.5s77.167 37 120.5 37c27.333 0 52.833 -5.83301 76.5 -17.5s40.5 -26.834 50.5 -45.501c-2.66699 35.333 -11 68.666 -25 99.999s-32.333 59.666 -55 84.999l-146 -85l-21 43l130 76c-36.667 28.667 -79.334 49.334 -128.001 62.001l13 44
c65.333 -12 121.666 -37 168.999 -75l127 74l20 -44zM297.503 76.0029c27 18.667 48.334 44 64.001 76s23.5 67.333 23.5 106c0 39.333 -10.333 70.333 -31 93s-49.334 34 -86.001 34c-31.333 0 -60.166 -9.5 -86.499 -28.5s-47.333 -44.833 -63 -77.5s-23.5 -68 -23.5 -106
s10.167 -68.333 30.5 -91s48.166 -34 83.499 -34c32 0 61.5 9.33301 88.5 28z" />
    <glyph glyph-name="ntilde" unicode="&#xf1;" horiz-adv-x="545" 
d="M88 376c10.667 65.333 16.666 106.666 17.999 123.999h63c-1.33301 -24.667 -5.66602 -56.334 -12.999 -95.001h3c19.333 32.667 45.5 58.334 78.5 77.001s68.5 28 106.5 28c48.667 0 85.5 -13.167 110.5 -39.5s37.5 -64.833 37.5 -115.5c0 -23.333 -2.33301 -47 -7 -71
l-50 -284h-69l50 285c4 23.333 6 44.333 6 63c0 70 -31 105 -93 105c-30 0 -58.5 -7.66699 -85.5 -23s-49.667 -36.666 -68 -63.999s-30.5 -58.333 -36.5 -93l-48 -273h-70zM217.499 619.5c16.333 17.667 36.1689 26.501 59.502 26.501c12 0 23.167 -2.33301 33.5 -7
s22.166 -11.334 35.499 -20.001c19.333 -13.333 34.333 -20 45 -20c9.33301 0 17.333 4 24 12s12.334 21 17.001 39h45c-5.33301 -28 -16.333 -51 -33 -69s-37 -27 -61 -27c-12 0 -23.333 2.5 -34 7.5s-22.334 11.833 -35.001 20.5c-7.33301 4.66699 -14.666 9 -21.999 13
s-14 6 -20 6c-8.66699 0 -16.834 -4.33301 -24.501 -13s-12.834 -20 -15.501 -34h-45c4 26 14.167 47.833 30.5 65.5z" />
    <glyph glyph-name="ograve" unicode="&#xf2;" horiz-adv-x="550" 
d="M87.5 45.5c-37 37 -55.5 86.167 -55.5 147.5c0 60 12 114.167 36 162.5s57.333 86.166 100 113.499s91 41 145 41c62 0 111.667 -18.5 149 -55.5s56 -86.167 56 -147.5c0 -60 -12.167 -114.167 -36.5 -162.5s-57.833 -86.166 -100.5 -113.499s-91 -41 -145 -41
c-62 0 -111.5 18.5 -148.5 55.5zM344 79.5c32 23 57.335 54.334 76.002 94.001s28 83.167 28 130.5s-12.167 84.333 -36.5 111s-57.833 40 -100.5 40c-38.667 0 -73.834 -11.5 -105.501 -34.5s-56.834 -54.333 -75.501 -94s-28 -83.5 -28 -131.5
c0 -46.667 12 -83.334 36 -110.001s57.333 -40 100 -40c38.667 0 74 11.5 106 34.5zM232.002 694.001h74l51 -140h-56z" />
    <glyph glyph-name="oacute" unicode="&#xf3;" horiz-adv-x="550" 
d="M87.5 45.5c-37 37 -55.5 86.167 -55.5 147.5c0 60 12 114.167 36 162.5s57.333 86.166 100 113.499s91 41 145 41c62 0 111.667 -18.5 149 -55.5s56 -86.167 56 -147.5c0 -60 -12.167 -114.167 -36.5 -162.5s-57.833 -86.166 -100.5 -113.499s-91 -41 -145 -41
c-62 0 -111.5 18.5 -148.5 55.5zM344 79.5c32 23 57.335 54.334 76.002 94.001s28 83.167 28 130.5s-12.167 84.333 -36.5 111s-57.833 40 -100.5 40c-38.667 0 -73.834 -11.5 -105.501 -34.5s-56.834 -54.333 -75.501 -94s-28 -83.5 -28 -131.5
c0 -46.667 12 -83.334 36 -110.001s57.333 -40 100 -40c38.667 0 74 11.5 106 34.5zM405.002 694.001h74l-118 -140h-57z" />
    <glyph glyph-name="ocircumflex" unicode="&#xf4;" horiz-adv-x="550" 
d="M87.5 45.5c-37 37 -55.5 86.167 -55.5 147.5c0 60 12 114.167 36 162.5s57.333 86.166 100 113.499s91 41 145 41c62 0 111.667 -18.5 149 -55.5s56 -86.167 56 -147.5c0 -60 -12.167 -114.167 -36.5 -162.5s-57.833 -86.166 -100.5 -113.499s-91 -41 -145 -41
c-62 0 -111.5 18.5 -148.5 55.5zM344 79.5c32 23 57.335 54.334 76.002 94.001s28 83.167 28 130.5s-12.167 84.333 -36.5 111s-57.833 40 -100.5 40c-38.667 0 -73.834 -11.5 -105.501 -34.5s-56.834 -54.333 -75.501 -94s-28 -83.5 -28 -131.5
c0 -46.667 12 -83.334 36 -110.001s57.333 -40 100 -40c38.667 0 74 11.5 106 34.5zM326.002 690.001h53l80 -136h-58l-53 91l-86 -91h-63z" />
    <glyph glyph-name="otilde" unicode="&#xf5;" horiz-adv-x="550" 
d="M87.5 45.5c-37 37 -55.5 86.167 -55.5 147.5c0 60 12 114.167 36 162.5s57.333 86.166 100 113.499s91 41 145 41c62 0 111.667 -18.5 149 -55.5s56 -86.167 56 -147.5c0 -60 -12.167 -114.167 -36.5 -162.5s-57.833 -86.166 -100.5 -113.499s-91 -41 -145 -41
c-62 0 -111.5 18.5 -148.5 55.5zM344 79.5c32 23 57.335 54.334 76.002 94.001s28 83.167 28 130.5s-12.167 84.333 -36.5 111s-57.833 40 -100.5 40c-38.667 0 -73.834 -11.5 -105.501 -34.5s-56.834 -54.333 -75.501 -94s-28 -83.5 -28 -131.5
c0 -46.667 12 -83.334 36 -110.001s57.333 -40 100 -40c38.667 0 74 11.5 106 34.5zM219.502 619.501c16.333 17.667 36.1689 26.501 59.502 26.501c12 0 23.167 -2.33301 33.5 -7s22.166 -11.334 35.499 -20.001c19.333 -13.333 34.333 -20 45 -20
c9.33301 0 17.333 4 24 12s12.334 21 17.001 39h45c-5.33301 -28 -16.333 -51 -33 -69s-37 -27 -61 -27c-12 0 -23.333 2.5 -34 7.5s-22.334 11.833 -35.001 20.5c-7.33301 4.66699 -14.666 9 -21.999 13s-14 6 -20 6c-8.66699 0 -16.834 -4.33301 -24.501 -13
s-12.834 -20 -15.501 -34h-45c4 26 14.167 47.833 30.5 65.5z" />
    <glyph glyph-name="odieresis" unicode="&#xf6;" horiz-adv-x="550" 
d="M87.5 45.5c-37 37 -55.5 86.167 -55.5 147.5c0 60 12 114.167 36 162.5s57.333 86.166 100 113.499s91 41 145 41c62 0 111.667 -18.5 149 -55.5s56 -86.167 56 -147.5c0 -60 -12.167 -114.167 -36.5 -162.5s-57.833 -86.166 -100.5 -113.499s-91 -41 -145 -41
c-62 0 -111.5 18.5 -148.5 55.5zM344 79.5c32 23 57.335 54.334 76.002 94.001s28 83.167 28 130.5s-12.167 84.333 -36.5 111s-57.833 40 -100.5 40c-38.667 0 -73.834 -11.5 -105.501 -34.5s-56.834 -54.333 -75.501 -94s-28 -83.5 -28 -131.5
c0 -46.667 12 -83.334 36 -110.001s57.333 -40 100 -40c38.667 0 74 11.5 106 34.5zM202.002 564.501c-7.33301 7 -11 15.834 -11 26.501c0 16 5.16699 29 15.5 39s23.833 15 40.5 15c11.333 0 20.666 -3.33301 27.999 -10s11 -15.334 11 -26.001
c0 -16.667 -5.16699 -30 -15.5 -40s-23.833 -15 -40.5 -15c-11.333 0 -20.666 3.5 -27.999 10.5zM398.002 564.502c-7.33301 7 -10.999 16.168 -10.999 27.501c0 15.333 5.16699 28 15.5 38s23.833 15 40.5 15c11.333 0 20.666 -3.33301 27.999 -10s11 -15.334 11 -26.001
c0 -16.667 -5 -30 -15 -40s-23.333 -15 -40 -15c-12 0 -21.667 3.5 -29 10.5z" />
    <glyph glyph-name="divide" unicode="&#xf7;" horiz-adv-x="603" 
d="M294 403c-8.66699 8 -13 18.333 -13 31c0 18.667 5.83301 33.834 17.5 45.501s27.167 17.5 46.5 17.5c13.333 0 24.333 -3.83301 33 -11.5s13 -17.834 13 -30.501c0 -18.667 -5.83301 -34 -17.5 -46s-27.167 -18 -46.5 -18c-13.333 0 -24.333 4 -33 12zM60 290h498
l-10 -56h-498zM230 39.5c-8.66699 8.33301 -13 18.833 -13 31.5c0 18 6 32.833 18 44.5s27.333 17.5 46 17.5c13.333 0 24.333 -4 33 -12s13 -18 13 -30c0 -18.667 -5.83301 -34 -17.5 -46s-27.167 -18 -46.5 -18c-13.333 0 -24.333 4.16699 -33 12.5z" />
    <glyph glyph-name="oslash" unicode="&#xf8;" horiz-adv-x="550" 
d="M518 307c0 -60 -12.166 -114.166 -36.499 -162.499s-57.833 -86.166 -100.5 -113.499s-91 -41 -145 -41c-36.667 0 -69.334 6.66699 -98.001 20l-38 -53h-54l54 77c-22 17.333 -38.833 39.666 -50.5 66.999s-17.5 58 -17.5 92c0 60 12 114.167 36 162.5
s57.333 86.166 100 113.499s91 41 145 41c40 0 75 -8 105 -24l34 49h58l-53 -75c40.667 -37.333 61 -88.333 61 -153zM137.001 86.001l246.002 351c-20 12 -44 18 -72 18c-38.667 0 -73.834 -11.5 -105.501 -34.5s-56.834 -54.333 -75.501 -94s-28 -83.5 -28 -131.5
c0 -46 11.667 -82.333 35 -109zM344.003 79.501c32 23 57.333 54.333 76 94s28 83.167 28 130.5c0 42.667 -9.66699 76.667 -29 102l-247 -347c20 -9.33301 42 -14 66 -14c38.667 0 74 11.5 106 34.5z" />
    <glyph glyph-name="ugrave" unicode="&#xf9;" horiz-adv-x="550" 
d="M88.5 27c-25 24.667 -37.501 61.6699 -37.501 111.003c0 15.333 2.33301 37.666 7 66.999l52 295h69l-51 -294c-4 -20.667 -6 -39.334 -6 -56.001c0 -68.667 31.667 -103 95 -103c30 0 58.333 7.66699 85 23s49.167 36.666 67.5 63.999s30.5 58 36.5 92l48 274h69
l-70 -400c-6 -32 -9 -65.333 -9 -100h-62l-1 20c0 13.333 2.33301 38 7 74h-4c-20.667 -32.667 -47.667 -58.167 -81 -76.5s-68.666 -27.5 -105.999 -27.5c-47.333 0 -83.5 12.333 -108.5 37zM233.999 694.003h74l51 -140h-56z" />
    <glyph glyph-name="uacute" unicode="&#xfa;" horiz-adv-x="550" 
d="M88.5 27c-25 24.667 -37.501 61.6699 -37.501 111.003c0 15.333 2.33301 37.666 7 66.999l52 295h69l-51 -294c-4 -20.667 -6 -39.334 -6 -56.001c0 -68.667 31.667 -103 95 -103c30 0 58.333 7.66699 85 23s49.167 36.666 67.5 63.999s30.5 58 36.5 92l48 274h69
l-70 -400c-6 -32 -9 -65.333 -9 -100h-62l-1 20c0 13.333 2.33301 38 7 74h-4c-20.667 -32.667 -47.667 -58.167 -81 -76.5s-68.666 -27.5 -105.999 -27.5c-47.333 0 -83.5 12.333 -108.5 37zM406.999 694.003h74l-118 -140h-57z" />
    <glyph glyph-name="ucircumflex" unicode="&#xfb;" horiz-adv-x="550" 
d="M88.5 27c-25 24.667 -37.501 61.6699 -37.501 111.003c0 15.333 2.33301 37.666 7 66.999l52 295h69l-51 -294c-4 -20.667 -6 -39.334 -6 -56.001c0 -68.667 31.667 -103 95 -103c30 0 58.333 7.66699 85 23s49.167 36.666 67.5 63.999s30.5 58 36.5 92l48 274h69
l-70 -400c-6 -32 -9 -65.333 -9 -100h-62l-1 20c0 13.333 2.33301 38 7 74h-4c-20.667 -32.667 -47.667 -58.167 -81 -76.5s-68.666 -27.5 -105.999 -27.5c-47.333 0 -83.5 12.333 -108.5 37zM327.999 690.003h53l80 -136h-58l-53 91l-86 -91h-63z" />
    <glyph glyph-name="udieresis" unicode="&#xfc;" horiz-adv-x="550" 
d="M88.5 27c-25 24.667 -37.501 61.6699 -37.501 111.003c0 15.333 2.33301 37.666 7 66.999l52 295h69l-51 -294c-4 -20.667 -6 -39.334 -6 -56.001c0 -68.667 31.667 -103 95 -103c30 0 58.333 7.66699 85 23s49.167 36.666 67.5 63.999s30.5 58 36.5 92l48 274h69
l-70 -400c-6 -32 -9 -65.333 -9 -100h-62l-1 20c0 13.333 2.33301 38 7 74h-4c-20.667 -32.667 -47.667 -58.167 -81 -76.5s-68.666 -27.5 -105.999 -27.5c-47.333 0 -83.5 12.333 -108.5 37zM203.999 564.503c-7.33301 7 -11 15.834 -11 26.501c0 16 5.16699 29 15.5 39
s23.833 15 40.5 15c11.333 0 20.666 -3.33301 27.999 -10s11 -15.334 11 -26.001c0 -16.667 -5.16699 -30 -15.5 -40s-23.833 -15 -40.5 -15c-11.333 0 -20.666 3.5 -27.999 10.5zM399.999 564.504c-7.33301 7 -10.999 16.168 -10.999 27.501c0 15.333 5.16699 28 15.5 38
s23.833 15 40.5 15c11.333 0 20.666 -3.33301 27.999 -10s11 -15.334 11 -26.001c0 -16.667 -5 -30 -15 -40s-23.333 -15 -40 -15c-12 0 -21.667 3.5 -29 10.5z" />
    <glyph glyph-name="yacute" unicode="&#xfd;" horiz-adv-x="448" 
d="M482 500l-266.999 -504c-35.333 -67.333 -73.333 -117.833 -114 -151.5s-84.667 -50.5 -132 -50.5c-18.667 0 -34.334 2 -47.001 6l9 52c11.333 -3.33301 24 -5 38 -5c35.333 0 67.5 13.167 96.5 39.5s61.5 71.5 97.5 135.5l-102 478h74l71 -403l198 403h78zM360.001 694
h74l-118 -140h-57z" />
    <glyph glyph-name="thorn" unicode="&#xfe;" horiz-adv-x="531" 
d="M150 742l67.002 -0.000976562l-55 -315c16 26.667 38.5 47.167 67.5 61.5s60.833 21.5 95.5 21.5c54 0 96.833 -16.833 128.5 -50.5s47.5 -79.834 47.5 -138.501c0 -61.333 -11.333 -117.166 -34 -167.499s-53.834 -90.166 -93.501 -119.499s-83.834 -44 -132.501 -44
c-33.333 0 -62.5 6.66699 -87.5 20s-42.833 33 -53.5 59l-54 -306h-68zM335.002 81.999c29.333 24.667 52.668 57.667 70.001 99s26 86 26 134c0 44 -10.167 78 -30.5 102s-49.5 36 -87.5 36c-42.667 0 -80 -14.333 -112 -43s-52 -65.667 -60 -111l-14 -81
c-2.66699 -14 -4 -29.333 -4 -46c0 -40 10.167 -71.167 30.5 -93.5s49.166 -33.5 86.499 -33.5c34 0 65.667 12.333 95 37z" />
    <glyph glyph-name="ydieresis" unicode="&#xff;" horiz-adv-x="448" 
d="M482 500l-266.999 -504c-35.333 -67.333 -73.333 -117.833 -114 -151.5s-84.667 -50.5 -132 -50.5c-18.667 0 -34.334 2 -47.001 6l9 52c11.333 -3.33301 24 -5 38 -5c35.333 0 67.5 13.167 96.5 39.5s61.5 71.5 97.5 135.5l-102 478h74l71 -403l198 403h78z
M157.001 564.5c-7.33301 7 -11 15.834 -11 26.501c0 16 5.16699 29 15.5 39s23.833 15 40.5 15c11.333 0 20.666 -3.33301 27.999 -10s11 -15.334 11 -26.001c0 -16.667 -5.16699 -30 -15.5 -40s-23.833 -15 -40.5 -15c-11.333 0 -20.666 3.5 -27.999 10.5zM353.001 564.501
c-7.33301 7 -10.999 16.168 -10.999 27.501c0 15.333 5.16699 28 15.5 38s23.833 15 40.5 15c11.333 0 20.666 -3.33301 27.999 -10s11 -15.334 11 -26.001c0 -16.667 -5 -30 -15 -40s-23.333 -15 -40 -15c-12 0 -21.667 3.5 -29 10.5z" />
    <glyph glyph-name="Amacron" unicode="&#x100;" horiz-adv-x="581" 
d="M421 164h-282l-80 -164h-85l360 700h71l114 -700h-75zM412 225l-55 386l-188 -386h243zM238 814h301l-8 -50h-302z" />
    <glyph glyph-name="amacron" unicode="&#x101;" horiz-adv-x="538" 
d="M78.5 42.5c-31 35 -46.501 82.833 -46.501 143.5c0 62 10.833 117.667 32.5 167s52 87.833 91 115.5s83.167 41.5 132.5 41.5c34.667 0 65 -7.5 91 -22.5s44.333 -35.833 55 -62.5h2l23 75h57l-66 -376c-9.33301 -48.667 -16 -90 -20 -124h-62
c5.33301 40.667 9.33301 68.667 12 84h-2c-20.667 -29.333 -46.167 -52.333 -76.5 -69s-62.166 -25 -95.499 -25c-54 0 -96.5 17.5 -127.5 52.5zM333.499 89.5c32.333 28.333 52.5 65.166 60.5 110.499l15 87c2.66699 13.333 4 27.333 4 42
c0 39.333 -10.833 70.166 -32.5 92.499s-51.5 33.5 -89.5 33.5c-35.333 0 -67.5 -11.5 -96.5 -34.5s-51.667 -54.667 -68 -95s-24.5 -85.166 -24.5 -134.499c0 -45.333 10.167 -80.666 30.5 -105.999s48.833 -38 85.5 -38c44.667 0 83.167 14.167 115.5 42.5zM164.999 614
h301l-8 -50h-302z" />
    <glyph glyph-name="Abreve" unicode="&#x102;" horiz-adv-x="581" 
d="M421 164h-282l-80 -164h-85l360 700h71l114 -700h-75zM412 225l-55 386l-188 -386h243zM295 779.5c-22.667 17 -34 43.499 -34 79.499c0 9.33301 0.333008 16.333 1 21h43c-2 -24 3.5 -43 16.5 -57s34.5 -21 64.5 -21c26.667 0 49.5 6.5 68.5 19.5s32.167 32.5 39.5 58.5
h46c-8.66699 -39.333 -25.667 -70.166 -51 -92.499s-60 -33.5 -104 -33.5c-37.333 0 -67.333 8.5 -90 25.5z" />
    <glyph glyph-name="abreve" unicode="&#x103;" horiz-adv-x="538" 
d="M78.5 42.5c-31 35 -46.501 82.833 -46.501 143.5c0 62 10.833 117.667 32.5 167s52 87.833 91 115.5s83.167 41.5 132.5 41.5c34.667 0 65 -7.5 91 -22.5s44.333 -35.833 55 -62.5h2l23 75h57l-66 -376c-9.33301 -48.667 -16 -90 -20 -124h-62
c5.33301 40.667 9.33301 68.667 12 84h-2c-20.667 -29.333 -46.167 -52.333 -76.5 -69s-62.166 -25 -95.499 -25c-54 0 -96.5 17.5 -127.5 52.5zM333.499 89.5c32.333 28.333 52.5 65.166 60.5 110.499l15 87c2.66699 13.333 4 27.333 4 42
c0 39.333 -10.833 70.166 -32.5 92.499s-51.5 33.5 -89.5 33.5c-35.333 0 -67.5 -11.5 -96.5 -34.5s-51.667 -54.667 -68 -95s-24.5 -85.166 -24.5 -134.499c0 -45.333 10.167 -80.666 30.5 -105.999s48.833 -38 85.5 -38c44.667 0 83.167 14.167 115.5 42.5zM221.999 579.5
c-22.667 17 -34 43.499 -34 79.499c0 9.33301 0.333008 16.333 1 21h43c-2 -24 3.5 -43 16.5 -57s34.5 -21 64.5 -21c26.667 0 49.5 6.5 68.5 19.5s32.167 32.5 39.5 58.5h46c-8.66699 -39.333 -25.667 -70.166 -51 -92.499s-60 -33.5 -104 -33.5
c-37.333 0 -67.333 8.5 -90 25.5z" />
    <glyph glyph-name="Aogonek" unicode="&#x104;" horiz-adv-x="581" 
d="M512 -146l2.99902 -29.999c-25.333 -18 -55 -27 -89 -27c-25.333 0 -45 5.83301 -59 17.5s-21 28.167 -21 49.5c0 26.667 8.83301 51.667 26.5 75s43.167 43.666 76.5 60.999h-5l-23 164h-282l-80 -164h-85l360 700h71l114 -700h-21
c-30.667 -18.667 -54.5 -38.334 -71.5 -59.001s-25.5 -40 -25.5 -58c0 -13.333 4.83301 -23.666 14.5 -30.999s23.834 -11 42.501 -11c14.667 0 32.667 4.33301 54 13zM411.999 225.001l-55 386l-188 -386h243z" />
    <glyph glyph-name="aogonek" unicode="&#x105;" horiz-adv-x="538" 
d="M356.5 -59c-17 -20.667 -25.5 -39.999 -25.5 -57.999c0 -13.333 5 -23.666 15 -30.999s24 -11 42 -11c14.667 0 32.667 4.33301 54 13l3 -30c-24.667 -18 -54.334 -27 -89.001 -27c-24.667 0 -44.167 5.83301 -58.5 17.5s-21.5 28.167 -21.5 49.5
c0 26.667 9 51.667 27 75s43.667 43.666 77 60.999h-12c5.33301 40.667 9.33301 68.667 12 84h-2c-20.667 -29.333 -46.167 -52.333 -76.5 -69s-62.166 -25 -95.499 -25c-54 0 -96.5 17.5 -127.5 52.5s-46.5 82.833 -46.5 143.5c0 62 10.833 117.667 32.5 167
s52 87.833 91 115.5s83.167 41.5 132.5 41.5c34.667 0 65 -7.5 91 -22.5s44.333 -35.833 55 -62.5h2l23 75h57l-66 -376c-9.33301 -48.667 -16 -90 -20 -124h-1c-31.333 -18.667 -55.5 -38.334 -72.5 -59.001zM333.5 89.501c32.333 28.333 52.5 65.166 60.5 110.499l15 87
c2.66699 13.333 4 27.333 4 42c0 39.333 -10.833 70.166 -32.5 92.499s-51.5 33.5 -89.5 33.5c-35.333 0 -67.5 -11.5 -96.5 -34.5s-51.667 -54.667 -68 -95s-24.5 -85.166 -24.5 -134.499c0 -45.333 10.167 -80.666 30.5 -105.999s48.833 -38 85.5 -38
c44.667 0 83.167 14.167 115.5 42.5z" />
    <glyph glyph-name="Cacute" unicode="&#x106;" horiz-adv-x="576" 
d="M112.5 61c-44.333 47.333 -66.499 112 -66.499 194c0 85.333 15.667 162.666 47 231.999s74.833 123.833 130.5 163.5s118.167 59.5 187.5 59.5c46.667 0 88.167 -9.33301 124.5 -28s61.166 -44 74.499 -76l-49 -44c-28 57.333 -78.667 86 -152 86
c-54 0 -103 -16.833 -147 -50.5s-78.5 -80.167 -103.5 -139.5s-37.5 -125.666 -37.5 -198.999c0 -66 15.5 -117 46.5 -153s74.833 -54 131.5 -54c79.333 0 142 28.667 188 86l33 -44c-25.333 -33.333 -57.5 -59 -96.5 -77s-82.167 -27 -129.5 -27
c-76.667 0 -137.167 23.667 -181.5 71zM499.001 894h74l-118 -140h-57z" />
    <glyph glyph-name="cacute" unicode="&#x107;" horiz-adv-x="467" 
d="M83 41.5c-34.667 34.333 -52.001 81.834 -52.001 142.501c0 63.333 11.5 119.666 34.5 168.999s55.333 87.833 97 115.5s89.5 41.5 143.5 41.5c40.667 0 76.167 -8.16699 106.5 -24.5s52.5 -39.166 66.5 -68.499l-49 -39c-10.667 23.333 -27.167 41.666 -49.5 54.999
s-47.833 20 -76.5 20c-38 0 -72.5 -11.333 -103.5 -34s-55.333 -54 -73 -94s-26.5 -84.333 -26.5 -133c0 -46 11.5 -81.667 34.5 -107s55.167 -38 96.5 -38c29.333 0 57.333 6.5 84 19.5s49.334 31.5 68.001 55.5l35 -39c-50 -62 -114 -93 -192 -93
c-61.333 0 -109.333 17.167 -144 51.5zM397.999 694.001h74l-118 -140h-57z" />
    <glyph glyph-name="Ccircumflex" unicode="&#x108;" horiz-adv-x="576" 
d="M112.5 61c-44.333 47.333 -66.499 112 -66.499 194c0 85.333 15.667 162.666 47 231.999s74.833 123.833 130.5 163.5s118.167 59.5 187.5 59.5c46.667 0 88.167 -9.33301 124.5 -28s61.166 -44 74.499 -76l-49 -44c-28 57.333 -78.667 86 -152 86
c-54 0 -103 -16.833 -147 -50.5s-78.5 -80.167 -103.5 -139.5s-37.5 -125.666 -37.5 -198.999c0 -66 15.5 -117 46.5 -153s74.833 -54 131.5 -54c79.333 0 142 28.667 188 86l33 -44c-25.333 -33.333 -57.5 -59 -96.5 -77s-82.167 -27 -129.5 -27
c-76.667 0 -137.167 23.667 -181.5 71zM420.001 890h53l80 -136h-58l-53 91l-86 -91h-63z" />
    <glyph glyph-name="ccircumflex" unicode="&#x109;" horiz-adv-x="467" 
d="M83 41.5c-34.667 34.333 -52.001 81.834 -52.001 142.501c0 63.333 11.5 119.666 34.5 168.999s55.333 87.833 97 115.5s89.5 41.5 143.5 41.5c40.667 0 76.167 -8.16699 106.5 -24.5s52.5 -39.166 66.5 -68.499l-49 -39c-10.667 23.333 -27.167 41.666 -49.5 54.999
s-47.833 20 -76.5 20c-38 0 -72.5 -11.333 -103.5 -34s-55.333 -54 -73 -94s-26.5 -84.333 -26.5 -133c0 -46 11.5 -81.667 34.5 -107s55.167 -38 96.5 -38c29.333 0 57.333 6.5 84 19.5s49.334 31.5 68.001 55.5l35 -39c-50 -62 -114 -93 -192 -93
c-61.333 0 -109.333 17.167 -144 51.5zM318.999 690.001h53l80 -136h-58l-53 91l-86 -91h-63z" />
    <glyph glyph-name="Cdotaccent" unicode="&#x10a;" horiz-adv-x="576" 
d="M112.5 61c-44.333 47.333 -66.499 112 -66.499 194c0 85.333 15.667 162.666 47 231.999s74.833 123.833 130.5 163.5s118.167 59.5 187.5 59.5c46.667 0 88.167 -9.33301 124.5 -28s61.166 -44 74.499 -76l-49 -44c-28 57.333 -78.667 86 -152 86
c-54 0 -103 -16.833 -147 -50.5s-78.5 -80.167 -103.5 -139.5s-37.5 -125.666 -37.5 -198.999c0 -66 15.5 -117 46.5 -153s74.833 -54 131.5 -54c79.333 0 142 28.667 188 86l33 -44c-25.333 -33.333 -57.5 -59 -96.5 -77s-82.167 -27 -129.5 -27
c-76.667 0 -137.167 23.667 -181.5 71zM394.001 764c-7.33301 6.66699 -10.999 15.667 -10.999 27c0 16 5.16699 29 15.5 39s23.833 15 40.5 15c11.333 0 20.666 -3.5 27.999 -10.5s11 -15.833 11 -26.5c0 -16 -5 -29 -15 -39s-23.333 -15 -40 -15
c-12 0 -21.667 3.33301 -29 10z" />
    <glyph glyph-name="cdotaccent" unicode="&#x10b;" horiz-adv-x="467" 
d="M83 41.5c-34.667 34.333 -52.001 81.834 -52.001 142.501c0 63.333 11.5 119.666 34.5 168.999s55.333 87.833 97 115.5s89.5 41.5 143.5 41.5c40.667 0 76.167 -8.16699 106.5 -24.5s52.5 -39.166 66.5 -68.499l-49 -39c-10.667 23.333 -27.167 41.666 -49.5 54.999
s-47.833 20 -76.5 20c-38 0 -72.5 -11.333 -103.5 -34s-55.333 -54 -73 -94s-26.5 -84.333 -26.5 -133c0 -46 11.5 -81.667 34.5 -107s55.167 -38 96.5 -38c29.333 0 57.333 6.5 84 19.5s49.334 31.5 68.001 55.5l35 -39c-50 -62 -114 -93 -192 -93
c-61.333 0 -109.333 17.167 -144 51.5zM292.999 564.001c-7.33301 6.66699 -10.999 15.667 -10.999 27c0 16 5.16699 29 15.5 39s23.833 15 40.5 15c11.333 0 20.666 -3.5 27.999 -10.5s11 -15.833 11 -26.5c0 -16 -5 -29 -15 -39s-23.333 -15 -40 -15
c-12 0 -21.667 3.33301 -29 10z" />
    <glyph glyph-name="Ccaron" unicode="&#x10c;" horiz-adv-x="576" 
d="M112.5 61c-44.333 47.333 -66.499 112 -66.499 194c0 85.333 15.667 162.666 47 231.999s74.833 123.833 130.5 163.5s118.167 59.5 187.5 59.5c46.667 0 88.167 -9.33301 124.5 -28s61.166 -44 74.499 -76l-49 -44c-28 57.333 -78.667 86 -152 86
c-54 0 -103 -16.833 -147 -50.5s-78.5 -80.167 -103.5 -139.5s-37.5 -125.666 -37.5 -198.999c0 -66 15.5 -117 46.5 -153s74.833 -54 131.5 -54c79.333 0 142 28.667 188 86l33 -44c-25.333 -33.333 -57.5 -59 -96.5 -77s-82.167 -27 -129.5 -27
c-76.667 0 -137.167 23.667 -181.5 71zM316.001 890h59l53 -92l86 92h63l-127 -136h-53z" />
    <glyph glyph-name="ccaron" unicode="&#x10d;" horiz-adv-x="467" 
d="M83 41.5c-34.667 34.333 -52.001 81.834 -52.001 142.501c0 63.333 11.5 119.666 34.5 168.999s55.333 87.833 97 115.5s89.5 41.5 143.5 41.5c40.667 0 76.167 -8.16699 106.5 -24.5s52.5 -39.166 66.5 -68.499l-49 -39c-10.667 23.333 -27.167 41.666 -49.5 54.999
s-47.833 20 -76.5 20c-38 0 -72.5 -11.333 -103.5 -34s-55.333 -54 -73 -94s-26.5 -84.333 -26.5 -133c0 -46 11.5 -81.667 34.5 -107s55.167 -38 96.5 -38c29.333 0 57.333 6.5 84 19.5s49.334 31.5 68.001 55.5l35 -39c-50 -62 -114 -93 -192 -93
c-61.333 0 -109.333 17.167 -144 51.5zM214.999 690.001h59l53 -92l86 92h63l-127 -136h-53z" />
    <glyph glyph-name="Dcaron" unicode="&#x10e;" horiz-adv-x="618" 
d="M165 700h216c147.333 0 221 -75 221 -225c0 -99.333 -14.333 -184.5 -43 -255.5s-70.5 -125.333 -125.5 -163s-120.833 -56.5 -197.5 -56.5h-194zM255 62c54 0 101.667 16.999 143 50.999s73.333 82 96 144s34 133 34 213c0 58.667 -13.333 101.334 -40 128.001
s-67 40 -121 40h-139l-101 -576h128zM292 889.999h59l53 -92l86 92h63l-127 -136h-53z" />
    <glyph glyph-name="dcaron" unicode="&#x10f;" horiz-adv-x="635" 
d="M78.5 42.5c-31 35 -46.5 82.832 -46.5 143.499c0 62 10.833 117.667 32.5 167s52 87.833 91 115.5s83.167 41.5 132.5 41.5c32.667 0 61.667 -7.33301 87 -22s44.333 -35 57 -61h2l56 315h68l-108 -618c-10.667 -61.333 -17.334 -102.666 -20.001 -123.999h-62
c2 22 6 50 12 84h-2c-20.667 -29.333 -46.167 -52.333 -76.5 -69s-62.166 -25 -95.499 -25c-54 0 -96.5 17.5 -127.5 52.5zM333.5 89.499c32.333 28.333 52.5 65.166 60.5 110.499l15 87c2.66699 13.333 4 27.333 4 42c0 39.333 -10.833 70.166 -32.5 92.499
s-51.5 33.5 -89.5 33.5c-35.333 0 -67.5 -11.5 -96.5 -34.5s-51.667 -54.667 -68 -95s-24.5 -85.166 -24.5 -134.499c0 -45.333 10.167 -80.666 30.5 -105.999s48.833 -38 85.5 -38c44.667 0 83.167 14.167 115.5 42.5zM695.5 747.499
c8.33301 -8.33301 12.5 -19.1699 12.5 -32.5029c0 -21.333 -7.5 -45.666 -22.5 -72.999s-34.833 -51.666 -59.5 -72.999l-27 21c14 17.333 24.5 30.833 31.5 40.5s12.833 19.834 17.5 30.501h-6c-12 0 -21.5 3.5 -28.5 10.5s-10.5 16.167 -10.5 27.5
c0 18 5.5 32.667 16.5 44s25.167 17 42.5 17c14 0 25.167 -4.16699 33.5 -12.5z" />
    <glyph glyph-name="Dcroat" unicode="&#x110;" horiz-adv-x="619" 
d="M603 475c0 -99.333 -14.333 -184.5 -43 -255.5s-70.5 -125.333 -125.5 -163s-120.833 -56.5 -197.5 -56.5h-194l54 308h-79l11 59h78l59 333h216c147.333 0 221 -75 221 -225zM399 113c41.333 34 73.333 81.999 96 143.999s34 133 34 213
c0 58.667 -13.333 101.334 -40 128.001s-67 40 -121 40h-139l-48 -271h222l-10 -59h-222l-43 -246h128c54 0 101.667 17 143 51z" />
    <glyph glyph-name="dcroat" unicode="&#x111;" horiz-adv-x="550" 
d="M590 606l-56 -0.000976562l-84 -482c-10.667 -61.333 -17.334 -102.666 -20.001 -123.999h-62c2 22 6 50 12 84h-2c-20.667 -29.333 -46.167 -52.333 -76.5 -69s-62.166 -25 -95.499 -25c-54 0 -96.5 17.5 -127.5 52.5s-46.5 82.833 -46.5 143.5
c0 62 10.833 117.667 32.5 167s52 87.833 91 115.5s83.167 41.5 132.5 41.5c32.667 0 61.667 -7.33301 87 -22s44.333 -35 57 -61h2l32 179h-149l9 49h149l15 87h68l-15 -87h55zM413 328.999c0 39.333 -10.833 70.166 -32.5 92.499s-51.5 33.5 -89.5 33.5
c-35.333 0 -67.5 -11.5 -96.5 -34.5s-51.667 -54.667 -68 -95s-24.5 -85.166 -24.5 -134.499c0 -45.333 10.167 -80.666 30.5 -105.999s48.833 -38 85.5 -38c44.667 0 83.167 14.167 115.5 42.5s52.5 65.166 60.5 110.499l15 87c2.66699 13.333 4 27.333 4 42z" />
    <glyph glyph-name="Emacron" unicode="&#x112;" horiz-adv-x="546" 
d="M165 700h404l-10 -62h-331l-41 -238h295l-11 -63h-296l-48 -275h330l-11 -62h-404zM241 814h301l-8 -50h-302z" />
    <glyph glyph-name="emacron" unicode="&#x113;" horiz-adv-x="510" 
d="M432.5 460c31.667 -33.333 47.499 -79.333 47.499 -138c0 -20.667 -2 -42.667 -6 -66l-6 -34h-366c-0.666992 -6.66699 -1 -17.334 -1 -32.001c0 -45.333 11.333 -80.166 34 -104.499s55.334 -36.5 98.001 -36.5c30 0 58.5 6.5 85.5 19.5s50.5 31.167 70.5 54.5l34 -39
c-52.667 -62.667 -117.667 -94 -195 -94c-60.667 0 -108.667 17.5 -144 52.5s-53 82.833 -53 143.5c0 62 11.5 117.667 34.5 167s55 87.833 96 115.5s87.5 41.5 139.5 41.5c56 0 99.833 -16.667 131.5 -50zM417.999 326c0 40 -10.833 71.166 -32.5 93.499
s-51.834 33.5 -90.501 33.5c-43.333 0 -81.666 -16.167 -114.999 -48.5s-56.333 -75.166 -69 -128.499h301l2 8c2.66699 20 4 34 4 42zM176.999 613.999h301l-8 -50h-302z" />
    <glyph glyph-name="Ebreve" unicode="&#x114;" horiz-adv-x="546" 
d="M165 700h404l-10 -62h-331l-41 -238h295l-11 -63h-296l-48 -275h330l-11 -62h-404zM298 779.5c-22.667 17 -34 43.499 -34 79.499c0 9.33301 0.333008 16.333 1 21h43c-2 -24 3.5 -43 16.5 -57s34.5 -21 64.5 -21c26.667 0 49.5 6.5 68.5 19.5s32.167 32.5 39.5 58.5h46
c-8.66699 -39.333 -25.667 -70.166 -51 -92.499s-60 -33.5 -104 -33.5c-37.333 0 -67.333 8.5 -90 25.5z" />
    <glyph glyph-name="ebreve" unicode="&#x115;" horiz-adv-x="510" 
d="M432.5 460c31.667 -33.333 47.499 -79.333 47.499 -138c0 -20.667 -2 -42.667 -6 -66l-6 -34h-366c-0.666992 -6.66699 -1 -17.334 -1 -32.001c0 -45.333 11.333 -80.166 34 -104.499s55.334 -36.5 98.001 -36.5c30 0 58.5 6.5 85.5 19.5s50.5 31.167 70.5 54.5l34 -39
c-52.667 -62.667 -117.667 -94 -195 -94c-60.667 0 -108.667 17.5 -144 52.5s-53 82.833 -53 143.5c0 62 11.5 117.667 34.5 167s55 87.833 96 115.5s87.5 41.5 139.5 41.5c56 0 99.833 -16.667 131.5 -50zM417.999 326c0 40 -10.833 71.166 -32.5 93.499
s-51.834 33.5 -90.501 33.5c-43.333 0 -81.666 -16.167 -114.999 -48.5s-56.333 -75.166 -69 -128.499h301l2 8c2.66699 20 4 34 4 42zM233.999 579.499c-22.667 17 -34 43.499 -34 79.499c0 9.33301 0.333008 16.333 1 21h43c-2 -24 3.5 -43 16.5 -57s34.5 -21 64.5 -21
c26.667 0 49.5 6.5 68.5 19.5s32.167 32.5 39.5 58.5h46c-8.66699 -39.333 -25.667 -70.166 -51 -92.499s-60 -33.5 -104 -33.5c-37.333 0 -67.333 8.5 -90 25.5z" />
    <glyph glyph-name="Edotaccent" unicode="&#x116;" horiz-adv-x="546" 
d="M165 700h404l-10 -62h-331l-41 -238h295l-11 -63h-296l-48 -275h330l-11 -62h-404zM353 764c-7.33301 6.66699 -10.999 15.667 -10.999 27c0 16 5.16699 29 15.5 39s23.833 15 40.5 15c11.333 0 20.666 -3.5 27.999 -10.5s11 -15.833 11 -26.5c0 -16 -5 -29 -15 -39
s-23.333 -15 -40 -15c-12 0 -21.667 3.33301 -29 10z" />
    <glyph glyph-name="edotaccent" unicode="&#x117;" horiz-adv-x="510" 
d="M432.5 460c31.667 -33.333 47.499 -79.333 47.499 -138c0 -20.667 -2 -42.667 -6 -66l-6 -34h-366c-0.666992 -6.66699 -1 -17.334 -1 -32.001c0 -45.333 11.333 -80.166 34 -104.499s55.334 -36.5 98.001 -36.5c30 0 58.5 6.5 85.5 19.5s50.5 31.167 70.5 54.5l34 -39
c-52.667 -62.667 -117.667 -94 -195 -94c-60.667 0 -108.667 17.5 -144 52.5s-53 82.833 -53 143.5c0 62 11.5 117.667 34.5 167s55 87.833 96 115.5s87.5 41.5 139.5 41.5c56 0 99.833 -16.667 131.5 -50zM417.999 326c0 40 -10.833 71.166 -32.5 93.499
s-51.834 33.5 -90.501 33.5c-43.333 0 -81.666 -16.167 -114.999 -48.5s-56.333 -75.166 -69 -128.499h301l2 8c2.66699 20 4 34 4 42zM288.999 563.999c-7.33301 6.66699 -10.999 15.667 -10.999 27c0 16 5.16699 29 15.5 39s23.833 15 40.5 15
c11.333 0 20.666 -3.5 27.999 -10.5s11 -15.833 11 -26.5c0 -16 -5 -29 -15 -39s-23.333 -15 -40 -15c-12 0 -21.667 3.33301 -29 10z" />
    <glyph glyph-name="Eogonek" unicode="&#x118;" horiz-adv-x="546" 
d="M228 638l-41.001 -237.999h295l-11 -63h-296l-48 -275h330l-10 -57l-1 -5c-30.667 -18.667 -54.5 -38.334 -71.5 -59.001s-25.5 -40 -25.5 -58c0 -13.333 4.83301 -23.666 14.5 -30.999s23.834 -11 42.501 -11c14.667 0 32.667 4.33301 54 13l3 -30
c-25.333 -18 -55 -27 -89 -27c-25.333 0 -45 5.83301 -59 17.5s-21 28.167 -21 49.5c0 26.667 8.83301 51.667 26.5 75s43.167 43.666 76.5 60.999h-355l123 700h404l-10 -62h-331z" />
    <glyph glyph-name="eogonek" unicode="&#x119;" horiz-adv-x="510" 
d="M432.5 460c31.667 -33.333 47.498 -79.335 47.498 -138.002c0 -20.667 -2 -42.667 -6 -66l-6 -34h-366c-0.666992 -6.66699 -1 -17.334 -1 -32.001c0 -45.333 11.333 -80.166 34 -104.499s55.334 -36.5 98.001 -36.5c30 0 58.5 6.5 85.5 19.5s50.5 31.167 70.5 54.5
l34 -39c-23.333 -27.333 -49.333 -49 -78 -65c-18 -14.667 -31.833 -29.667 -41.5 -45s-14.5 -29.666 -14.5 -42.999s4.83301 -23.666 14.5 -30.999s23.834 -11 42.501 -11c14.667 0 32.667 4.33301 54 13l3 -30c-25.333 -18 -55 -27 -89 -27
c-25.333 0 -45 5.83301 -59 17.5s-21 28.167 -21 49.5c0 28 10.333 55 31 81c-12 -2 -24.333 -3 -37 -3c-60.667 0 -108.667 17.5 -144 52.5s-53 82.833 -53 143.5c0 62 11.5 117.667 34.5 167s55 87.833 96 115.5s87.5 41.5 139.5 41.5c56 0 99.833 -16.667 131.5 -50z
M417.998 325.998c0 40 -10.833 71.166 -32.5 93.499s-51.834 33.5 -90.501 33.5c-43.333 0 -81.666 -16.167 -114.999 -48.5s-56.333 -75.166 -69 -128.499h301l2 8c2.66699 20 4 34 4 42z" />
    <glyph glyph-name="Ecaron" unicode="&#x11a;" horiz-adv-x="546" 
d="M165 700h404l-10 -62h-331l-41 -238h295l-11 -63h-296l-48 -275h330l-11 -62h-404zM275 890h59l53 -92l86 92h63l-127 -136h-53z" />
    <glyph glyph-name="ecaron" unicode="&#x11b;" horiz-adv-x="510" 
d="M432.5 460c31.667 -33.333 47.499 -79.333 47.499 -138c0 -20.667 -2 -42.667 -6 -66l-6 -34h-366c-0.666992 -6.66699 -1 -17.334 -1 -32.001c0 -45.333 11.333 -80.166 34 -104.499s55.334 -36.5 98.001 -36.5c30 0 58.5 6.5 85.5 19.5s50.5 31.167 70.5 54.5l34 -39
c-52.667 -62.667 -117.667 -94 -195 -94c-60.667 0 -108.667 17.5 -144 52.5s-53 82.833 -53 143.5c0 62 11.5 117.667 34.5 167s55 87.833 96 115.5s87.5 41.5 139.5 41.5c56 0 99.833 -16.667 131.5 -50zM417.999 326c0 40 -10.833 71.166 -32.5 93.499
s-51.834 33.5 -90.501 33.5c-43.333 0 -81.666 -16.167 -114.999 -48.5s-56.333 -75.166 -69 -128.499h301l2 8c2.66699 20 4 34 4 42zM210.999 689.999h59l53 -92l86 92h63l-127 -136h-53z" />
    <glyph glyph-name="Gcircumflex" unicode="&#x11c;" horiz-adv-x="633" 
d="M340 356l244.999 0.000976562l-62 -356h-46l-8 47c-24 -18.667 -51.167 -32.834 -81.5 -42.501s-62.5 -14.5 -96.5 -14.5c-75.333 0 -135 23.667 -179 71s-66 112 -66 194c0 85.333 15.667 162.666 47 231.999s74.833 123.833 130.5 163.5s118.167 59.5 187.5 59.5
c50 0 93.833 -9.33301 131.5 -28s62.834 -44 75.501 -76l-47 -43c-13.333 27.333 -34 48.333 -62 63s-62 22 -102 22c-53.333 0 -101.833 -17 -145.5 -51s-78 -80.667 -103 -140s-37.5 -125.666 -37.5 -198.999c0 -66.667 15.5 -118 46.5 -154s75.167 -54 132.5 -54
c32 0 62.833 5.16699 92.5 15.5s55.167 24.833 76.5 43.5l34 190h-173zM422.999 890.001h53l80 -136h-58l-53 91l-86 -91h-63z" />
    <glyph glyph-name="gcircumflex" unicode="&#x11d;" horiz-adv-x="538" 
d="M515 500l-85.001 -484.998c-13.333 -78.667 -42.166 -138.334 -86.499 -179.001s-102.833 -61 -175.5 -61c-32.667 0 -64.167 3.83301 -94.5 11.5s-57.166 18.167 -80.499 31.5l33 53c23.333 -12.667 46.666 -21.834 69.999 -27.501s48.333 -8.5 75 -8.5
c54.667 0 98.167 15.667 130.5 47s54.166 79 65.499 143l9 51c-18 -26.667 -41.667 -47.5 -71 -62.5s-61.333 -22.5 -96 -22.5c-55.333 0 -98.666 17 -129.999 51s-47 81 -47 141c0 62 10.833 118 32.5 168s52 89 91 117s82.833 42 131.5 42
c34.667 0 65.167 -7.5 91.5 -22.5s44.833 -35.833 55.5 -62.5h2l22 75h57zM411.999 328.002c0 40 -10.333 71.166 -31 93.499s-50 33.5 -88 33.5c-36 0 -68.667 -11.5 -98 -34.5s-52.333 -54.667 -69 -95s-25 -85.166 -25 -134.499c0 -45.333 10.5 -80.5 31.5 -105.5
s50.167 -37.5 87.5 -37.5c45.333 0 83.5 13.833 114.5 41.5s50.833 65.5 59.5 113.5l14 81c2.66699 14 4 28.667 4 44zM306.999 690.001h53l80 -136h-58l-53 91l-86 -91h-63z" />
    <glyph glyph-name="Gbreve" unicode="&#x11e;" horiz-adv-x="633" 
d="M340 356l244.999 0.000976562l-62 -356h-46l-8 47c-24 -18.667 -51.167 -32.834 -81.5 -42.501s-62.5 -14.5 -96.5 -14.5c-75.333 0 -135 23.667 -179 71s-66 112 -66 194c0 85.333 15.667 162.666 47 231.999s74.833 123.833 130.5 163.5s118.167 59.5 187.5 59.5
c50 0 93.833 -9.33301 131.5 -28s62.834 -44 75.501 -76l-47 -43c-13.333 27.333 -34 48.333 -62 63s-62 22 -102 22c-53.333 0 -101.833 -17 -145.5 -51s-78 -80.667 -103 -140s-37.5 -125.666 -37.5 -198.999c0 -66.667 15.5 -118 46.5 -154s75.167 -54 132.5 -54
c32 0 62.833 5.16699 92.5 15.5s55.167 24.833 76.5 43.5l34 190h-173zM341.999 779.501c-22.667 17 -34 43.499 -34 79.499c0 9.33301 0.333008 16.333 1 21h43c-2 -24 3.5 -43 16.5 -57s34.5 -21 64.5 -21c26.667 0 49.5 6.5 68.5 19.5s32.167 32.5 39.5 58.5h46
c-8.66699 -39.333 -25.667 -70.166 -51 -92.499s-60 -33.5 -104 -33.5c-37.333 0 -67.333 8.5 -90 25.5z" />
    <glyph glyph-name="gbreve" unicode="&#x11f;" horiz-adv-x="538" 
d="M515 500l-85.001 -484.998c-13.333 -78.667 -42.166 -138.334 -86.499 -179.001s-102.833 -61 -175.5 -61c-32.667 0 -64.167 3.83301 -94.5 11.5s-57.166 18.167 -80.499 31.5l33 53c23.333 -12.667 46.666 -21.834 69.999 -27.501s48.333 -8.5 75 -8.5
c54.667 0 98.167 15.667 130.5 47s54.166 79 65.499 143l9 51c-18 -26.667 -41.667 -47.5 -71 -62.5s-61.333 -22.5 -96 -22.5c-55.333 0 -98.666 17 -129.999 51s-47 81 -47 141c0 62 10.833 118 32.5 168s52 89 91 117s82.833 42 131.5 42
c34.667 0 65.167 -7.5 91.5 -22.5s44.833 -35.833 55.5 -62.5h2l22 75h57zM411.999 328.002c0 40 -10.333 71.166 -31 93.499s-50 33.5 -88 33.5c-36 0 -68.667 -11.5 -98 -34.5s-52.333 -54.667 -69 -95s-25 -85.166 -25 -134.499c0 -45.333 10.5 -80.5 31.5 -105.5
s50.167 -37.5 87.5 -37.5c45.333 0 83.5 13.833 114.5 41.5s50.833 65.5 59.5 113.5l14 81c2.66699 14 4 28.667 4 44zM225.999 579.501c-22.667 17 -34 43.499 -34 79.499c0 9.33301 0.333008 16.333 1 21h43c-2 -24 3.5 -43 16.5 -57s34.5 -21 64.5 -21
c26.667 0 49.5 6.5 68.5 19.5s32.167 32.5 39.5 58.5h46c-8.66699 -39.333 -25.667 -70.166 -51 -92.499s-60 -33.5 -104 -33.5c-37.333 0 -67.333 8.5 -90 25.5z" />
    <glyph glyph-name="Gdotaccent" unicode="&#x120;" horiz-adv-x="633" 
d="M340 356l244.999 0.000976562l-62 -356h-46l-8 47c-24 -18.667 -51.167 -32.834 -81.5 -42.501s-62.5 -14.5 -96.5 -14.5c-75.333 0 -135 23.667 -179 71s-66 112 -66 194c0 85.333 15.667 162.666 47 231.999s74.833 123.833 130.5 163.5s118.167 59.5 187.5 59.5
c50 0 93.833 -9.33301 131.5 -28s62.834 -44 75.501 -76l-47 -43c-13.333 27.333 -34 48.333 -62 63s-62 22 -102 22c-53.333 0 -101.833 -17 -145.5 -51s-78 -80.667 -103 -140s-37.5 -125.666 -37.5 -198.999c0 -66.667 15.5 -118 46.5 -154s75.167 -54 132.5 -54
c32 0 62.833 5.16699 92.5 15.5s55.167 24.833 76.5 43.5l34 190h-173zM396.999 764.001c-7.33301 6.66699 -10.999 15.667 -10.999 27c0 16 5.16699 29 15.5 39s23.833 15 40.5 15c11.333 0 20.666 -3.5 27.999 -10.5s11 -15.833 11 -26.5c0 -16 -5 -29 -15 -39
s-23.333 -15 -40 -15c-12 0 -21.667 3.33301 -29 10z" />
    <glyph glyph-name="gdotaccent" unicode="&#x121;" horiz-adv-x="538" 
d="M515 500l-85.001 -484.998c-13.333 -78.667 -42.166 -138.334 -86.499 -179.001s-102.833 -61 -175.5 -61c-32.667 0 -64.167 3.83301 -94.5 11.5s-57.166 18.167 -80.499 31.5l33 53c23.333 -12.667 46.666 -21.834 69.999 -27.501s48.333 -8.5 75 -8.5
c54.667 0 98.167 15.667 130.5 47s54.166 79 65.499 143l9 51c-18 -26.667 -41.667 -47.5 -71 -62.5s-61.333 -22.5 -96 -22.5c-55.333 0 -98.666 17 -129.999 51s-47 81 -47 141c0 62 10.833 118 32.5 168s52 89 91 117s82.833 42 131.5 42
c34.667 0 65.167 -7.5 91.5 -22.5s44.833 -35.833 55.5 -62.5h2l22 75h57zM411.999 328.002c0 40 -10.333 71.166 -31 93.499s-50 33.5 -88 33.5c-36 0 -68.667 -11.5 -98 -34.5s-52.333 -54.667 -69 -95s-25 -85.166 -25 -134.499c0 -45.333 10.5 -80.5 31.5 -105.5
s50.167 -37.5 87.5 -37.5c45.333 0 83.5 13.833 114.5 41.5s50.833 65.5 59.5 113.5l14 81c2.66699 14 4 28.667 4 44zM280.999 564.001c-7.33301 6.66699 -10.999 15.667 -10.999 27c0 16 5.16699 29 15.5 39s23.833 15 40.5 15c11.333 0 20.666 -3.5 27.999 -10.5
s11 -15.833 11 -26.5c0 -16 -5 -29 -15 -39s-23.333 -15 -40 -15c-12 0 -21.667 3.33301 -29 10z" />
    <glyph glyph-name="uni0122" unicode="&#x122;" horiz-adv-x="633" 
d="M340 356l244.999 0.000976562l-62 -356h-46l-8 47c-24 -18.667 -51.167 -32.834 -81.5 -42.501s-62.5 -14.5 -96.5 -14.5c-75.333 0 -135 23.667 -179 71s-66 112 -66 194c0 85.333 15.667 162.666 47 231.999s74.833 123.833 130.5 163.5s118.167 59.5 187.5 59.5
c50 0 93.833 -9.33301 131.5 -28s62.834 -44 75.501 -76l-47 -43c-13.333 27.333 -34 48.333 -62 63s-62 22 -102 22c-53.333 0 -101.833 -17 -145.5 -51s-78 -80.667 -103 -140s-37.5 -125.666 -37.5 -198.999c0 -66.667 15.5 -118 46.5 -154s75.167 -54 132.5 -54
c32 0 62.833 5.16699 92.5 15.5s55.167 24.833 76.5 43.5l34 190h-173zM313.499 -84.499c8.33301 -8.33301 12.499 -19.168 12.499 -32.501c0 -21.333 -7.66699 -45.666 -23 -72.999s-35 -51.666 -59 -72.999l-27 21c14 17.333 24.5 30.833 31.5 40.5
s12.833 20.167 17.5 31.5h-6c-11.333 0 -20.666 3.5 -27.999 10.5s-11 16.167 -11 27.5c0 17.333 5.5 31.666 16.5 42.999s25.167 17 42.5 17c14 0 25.167 -4.16699 33.5 -12.5z" />
    <glyph glyph-name="uni0123" unicode="&#x123;" horiz-adv-x="538" 
d="M515 500l-85.001 -484.998c-13.333 -78.667 -42.166 -138.334 -86.499 -179.001s-102.833 -61 -175.5 -61c-32.667 0 -64.167 3.83301 -94.5 11.5s-57.166 18.167 -80.499 31.5l33 53c23.333 -12.667 46.666 -21.834 69.999 -27.501s48.333 -8.5 75 -8.5
c54.667 0 98.167 15.667 130.5 47s54.166 79 65.499 143l9 51c-18 -26.667 -41.667 -47.5 -71 -62.5s-61.333 -22.5 -96 -22.5c-55.333 0 -98.666 17 -129.999 51s-47 81 -47 141c0 62 10.833 118 32.5 168s52 89 91 117s82.833 42 131.5 42
c34.667 0 65.167 -7.5 91.5 -22.5s44.833 -35.833 55.5 -62.5h2l22 75h57zM411.999 328.002c0 40 -10.333 71.166 -31 93.499s-50 33.5 -88 33.5c-36 0 -68.667 -11.5 -98 -34.5s-52.333 -54.667 -69 -95s-25 -85.166 -25 -134.499c0 -45.333 10.5 -80.5 31.5 -105.5
s50.167 -37.5 87.5 -37.5c45.333 0 83.5 13.833 114.5 41.5s50.833 65.5 59.5 113.5l14 81c2.66699 14 4 28.667 4 44zM359.499 642.001c7 -6.66699 10.5 -15.667 10.5 -27c0 -18 -5.5 -32.667 -16.5 -44s-24.833 -17 -41.5 -17c-14.667 0 -26.167 4.16699 -34.5 12.5
s-12.5 19.5 -12.5 33.5c0 20.667 7.66699 44.5 23 71.5s35.333 51.5 60 73.5l27 -21l-31 -38.5c-8 -10.333 -14.333 -21.5 -19 -33.5h7c11.333 0 20.5 -3.33301 27.5 -10z" />
    <glyph glyph-name="Hcircumflex" unicode="&#x124;" horiz-adv-x="674" 
d="M164 700h74l-55 -316h356l55 316h74l-123 -700h-74l57 322h-356l-57 -322h-74zM423 890h53l80 -136h-58l-53 91l-86 -91h-63z" />
    <glyph glyph-name="hcircumflex" unicode="&#x125;" horiz-adv-x="555" 
d="M153 742l68.998 0.000976562l-58 -329c18 29.333 43.833 52.833 77.5 70.5s68.834 26.5 105.501 26.5c49.333 0 87.333 -13.833 114 -41.5s40 -67.167 40 -118.5c0 -20 -2 -41.667 -6 -65l-50 -285h-69l51 286c3.33301 16.667 5 35.334 5 56.001
c0 36.667 -8.33301 64.667 -25 84s-41 29 -73 29c-30.667 0 -59.667 -7.83301 -87 -23.5s-50.666 -37.334 -69.999 -65.001s-32 -58.834 -38 -93.501l-48 -273h-69zM289.998 932.001h53l80 -136h-58l-53 91l-86 -91h-63z" />
    <glyph glyph-name="Hbar" unicode="&#x126;" horiz-adv-x="688" 
d="M700 503h-60l-88 -503h-74l57 322h-356l-57 -322h-74l88 503h-60l10 50h59l26 147h74l-26 -147h356l26 147h74l-26 -147h61zM567 503h-356l-21 -119h356z" />
    <glyph glyph-name="hbar" unicode="&#x127;" horiz-adv-x="555" 
d="M461 468.5c26.667 -27.667 39.998 -67.166 39.998 -118.499c0 -20 -2 -41.667 -6 -65l-50 -285h-69l51 286c3.33301 16.667 5 35.334 5 56.001c0 36.667 -8.33301 64.667 -25 84s-41 29 -73 29c-30.667 0 -59.667 -7.83301 -87 -23.5s-50.666 -37.334 -69.999 -65.001
s-32 -58.834 -38 -93.501l-48 -273h-69l107 606h-57l9 49h57l15 87h69l-15 -87h142l-8 -49h-143l-34 -193c18 29.333 43.833 52.833 77.5 70.5s68.834 26.5 105.501 26.5c49.333 0 87.333 -13.833 114 -41.5z" />
    <glyph glyph-name="Itilde" unicode="&#x128;" horiz-adv-x="284" 
d="M184 700h74l-123 -700h-74zM122.5 819.5c16.333 17.667 36.1689 26.501 59.502 26.501c12 0 23.167 -2.33301 33.5 -7s22.166 -11.334 35.499 -20.001c19.333 -13.333 34.333 -20 45 -20c9.33301 0 17.333 4 24 12s12.334 21 17.001 39h45
c-5.33301 -28 -16.333 -51 -33 -69s-37 -27 -61 -27c-12 0 -23.333 2.5 -34 7.5s-22.334 11.833 -35.001 20.5c-7.33301 4.66699 -14.666 9 -21.999 13s-14 6 -20 6c-8.66699 0 -16.834 -4.33301 -24.501 -13s-12.834 -20 -15.501 -34h-45c4 26 14.167 47.833 30.5 65.5z
" />
    <glyph glyph-name="itilde" unicode="&#x129;" horiz-adv-x="244" 
d="M131 500h70l-88 -500h-70zM66.5 619.5c16.333 17.667 36.1689 26.501 59.502 26.501c12 0 23.167 -2.33301 33.5 -7s22.166 -11.334 35.499 -20.001c19.333 -13.333 34.333 -20 45 -20c9.33301 0 17.333 4 24 12s12.334 21 17.001 39h45
c-5.33301 -28 -16.333 -51 -33 -69s-37 -27 -61 -27c-12 0 -23.333 2.5 -34 7.5s-22.334 11.833 -35.001 20.5c-7.33301 4.66699 -14.666 9 -21.999 13s-14 6 -20 6c-8.66699 0 -16.834 -4.33301 -24.501 -13s-12.834 -20 -15.501 -34h-45c4 26 14.167 47.833 30.5 65.5z
" />
    <glyph glyph-name="Imacron" unicode="&#x12a;" horiz-adv-x="284" 
d="M184 700h74l-123 -700h-74zM91 814h301l-8 -50h-302z" />
    <glyph glyph-name="imacron" unicode="&#x12b;" horiz-adv-x="244" 
d="M131 500h70l-88 -500h-70zM35 614h301l-8 -50h-302z" />
    <glyph glyph-name="Ibreve" unicode="&#x12c;" horiz-adv-x="284" 
d="M184 700h74l-123 -700h-74zM148 779.5c-22.667 17 -34 43.499 -34 79.499c0 9.33301 0.333008 16.333 1 21h43c-2 -24 3.5 -43 16.5 -57s34.5 -21 64.5 -21c26.667 0 49.5 6.5 68.5 19.5s32.167 32.5 39.5 58.5h46c-8.66699 -39.333 -25.667 -70.166 -51 -92.499
s-60 -33.5 -104 -33.5c-37.333 0 -67.333 8.5 -90 25.5z" />
    <glyph glyph-name="ibreve" unicode="&#x12d;" horiz-adv-x="244" 
d="M131 500h70l-88 -500h-70zM92 579.5c-22.667 17 -34 43.499 -34 79.499c0 9.33301 0.333008 16.333 1 21h43c-2 -24 3.5 -43 16.5 -57s34.5 -21 64.5 -21c26.667 0 49.5 6.5 68.5 19.5s32.167 32.5 39.5 58.5h46c-8.66699 -39.333 -25.667 -70.166 -51 -92.499
s-60 -33.5 -104 -33.5c-37.333 0 -67.333 8.5 -90 25.5z" />
    <glyph glyph-name="Iogonek" unicode="&#x12e;" horiz-adv-x="284" 
d="M136 -146l3.00098 -29.999c-24.667 -18 -54.334 -27 -89.001 -27c-24.667 0 -44.167 5.83301 -58.5 17.5s-21.5 28.167 -21.5 49.5c0 26.667 9 51.667 27 75s43.667 43.666 77 60.999h-13l123 700h74l-123 -700h-12c-31.333 -18.667 -55.5 -38.334 -72.5 -59.001
s-25.5 -40 -25.5 -58c0 -13.333 5 -23.666 15 -30.999s24 -11 42 -11c14.667 0 32.667 4.33301 54 13z" />
    <glyph glyph-name="iogonek" unicode="&#x12f;" horiz-adv-x="236" 
d="M230 689c8.66699 -7.33301 12.998 -17.333 12.998 -30c0 -17.333 -6 -32 -18 -44s-27.333 -18 -46 -18c-13.333 0 -24.166 3.83301 -32.499 11.5s-12.5 17.167 -12.5 28.5c0 18 5.83301 33 17.5 45s26.834 18 45.501 18c13.333 0 24.333 -3.66699 33 -11zM25.498 -59
c-17 -20.667 -25.501 -39.999 -25.501 -57.999c0 -13.333 4.83301 -23.666 14.5 -30.999s23.834 -11 42.501 -11c14.667 0 32.667 4.33301 54 13l3 -30c-25.333 -18 -55 -27 -89 -27c-25.333 0 -45 5.83301 -59 17.5s-21 28.167 -21 49.5c0 26.667 8.83301 51.667 26.5 75
s43.167 43.666 76.5 60.999h-9l88 500h70l-88 -500h-12c-30.667 -18.667 -54.5 -38.334 -71.5 -59.001z" />
    <glyph glyph-name="Idotaccent" unicode="&#x130;" horiz-adv-x="284" 
d="M184 700h74l-123 -700h-74zM203 764c-7.33301 6.66699 -10.999 15.667 -10.999 27c0 16 5.16699 29 15.5 39s23.833 15 40.5 15c11.333 0 20.666 -3.5 27.999 -10.5s11 -15.833 11 -26.5c0 -16 -5 -29 -15 -39s-23.333 -15 -40 -15c-12 0 -21.667 3.33301 -29 10z" />
    <glyph glyph-name="dotlessi" unicode="&#x131;" horiz-adv-x="244" 
d="M131 500h70l-88 -500h-70z" />
    <glyph glyph-name="IJ" unicode="&#x132;" horiz-adv-x="707" 
d="M184 700h74l-123 -700h-74zM311.5 2.5c-25 8.33301 -44.166 19.167 -57.499 32.5l38 55c11.333 -11.333 26.166 -20.5 44.499 -27.5s37.166 -10.5 56.499 -10.5c42.667 0 76 15 100 45s41.333 75.667 52 137l82 466h74l-84 -477c-14 -80.667 -39.167 -139.667 -75.5 -177
s-87.166 -56 -152.499 -56c-26.667 0 -52.5 4.16699 -77.5 12.5z" />
    <glyph glyph-name="ij" unicode="&#x133;" horiz-adv-x="473" 
d="M146.5 608.5c-8.33301 7.66699 -12.502 17.167 -12.502 28.5c0 18 5.83301 33 17.5 45s26.834 18 45.501 18c13.333 0 24.333 -3.66699 33 -11s13 -17.333 13 -30c0 -17.333 -6 -32 -18 -44s-27.333 -18 -46 -18c-13.333 0 -24.166 3.83301 -32.499 11.5zM126.998 500h70
l-88 -500h-70zM390.498 608.5c-8.33301 7.66699 -12.499 17.5 -12.499 29.5c0 18 6 32.833 18 44.5s27 17.5 45 17.5c13.333 0 24.166 -3.66699 32.499 -11s12.5 -17.333 12.5 -30c0 -17.333 -5.83301 -32 -17.5 -44s-26.834 -18 -45.501 -18
c-13.333 0 -24.166 3.83301 -32.499 11.5zM117.999 -182l11 53.999c6 -0.666992 16.667 -1 32 -1c38 0 66.5 11.167 85.5 33.5s32.833 57.5 41.5 105.5l86 490h69l-87 -495c-11.333 -65.333 -31.5 -113.666 -60.5 -144.999s-68.833 -47 -119.5 -47
c-22 0 -41.333 1.66699 -58 5z" />
    <glyph glyph-name="Jcircumflex" unicode="&#x134;" horiz-adv-x="423" 
d="M27.5 2.5c-25 8.33301 -44.166 19.167 -57.499 32.5l38 55c11.333 -11.333 26.166 -20.5 44.499 -27.5s37.166 -10.5 56.499 -10.5c42.667 0 76 15 100 45s41.333 75.667 52 137l82 466h74l-84 -477c-14 -80.667 -39.167 -139.667 -75.5 -177s-87.166 -56 -152.499 -56
c-26.667 0 -52.5 4.16699 -77.5 12.5zM303.001 890.001h53l80 -136h-58l-53 91l-86 -91h-63z" />
    <glyph glyph-name="jcircumflex" unicode="&#x135;" horiz-adv-x="237" 
d="M-118 -182l11 54c8 -0.666992 18.667 -1 32 -1c37.333 0 65.166 11.5 83.499 34.5s31.5 57.833 39.5 104.5l86 490h70l-87 -495c-23.333 -128 -84.666 -192 -183.999 -192c-14 0 -31 1.66699 -51 5zM176 690h53l80 -136h-58l-53 91l-86 -91h-63z" />
    <glyph glyph-name="uni0136" unicode="&#x136;" horiz-adv-x="588" 
d="M336 415l192 -415h-73l-172 363l-126 -123l-42 -240h-74l123 700h74l-62 -358l363 358h88zM272.5 -84.5c8.33301 -8.33301 12.499 -19.168 12.499 -32.501c0 -21.333 -7.66699 -45.666 -23 -72.999s-35 -51.666 -59 -72.999l-27 21c14 17.333 24.5 30.833 31.5 40.5
s12.833 20.167 17.5 31.5h-6c-11.333 0 -20.666 3.5 -27.999 10.5s-11 16.167 -11 27.5c0 17.333 5.5 31.666 16.5 42.999s25.167 17 42.5 17c14 0 25.167 -4.16699 33.5 -12.5z" />
    <glyph glyph-name="uni0137" unicode="&#x137;" horiz-adv-x="472" 
d="M271 307l149 -307h-78l-125 261l-95 -82l-31 -179h-69l131 742h69l-84 -474l273 232h85zM213.5 -84.5c8.33301 -8.33301 12.499 -19.168 12.499 -32.501c0 -21.333 -7.66699 -45.666 -23 -72.999s-35 -51.666 -59 -72.999l-27 21c14 17.333 24.5 30.833 31.5 40.5
s12.833 20.167 17.5 31.5h-6c-11.333 0 -20.666 3.5 -27.999 10.5s-11 16.167 -11 27.5c0 17.333 5.5 31.666 16.5 42.999s25.167 17 42.5 17c14 0 25.167 -4.16699 33.5 -12.5z" />
    <glyph glyph-name="kgreenlandic" unicode="&#x138;" horiz-adv-x="472" 
d="M274 304l146 -304h-80l-120 255l-99 -87l-30 -168h-69l88 500h69l-43 -247l277 247h83z" />
    <glyph glyph-name="Lacute" unicode="&#x139;" horiz-adv-x="537" 
d="M164 700h74l-112 -638h341l-11 -62h-415zM287 894h74l-118 -140h-57z" />
    <glyph glyph-name="lacute" unicode="&#x13a;" horiz-adv-x="289" 
d="M47 74c0 6.66699 1.33301 19.332 4 37.999l111 630h69l-110 -626c-2 -12 -3 -22 -3 -30c0 -15.333 3.33301 -26.166 10 -32.499s17.667 -9.5 33 -9.5c13.333 0 30 3.66699 50 11l4 -43c-11.333 -6.66699 -24.5 -12 -39.5 -16s-29.833 -6 -44.5 -6c-56 0 -84 28 -84 84z
M283 935.998h74l-118 -140h-57z" />
    <glyph glyph-name="uni013B" unicode="&#x13b;" horiz-adv-x="537" 
d="M164 700h74l-112 -638h341l-11 -62h-415zM268.5 -84.5c8.33301 -8.33301 12.499 -19.168 12.499 -32.501c0 -21.333 -7.66699 -45.666 -23 -72.999s-35 -51.666 -59 -72.999l-27 21c14 17.333 24.5 30.833 31.5 40.5s12.833 20.167 17.5 31.5h-6
c-11.333 0 -20.666 3.5 -27.999 10.5s-11 16.167 -11 27.5c0 17.333 5.5 31.666 16.5 42.999s25.167 17 42.5 17c14 0 25.167 -4.16699 33.5 -12.5z" />
    <glyph glyph-name="uni013C" unicode="&#x13c;" horiz-adv-x="289" 
d="M47 74c0 6.66699 1.33301 19.332 4 37.999l111 630h69l-110 -626c-2 -12 -3 -22 -3 -30c0 -15.333 3.33301 -26.166 10 -32.499s17.667 -9.5 33 -9.5c13.333 0 30 3.66699 50 11l4 -43c-11.333 -6.66699 -24.5 -12 -39.5 -16s-29.833 -6 -44.5 -6c-56 0 -84 28 -84 84z
M150.5 -84.502c8.33301 -8.33301 12.499 -19.168 12.499 -32.501c0 -21.333 -7.66699 -45.666 -23 -72.999s-35 -51.666 -59 -72.999l-27 21c14 17.333 24.5 30.833 31.5 40.5s12.833 20.167 17.5 31.5h-6c-11.333 0 -20.666 3.5 -27.999 10.5s-11 16.167 -11 27.5
c0 17.333 5.5 31.666 16.5 42.999s25.167 17 42.5 17c14 0 25.167 -4.16699 33.5 -12.5z" />
    <glyph glyph-name="Lcaron" unicode="&#x13d;" horiz-adv-x="544" 
d="M164 700h74l-112 -638h341l-11 -62h-415zM524.5 697.5c8.33301 -8.33301 12.5 -19.1699 12.5 -32.5029c0 -21.333 -7.5 -45.666 -22.5 -72.999s-34.833 -51.666 -59.5 -72.999l-27 21c14 17.333 24.5 30.833 31.5 40.5s12.833 19.834 17.5 30.501h-6
c-12 0 -21.5 3.5 -28.5 10.5s-10.5 16.167 -10.5 27.5c0 18 5.5 32.667 16.5 44s25.167 17 42.5 17c14 0 25.167 -4.16699 33.5 -12.5z" />
    <glyph glyph-name="lcaron" unicode="&#x13e;" horiz-adv-x="320" 
d="M47 74c0 6.66699 1.33301 19.332 4 37.999l111 630h69l-110 -626c-2 -12 -3 -22 -3 -30c0 -15.333 3.33301 -26.166 10 -32.499s17.667 -9.5 33 -9.5c13.333 0 30 3.66699 50 11l4 -43c-11.333 -6.66699 -24.5 -12 -39.5 -16s-29.833 -6 -44.5 -6c-56 0 -84 28 -84 84z
M382.5 729.498c8.33301 -8.33301 12.5 -19.1699 12.5 -32.5029c0 -21.333 -7.5 -45.666 -22.5 -72.999s-34.833 -51.666 -59.5 -72.999l-27 21c14 17.333 24.5 30.833 31.5 40.5s12.833 19.834 17.5 30.501h-6c-12 0 -21.5 3.5 -28.5 10.5s-10.5 16.167 -10.5 27.5
c0 18 5.5 32.667 16.5 44s25.167 17 42.5 17c14 0 25.167 -4.16699 33.5 -12.5z" />
    <glyph glyph-name="Ldot" unicode="&#x13f;" horiz-adv-x="537" 
d="M164 700h74l-112 -638h341l-11 -62h-415zM298 303c-8.66699 8.66699 -13 19.667 -13 33c0 21.333 6.16699 38.5 18.5 51.5s28.5 19.5 48.5 19.5c13.333 0 24.333 -4.16699 33 -12.5s13 -19.5 13 -33.5c0 -21.333 -6.16699 -38.5 -18.5 -51.5s-28.5 -19.5 -48.5 -19.5
c-13.333 0 -24.333 4.33301 -33 13z" />
    <glyph glyph-name="ldot" unicode="&#x140;" horiz-adv-x="319" 
d="M47 74c0 6.66699 1.33301 19.332 4 37.999l111 630h69l-110 -626c-2 -12 -3 -22 -3 -30c0 -15.333 3.33301 -26.166 10 -32.499s17.667 -9.5 33 -9.5c13.333 0 30 3.66699 50 11l4 -43c-11.333 -6.66699 -24.5 -12 -39.5 -16s-29.833 -6 -44.5 -6c-56 0 -84 28 -84 84z
M213 273.998c-8.66699 8.66699 -13 19.667 -13 33c0 21.333 6.16699 38.5 18.5 51.5s28.5 19.5 48.5 19.5c13.333 0 24.333 -4.16699 33 -12.5s13 -19.5 13 -33.5c0 -21.333 -6.16699 -38.5 -18.5 -51.5s-28.5 -19.5 -48.5 -19.5c-13.333 0 -24.333 4.33301 -33 13z" />
    <glyph glyph-name="Lslash" unicode="&#x141;" horiz-adv-x="537" 
d="M467 62l-11 -62h-415l50 285l-68 -27l11 60l68 27l62 355h74l-57 -323l197 79l-12 -63l-195 -77l-45 -254h341z" />
    <glyph glyph-name="lslash" unicode="&#x142;" horiz-adv-x="290" 
d="M121 116c-2 -12 -3 -22.002 -3 -30.002c0 -15.333 3.33301 -26.166 10 -32.499s17.667 -9.5 33 -9.5c13.333 0 30 3.66699 50 11l4 -43c-11.333 -6.66699 -24.5 -12 -39.5 -16s-29.833 -6 -44.5 -6c-56 0 -84 28 -84 84c0 6.66699 1.33301 19.334 4 38.001l40 226
l-56 -22l10 56l56 22l61 348h69l-56 -318l114 46l-10 -56l-114 -46z" />
    <glyph glyph-name="Nacute" unicode="&#x143;" horiz-adv-x="677" 
d="M670 700l-123 -700h-75l-253 591l-104 -591h-74l123 700h82l248 -583l103 583h73zM503 894h74l-118 -140h-57z" />
    <glyph glyph-name="nacute" unicode="&#x144;" horiz-adv-x="545" 
d="M88 376c10.667 65.333 16.666 106.666 17.999 123.999h63c-1.33301 -24.667 -5.66602 -56.334 -12.999 -95.001h3c19.333 32.667 45.5 58.334 78.5 77.001s68.5 28 106.5 28c48.667 0 85.5 -13.167 110.5 -39.5s37.5 -64.833 37.5 -115.5c0 -23.333 -2.33301 -47 -7 -71
l-50 -284h-69l50 285c4 23.333 6 44.333 6 63c0 70 -31 105 -93 105c-30 0 -58.5 -7.66699 -85.5 -23s-49.667 -36.666 -68 -63.999s-30.5 -58.333 -36.5 -93l-48 -273h-70zM402.999 694h74l-118 -140h-57z" />
    <glyph glyph-name="uni0145" unicode="&#x145;" horiz-adv-x="677" 
d="M670 700l-123 -700h-75l-253 591l-104 -591h-74l123 700h82l248 -583l103 583h73zM314.5 -84.5c8.33301 -8.33301 12.499 -19.168 12.499 -32.501c0 -21.333 -7.66699 -45.666 -23 -72.999s-35 -51.666 -59 -72.999l-27 21c14 17.333 24.5 30.833 31.5 40.5
s12.833 20.167 17.5 31.5h-6c-11.333 0 -20.666 3.5 -27.999 10.5s-11 16.167 -11 27.5c0 17.333 5.5 31.666 16.5 42.999s25.167 17 42.5 17c14 0 25.167 -4.16699 33.5 -12.5z" />
    <glyph glyph-name="uni0146" unicode="&#x146;" horiz-adv-x="545" 
d="M88 376c10.667 65.333 16.666 106.666 17.999 123.999h63c-1.33301 -24.667 -5.66602 -56.334 -12.999 -95.001h3c19.333 32.667 45.5 58.334 78.5 77.001s68.5 28 106.5 28c48.667 0 85.5 -13.167 110.5 -39.5s37.5 -64.833 37.5 -115.5c0 -23.333 -2.33301 -47 -7 -71
l-50 -284h-69l50 285c4 23.333 6 44.333 6 63c0 70 -31 105 -93 105c-30 0 -58.5 -7.66699 -85.5 -23s-49.667 -36.666 -68 -63.999s-30.5 -58.333 -36.5 -93l-48 -273h-70zM249.499 -84.5c8.33301 -8.33301 12.499 -19.168 12.499 -32.501
c0 -21.333 -7.66699 -45.666 -23 -72.999s-35 -51.666 -59 -72.999l-27 21c14 17.333 24.5 30.833 31.5 40.5s12.833 20.167 17.5 31.5h-6c-11.333 0 -20.666 3.5 -27.999 10.5s-11 16.167 -11 27.5c0 17.333 5.5 31.666 16.5 42.999s25.167 17 42.5 17
c14 0 25.167 -4.16699 33.5 -12.5z" />
    <glyph glyph-name="Ncaron" unicode="&#x147;" horiz-adv-x="677" 
d="M670 700l-123 -700h-75l-253 591l-104 -591h-74l123 700h82l248 -583l103 583h73zM320 890h59l53 -92l86 92h63l-127 -136h-53z" />
    <glyph glyph-name="ncaron" unicode="&#x148;" horiz-adv-x="545" 
d="M88 376c10.667 65.333 16.666 106.666 17.999 123.999h63c-1.33301 -24.667 -5.66602 -56.334 -12.999 -95.001h3c19.333 32.667 45.5 58.334 78.5 77.001s68.5 28 106.5 28c48.667 0 85.5 -13.167 110.5 -39.5s37.5 -64.833 37.5 -115.5c0 -23.333 -2.33301 -47 -7 -71
l-50 -284h-69l50 285c4 23.333 6 44.333 6 63c0 70 -31 105 -93 105c-30 0 -58.5 -7.66699 -85.5 -23s-49.667 -36.666 -68 -63.999s-30.5 -58.333 -36.5 -93l-48 -273h-70zM219.999 690h59l53 -92l86 92h63l-127 -136h-53z" />
    <glyph glyph-name="napostrophe" unicode="&#x149;" horiz-adv-x="627" 
d="M175.5 697.5c8.33301 -8.33301 12.5 -19.1699 12.5 -32.5029c0 -21.333 -7.5 -45.666 -22.5 -72.999s-34.833 -51.666 -59.5 -72.999l-27 21c14 17.333 24.5 30.833 31.5 40.5s12.833 19.834 17.5 30.501h-6c-12 0 -21.5 3.5 -28.5 10.5s-10.5 16.167 -10.5 27.5
c0 18 5.5 32.667 16.5 44s25.167 17 42.5 17c14 0 25.167 -4.16699 33.5 -12.5zM170 375.996c10.667 65.333 16.666 106.666 17.999 123.999h63c-1.33301 -24.667 -5.66602 -56.334 -12.999 -95.001h3c19.333 32.667 45.5 58.334 78.5 77.001s68.5 28 106.5 28
c48.667 0 85.5 -13.167 110.5 -39.5s37.5 -64.833 37.5 -115.5c0 -23.333 -2.33301 -47 -7 -71l-50 -284h-69l50 285c4 23.333 6 44.333 6 63c0 70 -31 105 -93 105c-30 0 -58.5 -7.66699 -85.5 -23s-49.667 -36.666 -68 -63.999s-30.5 -58.333 -36.5 -93l-48 -273h-70z" />
    <glyph glyph-name="Eng" unicode="&#x14a;" horiz-adv-x="677" 
d="M164 700l82.002 0.000976562l249 -582l102 582h73l-128 -731c-13.333 -78.667 -38.333 -136.334 -75 -173.001s-87 -55 -151 -55c-24.667 0 -48.834 3.83301 -72.501 11.5s-41.5 17.5 -53.5 29.5l35 51c11.333 -10.667 25.666 -19.167 42.999 -25.5s35 -9.5 53 -9.5
c41.333 0 73.833 14.167 97.5 42.5s41.167 72.833 52.5 133.5l4 26l-256 591l-104 -591h-74z" />
    <glyph glyph-name="eng" unicode="&#x14b;" horiz-adv-x="545" 
d="M88 376c10.667 65.333 16.666 106.666 17.999 123.999h63c-1.33301 -24.667 -5.66602 -56.334 -12.999 -95.001h3c19.333 32.667 45.5 58.334 78.5 77.001s68.5 28 106.5 28c48.667 0 85.5 -13.167 110.5 -39.5s37.5 -64.833 37.5 -115.5c0 -23.333 -2.33301 -47 -7 -71
l-50 -285c-22 -124 -83 -186 -183 -186c-18 0 -35.333 1.66699 -52 5l11 54c6.66699 -0.666992 17.667 -1 33 -1c35.333 0 62.5 10.5 81.5 31.5s32.833 56.5 41.5 106.5l49 276c4 23.333 6 44.333 6 63c0 70 -31 105 -93 105c-30 0 -58.5 -7.66699 -85.5 -23
s-49.667 -36.666 -68 -63.999s-30.5 -58.333 -36.5 -93l-48 -273h-70z" />
    <glyph glyph-name="Omacron" unicode="&#x14c;" horiz-adv-x="655" 
d="M111.5 61.5c-43.667 47.667 -65.499 112.5 -65.499 194.5c0 84.667 15.5 161.667 46.5 231s73.833 123.833 128.5 163.5s115.667 59.5 183 59.5c48.667 0 91.167 -10.833 127.5 -32.5s64.333 -52.5 84 -92.5s29.5 -87 29.5 -141c0 -84.667 -15.5 -161.667 -46.5 -231
s-73.667 -123.833 -128 -163.5s-114.833 -59.5 -181.5 -59.5c-74.667 0 -133.834 23.833 -177.501 71.5zM433.001 103c42 34.667 75.335 81.832 100.002 141.499s37 124.834 37 195.501c0 65.333 -15 116.5 -45 153.5s-72 55.5 -126 55.5
c-50.667 0 -97.334 -17.333 -140.001 -52s-76.334 -81.667 -101.001 -141s-37 -124.333 -37 -195c0 -66 15.167 -117.5 45.5 -154.5s72.833 -55.5 127.5 -55.5c50.667 0 97 17.333 139 52zM277.003 813.998h301l-8 -50h-302z" />
    <glyph glyph-name="omacron" unicode="&#x14d;" horiz-adv-x="550" 
d="M87.5 45.5c-37 37 -55.5 86.167 -55.5 147.5c0 60 12 114.167 36 162.5s57.333 86.166 100 113.499s91 41 145 41c62 0 111.667 -18.5 149 -55.5s56 -86.167 56 -147.5c0 -60 -12.167 -114.167 -36.5 -162.5s-57.833 -86.166 -100.5 -113.499s-91 -41 -145 -41
c-62 0 -111.5 18.5 -148.5 55.5zM344 79.5c32 23 57.335 54.334 76.002 94.001s28 83.167 28 130.5s-12.167 84.333 -36.5 111s-57.833 40 -100.5 40c-38.667 0 -73.834 -11.5 -105.501 -34.5s-56.834 -54.333 -75.501 -94s-28 -83.5 -28 -131.5
c0 -46.667 12 -83.334 36 -110.001s57.333 -40 100 -40c38.667 0 74 11.5 106 34.5zM188.002 614.001h301l-8 -50h-302z" />
    <glyph glyph-name="Obreve" unicode="&#x14e;" horiz-adv-x="655" 
d="M111.5 61.5c-43.667 47.667 -65.499 112.5 -65.499 194.5c0 84.667 15.5 161.667 46.5 231s73.833 123.833 128.5 163.5s115.667 59.5 183 59.5c48.667 0 91.167 -10.833 127.5 -32.5s64.333 -52.5 84 -92.5s29.5 -87 29.5 -141c0 -84.667 -15.5 -161.667 -46.5 -231
s-73.667 -123.833 -128 -163.5s-114.833 -59.5 -181.5 -59.5c-74.667 0 -133.834 23.833 -177.501 71.5zM433.001 103c42 34.667 75.335 81.832 100.002 141.499s37 124.834 37 195.501c0 65.333 -15 116.5 -45 153.5s-72 55.5 -126 55.5
c-50.667 0 -97.334 -17.333 -140.001 -52s-76.334 -81.667 -101.001 -141s-37 -124.333 -37 -195c0 -66 15.167 -117.5 45.5 -154.5s72.833 -55.5 127.5 -55.5c50.667 0 97 17.333 139 52zM334.003 779.498c-22.667 17 -34 43.499 -34 79.499
c0 9.33301 0.333008 16.333 1 21h43c-2 -24 3.5 -43 16.5 -57s34.5 -21 64.5 -21c26.667 0 49.5 6.5 68.5 19.5s32.167 32.5 39.5 58.5h46c-8.66699 -39.333 -25.667 -70.166 -51 -92.499s-60 -33.5 -104 -33.5c-37.333 0 -67.333 8.5 -90 25.5z" />
    <glyph glyph-name="obreve" unicode="&#x14f;" horiz-adv-x="550" 
d="M87.5 45.5c-37 37 -55.5 86.167 -55.5 147.5c0 60 12 114.167 36 162.5s57.333 86.166 100 113.499s91 41 145 41c62 0 111.667 -18.5 149 -55.5s56 -86.167 56 -147.5c0 -60 -12.167 -114.167 -36.5 -162.5s-57.833 -86.166 -100.5 -113.499s-91 -41 -145 -41
c-62 0 -111.5 18.5 -148.5 55.5zM344 79.5c32 23 57.335 54.334 76.002 94.001s28 83.167 28 130.5s-12.167 84.333 -36.5 111s-57.833 40 -100.5 40c-38.667 0 -73.834 -11.5 -105.501 -34.5s-56.834 -54.333 -75.501 -94s-28 -83.5 -28 -131.5
c0 -46.667 12 -83.334 36 -110.001s57.333 -40 100 -40c38.667 0 74 11.5 106 34.5zM245.002 579.501c-22.667 17 -34 43.499 -34 79.499c0 9.33301 0.333008 16.333 1 21h43c-2 -24 3.5 -43 16.5 -57s34.5 -21 64.5 -21c26.667 0 49.5 6.5 68.5 19.5s32.167 32.5 39.5 58.5
h46c-8.66699 -39.333 -25.667 -70.166 -51 -92.499s-60 -33.5 -104 -33.5c-37.333 0 -67.333 8.5 -90 25.5z" />
    <glyph glyph-name="Ohungarumlaut" unicode="&#x150;" horiz-adv-x="655" 
d="M111.5 61.5c-43.667 47.667 -65.499 112.5 -65.499 194.5c0 84.667 15.5 161.667 46.5 231s73.833 123.833 128.5 163.5s115.667 59.5 183 59.5c48.667 0 91.167 -10.833 127.5 -32.5s64.333 -52.5 84 -92.5s29.5 -87 29.5 -141c0 -84.667 -15.5 -161.667 -46.5 -231
s-73.667 -123.833 -128 -163.5s-114.833 -59.5 -181.5 -59.5c-74.667 0 -133.834 23.833 -177.501 71.5zM433.001 103c42 34.667 75.335 81.832 100.002 141.499s37 124.834 37 195.501c0 65.333 -15 116.5 -45 153.5s-72 55.5 -126 55.5
c-50.667 0 -97.334 -17.333 -140.001 -52s-76.334 -81.667 -101.001 -141s-37 -124.333 -37 -195c0 -66 15.167 -117.5 45.5 -154.5s72.833 -55.5 127.5 -55.5c50.667 0 97 17.333 139 52zM409.003 893.998h72l-117 -140h-57zM538.003 893.998h73l-117 -140h-57z" />
    <glyph glyph-name="ohungarumlaut" unicode="&#x151;" horiz-adv-x="550" 
d="M320 682h68l-110 -131h-54zM442 682h68l-110 -131h-54zM87.5 45.5c-37 37 -55.5 86.167 -55.5 147.5c0 60 12 114.167 36 162.5s57.333 86.166 100 113.499s91 41 145 41c62 0 111.667 -18.5 149 -55.5s56 -86.167 56 -147.5c0 -60 -12.167 -114.167 -36.5 -162.5
s-57.833 -86.166 -100.5 -113.499s-91 -41 -145 -41c-62 0 -111.5 18.5 -148.5 55.5zM344 79.5c32 23 57.335 54.334 76.002 94.001s28 83.167 28 130.5s-12.167 84.333 -36.5 111s-57.833 40 -100.5 40c-38.667 0 -73.834 -11.5 -105.501 -34.5
s-56.834 -54.333 -75.501 -94s-28 -83.5 -28 -131.5c0 -46.667 12 -83.334 36 -110.001s57.333 -40 100 -40c38.667 0 74 11.5 106 34.5z" />
    <glyph glyph-name="OE" unicode="&#x152;" horiz-adv-x="894" 
d="M619 638l-42.999 -239h254l-10 -59h-253c-1.33301 -8.66699 -4 -21.667 -8 -39l-42 -239h288l-11 -62h-362l14 77c-26.667 -28 -56.5 -49.5 -89.5 -64.5s-67.5 -22.5 -103.5 -22.5c-66.667 0 -118 20.833 -154 62.5s-54 101.167 -54 178.5c0 92 13.667 174.5 41 247.5
s65.5 129.833 114.5 170.5s104.833 61 167.5 61c38.667 0 72.667 -8 102 -24s52.666 -39 69.999 -69l15 83h362l-10 -62h-288zM393.001 115c40 43.333 70 101.003 90 173.003l19 111c2 21.333 3 43 3 65c0 61.333 -11.833 107.666 -35.5 138.999s-58.5 47 -104.5 47
s-87.833 -18.333 -125.5 -55s-67.167 -86.834 -88.5 -150.501s-32 -134.834 -32 -213.501c0 -120.667 46.667 -181 140 -181c49.333 0 94 21.667 134 65z" />
    <glyph glyph-name="oe" unicode="&#x153;" horiz-adv-x="871" 
d="M796.5 464c31 -30.667 46.5 -73.6689 46.5 -129.002c0 -19.333 -2 -40.666 -6 -63.999l-6 -31h-363c-2 -16 -3 -32.667 -3 -50c0 -45.333 11 -80.166 33 -104.499s54 -36.5 96 -36.5c61.333 0 113 24.667 155 74l34 -39c-24 -30 -52.833 -53.167 -86.5 -69.5
s-69.834 -24.5 -108.501 -24.5c-44.667 0 -82.167 9.16699 -112.5 27.5s-52.166 44.833 -65.499 79.5c-22.667 -34 -50.5 -60.333 -83.5 -79s-69.5 -28 -109.5 -28c-58.667 0 -104.334 16.667 -137.001 50s-49 79.666 -49 138.999c0 65.333 11.167 123 33.5 173
s53.5 88.833 93.5 116.5s86.333 41.5 139 41.5c42.667 0 77.834 -9.16699 105.501 -27.5s47.167 -45.166 58.5 -80.499c24.667 34 54.5 60.5 89.5 79.5s73.167 28.5 114.5 28.5c56.667 0 100.5 -15.333 131.5 -46zM316 79.998c28 24 49.834 57.335 65.501 100.002
s23.5 91 23.5 145c0 42.667 -9.5 75.167 -28.5 97.5s-47.167 33.5 -84.5 33.5c-36.667 0 -69.5 -11.833 -98.5 -35.5s-51.667 -56.334 -68 -98.001s-24.5 -88.834 -24.5 -141.501c0 -44.667 10.167 -78.667 30.5 -102s50.166 -35 89.499 -35c35.333 0 67 12 95 36z
M658.001 453c-40.667 0 -77 -14.667 -109 -44s-55.333 -68.333 -70 -117h300l1 9c4.66699 101.333 -36 152 -122 152z" />
    <glyph glyph-name="Racute" unicode="&#x154;" horiz-adv-x="577" 
d="M165 700h198.001c64.667 0 114.334 -12.167 149.001 -36.5s52 -59.833 52 -106.5c0 -58 -15.5 -106.833 -46.5 -146.5s-74.167 -65.5 -129.5 -77.5v-2c12.667 -8.66699 22.667 -18.5 30 -29.5s13 -24.833 17 -41.5l59 -260h-80l-50 230
c-6.66699 31.333 -17.834 52.833 -33.501 64.5s-40.834 17.5 -75.501 17.5h-84l-55 -312h-74zM310.001 373c56 0 100 15.332 132 45.999s48 72.334 48 125.001c0 62.667 -45.333 94 -136 94h-126l-46 -265h128zM454.001 893.999h74l-118 -140h-57z" />
    <glyph glyph-name="racute" unicode="&#x155;" horiz-adv-x="334" 
d="M95 378c10 58 16.001 98.665 18.001 121.998h64c-2 -29.333 -5.66699 -58.666 -11 -87.999l-3 -12h3c37.333 73.333 95 110 173 110c12 0 21.333 -1 28 -3l-10 -58c-10.667 1.33301 -21.334 2 -32.001 2c-27.333 0 -53.833 -8.33301 -79.5 -25s-47.5 -39.667 -65.5 -69
s-30.333 -61.666 -37 -96.999l-46 -260h-69zM319.001 693.998h74l-118 -140h-57z" />
    <glyph glyph-name="uni0156" unicode="&#x156;" horiz-adv-x="577" 
d="M165 700h198.001c64.667 0 114.334 -12.167 149.001 -36.5s52 -59.833 52 -106.5c0 -58 -15.5 -106.833 -46.5 -146.5s-74.167 -65.5 -129.5 -77.5v-2c12.667 -8.66699 22.667 -18.5 30 -29.5s13 -24.833 17 -41.5l59 -260h-80l-50 230
c-6.66699 31.333 -17.834 52.833 -33.501 64.5s-40.834 17.5 -75.501 17.5h-84l-55 -312h-74zM310.001 373c56 0 100 15.332 132 45.999s48 72.334 48 125.001c0 62.667 -45.333 94 -136 94h-126l-46 -265h128zM265.501 -84.501
c8.33301 -8.33301 12.499 -19.168 12.499 -32.501c0 -21.333 -7.66699 -45.666 -23 -72.999s-35 -51.666 -59 -72.999l-27 21c14 17.333 24.5 30.833 31.5 40.5s12.833 20.167 17.5 31.5h-6c-11.333 0 -20.666 3.5 -27.999 10.5s-11 16.167 -11 27.5
c0 17.333 5.5 31.666 16.5 42.999s25.167 17 42.5 17c14 0 25.167 -4.16699 33.5 -12.5z" />
    <glyph glyph-name="uni0157" unicode="&#x157;" horiz-adv-x="334" 
d="M95 378c10 58 16.001 98.665 18.001 121.998h64c-2 -29.333 -5.66699 -58.666 -11 -87.999l-3 -12h3c37.333 73.333 95 110 173 110c12 0 21.333 -1 28 -3l-10 -58c-10.667 1.33301 -21.334 2 -32.001 2c-27.333 0 -53.833 -8.33301 -79.5 -25s-47.5 -39.667 -65.5 -69
s-30.333 -61.666 -37 -96.999l-46 -260h-69zM84.501 -84.502c8.33301 -8.33301 12.499 -19.168 12.499 -32.501c0 -21.333 -7.66699 -45.666 -23 -72.999s-35 -51.666 -59 -72.999l-27 21c14 17.333 24.5 30.833 31.5 40.5s12.833 20.167 17.5 31.5h-6
c-11.333 0 -20.666 3.5 -27.999 10.5s-11 16.167 -11 27.5c0 17.333 5.5 31.666 16.5 42.999s25.167 17 42.5 17c14 0 25.167 -4.16699 33.5 -12.5z" />
    <glyph glyph-name="Rcaron" unicode="&#x158;" horiz-adv-x="577" 
d="M165 700h198.001c64.667 0 114.334 -12.167 149.001 -36.5s52 -59.833 52 -106.5c0 -58 -15.5 -106.833 -46.5 -146.5s-74.167 -65.5 -129.5 -77.5v-2c12.667 -8.66699 22.667 -18.5 30 -29.5s13 -24.833 17 -41.5l59 -260h-80l-50 230
c-6.66699 31.333 -17.834 52.833 -33.501 64.5s-40.834 17.5 -75.501 17.5h-84l-55 -312h-74zM310.001 373c56 0 100 15.332 132 45.999s48 72.334 48 125.001c0 62.667 -45.333 94 -136 94h-126l-46 -265h128zM271.001 889.999h59l53 -92l86 92h63l-127 -136h-53z" />
    <glyph glyph-name="rcaron" unicode="&#x159;" horiz-adv-x="334" 
d="M95 378c10 58 16.001 98.665 18.001 121.998h64c-2 -29.333 -5.66699 -58.666 -11 -87.999l-3 -12h3c37.333 73.333 95 110 173 110c12 0 21.333 -1 28 -3l-10 -58c-10.667 1.33301 -21.334 2 -32.001 2c-27.333 0 -53.833 -8.33301 -79.5 -25s-47.5 -39.667 -65.5 -69
s-30.333 -61.666 -37 -96.999l-46 -260h-69zM136.001 689.998h59l53 -92l86 92h63l-127 -136h-53z" />
    <glyph glyph-name="Sacute" unicode="&#x15a;" horiz-adv-x="525" 
d="M100.5 18.5c-37.667 19 -65.5 44.165 -83.5 75.498l53 45c16.667 -26 39.334 -47 68.001 -63s58.667 -24 90 -24c48 0 87.667 13 119 39s47 59.667 47 101c0 30 -10.167 56 -30.5 78s-50.833 44 -91.5 66c-52.667 28.667 -92.167 57.834 -118.5 87.501
s-39.5 63.167 -39.5 100.5s9.66699 70 29 98s46 49.667 80 65s72.667 23 116 23c45.333 0 85.666 -9.83301 120.999 -29.5s58.666 -45.167 69.999 -76.5l-56 -35c-11.333 24 -29.166 43.167 -53.499 57.5s-51.5 21.5 -81.5 21.5c-43.333 0 -79.166 -11 -107.499 -33
s-42.5 -50.667 -42.5 -86c0 -24.667 10.333 -46.667 31 -66s57.667 -44 111 -74c92.667 -50.667 139 -114 139 -190c0 -42 -10.333 -78.667 -31 -110s-49.334 -55.666 -86.001 -72.999s-79 -26 -127 -26c-46 0 -87.833 9.5 -125.5 28.5zM425 893.998h74l-118 -140h-57z" />
    <glyph glyph-name="sacute" unicode="&#x15b;" horiz-adv-x="409" 
d="M61.5 13c-29.667 15.333 -48.167 34.3379 -55.5 57.0049l52 32c8 -18 21.5 -32 40.5 -42s40.833 -15 65.5 -15c34.667 0 63.334 10.167 86.001 30.5s34 45.5 34 75.5c0 19.333 -6.5 35.666 -19.5 48.999s-35.833 26.666 -68.5 39.999c-44.667 18 -77 37.167 -97 57.5
s-30 44.166 -30 71.499c0 43.333 15.667 77.666 47 102.999s73.666 38 126.999 38c32 0 61.5 -7.33301 88.5 -22s44.833 -33.334 53.5 -56.001l-50 -32c-8 18 -20.167 31.667 -36.5 41s-35.166 14 -56.499 14c-30.667 0 -55.5 -7.16699 -74.5 -21.5
s-28.5 -32.833 -28.5 -55.5c0 -16 7.66699 -30.5 23 -43.5s41.666 -27.167 78.999 -42.5c38.667 -16.667 67.334 -35.667 86.001 -57s28 -46 28 -74c0 -33.333 -8 -63 -24 -89s-38.667 -46.167 -68 -60.5s-63.333 -21.5 -102 -21.5c-36.667 0 -69.834 7.66699 -99.501 23z
M335 694.005h74l-118 -140h-57z" />
    <glyph glyph-name="Scircumflex" unicode="&#x15c;" horiz-adv-x="525" 
d="M100.5 18.5c-37.667 19 -65.5 44.165 -83.5 75.498l53 45c16.667 -26 39.334 -47 68.001 -63s58.667 -24 90 -24c48 0 87.667 13 119 39s47 59.667 47 101c0 30 -10.167 56 -30.5 78s-50.833 44 -91.5 66c-52.667 28.667 -92.167 57.834 -118.5 87.501
s-39.5 63.167 -39.5 100.5s9.66699 70 29 98s46 49.667 80 65s72.667 23 116 23c45.333 0 85.666 -9.83301 120.999 -29.5s58.666 -45.167 69.999 -76.5l-56 -35c-11.333 24 -29.166 43.167 -53.499 57.5s-51.5 21.5 -81.5 21.5c-43.333 0 -79.166 -11 -107.499 -33
s-42.5 -50.667 -42.5 -86c0 -24.667 10.333 -46.667 31 -66s57.667 -44 111 -74c92.667 -50.667 139 -114 139 -190c0 -42 -10.333 -78.667 -31 -110s-49.334 -55.666 -86.001 -72.999s-79 -26 -127 -26c-46 0 -87.833 9.5 -125.5 28.5zM346 889.998h53l80 -136h-58l-53 91
l-86 -91h-63z" />
    <glyph glyph-name="scircumflex" unicode="&#x15d;" horiz-adv-x="409" 
d="M61.5 13c-29.667 15.333 -48.167 34.3379 -55.5 57.0049l52 32c8 -18 21.5 -32 40.5 -42s40.833 -15 65.5 -15c34.667 0 63.334 10.167 86.001 30.5s34 45.5 34 75.5c0 19.333 -6.5 35.666 -19.5 48.999s-35.833 26.666 -68.5 39.999c-44.667 18 -77 37.167 -97 57.5
s-30 44.166 -30 71.499c0 43.333 15.667 77.666 47 102.999s73.666 38 126.999 38c32 0 61.5 -7.33301 88.5 -22s44.833 -33.334 53.5 -56.001l-50 -32c-8 18 -20.167 31.667 -36.5 41s-35.166 14 -56.499 14c-30.667 0 -55.5 -7.16699 -74.5 -21.5
s-28.5 -32.833 -28.5 -55.5c0 -16 7.66699 -30.5 23 -43.5s41.666 -27.167 78.999 -42.5c38.667 -16.667 67.334 -35.667 86.001 -57s28 -46 28 -74c0 -33.333 -8 -63 -24 -89s-38.667 -46.167 -68 -60.5s-63.333 -21.5 -102 -21.5c-36.667 0 -69.834 7.66699 -99.501 23z
M256 690.005h53l80 -136h-58l-53 91l-86 -91h-63z" />
    <glyph glyph-name="Scedilla" unicode="&#x15e;" horiz-adv-x="525" 
d="M231.5 615c-28.333 -22 -42.501 -50.668 -42.501 -86.001c0 -24.667 10.333 -46.667 31 -66s57.667 -44 111 -74c92.667 -50.667 139 -114 139 -190c0 -40.667 -9.83301 -76.5 -29.5 -107.5s-47.167 -55.333 -82.5 -73s-76 -27.167 -122 -28.5l-37 -53
c24 0 43.333 -6 58 -18s22 -27.333 22 -46c0 -27.333 -10.5 -48.833 -31.5 -64.5s-48.167 -23.5 -81.5 -23.5c-30.667 0 -53.667 3.33301 -69 10l13 33c11.333 -3.33301 28.333 -5 51 -5c20 0 36.333 4.33301 49 13s19 20.667 19 36c0 11.333 -6.5 20 -19.5 26
s-31.5 8.66699 -55.5 8l-13 18l50 68c-38.667 4.66699 -73.5 16 -104.5 34s-54.167 40.667 -69.5 68l53 45c16.667 -26 39.334 -47 68.001 -63s58.667 -24 90 -24c48 0 87.667 13 119 39s47 59.667 47 101c0 30 -10.167 56 -30.5 78s-50.833 44 -91.5 66
c-52.667 28.667 -92.167 57.834 -118.5 87.501s-39.5 63.167 -39.5 100.5s9.66699 70 29 98s46 49.667 80 65s72.667 23 116 23c45.333 0 85.666 -9.83301 120.999 -29.5s58.666 -45.167 69.999 -76.5l-56 -35c-11.333 24 -29.166 43.167 -53.499 57.5
s-51.5 21.5 -81.5 21.5c-43.333 0 -79.166 -11 -107.499 -33z" />
    <glyph glyph-name="scedilla" unicode="&#x15f;" horiz-adv-x="409" 
d="M327 235c18.667 -21.333 27.999 -45.9941 27.999 -73.9941c0 -48 -16 -87.667 -48 -119s-74.667 -48.333 -128 -51l-38 -54c24 0 43.333 -6 58 -18s22 -27.333 22 -46c0 -27.333 -10.5 -48.833 -31.5 -64.5s-48.167 -23.5 -81.5 -23.5c-13.333 0 -26.333 1 -39 3
s-22.334 4.33301 -29.001 7l12 33c11.333 -3.33301 28.333 -5 51 -5c20.667 0 37.167 4.33301 49.5 13s18.5 20.667 18.5 36c0 11.333 -6.5 20 -19.5 26s-31.5 8.66699 -55.5 8l-13 18l50 68c-31.333 3.33301 -58.666 12.166 -81.999 26.499s-38.333 31.5 -45 51.5l52 32
c8 -18 21.5 -32 40.5 -42s40.833 -15 65.5 -15c34.667 0 63.334 10.167 86.001 30.5s34 45.5 34 75.5c0 19.333 -6.5 35.666 -19.5 48.999s-35.833 26.666 -68.5 39.999c-44.667 18 -77 37.167 -97 57.5s-30 44.166 -30 71.499c0 43.333 15.667 77.666 47 102.999
s73.666 38 126.999 38c32 0 61.5 -7.33301 88.5 -22s44.833 -33.334 53.5 -56.001l-50 -32c-8 18 -20.167 31.667 -36.5 41s-35.166 14 -56.499 14c-30.667 0 -55.5 -7.16699 -74.5 -21.5s-28.5 -32.833 -28.5 -55.5c0 -16 7.66699 -30.5 23 -43.5
s41.666 -27.167 78.999 -42.5c38.667 -16.667 67.334 -35.667 86.001 -57z" />
    <glyph glyph-name="Scaron" unicode="&#x160;" horiz-adv-x="525" 
d="M100.5 18.5c-37.667 19 -65.5 44.165 -83.5 75.498l53 45c16.667 -26 39.334 -47 68.001 -63s58.667 -24 90 -24c48 0 87.667 13 119 39s47 59.667 47 101c0 30 -10.167 56 -30.5 78s-50.833 44 -91.5 66c-52.667 28.667 -92.167 57.834 -118.5 87.501
s-39.5 63.167 -39.5 100.5s9.66699 70 29 98s46 49.667 80 65s72.667 23 116 23c45.333 0 85.666 -9.83301 120.999 -29.5s58.666 -45.167 69.999 -76.5l-56 -35c-11.333 24 -29.166 43.167 -53.499 57.5s-51.5 21.5 -81.5 21.5c-43.333 0 -79.166 -11 -107.499 -33
s-42.5 -50.667 -42.5 -86c0 -24.667 10.333 -46.667 31 -66s57.667 -44 111 -74c92.667 -50.667 139 -114 139 -190c0 -42 -10.333 -78.667 -31 -110s-49.334 -55.666 -86.001 -72.999s-79 -26 -127 -26c-46 0 -87.833 9.5 -125.5 28.5zM242 889.998h59l53 -92l86 92h63
l-127 -136h-53z" />
    <glyph glyph-name="scaron" unicode="&#x161;" horiz-adv-x="409" 
d="M61.5 13c-29.667 15.333 -48.167 34.3379 -55.5 57.0049l52 32c8 -18 21.5 -32 40.5 -42s40.833 -15 65.5 -15c34.667 0 63.334 10.167 86.001 30.5s34 45.5 34 75.5c0 19.333 -6.5 35.666 -19.5 48.999s-35.833 26.666 -68.5 39.999c-44.667 18 -77 37.167 -97 57.5
s-30 44.166 -30 71.499c0 43.333 15.667 77.666 47 102.999s73.666 38 126.999 38c32 0 61.5 -7.33301 88.5 -22s44.833 -33.334 53.5 -56.001l-50 -32c-8 18 -20.167 31.667 -36.5 41s-35.166 14 -56.499 14c-30.667 0 -55.5 -7.16699 -74.5 -21.5
s-28.5 -32.833 -28.5 -55.5c0 -16 7.66699 -30.5 23 -43.5s41.666 -27.167 78.999 -42.5c38.667 -16.667 67.334 -35.667 86.001 -57s28 -46 28 -74c0 -33.333 -8 -63 -24 -89s-38.667 -46.167 -68 -60.5s-63.333 -21.5 -102 -21.5c-36.667 0 -69.834 7.66699 -99.501 23z
M152 690.005h59l53 -92l86 92h63l-127 -136h-53z" />
    <glyph glyph-name="uni0162" unicode="&#x162;" horiz-adv-x="547" 
d="M608 700l-11 -60h-217l-113 -640h-14l-43 -63c24 0 43.333 -6 58 -18s22 -27.333 22 -46c0 -27.333 -10.5 -48.833 -31.5 -64.5s-48.167 -23.5 -81.5 -23.5c-30.667 0 -53.667 3.33301 -69 10l13 33c11.333 -3.33301 28.333 -5 51 -5c20 0 36.333 4.33301 49 13
s19 20.667 19 36c0 11.333 -6.5 20 -19.5 26s-31.5 8.66699 -55.5 8l-13 18l56 76h-15l113 640h-219l11 60h510z" />
    <glyph glyph-name="uni0163" unicode="&#x163;" horiz-adv-x="363" 
d="M152 154c-2.66699 -13.333 -4 -26.667 -4 -40c0 -22 5 -38.667 15 -50s26.333 -17 49 -17c26 0 49.333 4 70 12l-3 -53c-24 -10.667 -53 -16 -87 -16l-37 -53c24 0 43.333 -6 58 -18s22 -27.333 22 -46c0 -27.333 -10.5 -48.833 -31.5 -64.5s-48.167 -23.5 -81.5 -23.5
c-30.667 0 -53.667 3.33301 -69 10l13 33c11.333 -3.33301 28.333 -5 51 -5c20 0 36.333 4.33301 49 13s19 20.667 19 36c0 11.333 -6.5 20 -19.5 26s-31.5 8.66699 -55.5 8l-13 18l53 71c-24 6.66699 -42.333 19.167 -55 37.5s-19 41.5 -19 69.5c0 8 1.33301 21.333 4 40
l54 303h-90l10 55h90l24 135l69 21h4l-27 -156h141l-10 -55h-141z" />
    <glyph glyph-name="Tcaron" unicode="&#x164;" horiz-adv-x="547" 
d="M306 640h-219l11 60h510l-11 -60h-217l-113 -640h-74zM256 890h59l53 -92l86 92h63l-127 -136h-53z" />
    <glyph glyph-name="tcaron" unicode="&#x165;" horiz-adv-x="429" 
d="M106.5 19c-20.333 19.333 -30.5 47.332 -30.5 83.999c0 7.33301 1.33301 20.333 4 39l54 303h-90l10 55h90l24 135l69 21h4l-27 -156h141l-10 -55h-141l-52 -291c-2.66699 -13.333 -4 -26.666 -4 -39.999c0 -22 5 -38.667 15 -50s26.333 -17 49 -17c26 0 49.333 4 70 12
l-3 -53c-24 -10.667 -53 -16 -87 -16c-36.667 0 -65.167 9.66699 -85.5 29zM489.5 715.499c8.33301 -8.33301 12.5 -19.1699 12.5 -32.5029c0 -21.333 -7.5 -45.666 -22.5 -72.999s-34.833 -51.666 -59.5 -72.999l-27 21c14 17.333 24.5 30.833 31.5 40.5
s12.833 19.834 17.5 30.501h-6c-12 0 -21.5 3.5 -28.5 10.5s-10.5 16.167 -10.5 27.5c0 18 5.5 32.667 16.5 44s25.167 17 42.5 17c14 0 25.167 -4.16699 33.5 -12.5z" />
    <glyph glyph-name="Tbar" unicode="&#x166;" horiz-adv-x="547" 
d="M380 640l-49 -278h165l-9 -52h-165l-55 -310h-74l55 310h-166l9 52h166l49 278h-219l11 60h510l-11 -60h-217z" />
    <glyph glyph-name="tbar" unicode="&#x167;" horiz-adv-x="363" 
d="M204 445l-26 -147.001h110l-9 -47h-110l-17 -97c-2.66699 -13.333 -4 -26.666 -4 -39.999c0 -22 5 -38.667 15 -50s26.333 -17 49 -17c26 0 49.333 4 70 12l-3 -53c-24 -10.667 -53 -16 -87 -16c-36.667 0 -65.167 9.66699 -85.5 29s-30.5 47.333 -30.5 84
c0 7.33301 1.33301 20.333 4 39l19 109h-79l8 47h80l26 147h-90l10 55h90l24 135l69 21h4l-27 -156h141l-10 -55h-141z" />
    <glyph glyph-name="Utilde" unicode="&#x168;" horiz-adv-x="656" 
d="M133.5 42c-35.667 34.667 -53.5 85.001 -53.5 151.001c0 24 2.66699 51.333 8 82l75 425h75l-75 -423c-5.33301 -32 -8 -58.667 -8 -80c0 -48.667 11.333 -85 34 -109s57.667 -36 105 -36c112.667 0 182.334 75 209.001 225l75 423h74l-75 -425
c-16.667 -96.667 -48.5 -168.334 -95.5 -215.001s-110.833 -70 -191.5 -70c-68.667 0 -120.834 17.333 -156.501 52zM308.5 819.501c16.333 17.667 36.1689 26.501 59.502 26.501c12 0 23.167 -2.33301 33.5 -7s22.166 -11.334 35.499 -20.001
c19.333 -13.333 34.333 -20 45 -20c9.33301 0 17.333 4 24 12s12.334 21 17.001 39h45c-5.33301 -28 -16.333 -51 -33 -69s-37 -27 -61 -27c-12 0 -23.333 2.5 -34 7.5s-22.334 11.833 -35.001 20.5c-7.33301 4.66699 -14.666 9 -21.999 13s-14 6 -20 6
c-8.66699 0 -16.834 -4.33301 -24.501 -13s-12.834 -20 -15.501 -34h-45c4 26 14.167 47.833 30.5 65.5z" />
    <glyph glyph-name="utilde" unicode="&#x169;" horiz-adv-x="550" 
d="M88.5 27c-25 24.667 -37.501 61.6699 -37.501 111.003c0 15.333 2.33301 37.666 7 66.999l52 295h69l-51 -294c-4 -20.667 -6 -39.334 -6 -56.001c0 -68.667 31.667 -103 95 -103c30 0 58.333 7.66699 85 23s49.167 36.666 67.5 63.999s30.5 58 36.5 92l48 274h69
l-70 -400c-6 -32 -9 -65.333 -9 -100h-62l-1 20c0 13.333 2.33301 38 7 74h-4c-20.667 -32.667 -47.667 -58.167 -81 -76.5s-68.666 -27.5 -105.999 -27.5c-47.333 0 -83.5 12.333 -108.5 37zM221.499 619.503c16.333 17.667 36.1689 26.501 59.502 26.501
c12 0 23.167 -2.33301 33.5 -7s22.166 -11.334 35.499 -20.001c19.333 -13.333 34.333 -20 45 -20c9.33301 0 17.333 4 24 12s12.334 21 17.001 39h45c-5.33301 -28 -16.333 -51 -33 -69s-37 -27 -61 -27c-12 0 -23.333 2.5 -34 7.5s-22.334 11.833 -35.001 20.5
c-7.33301 4.66699 -14.666 9 -21.999 13s-14 6 -20 6c-8.66699 0 -16.834 -4.33301 -24.501 -13s-12.834 -20 -15.501 -34h-45c4 26 14.167 47.833 30.5 65.5z" />
    <glyph glyph-name="Umacron" unicode="&#x16a;" horiz-adv-x="656" 
d="M133.5 42c-35.667 34.667 -53.5 85.001 -53.5 151.001c0 24 2.66699 51.333 8 82l75 425h75l-75 -423c-5.33301 -32 -8 -58.667 -8 -80c0 -48.667 11.333 -85 34 -109s57.667 -36 105 -36c112.667 0 182.334 75 209.001 225l75 423h74l-75 -425
c-16.667 -96.667 -48.5 -168.334 -95.5 -215.001s-110.833 -70 -191.5 -70c-68.667 0 -120.834 17.333 -156.501 52zM277 814.001h301l-8 -50h-302z" />
    <glyph glyph-name="umacron" unicode="&#x16b;" horiz-adv-x="550" 
d="M88.5 27c-25 24.667 -37.501 61.6699 -37.501 111.003c0 15.333 2.33301 37.666 7 66.999l52 295h69l-51 -294c-4 -20.667 -6 -39.334 -6 -56.001c0 -68.667 31.667 -103 95 -103c30 0 58.333 7.66699 85 23s49.167 36.666 67.5 63.999s30.5 58 36.5 92l48 274h69
l-70 -400c-6 -32 -9 -65.333 -9 -100h-62l-1 20c0 13.333 2.33301 38 7 74h-4c-20.667 -32.667 -47.667 -58.167 -81 -76.5s-68.666 -27.5 -105.999 -27.5c-47.333 0 -83.5 12.333 -108.5 37zM189.999 614.003h301l-8 -50h-302z" />
    <glyph glyph-name="Ubreve" unicode="&#x16c;" horiz-adv-x="656" 
d="M133.5 42c-35.667 34.667 -53.5 85.001 -53.5 151.001c0 24 2.66699 51.333 8 82l75 425h75l-75 -423c-5.33301 -32 -8 -58.667 -8 -80c0 -48.667 11.333 -85 34 -109s57.667 -36 105 -36c112.667 0 182.334 75 209.001 225l75 423h74l-75 -425
c-16.667 -96.667 -48.5 -168.334 -95.5 -215.001s-110.833 -70 -191.5 -70c-68.667 0 -120.834 17.333 -156.501 52zM334 779.501c-22.667 17 -34 43.499 -34 79.499c0 9.33301 0.333008 16.333 1 21h43c-2 -24 3.5 -43 16.5 -57s34.5 -21 64.5 -21
c26.667 0 49.5 6.5 68.5 19.5s32.167 32.5 39.5 58.5h46c-8.66699 -39.333 -25.667 -70.166 -51 -92.499s-60 -33.5 -104 -33.5c-37.333 0 -67.333 8.5 -90 25.5z" />
    <glyph glyph-name="ubreve" unicode="&#x16d;" horiz-adv-x="550" 
d="M88.5 27c-25 24.667 -37.501 61.6699 -37.501 111.003c0 15.333 2.33301 37.666 7 66.999l52 295h69l-51 -294c-4 -20.667 -6 -39.334 -6 -56.001c0 -68.667 31.667 -103 95 -103c30 0 58.333 7.66699 85 23s49.167 36.666 67.5 63.999s30.5 58 36.5 92l48 274h69
l-70 -400c-6 -32 -9 -65.333 -9 -100h-62l-1 20c0 13.333 2.33301 38 7 74h-4c-20.667 -32.667 -47.667 -58.167 -81 -76.5s-68.666 -27.5 -105.999 -27.5c-47.333 0 -83.5 12.333 -108.5 37zM246.999 579.503c-22.667 17 -34 43.499 -34 79.499
c0 9.33301 0.333008 16.333 1 21h43c-2 -24 3.5 -43 16.5 -57s34.5 -21 64.5 -21c26.667 0 49.5 6.5 68.5 19.5s32.167 32.5 39.5 58.5h46c-8.66699 -39.333 -25.667 -70.166 -51 -92.499s-60 -33.5 -104 -33.5c-37.333 0 -67.333 8.5 -90 25.5z" />
    <glyph glyph-name="Uring" unicode="&#x16e;" horiz-adv-x="656" 
d="M133.5 42c-35.667 34.667 -53.5 85.001 -53.5 151.001c0 24 2.66699 51.333 8 82l75 425h75l-75 -423c-5.33301 -32 -8 -58.667 -8 -80c0 -48.667 11.333 -85 34 -109s57.667 -36 105 -36c112.667 0 182.334 75 209.001 225l75 423h74l-75 -425
c-16.667 -96.667 -48.5 -168.334 -95.5 -215.001s-110.833 -70 -191.5 -70c-68.667 0 -120.834 17.333 -156.501 52zM361 762.501c-14 13 -21 29.5 -21 49.5c0 30 9.66699 54.333 29 73s44.666 28 75.999 28c22.667 0 41 -6.5 55 -19.5s21 -29.5 21 -49.5
c0 -30 -9.66699 -54.333 -29 -73s-44.666 -28 -75.999 -28c-22.667 0 -41 6.5 -55 19.5zM465 793.501c11.333 11.667 16.998 26.5 16.998 44.5c0 12 -4 21.833 -12 29.5s-18.333 11.5 -31 11.5c-17.333 0 -31.666 -5.66699 -42.999 -17s-17 -26 -17 -44
c0 -12 3.83301 -22 11.5 -30s17.834 -12 30.501 -12c18 0 32.667 5.83301 44 17.5z" />
    <glyph glyph-name="uring" unicode="&#x16f;" horiz-adv-x="550" 
d="M88.5 27c-25 24.667 -37.501 61.6699 -37.501 111.003c0 15.333 2.33301 37.666 7 66.999l52 295h69l-51 -294c-4 -20.667 -6 -39.334 -6 -56.001c0 -68.667 31.667 -103 95 -103c30 0 58.333 7.66699 85 23s49.167 36.666 67.5 63.999s30.5 58 36.5 92l48 274h69
l-70 -400c-6 -32 -9 -65.333 -9 -100h-62l-1 20c0 13.333 2.33301 38 7 74h-4c-20.667 -32.667 -47.667 -58.167 -81 -76.5s-68.666 -27.5 -105.999 -27.5c-47.333 0 -83.5 12.333 -108.5 37zM273.999 562.503c-14 13 -21 29.5 -21 49.5c0 30 9.66699 54.333 29 73
s44.666 28 75.999 28c22.667 0 41 -6.5 55 -19.5s21 -29.5 21 -49.5c0 -30 -9.66699 -54.333 -29 -73s-44.666 -28 -75.999 -28c-22.667 0 -41 6.5 -55 19.5zM377.999 593.503c11.333 11.667 16.998 26.5 16.998 44.5c0 12 -4 21.833 -12 29.5s-18.333 11.5 -31 11.5
c-17.333 0 -31.666 -5.66699 -42.999 -17s-17 -26 -17 -44c0 -12 3.83301 -22 11.5 -30s17.834 -12 30.501 -12c18 0 32.667 5.83301 44 17.5z" />
    <glyph glyph-name="Uhungarumlaut" unicode="&#x170;" horiz-adv-x="656" 
d="M133.5 42c-35.667 34.667 -53.5 85.001 -53.5 151.001c0 24 2.66699 51.333 8 82l75 425h75l-75 -423c-5.33301 -32 -8 -58.667 -8 -80c0 -48.667 11.333 -85 34 -109s57.667 -36 105 -36c112.667 0 182.334 75 209.001 225l75 423h74l-75 -425
c-16.667 -96.667 -48.5 -168.334 -95.5 -215.001s-110.833 -70 -191.5 -70c-68.667 0 -120.834 17.333 -156.501 52zM409 894.001h72l-117 -140h-57zM538 894.001h73l-117 -140h-57z" />
    <glyph glyph-name="uhungarumlaut" unicode="&#x171;" horiz-adv-x="550" 
d="M88.5 27c-25 24.667 -37.501 61.6699 -37.501 111.003c0 15.333 2.33301 37.666 7 66.999l52 295h69l-51 -294c-4 -20.667 -6 -39.334 -6 -56.001c0 -68.667 31.667 -103 95 -103c30 0 58.333 7.66699 85 23s49.167 36.666 67.5 63.999s30.5 58 36.5 92l48 274h69
l-70 -400c-6 -32 -9 -65.333 -9 -100h-62l-1 20c0 13.333 2.33301 38 7 74h-4c-20.667 -32.667 -47.667 -58.167 -81 -76.5s-68.666 -27.5 -105.999 -27.5c-47.333 0 -83.5 12.333 -108.5 37zM321.999 694.003h72l-117 -140h-57zM450.999 694.003h73l-117 -140h-57z" />
    <glyph glyph-name="Uogonek" unicode="&#x172;" horiz-adv-x="656" 
d="M652 700l-75.001 -425.002c-16 -92 -45.667 -161.333 -89 -208s-101.666 -72 -174.999 -76c-26 -18 -46.333 -36.5 -61 -55.5s-22 -36.5 -22 -52.5c0 -13.333 5 -23.666 15 -30.999s24 -11 42 -11c14 0 32 4.33301 54 13l3 -30c-24.667 -18 -54.334 -27 -89.001 -27
c-24.667 0 -44.167 5.83301 -58.5 17.5s-21.5 28.167 -21.5 49.5c0 24.667 7.5 47.834 22.5 69.501s36.5 40.834 64.5 57.501c-60 4.66699 -105.333 24.167 -136 58.5s-46 82.166 -46 143.499c0 24 2.66699 51.333 8 82l75 425h75l-75 -423c-5.33301 -32 -8 -58.667 -8 -80
c0 -48.667 11.333 -85 34 -109s57.667 -36 105 -36c112.667 0 182.334 75 209.001 225l75 423h74z" />
    <glyph glyph-name="uogonek" unicode="&#x173;" horiz-adv-x="550" 
d="M362.5 -59c-17 -20.667 -25.5 -39.9961 -25.5 -57.9961c0 -13.333 5 -23.666 15 -30.999s24 -11 42 -11c14.667 0 32.667 4.33301 54 13l3 -30c-24.667 -18 -54.334 -27 -89.001 -27c-24.667 0 -44.167 5.83301 -58.5 17.5s-21.5 28.167 -21.5 49.5
c0 26.667 9 51.667 27 75s43.667 43.666 77 60.999h-4l-1 20c0 13.333 2.33301 38 7 74h-4c-20.667 -32.667 -47.667 -58.167 -81 -76.5s-68.666 -27.5 -105.999 -27.5c-47.333 0 -83.5 12.333 -108.5 37s-37.5 61.667 -37.5 111c0 15.333 2.33301 37.666 7 66.999l52 295
h69l-51 -294c-4 -20.667 -6 -39.334 -6 -56.001c0 -68.667 31.667 -103 95 -103c30 0 58.333 7.66699 85 23s49.167 36.666 67.5 63.999s30.5 58 36.5 92l48 274h69l-70 -400c-6 -32 -9 -65.333 -9 -100h-9c-31.333 -18.667 -55.5 -38.334 -72.5 -59.001z" />
    <glyph glyph-name="Wcircumflex" unicode="&#x174;" horiz-adv-x="817" 
d="M867 700l-267 -700h-75l-53 604l-266 -604h-77l-22 700h80l1 -594l260 594h78l49 -594l211 594h81zM494 890h53l80 -136h-58l-53 91l-86 -91h-63z" />
    <glyph glyph-name="wcircumflex" unicode="&#x175;" horiz-adv-x="655" 
d="M689 500l-213 -500h-63l-54 430l-204 -430h-64l-36 500h71l16 -410l196 410h65l51 -410l160 410h75zM379 690h53l80 -136h-58l-53 91l-86 -91h-63z" />
    <glyph glyph-name="Ycircumflex" unicode="&#x176;" horiz-adv-x="554" 
d="M245 278l-147 422h81l113 -353l238 353h84l-295 -422l-48 -278h-75zM363 890h53l80 -136h-58l-53 91l-86 -91h-63z" />
    <glyph glyph-name="ycircumflex" unicode="&#x177;" horiz-adv-x="448" 
d="M482 500l-266.999 -504c-35.333 -67.333 -73.333 -117.833 -114 -151.5s-84.667 -50.5 -132 -50.5c-18.667 0 -34.334 2 -47.001 6l9 52c11.333 -3.33301 24 -5 38 -5c35.333 0 67.5 13.167 96.5 39.5s61.5 71.5 97.5 135.5l-102 478h74l71 -403l198 403h78zM281.001 690
h53l80 -136h-58l-53 91l-86 -91h-63z" />
    <glyph glyph-name="Ydieresis" unicode="&#x178;" horiz-adv-x="554" 
d="M245 278l-147 422h81l113 -353l238 353h84l-295 -422l-48 -278h-75zM239 764.5c-7.33301 7 -11 15.834 -11 26.501c0 16 5.16699 29 15.5 39s23.833 15 40.5 15c11.333 0 20.666 -3.33301 27.999 -10s11 -15.334 11 -26.001c0 -16.667 -5.16699 -30 -15.5 -40
s-23.833 -15 -40.5 -15c-11.333 0 -20.666 3.5 -27.999 10.5zM435 764.501c-7.33301 7 -10.999 16.168 -10.999 27.501c0 15.333 5.16699 28 15.5 38s23.833 15 40.5 15c11.333 0 20.666 -3.33301 27.999 -10s11 -15.334 11 -26.001c0 -16.667 -5 -30 -15 -40
s-23.333 -15 -40 -15c-12 0 -21.667 3.5 -29 10.5z" />
    <glyph glyph-name="Zacute" unicode="&#x179;" horiz-adv-x="559" 
d="M1 44l484 594h-350l11 62h442l-8 -46l-482 -592h391l-11 -62h-485zM444 894h74l-118 -140h-57z" />
    <glyph glyph-name="zacute" unicode="&#x17a;" horiz-adv-x="443" 
d="M-9 41l365 403h-279l9 56h363l-7 -44l-359 -400h298l-10 -56h-387zM351 694h74l-118 -140h-57z" />
    <glyph glyph-name="Zdotaccent" unicode="&#x17b;" horiz-adv-x="559" 
d="M1 44l484 594h-350l11 62h442l-8 -46l-482 -592h391l-11 -62h-485zM339 764c-7.33301 6.66699 -10.999 15.667 -10.999 27c0 16 5.16699 29 15.5 39s23.833 15 40.5 15c11.333 0 20.666 -3.5 27.999 -10.5s11 -15.833 11 -26.5c0 -16 -5 -29 -15 -39s-23.333 -15 -40 -15
c-12 0 -21.667 3.33301 -29 10z" />
    <glyph glyph-name="zdotaccent" unicode="&#x17c;" horiz-adv-x="443" 
d="M-9 41l365 403h-279l9 56h363l-7 -44l-359 -400h298l-10 -56h-387zM246 564c-7.33301 6.66699 -10.999 15.667 -10.999 27c0 16 5.16699 29 15.5 39s23.833 15 40.5 15c11.333 0 20.666 -3.5 27.999 -10.5s11 -15.833 11 -26.5c0 -16 -5 -29 -15 -39s-23.333 -15 -40 -15
c-12 0 -21.667 3.33301 -29 10z" />
    <glyph glyph-name="Zcaron" unicode="&#x17d;" horiz-adv-x="559" 
d="M1 44l484 594h-350l11 62h442l-8 -46l-482 -592h391l-11 -62h-485zM261 890h59l53 -92l86 92h63l-127 -136h-53z" />
    <glyph glyph-name="zcaron" unicode="&#x17e;" horiz-adv-x="443" 
d="M-9 41l365 403h-279l9 56h363l-7 -44l-359 -400h298l-10 -56h-387zM168 690h59l53 -92l86 92h63l-127 -136h-53z" />
    <glyph glyph-name="uni018F" unicode="&#x18f;" horiz-adv-x="667" 
d="M585.5 638.5c47 -47.667 70.5 -113.167 70.5 -196.5c0 -86 -15.167 -163.333 -45.5 -232s-72.833 -122.5 -127.5 -161.5s-117 -58.5 -187 -58.5c-80 0 -142.333 22.167 -187 66.5s-67 106.833 -67 187.5c0 24 2.66699 52.667 8 86l9 49h519c2 18 3 36.667 3 56
c0 68 -16.5 120.667 -49.5 158s-79.833 56 -140.5 56c-42 0 -82.5 -9.33301 -121.5 -28s-72.5 -45 -100.5 -79l-42 46c30 38.667 68.333 68.667 115 90s96.667 32 150 32c82 0 146.5 -23.833 193.5 -71.5zM415 85c38 22.667 70.333 54.5 97 95.5s45.667 87.833 57 140.5
h-446l-3 -16c-4.66699 -22.667 -7 -45.667 -7 -69c0 -58 16 -103.333 48 -136s76 -49 132 -49c43.333 0 84 11.333 122 34z" />
    <glyph glyph-name="florin" unicode="&#x192;" horiz-adv-x="445" 
d="M337 635.5c-17.333 -13.667 -31.333 -33.833 -42 -60.5l-29 -75h156l-10 -56h-167l-198 -520h-71l200 520h-100l10 56h112l32 84c15.333 40.667 36.5 71.834 63.5 93.501s64.5 32.5 112.5 32.5c20.667 0 40.667 -3 60 -9s34 -13.667 44 -23l-33 -46
c-8.66699 7.33301 -19.167 13.166 -31.5 17.499s-24.833 6.5 -37.5 6.5c-30 0 -53.667 -6.83301 -71 -20.5z" />
    <glyph glyph-name="Ohorn" unicode="&#x1a0;" horiz-adv-x="683" 
d="M789 700l-4.99707 -31.999c-6.66699 -38.667 -22.834 -74 -48.501 -106s-56.5 -56.333 -92.5 -73c1.33301 -20 2 -35 2 -45c0 -84.667 -15.5 -161.667 -46.5 -231s-73.667 -123.833 -128 -163.5s-114.833 -59.5 -181.5 -59.5c-74.667 0 -133.834 23.833 -177.501 71.5
s-65.5 112.5 -65.5 194.5c0 84.667 15.5 161.667 46.5 231s73.833 123.833 128.5 163.5s115.667 59.5 183 59.5c60 0 110.167 -15.833 150.5 -47.5s67.166 -75.834 80.499 -132.501c24.667 18 43.5 37.5 56.5 58.5s22.5 47.5 28.5 79.5l5 32h64zM433.003 103.001
c42 34.667 75.335 81.832 100.002 141.499s37 124.834 37 195.501c0 65.333 -15 116.5 -45 153.5s-72 55.5 -126 55.5c-50.667 0 -97.334 -17.333 -140.001 -52s-76.334 -81.667 -101.001 -141s-37 -124.333 -37 -195c0 -66 15.167 -117.5 45.5 -154.5
s72.833 -55.5 127.5 -55.5c50.667 0 97 17.333 139 52z" />
    <glyph glyph-name="ohorn" unicode="&#x1a1;" horiz-adv-x="589" 
d="M658 500l-4.99902 -31.9971c-6.66699 -38 -22.167 -72.5 -46.5 -103.5s-53.833 -55.167 -88.5 -72.5c-2 -58 -15.5 -109.833 -40.5 -155.5s-58.5 -81.5 -100.5 -107.5s-89 -39 -141 -39c-62 0 -111.5 18.5 -148.5 55.5s-55.5 86.167 -55.5 147.5
c0 60 12 114.167 36 162.5s57.333 86.166 100 113.499s91 41 145 41c56.667 0 103 -15.333 139 -46s57.333 -72.334 64 -125.001c20.667 16 36.667 34.167 48 54.5s19.666 45.166 24.999 74.499l5 32h64zM344.001 79.5029c32 23 57.335 54.334 76.002 94.001
s28 83.167 28 130.5s-12.167 84.333 -36.5 111s-57.833 40 -100.5 40c-38.667 0 -73.834 -11.5 -105.501 -34.5s-56.834 -54.333 -75.501 -94s-28 -83.5 -28 -131.5c0 -46.667 12 -83.334 36 -110.001s57.333 -40 100 -40c38.667 0 74 11.5 106 34.5z" />
    <glyph glyph-name="Uhorn" unicode="&#x1af;" horiz-adv-x="681" 
d="M790 700l-5 -32c-8 -44 -27.667 -83.5 -59 -118.5s-69 -59.167 -113 -72.5l-36 -202c-16.667 -96.667 -48.5 -168.334 -95.5 -215.001s-110.833 -70 -191.5 -70c-68.667 0 -120.834 17.333 -156.501 52s-53.5 85 -53.5 151c0 24 2.66699 51.333 8 82l75 425h75l-75 -423
c-5.33301 -32 -8 -58.667 -8 -80c0 -48.667 11.333 -85 34 -109s57.667 -36 105 -36c112.667 0 182.334 75 209.001 225l75 423h74l-32 -181c30 19.333 52.667 40.333 68 63s26.333 51.334 33 86.001l5 32h64z" />
    <glyph glyph-name="uhorn" unicode="&#x1b0;" horiz-adv-x="590" 
d="M665 500l-5.00195 -31.9971c-8 -44.667 -28.167 -84.667 -60.5 -120s-70.833 -59.333 -115.5 -72l-31 -176c-6 -32 -9 -65.333 -9 -100h-62l-1 20c0 13.333 2.33301 38 7 74h-4c-20.667 -32.667 -47.667 -58.167 -81 -76.5s-68.666 -27.5 -105.999 -27.5
c-47.333 0 -83.5 12.333 -108.5 37s-37.5 61.667 -37.5 111c0 15.333 2.33301 37.666 7 66.999l52 295h69l-51 -294c-4 -20.667 -6 -39.334 -6 -56.001c0 -68.667 31.667 -103 95 -103c30 0 58.333 7.66699 85 23s49.167 36.666 67.5 63.999s30.5 58 36.5 92l48 274h69
l-32 -183c32 19.333 55.833 40.5 71.5 63.5s26.834 52.167 33.501 87.5l5 32h64z" />
    <glyph glyph-name="uni01CD" unicode="&#x1cd;" horiz-adv-x="581" 
d="M421 164h-282l-80 -164h-85l360 700h71l114 -700h-75zM412 225l-55 386l-188 -386h243zM272 890h59l53 -92l86 92h63l-127 -136h-53z" />
    <glyph glyph-name="uni01CE" unicode="&#x1ce;" horiz-adv-x="538" 
d="M78.5 42.5c-31 35 -46.501 82.833 -46.501 143.5c0 62 10.833 117.667 32.5 167s52 87.833 91 115.5s83.167 41.5 132.5 41.5c34.667 0 65 -7.5 91 -22.5s44.333 -35.833 55 -62.5h2l23 75h57l-66 -376c-9.33301 -48.667 -16 -90 -20 -124h-62
c5.33301 40.667 9.33301 68.667 12 84h-2c-20.667 -29.333 -46.167 -52.333 -76.5 -69s-62.166 -25 -95.499 -25c-54 0 -96.5 17.5 -127.5 52.5zM333.499 89.5c32.333 28.333 52.5 65.166 60.5 110.499l15 87c2.66699 13.333 4 27.333 4 42
c0 39.333 -10.833 70.166 -32.5 92.499s-51.5 33.5 -89.5 33.5c-35.333 0 -67.5 -11.5 -96.5 -34.5s-51.667 -54.667 -68 -95s-24.5 -85.166 -24.5 -134.499c0 -45.333 10.167 -80.666 30.5 -105.999s48.833 -38 85.5 -38c44.667 0 83.167 14.167 115.5 42.5zM198.999 690
h59l53 -92l86 92h63l-127 -136h-53z" />
    <glyph glyph-name="uni01CF" unicode="&#x1cf;" horiz-adv-x="284" 
d="M184 700h74l-123 -700h-74zM125 890h59l53 -92l86 92h63l-127 -136h-53z" />
    <glyph glyph-name="uni01D0" unicode="&#x1d0;" horiz-adv-x="244" 
d="M131 500h70l-88 -500h-70zM69 690h59l53 -92l86 92h63l-127 -136h-53z" />
    <glyph glyph-name="uni01D1" unicode="&#x1d1;" horiz-adv-x="655" 
d="M111.5 61.5c-43.667 47.667 -65.499 112.5 -65.499 194.5c0 84.667 15.5 161.667 46.5 231s73.833 123.833 128.5 163.5s115.667 59.5 183 59.5c48.667 0 91.167 -10.833 127.5 -32.5s64.333 -52.5 84 -92.5s29.5 -87 29.5 -141c0 -84.667 -15.5 -161.667 -46.5 -231
s-73.667 -123.833 -128 -163.5s-114.833 -59.5 -181.5 -59.5c-74.667 0 -133.834 23.833 -177.501 71.5zM433.001 103c42 34.667 75.335 81.832 100.002 141.499s37 124.834 37 195.501c0 65.333 -15 116.5 -45 153.5s-72 55.5 -126 55.5
c-50.667 0 -97.334 -17.333 -140.001 -52s-76.334 -81.667 -101.001 -141s-37 -124.333 -37 -195c0 -66 15.167 -117.5 45.5 -154.5s72.833 -55.5 127.5 -55.5c50.667 0 97 17.333 139 52zM311.003 889.998h59l53 -92l86 92h63l-127 -136h-53z" />
    <glyph glyph-name="uni01D2" unicode="&#x1d2;" horiz-adv-x="550" 
d="M87.5 45.5c-37 37 -55.5 86.167 -55.5 147.5c0 60 12 114.167 36 162.5s57.333 86.166 100 113.499s91 41 145 41c62 0 111.667 -18.5 149 -55.5s56 -86.167 56 -147.5c0 -60 -12.167 -114.167 -36.5 -162.5s-57.833 -86.166 -100.5 -113.499s-91 -41 -145 -41
c-62 0 -111.5 18.5 -148.5 55.5zM344 79.5c32 23 57.335 54.334 76.002 94.001s28 83.167 28 130.5s-12.167 84.333 -36.5 111s-57.833 40 -100.5 40c-38.667 0 -73.834 -11.5 -105.501 -34.5s-56.834 -54.333 -75.501 -94s-28 -83.5 -28 -131.5
c0 -46.667 12 -83.334 36 -110.001s57.333 -40 100 -40c38.667 0 74 11.5 106 34.5zM222.002 690.001h59l53 -92l86 92h63l-127 -136h-53z" />
    <glyph glyph-name="uni01D3" unicode="&#x1d3;" horiz-adv-x="656" 
d="M133.5 42c-35.667 34.667 -53.5 85.001 -53.5 151.001c0 24 2.66699 51.333 8 82l75 425h75l-75 -423c-5.33301 -32 -8 -58.667 -8 -80c0 -48.667 11.333 -85 34 -109s57.667 -36 105 -36c112.667 0 182.334 75 209.001 225l75 423h74l-75 -425
c-16.667 -96.667 -48.5 -168.334 -95.5 -215.001s-110.833 -70 -191.5 -70c-68.667 0 -120.834 17.333 -156.501 52zM311 890.001h59l53 -92l86 92h63l-127 -136h-53z" />
    <glyph glyph-name="uni01D4" unicode="&#x1d4;" horiz-adv-x="550" 
d="M88.5 27c-25 24.667 -37.501 61.6699 -37.501 111.003c0 15.333 2.33301 37.666 7 66.999l52 295h69l-51 -294c-4 -20.667 -6 -39.334 -6 -56.001c0 -68.667 31.667 -103 95 -103c30 0 58.333 7.66699 85 23s49.167 36.666 67.5 63.999s30.5 58 36.5 92l48 274h69
l-70 -400c-6 -32 -9 -65.333 -9 -100h-62l-1 20c0 13.333 2.33301 38 7 74h-4c-20.667 -32.667 -47.667 -58.167 -81 -76.5s-68.666 -27.5 -105.999 -27.5c-47.333 0 -83.5 12.333 -108.5 37zM223.999 690.003h59l53 -92l86 92h63l-127 -136h-53z" />
    <glyph glyph-name="uni01D5" unicode="&#x1d5;" horiz-adv-x="656" 
d="M133.5 42c-35.667 34.667 -53.5 85.001 -53.5 151.001c0 24 2.66699 51.333 8 82l75 425h75l-75 -423c-5.33301 -32 -8 -58.667 -8 -80c0 -48.667 11.333 -85 34 -109s57.667 -36 105 -36c112.667 0 182.334 75 209.001 225l75 423h74l-75 -425
c-16.667 -96.667 -48.5 -168.334 -95.5 -215.001s-110.833 -70 -191.5 -70c-68.667 0 -120.834 17.333 -156.501 52zM303 939.001h275l-7 -48h-275zM286 764.501c-7.33301 7 -11 15.834 -11 26.501c0 16 5.16699 29 15.5 39s23.833 15 40.5 15
c11.333 0 20.666 -3.33301 27.999 -10s11 -15.334 11 -26.001c0 -16.667 -5.16699 -30 -15.5 -40s-23.833 -15 -40.5 -15c-11.333 0 -20.666 3.5 -27.999 10.5zM482 764.502c-7.33301 7 -10.999 16.168 -10.999 27.501c0 15.333 5.16699 28 15.5 38s23.833 15 40.5 15
c11.333 0 20.666 -3.33301 27.999 -10s11 -15.334 11 -26.001c0 -16.667 -5 -30 -15 -40s-23.333 -15 -40 -15c-12 0 -21.667 3.5 -29 10.5z" />
    <glyph glyph-name="uni01D6" unicode="&#x1d6;" horiz-adv-x="550" 
d="M88.5 27c-25 24.667 -37.501 61.6699 -37.501 111.003c0 15.333 2.33301 37.666 7 66.999l52 295h69l-51 -294c-4 -20.667 -6 -39.334 -6 -56.001c0 -68.667 31.667 -103 95 -103c30 0 58.333 7.66699 85 23s49.167 36.666 67.5 63.999s30.5 58 36.5 92l48 274h69
l-70 -400c-6 -32 -9 -65.333 -9 -100h-62l-1 20c0 13.333 2.33301 38 7 74h-4c-20.667 -32.667 -47.667 -58.167 -81 -76.5s-68.666 -27.5 -105.999 -27.5c-47.333 0 -83.5 12.333 -108.5 37zM215.999 739.003h275l-7 -48h-275zM198.999 564.503
c-7.33301 7 -11 15.834 -11 26.501c0 16 5.16699 29 15.5 39s23.833 15 40.5 15c11.333 0 20.666 -3.33301 27.999 -10s11 -15.334 11 -26.001c0 -16.667 -5.16699 -30 -15.5 -40s-23.833 -15 -40.5 -15c-11.333 0 -20.666 3.5 -27.999 10.5zM394.999 564.504
c-7.33301 7 -10.999 16.168 -10.999 27.501c0 15.333 5.16699 28 15.5 38s23.833 15 40.5 15c11.333 0 20.666 -3.33301 27.999 -10s11 -15.334 11 -26.001c0 -16.667 -5 -30 -15 -40s-23.333 -15 -40 -15c-12 0 -21.667 3.5 -29 10.5z" />
    <glyph glyph-name="uni01D7" unicode="&#x1d7;" horiz-adv-x="656" 
d="M133.5 42c-35.667 34.667 -53.5 85.001 -53.5 151.001c0 24 2.66699 51.333 8 82l75 425h75l-75 -423c-5.33301 -32 -8 -58.667 -8 -80c0 -48.667 11.333 -85 34 -109s57.667 -36 105 -36c112.667 0 182.334 75 209.001 225l75 423h74l-75 -425
c-16.667 -96.667 -48.5 -168.334 -95.5 -215.001s-110.833 -70 -191.5 -70c-68.667 0 -120.834 17.333 -156.501 52zM473 969.001h63l-81 -100h-47zM291 764.501c-7.33301 7 -11 15.834 -11 26.501c0 16 5.16699 29 15.5 39s23.833 15 40.5 15
c11.333 0 20.666 -3.33301 27.999 -10s11 -15.334 11 -26.001c0 -16.667 -5.16699 -30 -15.5 -40s-23.833 -15 -40.5 -15c-11.333 0 -20.666 3.5 -27.999 10.5zM487 764.502c-7.33301 7 -10.999 16.168 -10.999 27.501c0 15.333 5.16699 28 15.5 38s23.833 15 40.5 15
c11.333 0 20.666 -3.33301 27.999 -10s11 -15.334 11 -26.001c0 -16.667 -5 -30 -15 -40s-23.333 -15 -40 -15c-12 0 -21.667 3.5 -29 10.5z" />
    <glyph glyph-name="uni01D8" unicode="&#x1d8;" horiz-adv-x="550" 
d="M88.5 27c-25 24.667 -37.501 61.6699 -37.501 111.003c0 15.333 2.33301 37.666 7 66.999l52 295h69l-51 -294c-4 -20.667 -6 -39.334 -6 -56.001c0 -68.667 31.667 -103 95 -103c30 0 58.333 7.66699 85 23s49.167 36.666 67.5 63.999s30.5 58 36.5 92l48 274h69
l-70 -400c-6 -32 -9 -65.333 -9 -100h-62l-1 20c0 13.333 2.33301 38 7 74h-4c-20.667 -32.667 -47.667 -58.167 -81 -76.5s-68.666 -27.5 -105.999 -27.5c-47.333 0 -83.5 12.333 -108.5 37zM385.999 769.003h63l-81 -100h-47zM203.999 564.503
c-7.33301 7 -11 15.834 -11 26.501c0 16 5.16699 29 15.5 39s23.833 15 40.5 15c11.333 0 20.666 -3.33301 27.999 -10s11 -15.334 11 -26.001c0 -16.667 -5.16699 -30 -15.5 -40s-23.833 -15 -40.5 -15c-11.333 0 -20.666 3.5 -27.999 10.5zM399.999 564.504
c-7.33301 7 -10.999 16.168 -10.999 27.501c0 15.333 5.16699 28 15.5 38s23.833 15 40.5 15c11.333 0 20.666 -3.33301 27.999 -10s11 -15.334 11 -26.001c0 -16.667 -5 -30 -15 -40s-23.333 -15 -40 -15c-12 0 -21.667 3.5 -29 10.5z" />
    <glyph glyph-name="uni01D9" unicode="&#x1d9;" horiz-adv-x="656" 
d="M133.5 42c-35.667 34.667 -53.5 85.001 -53.5 151.001c0 24 2.66699 51.333 8 82l75 425h75l-75 -423c-5.33301 -32 -8 -58.667 -8 -80c0 -48.667 11.333 -85 34 -109s57.667 -36 105 -36c112.667 0 182.334 75 209.001 225l75 423h74l-75 -425
c-16.667 -96.667 -48.5 -168.334 -95.5 -215.001s-110.833 -70 -191.5 -70c-68.667 0 -120.834 17.333 -156.501 52zM329 980.001h59l53 -75l79 75h66l-127 -117h-46zM291 764.501c-7.33301 7 -11 15.834 -11 26.501c0 16 5.16699 29 15.5 39s23.833 15 40.5 15
c11.333 0 20.666 -3.33301 27.999 -10s11 -15.334 11 -26.001c0 -16.667 -5.16699 -30 -15.5 -40s-23.833 -15 -40.5 -15c-11.333 0 -20.666 3.5 -27.999 10.5zM487 764.502c-7.33301 7 -10.999 16.168 -10.999 27.501c0 15.333 5.16699 28 15.5 38s23.833 15 40.5 15
c11.333 0 20.666 -3.33301 27.999 -10s11 -15.334 11 -26.001c0 -16.667 -5 -30 -15 -40s-23.333 -15 -40 -15c-12 0 -21.667 3.5 -29 10.5z" />
    <glyph glyph-name="uni01DA" unicode="&#x1da;" horiz-adv-x="550" 
d="M88.5 27c-25 24.667 -37.501 61.6699 -37.501 111.003c0 15.333 2.33301 37.666 7 66.999l52 295h69l-51 -294c-4 -20.667 -6 -39.334 -6 -56.001c0 -68.667 31.667 -103 95 -103c30 0 58.333 7.66699 85 23s49.167 36.666 67.5 63.999s30.5 58 36.5 92l48 274h69
l-70 -400c-6 -32 -9 -65.333 -9 -100h-62l-1 20c0 13.333 2.33301 38 7 74h-4c-20.667 -32.667 -47.667 -58.167 -81 -76.5s-68.666 -27.5 -105.999 -27.5c-47.333 0 -83.5 12.333 -108.5 37zM241.999 780.003h59l53 -75l79 75h66l-127 -117h-46zM203.999 564.503
c-7.33301 7 -11 15.834 -11 26.501c0 16 5.16699 29 15.5 39s23.833 15 40.5 15c11.333 0 20.666 -3.33301 27.999 -10s11 -15.334 11 -26.001c0 -16.667 -5.16699 -30 -15.5 -40s-23.833 -15 -40.5 -15c-11.333 0 -20.666 3.5 -27.999 10.5zM399.999 564.504
c-7.33301 7 -10.999 16.168 -10.999 27.501c0 15.333 5.16699 28 15.5 38s23.833 15 40.5 15c11.333 0 20.666 -3.33301 27.999 -10s11 -15.334 11 -26.001c0 -16.667 -5 -30 -15 -40s-23.333 -15 -40 -15c-12 0 -21.667 3.5 -29 10.5z" />
    <glyph glyph-name="uni01DB" unicode="&#x1db;" horiz-adv-x="656" 
d="M133.5 42c-35.667 34.667 -53.5 85.001 -53.5 151.001c0 24 2.66699 51.333 8 82l75 425h75l-75 -423c-5.33301 -32 -8 -58.667 -8 -80c0 -48.667 11.333 -85 34 -109s57.667 -36 105 -36c112.667 0 182.334 75 209.001 225l75 423h74l-75 -425
c-16.667 -96.667 -48.5 -168.334 -95.5 -215.001s-110.833 -70 -191.5 -70c-68.667 0 -120.834 17.333 -156.501 52zM375 969.001h63l29 -100h-47zM290 764.501c-7.33301 7 -11 15.834 -11 26.501c0 16 5.16699 29 15.5 39s23.833 15 40.5 15
c11.333 0 20.666 -3.33301 27.999 -10s11 -15.334 11 -26.001c0 -16.667 -5.16699 -30 -15.5 -40s-23.833 -15 -40.5 -15c-11.333 0 -20.666 3.5 -27.999 10.5zM486 764.502c-7.33301 7 -10.999 16.168 -10.999 27.501c0 15.333 5.16699 28 15.5 38s23.833 15 40.5 15
c11.333 0 20.666 -3.33301 27.999 -10s11 -15.334 11 -26.001c0 -16.667 -5 -30 -15 -40s-23.333 -15 -40 -15c-12 0 -21.667 3.5 -29 10.5z" />
    <glyph glyph-name="uni01DC" unicode="&#x1dc;" horiz-adv-x="550" 
d="M88.5 27c-25 24.667 -37.501 61.6699 -37.501 111.003c0 15.333 2.33301 37.666 7 66.999l52 295h69l-51 -294c-4 -20.667 -6 -39.334 -6 -56.001c0 -68.667 31.667 -103 95 -103c30 0 58.333 7.66699 85 23s49.167 36.666 67.5 63.999s30.5 58 36.5 92l48 274h69
l-70 -400c-6 -32 -9 -65.333 -9 -100h-62l-1 20c0 13.333 2.33301 38 7 74h-4c-20.667 -32.667 -47.667 -58.167 -81 -76.5s-68.666 -27.5 -105.999 -27.5c-47.333 0 -83.5 12.333 -108.5 37zM287.999 769.003h63l29 -100h-47zM202.999 564.503
c-7.33301 7 -11 15.834 -11 26.501c0 16 5.16699 29 15.5 39s23.833 15 40.5 15c11.333 0 20.666 -3.33301 27.999 -10s11 -15.334 11 -26.001c0 -16.667 -5.16699 -30 -15.5 -40s-23.833 -15 -40.5 -15c-11.333 0 -20.666 3.5 -27.999 10.5zM398.999 564.504
c-7.33301 7 -10.999 16.168 -10.999 27.501c0 15.333 5.16699 28 15.5 38s23.833 15 40.5 15c11.333 0 20.666 -3.33301 27.999 -10s11 -15.334 11 -26.001c0 -16.667 -5 -30 -15 -40s-23.333 -15 -40 -15c-12 0 -21.667 3.5 -29 10.5z" />
    <glyph glyph-name="Gcaron" unicode="&#x1e6;" horiz-adv-x="633" 
d="M340 356l244.999 0.000976562l-62 -356h-46l-8 47c-24 -18.667 -51.167 -32.834 -81.5 -42.501s-62.5 -14.5 -96.5 -14.5c-75.333 0 -135 23.667 -179 71s-66 112 -66 194c0 85.333 15.667 162.666 47 231.999s74.833 123.833 130.5 163.5s118.167 59.5 187.5 59.5
c50 0 93.833 -9.33301 131.5 -28s62.834 -44 75.501 -76l-47 -43c-13.333 27.333 -34 48.333 -62 63s-62 22 -102 22c-53.333 0 -101.833 -17 -145.5 -51s-78 -80.667 -103 -140s-37.5 -125.666 -37.5 -198.999c0 -66.667 15.5 -118 46.5 -154s75.167 -54 132.5 -54
c32 0 62.833 5.16699 92.5 15.5s55.167 24.833 76.5 43.5l34 190h-173zM318.999 890.001h59l53 -92l86 92h63l-127 -136h-53z" />
    <glyph glyph-name="gcaron" unicode="&#x1e7;" horiz-adv-x="538" 
d="M515 500l-85.001 -484.998c-13.333 -78.667 -42.166 -138.334 -86.499 -179.001s-102.833 -61 -175.5 -61c-32.667 0 -64.167 3.83301 -94.5 11.5s-57.166 18.167 -80.499 31.5l33 53c23.333 -12.667 46.666 -21.834 69.999 -27.501s48.333 -8.5 75 -8.5
c54.667 0 98.167 15.667 130.5 47s54.166 79 65.499 143l9 51c-18 -26.667 -41.667 -47.5 -71 -62.5s-61.333 -22.5 -96 -22.5c-55.333 0 -98.666 17 -129.999 51s-47 81 -47 141c0 62 10.833 118 32.5 168s52 89 91 117s82.833 42 131.5 42
c34.667 0 65.167 -7.5 91.5 -22.5s44.833 -35.833 55.5 -62.5h2l22 75h57zM411.999 328.002c0 40 -10.333 71.166 -31 93.499s-50 33.5 -88 33.5c-36 0 -68.667 -11.5 -98 -34.5s-52.333 -54.667 -69 -95s-25 -85.166 -25 -134.499c0 -45.333 10.5 -80.5 31.5 -105.5
s50.167 -37.5 87.5 -37.5c45.333 0 83.5 13.833 114.5 41.5s50.833 65.5 59.5 113.5l14 81c2.66699 14 4 28.667 4 44zM202.999 690.001h59l53 -92l86 92h63l-127 -136h-53z" />
    <glyph glyph-name="Aringacute" unicode="&#x1fa;" horiz-adv-x="581" 
d="M442 913h-51l67 101h66zM321.5 739.5c-14.333 13 -21.499 29.501 -21.499 49.501c0 30 9.66699 54.167 29 72.5s44.666 27.5 75.999 27.5c22.667 0 41 -6.33301 55 -19s21 -29.334 21 -50.001c0 -29.333 -9.66699 -53.333 -29 -72s-44.333 -28 -75 -28
c-22.667 0 -41.167 6.5 -55.5 19.5zM356.001 839.001c-11.333 -11.333 -16.998 -25.999 -16.998 -43.999c0 -12.667 4 -22.834 12 -30.501s18.333 -11.5 31 -11.5c17.333 0 31.666 5.66699 42.999 17s17 26.333 17 45c0 12 -3.83301 21.833 -11.5 29.5
s-17.834 11.5 -30.501 11.5c-18 0 -32.667 -5.66699 -44 -17zM405.003 700.002l114 -700h-75l-23 164h-282l-80 -164h-85l360 700h71zM412.003 225.002l-55 386l-188 -386h243z" />
    <glyph glyph-name="aringacute" unicode="&#x1fb;" horiz-adv-x="538" 
d="M389 844h66l-82 -101h-51zM249.5 562.5c-14.333 13 -21.499 29.5 -21.499 49.5c0 30 9.66699 54.333 29 73s44.666 28 75.999 28c22.667 0 41 -6.5 55 -19.5s21 -29.5 21 -49.5c0 -30 -9.66699 -54.333 -29 -73s-44.333 -28 -75 -28c-22.667 0 -41.167 6.5 -55.5 19.5z
M353.001 593.5c11.333 11.667 17.002 26.5 17.002 44.5c0 12 -3.83301 21.833 -11.5 29.5s-17.834 11.5 -30.501 11.5c-18 0 -32.667 -5.66699 -44 -17s-17 -26 -17 -44c0 -12 4 -22 12 -30s18.333 -12 31 -12c17.333 0 31.666 5.83301 42.999 17.5zM78.5029 42.5
c-31 35 -46.501 82.833 -46.501 143.5c0 62 10.833 117.667 32.5 167s52 87.833 91 115.5s83.167 41.5 132.5 41.5c34.667 0 65 -7.5 91 -22.5s44.333 -35.833 55 -62.5h2l23 75h57l-66 -376c-9.33301 -48.667 -16 -90 -20 -124h-62c5.33301 40.667 9.33301 68.667 12 84h-2
c-20.667 -29.333 -46.167 -52.333 -76.5 -69s-62.166 -25 -95.499 -25c-54 0 -96.5 17.5 -127.5 52.5zM333.502 89.5c32.333 28.333 52.5 65.166 60.5 110.499l15 87c2.66699 13.333 4 27.333 4 42c0 39.333 -10.833 70.166 -32.5 92.499s-51.5 33.5 -89.5 33.5
c-35.333 0 -67.5 -11.5 -96.5 -34.5s-51.667 -54.667 -68 -95s-24.5 -85.166 -24.5 -134.499c0 -45.333 10.167 -80.666 30.5 -105.999s48.833 -38 85.5 -38c44.667 0 83.167 14.167 115.5 42.5z" />
    <glyph glyph-name="AEacute" unicode="&#x1fc;" horiz-adv-x="791" 
d="M515 638l-42 -239h254l-11 -61h-254l-48 -276h288l-11 -62h-362l28 161h-197l-104 -161h-82l454 700h386l-11 -62h-288zM432 584l-235 -364h171zM620 894h74l-118 -140h-57z" />
    <glyph glyph-name="aeacute" unicode="&#x1fd;" horiz-adv-x="827" 
d="M750.5 464c32.333 -30.667 48.499 -74.002 48.499 -130.002c0 -20 -2 -41 -6 -63l-5 -31h-364l-2 -15c-1.33301 -16 -2 -27.667 -2 -35c0 -45.333 11.333 -80.166 34 -104.499s55 -36.5 97 -36.5c29.333 0 57.333 6.33301 84 19s50 31 70 55l34 -39
c-24 -30 -53.167 -53.167 -87.5 -69.5s-71.166 -24.5 -110.499 -24.5c-41.333 0 -76.5 8.16699 -105.5 24.5s-50.5 39.833 -64.5 70.5c-23.333 -28.667 -52.666 -51.667 -87.999 -69s-73.333 -26 -114 -26c-48 0 -85.667 12.333 -113 37s-41 56 -41 94
c0 52.667 21 94.334 63 125.001s97.667 46 167 46h120l6 34c2 12 3 23.333 3 34c0 30 -8.66699 53 -26 69s-42.666 24 -75.999 24c-30 0 -58.667 -6.66699 -86 -20s-51 -32 -71 -56l-29 44c50 59.333 114.333 89 193 89c38.667 0 71.167 -7.33301 97.5 -22
s45.166 -35.667 56.499 -63c23.333 27.333 50.666 48.333 81.999 63s65.333 22 102 22c56.667 0 101.167 -15.333 133.5 -46zM738.999 334.998c0 35.333 -10.667 63.832 -32 85.499s-52.333 32.5 -93 32.5s-77.167 -14.667 -109.5 -44s-55.833 -68.333 -70.5 -117h300l3 14
c1.33301 6.66699 2 16.334 2 29.001zM284.999 79.9971c32 22.667 51.001 50.668 57.001 84.001l13 72l1 4h-114c-46.667 0 -84.834 -10.833 -114.501 -32.5s-44.5 -49.834 -44.5 -84.501c0 -22.667 8.33301 -41.167 25 -55.5s39 -21.5 67 -21.5c41.333 0 78 11.333 110 34z
M541 693.998h74l-118 -140h-57z" />
    <glyph glyph-name="Oslashacute" unicode="&#x1fe;" horiz-adv-x="655" 
d="M628.5 553c11 -32.667 16.5 -69 16.5 -109c0 -84.667 -15.5 -161.667 -46.5 -231s-73.667 -123.833 -128 -163.5s-114.833 -59.5 -181.5 -59.5c-53.333 0 -99.333 12.667 -138 38l-50 -71h-61l73 103c-44.667 48 -67 113.333 -67 196c0 84.667 15.5 161.667 46.5 231
s73.833 123.833 128.5 163.5s115.667 59.5 183 59.5c53.333 0 99.333 -13 138 -39l38 54h64l-62 -88c20 -23.333 35.5 -51.333 46.5 -84zM156 121l347.002 494c-28 22.667 -62.667 34 -104 34c-50.667 0 -97.334 -17.333 -140.001 -52s-76.334 -81.667 -101.001 -141
s-37 -124.333 -37 -195c0 -58 11.667 -104.667 35 -140zM433.002 103c42 34.667 75.332 81.832 99.999 141.499s37 124.834 37 195.501c0 55.333 -10.667 100.333 -32 135l-348 -492c28.667 -21.333 63.334 -32 104.001 -32c50.667 0 97 17.333 139 52zM494.001 893.998h74
l-118 -140h-57z" />
    <glyph glyph-name="oslashacute" unicode="&#x1ff;" horiz-adv-x="550" 
d="M518 307c0 -60 -12.166 -114.166 -36.499 -162.499s-57.833 -86.166 -100.5 -113.499s-91 -41 -145 -41c-36.667 0 -69.334 6.66699 -98.001 20l-38 -53h-54l54 77c-22 17.333 -38.833 39.666 -50.5 66.999s-17.5 58 -17.5 92c0 60 12 114.167 36 162.5
s57.333 86.166 100 113.499s91 41 145 41c40 0 75 -8 105 -24l34 49h58l-53 -75c40.667 -37.333 61 -88.333 61 -153zM137.001 86.001l246.002 351c-20 12 -44 18 -72 18c-38.667 0 -73.834 -11.5 -105.501 -34.5s-56.834 -54.333 -75.501 -94s-28 -83.5 -28 -131.5
c0 -46 11.667 -82.333 35 -109zM344.003 79.501c32 23 57.333 54.333 76 94s28 83.167 28 130.5c0 42.667 -9.66699 76.667 -29 102l-247 -347c20 -9.33301 42 -14 66 -14c38.667 0 74 11.5 106 34.5zM405.003 694.001h74l-118 -140h-57z" />
    <glyph glyph-name="uni0218" unicode="&#x218;" horiz-adv-x="525" 
d="M100.5 18.5c-37.667 19 -65.5 44.165 -83.5 75.498l53 45c16.667 -26 39.334 -47 68.001 -63s58.667 -24 90 -24c48 0 87.667 13 119 39s47 59.667 47 101c0 30 -10.167 56 -30.5 78s-50.833 44 -91.5 66c-52.667 28.667 -92.167 57.834 -118.5 87.501
s-39.5 63.167 -39.5 100.5s9.66699 70 29 98s46 49.667 80 65s72.667 23 116 23c45.333 0 85.666 -9.83301 120.999 -29.5s58.666 -45.167 69.999 -76.5l-56 -35c-11.333 24 -29.166 43.167 -53.499 57.5s-51.5 21.5 -81.5 21.5c-43.333 0 -79.166 -11 -107.499 -33
s-42.5 -50.667 -42.5 -86c0 -24.667 10.333 -46.667 31 -66s57.667 -44 111 -74c92.667 -50.667 139 -114 139 -190c0 -42 -10.333 -78.667 -31 -110s-49.334 -55.666 -86.001 -72.999s-79 -26 -127 -26c-46 0 -87.833 9.5 -125.5 28.5zM239.5 -84.502
c8.33301 -8.33301 12.499 -19.168 12.499 -32.501c0 -21.333 -7.66699 -45.666 -23 -72.999s-35 -51.666 -59 -72.999l-27 21c14 17.333 24.5 30.833 31.5 40.5s12.833 20.167 17.5 31.5h-6c-11.333 0 -20.666 3.5 -27.999 10.5s-11 16.167 -11 27.5
c0 17.333 5.5 31.666 16.5 42.999s25.167 17 42.5 17c14 0 25.167 -4.16699 33.5 -12.5z" />
    <glyph glyph-name="uni0219" unicode="&#x219;" horiz-adv-x="409" 
d="M61.5 13c-29.667 15.333 -48.167 34.3379 -55.5 57.0049l52 32c8 -18 21.5 -32 40.5 -42s40.833 -15 65.5 -15c34.667 0 63.334 10.167 86.001 30.5s34 45.5 34 75.5c0 19.333 -6.5 35.666 -19.5 48.999s-35.833 26.666 -68.5 39.999c-44.667 18 -77 37.167 -97 57.5
s-30 44.166 -30 71.499c0 43.333 15.667 77.666 47 102.999s73.666 38 126.999 38c32 0 61.5 -7.33301 88.5 -22s44.833 -33.334 53.5 -56.001l-50 -32c-8 18 -20.167 31.667 -36.5 41s-35.166 14 -56.499 14c-30.667 0 -55.5 -7.16699 -74.5 -21.5
s-28.5 -32.833 -28.5 -55.5c0 -16 7.66699 -30.5 23 -43.5s41.666 -27.167 78.999 -42.5c38.667 -16.667 67.334 -35.667 86.001 -57s28 -46 28 -74c0 -33.333 -8 -63 -24 -89s-38.667 -46.167 -68 -60.5s-63.333 -21.5 -102 -21.5c-36.667 0 -69.834 7.66699 -99.501 23z
M181.5 -84.4951c8.33301 -8.33301 12.499 -19.168 12.499 -32.501c0 -21.333 -7.66699 -45.666 -23 -72.999s-35 -51.666 -59 -72.999l-27 21c14 17.333 24.5 30.833 31.5 40.5s12.833 20.167 17.5 31.5h-6c-11.333 0 -20.666 3.5 -27.999 10.5s-11 16.167 -11 27.5
c0 17.333 5.5 31.666 16.5 42.999s25.167 17 42.5 17c14 0 25.167 -4.16699 33.5 -12.5z" />
    <glyph glyph-name="uni021A" unicode="&#x21a;" horiz-adv-x="547" 
d="M306 640h-219l11 60h510l-11 -60h-217l-113 -640h-74zM250.5 -84.5c8.33301 -8.33301 12.499 -19.168 12.499 -32.501c0 -21.333 -7.66699 -45.666 -23 -72.999s-35 -51.666 -59 -72.999l-27 21c14 17.333 24.5 30.833 31.5 40.5s12.833 20.167 17.5 31.5h-6
c-11.333 0 -20.666 3.5 -27.999 10.5s-11 16.167 -11 27.5c0 17.333 5.5 31.666 16.5 42.999s25.167 17 42.5 17c14 0 25.167 -4.16699 33.5 -12.5z" />
    <glyph glyph-name="uni021B" unicode="&#x21b;" horiz-adv-x="363" 
d="M106.5 19c-20.333 19.333 -30.5 47.332 -30.5 83.999c0 7.33301 1.33301 20.333 4 39l54 303h-90l10 55h90l24 135l69 21h4l-27 -156h141l-10 -55h-141l-52 -291c-2.66699 -13.333 -4 -26.666 -4 -39.999c0 -22 5 -38.667 15 -50s26.333 -17 49 -17c26 0 49.333 4 70 12
l-3 -53c-24 -10.667 -53 -16 -87 -16c-36.667 0 -65.167 9.66699 -85.5 29zM195.5 -84.501c8.33301 -8.33301 12.499 -19.168 12.499 -32.501c0 -21.333 -7.66699 -45.666 -23 -72.999s-35 -51.666 -59 -72.999l-27 21c14 17.333 24.5 30.833 31.5 40.5
s12.833 20.167 17.5 31.5h-6c-11.333 0 -20.666 3.5 -27.999 10.5s-11 16.167 -11 27.5c0 17.333 5.5 31.666 16.5 42.999s25.167 17 42.5 17c14 0 25.167 -4.16699 33.5 -12.5z" />
    </font>
</defs>
</svg>
